<?xml version="1.0" encoding="utf-8" standalone="no"?>
<!DOCTYPE svg PUBLIC "-//W3C//DTD SVG 1.1//EN" "http://www.w3.org/Graphics/SVG/1.1/DTD/svg11.dtd">

<svg version="1.1" height="700pt" width="700pt" xmlns="http://www.w3.org/2000/svg" xmlns:xlink="http://www.w3.org/1999/xlink">
<desc>
Map version: 1.1.1
Copyright (c) 2014 Highsoft AS, Based on data from Kartverket
</desc>
<title>Oppland</title>
<g id="admin2">

<g id="NO.OP">
  <desc xmlns="http://www.highcharts.com/svg/namespace">
    <labelrank>7</labelrank>
    <hasc>NO.OP</hasc>
    <alt-name>Oppland fylke|Kristian|Opland|Upplönd</alt-name>
    <woe-id>2346394</woe-id>
    <subregion>NULL</subregion>
    <fips>NO11</fips>
    <postal-code>OP</postal-code>
    <name>Oppland</name>
    <country>Norway</country>
    <type-en>County</type-en>
    <region>NULL</region>
    <longitude>9.24644</longitude>
    <woe-name>Oppland</woe-name>
    <latitude>61.5731</latitude>
    <woe-label>Oppland Fylke, NO, Norway</woe-label>
    <type>Fylke</type>
    <hc-key>no-op</hc-key>
    <hc-a2>OP</hc-a2>
  </desc>
</g>

<g id="NO">
  <desc xmlns="http://www.highcharts.com/svg/namespace">
    <name>Norway</name>
    <labelrank>3</labelrank>
    <country-abbrev>Nor.</country-abbrev>
    <subregion>Northern Europe</subregion>
    <woe-id>-90</woe-id>
    <region-wb>Europe &amp; Central Asia</region-wb>
    <iso-a3>NOR</iso-a3>
    <iso-a2>NO</iso-a2>
    <region-un>Europe</region-un>
    <continent>Europe</continent>
    <hc-key>no</hc-key>
    <hc-a2>NO</hc-a2>
  </desc>
</g>

<path fill="#CEE3F5" stroke="#6E6E6E" stroke-width="0.4" id="NO.OP.522" d="M339.5,382.3 L328.1,369.9 L318.0,358.0 L314.2,356.3 L299.0,346.6 L289.2,340.2 L296.2,338.5 L301.6,333.7 L316.0,318.8 L327.1,299.7 L334.3,301.4 L349.9,306.4 L358.0,304.1 L365.2,300.3 L371.8,300.6 L376.8,304.6 L384.9,308.8 L390.6,312.2 L402.5,305.2 L421.1,313.8 L421.2,316.6 L425.1,323.2 L423.9,329.6 L425.2,334.2 L430.1,341.8 L436.0,347.2 L442.3,347.1 L443.7,349.7 L449.6,350.6 L450.3,352.1 L446.3,362.7 L440.7,366.9 L436.2,368.9 L433.9,367.5 L428.7,370.8 L425.7,370.8 L426.8,375.1 L425.5,380.0 L429.9,385.3 L429.7,388.0 L423.4,395.5 L418.7,396.7 L413.7,392.0 L406.3,391.6 L402.2,393.7 L395.4,396.2 L390.6,392.5 L391.1,387.1 L388.9,384.8 L367.8,379.7 L369.1,384.8 L364.0,386.1 L351.4,381.1 Z">
  <desc xmlns="http://www.highcharts.com/svg/namespace">
    <name>Gausdal</name>
    <hc-middle-x>0.54</hc-middle-x>
    <hc-middle-y>0.50</hc-middle-y>
    <hc-key>no-op-522</hc-key>
    <hc-a2>GA</hc-a2>
  </desc>
</path>

<path fill="#CEE3F5" stroke="#6E6E6E" stroke-width="0.4" id="NO.OP.542" d="M314.2,356.3 L318.0,358.0 L328.1,369.9 L339.5,382.3 L345.5,385.4 L348.4,391.3 L342.7,399.4 L334.9,394.1 L331.1,395.1 L319.3,402.1 L315.8,402.1 L308.2,408.9 L306.6,412.0 L301.6,413.2 L305.6,414.3 L313.1,420.6 L315.2,425.9 L317.4,426.6 L323.9,432.5 L326.0,438.9 L321.6,439.0 L319.5,446.2 L324.5,448.8 L322.0,451.9 L326.4,457.9 L324.9,462.8 L329.0,471.7 L328.9,474.6 L321.1,478.1 L315.4,469.5 L310.6,473.1 L305.6,472.4 L303.1,475.8 L303.2,481.0 L299.7,481.8 L294.7,486.6 L287.8,496.4 L283.4,504.7 L277.0,503.7 L273.6,497.6 L266.3,492.4 L257.5,489.4 L234.3,475.5 L231.5,474.7 L227.0,464.3 L228.2,461.3 L236.7,448.6 L240.0,439.4 L248.6,428.3 L255.5,425.8 L264.4,424.9 L271.0,421.7 L269.7,415.9 L276.6,414.3 L282.5,409.9 L291.4,407.7 L300.6,402.1 L307.5,391.8 L307.7,376.5 L312.4,367.0 Z">
  <desc xmlns="http://www.highcharts.com/svg/namespace">
    <name>Nord-Aurdal</name>
    <hc-middle-x>0.43</hc-middle-x>
    <hc-middle-y>0.66</hc-middle-y>
    <hc-key>no-op-542</hc-key>
    <hc-a2>NA</hc-a2>
  </desc>
</path>

<path fill="#CEE3F5" stroke="#6E6E6E" stroke-width="0.4" id="NO.OP.513" d="M80.8,217.8 L81.6,204.5 L71.8,197.6 L58.6,193.7 L48.5,197.2 L40.2,197.5 L23.0,201.5 L23.4,191.2 L20.1,185.4 L8.9,160.4 L9.4,149.7 L6.0,136.6 L7.9,122.6 L5.4,114.7 L0.7,113.1 L1.4,106.4 L0.0,104.4 L9.0,96.6 L11.1,86.9 L16.3,88.3 L21.5,88.0 L25.7,85.6 L31.4,94.5 L35.7,95.9 L37.0,93.0 L42.9,89.8 L35.4,78.1 L46.7,72.4 L58.6,59.0 L72.2,57.6 L77.5,63.6 L95.0,61.8 L108.8,102.5 L116.3,109.6 L128.7,117.1 L154.2,117.9 L165.9,114.0 L183.7,115.9 L160.6,138.0 L173.7,151.2 L170.3,159.0 L165.1,164.6 L150.2,174.8 L140.3,175.5 L135.4,178.0 L129.7,185.4 L124.0,187.4 L114.2,198.6 L96.9,201.4 Z">
  <desc xmlns="http://www.highcharts.com/svg/namespace">
    <name>Skjåk</name>
    <hc-middle-x>0.46</hc-middle-x>
    <hc-middle-y>0.50</hc-middle-y>
    <hc-key>no-op-513</hc-key>
    <hc-a2>SK</hc-a2>
  </desc>
</path>

<path fill="#CEE3F5" stroke="#6E6E6E" stroke-width="0.4" id="NO.OP.519" d="M394.0,153.6 L393.6,145.6 L397.6,146.3 L399.2,144.5 L404.6,146.8 L410.2,153.4 L416.1,154.1 L410.8,169.1 L400.2,195.1 L396.6,204.3 L390.9,205.1 L386.8,211.6 L389.0,215.6 L386.3,220.4 L389.0,227.0 L389.0,235.0 L391.4,239.2 L397.6,244.0 L400.7,249.1 L402.7,256.6 L400.4,261.9 L401.4,267.5 L399.7,272.6 L398.2,272.6 L396.8,280.6 L394.4,289.1 L391.9,303.9 L387.8,305.2 L384.9,308.8 L376.8,304.6 L371.8,300.6 L365.2,300.3 L358.0,304.1 L349.9,306.4 L334.3,301.4 L327.1,299.7 L316.0,318.8 L301.6,333.7 L296.2,338.5 L289.2,340.2 L288.3,333.7 L272.7,320.8 L272.7,317.2 L279.9,322.4 L289.9,321.0 L292.3,322.2 L297.3,312.2 L302.5,311.0 L299.7,305.8 L297.1,295.3 L294.8,293.6 L302.8,290.7 L307.5,285.8 L304.1,284.3 L302.5,281.2 L305.0,280.8 L310.2,277.1 L327.1,284.7 L342.3,284.2 L348.6,278.6 L352.0,271.8 L355.0,268.9 L356.8,264.5 L364.7,251.1 L365.3,248.2 L371.6,243.1 L374.9,237.4 L380.6,213.8 L380.5,204.4 L382.4,193.4 L384.5,190.3 L388.8,179.4 L394.3,174.0 L393.9,166.4 L390.9,159.4 L393.7,155.9 Z">
  <desc xmlns="http://www.highcharts.com/svg/namespace">
    <name>Sør-Fron</name>
    <hc-middle-x>0.73</hc-middle-x>
    <hc-middle-y>0.64</hc-middle-y>
    <hc-key>no-op-519</hc-key>
    <hc-a2>SF</hc-a2>
  </desc>
</path>

<path fill="#CEE3F5" stroke="#6E6E6E" stroke-width="0.4" id="NO.OP.517" d="M369.2,147.9 L379.8,148.4 L394.0,153.6 L393.7,155.9 L390.9,159.4 L386.5,165.1 L380.9,169.9 L371.4,171.1 L361.7,170.7 L357.2,173.3 L354.4,172.8 L347.2,189.9 L334.5,207.2 L331.3,212.7 L330.5,216.5 L326.3,221.6 L323.4,222.5 L319.8,226.8 L315.3,229.5 L313.8,228.6 L309.1,231.7 L303.6,228.3 L287.8,248.3 L275.4,256.3 L261.0,246.5 L261.7,231.1 L262.6,229.6 L264.3,217.1 L260.5,206.8 L261.2,197.2 L262.2,195.2 L269.0,190.7 L274.4,188.7 L273.8,183.2 L280.7,182.5 L282.5,184.9 L293.0,189.0 L297.2,182.9 L298.3,184.6 L301.6,182.6 L307.7,176.2 L302.0,171.5 L291.1,168.5 L287.1,166.5 L290.6,153.2 L298.4,154.1 L301.6,150.7 L304.7,149.7 L329.0,131.6 L336.0,134.4 L339.2,138.6 L342.2,145.3 L353.1,146.3 L362.7,145.3 Z">
  <desc xmlns="http://www.highcharts.com/svg/namespace">
    <name>Sel</name>
    <hc-middle-x>0.45</hc-middle-x>
    <hc-middle-y>0.45</hc-middle-y>
    <hc-key>no-op-517</hc-key>
    <hc-a2>SE</hc-a2>
  </desc>
</path>

<path fill="#CEE3F5" stroke="#6E6E6E" stroke-width="0.4" id="NO.OP.543" d="M269.7,415.9 L271.0,421.7 L264.4,424.9 L255.5,425.8 L248.6,428.3 L240.0,439.4 L236.7,448.6 L228.2,461.3 L227.0,464.3 L215.6,463.0 L203.1,457.0 L197.1,455.2 L191.1,451.8 L191.6,450.8 L195.3,443.3 L204.0,430.4 L204.8,422.5 L201.9,418.5 L195.2,414.4 L200.0,405.8 L200.7,406.4 L213.3,388.9 L219.0,389.0 L222.7,390.5 L223.6,381.1 L227.1,366.2 L232.1,369.2 L229.8,375.8 L232.2,381.6 L234.8,383.0 L245.8,384.2 L247.1,386.7 L245.7,397.0 L257.6,410.5 L262.8,410.7 Z">
  <desc xmlns="http://www.highcharts.com/svg/namespace">
    <name>Vestre Slidre</name>
    <hc-middle-x>0.45</hc-middle-x>
    <hc-middle-y>0.46</hc-middle-y>
    <hc-key>no-op-543</hc-key>
    <hc-a2>VS</hc-a2>
  </desc>
</path>

<path fill="#CEE3F5" stroke="#6E6E6E" stroke-width="0.4" id="NO.OP.515" d="M290.6,153.2 L287.1,166.5 L291.1,168.5 L302.0,171.5 L307.7,176.2 L301.6,182.6 L298.3,184.6 L297.2,182.9 L293.0,189.0 L282.5,184.9 L280.7,182.5 L273.8,183.2 L274.4,188.7 L269.0,190.7 L262.2,195.2 L261.2,197.2 L260.5,206.8 L264.3,217.1 L262.6,229.6 L261.7,231.1 L261.0,246.5 L275.4,256.3 L276.8,257.3 L269.5,261.5 L258.8,273.0 L255.6,273.4 L248.0,268.1 L239.9,270.9 L235.7,270.5 L228.8,279.5 L229.2,289.6 L232.1,285.7 L237.3,283.9 L241.5,287.1 L248.0,288.4 L252.9,287.8 L259.2,284.0 L264.4,284.2 L265.7,285.8 L265.8,292.8 L259.8,304.8 L254.4,310.8 L246.3,304.5 L217.7,292.7 L211.1,290.7 L210.7,294.2 L207.7,296.5 L202.0,306.9 L190.8,309.1 L180.7,309.8 L170.5,305.4 L170.7,300.8 L167.0,290.6 L171.4,287.6 L188.9,278.9 L189.1,277.8 L177.6,261.3 L174.1,252.5 L174.2,248.6 L187.0,247.4 L197.7,243.8 L198.7,242.0 L208.0,242.9 L216.0,232.4 L219.8,230.9 L223.2,227.2 L224.0,220.9 L222.9,216.2 L225.0,208.6 L233.4,201.7 L239.1,198.6 L242.7,200.4 L240.8,191.0 L237.2,187.3 L238.7,181.8 L235.2,179.2 L235.1,176.7 L228.3,175.4 L224.5,173.4 L224.8,165.5 L223.3,153.0 L227.5,139.5 L228.5,131.1 L224.9,128.5 L225.0,115.8 L230.1,116.5 L238.7,114.6 L240.2,112.8 L246.1,113.1 L248.7,117.8 L259.6,131.3 L268.3,135.6 L269.3,140.2 L273.4,141.9 L276.0,146.6 L283.3,148.1 Z">
  <desc xmlns="http://www.highcharts.com/svg/namespace">
    <name>Vågå</name>
    <hc-middle-x>0.41</hc-middle-x>
    <hc-middle-y>0.70</hc-middle-y>
    <hc-key>no-op-515</hc-key>
    <hc-a2>VÅ</hc-a2>
  </desc>
</path>

<path fill="#CEE3F5" stroke="#6E6E6E" stroke-width="0.4" id="NO.OP.544" d="M202.0,306.9 L207.7,296.5 L210.7,294.2 L211.1,290.7 L217.7,292.7 L246.3,304.5 L254.4,310.8 L265.3,316.8 L264.6,319.0 L269.9,324.3 L273.0,324.7 L272.7,320.8 L288.3,333.7 L289.2,340.2 L299.0,346.6 L314.2,356.3 L312.4,367.0 L307.7,376.5 L307.5,391.8 L300.6,402.1 L291.4,407.7 L282.5,409.9 L276.6,414.3 L269.7,415.9 L262.8,410.7 L257.6,410.5 L245.7,397.0 L247.1,386.7 L245.8,384.2 L234.8,383.0 L232.2,381.6 L229.8,375.8 L232.1,369.2 L227.1,366.2 L221.6,358.2 L217.3,359.0 L213.5,352.3 L208.6,353.0 L207.6,349.2 L204.7,346.1 L213.6,339.6 L217.5,341.3 L217.7,326.0 L213.3,323.2 L209.4,314.2 Z">
  <desc xmlns="http://www.highcharts.com/svg/namespace">
    <name>Øystre Slidre</name>
    <hc-middle-x>0.49</hc-middle-x>
    <hc-middle-y>0.47</hc-middle-y>
    <hc-key>no-op-544</hc-key>
    <hc-a2>ØS</hc-a2>
  </desc>
</path>

<path fill="#CEE3F5" stroke="#6E6E6E" stroke-width="0.4" id="NO.OP.511" d="M274.9,11.1 L296.4,18.9 L314.9,27.0 L319.1,31.2 L331.8,38.1 L348.7,29.4 L359.5,27.7 L353.0,32.3 L349.1,37.2 L343.4,49.8 L338.1,56.4 L333.4,55.8 L329.4,60.4 L332.6,65.8 L339.3,74.5 L356.1,79.3 L371.0,88.0 L377.8,96.0 L380.0,103.1 L372.8,105.0 L367.4,113.6 L369.2,123.8 L372.3,133.6 L369.2,147.9 L362.7,145.3 L353.1,146.3 L342.2,145.3 L339.2,138.6 L336.0,134.4 L329.0,131.6 L304.7,149.7 L301.6,150.7 L298.4,154.1 L290.6,153.2 L283.3,148.1 L276.0,146.6 L273.4,141.9 L269.3,140.2 L268.3,135.6 L259.6,131.3 L248.7,117.8 L246.1,113.1 L245.4,103.8 L251.9,102.9 L254.5,95.7 L259.1,90.7 L259.7,85.8 L255.5,83.8 L257.7,78.9 L266.6,74.3 L276.7,62.2 L285.9,57.0 L288.5,44.7 L290.5,39.2 L283.8,27.1 L276.2,18.1 Z">
  <desc xmlns="http://www.highcharts.com/svg/namespace">
    <name>Dovre</name>
    <hc-middle-x>0.50</hc-middle-x>
    <hc-middle-y>0.66</hc-middle-y>
    <hc-key>no-op-511</hc-key>
    <hc-a2>DO</hc-a2>
  </desc>
</path>

<path fill="#CEE3F5" stroke="#6E6E6E" stroke-width="0.4" id="NO.OP.516" d="M272.7,320.8 L273.0,324.7 L269.9,324.3 L264.6,319.0 L265.3,316.8 L254.4,310.8 L259.8,304.8 L265.8,292.8 L265.7,285.8 L264.4,284.2 L259.2,284.0 L252.9,287.8 L248.0,288.4 L241.5,287.1 L237.3,283.9 L232.1,285.7 L229.2,289.6 L228.8,279.5 L235.7,270.5 L239.9,270.9 L248.0,268.1 L255.6,273.4 L258.8,273.0 L269.5,261.5 L276.8,257.3 L275.4,256.3 L287.8,248.3 L303.6,228.3 L309.1,231.7 L313.8,228.6 L315.3,229.5 L319.8,226.8 L323.4,222.5 L326.3,221.6 L330.5,216.5 L331.3,212.7 L334.5,207.2 L347.2,189.9 L354.4,172.8 L357.2,173.3 L361.7,170.7 L371.4,171.1 L380.9,169.9 L386.5,165.1 L390.9,159.4 L393.9,166.4 L394.3,174.0 L388.8,179.4 L384.5,190.3 L382.4,193.4 L380.5,204.4 L380.6,213.8 L374.9,237.4 L371.6,243.1 L365.3,248.2 L364.7,251.1 L356.8,264.5 L355.0,268.9 L352.0,271.8 L348.6,278.6 L342.3,284.2 L327.1,284.7 L310.2,277.1 L305.0,280.8 L302.5,281.2 L304.1,284.3 L307.5,285.8 L302.8,290.7 L294.8,293.6 L297.1,295.3 L299.7,305.8 L302.5,311.0 L297.3,312.2 L292.3,322.2 L289.9,321.0 L279.9,322.4 L272.7,317.2 Z">
  <desc xmlns="http://www.highcharts.com/svg/namespace">
    <name>Nord-Fron</name>
    <hc-middle-x>0.55</hc-middle-x>
    <hc-middle-y>0.58</hc-middle-y>
    <hc-key>no-op-516</hc-key>
    <hc-a2>NF</hc-a2>
  </desc>
</path>

<path fill="#CEE3F5" stroke="#6E6E6E" stroke-width="0.4" id="NO.OP.541" d="M328.9,474.6 L329.0,471.7 L324.9,462.8 L326.4,457.9 L322.0,451.9 L324.5,448.8 L319.5,446.2 L321.6,439.0 L326.0,438.9 L323.9,432.5 L317.4,426.6 L315.2,425.9 L313.1,420.6 L305.6,414.3 L301.6,413.2 L306.6,412.0 L308.2,408.9 L315.8,402.1 L319.3,402.1 L331.1,395.1 L334.9,394.1 L342.7,399.4 L348.4,391.3 L353.4,408.3 L359.4,405.4 L363.7,407.1 L360.1,417.6 L357.4,418.5 L361.6,431.2 L361.6,437.2 L364.6,446.8 L365.1,457.2 L364.5,462.8 L366.0,467.3 L364.6,474.9 L361.8,483.9 L367.0,485.3 L368.7,494.0 L364.3,491.2 L364.2,487.8 L358.3,487.2 L358.4,489.0 L353.8,490.6 L348.2,484.7 L343.6,484.1 L328.8,478.1 Z">
  <desc xmlns="http://www.highcharts.com/svg/namespace">
    <name>Etnedal</name>
    <hc-middle-x>0.60</hc-middle-x>
    <hc-middle-y>0.54</hc-middle-y>
    <hc-key>no-op-541</hc-key>
    <hc-a2>ET</hc-a2>
  </desc>
</path>

<path fill="#CEE3F5" stroke="#6E6E6E" stroke-width="0.4" id="NO.OP.545" d="M170.5,305.4 L180.7,309.8 L190.8,309.1 L202.0,306.9 L209.4,314.2 L213.3,323.2 L217.7,326.0 L217.5,341.3 L213.6,339.6 L204.7,346.1 L207.6,349.2 L208.6,353.0 L213.5,352.3 L217.3,359.0 L221.6,358.2 L227.1,366.2 L223.6,381.1 L222.7,390.5 L219.0,389.0 L213.3,388.9 L200.7,406.4 L200.0,405.8 L195.2,414.4 L201.9,418.5 L204.8,422.5 L204.0,430.4 L195.3,443.3 L191.6,450.8 L186.1,446.8 L187.9,443.8 L187.0,440.7 L174.4,428.6 L169.8,427.7 L169.3,425.9 L159.1,425.0 L147.6,416.3 L139.1,402.6 L130.3,408.1 L124.5,402.4 L114.1,396.7 L105.1,380.1 L104.0,374.6 L99.9,376.2 L101.8,370.3 L100.8,361.9 L94.0,358.8 L93.9,357.2 L100.6,357.9 L103.1,353.1 L113.5,346.8 L114.2,343.6 L120.0,335.5 L125.0,335.7 L130.1,330.4 L131.2,325.0 L127.1,323.8 L125.5,319.8 L120.6,319.4 L117.3,314.7 L117.9,309.7 L116.4,297.4 L122.7,293.7 L126.0,296.4 L135.1,296.2 L139.3,291.7 L151.0,301.1 L155.3,300.5 L163.7,307.0 Z">
  <desc xmlns="http://www.highcharts.com/svg/namespace">
    <name>Vang</name>
    <hc-middle-x>0.58</hc-middle-x>
    <hc-middle-y>0.46</hc-middle-y>
    <hc-key>no-op-545</hc-key>
    <hc-a2>VA</hc-a2>
  </desc>
</path>

<path fill="#CEE3F5" stroke="#6E6E6E" stroke-width="0.4" id="NO.OP.520" d="M421.2,316.6 L421.1,313.8 L402.5,305.2 L390.6,312.2 L384.9,308.8 L387.8,305.2 L391.9,303.9 L394.4,289.1 L396.8,280.6 L398.2,272.6 L399.7,272.6 L401.4,267.5 L400.4,261.9 L402.7,256.6 L400.7,249.1 L397.6,244.0 L391.4,239.2 L389.0,235.0 L389.0,227.0 L386.3,220.4 L389.0,215.6 L386.8,211.6 L390.9,205.1 L396.6,204.3 L400.2,195.1 L421.2,204.8 L435.8,206.5 L453.0,220.3 L460.1,209.2 L464.0,207.2 L465.2,203.8 L478.2,196.0 L487.7,207.1 L490.8,240.8 L493.6,253.7 L499.1,271.5 L495.7,280.9 L478.3,296.9 L473.6,300.6 L464.5,301.5 L459.9,304.7 L446.5,306.5 L440.6,308.6 L438.5,311.4 L434.9,312.6 L431.1,310.3 L426.5,316.3 Z">
  <desc xmlns="http://www.highcharts.com/svg/namespace">
    <name>Ringebu</name>
    <hc-middle-x>0.44</hc-middle-x>
    <hc-middle-y>0.54</hc-middle-y>
    <hc-key>no-op-520</hc-key>
    <hc-a2>RI</hc-a2>
  </desc>
</path>

<path fill="#CEE3F5" stroke="#6E6E6E" stroke-width="0.4" id="NO.OP.532" d="M487.5,690.4 L481.9,688.6 L477.2,688.4 L465.1,677.6 L458.1,672.8 L455.5,675.1 L451.3,671.5 L447.8,666.3 L449.2,660.7 L442.8,651.3 L437.6,641.3 L436.1,636.4 L429.8,625.8 L428.9,618.1 L430.2,620.6 L439.4,620.0 L451.6,628.4 L453.8,626.3 L459.2,625.4 L458.9,631.5 L456.1,642.4 L463.6,643.2 L464.8,644.9 L470.3,643.4 L472.2,647.0 L470.3,648.9 L472.4,652.1 L478.8,651.4 L482.1,654.2 L483.8,660.7 L481.4,661.3 L483.6,666.9 L484.6,675.3 L489.3,680.1 L489.9,685.5 Z">
  <desc xmlns="http://www.highcharts.com/svg/namespace">
    <name>Jevnaker</name>
    <hc-middle-x>0.63</hc-middle-x>
    <hc-middle-y>0.63</hc-middle-y>
    <hc-key>no-op-532</hc-key>
    <hc-a2>JE</hc-a2>
  </desc>
</path>

<path fill="#CEE3F5" stroke="#6E6E6E" stroke-width="0.4" id="NO.OP.529" d="M508.4,577.5 L508.1,578.9 L508.2,580.1 L501.9,581.9 L503.3,584.3 L498.6,585.2 L498.5,582.9 L494.8,579.6 L490.3,579.4 L492.9,575.6 L488.8,573.4 L486.1,568.0 L483.7,569.0 L483.0,565.7 L476.5,565.6 L478.4,558.5 L480.3,557.3 L482.5,546.2 L481.1,545.3 L481.5,539.5 L473.1,539.0 L473.2,525.4 L476.1,520.9 L477.0,516.2 L480.8,515.5 L482.2,511.1 L485.2,509.0 L488.0,511.3 L491.3,510.5 L492.6,506.3 L504.8,505.2 L505.2,506.4 L512.9,516.4 L514.2,519.7 L512.9,525.4 L514.3,527.9 L509.7,529.6 L510.5,532.6 L507.0,535.7 L503.7,536.0 L505.4,540.2 L501.4,546.0 L502.6,546.7 L501.3,554.9 L503.7,560.0 L504.8,566.3 L507.2,568.3 L507.1,576.4 Z">
  <desc xmlns="http://www.highcharts.com/svg/namespace">
    <name>Vestre Toten</name>
    <hc-middle-x>0.50</hc-middle-x>
    <hc-middle-y>0.34</hc-middle-y>
    <hc-key>no-op-529</hc-key>
    <hc-a2>VT</hc-a2>
  </desc>
</path>

<path fill="#CEE3F5" stroke="#6E6E6E" stroke-width="0.4" id="NO.OP.502" d="M505.2,506.4 L504.8,505.2 L492.6,506.3 L491.3,510.5 L488.0,511.3 L485.2,509.0 L482.2,511.1 L480.8,515.5 L477.0,516.2 L476.1,520.9 L453.4,497.7 L452.1,489.8 L455.2,482.8 L455.3,478.0 L447.1,474.2 L438.3,468.1 L435.4,470.3 L430.5,466.2 L430.4,459.5 L421.9,449.7 L421.8,448.4 L428.6,431.3 L428.6,426.9 L431.3,422.9 L441.2,418.4 L452.2,422.0 L455.3,423.9 L458.4,421.2 L462.2,422.1 L466.7,419.6 L469.4,423.6 L474.9,427.8 L482.6,430.7 L493.2,439.2 L495.9,443.8 L501.1,460.2 L504.2,463.3 L507.0,469.2 L506.4,473.9 L503.0,482.0 L503.2,484.5 L509.6,497.1 L511.1,498.9 L507.4,503.9 Z">
  <desc xmlns="http://www.highcharts.com/svg/namespace">
    <name>Gjøvik</name>
    <hc-middle-x>0.57</hc-middle-x>
    <hc-middle-y>0.50</hc-middle-y>
    <hc-key>no-op-502</hc-key>
    <hc-a2>GJ</hc-a2>
  </desc>
</path>

<path fill="#CEE3F5" stroke="#6E6E6E" stroke-width="0.4" id="NO.OP.538" d="M348.4,391.3 L345.5,385.4 L339.5,382.3 L351.4,381.1 L364.0,386.1 L369.1,384.8 L367.8,379.7 L388.9,384.8 L391.1,387.1 L390.6,392.5 L395.4,396.2 L402.2,393.7 L401.4,401.7 L407.5,405.4 L414.1,407.0 L419.0,411.3 L421.6,415.5 L425.4,415.9 L431.3,422.9 L428.6,426.9 L428.6,431.3 L421.8,448.4 L421.9,449.7 L430.4,459.5 L430.5,466.2 L435.4,470.3 L432.8,474.4 L434.2,477.5 L433.4,484.1 L430.9,488.3 L423.3,488.5 L419.9,486.0 L415.3,489.0 L416.2,493.0 L420.2,495.3 L421.9,493.9 L429.4,495.0 L427.8,497.0 L418.2,500.9 L411.3,502.4 L410.9,508.7 L407.1,512.0 L405.6,510.2 L401.6,514.9 L396.8,511.9 L393.8,513.2 L384.8,506.0 L380.8,510.1 L376.2,516.9 L371.9,515.1 L367.4,508.8 L368.7,494.0 L367.0,485.3 L361.8,483.9 L364.6,474.9 L366.0,467.3 L364.5,462.8 L365.1,457.2 L364.6,446.8 L361.6,437.2 L361.6,431.2 L357.4,418.5 L360.1,417.6 L363.7,407.1 L359.4,405.4 L353.4,408.3 Z">
  <desc xmlns="http://www.highcharts.com/svg/namespace">
    <name>Nordre Land</name>
    <hc-middle-x>0.59</hc-middle-x>
    <hc-middle-y>0.54</hc-middle-y>
    <hc-key>no-op-538</hc-key>
    <hc-a2>NL</hc-a2>
  </desc>
</path>

<path fill="#CEE3F5" stroke="#6E6E6E" stroke-width="0.4" id="NO.OP.501" d="M431.3,422.9 L425.4,415.9 L421.6,415.5 L419.0,411.3 L414.1,407.0 L407.5,405.4 L401.4,401.7 L402.2,393.7 L406.3,391.6 L413.7,392.0 L418.7,396.7 L423.4,395.5 L429.7,388.0 L429.9,385.3 L425.5,380.0 L426.8,375.1 L425.7,370.8 L428.7,370.8 L433.9,367.5 L436.2,368.9 L440.7,366.9 L446.3,362.7 L450.3,352.1 L456.3,356.6 L460.7,355.9 L461.7,361.1 L456.7,369.0 L458.4,372.3 L507.1,354.3 L504.2,365.0 L501.5,367.2 L494.7,377.7 L491.2,387.7 L482.3,402.2 L473.1,408.9 L462.9,410.0 L466.7,419.6 L462.2,422.1 L458.4,421.2 L455.3,423.9 L452.2,422.0 L441.2,418.4 Z">
  <desc xmlns="http://www.highcharts.com/svg/namespace">
    <name>Lillehammer</name>
    <hc-middle-x>0.51</hc-middle-x>
    <hc-middle-y>0.56</hc-middle-y>
    <hc-key>no-op-501</hc-key>
    <hc-a2>LI</hc-a2>
  </desc>
</path>

<path fill="#CEE3F5" stroke="#6E6E6E" stroke-width="0.4" id="NO.OP.528" d="M508.4,577.5 L507.1,576.4 L507.2,568.3 L504.8,566.3 L503.7,560.0 L501.3,554.9 L502.6,546.7 L501.4,546.0 L505.4,540.2 L503.7,536.0 L507.0,535.7 L510.5,532.6 L509.7,529.6 L514.3,527.9 L512.9,525.4 L514.2,519.7 L512.9,516.4 L505.2,506.4 L507.4,503.9 L511.1,498.9 L516.5,502.2 L526.3,504.5 L529.8,506.2 L536.2,512.7 L565.6,533.8 L571.5,541.7 L575.5,550.2 L572.2,553.0 L568.8,561.5 L567.0,578.2 L563.0,577.7 L551.9,583.9 L550.1,583.8 L544.4,588.0 L545.3,590.8 L541.2,593.4 L540.0,592.1 L527.4,591.3 L522.4,588.6 L515.9,586.8 Z">
  <desc xmlns="http://www.highcharts.com/svg/namespace">
    <name>Østre Toten</name>
    <hc-middle-x>0.53</hc-middle-x>
    <hc-middle-y>0.56</hc-middle-y>
    <hc-key>no-op-528</hc-key>
    <hc-a2>ØT</hc-a2>
  </desc>
</path>

<path fill="#CEE3F5" stroke="#6E6E6E" stroke-width="0.4" id="NO.OP.521" d="M507.1,354.3 L458.4,372.3 L456.7,369.0 L461.7,361.1 L460.7,355.9 L456.3,356.6 L450.3,352.1 L449.6,350.6 L443.7,349.7 L442.3,347.1 L436.0,347.2 L430.1,341.8 L425.2,334.2 L423.9,329.6 L425.1,323.2 L421.2,316.6 L426.5,316.3 L431.1,310.3 L434.9,312.6 L438.5,311.4 L440.6,308.6 L446.5,306.5 L459.9,304.7 L464.5,301.5 L473.6,300.6 L478.3,296.9 L495.7,280.9 L507.2,301.6 L522.8,344.6 Z">
  <desc xmlns="http://www.highcharts.com/svg/namespace">
    <name>Øyer</name>
    <hc-middle-x>0.57</hc-middle-x>
    <hc-middle-y>0.51</hc-middle-y>
    <hc-key>no-op-521</hc-key>
    <hc-a2>ØY</hc-a2>
  </desc>
</path>

<path fill="#CEE3F5" stroke="#6E6E6E" stroke-width="0.4" id="NO.OP.534" d="M470.3,643.4 L464.8,644.9 L463.6,643.2 L456.1,642.4 L458.9,631.5 L459.2,625.4 L453.8,626.3 L451.6,628.4 L439.4,620.0 L430.2,620.6 L428.9,618.1 L425.3,595.8 L425.7,593.9 L422.1,579.2 L417.5,575.9 L421.1,571.7 L434.2,576.9 L447.6,578.1 L454.0,572.7 L461.7,569.8 L476.5,565.6 L483.0,565.7 L483.7,569.0 L486.1,568.0 L488.8,573.4 L492.9,575.6 L490.3,579.4 L494.8,579.6 L498.5,582.9 L498.6,585.2 L503.3,584.3 L501.9,581.9 L508.2,580.1 L508.3,586.0 L505.4,587.7 L508.5,599.5 L505.3,601.7 L502.7,606.0 L510.2,605.6 L517.5,608.0 L525.6,607.4 L538.8,616.8 L538.8,622.5 L544.0,632.2 L536.4,641.2 L533.6,642.7 L517.8,643.1 L511.0,638.5 L499.1,640.8 L497.5,640.0 L493.1,644.4 L492.6,641.2 L486.1,641.9 L484.2,639.7 L472.3,641.6 Z">
  <desc xmlns="http://www.highcharts.com/svg/namespace">
    <name>Gran</name>
    <hc-middle-x>0.43</hc-middle-x>
    <hc-middle-y>0.53</hc-middle-y>
    <hc-key>no-op-534</hc-key>
    <hc-a2>GR</hc-a2>
  </desc>
</path>

<path fill="#CEE3F5" stroke="#6E6E6E" stroke-width="0.4" id="NO.OP.533" d="M470.3,643.4 L472.3,641.6 L484.2,639.7 L486.1,641.9 L492.6,641.2 L493.1,644.4 L497.5,640.0 L499.1,640.8 L511.0,638.5 L517.8,643.1 L533.6,642.7 L525.9,658.7 L523.5,666.8 L520.1,674.2 L521.4,686.3 L520.1,694.2 L512.8,693.7 L505.7,695.6 L506.4,700.0 L493.3,699.4 L493.3,696.7 L489.4,694.4 L487.5,690.4 L489.9,685.5 L489.3,680.1 L484.6,675.3 L483.6,666.9 L481.4,661.3 L483.8,660.7 L482.1,654.2 L478.8,651.4 L472.4,652.1 L470.3,648.9 L472.2,647.0 Z">
  <desc xmlns="http://www.highcharts.com/svg/namespace">
    <name>Lunner</name>
    <hc-middle-x>0.51</hc-middle-x>
    <hc-middle-y>0.50</hc-middle-y>
    <hc-key>no-op-533</hc-key>
    <hc-a2>LU</hc-a2>
  </desc>
</path>

<path fill="#CEE3F5" stroke="#6E6E6E" stroke-width="0.4" id="NO.OP.512" d="M95.0,61.8 L109.5,38.7 L111.6,36.6 L117.2,26.6 L122.8,22.2 L128.2,14.0 L138.3,9.0 L155.0,4.2 L165.7,4.4 L189.4,1.3 L213.7,0.0 L227.8,0.9 L232.1,7.9 L239.7,7.7 L246.8,6.1 L252.9,1.9 L258.0,4.8 L274.9,11.1 L276.2,18.1 L283.8,27.1 L290.5,39.2 L288.5,44.7 L285.9,57.0 L276.7,62.2 L266.6,74.3 L257.7,78.9 L255.5,83.8 L259.7,85.8 L259.1,90.7 L254.5,95.7 L251.9,102.9 L245.4,103.8 L246.1,113.1 L240.2,112.8 L238.7,114.6 L230.1,116.5 L225.0,115.8 L215.8,114.2 L208.9,108.8 L204.8,111.8 L196.5,115.5 L183.7,115.9 L165.9,114.0 L154.2,117.9 L128.7,117.1 L116.3,109.6 L108.8,102.5 Z">
  <desc xmlns="http://www.highcharts.com/svg/namespace">
    <name>Lesja</name>
    <hc-middle-x>0.50</hc-middle-x>
    <hc-middle-y>0.50</hc-middle-y>
    <hc-key>no-op-512</hc-key>
    <hc-a2>LE</hc-a2>
  </desc>
</path>

<path fill="#CEE3F5" stroke="#6E6E6E" stroke-width="0.4" id="NO.OP.540" d="M403.2,545.9 L392.0,544.3 L382.8,545.5 L385.5,549.9 L390.5,552.7 L389.2,555.2 L379.6,561.4 L375.4,566.5 L373.8,560.6 L368.9,570.2 L370.0,579.6 L369.6,586.5 L371.4,589.5 L372.4,601.4 L367.8,602.1 L348.8,593.5 L338.1,587.7 L339.6,585.7 L337.5,575.9 L333.2,577.4 L324.6,578.1 L321.3,579.6 L317.8,578.8 L313.1,574.6 L308.2,573.3 L307.2,562.4 L310.9,557.1 L308.7,552.9 L302.5,550.8 L299.3,544.8 L300.2,542.0 L298.1,536.0 L292.9,531.4 L292.7,526.1 L294.3,523.2 L294.8,516.4 L290.6,511.7 L288.5,506.4 L283.4,504.7 L287.8,496.4 L294.7,486.6 L299.7,481.8 L303.2,481.0 L303.1,475.8 L305.6,472.4 L310.6,473.1 L315.4,469.5 L321.1,478.1 L328.9,474.6 L328.8,478.1 L343.6,484.1 L348.2,484.7 L353.8,490.6 L358.4,489.0 L358.3,487.2 L364.2,487.8 L364.3,491.2 L368.7,494.0 L367.4,508.8 L371.9,515.1 L376.2,516.9 L380.8,510.1 L384.8,506.0 L393.8,513.2 L397.2,521.4 L402.5,539.2 Z">
  <desc xmlns="http://www.highcharts.com/svg/namespace">
    <name>Sør-Aurdal</name>
    <hc-middle-x>0.44</hc-middle-x>
    <hc-middle-y>0.44</hc-middle-y>
    <hc-key>no-op-540</hc-key>
    <hc-a2>SA</hc-a2>
  </desc>
</path>

<path fill="#CEE3F5" stroke="#6E6E6E" stroke-width="0.4" id="NO.OP.514" d="M183.7,115.9 L196.5,115.5 L204.8,111.8 L208.9,108.8 L215.8,114.2 L225.0,115.8 L224.9,128.5 L228.5,131.1 L227.5,139.5 L223.3,153.0 L224.8,165.5 L224.5,173.4 L228.3,175.4 L235.1,176.7 L235.2,179.2 L238.7,181.8 L237.2,187.3 L240.8,191.0 L242.7,200.4 L239.1,198.6 L233.4,201.7 L225.0,208.6 L222.9,216.2 L224.0,220.9 L223.2,227.2 L219.8,230.9 L216.0,232.4 L208.0,242.9 L198.7,242.0 L197.7,243.8 L187.0,247.4 L174.2,248.6 L174.1,252.5 L177.6,261.3 L189.1,277.8 L188.9,278.9 L171.4,287.6 L167.0,290.6 L170.7,300.8 L170.5,305.4 L163.7,307.0 L155.3,300.5 L151.0,301.1 L139.3,291.7 L142.2,288.6 L139.5,281.3 L137.2,278.0 L133.5,264.0 L123.6,259.6 L111.9,267.2 L96.8,261.5 L86.5,256.2 L84.6,241.9 L79.3,228.9 L80.8,217.8 L96.9,201.4 L114.2,198.6 L124.0,187.4 L129.7,185.4 L135.4,178.0 L140.3,175.5 L150.2,174.8 L165.1,164.6 L170.3,159.0 L173.7,151.2 L160.6,138.0 Z">
  <desc xmlns="http://www.highcharts.com/svg/namespace">
    <name>Lom</name>
    <hc-middle-x>0.54</hc-middle-x>
    <hc-middle-y>0.51</hc-middle-y>
    <hc-key>no-op-514</hc-key>
    <hc-a2>LO</hc-a2>
  </desc>
</path>

<path fill="#CEE3F5" stroke="#6E6E6E" stroke-width="0.4" id="NO.OP.536" d="M393.8,513.2 L396.8,511.9 L401.6,514.9 L405.6,510.2 L407.1,512.0 L410.9,508.7 L411.3,502.4 L418.2,500.9 L427.8,497.0 L429.4,495.0 L421.9,493.9 L420.2,495.3 L416.2,493.0 L415.3,489.0 L419.9,486.0 L423.3,488.5 L430.9,488.3 L433.4,484.1 L434.2,477.5 L432.8,474.4 L435.4,470.3 L438.3,468.1 L447.1,474.2 L455.3,478.0 L455.2,482.8 L452.1,489.8 L453.4,497.7 L476.1,520.9 L473.2,525.4 L473.1,539.0 L481.5,539.5 L481.1,545.3 L482.5,546.2 L480.3,557.3 L478.4,558.5 L476.5,565.6 L461.7,569.8 L454.0,572.7 L447.6,578.1 L434.2,576.9 L421.1,571.7 L417.5,575.9 L412.6,568.5 L407.8,553.5 L403.2,545.9 L402.5,539.2 L397.2,521.4 Z">
  <desc xmlns="http://www.highcharts.com/svg/namespace">
    <name>Søndre Land</name>
    <hc-middle-x>0.51</hc-middle-x>
    <hc-middle-y>0.58</hc-middle-y>
    <hc-key>no-op-536</hc-key>
    <hc-a2>SL</hc-a2>
  </desc>
</path>
</g>

<text x="350" y="714" text-anchor="middle" font-family="Verdana" font-size="8" stroke-opacity="0.6">Copyright (c) 2014 Highsoft AS, Based on data from Kartverket</text>

</svg>