<?xml version="1.0" encoding="utf-8" standalone="no"?>
<!DOCTYPE svg PUBLIC "-//W3C//DTD SVG 1.1//EN" "http://www.w3.org/Graphics/SVG/1.1/DTD/svg11.dtd">

<svg version="1.1" height="700pt" width="700pt" xmlns="http://www.w3.org/2000/svg" xmlns:xlink="http://www.w3.org/1999/xlink">
<desc>
Map version: 1.1.1
Copyright (c) 2014 Highsoft AS, Based on data from Natural Earth
</desc>
<title>Oceania</title>
<g id="admin0">

<path fill="#CEE3F5" stroke="#6E6E6E" stroke-width="0.4" id="AS" d="M700.0,291.2 L699.4,291.5 L698.8,291.9 L698.2,291.3 Z">
  <desc xmlns="http://www.highcharts.com/svg/namespace">
    <name>American Samoa</name>
    <labelrank>4</labelrank>
    <country-abbrev>Am. Samoa</country-abbrev>
    <subregion>Polynesia</subregion>
    <woe-id>23424746</woe-id>
    <region-wb>East Asia &amp; Pacific</region-wb>
    <iso-a3>ASM</iso-a3>
    <iso-a2>AS</iso-a2>
    <region-un>Oceania</region-un>
    <continent>Oceania</continent>
    <hc-middle-x>0.51</hc-middle-x>
    <hc-middle-y>0.51</hc-middle-y>
    <hc-key>as</hc-key>
    <hc-a2>AS</hc-a2>
  </desc>
</path>

<path fill="#CEE3F5" stroke="#6E6E6E" stroke-width="0.4" id="AU" d="M355.1,460.6 L353.5,459.4 L355.7,458.9 L356.8,460.2 Z M353.6,453.2 L355.8,455.7 L355.7,458.3 L354.3,458.5 L352.0,454.6 Z M325.6,454.1 L324.5,454.7 L324.3,450.7 L326.0,450.1 Z M281.5,410.5 L281.1,411.7 L284.6,412.2 L284.4,413.6 L282.3,413.1 L280.1,414.9 L278.3,413.9 L274.6,414.5 L273.4,413.1 L273.8,411.8 L279.5,410.4 Z M96.9,322.8 L99.0,327.4 L97.8,326.6 L96.7,324.1 Z M406.0,326.2 L406.4,328.6 L403.3,334.9 L402.7,332.8 L403.7,329.7 L405.5,328.0 L404.8,326.8 Z M389.9,313.7 L391.0,314.5 L391.0,316.5 L389.4,313.9 Z M284.0,225.9 L283.0,228.1 L284.5,230.0 L280.8,229.0 L280.8,225.8 L283.2,224.6 Z M232.8,205.0 L233.2,206.9 L234.7,207.8 L230.0,207.9 L231.1,205.1 L232.4,203.8 Z M233.8,203.5 L235.5,204.4 L237.8,204.2 L239.6,203.0 L241.2,203.4 L242.0,205.3 L240.1,207.3 L237.5,208.9 L233.6,206.5 L232.6,203.1 Z M301.9,250.4 L302.6,248.8 L305.1,248.4 L303.7,250.5 L301.9,250.4 L301.9,250.4 Z M347.8,482.4 L348.1,483.6 L345.9,484.8 L346.4,487.5 L344.6,486.5 L342.6,489.6 L340.6,488.3 L336.8,488.3 L336.4,484.8 L335.7,485.7 L333.7,482.3 L332.2,478.7 L332.0,474.8 L333.5,476.6 L332.3,472.6 L330.5,470.1 L328.7,463.2 L330.0,459.5 L332.5,461.8 L336.6,463.2 L337.1,464.0 L341.5,465.8 L345.9,464.4 L348.9,464.9 L350.1,463.5 L351.7,464.1 L353.0,462.7 L355.2,465.4 L354.0,472.9 L354.5,475.9 L353.1,475.3 L351.8,477.6 L350.7,486.2 L349.5,486.3 L348.5,484.1 L350.1,484.5 L350.1,483.1 Z M284.6,212.2 L285.4,214.0 L281.7,218.0 L282.8,218.9 L281.5,221.1 L280.7,219.7 L278.9,221.2 L276.7,221.7 L276.7,225.1 L278.0,224.4 L279.4,226.0 L277.5,225.8 L276.6,228.8 L275.3,229.3 L272.1,232.9 L272.8,234.8 L278.8,239.0 L281.0,241.5 L283.5,240.8 L282.3,243.2 L284.6,242.9 L287.4,245.2 L290.4,246.4 L293.7,250.2 L300.4,252.4 L302.1,256.0 L307.6,259.3 L311.7,259.0 L314.4,257.6 L316.7,252.4 L317.6,251.6 L319.8,246.5 L319.5,245.4 L322.2,238.0 L321.4,233.6 L322.1,230.2 L321.3,229.1 L321.9,226.1 L323.4,223.5 L322.7,221.2 L324.7,218.7 L323.0,217.5 L324.9,213.8 L325.8,214.3 L327.9,208.1 L328.5,204.8 L330.8,203.1 L332.2,203.5 L333.9,208.9 L333.6,212.7 L336.2,214.0 L335.0,216.7 L337.7,219.3 L337.0,221.3 L338.0,221.8 L338.5,226.8 L337.8,228.6 L338.9,230.9 L339.5,234.1 L340.7,235.1 L345.2,232.5 L346.5,235.9 L351.6,239.5 L350.7,240.7 L350.7,244.3 L351.8,248.7 L351.1,251.8 L354.5,257.0 L356.2,262.1 L354.8,267.2 L357.0,267.2 L357.3,268.6 L356.4,272.4 L357.6,274.0 L362.7,277.4 L365.2,277.0 L366.7,281.2 L367.3,280.1 L368.7,282.0 L371.3,282.7 L372.1,284.5 L373.4,283.7 L375.4,286.1 L377.0,285.9 L373.8,287.9 L375.1,290.3 L377.8,292.7 L379.3,298.1 L379.8,302.6 L382.9,306.2 L382.2,303.2 L383.4,302.0 L384.4,304.3 L387.3,306.3 L386.8,303.0 L388.6,305.3 L388.9,307.2 L388.0,311.0 L388.2,313.2 L392.6,318.6 L395.1,319.0 L397.4,324.3 L399.2,325.6 L400.9,329.9 L402.6,330.5 L402.4,334.4 L404.3,336.2 L403.0,339.0 L403.2,345.5 L401.8,346.7 L403.9,351.6 L404.7,348.6 L405.5,349.0 L404.1,354.4 L405.0,356.2 L404.6,361.3 L402.1,365.0 L401.7,368.2 L398.2,376.8 L398.8,378.3 L397.1,383.2 L393.3,388.8 L393.3,391.3 L389.8,394.0 L387.7,394.4 L383.4,400.6 L382.6,403.5 L379.7,406.6 L377.7,414.0 L376.2,414.1 L372.7,419.9 L372.2,423.7 L370.0,429.0 L370.7,432.3 L370.1,434.2 L366.2,436.5 L357.7,436.1 L352.3,438.0 L346.7,442.7 L341.6,443.3 L342.3,444.7 L343.9,443.7 L343.1,446.9 L340.9,443.8 L339.7,444.5 L339.0,442.1 L334.1,440.6 L335.7,438.0 L332.9,440.3 L332.0,439.0 L334.4,437.2 L333.6,434.8 L330.2,436.4 L331.0,438.1 L329.2,438.1 L326.5,439.6 L322.6,442.8 L317.5,439.8 L314.7,437.7 L313.4,437.9 L310.2,436.4 L309.3,437.6 L304.4,434.1 L302.7,434.2 L300.2,432.3 L299.5,430.3 L296.1,425.7 L295.8,423.6 L297.2,420.7 L295.4,415.6 L291.8,411.2 L293.3,412.1 L294.3,410.1 L293.6,408.8 L291.3,409.5 L291.5,410.7 L285.7,411.5 L285.1,410.4 L287.5,408.7 L288.5,403.3 L285.5,397.7 L282.0,406.9 L280.1,406.3 L278.3,407.3 L275.8,407.2 L277.4,404.2 L280.5,404.5 L281.1,401.8 L280.8,397.8 L282.1,395.3 L284.7,392.3 L283.9,389.9 L285.5,389.0 L284.2,383.9 L283.7,387.5 L281.3,388.7 L279.4,393.2 L274.7,395.2 L271.8,398.7 L269.5,400.6 L269.0,402.6 L269.9,404.5 L267.0,403.5 L265.6,401.4 L265.3,398.1 L264.3,394.7 L261.8,392.2 L261.7,389.8 L260.6,388.6 L257.8,388.0 L256.4,384.0 L258.1,383.7 L253.4,378.5 L249.7,379.2 L247.1,377.0 L242.9,377.6 L237.8,373.7 L235.2,372.5 L232.6,373.6 L227.5,373.2 L218.8,374.1 L211.5,377.4 L206.1,379.0 L201.6,379.3 L197.9,378.6 L186.9,384.5 L184.3,384.9 L182.6,386.4 L181.4,390.3 L178.2,393.6 L175.4,394.2 L175.0,393.1 L169.3,393.6 L167.5,394.3 L167.1,392.7 L163.5,392.7 L156.4,393.4 L155.3,394.2 L152.2,393.8 L149.1,395.8 L146.9,399.2 L143.8,398.7 L141.2,401.1 L140.5,402.8 L135.4,404.2 L127.7,404.5 L122.8,402.7 L120.0,399.3 L117.9,398.2 L116.4,398.7 L115.2,396.3 L115.1,391.3 L117.3,392.4 L120.0,389.1 L119.4,383.6 L120.2,382.5 L120.2,377.1 L119.6,374.7 L115.6,367.7 L113.9,362.5 L113.7,356.2 L112.4,352.9 L110.4,350.3 L110.0,348.1 L107.1,344.6 L106.8,341.1 L105.6,338.0 L102.2,332.7 L99.9,330.4 L100.5,328.5 L102.0,331.7 L103.8,331.9 L104.3,329.7 L102.7,328.8 L100.5,324.7 L101.4,323.7 L103.2,326.1 L103.6,328.6 L104.4,326.6 L105.0,329.6 L106.0,330.6 L107.0,325.4 L106.2,325.0 L102.5,319.5 L101.6,316.2 L100.2,314.6 L99.9,310.6 L101.1,307.0 L102.2,306.0 L102.6,302.1 L101.1,298.2 L103.7,292.1 L104.8,291.5 L104.3,294.7 L105.2,297.6 L106.7,297.1 L108.6,291.8 L114.8,288.8 L120.5,283.0 L122.2,282.8 L125.2,280.4 L125.7,281.8 L127.8,280.7 L129.4,281.8 L132.3,281.1 L135.4,278.6 L140.8,277.6 L141.9,275.8 L143.7,275.0 L146.5,275.9 L151.8,274.4 L157.3,272.1 L159.2,270.7 L161.7,267.3 L164.1,262.2 L168.0,259.7 L166.7,258.2 L166.7,252.3 L169.8,248.4 L171.8,248.3 L171.3,246.9 L173.2,245.0 L172.9,246.7 L174.4,248.5 L177.6,254.4 L178.0,250.0 L180.1,251.8 L178.7,247.9 L177.3,247.2 L179.0,244.0 L180.4,243.6 L182.9,245.1 L184.3,244.5 L184.7,242.3 L184.2,237.9 L186.1,237.7 L186.4,235.6 L188.5,236.4 L188.0,234.5 L189.2,233.5 L191.7,234.8 L192.5,233.8 L190.2,231.6 L191.0,230.3 L195.5,229.0 L196.4,230.6 L197.4,229.6 L198.2,226.2 L198.9,227.1 L200.6,225.2 L202.0,227.3 L203.1,223.7 L204.8,223.2 L206.2,225.2 L207.9,224.7 L210.5,226.9 L212.1,229.4 L214.5,231.3 L213.6,234.8 L217.4,231.7 L221.5,232.9 L223.2,234.8 L222.9,232.6 L224.9,233.4 L225.1,232.2 L227.5,232.8 L224.0,229.0 L225.6,226.4 L227.0,225.8 L228.4,221.1 L230.4,221.3 L231.4,219.9 L230.4,217.1 L232.0,216.8 L232.3,214.9 L233.9,214.5 L234.5,213.0 L238.0,212.4 L237.6,210.9 L241.6,212.0 L244.9,211.5 L246.0,212.2 L251.2,211.0 L250.8,206.9 L248.8,205.1 L246.5,205.8 L244.0,204.0 L245.8,202.5 L247.5,204.9 L247.4,202.6 L250.4,204.2 L250.5,201.5 L251.3,205.8 L252.9,204.4 L255.4,207.7 L258.6,208.4 L260.4,207.8 L265.3,210.8 L268.1,210.0 L270.5,212.6 L277.1,209.5 L275.2,212.1 L275.8,213.3 L277.1,212.0 L278.5,212.7 L278.1,214.6 L279.9,214.5 L280.9,213.0 L279.1,211.3 L281.8,210.5 L283.5,213.4 Z M301.9,250.4 L301.4,251.6 L301.6,250.3 L301.9,250.4 L301.9,250.4 Z">
  <desc xmlns="http://www.highcharts.com/svg/namespace">
    <name>Australia</name>
    <labelrank>2</labelrank>
    <country-abbrev>Auz.</country-abbrev>
    <subregion>Australia and New Zealand</subregion>
    <woe-id>-90</woe-id>
    <region-wb>East Asia &amp; Pacific</region-wb>
    <iso-a3>AUS</iso-a3>
    <iso-a2>AU</iso-a2>
    <region-un>Oceania</region-un>
    <continent>Oceania</continent>
    <hc-middle-x>0.53</hc-middle-x>
    <hc-middle-y>0.38</hc-middle-y>
    <hc-key>au</hc-key>
    <hc-a2>AU</hc-a2>
  </desc>
</path>

<path fill="#CEE3F5" stroke="#6E6E6E" stroke-width="0.4" id="PG" d="M417.3,215.4 L421.2,217.8 L420.0,218.7 L417.5,216.7 Z M401.2,202.6 L403.2,203.1 L402.4,204.9 L400.3,203.9 L399.0,200.5 Z M400.7,199.9 L396.4,199.6 L397.2,197.3 L399.2,198.0 Z M396.1,197.4 L395.7,198.6 L394.0,197.2 L395.0,196.0 Z M413.6,195.7 L416.1,196.5 L417.8,197.9 L416.1,198.5 Z M341.5,184.6 L340.5,185.7 L341.8,187.3 L338.8,185.2 Z M378.2,163.6 L380.0,164.7 L379.7,166.5 L377.7,164.6 Z M435.9,169.4 L437.5,170.1 L440.5,175.4 L441.9,176.0 L444.0,179.0 L444.2,180.8 L442.0,181.7 L439.2,180.3 L437.9,178.6 L438.5,177.1 L435.0,173.2 L434.7,171.7 Z M435.3,166.2 L435.4,167.4 L434.4,169.1 L433.9,166.3 Z M400.6,139.8 L402.1,140.6 L402.2,142.2 L400.0,142.2 L398.2,140.3 Z M373.0,133.6 L377.4,134.8 L375.5,135.8 L371.3,134.9 L370.1,135.7 L370.3,133.8 Z M404.7,143.4 L405.9,142.7 L410.2,145.1 L413.0,147.7 L415.1,148.5 L418.4,152.1 L418.9,153.7 L421.9,155.5 L423.2,157.9 L422.4,160.6 L420.7,162.4 L419.1,159.0 L419.5,156.6 L416.7,151.3 L412.9,149.2 L411.5,147.4 L407.4,144.2 Z M319.7,189.2 L320.8,171.0 L319.9,169.3 L321.1,166.4 L323.0,135.4 L325.7,136.2 L331.4,138.9 L331.9,139.8 L339.8,142.8 L343.8,143.8 L347.6,147.0 L351.9,147.5 L352.1,148.8 L354.6,150.1 L356.0,152.2 L358.4,152.8 L362.0,157.0 L360.9,161.6 L366.9,163.6 L371.4,166.8 L374.8,167.2 L377.6,170.6 L377.6,173.5 L370.3,173.3 L370.0,175.1 L371.3,177.3 L371.6,179.4 L372.9,180.0 L375.6,183.6 L378.7,184.9 L379.3,189.2 L380.9,190.2 L381.6,193.3 L383.2,194.0 L386.4,193.2 L387.9,194.6 L386.7,197.5 L393.3,200.0 L390.6,200.5 L392.1,202.8 L397.3,204.5 L397.2,205.6 L395.1,205.6 L399.4,207.5 L393.8,208.2 L391.3,206.7 L392.9,206.1 L390.3,204.9 L387.9,204.8 L384.8,203.5 L379.5,202.7 L377.6,201.5 L376.1,202.1 L373.3,200.4 L371.3,196.9 L369.0,195.7 L368.1,192.7 L365.9,191.8 L365.5,190.1 L362.0,183.8 L359.6,182.3 L356.6,182.1 L352.4,180.5 L350.7,178.5 L349.3,180.4 L348.1,179.2 L346.9,180.2 L343.3,178.2 L344.7,181.5 L342.5,182.1 L341.6,183.5 L336.5,183.9 L339.7,187.8 L339.6,189.3 L333.3,191.9 L329.9,190.3 L326.9,190.6 L323.3,189.8 L320.8,190.2 Z M384.5,166.8 L382.6,166.4 L383.2,163.7 L384.2,164.6 L387.8,164.3 L389.7,165.6 L393.8,165.7 L396.1,164.8 L396.8,161.6 L398.2,161.9 L396.6,163.7 L397.3,165.8 L399.7,165.3 L401.4,166.3 L404.7,165.3 L406.6,161.8 L409.9,162.3 L410.7,161.2 L410.0,155.7 L413.9,156.2 L417.1,157.7 L416.8,160.7 L415.6,162.6 L413.1,162.7 L413.5,166.7 L410.8,167.5 L408.4,166.8 L408.7,168.0 L404.5,170.6 L399.4,172.1 L392.5,171.7 L390.0,169.4 L387.8,170.1 L387.6,168.9 Z">
  <desc xmlns="http://www.highcharts.com/svg/namespace">
    <name>Papua New Guinea</name>
    <labelrank>2</labelrank>
    <country-abbrev>P.N.G.</country-abbrev>
    <subregion>Melanesia</subregion>
    <woe-id>23424926</woe-id>
    <region-wb>East Asia &amp; Pacific</region-wb>
    <iso-a3>PNG</iso-a3>
    <iso-a2>PG</iso-a2>
    <region-un>Oceania</region-un>
    <continent>Oceania</continent>
    <hc-middle-x>0.24</hc-middle-x>
    <hc-middle-y>0.37</hc-middle-y>
    <hc-key>pg</hc-key>
    <hc-a2>PG</hc-a2>
  </desc>
</path>

<path fill="#CEE3F5" stroke="#6E6E6E" stroke-width="0.4" id="SB" d="M472.3,224.0 L476.3,227.0 L475.4,227.3 L473.9,225.3 Z M521.6,224.2 L521.4,225.2 L519.7,225.7 L519.0,224.6 Z M487.3,216.0 L487.9,217.4 L490.1,217.8 L491.0,220.9 L487.2,219.7 L485.4,216.4 L483.6,215.8 L484.6,214.9 L486.6,216.6 Z M473.7,207.0 L477.2,207.3 L480.2,210.4 L478.9,211.9 L476.4,210.6 L472.5,209.9 L470.9,207.3 L472.0,205.3 Z M460.5,199.0 L458.8,199.5 L458.1,197.7 L459.9,197.7 Z M485.4,209.3 L486.4,211.7 L484.2,208.6 L481.5,205.8 L480.2,199.2 L481.5,198.8 L483.2,201.4 L482.6,203.1 L484.2,204.7 Z M452.8,194.3 L455.5,192.4 L457.2,194.9 L458.0,197.9 L455.6,196.4 L455.7,195.1 L453.9,194.8 L454.2,196.7 L453.2,198.2 L452.4,197.1 L453.8,196.0 Z M452.7,193.3 L451.3,192.9 L450.9,192.0 L452.2,191.1 Z M448.0,190.2 L448.6,188.3 L450.1,189.9 L448.0,191.6 Z M462.1,189.2 L466.1,190.7 L468.8,193.8 L471.1,195.0 L474.1,197.9 L474.4,199.8 L466.4,193.9 Z M457.6,188.2 L452.9,186.9 L449.9,182.9 L448.2,181.3 L448.6,180.3 L452.8,183.2 L453.5,185.2 L455.2,187.1 Z">
  <desc xmlns="http://www.highcharts.com/svg/namespace">
    <name>Solomon Islands</name>
    <labelrank>3</labelrank>
    <country-abbrev>S. Is.</country-abbrev>
    <subregion>Melanesia</subregion>
    <woe-id>23424766</woe-id>
    <region-wb>East Asia &amp; Pacific</region-wb>
    <iso-a3>SLB</iso-a3>
    <iso-a2>SB</iso-a2>
    <region-un>Oceania</region-un>
    <continent>Oceania</continent>
    <hc-middle-x>0.37</hc-middle-x>
    <hc-middle-y>0.61</hc-middle-y>
    <hc-key>sb</hc-key>
    <hc-a2>SB</hc-a2>
  </desc>
</path>

<path fill="#CEE3F5" stroke="#6E6E6E" stroke-width="0.4" id="VU" d="M536.1,301.7 L534.6,300.1 L535.8,298.9 L536.7,300.8 Z M535.4,293.9 L535.7,296.2 L533.7,294.8 L533.9,293.3 Z M530.5,282.5 L532.2,284.7 L530.5,285.5 L529.1,283.8 Z M530.8,274.4 L531.5,277.0 L530.2,276.9 L529.9,276.1 Z M532.0,273.1 L530.5,273.3 L528.9,272.1 L531.2,271.0 Z M525.2,270.3 L528.1,273.6 L525.2,274.3 L524.4,270.2 L523.1,269.7 L523.7,268.2 Z M532.0,266.0 L532.1,270.1 L531.4,270.1 L532.1,261.7 Z M524.2,260.3 L524.5,265.3 L524.2,267.0 L522.2,265.3 L520.9,265.8 L519.9,263.3 L520.3,262.4 L519.8,258.7 L520.8,257.2 L521.6,261.7 Z">
  <desc xmlns="http://www.highcharts.com/svg/namespace">
    <name>Vanuatu</name>
    <labelrank>4</labelrank>
    <country-abbrev>Van.</country-abbrev>
    <subregion>Melanesia</subregion>
    <woe-id>23424907</woe-id>
    <region-wb>East Asia &amp; Pacific</region-wb>
    <iso-a3>VUT</iso-a3>
    <iso-a2>VU</iso-a2>
    <region-un>Oceania</region-un>
    <continent>Oceania</continent>
    <hc-middle-x>0.13</hc-middle-x>
    <hc-middle-y>0.11</hc-middle-y>
    <hc-key>vu</hc-key>
    <hc-a2>VU</hc-a2>
  </desc>
</path>

<path fill="#CEE3F5" stroke="#6E6E6E" stroke-width="0.4" id="GU" d="M365.0,0.0 L364.4,0.7 L364.4,0.0 Z">
  <desc xmlns="http://www.highcharts.com/svg/namespace">
    <name>Guam</name>
    <labelrank>6</labelrank>
    <country-abbrev>Guam</country-abbrev>
    <subregion>Micronesia</subregion>
    <woe-id>23424832</woe-id>
    <region-wb>East Asia &amp; Pacific</region-wb>
    <iso-a3>GUM</iso-a3>
    <iso-a2>GU</iso-a2>
    <region-un>Oceania</region-un>
    <continent>Oceania</continent>
    <hc-middle-x>0.50</hc-middle-x>
    <hc-middle-y>0.50</hc-middle-y>
    <hc-key>gu</hc-key>
    <hc-a2>GU</hc-a2>
  </desc>
</path>

<path fill="#CEE3F5" stroke="#6E6E6E" stroke-width="0.4" id="TV" d="M630.3,226.7 L630.3,226.6 L630.4,226.1 L630.4,226.6 Z">
  <desc xmlns="http://www.highcharts.com/svg/namespace">
    <name>Tuvalu</name>
    <labelrank>6</labelrank>
    <country-abbrev>Tuv.</country-abbrev>
    <subregion>Polynesia</subregion>
    <woe-id>23424970</woe-id>
    <region-wb>East Asia &amp; Pacific</region-wb>
    <iso-a3>TUV</iso-a3>
    <iso-a2>TV</iso-a2>
    <region-un>Oceania</region-un>
    <continent>Oceania</continent>
    <hc-middle-x>0.36</hc-middle-x>
    <hc-middle-y>0.50</hc-middle-y>
    <hc-key>tv</hc-key>
    <hc-a2>TV</hc-a2>
  </desc>
</path>

<path fill="#CEE3F5" stroke="#6E6E6E" stroke-width="0.4" id="MH" d="M588.1,83.9 L589.4,84.8 L589.7,84.9 L589.2,84.7 Z">
  <desc xmlns="http://www.highcharts.com/svg/namespace">
    <name>Marshall Islands</name>
    <labelrank>6</labelrank>
    <country-abbrev>M. Is.</country-abbrev>
    <subregion>Micronesia</subregion>
    <woe-id>23424932</woe-id>
    <region-wb>East Asia &amp; Pacific</region-wb>
    <iso-a3>MHL</iso-a3>
    <iso-a2>MH</iso-a2>
    <region-un>Oceania</region-un>
    <continent>Oceania</continent>
    <hc-middle-x>0.48</hc-middle-x>
    <hc-middle-y>0.56</hc-middle-y>
    <hc-key>mh</hc-key>
    <hc-a2>MH</hc-a2>
  </desc>
</path>

<path fill="#CEE3F5" stroke="#6E6E6E" stroke-width="0.4" id="NR" d="M542.3,142.7 L542.0,142.7 L542.0,142.3 L542.3,142.3 Z">
  <desc xmlns="http://www.highcharts.com/svg/namespace">
    <name>Nauru</name>
    <labelrank>6</labelrank>
    <country-abbrev>Nauru</country-abbrev>
    <subregion>Micronesia</subregion>
    <woe-id>23424912</woe-id>
    <region-wb>East Asia &amp; Pacific</region-wb>
    <iso-a3>NRU</iso-a3>
    <iso-a2>NR</iso-a2>
    <region-un>Oceania</region-un>
    <continent>Oceania</continent>
    <hc-middle-x>0.50</hc-middle-x>
    <hc-middle-y>0.55</hc-middle-y>
    <hc-key>nr</hc-key>
    <hc-a2>NR</hc-a2>
  </desc>
</path>

<path fill="#CEE3F5" stroke="#6E6E6E" stroke-width="0.4" id="FM" d="M477.2,68.4 L478.3,68.8 L477.8,70.0 L477.0,69.9 Z">
  <desc xmlns="http://www.highcharts.com/svg/namespace">
    <name>Federated States of Micronesia</name>
    <labelrank>6</labelrank>
    <country-abbrev>F.S.M.</country-abbrev>
    <subregion>Micronesia</subregion>
    <woe-id>23424815</woe-id>
    <region-wb>East Asia &amp; Pacific</region-wb>
    <iso-a3>FSM</iso-a3>
    <iso-a2>FM</iso-a2>
    <region-un>Oceania</region-un>
    <continent>Oceania</continent>
    <hc-middle-x>0.52</hc-middle-x>
    <hc-middle-y>0.53</hc-middle-y>
    <hc-key>fm</hc-key>
    <hc-a2>FM</hc-a2>
  </desc>
</path>

<path fill="#CEE3F5" stroke="#6E6E6E" stroke-width="0.4" id="PH" d="M144.3,66.8 L144.2,66.4 L147.6,64.3 L146.9,65.5 Z M156.5,60.2 L156.4,59.1 L153.9,59.6 L154.8,57.7 L158.1,58.7 Z M163.5,54.9 L161.4,53.4 L163.6,52.0 L165.9,53.2 Z M197.7,25.5 L197.3,25.6 L198.6,22.8 L199.5,25.2 Z M185.0,22.7 L184.7,25.3 L182.9,26.8 L179.4,26.5 L178.6,25.0 L181.9,22.0 Z M195.1,19.7 L195.4,24.3 L193.5,22.3 L193.7,20.4 Z M169.0,18.1 L168.2,19.4 L166.9,18.9 L168.5,16.6 Z M173.8,14.6 L176.5,15.9 L172.9,24.5 L172.7,26.7 L174.3,29.1 L173.6,31.2 L171.8,31.9 L170.4,29.3 L168.0,28.4 L166.2,24.8 L166.9,23.6 L170.4,22.3 L169.9,18.6 L171.4,15.2 Z M180.2,13.7 L180.8,15.3 L180.0,20.4 L177.1,22.9 L175.8,27.1 L174.3,27.7 L175.2,23.0 L177.7,19.2 Z M165.2,7.6 L167.9,9.8 L168.9,8.9 L172.9,10.2 L172.6,12.8 L169.5,14.8 L167.8,17.1 L164.6,17.7 L162.2,19.6 L162.0,16.5 L163.0,14.3 L163.5,8.6 L161.2,7.6 L162.2,6.1 Z M144.9,6.4 L144.5,8.8 L143.4,6.2 L144.6,5.6 L143.6,2.9 L147.8,5.1 L147.1,7.4 L146.0,5.5 Z M178.1,2.1 L176.7,0.0 L177.7,0.0 L178.4,2.3 L180.7,5.8 L180.7,7.8 L175.1,3.6 L173.0,6.0 L173.7,1.6 L173.5,0.0 L177.5,2.4 Z M163.7,0.0 L162.6,4.1 L161.7,2.8 L162.6,0.0 Z M154.4,3.4 L152.3,0.0 L158.2,0.0 L155.7,3.7 Z M188.9,10.9 L187.7,9.5 L189.6,7.7 L188.1,7.5 L186.3,5.1 L183.7,3.4 L182.7,0.6 L186.2,0.7 L190.6,0.1 L193.5,3.1 L193.1,5.7 L194.1,11.9 L195.4,12.8 L191.3,13.5 L189.0,10.9 L189.6,14.6 L189.1,16.2 L190.8,17.9 L191.8,23.8 L190.4,22.6 L189.2,19.8 L189.4,23.1 L187.2,21.9 L187.1,15.9 L185.8,14.3 L183.8,15.0 L183.2,9.4 L184.4,10.1 L183.3,8.2 L185.2,8.4 L184.5,10.0 L185.8,11.6 Z M196.1,46.6 L195.9,50.6 L194.7,48.8 L193.5,49.5 L192.5,53.1 L194.1,53.8 L195.2,57.0 L194.9,58.8 L192.4,62.0 L190.7,60.1 L191.5,58.5 L190.4,57.5 L189.7,59.5 L185.6,58.3 L182.5,56.7 L180.9,54.5 L180.6,48.7 L182.5,46.1 L180.9,44.4 L177.8,42.6 L175.5,42.7 L175.9,43.9 L173.1,45.5 L172.7,43.2 L171.4,46.4 L170.1,47.1 L170.0,43.2 L167.4,43.7 L166.0,45.8 L164.0,50.7 L162.4,50.0 L164.0,42.7 L165.4,40.9 L170.9,39.7 L172.3,36.4 L176.1,35.5 L178.2,35.6 L179.2,39.6 L182.4,39.0 L183.9,35.6 L186.9,36.5 L187.2,31.4 L190.1,33.6 L191.0,31.3 L193.7,31.9 L193.9,30.4 L192.6,26.1 L193.1,24.8 L194.5,26.5 L197.3,27.8 L199.4,31.3 L200.5,34.2 L198.8,35.6 L201.1,36.2 L201.0,39.3 L201.9,38.9 L201.4,42.4 L202.9,43.4 L203.1,47.3 L200.0,51.7 L199.6,55.8 L198.6,53.9 L198.5,51.0 Z M138.0,15.4 L140.4,11.1 L141.1,13.3 L140.5,15.1 L142.1,18.8 L141.2,20.4 L139.3,20.9 L138.0,23.3 L134.1,24.9 L134.4,26.3 L132.0,30.1 L128.8,31.8 L127.9,33.9 L124.0,36.0 L123.6,37.4 L121.1,38.7 L121.6,36.3 L124.7,32.5 L127.7,30.9 L132.2,26.0 L134.7,22.2 L138.6,19.3 L139.2,17.4 Z M180.9,0.0 L180.8,0.5 L180.3,0.0 Z">
  <desc xmlns="http://www.highcharts.com/svg/namespace">
    <name>Philippines</name>
    <labelrank>2</labelrank>
    <country-abbrev>Phil.</country-abbrev>
    <subregion>South-Eastern Asia</subregion>
    <woe-id>23424934</woe-id>
    <region-wb>East Asia &amp; Pacific</region-wb>
    <iso-a3>PHL</iso-a3>
    <iso-a2>PH</iso-a2>
    <region-un>Asia</region-un>
    <continent>Asia</continent>
    <hc-middle-x>0.82</hc-middle-x>
    <hc-middle-y>0.61</hc-middle-y>
    <hc-key>ph</hc-key>
    <hc-a2>PH</hc-a2>
  </desc>
</path>

<path fill="#CEE3F5" stroke="#6E6E6E" stroke-width="0.4" id="TO" d="M650.5,337.5 L651.6,338.2 L651.5,339.0 L650.3,337.9 Z">
  <desc xmlns="http://www.highcharts.com/svg/namespace">
    <name>Tonga</name>
    <labelrank>4</labelrank>
    <country-abbrev>Tongo</country-abbrev>
    <subregion>Polynesia</subregion>
    <woe-id>23424964</woe-id>
    <region-wb>East Asia &amp; Pacific</region-wb>
    <iso-a3>TON</iso-a3>
    <iso-a2>TO</iso-a2>
    <region-un>Oceania</region-un>
    <continent>Oceania</continent>
    <hc-middle-x>0.58</hc-middle-x>
    <hc-middle-y>0.44</hc-middle-y>
    <hc-key>to</hc-key>
    <hc-a2>TO</hc-a2>
  </desc>
</path>

<path fill="#CEE3F5" stroke="#6E6E6E" stroke-width="0.4" id="ID" d="M175.8,197.2 L174.5,199.2 L171.6,200.1 L171.3,199.0 L173.2,198.4 L176.0,196.1 Z M148.3,187.6 L150.5,189.9 L152.2,189.9 L155.1,193.5 L152.0,195.4 L149.6,194.7 L148.1,192.8 L144.0,190.9 L140.4,190.4 L139.6,189.5 L141.4,188.0 Z M173.9,179.6 L171.7,180.9 L173.0,178.8 L175.4,178.2 Z M121.4,180.3 L119.5,183.8 L120.0,184.5 L115.4,184.7 L114.0,183.9 L115.9,183.2 L115.5,181.0 L118.3,178.9 Z M180.4,178.1 L179.0,178.6 L177.2,180.7 L174.6,180.4 L175.7,178.7 L179.2,177.5 Z M182.8,179.2 L182.2,180.4 L181.0,179.6 L183.0,177.5 Z M185.6,177.1 L189.9,177.4 L190.1,178.9 L184.3,179.9 L184.6,177.3 Z M211.9,177.7 L212.4,177.0 L214.7,177.4 L215.4,178.5 Z M111.1,178.9 L112.9,180.5 L109.8,182.6 L109.1,184.3 L106.5,181.5 L104.1,181.0 L102.5,178.6 L105.8,179.2 L108.7,178.0 Z M228.3,174.8 L229.0,175.8 L228.3,176.8 L226.9,175.7 Z M203.3,173.3 L204.2,173.9 L201.9,174.6 L201.1,175.8 L197.9,175.1 L195.8,176.1 L196.9,173.4 L200.0,173.5 L202.5,172.4 Z M244.6,169.7 L243.8,170.6 L243.8,173.4 L241.0,176.8 L239.3,176.6 L239.4,173.5 L242.9,169.9 Z M98.3,168.7 L99.4,169.5 L94.8,171.8 L88.0,171.5 L88.8,169.4 Z M151.8,163.7 L151.4,158.6 L151.7,157.9 L152.3,159.7 Z M253.5,159.9 L252.6,159.6 L252.3,157.2 L254.5,159.0 L256.4,154.9 L256.4,157.2 L254.1,160.4 Z M163.5,152.2 L164.7,152.9 L163.9,155.3 L162.6,153.6 Z M170.6,150.9 L169.5,152.0 L168.7,154.9 L166.5,154.4 L167.5,151.9 L167.5,149.2 L170.2,148.4 Z M174.2,148.6 L172.9,149.1 L172.0,152.7 L174.3,153.8 L171.5,155.1 L171.1,156.9 L168.9,155.5 L170.3,153.4 L171.7,146.9 L172.6,146.2 Z M173.1,143.0 L174.5,143.7 L173.1,144.9 L172.0,143.4 Z M217.4,139.9 L219.8,139.6 L214.0,141.2 L214.5,139.7 L216.6,139.0 Z M116.6,140.1 L116.5,143.4 L114.8,144.8 L114.0,141.3 L114.9,138.5 L116.0,137.7 Z M204.8,135.6 L208.1,137.9 L207.8,139.7 L203.6,141.8 L198.9,139.7 L197.4,136.7 L201.0,135.2 Z M42.5,138.5 L43.8,135.8 L47.1,135.9 L48.9,137.1 L48.6,140.3 L46.9,141.3 L45.8,139.8 L43.9,141.5 L43.5,138.8 Z M198.1,130.2 L197.2,129.6 L196.3,127.0 L197.4,126.2 Z M192.6,124.6 L197.5,124.5 L199.8,125.2 L192.7,125.9 Z M234.2,124.2 L234.8,125.5 L233.3,127.1 L230.5,126.7 L228.8,125.6 Z M183.8,126.2 L183.9,123.5 L186.0,123.2 L191.8,125.1 Z M277.3,124.6 L287.6,126.2 L289.0,127.0 L283.9,127.6 Z M36.1,139.7 L37.6,140.1 L34.5,140.9 L33.8,140.0 L29.9,139.0 L29.3,136.3 L27.9,133.7 L25.9,133.0 L23.8,133.7 L22.4,132.1 L24.1,131.0 L23.8,129.6 L25.8,128.4 L27.8,130.5 L26.8,128.3 L29.6,128.7 L30.9,131.0 L31.9,134.9 L32.7,135.8 L36.8,136.3 L35.6,137.5 Z M211.4,120.3 L215.5,122.9 L214.8,124.0 L210.4,124.1 L209.1,123.3 Z M176.7,122.0 L173.2,122.6 L173.6,120.6 L171.2,122.9 L171.4,119.5 L173.9,119.3 L174.2,121.3 L175.7,119.8 Z M59.2,121.5 L60.8,122.8 L58.3,124.3 L57.9,121.9 Z M238.2,117.4 L240.4,118.3 L239.5,121.4 L237.7,120.5 L236.8,118.3 Z M277.2,116.8 L280.7,117.3 L283.5,120.5 L285.0,120.8 L283.0,121.8 L281.1,121.4 L279.8,118.3 L279.1,118.8 Z M15.4,119.1 L16.7,120.1 L14.8,122.0 L13.8,120.5 Z M211.4,113.1 L211.1,114.9 L213.6,116.1 L212.3,117.1 L208.6,113.9 L208.7,112.4 Z M207.8,114.8 L207.3,116.1 L207.0,112.0 L208.5,111.9 Z M165.6,111.4 L164.9,112.7 L161.4,113.7 L163.1,112.3 Z M236.3,113.7 L235.7,112.1 L233.8,110.8 L238.4,110.1 L242.4,111.5 L241.9,113.4 L239.4,113.0 L237.3,110.7 L236.8,111.2 L239.4,113.2 Z M14.6,114.0 L17.1,115.6 L18.0,117.8 L15.3,118.3 L16.4,115.5 Z M2.5,108.6 L3.0,110.3 L0.4,108.9 L0.4,107.8 Z M10.3,108.4 L11.5,108.2 L13.0,109.3 L12.9,110.7 Z M16.1,109.5 L14.5,107.5 L12.6,107.4 L15.5,106.0 Z M216.1,90.3 L219.6,87.4 L220.6,88.7 L218.9,92.3 L217.2,92.4 Z M45.5,79.4 L46.5,81.2 L45.8,82.9 L42.8,80.2 L44.7,78.1 Z M203.3,75.8 L204.6,73.7 L204.0,71.0 L205.6,73.2 L204.7,75.3 Z M176.8,194.2 L178.9,193.3 L177.5,192.6 L178.4,189.3 L180.9,187.1 L183.0,188.4 L185.5,185.7 L188.4,183.9 L189.8,184.1 L190.3,185.8 L188.7,186.3 L189.6,188.3 L188.9,189.7 L184.4,193.8 L181.9,193.9 L179.5,195.5 L176.6,195.5 Z M140.0,178.5 L140.3,181.8 L138.0,183.2 L135.6,183.8 L135.0,182.3 L133.1,183.9 L129.6,184.4 L123.7,186.2 L121.7,185.5 L122.2,181.3 L125.1,179.9 L127.1,180.9 L127.5,178.4 L132.6,177.7 L134.2,179.8 L135.3,178.8 L137.4,179.7 Z M128.0,75.0 L126.0,76.6 L126.3,75.0 L126.6,75.1 Z M321.1,166.4 L319.9,169.3 L320.8,171.0 L319.7,189.2 L311.7,180.4 L306.9,180.9 L305.9,179.8 L303.2,181.5 L302.7,180.2 L303.0,179.5 L301.6,180.5 L302.6,180.6 L303.1,182.0 L300.3,182.0 L301.3,180.7 L299.3,182.0 L292.7,182.1 L293.9,179.2 L296.3,175.5 L298.1,174.3 L302.7,173.9 L304.9,175.7 L304.1,177.5 L305.0,175.5 L301.9,172.3 L305.7,173.0 L302.5,171.7 L301.0,170.2 L302.4,169.9 L302.3,167.7 L300.4,165.7 L299.0,161.4 L297.4,160.0 L297.5,157.4 L290.6,153.7 L287.3,152.9 L280.4,149.2 L275.9,148.3 L274.3,148.4 L269.6,145.5 L269.8,143.7 L268.5,144.6 L267.0,143.2 L266.8,144.5 L263.9,142.9 L261.8,140.9 L261.7,136.8 L260.8,140.5 L257.9,144.6 L255.5,144.9 L253.7,141.3 L255.4,140.2 L254.4,137.9 L253.3,138.3 L252.3,136.4 L250.5,135.0 L247.6,134.7 L249.5,132.8 L253.9,134.0 L256.5,131.3 L258.9,131.1 L259.6,132.1 L263.0,132.9 L264.5,131.0 L262.9,129.7 L258.8,129.1 L253.7,129.8 L252.6,128.8 L250.8,129.4 L248.5,128.0 L246.5,123.0 L241.4,122.9 L239.3,122.2 L241.9,119.2 L241.8,117.0 L247.3,116.0 L249.1,114.3 L252.0,113.3 L254.3,113.5 L258.0,115.1 L260.0,116.7 L264.9,116.9 L266.5,118.1 L265.4,118.9 L267.3,122.2 L265.6,125.0 L266.0,130.2 L268.4,134.9 L269.5,131.4 L270.3,135.8 L271.6,135.4 L271.3,137.3 L272.6,139.0 L276.6,139.4 L280.5,136.4 L281.0,134.7 L283.6,133.0 L284.9,130.2 L287.8,130.6 L291.8,129.3 L291.2,126.9 L296.8,124.6 L304.0,127.5 L305.1,128.7 L313.8,133.0 L316.4,132.7 L323.0,135.4 Z M266.5,164.1 L267.1,164.6 L267.7,165.8 L264.9,168.4 L263.8,167.2 L264.7,162.3 L266.5,164.0 L266.9,163.7 L266.3,163.6 L264.6,161.1 L266.5,161.3 L266.7,159.1 L265.6,159.0 L268.6,156.2 L270.0,158.3 L268.8,160.4 L270.0,161.8 L269.3,163.7 L267.6,163.7 L268.7,164.9 L270.1,164.8 L269.1,165.6 Z M0.0,109.4 L3.0,110.9 L0.0,111.1 Z M172.2,177.8 L172.3,177.8 L172.2,177.8 L172.2,177.8 L172.2,177.8 L172.2,177.8 L172.2,177.8 Z M172.2,177.8 L170.6,178.0 L171.5,176.7 L172.2,177.8 L172.2,177.8 Z M172.2,177.8 L172.8,178.8 L171.1,179.7 L171.1,181.1 L167.9,182.2 L165.5,182.2 L162.8,183.5 L159.6,182.8 L159.1,183.8 L155.7,183.9 L153.0,182.9 L149.2,182.7 L147.5,183.6 L146.4,181.7 L145.7,183.1 L144.6,181.3 L143.0,182.5 L143.3,180.2 L145.5,181.9 L149.8,178.8 L156.1,179.1 L160.5,181.2 L164.6,179.7 L166.9,181.4 L172.2,177.8 L172.2,177.8 Z M74.8,168.3 L77.6,167.6 L82.4,169.6 L86.9,169.4 L87.8,172.3 L88.8,172.3 L88.4,174.5 L92.9,176.5 L97.0,175.7 L98.7,174.8 L102.5,176.4 L101.8,181.2 L103.9,184.1 L101.4,182.9 L98.8,183.1 L97.4,182.2 L92.3,180.5 L88.0,182.1 L85.3,181.3 L80.7,180.9 L79.8,181.9 L69.9,180.3 L66.1,178.6 L60.6,177.5 L57.6,178.2 L56.5,176.9 L52.1,178.9 L46.8,178.0 L44.4,176.8 L37.1,176.6 L35.8,175.3 L36.9,173.1 L34.8,173.2 L32.1,172.0 L26.3,172.7 L25.7,171.4 L27.9,172.3 L30.7,169.0 L31.0,165.9 L32.3,164.3 L36.0,165.3 L40.2,165.3 L40.5,164.0 L43.1,164.3 L44.1,165.6 L47.0,165.8 L49.4,166.8 L51.5,166.0 L53.2,167.9 L53.8,170.1 L60.0,170.6 L69.3,170.7 L70.7,166.9 L72.8,166.0 Z M213.5,139.4 L212.9,136.2 L211.0,137.7 L209.8,137.2 L213.4,136.0 L213.8,134.9 L215.7,133.6 L221.5,133.7 L223.1,133.3 L223.6,134.5 L226.3,133.1 L231.4,135.0 L233.9,134.9 L235.8,136.1 L236.5,138.5 L238.2,140.0 L237.9,142.4 L230.8,138.8 L230.0,137.8 L227.1,137.4 L226.6,138.8 L222.2,137.8 L221.5,136.5 L219.8,138.4 L218.2,138.7 L215.4,135.4 Z M150.4,117.4 L152.7,121.5 L156.0,121.7 L159.5,116.9 L161.4,117.5 L164.7,117.4 L165.5,116.1 L171.9,115.7 L169.9,115.0 L174.2,114.3 L176.0,115.9 L174.8,118.4 L172.7,117.0 L170.6,117.3 L166.9,122.1 L162.1,124.1 L161.3,125.7 L158.1,124.7 L160.3,127.8 L162.4,128.8 L164.1,132.2 L166.6,134.1 L167.0,136.5 L166.1,140.2 L169.6,142.4 L169.7,144.0 L171.6,144.6 L171.1,146.6 L169.1,146.3 L165.0,147.4 L164.1,150.2 L161.7,150.0 L159.8,148.6 L160.2,145.0 L161.0,143.8 L158.7,142.9 L154.8,139.4 L156.2,136.5 L156.2,132.9 L153.7,131.7 L148.9,134.6 L150.5,136.7 L151.1,141.0 L150.3,142.7 L150.5,146.5 L151.2,148.5 L149.8,152.8 L151.4,156.8 L150.3,155.8 L146.9,156.4 L146.0,157.4 L144.1,157.1 L142.2,154.7 L143.6,150.7 L143.3,149.7 L144.3,146.0 L142.8,141.1 L143.1,139.2 L141.4,138.7 L138.3,139.9 L136.9,136.0 L136.9,134.1 L139.9,130.5 L139.8,128.5 L141.5,126.5 L141.3,120.2 L144.6,115.3 L145.0,110.8 L145.8,109.3 L144.9,107.9 L146.9,105.6 L147.1,103.6 L149.5,102.6 L151.4,103.2 L153.4,100.8 L154.3,98.4 L157.3,99.4 L158.9,98.8 L159.1,100.3 L167.4,101.0 L170.8,102.7 L171.8,101.5 L179.2,102.5 L185.6,99.4 L185.2,98.0 L187.8,96.9 L187.7,96.1 L190.3,94.8 L191.4,97.6 L190.3,97.5 L188.2,101.3 L186.2,102.7 L183.3,106.2 L178.5,106.9 L174.2,106.8 L172.7,105.2 L166.4,105.4 L161.9,106.1 L161.0,105.3 L154.2,106.2 L152.4,105.3 L149.8,105.8 L147.8,108.4 L146.7,111.7 L147.6,115.4 L148.9,117.3 Z M214.2,105.6 L213.6,109.8 L214.8,113.1 L218.1,117.3 L217.2,117.6 L214.9,115.6 L213.2,112.7 L211.7,111.6 L212.1,107.3 L209.9,103.8 L210.4,102.1 L209.6,99.2 L211.1,94.8 L214.0,91.3 L215.1,91.0 L213.4,94.2 L215.0,96.7 L213.7,99.9 L211.5,101.2 L212.9,102.9 L216.3,99.6 L215.4,99.1 L218.6,96.7 L220.8,96.5 L220.6,100.7 L217.3,102.1 L217.2,104.1 L220.4,105.2 L220.4,106.8 L221.8,107.7 Z M125.1,75.1 L123.7,75.7 L127.4,77.8 L126.8,79.5 L121.1,79.6 L126.3,81.4 L123.4,83.1 L125.8,84.3 L125.2,85.6 L126.9,85.8 L127.7,88.3 L130.1,91.2 L128.8,92.0 L128.2,94.4 L130.5,96.3 L135.7,99.6 L138.1,102.0 L136.4,103.3 L130.2,102.5 L128.0,103.5 L125.3,109.5 L125.8,110.7 L125.2,114.8 L126.5,114.0 L126.7,117.0 L123.9,117.3 L121.8,120.6 L117.8,123.1 L116.6,125.5 L117.3,127.6 L115.9,128.9 L118.6,129.3 L118.1,131.7 L116.9,132.3 L113.6,141.0 L102.6,146.1 L102.3,142.0 L101.2,140.5 L97.5,139.5 L94.1,140.5 L93.9,138.3 L91.7,139.1 L88.9,136.3 L88.9,138.3 L85.6,140.6 L82.9,139.8 L79.7,142.1 L79.0,142.0 L78.9,137.9 L78.0,135.9 L76.8,137.6 L74.3,137.1 L72.4,138.3 L69.1,138.6 L67.7,137.0 L65.7,138.1 L64.7,135.0 L65.2,134.3 L63.6,129.2 L62.2,128.5 L63.3,125.1 L62.0,122.5 L58.2,120.6 L56.4,120.7 L56.8,118.4 L54.9,117.8 L54.1,115.7 L56.2,113.4 L52.8,110.9 L52.0,106.8 L53.6,100.5 L55.6,98.2 L55.5,97.2 L58.0,95.8 L57.1,97.5 L60.1,101.4 L62.9,103.2 L63.8,104.7 L66.4,105.7 L71.7,103.6 L77.1,103.8 L79.4,102.5 L79.9,100.0 L82.3,98.8 L87.1,98.9 L87.7,99.8 L92.5,101.2 L94.6,99.3 L98.8,98.7 L99.7,99.2 L102.3,95.1 L101.8,92.2 L105.3,89.9 L104.0,89.1 L104.0,87.2 L105.5,85.3 L107.4,85.3 L108.4,81.8 L107.7,77.9 L110.2,73.6 L115.0,74.3 L117.7,73.5 L122.1,73.5 Z M0.0,111.4 L1.4,111.4 L3.4,113.4 L6.1,112.8 L9.2,114.9 L9.6,117.0 L7.9,117.1 L6.6,118.9 L9.5,119.8 L6.8,121.4 L6.3,123.0 L10.7,125.5 L15.2,125.1 L17.1,131.8 L20.2,134.2 L20.3,135.2 L26.6,135.7 L26.5,137.0 L28.3,139.4 L30.2,140.2 L30.9,142.5 L29.7,143.5 L29.0,146.1 L30.2,147.4 L29.3,150.8 L30.2,152.7 L30.0,164.0 L28.5,163.9 L25.9,161.3 L24.5,164.0 L20.2,161.9 L19.5,162.6 L21.3,165.4 L17.6,163.4 L12.2,158.1 L5.4,154.8 L0.0,151.1 L0.0,151.1 Z">
  <desc xmlns="http://www.highcharts.com/svg/namespace">
    <name>Indonesia</name>
    <labelrank>2</labelrank>
    <country-abbrev>Indo.</country-abbrev>
    <subregion>South-Eastern Asia</subregion>
    <woe-id>23424846</woe-id>
    <region-wb>East Asia &amp; Pacific</region-wb>
    <iso-a3>IDN</iso-a3>
    <iso-a2>ID</iso-a2>
    <region-un>Asia</region-un>
    <continent>Asia</continent>
    <hc-middle-x>0.30</hc-middle-x>
    <hc-middle-y>0.35</hc-middle-y>
    <hc-key>id</hc-key>
    <hc-a2>ID</hc-a2>
  </desc>
</path>

<path fill="#CEE3F5" stroke="#6E6E6E" stroke-width="0.4" id="FJ" d="M607.0,309.5 L604.6,309.7 L602.6,310.0 L605.9,309.0 Z M605.4,304.1 L605.3,303.0 L603.1,302.5 L599.5,300.7 L599.1,299.4 L601.9,296.2 L607.5,295.6 L609.9,298.8 L609.8,302.7 L606.7,302.6 Z M618.3,289.8 L621.6,289.1 L622.1,290.2 L618.6,292.9 L618.9,293.5 L622.5,291.7 L621.8,293.7 L616.9,293.4 L616.9,292.4 L612.0,294.0 L611.7,291.0 Z">
  <desc xmlns="http://www.highcharts.com/svg/namespace">
    <name>Fiji</name>
    <labelrank>6</labelrank>
    <country-abbrev>Fiji</country-abbrev>
    <subregion>Melanesia</subregion>
    <woe-id>23424813</woe-id>
    <region-wb>East Asia &amp; Pacific</region-wb>
    <iso-a3>FJI</iso-a3>
    <iso-a2>FJ</iso-a2>
    <region-un>Oceania</region-un>
    <continent>Oceania</continent>
    <hc-middle-x>0.24</hc-middle-x>
    <hc-middle-y>0.52</hc-middle-y>
    <hc-key>fj</hc-key>
    <hc-a2>FJ</hc-a2>
  </desc>
</path>

<path fill="#CEE3F5" stroke="#6E6E6E" stroke-width="0.4" id="NZ" d="M483.0,538.4 L484.6,537.6 L486.1,539.9 L486.2,541.9 L483.6,542.6 L482.8,542.0 L480.9,543.1 L483.5,539.6 Z M596.5,529.9 L599.1,530.7 L596.5,531.4 L597.5,533.4 L595.9,533.9 L595.0,532.6 L596.3,532.0 Z M508.1,526.3 L507.2,528.6 L504.7,531.2 L504.9,533.3 L502.3,533.5 L501.3,535.1 L496.5,538.6 L492.2,538.9 L491.1,537.5 L488.1,537.4 L487.2,534.7 L484.6,534.7 L483.9,532.5 L481.8,532.8 L477.4,531.8 L475.9,529.4 L476.2,527.4 L477.4,526.9 L479.1,523.2 L483.3,519.2 L486.8,517.1 L492.2,512.5 L494.7,512.5 L498.2,510.7 L502.2,509.5 L506.9,505.8 L510.0,504.9 L513.5,502.0 L517.4,495.3 L520.2,494.2 L522.1,492.1 L523.3,487.3 L527.7,484.5 L527.6,486.8 L529.8,487.7 L529.7,492.6 L534.4,490.9 L535.2,489.9 L534.4,493.2 L537.7,490.8 L538.6,491.4 L535.8,495.7 L537.1,498.0 L533.4,502.2 L530.6,504.1 L527.9,508.1 L524.2,509.6 L523.2,511.8 L525.0,516.4 L520.5,514.4 L519.1,515.6 L512.2,518.3 L510.6,520.9 L510.1,524.1 Z M568.3,475.9 L567.0,478.8 L563.6,478.0 L561.1,478.6 L559.6,480.6 L559.9,483.6 L557.7,487.2 L553.3,491.2 L549.7,495.8 L544.6,498.3 L543.9,496.3 L541.7,495.9 L542.2,494.1 L540.1,494.3 L543.0,491.8 L545.4,488.5 L546.3,485.9 L545.1,482.2 L542.4,480.8 L541.0,478.5 L538.8,477.4 L537.6,475.8 L537.9,474.1 L544.2,471.9 L546.4,465.4 L548.0,462.6 L547.2,455.9 L549.4,456.5 L548.4,455.0 L546.8,455.4 L546.5,451.8 L547.4,451.5 L547.2,448.1 L544.7,446.6 L544.7,448.1 L539.8,437.6 L540.8,436.3 L538.7,431.3 L537.9,430.5 L540.9,430.3 L540.9,434.4 L542.9,436.1 L545.9,436.7 L547.6,440.2 L548.9,439.1 L548.7,441.1 L549.8,442.9 L548.6,446.3 L550.6,450.4 L549.1,451.5 L549.4,454.1 L552.2,455.8 L553.2,458.6 L554.1,458.3 L553.8,455.3 L555.2,452.7 L555.4,454.8 L557.0,454.6 L556.5,458.4 L556.4,463.0 L559.9,464.9 L563.9,467.7 L566.0,468.1 L568.7,465.9 L570.8,465.1 L572.8,465.6 L574.5,467.5 L572.5,469.7 L571.0,474.4 Z">
  <desc xmlns="http://www.highcharts.com/svg/namespace">
    <name>New Zealand</name>
    <labelrank>2</labelrank>
    <country-abbrev>N.Z.</country-abbrev>
    <subregion>Australia and New Zealand</subregion>
    <woe-id>23424916</woe-id>
    <region-wb>East Asia &amp; Pacific</region-wb>
    <iso-a3>NZL</iso-a3>
    <iso-a2>NZ</iso-a2>
    <region-un>Oceania</region-un>
    <continent>Oceania</continent>
    <hc-middle-x>0.18</hc-middle-x>
    <hc-middle-y>0.83</hc-middle-y>
    <hc-key>nz</hc-key>
    <hc-a2>NZ</hc-a2>
  </desc>
</path>

<path fill="#CEE3F5" stroke="#6E6E6E" stroke-width="0.4" id="MY" d="M119.5,48.3 L121.5,47.5 L121.6,49.1 L120.1,49.8 Z M126.3,75.0 L126.2,74.1 L128.0,75.0 L126.6,75.1 Z M58.0,95.8 L58.2,97.0 L60.6,98.9 L65.7,98.4 L65.2,99.3 L69.9,99.6 L71.4,95.1 L71.2,92.4 L72.0,91.9 L72.0,89.0 L73.1,89.9 L75.0,88.4 L77.9,87.9 L86.3,85.1 L89.7,79.9 L93.9,75.2 L94.3,72.4 L96.4,73.3 L99.5,77.2 L101.0,76.2 L101.6,73.6 L100.7,71.0 L102.9,69.3 L103.9,73.9 L106.1,74.3 L105.3,73.1 L104.5,69.0 L105.9,69.3 L107.9,66.6 L105.7,65.8 L107.6,63.1 L109.9,63.5 L111.6,61.0 L112.0,58.6 L115.3,55.2 L117.5,50.5 L118.1,54.4 L120.7,50.6 L121.7,51.2 L122.1,53.8 L124.2,53.9 L126.1,55.8 L124.9,57.5 L126.5,60.0 L128.5,58.6 L129.5,60.3 L127.7,61.0 L129.6,61.8 L130.5,60.4 L132.0,60.8 L136.8,64.2 L139.0,63.7 L139.5,65.8 L134.5,68.1 L131.7,67.4 L129.8,68.8 L132.8,71.7 L135.3,72.3 L133.5,73.2 L127.9,74.2 L125.9,72.8 L125.1,75.1 L122.1,73.5 L117.7,73.5 L115.0,74.3 L110.2,73.6 L107.7,77.9 L108.4,81.8 L107.4,85.3 L105.5,85.3 L104.0,87.2 L104.0,89.1 L105.3,89.9 L101.8,92.2 L102.3,95.1 L99.7,99.2 L98.8,98.7 L94.6,99.3 L92.5,101.2 L87.7,99.8 L87.1,98.9 L82.3,98.8 L79.9,100.0 L79.4,102.5 L77.1,103.8 L71.7,103.6 L66.4,105.7 L63.8,104.7 L62.9,103.2 L60.1,101.4 L57.1,97.5 Z M3.1,85.4 L4.5,87.4 L4.5,92.1 L7.6,94.7 L11.8,101.4 L12.9,104.3 L11.3,105.1 L7.7,104.8 L6.4,106.4 L4.9,104.2 L0.0,101.7 L0.0,71.6 L0.1,71.7 L3.3,76.4 L4.0,80.3 Z">
  <desc xmlns="http://www.highcharts.com/svg/namespace">
    <name>Malaysia</name>
    <labelrank>3</labelrank>
    <country-abbrev>Malay.</country-abbrev>
    <subregion>South-Eastern Asia</subregion>
    <woe-id>23424901</woe-id>
    <region-wb>East Asia &amp; Pacific</region-wb>
    <iso-a3>MYS</iso-a3>
    <iso-a2>MY</iso-a2>
    <region-un>Asia</region-un>
    <continent>Asia</continent>
    <hc-middle-x>0.65</hc-middle-x>
    <hc-middle-y>0.73</hc-middle-y>
    <hc-key>my</hc-key>
    <hc-a2>MY</hc-a2>
  </desc>
</path>

<path fill="#CEE3F5" stroke="#6E6E6E" stroke-width="0.4" id="WS" d="M693.2,286.8 L694.0,288.0 L690.2,286.5 L691.1,285.2 Z M688.6,281.9 L688.5,284.5 L686.1,283.9 L684.6,281.1 Z">
  <desc xmlns="http://www.highcharts.com/svg/namespace">
    <name>Samoa</name>
    <labelrank>4</labelrank>
    <country-abbrev>Samoa</country-abbrev>
    <subregion>Polynesia</subregion>
    <woe-id>23424992</woe-id>
    <region-wb>East Asia &amp; Pacific</region-wb>
    <iso-a3>WSM</iso-a3>
    <iso-a2>WS</iso-a2>
    <region-un>Oceania</region-un>
    <continent>Oceania</continent>
    <hc-middle-x>0.21</hc-middle-x>
    <hc-middle-y>0.24</hc-middle-y>
    <hc-key>ws</hc-key>
    <hc-a2>WS</hc-a2>
  </desc>
</path>

<path fill="#CEE3F5" stroke="#6E6E6E" stroke-width="0.4" id="PW" d="M273.3,46.1 L272.7,48.0 L271.8,47.1 L272.6,45.8 Z">
  <desc xmlns="http://www.highcharts.com/svg/namespace">
    <name>Palau</name>
    <labelrank>6</labelrank>
    <country-abbrev>Palau</country-abbrev>
    <subregion>Micronesia</subregion>
    <woe-id>23424927</woe-id>
    <region-wb>East Asia &amp; Pacific</region-wb>
    <iso-a3>PLW</iso-a3>
    <iso-a2>PW</iso-a2>
    <region-un>Oceania</region-un>
    <continent>Oceania</continent>
    <hc-middle-x>0.44</hc-middle-x>
    <hc-middle-y>0.47</hc-middle-y>
    <hc-key>pw</hc-key>
    <hc-a2>PW</hc-a2>
  </desc>
</path>
</g>

<text x="350" y="714" text-anchor="middle" font-family="Verdana" font-size="8" stroke-opacity="0.6">Copyright (c) 2014 Highsoft AS, Based on data from Natural Earth</text>

</svg>