<?xml version="1.0" encoding="utf-8" standalone="no"?>
<!DOCTYPE svg PUBLIC "-//W3C//DTD SVG 1.1//EN" "http://www.w3.org/Graphics/SVG/1.1/DTD/svg11.dtd">

<svg version="1.1" height="700pt" width="700pt" xmlns="http://www.w3.org/2000/svg" xmlns:xlink="http://www.w3.org/1999/xlink">
<desc>
Map version: 1.1.1
Copyright (c) 2014 Highsoft AS, Based on data from Natural Earth
</desc>
<title>Canada</title>
<g id="admin1">

<g id="CA">
  <desc xmlns="http://www.highcharts.com/svg/namespace">
    <name>Canada</name>
    <labelrank>2</labelrank>
    <country-abbrev>Can.</country-abbrev>
    <subregion>Northern America</subregion>
    <woe-id>23424775</woe-id>
    <region-wb>North America</region-wb>
    <iso-a3>CAN</iso-a3>
    <iso-a2>CA</iso-a2>
    <region-un>Americas</region-un>
    <continent>North America</continent>
    <hc-key>ca</hc-key>
    <hc-a2>CA</hc-a2>
  </desc>
</g>

<path fill="#CEE3F5" stroke="#6E6E6E" stroke-width="0.4" id="CA.5682" d="M626.1,412.7 L625.8,413.3 L625.5,413.3 L625.8,412.8 Z">
  <desc xmlns="http://www.highcharts.com/svg/namespace">
    <labelrank>20</labelrank>
    <hasc>-99</hasc>
    <alt-name>NULL</alt-name>
    <woe-id>-99</woe-id>
    <subregion>NULL</subregion>
    <fips>NULL</fips>
    <postal-code>NULL</postal-code>
    <name>NULL</name>
    <country>Canada</country>
    <type-en>NULL</type-en>
    <region>NULL</region>
    <longitude>-61.4664</longitude>
    <woe-name>NULL</woe-name>
    <latitude>47.7941</latitude>
    <woe-label>NULL</woe-label>
    <type>NULL</type>
    <hc-middle-x>0.52</hc-middle-x>
    <hc-middle-y>0.50</hc-middle-y>
    <hc-key>ca-5682</hc-key>
    <hc-a2>NU</hc-a2>
  </desc>
</path>

<path fill="#CEE3F5" stroke="#6E6E6E" stroke-width="0.4" id="CA.BC" d="M13.1,383.6 L13.8,382.5 L18.2,382.4 L14.3,386.4 L11.4,391.7 L8.5,392.7 L11.6,393.4 L11.8,396.9 L9.4,401.2 L9.2,407.6 L11.0,411.4 L9.1,412.0 L5.7,395.0 L5.0,391.9 L7.1,392.4 L4.7,389.8 L7.1,388.7 L4.3,385.5 L5.1,381.7 L8.4,376.9 L13.2,380.6 Z M13.1,383.6 L12.6,384.3 L12.6,384.3 L12.6,384.3 L8.9,384.9 L11.0,386.8 L12.6,384.3 L12.6,384.3 L12.6,384.3 L13.1,384.2 Z M34.1,422.1 L32.1,430.8 L30.5,429.7 L32.3,426.9 Z M40.6,422.0 L34.7,424.3 L37.5,420.8 L42.5,420.2 Z M22.2,395.0 L23.9,393.2 L27.2,398.5 L26.4,401.5 L23.2,394.3 Z M26.6,393.3 L27.8,390.7 L31.2,400.9 L28.4,400.5 Z M26.2,383.0 L25.4,387.9 L27.7,388.2 L24.0,390.8 Z M105.7,329.5 L131.4,337.7 L107.6,421.1 L107.9,427.8 L111.1,431.9 L115.0,434.1 L117.2,441.1 L116.9,445.6 L118.9,444.4 L121.3,450.2 L123.8,450.3 L125.5,457.2 L128.0,456.5 L134.1,471.8 L140.4,480.4 L140.1,488.7 L138.5,491.3 L143.1,500.8 L60.7,479.3 L60.9,471.9 L58.4,472.5 L55.1,467.7 L57.7,465.3 L50.8,463.5 L51.8,459.3 L48.8,459.5 L50.9,455.9 L48.4,451.3 L45.4,451.7 L37.6,447.3 L41.0,442.0 L35.7,442.1 L32.5,438.0 L31.6,434.1 L34.9,424.8 L43.5,422.4 L42.4,419.6 L36.4,420.9 L36.2,416.2 L38.1,410.7 L33.1,417.0 L36.1,406.5 L32.6,402.2 L34.1,398.1 L37.0,398.0 L40.5,394.6 L33.6,397.8 L31.4,400.5 L28.7,390.7 L28.1,384.8 L30.0,379.4 L37.6,374.1 L41.4,362.8 L33.9,351.6 L31.9,346.5 L33.5,344.6 L33.2,322.6 L31.0,311.1 L29.0,304.1 L30.4,302.9 L29.2,298.2 L22.4,297.6 L17.6,301.9 L10.8,301.9 L12.1,297.2 L8.9,282.6 L9.0,282.7 Z M32.7,415.8 L30.1,417.4 L33.2,408.8 L28.8,413.9 L28.2,407.3 L29.5,410.0 L31.0,404.9 L32.1,402.1 L35.5,405.9 Z M58.0,480.3 L56.3,485.1 L53.4,487.1 L44.6,480.0 L41.1,475.3 L45.2,473.4 L40.3,473.3 L34.4,465.4 L33.5,458.0 L31.2,458.7 L28.6,449.0 L26.5,447.0 L23.8,437.9 L29.0,438.3 L31.3,442.2 L38.6,448.6 L49.2,454.0 L46.8,460.2 L49.0,468.8 L55.1,474.2 Z">
  <desc xmlns="http://www.highcharts.com/svg/namespace">
    <labelrank>2</labelrank>
    <hasc>CA.BC</hasc>
    <alt-name>Colombie britannique|New Caledonia</alt-name>
    <woe-id>2344916</woe-id>
    <subregion>British Columbia</subregion>
    <fips>CA02</fips>
    <postal-code>BC</postal-code>
    <name>British Columbia</name>
    <country>Canada</country>
    <type-en>Province</type-en>
    <region>Western Canada</region>
    <longitude>-124.662</longitude>
    <woe-name>British Columbia</woe-name>
    <latitude>54.6943</latitude>
    <woe-label>British Columbia, CA, Canada</woe-label>
    <type>Province</type>
    <hc-middle-x>0.51</hc-middle-x>
    <hc-middle-y>0.50</hc-middle-y>
    <hc-key>ca-bc</hc-key>
    <hc-a2>BC</hc-a2>
  </desc>
</path>

<path fill="#CEE3F5" stroke="#6E6E6E" stroke-width="0.4" id="CA.NU" d="M429.3,424.7 L431.9,424.3 L435.8,426.8 L437.5,429.9 L425.0,429.1 L425.8,426.5 Z M409.8,334.1 L410.7,338.7 L410.2,341.2 L408.5,338.9 Z M482.5,288.6 L484.9,289.3 L485.2,291.9 L482.6,293.9 Z M491.8,263.8 L494.4,263.9 L496.2,268.3 L490.5,267.4 Z M402.3,297.3 L404.9,302.2 L404.1,308.6 L400.5,307.0 L398.6,302.2 L399.8,297.7 Z M487.0,253.6 L489.6,252.3 L489.8,255.0 L487.6,255.5 Z M451.5,269.1 L456.6,270.5 L453.6,272.6 L448.8,269.8 Z M403.2,280.2 L407.8,279.3 L409.8,282.4 L408.0,284.6 L403.0,281.9 Z M409.7,275.1 L414.3,276.3 L412.1,278.1 L408.6,276.7 Z M353.9,257.8 L358.3,262.7 L357.8,264.0 L354.8,261.8 Z M363.4,258.6 L360.2,260.3 L359.8,258.3 L357.0,255.7 Z M401.0,210.9 L405.9,210.4 L407.0,212.9 L402.1,215.1 L398.8,212.1 Z M340.5,233.5 L340.0,236.6 L336.9,232.4 L337.6,228.7 L339.4,229.7 Z M376.7,216.5 L375.6,216.9 L375.8,214.2 L377.7,212.1 Z M395.3,206.0 L397.0,208.8 L393.0,207.5 L392.7,204.5 Z M258.6,230.9 L258.2,234.0 L255.7,232.3 L257.4,230.4 Z M266.8,228.0 L266.0,231.8 L264.6,230.7 L264.5,227.9 Z M373.9,201.7 L374.7,203.9 L374.4,208.7 L371.5,209.6 Z M380.4,198.8 L382.4,198.4 L380.8,202.8 L379.1,199.3 Z M289.1,217.7 L290.7,218.8 L289.3,221.9 L288.9,218.5 Z M374.7,196.9 L373.1,200.5 L371.4,200.9 L373.6,196.3 Z M365.8,204.4 L361.5,200.5 L366.1,197.9 L368.2,198.9 L365.9,201.3 Z M330.3,203.8 L333.2,204.6 L330.3,205.7 L328.5,204.4 Z M279.9,167.7 L280.8,168.6 L279.3,170.5 L278.3,168.4 Z M251.3,136.6 L251.9,138.2 L249.4,140.5 L246.9,138.8 L247.9,135.6 L250.0,134.4 Z M278.8,130.5 L280.3,131.7 L277.0,135.0 L276.1,133.0 Z M257.6,126.6 L255.2,129.7 L253.0,129.8 L254.1,127.5 Z M285.8,128.1 L284.6,128.5 L283.4,125.8 L284.7,124.8 Z M338.1,110.4 L338.4,112.7 L339.9,114.1 L337.0,115.0 Z M263.6,115.5 L260.2,117.8 L259.0,117.4 L261.5,115.2 Z M300.3,114.6 L299.2,115.4 L296.9,112.3 L298.5,110.1 L299.7,111.2 Z M261.4,100.1 L258.7,101.1 L256.6,100.3 L256.7,98.0 L259.1,98.0 Z M270.9,154.9 L275.3,154.0 L273.4,157.0 L270.2,158.2 L268.1,156.8 Z M250.8,126.9 L256.7,125.2 L256.6,126.0 L251.8,127.7 Z M249.7,122.9 L255.4,121.5 L255.6,122.1 L254.9,125.0 L251.4,125.6 L249.5,124.9 Z M248.8,117.0 L251.3,116.8 L254.2,119.2 L253.2,121.2 L249.6,121.2 Z M292.7,99.3 L295.4,98.7 L297.8,100.9 L298.3,102.8 L297.2,104.9 L293.1,102.5 Z M246.8,100.2 L248.3,103.0 L248.1,104.8 L250.0,106.5 L248.8,109.4 L246.3,106.4 L245.0,99.8 Z M262.9,65.4 L264.9,64.1 L265.7,63.7 L266.9,66.2 L266.9,70.7 L264.6,67.4 L263.3,67.7 Z M285.6,102.7 L277.5,103.3 L276.3,101.7 L277.4,99.1 L278.8,98.2 L284.6,98.0 L286.0,98.7 Z M307.8,352.9 L257.0,355.4 L257.0,355.4 L257.2,295.7 L213.8,284.9 L211.8,282.9 L206.2,274.1 L195.7,272.5 L159.1,227.8 L165.2,206.3 L166.6,208.9 L173.8,213.6 L176.1,217.2 L185.8,222.7 L184.5,220.3 L186.5,220.0 L190.7,222.7 L195.2,230.5 L194.2,232.5 L189.4,231.1 L187.9,234.7 L185.4,235.4 L187.2,237.6 L197.9,241.5 L201.9,241.2 L208.8,241.9 L214.5,238.5 L215.8,243.5 L219.3,243.9 L220.0,249.2 L220.9,245.9 L224.5,250.7 L224.8,254.1 L223.1,256.6 L226.0,260.7 L225.1,254.6 L227.1,257.6 L227.0,247.8 L225.0,244.9 L226.2,239.3 L232.1,239.6 L234.0,236.2 L237.8,235.5 L238.5,232.4 L233.8,233.7 L230.3,237.1 L228.3,235.8 L227.5,238.4 L223.8,238.2 L221.5,236.2 L224.8,231.6 L230.0,230.9 L235.5,228.4 L239.5,231.3 L238.9,235.7 L241.1,237.8 L243.5,233.5 L242.2,238.5 L244.2,241.3 L249.2,241.0 L255.8,246.1 L257.5,245.1 L260.0,246.7 L264.3,244.3 L271.3,244.9 L272.4,245.9 L277.0,244.4 L275.0,242.4 L275.7,240.5 L278.5,245.0 L281.4,245.8 L283.7,244.4 L280.4,241.1 L278.6,242.8 L274.7,236.5 L279.9,236.2 L278.5,233.8 L282.3,234.6 L283.5,237.5 L286.6,237.9 L285.2,240.8 L289.7,236.5 L287.6,248.5 L289.8,248.8 L289.0,251.6 L291.7,249.5 L294.8,256.0 L294.9,250.5 L291.5,244.7 L292.3,239.5 L295.5,239.8 L298.4,234.5 L302.2,230.3 L300.5,230.9 L300.8,227.2 L298.9,225.5 L298.3,229.0 L295.6,229.4 L295.4,226.3 L297.6,224.7 L296.7,220.9 L300.1,219.0 L299.8,217.7 L296.1,219.3 L294.2,216.1 L293.1,217.9 L286.2,214.3 L283.9,208.0 L285.3,203.4 L283.1,200.7 L283.9,196.6 L283.3,193.9 L285.3,192.0 L287.0,193.6 L287.6,190.8 L285.3,190.0 L288.0,184.0 L290.6,183.1 L288.3,183.7 L287.3,175.7 L284.7,171.4 L284.8,166.6 L283.5,159.7 L285.3,157.8 L285.0,154.2 L291.0,151.1 L294.5,151.3 L296.9,153.0 L299.6,152.0 L305.4,152.9 L302.2,163.7 L301.0,169.2 L299.1,171.5 L294.6,170.9 L291.4,171.6 L294.9,175.7 L292.8,182.4 L290.9,182.9 L292.1,187.7 L292.8,185.8 L299.1,191.3 L300.3,199.0 L303.1,200.8 L306.2,206.3 L303.8,209.3 L306.7,209.6 L302.9,214.8 L305.9,214.9 L308.6,217.1 L309.3,211.9 L310.6,215.8 L316.6,216.6 L314.7,217.7 L315.9,219.6 L311.7,219.4 L316.8,224.7 L317.0,230.9 L319.3,233.4 L321.1,227.2 L320.3,221.6 L321.4,218.4 L323.4,218.2 L329.3,223.2 L331.9,229.6 L328.9,231.1 L331.1,237.9 L337.4,244.3 L341.6,241.4 L340.5,237.1 L342.5,231.2 L341.4,221.6 L345.8,220.4 L343.7,219.5 L346.0,216.0 L341.4,214.6 L338.8,208.6 L339.2,205.6 L343.9,204.2 L347.6,205.5 L352.4,204.4 L356.6,208.9 L361.8,210.4 L359.9,213.7 L363.3,214.7 L363.8,216.6 L360.9,220.5 L358.4,220.5 L360.3,224.6 L362.2,224.7 L362.8,227.9 L369.1,232.5 L369.6,239.3 L367.4,240.3 L365.4,247.0 L363.4,247.8 L362.9,251.0 L354.6,245.3 L351.9,245.2 L356.8,247.7 L361.0,253.8 L355.3,253.1 L357.3,254.8 L352.0,254.8 L350.2,251.1 L345.3,252.6 L343.1,254.9 L349.2,257.3 L346.9,261.6 L347.1,264.1 L343.2,270.9 L340.1,271.5 L328.2,265.0 L326.4,266.1 L320.4,266.6 L327.1,267.4 L333.6,272.9 L345.5,271.7 L346.4,272.9 L343.1,287.4 L337.3,292.1 L332.0,288.7 L332.6,292.8 L330.7,298.2 L328.7,297.6 L328.4,300.9 L325.1,298.7 L320.9,298.3 L324.1,301.1 L328.0,301.7 L329.6,306.1 L325.7,310.6 L320.6,310.3 L318.7,311.8 L322.3,315.0 L317.7,316.6 L318.1,319.2 L315.9,320.9 L316.6,325.8 L311.1,331.8 L312.3,333.5 L309.6,340.5 L307.8,352.9 L307.8,352.9 Z M222.8,175.8 L223.6,176.0 L222.8,175.3 L222.9,174.9 L223.8,175.3 L223.1,173.4 L223.2,172.2 L224.1,172.0 L223.3,171.5 L223.7,168.2 L228.9,174.9 L228.5,177.9 L229.9,184.0 L229.3,186.1 L231.6,188.7 L234.0,185.0 L232.0,181.4 L231.6,175.9 L231.8,165.9 L232.4,163.8 L236.0,166.4 L237.4,164.8 L241.4,169.5 L243.2,172.8 L243.2,177.7 L244.2,182.7 L246.8,190.2 L247.1,193.7 L245.3,197.1 L248.2,202.6 L252.1,206.1 L253.5,206.1 L259.9,211.9 L262.5,211.2 L263.1,216.3 L261.1,219.5 L260.1,215.0 L259.2,218.6 L256.8,215.9 L254.6,217.2 L253.6,220.1 L250.4,217.6 L250.0,218.9 L253.3,222.3 L257.2,220.9 L256.6,222.8 L258.7,225.6 L257.7,228.3 L250.0,230.8 L244.9,228.4 L244.1,229.5 L240.7,228.0 L242.6,226.8 L235.1,224.3 L235.8,221.3 L234.5,219.8 L230.2,226.3 L223.9,226.8 L221.5,229.5 L217.9,230.5 L202.3,230.2 L198.5,228.4 L197.5,225.1 L198.3,219.6 L195.1,217.6 L191.0,217.4 L187.3,215.8 L184.6,212.8 L184.1,210.0 L183.9,204.7 L204.3,208.9 L204.0,211.3 L206.2,209.2 L218.4,211.0 Z M229.1,125.6 L231.9,123.1 L229.7,121.0 L230.2,117.2 L233.6,112.5 L235.0,112.1 L234.8,115.4 L236.5,120.9 L234.7,124.3 L237.0,124.2 L236.6,126.6 L239.7,127.1 L241.5,124.6 L244.4,125.9 L245.5,130.8 L244.0,133.2 L244.2,135.3 L242.6,139.6 L236.8,140.8 L236.3,139.2 L233.3,140.9 L232.0,138.5 L228.8,141.2 L227.2,141.1 L228.4,131.0 L232.4,132.3 L232.1,128.4 L229.0,126.1 Z M233.2,93.2 L234.4,94.0 L232.9,95.7 Z M234.3,84.4 L236.1,88.1 L235.4,90.3 L233.6,89.8 L234.3,84.7 Z M505.6,278.6 L505.7,279.2 L502.6,278.7 L505.9,278.2 Z M483.1,252.3 L472.6,253.7 L462.8,250.1 L465.3,252.8 L456.9,251.3 L455.7,252.6 L463.4,256.4 L468.5,256.7 L479.4,260.1 L485.7,265.6 L484.1,267.0 L476.0,267.1 L468.3,269.7 L459.6,267.9 L460.1,266.1 L455.2,268.6 L444.0,267.6 L442.7,264.3 L444.1,261.4 L441.6,260.3 L439.2,262.1 L436.2,259.1 L434.5,261.5 L431.2,258.2 L425.8,255.1 L421.6,253.9 L420.1,260.0 L412.5,259.5 L412.0,264.6 L405.6,268.0 L402.1,267.4 L398.7,264.4 L397.5,260.2 L400.9,255.3 L398.9,252.1 L403.3,251.1 L409.4,251.6 L414.0,257.2 L412.7,253.4 L407.8,250.6 L412.2,249.8 L412.0,247.8 L415.0,247.3 L416.9,243.4 L420.4,243.0 L417.9,240.1 L411.1,236.5 L415.0,224.9 L414.4,221.0 L416.2,218.9 L410.8,210.9 L408.4,209.8 L406.3,206.0 L400.7,205.8 L400.1,203.9 L398.4,206.7 L394.5,201.3 L389.9,201.0 L390.1,203.1 L386.3,207.8 L384.4,203.4 L388.9,200.4 L387.5,197.9 L378.5,196.0 L379.1,193.4 L375.3,194.5 L373.5,189.7 L370.1,190.5 L365.4,187.3 L363.9,190.1 L366.9,190.0 L369.8,193.7 L369.4,195.7 L365.9,197.6 L364.2,196.1 L355.0,197.1 L358.1,197.9 L360.7,201.4 L356.3,198.8 L354.4,201.7 L349.4,200.4 L346.7,202.2 L336.0,202.7 L336.5,204.1 L330.3,200.7 L325.5,201.9 L321.2,200.6 L316.4,195.1 L315.4,192.5 L319.8,192.3 L321.5,193.3 L326.1,191.6 L321.9,189.5 L313.7,189.4 L312.5,187.8 L312.6,183.2 L310.8,181.3 L312.5,177.4 L310.6,176.3 L310.8,168.4 L312.1,168.7 L311.3,164.6 L311.8,161.4 L315.6,153.7 L319.4,150.9 L325.9,149.8 L327.0,151.7 L324.0,158.0 L322.9,165.5 L323.5,167.9 L326.2,171.0 L325.9,173.9 L328.7,179.3 L332.5,182.6 L335.2,183.2 L336.2,185.2 L331.5,187.9 L336.6,186.8 L336.9,182.0 L335.4,179.3 L333.0,180.2 L328.5,175.9 L330.5,174.6 L329.9,172.0 L331.9,171.7 L336.5,173.9 L329.1,169.3 L327.7,167.1 L327.1,162.1 L333.2,163.1 L328.5,161.2 L327.7,158.1 L329.2,155.3 L335.1,148.4 L340.3,147.1 L342.3,149.2 L344.0,153.2 L346.3,153.6 L347.4,156.9 L349.9,159.0 L350.4,164.3 L349.3,167.4 L351.5,167.0 L352.7,161.6 L354.4,163.5 L357.4,163.5 L357.7,168.0 L360.1,167.9 L358.0,164.0 L358.0,158.5 L360.5,154.9 L363.4,153.9 L365.0,155.0 L371.6,154.4 L374.2,159.1 L377.9,158.3 L379.3,161.8 L376.6,164.8 L378.7,164.6 L382.4,161.3 L382.3,165.7 L386.2,165.9 L386.1,162.9 L386.5,161.0 L392.2,160.6 L395.7,162.8 L395.6,166.0 L393.0,167.1 L393.3,169.0 L394.1,167.0 L396.7,168.1 L394.3,170.6 L393.5,169.7 L393.8,172.0 L397.3,168.2 L398.1,164.1 L400.4,165.8 L400.1,172.3 L402.1,178.1 L400.4,170.7 L403.3,165.2 L404.6,169.1 L405.4,165.9 L411.8,165.5 L412.8,168.5 L409.4,172.3 L408.2,177.8 L410.0,176.4 L409.2,174.1 L412.9,171.0 L413.6,171.6 L412.3,177.7 L415.7,170.8 L414.9,168.0 L421.1,170.7 L423.2,173.2 L420.0,174.1 L421.2,178.7 L422.3,175.7 L427.4,177.1 L429.0,178.8 L424.6,181.4 L421.4,181.0 L417.5,182.4 L425.4,183.3 L424.5,184.9 L427.0,186.5 L420.4,189.4 L426.4,188.5 L425.5,190.4 L433.5,188.7 L437.5,192.9 L437.8,188.7 L439.7,192.6 L440.6,191.0 L446.6,188.1 L445.9,190.9 L449.8,189.7 L454.5,191.1 L455.6,194.0 L452.1,197.5 L456.2,195.4 L456.6,192.4 L460.5,192.0 L461.4,197.1 L463.0,193.4 L467.5,195.8 L465.1,191.9 L467.7,191.4 L472.6,193.1 L474.3,197.2 L470.4,202.4 L474.9,202.9 L473.0,205.0 L475.3,208.8 L472.0,211.5 L471.0,215.0 L474.6,216.8 L476.1,221.2 L472.6,219.0 L470.7,221.3 L468.2,219.1 L469.4,222.3 L460.5,218.1 L458.5,214.2 L456.4,216.0 L454.8,214.3 L447.2,211.7 L444.7,213.1 L447.5,215.3 L442.8,215.6 L444.9,217.8 L450.1,220.1 L446.5,222.7 L445.0,220.6 L441.4,220.6 L445.8,224.8 L448.6,225.7 L450.1,223.8 L451.7,226.3 L453.8,225.6 L457.0,229.6 L466.7,229.6 L467.6,232.0 L470.9,231.1 L470.1,234.6 L477.4,236.0 L477.4,238.3 L478.5,236.6 L480.6,237.4 L484.4,242.4 L480.0,238.6 L477.4,238.7 L477.4,239.3 L480.6,239.5 L483.4,244.2 L478.3,241.0 L478.2,242.6 L485.5,248.6 L481.4,250.0 Z M376.7,308.9 L374.0,304.6 L376.1,297.5 L377.5,298.3 L383.2,294.8 L385.4,297.7 L380.0,307.5 Z M400.1,219.5 L399.6,222.7 L397.6,225.1 L392.1,227.5 L387.9,222.1 L388.2,213.5 L393.3,210.6 L395.9,210.7 Z M236.9,162.3 L238.9,159.1 L244.8,158.8 L247.4,161.7 L246.9,165.4 L243.6,171.9 L239.0,163.5 Z M430.6,379.4 L432.0,374.2 L434.4,376.7 L435.9,374.3 L437.1,377.8 L433.5,376.6 L432.6,384.0 L430.7,381.2 L428.3,385.1 L430.2,379.0 L428.1,372.8 L426.4,372.3 L428.1,372.0 Z M369.5,283.5 L370.7,286.8 L367.4,289.7 L366.6,294.5 L363.1,298.2 L360.5,297.1 L359.5,292.0 L357.9,290.9 L349.8,294.7 L350.5,289.5 L354.2,286.2 L351.2,279.7 L351.6,274.6 L350.3,269.8 L350.1,262.9 L352.1,260.1 L355.6,263.7 L354.4,265.1 L358.2,268.9 L358.8,264.7 L362.6,267.8 L366.9,267.7 L368.7,269.9 L374.3,270.9 L378.8,273.3 L381.4,276.8 L379.6,280.5 L383.0,278.5 L388.5,278.3 L391.2,279.8 L387.8,286.2 L380.4,285.0 L378.0,285.8 L376.5,282.0 L373.5,283.2 L372.8,279.9 Z M269.8,227.5 L275.8,222.9 L274.6,221.1 L276.3,216.0 L279.9,214.3 L283.2,219.8 L286.8,218.6 L286.2,221.1 L289.2,228.1 L292.5,228.3 L291.1,230.9 L289.6,230.3 L286.2,234.7 L281.2,233.8 L275.5,231.0 L273.0,228.2 L272.0,230.0 Z M364.1,148.2 L365.3,152.0 L360.6,152.9 L357.5,153.8 L354.2,157.3 L350.6,157.1 L347.9,152.1 L345.3,152.2 L343.1,146.2 L344.3,145.0 L348.8,145.6 L353.7,143.3 L358.1,144.0 Z M258.4,180.0 L257.8,177.5 L255.0,175.1 L254.5,172.9 L255.7,169.6 L257.5,169.0 L260.7,174.3 L264.4,174.0 L266.0,170.6 L263.6,168.0 L264.7,165.4 L262.5,166.3 L259.3,163.0 L262.2,161.4 L262.3,158.0 L265.8,158.9 L265.0,156.7 L266.7,156.4 L269.1,159.2 L277.0,157.0 L278.3,160.4 L276.6,161.9 L277.9,163.8 L275.6,165.2 L273.2,169.2 L277.9,170.1 L279.2,172.7 L280.1,170.9 L282.6,177.5 L281.7,180.0 L282.2,186.1 L278.3,189.6 L274.8,189.2 L275.8,191.0 L272.8,194.9 L270.4,193.9 L267.3,186.6 L263.7,182.0 L261.1,179.8 Z M281.7,146.1 L282.8,142.5 L281.3,142.5 L278.7,137.3 L280.8,132.6 L283.9,130.1 L285.8,130.5 L289.7,135.1 L290.7,140.6 L290.4,144.1 L286.1,144.9 L283.6,142.6 L283.1,145.2 Z M258.5,127.6 L260.2,129.4 L258.2,124.9 L260.1,122.4 L257.5,122.9 L258.6,119.4 L261.1,121.1 L261.1,122.6 L265.7,126.8 L263.3,122.7 L264.9,121.5 L261.4,118.6 L263.9,116.5 L266.1,116.6 L267.9,119.2 L268.6,116.7 L273.0,118.5 L272.7,121.0 L273.9,123.4 L273.9,127.7 L272.7,129.5 L274.8,130.4 L273.6,132.1 L272.7,136.2 L274.6,138.2 L272.9,140.2 L266.8,141.2 L264.2,140.7 L262.6,134.5 L265.1,134.1 L265.8,131.2 L259.9,132.0 L255.5,133.6 L255.4,130.9 L257.0,130.3 L256.9,128.1 Z M306.7,126.4 L308.6,128.8 L311.2,126.1 L315.3,128.0 L319.3,123.6 L321.1,123.6 L323.3,119.9 L325.9,120.5 L328.1,118.2 L332.6,117.8 L332.5,119.6 L335.3,118.7 L339.1,120.4 L340.6,124.4 L338.4,127.4 L341.5,126.6 L342.9,128.3 L340.4,131.0 L341.4,132.8 L337.4,135.1 L336.1,137.1 L331.4,137.1 L329.5,133.4 L329.2,137.3 L326.6,139.1 L317.8,141.9 L310.3,143.1 L309.1,137.4 L308.5,141.0 L304.7,143.7 L300.2,141.9 L300.7,139.1 L298.4,143.1 L296.2,141.5 L295.1,136.3 L293.6,135.3 L293.6,130.9 L294.5,129.4 L293.2,125.2 L288.9,118.7 L285.8,120.8 L279.5,119.3 L276.9,115.2 L277.3,113.4 L275.4,110.9 L278.8,109.3 L285.9,110.8 L288.6,114.9 L290.0,115.2 L294.0,113.1 L297.3,114.5 L297.8,115.9 L294.7,116.5 L302.3,117.6 L302.4,119.3 L295.9,120.8 L299.9,121.6 L296.7,122.6 L300.5,123.4 L300.9,122.3 L304.1,124.9 L304.3,127.2 L306.1,130.0 Z M279.8,95.7 L273.5,98.0 L273.8,96.9 L271.2,95.3 L273.9,93.7 L270.9,92.5 L268.9,88.6 L269.4,83.7 L271.5,83.9 L275.5,86.2 L279.9,89.7 L278.4,91.6 L280.1,93.6 Z M253.2,75.6 L255.6,77.6 L256.9,81.0 L259.1,80.0 L261.0,82.2 L260.4,83.9 L262.8,83.7 L265.4,87.2 L264.5,89.6 L267.2,94.9 L267.4,97.7 L264.6,99.5 L262.4,98.3 L260.8,93.2 L257.5,92.0 L255.6,92.7 L255.8,90.6 L250.5,92.0 L248.9,88.4 L250.1,87.3 L253.5,88.6 L253.6,84.3 L251.5,84.3 L252.0,81.3 L249.1,83.6 L250.3,80.8 L247.8,80.5 L248.5,75.8 L249.2,76.4 Z M290.2,54.6 L291.9,59.7 L294.6,60.7 L292.5,58.1 L292.7,55.7 L294.7,55.7 L295.8,59.1 L295.2,61.0 L297.0,60.6 L298.3,62.9 L298.9,67.9 L300.1,66.5 L303.1,66.9 L306.0,70.6 L304.8,73.0 L302.4,75.1 L300.8,81.6 L299.8,81.5 L297.9,77.9 L300.1,83.6 L299.9,88.4 L299.4,85.1 L297.4,83.2 L298.6,85.8 L298.6,89.6 L297.8,89.8 L293.7,83.9 L294.3,86.5 L296.6,90.3 L294.1,88.3 L293.9,91.1 L288.7,90.9 L286.6,89.3 L285.5,86.9 L288.8,85.6 L285.4,84.9 L284.3,85.8 L280.5,80.4 L283.1,77.0 L287.0,76.6 L291.0,74.8 L286.3,76.0 L284.7,74.6 L286.7,73.9 L284.3,72.5 L281.0,75.9 L281.0,73.8 L279.1,74.9 L275.6,74.2 L275.8,71.9 L278.1,70.8 L279.1,68.5 L276.8,70.4 L275.0,70.5 L272.6,67.1 L272.1,63.1 L274.0,64.1 L277.1,64.2 L278.9,62.0 L277.4,61.5 L275.5,63.1 L272.3,61.1 L273.7,59.2 L273.2,57.7 L274.2,55.0 L275.3,54.3 L277.0,55.6 L276.8,53.7 L274.3,52.7 L275.4,48.6 L276.8,49.8 L276.6,47.8 L279.5,47.6 L279.1,45.8 L276.2,45.4 L276.5,43.7 L278.7,43.3 L282.5,46.1 L286.6,54.8 Z M334.5,88.4 L334.0,92.1 L331.8,94.3 L326.5,95.4 L323.2,93.6 L325.2,96.0 L323.4,97.1 L324.2,98.8 L325.7,96.4 L329.5,96.7 L331.2,95.4 L333.2,96.8 L332.9,99.7 L335.8,97.3 L337.3,97.5 L339.4,101.5 L338.1,105.2 L336.6,103.9 L336.1,108.5 L331.1,112.8 L330.8,108.4 L326.6,108.6 L325.9,110.3 L321.0,111.2 L318.6,109.0 L319.1,111.5 L316.8,112.5 L319.1,113.6 L316.2,114.3 L311.9,113.9 L311.0,115.0 L308.4,114.0 L308.0,115.9 L305.1,115.6 L303.4,109.6 L303.4,115.7 L300.3,113.8 L300.0,109.6 L303.3,104.7 L305.6,104.8 L307.3,101.8 L304.6,101.1 L304.3,99.1 L302.1,97.3 L301.6,94.9 L304.3,92.7 L307.7,93.6 L310.1,97.5 L315.0,99.4 L314.2,98.3 L318.0,97.8 L317.5,95.5 L318.4,88.2 L317.3,87.6 L317.1,94.1 L316.0,96.1 L311.2,95.9 L310.9,92.6 L308.9,90.9 L310.3,88.8 L310.1,84.5 L308.8,88.4 L306.7,89.7 L302.7,89.6 L301.7,84.8 L303.0,79.0 L306.5,76.4 L311.1,76.4 L314.4,77.8 L312.5,75.8 L316.5,74.4 L316.5,71.5 L314.3,74.8 L312.8,74.3 L309.1,75.2 L307.4,74.3 L307.7,72.5 L311.1,73.4 L308.0,71.7 L306.7,68.6 L304.5,65.9 L300.0,64.6 L299.7,61.5 L298.2,59.0 L298.2,56.4 L305.1,55.7 L310.9,60.1 L313.5,63.7 L316.2,62.7 L317.9,60.4 L315.2,62.2 L313.3,61.8 L312.0,59.1 L306.3,54.3 L312.6,49.8 L313.1,48.7 L317.5,46.0 L312.8,47.4 L315.3,43.8 L319.5,41.1 L319.1,40.3 L315.9,41.5 L314.2,42.9 L313.3,40.7 L314.4,35.1 L313.3,35.8 L312.3,41.2 L312.6,44.0 L309.8,48.2 L306.1,50.8 L305.2,49.2 L307.1,47.4 L307.0,45.7 L304.4,48.7 L303.2,48.2 L303.8,51.1 L302.5,52.2 L298.2,52.9 L296.4,52.3 L297.5,46.6 L298.6,45.1 L303.8,41.8 L304.4,40.8 L298.0,44.6 L296.5,46.0 L295.0,52.2 L292.8,51.9 L289.1,49.5 L291.1,47.2 L295.1,46.2 L298.6,40.8 L297.4,40.9 L295.1,44.3 L287.6,47.6 L285.9,45.4 L288.0,43.8 L286.5,42.6 L288.4,39.7 L290.4,38.7 L289.2,38.2 L285.1,42.4 L284.1,41.1 L286.4,38.0 L283.8,37.7 L282.5,40.1 L281.1,38.9 L282.7,35.3 L285.2,33.6 L286.4,35.0 L287.1,31.0 L288.4,30.0 L293.7,30.7 L295.8,30.1 L291.0,28.9 L290.5,27.7 L293.3,25.9 L291.8,23.3 L296.5,24.0 L299.9,27.2 L298.2,24.4 L301.8,26.2 L305.8,27.4 L308.3,29.1 L305.9,26.4 L303.3,26.0 L298.3,23.0 L298.2,20.9 L300.2,20.5 L298.2,19.6 L298.2,18.1 L301.2,19.5 L301.7,19.0 L298.6,16.1 L301.1,15.3 L303.9,16.3 L305.0,15.6 L302.0,15.4 L300.6,12.9 L301.9,11.8 L303.1,13.1 L304.9,11.6 L306.6,12.0 L308.8,14.4 L310.5,15.0 L307.4,11.4 L305.4,10.3 L307.3,8.4 L311.1,7.7 L312.7,9.4 L316.0,10.8 L312.6,8.4 L312.8,5.7 L314.9,4.1 L315.8,5.2 L316.3,3.3 L318.2,2.2 L319.2,4.0 L321.6,2.5 L325.1,1.5 L325.6,2.2 L323.7,8.1 L325.6,6.5 L326.9,2.4 L328.1,2.8 L328.2,0.2 L330.0,2.0 L331.1,0.0 L331.7,1.7 L334.8,3.4 L337.2,2.3 L339.0,3.2 L340.4,5.8 L339.6,7.4 L340.2,9.2 L338.9,15.7 L336.7,16.4 L337.3,17.5 L332.7,22.4 L334.5,21.2 L336.3,21.5 L331.8,30.0 L332.9,29.0 L338.2,20.5 L340.0,18.3 L341.1,20.5 L339.8,24.3 L339.9,27.7 L338.6,33.4 L338.4,37.5 L338.9,39.7 L336.8,41.7 L338.5,42.2 L334.8,47.7 L337.8,44.7 L338.7,46.8 L338.6,51.3 L337.2,53.2 L334.2,52.1 L330.8,52.2 L329.6,53.5 L333.6,53.0 L335.7,56.0 L334.1,58.2 L331.2,58.8 L332.0,60.4 L328.3,60.0 L329.8,61.8 L327.4,62.6 L325.4,61.8 L326.6,64.4 L334.3,61.9 L335.4,64.5 L331.3,65.2 L330.2,64.0 L325.1,66.4 L330.6,65.2 L327.4,68.1 L326.2,68.0 L326.5,72.1 L327.2,69.0 L329.5,67.0 L332.3,66.8 L331.2,69.1 L334.2,67.6 L336.7,69.0 L337.3,71.1 L336.1,72.9 L332.9,73.7 L337.7,74.5 L337.3,77.5 L334.2,77.9 L333.6,78.9 L338.0,78.7 L337.8,81.2 L336.6,80.7 L335.4,83.1 L331.2,83.7 Z">
  <desc xmlns="http://www.highcharts.com/svg/namespace">
    <labelrank>2</labelrank>
    <hasc>CA.NU</hasc>
    <alt-name>NULL</alt-name>
    <woe-id>20069920</woe-id>
    <subregion>NULL</subregion>
    <fips>CA10</fips>
    <postal-code>NU</postal-code>
    <name>Nunavut</name>
    <country>Canada</country>
    <type-en>Territory</type-en>
    <region>Northern Canada</region>
    <longitude>-97.1443</longitude>
    <woe-name>Nunavut</woe-name>
    <latitude>64.3853</latitude>
    <woe-label>Nunavut, CA, Canada</woe-label>
    <type>Territoire</type>
    <hc-middle-x>0.36</hc-middle-x>
    <hc-middle-y>0.66</hc-middle-y>
    <hc-key>ca-nu</hc-key>
    <hc-a2>NU</hc-a2>
  </desc>
</path>

<path fill="#CEE3F5" stroke="#6E6E6E" stroke-width="0.4" id="CA.NT" d="M218.4,109.4 L218.2,112.0 L214.3,110.3 L216.1,108.9 Z M219.7,92.4 L221.4,95.8 L219.3,97.0 L217.1,92.7 Z M131.4,337.7 L105.7,329.5 L103.6,318.6 L105.1,314.9 L99.6,315.5 L89.5,311.7 L91.4,302.0 L87.5,297.0 L86.4,289.9 L82.8,288.4 L84.6,283.6 L83.3,277.2 L85.5,274.8 L83.9,270.3 L86.6,269.0 L86.8,264.4 L84.3,260.2 L84.8,253.4 L80.8,252.2 L82.5,250.7 L79.2,245.1 L82.1,242.5 L80.9,239.9 L86.4,235.9 L86.1,231.6 L87.3,229.3 L82.3,228.1 L82.7,222.4 L85.5,219.9 L86.2,213.4 L75.9,207.4 L78.8,202.9 L79.8,197.7 L88.3,183.1 L91.4,188.8 L91.5,182.0 L93.8,179.7 L99.7,179.8 L100.7,181.4 L103.3,178.2 L104.1,182.4 L100.3,184.4 L106.1,184.9 L109.2,182.3 L114.6,183.3 L117.7,181.7 L117.8,184.0 L122.2,181.0 L125.2,183.3 L127.3,181.3 L126.0,185.1 L117.3,186.6 L112.5,185.9 L110.8,187.9 L108.0,187.7 L101.6,191.5 L104.3,193.8 L105.4,190.0 L111.3,189.4 L113.6,187.5 L115.4,191.7 L120.9,187.4 L127.3,187.8 L126.9,190.4 L131.7,187.7 L134.7,184.2 L135.7,179.1 L138.5,186.4 L137.9,193.7 L139.6,199.8 L141.5,202.0 L142.2,199.2 L145.5,196.9 L147.0,193.3 L150.4,192.4 L148.0,198.2 L149.9,198.8 L146.5,203.0 L150.0,204.4 L153.0,203.4 L155.7,199.1 L162.6,202.4 L165.2,206.3 L159.1,227.8 L195.7,272.5 L206.2,274.1 L211.8,282.9 L213.8,284.9 L257.2,295.7 L257.0,355.4 L257.0,355.4 L200.6,351.8 Z M198.7,119.6 L202.7,117.5 L203.3,118.2 L200.4,122.8 L197.1,125.6 L194.7,123.4 Z M222.8,175.3 L221.9,174.2 L222.9,174.9 Z M223.2,172.2 L223.1,173.4 L222.7,172.8 Z M223.3,171.5 L221.4,170.1 L220.8,167.5 L223.7,168.2 Z M229.0,126.1 L228.9,125.8 L229.1,125.6 Z M229.7,121.0 L228.8,117.8 L230.2,117.2 Z M228.4,131.0 L227.2,141.1 L220.1,145.4 L214.5,146.0 L212.1,144.9 L209.8,140.9 L216.9,137.6 L221.6,138.0 L224.4,134.8 L218.9,135.9 L212.7,135.6 L214.1,131.8 L213.2,131.3 L210.9,135.3 L208.7,136.3 L208.3,133.2 L205.9,135.7 L200.0,130.9 L202.1,127.2 L206.3,128.1 L210.6,125.6 L206.3,126.7 L202.4,125.8 L204.3,123.0 L211.6,123.4 L205.3,121.6 L205.8,119.3 L209.6,117.4 L211.2,114.4 L215.7,115.1 L215.8,119.3 L219.4,118.7 L221.1,120.6 L221.0,122.6 L222.9,124.2 L221.2,125.4 L223.8,125.9 L223.8,130.7 Z M233.2,93.2 L232.9,95.7 L230.1,96.3 L230.3,97.9 L232.2,97.9 L231.3,102.0 L224.9,103.8 L221.9,100.2 L222.7,94.6 L226.0,93.5 L231.0,92.9 Z M234.3,84.4 L234.3,84.7 L233.6,89.8 L232.6,90.3 L230.3,88.4 L229.2,90.0 L227.2,88.1 L224.2,89.2 L224.1,87.2 L230.9,83.8 L233.2,83.0 Z M222.8,175.8 L218.4,211.0 L206.2,209.2 L204.0,211.3 L204.3,208.9 L183.9,204.7 L184.1,210.0 L182.5,207.9 L182.4,204.5 L185.1,203.1 L189.8,202.8 L198.9,203.3 L206.3,206.3 L210.9,205.4 L209.0,202.5 L205.7,201.2 L203.1,198.7 L199.9,198.3 L187.0,198.2 L185.1,196.9 L181.8,191.8 L181.6,189.0 L193.1,186.5 L194.9,184.4 L186.6,185.0 L183.6,182.8 L186.8,182.1 L185.3,180.4 L180.8,179.8 L182.0,175.5 L184.4,173.0 L187.1,172.4 L185.8,169.1 L192.7,163.5 L205.6,159.4 L207.5,163.6 L206.3,168.2 L203.3,170.5 L207.1,171.1 L209.3,167.1 L211.1,165.9 L218.1,171.3 L217.4,173.5 L214.6,175.8 L215.2,177.2 L219.9,173.8 Z M182.4,135.9 L186.6,141.4 L190.2,143.4 L190.1,146.5 L191.9,143.7 L194.7,143.5 L197.0,144.8 L198.6,147.4 L202.9,157.4 L197.6,159.5 L184.2,165.6 L182.3,169.4 L178.0,169.8 L175.3,177.1 L173.3,179.7 L169.4,180.2 L168.6,178.6 L165.7,180.8 L160.7,181.9 L159.4,172.0 L155.6,166.7 L152.9,165.6 L158.1,159.4 L159.9,158.8 L161.1,154.4 L163.6,154.7 L162.9,151.9 L166.2,148.0 L170.5,144.1 L169.5,142.4 L169.6,134.8 L178.1,135.9 Z M211.8,97.6 L214.2,102.1 L210.5,104.0 L212.0,106.8 L210.9,107.6 L210.7,110.6 L208.9,112.0 L206.1,112.2 L206.0,114.8 L204.3,115.8 L202.5,113.2 L204.8,108.0 L202.1,108.2 L202.2,110.6 L199.6,111.1 L200.4,113.6 L197.2,116.3 L197.4,112.6 L196.3,113.6 L196.1,117.1 L194.1,119.3 L191.9,118.8 L192.0,113.5 L190.6,117.1 L188.0,114.6 L185.6,115.6 L185.6,110.8 L187.9,108.9 L190.8,109.4 L193.3,106.5 L196.3,105.2 L198.0,102.7 L203.5,98.7 L206.6,99.1 L208.3,101.1 L210.5,100.0 L209.1,98.6 Z">
  <desc xmlns="http://www.highcharts.com/svg/namespace">
    <labelrank>2</labelrank>
    <hasc>CA.NT</hasc>
    <alt-name>Territoires du Nord-Ouest</alt-name>
    <woe-id>2344920</woe-id>
    <subregion>NULL</subregion>
    <fips>CA13</fips>
    <postal-code>NT</postal-code>
    <name>Northwest Territories</name>
    <country>Canada</country>
    <type-en>Territory</type-en>
    <region>Northern Canada</region>
    <longitude>-119.942</longitude>
    <woe-name>Northwest Territories</woe-name>
    <latitude>64.0831</latitude>
    <woe-label>Northwest Territories, CA, Canada</woe-label>
    <type>Territoire</type>
    <hc-middle-x>0.40</hc-middle-x>
    <hc-middle-y>0.74</hc-middle-y>
    <hc-key>ca-nt</hc-key>
    <hc-a2>NT</hc-a2>
  </desc>
</path>

<path fill="#CEE3F5" stroke="#6E6E6E" stroke-width="0.4" id="CA.AB" d="M131.4,337.7 L200.6,351.8 L181.1,506.7 L181.1,506.8 L157.3,503.3 L143.1,500.8 L138.5,491.3 L140.1,488.7 L140.4,480.4 L134.1,471.8 L128.0,456.5 L125.5,457.2 L123.8,450.3 L121.3,450.2 L118.9,444.4 L116.9,445.6 L117.2,441.1 L115.0,434.1 L111.1,431.9 L107.9,427.8 L107.6,421.1 Z">
  <desc xmlns="http://www.highcharts.com/svg/namespace">
    <labelrank>2</labelrank>
    <hasc>CA.AB</hasc>
    <alt-name>NULL</alt-name>
    <woe-id>2344915</woe-id>
    <subregion>Prairies</subregion>
    <fips>CA01</fips>
    <postal-code>AB</postal-code>
    <name>Alberta</name>
    <country>Canada</country>
    <type-en>Province</type-en>
    <region>Western Canada</region>
    <longitude>-115</longitude>
    <woe-name>Alberta</woe-name>
    <latitude>55.2816</latitude>
    <woe-label>Alberta, CA, Canada</woe-label>
    <type>Province</type>
    <hc-middle-x>0.45</hc-middle-x>
    <hc-middle-y>0.50</hc-middle-y>
    <hc-key>ca-ab</hc-key>
    <hc-a2>AB</hc-a2>
  </desc>
</path>

<path fill="#CEE3F5" stroke="#6E6E6E" stroke-width="0.4" id="CA.SK" d="M200.6,351.8 L257.0,355.4 L256.8,414.5 L262.4,511.7 L252.3,511.7 L181.1,506.8 L181.1,506.7 Z">
  <desc xmlns="http://www.highcharts.com/svg/namespace">
    <labelrank>2</labelrank>
    <hasc>CA.SK</hasc>
    <alt-name>NULL</alt-name>
    <woe-id>2344925</woe-id>
    <subregion>Prairies</subregion>
    <fips>CA11</fips>
    <postal-code>SK</postal-code>
    <name>Saskatchewan</name>
    <country>Canada</country>
    <type-en>Province</type-en>
    <region>Western Canada</region>
    <longitude>-105.682</longitude>
    <woe-name>Saskatchewan</woe-name>
    <latitude>54.4965</latitude>
    <woe-label>Saskatchewan, CA, Canada</woe-label>
    <type>Province</type>
    <hc-middle-x>0.55</hc-middle-x>
    <hc-middle-y>0.51</hc-middle-y>
    <hc-key>ca-sk</hc-key>
    <hc-a2>SK</hc-a2>
  </desc>
</path>

<path fill="#CEE3F5" stroke="#6E6E6E" stroke-width="0.4" id="CA.MB" d="M257.0,355.4 L307.8,352.9 L307.8,352.9 L307.8,352.9 L309.3,362.0 L309.2,366.6 L312.4,370.5 L313.9,369.1 L321.7,369.1 L329.8,387.8 L328.4,393.6 L340.5,387.4 L343.9,387.3 L350.3,389.8 L357.3,390.3 L342.2,415.0 L326.1,440.9 L315.5,454.2 L320.3,503.2 L320.7,508.6 L262.4,511.7 L256.8,414.5 L257.0,357.0 Z">
  <desc xmlns="http://www.highcharts.com/svg/namespace">
    <labelrank>2</labelrank>
    <hasc>CA.MB</hasc>
    <alt-name>NULL</alt-name>
    <woe-id>2344917</woe-id>
    <subregion>Prairies</subregion>
    <fips>CA03</fips>
    <postal-code>MB</postal-code>
    <name>Manitoba</name>
    <country>Canada</country>
    <type-en>Province</type-en>
    <region>Western Canada</region>
    <longitude>-97.3828</longitude>
    <woe-name>Manitoba</woe-name>
    <latitude>54.85</latitude>
    <woe-label>Manitoba, CA, Canada</woe-label>
    <type>Province</type>
    <hc-middle-x>0.37</hc-middle-x>
    <hc-middle-y>0.43</hc-middle-y>
    <hc-key>ca-mb</hc-key>
    <hc-a2>MB</hc-a2>
  </desc>
</path>

<path fill="#CEE3F5" stroke="#6E6E6E" stroke-width="0.4" id="CA.ON" d="M455.4,450.0 L452.4,447.5 L453.0,443.2 L453.5,444.6 Z M532.1,508.4 L531.2,510.9 L530.0,512.9 L525.5,517.0 L521.6,525.9 L515.8,530.9 L513.3,536.0 L507.4,537.2 L493.8,545.6 L489.3,554.9 L494.5,555.3 L496.8,553.1 L499.8,557.2 L487.7,563.8 L485.4,568.0 L476.3,569.8 L472.9,576.6 L465.8,582.4 L460.4,583.5 L459.9,580.1 L466.4,577.6 L464.1,575.7 L464.2,567.8 L469.2,560.7 L466.0,551.0 L468.4,542.2 L466.0,537.3 L461.4,534.4 L465.3,533.4 L466.8,536.7 L469.9,536.2 L473.0,539.0 L480.5,540.2 L482.9,534.6 L474.1,528.5 L467.6,522.3 L463.6,523.5 L458.3,522.2 L445.0,525.6 L435.5,525.9 L432.8,523.8 L428.1,524.8 L427.2,519.9 L424.6,519.1 L425.3,514.1 L420.1,510.8 L419.6,505.7 L412.0,507.9 L408.2,505.7 L402.9,498.0 L394.9,499.8 L385.2,498.8 L392.0,500.7 L385.4,503.0 L383.6,501.1 L382.6,508.2 L381.3,505.7 L377.9,508.2 L377.7,513.0 L375.5,515.2 L369.7,514.5 L363.9,515.7 L362.3,514.2 L358.0,517.6 L351.5,514.3 L348.4,516.2 L345.3,512.3 L339.4,511.7 L334.9,513.9 L325.4,510.8 L323.6,504.0 L320.3,503.2 L315.5,454.2 L326.1,440.9 L342.2,415.0 L357.3,390.3 L365.8,394.4 L370.1,399.3 L386.1,402.0 L388.7,403.9 L395.8,404.7 L400.9,402.1 L403.3,402.6 L414.7,401.2 L416.3,404.9 L417.0,413.7 L421.2,418.6 L423.4,425.8 L423.2,430.5 L431.5,435.5 L434.7,439.7 L438.3,440.1 L442.8,443.0 L445.8,447.3 L448.8,447.2 L455.5,450.3 L471.5,495.9 L474.6,502.2 L485.2,509.9 L495.7,508.3 L508.4,512.7 L516.7,512.2 L526.8,503.9 L529.6,503.9 Z M459.0,531.1 L449.5,530.0 L441.3,530.9 L447.4,527.6 L448.5,529.5 L452.7,525.6 L460.1,527.4 Z">
  <desc xmlns="http://www.highcharts.com/svg/namespace">
    <labelrank>2</labelrank>
    <hasc>CA.ON</hasc>
    <alt-name>Upper Canada</alt-name>
    <woe-id>2344922</woe-id>
    <subregion>Ontario</subregion>
    <fips>CA08</fips>
    <postal-code>ON</postal-code>
    <name>Ontario</name>
    <country>Canada</country>
    <type-en>Province</type-en>
    <region>Eastern Canada</region>
    <longitude>-84.79430000000001</longitude>
    <woe-name>Ontario</woe-name>
    <latitude>50.5244</latitude>
    <woe-label>Ontario, CA, Canada</woe-label>
    <type>Province</type>
    <hc-middle-x>0.29</hc-middle-x>
    <hc-middle-y>0.38</hc-middle-y>
    <hc-key>ca-on</hc-key>
    <hc-a2>ON</hc-a2>
  </desc>
</path>

<path fill="#CEE3F5" stroke="#6E6E6E" stroke-width="0.4" id="CA.QC" d="M541.3,327.7 L545.5,325.9 L543.6,328.8 L548.0,334.0 L550.9,332.5 L553.0,339.8 L551.6,345.3 L542.3,345.7 L539.9,351.1 L537.6,349.6 L529.3,349.2 L532.7,355.1 L525.3,354.1 L530.1,356.8 L530.5,360.6 L527.5,363.3 L529.8,368.3 L536.7,372.1 L540.9,372.1 L542.5,376.6 L539.5,378.0 L541.8,380.6 L546.5,381.2 L547.0,374.7 L553.4,383.3 L557.4,384.7 L560.8,382.0 L565.6,384.4 L571.9,383.6 L572.6,380.6 L566.4,368.0 L569.5,364.9 L572.0,365.2 L568.5,370.9 L571.8,371.1 L574.6,374.9 L621.8,340.6 L627.0,347.1 L622.4,349.6 L619.6,354.6 L617.5,362.0 L619.1,364.0 L615.8,377.5 L610.2,380.7 L604.9,387.2 L602.7,386.5 L587.2,395.4 L576.0,402.4 L570.4,408.0 L567.3,408.6 L564.8,417.3 L566.3,424.5 L561.1,428.2 L556.5,439.6 L555.1,450.7 L555.0,460.9 L553.2,462.7 L553.4,467.9 L550.3,475.3 L555.6,468.5 L560.2,446.2 L564.5,437.1 L574.0,423.7 L581.5,416.8 L590.8,413.8 L596.5,415.9 L597.6,421.1 L592.0,431.6 L586.6,431.2 L585.9,433.7 L584.0,435.4 L580.4,438.7 L576.6,442.9 L574.0,442.4 L568.0,446.9 L570.5,451.6 L566.6,458.2 L563.8,457.2 L562.3,470.0 L565.2,484.4 L563.9,493.0 L559.7,494.4 L559.9,498.7 L530.0,512.9 L536.5,503.7 L532.1,508.4 L529.6,503.9 L526.8,503.9 L516.7,512.2 L508.4,512.7 L495.7,508.3 L485.2,509.9 L474.6,502.2 L471.5,495.9 L455.5,450.3 L457.7,451.7 L455.4,450.0 L453.5,444.6 L453.0,443.2 L453.5,440.1 L459.2,444.5 L458.4,439.1 L455.6,437.7 L457.6,431.9 L457.2,428.2 L450.0,420.7 L446.6,414.6 L445.2,407.4 L441.2,406.2 L436.1,401.1 L444.9,392.4 L448.3,387.3 L451.2,380.1 L452.5,373.5 L449.9,363.8 L446.7,357.6 L439.7,349.9 L434.4,347.3 L425.7,344.5 L424.8,341.4 L427.8,334.4 L426.0,329.2 L428.8,326.3 L428.1,323.5 L422.6,319.2 L423.3,317.1 L417.7,314.4 L418.8,310.7 L417.2,305.8 L418.5,304.8 L413.1,300.7 L410.6,295.5 L413.2,290.1 L416.6,289.5 L426.5,289.7 L427.8,288.3 L432.1,289.0 L436.8,281.8 L446.2,285.4 L449.8,285.3 L450.0,287.2 L453.9,286.7 L453.8,290.2 L458.8,292.2 L465.1,290.9 L469.5,291.7 L470.4,287.4 L473.2,290.4 L472.2,295.2 L475.6,298.2 L476.3,302.0 L478.3,302.6 L481.5,309.8 L485.4,314.3 L483.1,317.4 L485.1,319.2 L486.6,313.6 L489.5,311.7 L493.2,311.9 L495.9,314.2 L500.9,313.5 L501.9,317.4 L505.7,308.7 L505.2,303.8 L507.5,303.7 L508.2,298.3 L506.2,296.4 L508.4,294.8 L504.0,290.1 L505.0,285.3 L503.4,279.9 L505.8,279.4 L505.9,279.8 L505.9,279.8 L505.9,279.8 L505.9,279.8 L505.9,279.8 L506.1,280.2 L506.1,280.2 L506.1,280.2 L506.1,280.2 L506.1,280.2 L509.2,289.6 L512.4,288.2 L513.4,291.6 L520.0,296.3 L521.5,293.2 L523.9,294.3 L521.2,296.7 L524.0,298.2 L522.7,304.1 L528.0,307.7 L531.1,307.5 L535.9,317.3 L535.8,320.8 L538.0,323.6 Z M541.3,489.0 L546.2,478.7 L547.6,478.6 L549.9,475.9 L545.8,478.6 L541.7,486.8 L538.7,489.7 L538.5,492.1 Z M594.4,399.0 L602.6,397.3 L609.7,396.9 L613.1,399.0 L609.2,402.2 L596.2,405.4 L591.3,403.7 L586.4,404.6 L587.6,401.4 Z">
  <desc xmlns="http://www.highcharts.com/svg/namespace">
    <labelrank>2</labelrank>
    <hasc>CA.QC</hasc>
    <alt-name>Lower Canada</alt-name>
    <woe-id>2344924</woe-id>
    <subregion>Québec</subregion>
    <fips>CA10</fips>
    <postal-code>QC</postal-code>
    <name>Québec</name>
    <country>Canada</country>
    <type-en>Province</type-en>
    <region>Eastern Canada</region>
    <longitude>-73.71680000000001</longitude>
    <woe-name>Québec</woe-name>
    <latitude>52.2593</latitude>
    <woe-label>Quebec, CA, Canada</woe-label>
    <type>Province</type>
    <hc-middle-x>0.40</hc-middle-x>
    <hc-middle-y>0.40</hc-middle-y>
    <hc-key>ca-qc</hc-key>
    <hc-a2>QC</hc-a2>
  </desc>
</path>

<path fill="#CEE3F5" stroke="#6E6E6E" stroke-width="0.4" id="CA.NL" d="M541.3,327.7 L537.6,323.9 L538.0,323.6 L539.3,322.6 L535.8,320.8 L535.9,317.3 L531.1,307.5 L528.0,307.7 L522.7,304.1 L524.0,298.2 L521.2,296.7 L523.9,294.3 L521.5,293.2 L520.0,296.3 L513.4,291.6 L512.4,288.2 L509.2,289.6 L506.1,280.2 L506.1,280.2 L506.1,280.2 L510.5,281.8 L512.8,285.3 L515.0,285.1 L521.9,289.2 L528.5,292.1 L527.5,296.2 L531.5,292.9 L533.6,297.1 L534.9,296.3 L542.4,300.9 L545.3,300.5 L544.8,305.1 L550.0,303.9 L554.0,309.7 L549.3,309.8 L550.5,312.2 L556.5,310.9 L551.1,313.6 L555.8,312.6 L553.8,316.8 L559.5,313.5 L562.4,317.1 L567.9,314.8 L567.7,316.7 L571.6,318.0 L571.9,325.0 L573.1,319.3 L575.1,317.0 L576.8,319.6 L581.4,315.3 L584.7,318.2 L592.6,314.2 L598.4,313.8 L593.8,320.1 L593.6,325.6 L589.8,332.6 L586.2,336.4 L588.8,343.1 L590.0,338.5 L593.8,331.6 L593.0,328.2 L596.4,322.7 L594.6,321.7 L600.3,318.2 L606.1,321.5 L609.9,317.5 L610.1,319.4 L617.4,317.1 L620.5,320.6 L619.8,323.8 L625.1,326.1 L622.9,329.8 L627.6,327.7 L630.4,331.5 L630.4,334.9 L627.0,347.1 L621.8,340.6 L574.6,374.9 L571.8,371.1 L568.5,370.9 L572.0,365.2 L569.5,364.9 L566.4,368.0 L572.6,380.6 L571.9,383.6 L568.8,382.6 L565.6,384.4 L560.8,382.0 L557.4,384.7 L553.4,383.3 L547.0,374.7 L546.5,381.2 L541.8,380.6 L539.5,378.0 L542.5,376.6 L540.9,372.1 L536.7,372.1 L529.8,368.3 L527.5,363.3 L528.1,360.2 L530.5,360.6 L530.1,356.8 L525.3,354.1 L532.7,355.1 L529.3,349.2 L537.6,349.6 L539.9,351.1 L542.3,345.7 L551.6,345.3 L553.0,339.8 L550.9,332.5 L548.0,334.0 L543.6,328.8 L545.5,325.9 Z M505.9,278.2 L505.9,278.8 L505.7,279.2 L505.6,278.6 Z M506.1,280.2 L505.2,279.9 L505.9,279.8 L505.9,279.8 L505.9,279.8 L506.1,280.2 L506.1,280.2 Z M505.8,279.4 L507.1,279.5 L505.9,279.8 L505.9,279.8 L505.9,279.8 Z M662.7,357.2 L662.7,352.0 L665.0,354.8 L666.2,350.2 L672.6,349.1 L672.0,354.7 L675.9,359.1 L679.2,357.7 L682.1,352.9 L683.0,356.8 L681.6,360.3 L684.5,368.0 L688.3,367.9 L685.7,361.0 L687.6,357.8 L689.6,365.0 L691.9,366.7 L691.3,360.3 L695.2,361.9 L696.2,365.9 L700.0,371.9 L697.2,377.8 L691.8,372.1 L691.7,379.1 L689.8,379.2 L687.2,371.7 L680.5,368.3 L682.2,374.1 L680.0,377.5 L681.6,385.7 L676.5,390.3 L677.8,384.7 L676.3,377.6 L673.2,377.4 L675.1,380.8 L668.1,383.4 L663.9,388.9 L653.3,394.3 L646.3,402.2 L641.3,400.2 L643.5,387.4 L637.2,392.6 L640.5,387.8 L637.9,380.1 L641.8,379.9 L636.8,375.4 L636.3,371.0 L632.0,356.5 L632.7,351.6 L630.6,346.0 L634.0,337.6 L637.2,335.7 L638.3,339.9 L634.7,341.4 L641.3,343.7 L639.6,343.2 L642.1,360.5 L645.6,366.3 L645.1,355.6 L651.9,354.3 L649.9,360.1 L653.0,360.9 L658.7,358.5 L660.1,360.7 Z">
  <desc xmlns="http://www.highcharts.com/svg/namespace">
    <labelrank>2</labelrank>
    <hasc>CA.NF</hasc>
    <alt-name>Newfoundland|Terre-Neuve|Terre-Neuve-et-Labrador</alt-name>
    <woe-id>2344919</woe-id>
    <subregion>Atlantic Canada</subregion>
    <fips>CA05</fips>
    <postal-code>NL</postal-code>
    <name>Newfoundland and Labrador</name>
    <country>Canada</country>
    <type-en>Province</type-en>
    <region>Eastern Canada</region>
    <longitude>-56.2169</longitude>
    <woe-name>Newfoundland and Labrador</woe-name>
    <latitude>48.6598</latitude>
    <woe-label>Newfoundland and Labrador, CA, Canada</woe-label>
    <type>Province</type>
    <hc-middle-x>0.30</hc-middle-x>
    <hc-middle-y>0.59</hc-middle-y>
    <hc-key>ca-nl</hc-key>
    <hc-a2>NL</hc-a2>
  </desc>
</path>

<path fill="#CEE3F5" stroke="#6E6E6E" stroke-width="0.4" id="CA.NB" d="M584.0,435.4 L589.6,434.7 L592.9,436.7 L595.3,432.7 L600.1,430.3 L600.7,439.8 L604.0,439.6 L604.9,442.5 L613.2,448.4 L620.5,445.8 L619.1,448.8 L618.4,449.8 L618.4,452.0 L615.7,452.6 L615.9,457.2 L609.0,468.5 L601.5,475.6 L596.6,476.6 L593.3,472.4 L588.1,471.2 L579.2,455.4 L573.7,453.4 L568.6,458.7 L566.6,458.2 L570.5,451.6 L568.0,446.9 L574.0,442.4 L576.6,442.9 L580.4,438.7 L583.6,435.5 Z">
  <desc xmlns="http://www.highcharts.com/svg/namespace">
    <labelrank>2</labelrank>
    <hasc>CA.NB</hasc>
    <alt-name>Nouveau-Brunswick|Acadia</alt-name>
    <woe-id>2344918</woe-id>
    <subregion>Atlantic Canada</subregion>
    <fips>CA04</fips>
    <postal-code>NB</postal-code>
    <name>New Brunswick</name>
    <country>Canada</country>
    <type-en>Province</type-en>
    <region>Eastern Canada</region>
    <longitude>-66.4558</longitude>
    <woe-name>New Brunswick</woe-name>
    <latitude>46.5822</latitude>
    <woe-label>New Brunswick, CA, Canada</woe-label>
    <type>Province</type>
    <hc-middle-x>0.58</hc-middle-x>
    <hc-middle-y>0.50</hc-middle-y>
    <hc-key>ca-nb</hc-key>
    <hc-a2>NB</hc-a2>
  </desc>
</path>

<path fill="#CEE3F5" stroke="#6E6E6E" stroke-width="0.4" id="CA.NS" d="M618.4,452.0 L618.4,449.8 L619.1,448.8 L628.5,445.8 L635.5,444.6 L637.8,438.2 L639.6,440.2 L643.3,438.0 L645.1,438.4 L639.7,434.2 L639.0,417.0 L640.9,415.9 L644.6,420.4 L646.4,432.7 L649.3,433.5 L649.4,428.0 L646.7,430.7 L647.6,423.4 L652.8,422.4 L654.4,424.1 L652.5,432.1 L649.2,437.1 L645.7,438.5 L650.1,439.4 L650.1,441.5 L645.6,445.5 L644.2,449.9 L638.1,459.3 L633.6,462.5 L635.4,464.6 L628.1,467.7 L629.9,471.2 L629.1,479.8 L623.6,488.7 L619.5,485.9 L618.2,488.0 L614.8,484.2 L613.0,476.9 L618.7,463.8 L621.8,458.7 L623.3,461.4 L627.7,453.6 L616.1,460.4 Z">
  <desc xmlns="http://www.highcharts.com/svg/namespace">
    <labelrank>2</labelrank>
    <hasc>CA.NS</hasc>
    <alt-name>Acadia|Nouvelle-Écosse</alt-name>
    <woe-id>2344921</woe-id>
    <subregion>Atlantic Canada</subregion>
    <fips>CA07</fips>
    <postal-code>NS</postal-code>
    <name>Nova Scotia</name>
    <country>Canada</country>
    <type-en>Province</type-en>
    <region>Eastern Canada</region>
    <longitude>-62.8113</longitude>
    <woe-name>Nova Scotia</woe-name>
    <latitude>45.2293</latitude>
    <woe-label>Nova Scotia, CA, Canada</woe-label>
    <type>Province</type>
    <hc-middle-x>0.25</hc-middle-x>
    <hc-middle-y>0.84</hc-middle-y>
    <hc-key>ca-ns</hc-key>
    <hc-a2>NS</hc-a2>
  </desc>
</path>

<path fill="#CEE3F5" stroke="#6E6E6E" stroke-width="0.4" id="CA.PE" d="M626.8,440.3 L620.8,443.7 L618.5,442.2 L615.2,444.2 L610.6,442.4 L611.1,435.5 L612.5,439.5 L618.4,441.3 L622.6,439.4 L632.7,431.7 L630.3,435.0 L631.9,440.7 L629.3,442.4 Z">
  <desc xmlns="http://www.highcharts.com/svg/namespace">
    <labelrank>2</labelrank>
    <hasc>CA.PE</hasc>
    <alt-name>Île de Saint-Jean|Île du Prince-Édouard</alt-name>
    <woe-id>2344923</woe-id>
    <subregion>Atlantic Canada</subregion>
    <fips>CA09</fips>
    <postal-code>PE</postal-code>
    <name>Prince Edward Island</name>
    <country>Canada</country>
    <type-en>Province</type-en>
    <region>Eastern Canada</region>
    <longitude>-63.3862</longitude>
    <woe-name>Prince Edward Island</woe-name>
    <latitude>46.3417</latitude>
    <woe-label>Prince Edward Island, CA, Canada</woe-label>
    <type>Province</type>
    <hc-middle-x>0.76</hc-middle-x>
    <hc-middle-y>0.48</hc-middle-y>
    <hc-key>ca-pe</hc-key>
    <hc-a2>PE</hc-a2>
  </desc>
</path>

<path fill="#CEE3F5" stroke="#6E6E6E" stroke-width="0.4" id="CA.YT" d="M105.7,329.5 L9.0,282.7 L8.9,282.6 L11.3,278.3 L8.1,276.5 L4.7,276.7 L0.0,271.3 L74.3,161.8 L78.6,165.2 L81.0,168.6 L82.7,175.9 L85.2,180.7 L88.3,183.1 L79.8,197.7 L78.8,202.9 L75.9,207.4 L86.2,213.4 L85.5,219.9 L82.7,222.4 L82.3,228.1 L87.3,229.3 L86.1,231.6 L86.4,235.9 L80.9,239.9 L82.1,242.5 L79.2,245.1 L82.5,250.7 L80.8,252.2 L84.8,253.4 L84.3,260.2 L86.8,264.4 L86.6,269.0 L83.9,270.3 L85.5,274.8 L83.3,277.2 L84.6,283.6 L82.8,288.4 L86.4,289.9 L87.5,297.0 L91.4,302.0 L89.5,311.7 L99.6,315.5 L105.1,314.9 L103.6,318.6 Z">
  <desc xmlns="http://www.highcharts.com/svg/namespace">
    <labelrank>2</labelrank>
    <hasc>CA.YT</hasc>
    <alt-name>Yukon Territory|Territoire du Yukon|Yukon|Yuk¢n</alt-name>
    <woe-id>2344926</woe-id>
    <subregion>NULL</subregion>
    <fips>CA12</fips>
    <postal-code>YT</postal-code>
    <name>Yukon</name>
    <country>Canada</country>
    <type-en>Territory</type-en>
    <region>Northern Canada</region>
    <longitude>-135.7</longitude>
    <woe-name>Yukon</woe-name>
    <latitude>63.6088</latitude>
    <woe-label>Yukon Territory, CA, Canada</woe-label>
    <type>Territoire</type>
    <hc-middle-x>0.47</hc-middle-x>
    <hc-middle-y>0.52</hc-middle-y>
    <hc-key>ca-yt</hc-key>
    <hc-a2>YT</hc-a2>
  </desc>
</path>
</g>

<text x="350" y="714" text-anchor="middle" font-family="Verdana" font-size="8" stroke-opacity="0.6">Copyright (c) 2014 Highsoft AS, Based on data from Natural Earth</text>

</svg>