<?xml version="1.0" encoding="utf-8" standalone="no"?>
<!DOCTYPE svg PUBLIC "-//W3C//DTD SVG 1.1//EN" "http://www.w3.org/Graphics/SVG/1.1/DTD/svg11.dtd">

<svg version="1.1" height="700pt" width="700pt" xmlns="http://www.w3.org/2000/svg" xmlns:xlink="http://www.w3.org/1999/xlink">
<desc>
Map version: 1.1.1
Copyright (c) 2014 Highsoft AS, Based on data from Natural Earth
</desc>
<title>South Africa</title>
<g id="admin1">

<g id="ZA">
  <desc xmlns="http://www.highcharts.com/svg/namespace">
    <name>South Africa</name>
    <labelrank>2</labelrank>
    <country-abbrev>S.Af.</country-abbrev>
    <subregion>Southern Africa</subregion>
    <woe-id>23424942</woe-id>
    <region-wb>Sub-Saharan Africa</region-wb>
    <iso-a3>ZAF</iso-a3>
    <iso-a2>ZA</iso-a2>
    <region-un>Africa</region-un>
    <continent>Africa</continent>
    <hc-key>za</hc-key>
    <hc-a2>SA</hc-a2>
  </desc>
</g>

<path fill="#CEE3F5" stroke="#6E6E6E" stroke-width="0.4" id="ZA.EC" d="M559.1,380.9 L564.2,380.9 L566.0,384.5 L575.7,397.6 L572.8,398.1 L571.5,402.9 L569.0,404.6 L561.9,401.1 L555.7,401.2 L552.3,393.9 L550.7,387.9 L548.3,385.4 L550.8,376.8 Z M462.2,390.8 L465.6,391.0 L471.3,399.4 L477.3,404.7 L482.6,405.1 L491.2,407.6 L493.9,400.1 L493.6,397.4 L497.1,394.7 L497.1,388.9 L503.3,383.8 L510.0,381.8 L514.8,382.6 L524.0,379.6 L530.6,375.5 L534.7,380.4 L533.0,384.4 L523.8,391.9 L521.0,390.6 L519.6,398.8 L523.9,403.3 L527.8,404.1 L529.8,400.6 L533.7,405.0 L542.7,408.2 L549.2,406.7 L554.3,410.1 L562.2,411.2 L569.5,417.3 L573.2,418.7 L578.4,429.4 L570.4,439.5 L564.3,445.0 L561.0,446.0 L550.8,455.5 L545.4,457.3 L544.5,460.1 L534.3,471.1 L532.1,475.1 L522.7,486.1 L512.2,495.1 L509.4,499.1 L495.5,509.1 L493.3,509.8 L490.8,514.5 L482.7,521.7 L476.1,525.0 L471.1,529.9 L465.3,532.8 L464.0,535.1 L452.2,542.6 L450.5,544.8 L443.2,547.5 L427.1,555.9 L417.9,556.5 L410.1,554.2 L404.6,553.9 L397.8,555.6 L393.6,558.1 L391.3,565.4 L394.8,568.9 L390.5,570.3 L383.0,569.7 L377.7,567.3 L370.6,566.4 L364.7,567.7 L360.4,574.9 L361.1,577.5 L346.0,576.4 L342.0,574.0 L333.2,571.8 L326.1,571.3 L312.2,568.9 L313.9,563.6 L308.1,560.2 L300.9,559.7 L303.7,556.3 L310.8,552.7 L308.4,545.7 L303.2,542.8 L296.1,541.5 L286.7,541.4 L275.5,542.4 L275.2,538.9 L281.6,527.4 L281.5,523.5 L284.6,517.4 L292.4,513.2 L297.7,513.0 L299.4,511.1 L295.5,506.4 L293.6,494.7 L296.9,491.3 L308.1,489.5 L314.3,483.1 L319.5,484.5 L327.7,479.3 L328.9,473.4 L331.3,470.9 L328.9,467.9 L329.6,463.2 L329.9,461.6 L344.0,458.7 L344.4,451.4 L346.1,444.1 L354.6,443.3 L362.8,438.1 L372.9,434.0 L378.5,435.2 L382.4,428.8 L384.8,421.0 L385.3,414.7 L383.7,412.5 L383.0,405.6 L388.9,405.2 L393.7,408.7 L398.4,405.7 L400.5,402.0 L402.5,403.2 L411.1,399.2 L416.6,403.7 L423.3,402.7 L427.2,407.1 L434.2,408.2 L437.4,406.6 L440.4,408.3 L447.5,404.1 L446.4,401.6 L458.9,399.2 L460.0,394.6 L462.7,394.4 Z">
  <desc xmlns="http://www.highcharts.com/svg/namespace">
    <labelrank>2</labelrank>
    <hasc>ZA.EC</hasc>
    <alt-name>Oos-Kaap</alt-name>
    <woe-id>2346979</woe-id>
    <subregion>NULL</subregion>
    <fips>SF01</fips>
    <postal-code>EC</postal-code>
    <name>Eastern Cape</name>
    <country>South Africa</country>
    <type-en>Province</type-en>
    <region>NULL</region>
    <longitude>26.6417</longitude>
    <woe-name>Eastern Cape</woe-name>
    <latitude>-32.0622</latitude>
    <woe-label>Eastern Cape, ZA, South Africa</woe-label>
    <type>Provinsie</type>
    <hc-middle-x>0.50</hc-middle-x>
    <hc-middle-y>0.53</hc-middle-y>
    <hc-key>za-ec</hc-key>
    <hc-a2>EC</hc-a2>
  </desc>
</path>

<path fill="#CEE3F5" stroke="#6E6E6E" stroke-width="0.4" id="ZA.NP" d="M420.4,118.7 L425.9,110.4 L433.9,103.5 L439.9,100.3 L440.8,93.9 L446.7,71.4 L449.6,71.9 L452.1,65.6 L458.8,62.7 L462.0,59.3 L470.8,57.8 L473.4,50.9 L479.8,51.2 L480.8,46.6 L486.2,44.4 L488.1,38.9 L491.8,37.1 L493.0,32.9 L498.1,29.2 L499.6,25.0 L506.0,20.9 L514.2,21.0 L531.6,14.9 L533.8,8.0 L537.8,3.8 L545.6,2.1 L552.5,2.7 L556.1,1.1 L569.6,0.0 L577.9,3.4 L586.2,8.1 L593.6,10.4 L602.8,9.3 L608.4,10.4 L617.6,8.3 L636.1,12.4 L647.5,51.1 L646.4,63.5 L647.4,67.3 L651.5,72.0 L655.5,84.1 L660.4,90.3 L657.0,90.3 L653.9,94.3 L642.2,92.6 L633.4,96.0 L642.3,97.1 L643.4,98.8 L638.9,111.0 L638.4,114.6 L648.0,122.9 L644.2,126.2 L637.5,128.3 L637.5,132.5 L641.3,133.5 L640.0,138.8 L635.3,138.2 L626.0,140.4 L626.7,136.8 L630.5,135.6 L628.7,129.5 L625.7,127.4 L629.4,122.7 L626.8,122.4 L624.1,118.2 L614.7,114.3 L611.4,110.8 L609.9,115.2 L605.2,116.1 L601.8,119.7 L594.5,117.3 L583.0,119.2 L582.8,128.2 L574.8,133.7 L567.6,140.4 L569.5,142.8 L564.1,146.7 L559.2,145.7 L551.5,137.0 L549.5,137.7 L549.7,131.7 L552.9,129.5 L552.7,125.6 L544.2,128.9 L540.9,134.3 L537.1,136.0 L534.4,131.4 L529.9,133.8 L522.1,134.0 L516.2,136.8 L514.9,140.6 L505.5,145.6 L507.1,147.3 L516.5,144.2 L518.9,148.6 L513.0,149.6 L508.9,152.0 L502.8,151.7 L500.1,147.3 L495.6,146.1 L493.9,142.0 L499.3,142.5 L499.8,140.2 L494.4,136.9 L486.0,136.6 L475.6,134.9 L472.3,135.8 L469.4,141.3 L467.8,139.0 L462.5,139.1 L454.5,135.8 L448.9,129.1 L447.5,123.1 L444.1,126.2 L436.4,129.9 L430.2,128.0 L422.7,127.3 Z">
  <desc xmlns="http://www.highcharts.com/svg/namespace">
    <labelrank>2</labelrank>
    <hasc>ZA.NP</hasc>
    <alt-name>Noordelike Provinsie|Northern Transvaal|Northern Province</alt-name>
    <woe-id>2346986</woe-id>
    <subregion>NULL</subregion>
    <fips>SF05</fips>
    <postal-code>NP</postal-code>
    <name>Limpopo</name>
    <country>South Africa</country>
    <type-en>Province</type-en>
    <region>NULL</region>
    <longitude>29.1301</longitude>
    <woe-name>Limpopo</woe-name>
    <latitude>-23.5859</latitude>
    <woe-label>Limpopo, ZA, South Africa</woe-label>
    <type>Provinsie</type>
    <hc-middle-x>0.58</hc-middle-x>
    <hc-middle-y>0.49</hc-middle-y>
    <hc-key>za-np</hc-key>
    <hc-a2>NP</hc-a2>
  </desc>
</path>

<path fill="#CEE3F5" stroke="#6E6E6E" stroke-width="0.4" id="ZA.NL" d="M530.6,375.5 L536.3,372.4 L534.5,368.3 L537.0,360.7 L541.4,358.8 L543.1,351.2 L547.5,349.1 L548.8,345.4 L543.8,333.2 L539.5,332.1 L530.0,324.2 L525.0,317.6 L530.0,308.2 L539.1,306.5 L541.2,301.9 L548.6,298.1 L552.1,293.9 L556.4,293.1 L560.2,287.0 L558.1,283.5 L562.5,272.2 L561.1,264.7 L564.6,262.4 L562.5,258.1 L565.0,255.1 L571.8,251.0 L580.5,251.9 L587.0,248.4 L593.1,247.3 L599.5,249.2 L603.3,247.6 L610.6,250.6 L613.5,249.6 L616.8,251.8 L624.2,250.6 L628.4,246.3 L640.3,250.5 L659.3,251.5 L658.5,241.1 L661.2,227.1 L667.7,229.2 L676.7,230.2 L700.0,230.6 L697.1,243.8 L689.2,262.6 L684.8,279.7 L682.1,294.5 L676.5,303.5 L674.3,311.6 L661.2,322.9 L657.4,323.1 L658.1,326.0 L652.7,328.6 L647.7,328.2 L646.9,330.3 L635.3,341.6 L622.0,357.9 L616.1,368.7 L616.0,373.8 L610.1,379.5 L604.1,389.8 L586.8,418.6 L578.4,429.4 L573.2,418.7 L569.5,417.3 L562.2,411.2 L554.3,410.1 L549.2,406.7 L542.7,408.2 L533.7,405.0 L529.8,400.6 L527.8,404.1 L523.9,403.3 L519.6,398.8 L521.0,390.6 L523.8,391.9 L533.0,384.4 L534.7,380.4 Z M559.1,380.9 L550.8,376.8 L548.3,385.4 L550.7,387.9 L552.3,393.9 L555.7,401.2 L561.9,401.1 L569.0,404.6 L571.5,402.9 L572.8,398.1 L575.7,397.6 L566.0,384.5 L564.2,380.9 Z">
  <desc xmlns="http://www.highcharts.com/svg/namespace">
    <labelrank>2</labelrank>
    <hasc>ZA.NL</hasc>
    <alt-name>Natal and Zululand</alt-name>
    <woe-id>2346982</woe-id>
    <subregion>NULL</subregion>
    <fips>SF03</fips>
    <postal-code>NL</postal-code>
    <name>KwaZulu-Natal</name>
    <country>South Africa</country>
    <type-en>Province</type-en>
    <region>NULL</region>
    <longitude>30.8231</longitude>
    <woe-name>KwaZulu-Natal</woe-name>
    <latitude>-28.7468</latitude>
    <woe-label>Kwazulu Natal, ZA, South Africa</woe-label>
    <type>Provinsie</type>
    <hc-middle-x>0.42</hc-middle-x>
    <hc-middle-y>0.49</hc-middle-y>
    <hc-key>za-nl</hc-key>
    <hc-a2>NL</hc-a2>
  </desc>
</path>

<path fill="#CEE3F5" stroke="#6E6E6E" stroke-width="0.4" id="ZA.WC" d="M312.2,568.9 L303.8,570.7 L301.2,573.4 L303.2,575.4 L284.3,574.8 L278.1,572.4 L269.2,571.3 L263.2,574.9 L257.8,574.7 L253.0,576.7 L253.0,580.8 L244.1,584.5 L243.3,588.8 L235.8,591.8 L228.2,590.4 L221.8,594.0 L218.3,594.3 L211.6,592.2 L204.2,592.2 L200.0,594.2 L201.7,597.4 L194.5,596.5 L189.0,597.6 L183.4,603.6 L167.5,616.2 L163.5,613.6 L155.0,615.3 L144.7,607.9 L140.8,608.4 L142.8,603.1 L139.2,598.8 L134.0,599.7 L131.4,596.4 L120.3,598.3 L121.4,587.8 L116.5,584.7 L109.0,585.1 L104.7,588.9 L106.7,598.6 L104.0,596.6 L99.8,590.0 L101.0,584.9 L99.2,583.8 L101.1,578.6 L105.5,575.2 L102.5,567.4 L97.5,561.5 L96.6,557.3 L89.6,551.9 L86.1,544.8 L80.8,540.4 L82.9,539.7 L87.1,544.6 L83.2,535.9 L78.9,537.9 L75.1,526.9 L79.7,521.1 L84.6,524.5 L91.9,517.4 L93.8,509.6 L92.4,502.6 L93.5,498.5 L91.4,492.3 L89.1,481.0 L83.9,470.3 L76.3,460.9 L71.1,455.9 L69.9,452.5 L65.1,447.2 L67.4,447.7 L67.3,442.5 L69.4,436.1 L74.3,428.0 L80.0,429.8 L83.6,427.6 L89.3,413.4 L91.7,414.5 L95.5,411.6 L103.1,416.1 L108.0,421.5 L112.1,422.6 L111.7,436.4 L113.7,445.4 L116.5,449.7 L118.1,459.5 L120.4,463.3 L121.2,471.5 L120.0,478.6 L126.5,479.5 L129.7,477.7 L129.4,481.2 L133.0,484.5 L139.1,486.6 L140.2,493.6 L137.7,497.5 L140.8,504.8 L140.6,510.5 L143.2,513.0 L145.7,504.1 L153.3,499.5 L158.2,498.4 L166.5,489.7 L169.8,494.1 L164.8,500.6 L167.1,509.4 L171.1,517.2 L180.2,524.9 L185.2,523.0 L191.7,523.3 L194.7,520.4 L195.9,513.4 L197.5,511.4 L207.6,507.4 L210.2,500.1 L214.6,495.9 L219.4,494.3 L224.4,488.9 L231.0,487.2 L236.6,488.4 L241.4,485.9 L246.4,479.0 L245.5,471.1 L247.7,469.2 L253.1,455.3 L260.9,458.9 L266.4,464.6 L272.7,467.1 L283.9,469.2 L285.8,473.5 L290.2,469.2 L294.6,462.3 L298.9,458.9 L308.2,457.5 L314.7,459.7 L318.0,464.0 L324.5,459.9 L329.6,463.2 L328.9,467.9 L331.3,470.9 L328.9,473.4 L327.7,479.3 L319.5,484.5 L314.3,483.1 L308.1,489.5 L296.9,491.3 L293.6,494.7 L295.5,506.4 L299.4,511.1 L297.7,513.0 L292.4,513.2 L284.6,517.4 L281.5,523.5 L281.6,527.4 L275.2,538.9 L275.5,542.4 L286.7,541.4 L296.1,541.5 L303.2,542.8 L308.4,545.7 L310.8,552.7 L303.7,556.3 L300.9,559.7 L308.1,560.2 L313.9,563.6 Z">
  <desc xmlns="http://www.highcharts.com/svg/namespace">
    <labelrank>2</labelrank>
    <hasc>ZA.WC</hasc>
    <alt-name>Wes-Kaap</alt-name>
    <woe-id>2346987</woe-id>
    <subregion>NULL</subregion>
    <fips>SF09</fips>
    <postal-code>WC</postal-code>
    <name>Western Cape</name>
    <country>South Africa</country>
    <type-en>Province</type-en>
    <region>NULL</region>
    <longitude>20.9745</longitude>
    <woe-name>Western Cape</woe-name>
    <latitude>-33.5035</latitude>
    <woe-label>Western Cape, ZA, South Africa</woe-label>
    <type>Provinsie</type>
    <hc-middle-x>0.50</hc-middle-x>
    <hc-middle-y>0.66</hc-middle-y>
    <hc-key>za-wc</hc-key>
    <hc-a2>WC</hc-a2>
  </desc>
</path>

<path fill="#CEE3F5" stroke="#6E6E6E" stroke-width="0.4" id="ZA.NC" d="M65.1,447.2 L55.3,432.6 L53.8,428.6 L41.6,409.9 L35.3,394.2 L32.1,388.3 L29.3,378.4 L22.8,363.4 L20.4,360.8 L16.3,350.4 L6.5,340.5 L4.1,333.4 L0.0,329.7 L0.4,327.2 L7.9,321.0 L9.3,322.5 L13.1,316.0 L11.1,312.1 L15.7,305.8 L15.7,301.9 L24.3,298.7 L28.6,302.5 L29.1,307.0 L35.7,307.4 L38.7,313.9 L35.8,318.5 L40.3,324.8 L40.0,330.2 L47.6,328.4 L48.9,332.0 L54.8,331.2 L62.0,332.2 L73.2,337.2 L79.2,335.7 L83.0,336.3 L97.6,332.4 L106.5,333.1 L112.2,337.2 L120.7,332.3 L118.7,327.7 L120.3,325.1 L126.4,324.4 L131.5,315.2 L142.3,311.9 L148.8,307.5 L139.1,132.9 L145.4,138.5 L150.7,140.6 L156.5,145.0 L163.9,157.2 L165.1,161.4 L168.3,163.6 L170.1,172.3 L177.3,185.5 L178.1,194.0 L179.9,196.8 L176.4,203.9 L171.1,211.5 L171.1,224.0 L175.2,233.7 L181.9,229.2 L193.7,231.5 L204.7,229.0 L218.0,229.9 L221.6,226.5 L221.7,221.3 L228.4,220.3 L233.5,217.9 L237.2,213.0 L241.6,204.3 L245.3,203.0 L248.9,198.5 L253.9,197.4 L257.0,192.7 L260.2,192.8 L261.8,214.7 L266.6,214.7 L275.6,219.1 L274.7,227.7 L277.9,234.7 L275.3,236.2 L275.3,243.4 L278.6,244.8 L284.3,250.5 L294.6,254.2 L296.1,256.5 L306.6,259.6 L313.0,257.3 L313.0,254.2 L317.2,253.6 L317.7,248.6 L319.8,251.4 L319.7,258.0 L322.8,269.3 L335.9,266.0 L336.9,271.1 L334.2,276.3 L337.9,280.0 L337.6,282.9 L341.1,285.8 L344.9,281.0 L345.2,276.4 L348.2,272.2 L347.3,262.1 L350.7,261.7 L352.2,265.5 L362.3,266.7 L353.9,276.4 L358.6,285.4 L362.1,283.9 L355.3,305.7 L356.6,311.9 L347.8,332.2 L335.2,360.3 L338.1,365.8 L348.7,371.8 L349.2,374.4 L354.0,376.2 L359.3,386.3 L364.5,390.1 L365.1,392.4 L375.6,402.4 L383.0,405.6 L383.7,412.5 L385.3,414.7 L384.8,421.0 L382.4,428.8 L378.5,435.2 L372.9,434.0 L362.8,438.1 L354.6,443.3 L346.1,444.1 L344.4,451.4 L344.0,458.7 L329.9,461.6 L329.6,463.2 L324.5,459.9 L318.0,464.0 L314.7,459.7 L308.2,457.5 L298.9,458.9 L294.6,462.3 L290.2,469.2 L285.8,473.5 L283.9,469.2 L272.7,467.1 L266.4,464.6 L260.9,458.9 L253.1,455.3 L247.7,469.2 L245.5,471.1 L246.4,479.0 L241.4,485.9 L236.6,488.4 L231.0,487.2 L224.4,488.9 L219.4,494.3 L214.6,495.9 L210.2,500.1 L207.6,507.4 L197.5,511.4 L195.9,513.4 L194.7,520.4 L191.7,523.3 L185.2,523.0 L180.2,524.9 L171.1,517.2 L167.1,509.4 L164.8,500.6 L169.8,494.1 L166.5,489.7 L158.2,498.4 L153.3,499.5 L145.7,504.1 L143.2,513.0 L140.6,510.5 L140.8,504.8 L137.7,497.5 L140.2,493.6 L139.1,486.6 L133.0,484.5 L129.4,481.2 L129.7,477.7 L126.5,479.5 L120.0,478.6 L121.2,471.5 L120.4,463.3 L118.1,459.5 L116.5,449.7 L113.7,445.4 L111.7,436.4 L112.1,422.6 L108.0,421.5 L103.1,416.1 L95.5,411.6 L91.7,414.5 L89.3,413.4 L83.6,427.6 L80.0,429.8 L74.3,428.0 L69.4,436.1 L67.3,442.5 L67.4,447.7 Z">
  <desc xmlns="http://www.highcharts.com/svg/namespace">
    <labelrank>2</labelrank>
    <hasc>ZA.NC</hasc>
    <alt-name>Noord-Kaap</alt-name>
    <woe-id>2346985</woe-id>
    <subregion>NULL</subregion>
    <fips>SF06</fips>
    <postal-code>NC</postal-code>
    <name>Northern Cape</name>
    <country>South Africa</country>
    <type-en>Province</type-en>
    <region>NULL</region>
    <longitude>20.9961</longitude>
    <woe-name>Northern Cape</woe-name>
    <latitude>-29.7437</latitude>
    <woe-label>Northern Cape, ZA, South Africa</woe-label>
    <type>Provinsie</type>
    <hc-middle-x>0.60</hc-middle-x>
    <hc-middle-y>0.61</hc-middle-y>
    <hc-key>za-nc</hc-key>
    <hc-a2>NC</hc-a2>
  </desc>
</path>

<path fill="#CEE3F5" stroke="#6E6E6E" stroke-width="0.4" id="ZA.NW" d="M257.0,192.7 L261.1,186.5 L260.5,182.0 L262.8,178.8 L261.9,175.4 L264.3,172.1 L265.7,162.1 L272.6,153.8 L275.4,154.4 L283.8,151.2 L292.2,151.8 L302.4,159.8 L304.8,160.5 L312.9,168.0 L316.5,169.1 L321.9,167.6 L326.1,168.6 L329.2,172.1 L336.1,172.9 L345.2,176.6 L351.1,176.8 L362.0,172.2 L367.5,173.4 L376.5,172.3 L385.1,166.3 L389.7,151.4 L395.7,137.3 L397.4,131.0 L397.0,124.4 L414.9,118.6 L420.4,118.7 L422.7,127.3 L430.2,128.0 L436.4,129.9 L444.1,126.2 L447.5,123.1 L448.9,129.1 L454.5,135.8 L462.5,139.1 L467.8,139.0 L469.4,141.3 L472.3,135.8 L475.6,134.9 L486.0,136.6 L494.4,136.9 L499.8,140.2 L499.3,142.5 L493.9,142.0 L495.6,146.1 L500.1,147.3 L502.8,151.7 L502.3,155.7 L495.3,157.9 L493.1,156.2 L493.5,161.7 L489.9,166.4 L486.6,167.1 L488.3,171.9 L484.4,177.3 L478.0,178.4 L472.9,175.4 L466.4,178.7 L464.2,188.9 L458.3,192.1 L459.8,198.7 L453.8,203.4 L455.7,208.2 L467.0,204.3 L472.8,206.2 L470.1,213.6 L469.8,221.0 L467.1,226.1 L459.7,225.5 L454.3,230.2 L454.1,228.5 L448.4,228.7 L443.6,225.6 L443.0,229.9 L440.4,227.9 L431.3,232.1 L421.3,240.6 L424.5,244.3 L423.0,249.0 L425.5,251.0 L419.2,250.7 L414.4,252.6 L413.5,255.6 L408.1,260.3 L404.4,265.9 L403.8,262.9 L395.2,260.1 L388.5,264.6 L385.9,263.8 L379.2,266.5 L371.5,272.0 L370.9,274.7 L366.9,277.2 L362.1,283.9 L358.6,285.4 L353.9,276.4 L362.3,266.7 L352.2,265.5 L350.7,261.7 L347.3,262.1 L348.2,272.2 L345.2,276.4 L344.9,281.0 L341.1,285.8 L337.6,282.9 L337.9,280.0 L334.2,276.3 L336.9,271.1 L335.9,266.0 L322.8,269.3 L319.7,258.0 L319.8,251.4 L317.7,248.6 L317.2,253.6 L313.0,254.2 L313.0,257.3 L306.6,259.6 L296.1,256.5 L294.6,254.2 L284.3,250.5 L278.6,244.8 L275.3,243.4 L275.3,236.2 L277.9,234.7 L274.7,227.7 L275.6,219.1 L266.6,214.7 L261.8,214.7 L260.2,192.8 Z">
  <desc xmlns="http://www.highcharts.com/svg/namespace">
    <labelrank>2</labelrank>
    <hasc>ZA.NW</hasc>
    <alt-name>North-West|Noordwes</alt-name>
    <woe-id>2346984</woe-id>
    <subregion>NULL</subregion>
    <fips>SF06</fips>
    <postal-code>NW</postal-code>
    <name>North West</name>
    <country>South Africa</country>
    <type-en>Province</type-en>
    <region>NULL</region>
    <longitude>25.7403</longitude>
    <woe-name>North West</woe-name>
    <latitude>-26.3999</latitude>
    <woe-label>North-west, ZA, South Africa</woe-label>
    <type>Provinsie</type>
    <hc-middle-x>0.54</hc-middle-x>
    <hc-middle-y>0.54</hc-middle-y>
    <hc-key>za-nw</hc-key>
    <hc-a2>NW</hc-a2>
  </desc>
</path>

<path fill="#CEE3F5" stroke="#6E6E6E" stroke-width="0.4" id="ZA.FS" d="M525.0,317.6 L518.3,313.5 L515.6,307.8 L511.7,309.7 L505.8,310.0 L502.1,313.8 L495.3,313.9 L489.5,321.2 L485.0,321.4 L482.8,324.0 L478.0,323.6 L473.4,329.7 L472.3,334.4 L465.5,341.9 L464.0,346.9 L456.6,354.2 L447.1,357.9 L446.6,359.8 L450.2,363.9 L454.8,374.8 L459.5,382.2 L462.4,382.7 L460.8,386.1 L462.2,390.8 L462.7,394.4 L460.0,394.6 L458.9,399.2 L446.4,401.6 L447.5,404.1 L440.4,408.3 L437.4,406.6 L434.2,408.2 L427.2,407.1 L423.3,402.7 L416.6,403.7 L411.1,399.2 L402.5,403.2 L400.5,402.0 L398.4,405.7 L393.7,408.7 L388.9,405.2 L383.0,405.6 L375.6,402.4 L365.1,392.4 L364.5,390.1 L359.3,386.3 L354.0,376.2 L349.2,374.4 L348.7,371.8 L338.1,365.8 L335.2,360.3 L347.8,332.2 L356.6,311.9 L355.3,305.7 L362.1,283.9 L366.9,277.2 L370.9,274.7 L371.5,272.0 L379.2,266.5 L385.9,263.8 L388.5,264.6 L395.2,260.1 L403.8,262.9 L404.4,265.9 L408.1,260.3 L413.5,255.6 L414.4,252.6 L419.2,250.7 L425.5,251.0 L423.0,249.0 L424.5,244.3 L421.3,240.6 L431.3,232.1 L440.4,227.9 L443.0,229.9 L443.6,225.6 L448.4,228.7 L454.1,228.5 L454.3,230.2 L459.7,225.5 L467.1,226.1 L469.8,221.0 L484.5,219.0 L488.2,216.5 L491.4,223.5 L498.0,227.7 L501.8,228.2 L510.0,230.7 L513.0,233.5 L519.3,231.2 L526.9,234.8 L530.6,232.5 L534.8,234.2 L537.6,240.2 L539.8,239.5 L551.1,245.2 L552.8,249.5 L558.2,257.3 L565.0,255.1 L562.5,258.1 L564.6,262.4 L561.1,264.7 L562.5,272.2 L558.1,283.5 L560.2,287.0 L556.4,293.1 L552.1,293.9 L548.6,298.1 L541.2,301.9 L539.1,306.5 L530.0,308.2 Z">
  <desc xmlns="http://www.highcharts.com/svg/namespace">
    <labelrank>2</labelrank>
    <hasc>ZA.FS</hasc>
    <alt-name>Free State|Vrystaat</alt-name>
    <woe-id>2346980</woe-id>
    <subregion>NULL</subregion>
    <fips>SF07</fips>
    <postal-code>FS</postal-code>
    <name>Orange Free State</name>
    <country>South Africa</country>
    <type-en>Province</type-en>
    <region>NULL</region>
    <longitude>26.4914</longitude>
    <woe-name>Orange Free State</woe-name>
    <latitude>-28.5815</latitude>
    <woe-label>Free State, ZA, South Africa</woe-label>
    <type>Provinsie</type>
    <hc-middle-x>0.42</hc-middle-x>
    <hc-middle-y>0.47</hc-middle-y>
    <hc-key>za-fs</hc-key>
    <hc-a2>FS</hc-a2>
  </desc>
</path>

<path fill="#CEE3F5" stroke="#6E6E6E" stroke-width="0.4" id="ZA.GT" d="M501.8,228.2 L498.0,227.7 L491.4,223.5 L488.2,216.5 L484.5,219.0 L469.8,221.0 L470.1,213.6 L472.8,206.2 L467.0,204.3 L455.7,208.2 L453.8,203.4 L459.8,198.7 L458.3,192.1 L464.2,188.9 L466.4,178.7 L472.9,175.4 L478.0,178.4 L484.4,177.3 L488.3,171.9 L486.6,167.1 L489.9,166.4 L493.5,161.7 L493.1,156.2 L495.3,157.9 L502.3,155.7 L502.8,151.7 L508.9,152.0 L513.0,149.6 L518.9,148.6 L516.5,144.2 L526.3,142.1 L530.3,143.7 L529.1,147.8 L525.1,154.1 L527.6,155.1 L533.2,153.4 L543.4,153.1 L542.9,157.3 L537.6,160.1 L534.7,166.9 L532.3,169.2 L530.5,177.4 L528.0,179.8 L526.0,185.9 L515.8,184.6 L513.5,188.2 L509.2,189.5 L515.2,200.3 L519.9,201.5 L525.0,200.8 L526.8,204.7 L521.0,209.6 L513.0,211.7 L505.8,218.0 L502.5,224.2 Z">
  <desc xmlns="http://www.highcharts.com/svg/namespace">
    <labelrank>2</labelrank>
    <hasc>ZA.GT</hasc>
    <alt-name>Pretoria/Witwatersrand/Vaal</alt-name>
    <woe-id>2346981</woe-id>
    <subregion>NULL</subregion>
    <fips>SF08</fips>
    <postal-code>GT</postal-code>
    <name>Gauteng</name>
    <country>South Africa</country>
    <type-en>Province</type-en>
    <region>NULL</region>
    <longitude>28.2074</longitude>
    <woe-name>Gauteng</woe-name>
    <latitude>-26.1682</latitude>
    <woe-label>Gauteng, ZA, South Africa</woe-label>
    <type>Provinsie</type>
    <hc-middle-x>0.48</hc-middle-x>
    <hc-middle-y>0.62</hc-middle-y>
    <hc-key>za-gt</hc-key>
    <hc-a2>GT</hc-a2>
  </desc>
</path>

<path fill="#CEE3F5" stroke="#6E6E6E" stroke-width="0.4" id="ZA.MP" d="M628.4,246.3 L624.2,250.6 L616.8,251.8 L613.5,249.6 L610.6,250.6 L603.3,247.6 L599.5,249.2 L593.1,247.3 L587.0,248.4 L580.5,251.9 L571.8,251.0 L565.0,255.1 L558.2,257.3 L552.8,249.5 L551.1,245.2 L539.8,239.5 L537.6,240.2 L534.8,234.2 L530.6,232.5 L526.9,234.8 L519.3,231.2 L513.0,233.5 L510.0,230.7 L501.8,228.2 L502.5,224.2 L505.8,218.0 L513.0,211.7 L521.0,209.6 L526.8,204.7 L525.0,200.8 L519.9,201.5 L515.2,200.3 L509.2,189.5 L513.5,188.2 L515.8,184.6 L526.0,185.9 L528.0,179.8 L530.5,177.4 L532.3,169.2 L534.7,166.9 L537.6,160.1 L542.9,157.3 L543.4,153.1 L533.2,153.4 L527.6,155.1 L525.1,154.1 L529.1,147.8 L530.3,143.7 L526.3,142.1 L516.5,144.2 L507.1,147.3 L505.5,145.6 L514.9,140.6 L516.2,136.8 L522.1,134.0 L529.9,133.8 L534.4,131.4 L537.1,136.0 L540.9,134.3 L544.2,128.9 L552.7,125.6 L552.9,129.5 L549.7,131.7 L549.5,137.7 L551.5,137.0 L559.2,145.7 L564.1,146.7 L569.5,142.8 L567.6,140.4 L574.8,133.7 L582.8,128.2 L583.0,119.2 L594.5,117.3 L601.8,119.7 L605.2,116.1 L609.9,115.2 L611.4,110.8 L614.7,114.3 L624.1,118.2 L626.8,122.4 L629.4,122.7 L625.7,127.4 L628.7,129.5 L630.5,135.6 L626.7,136.8 L626.0,140.4 L635.3,138.2 L640.0,138.8 L641.3,133.5 L637.5,132.5 L637.5,128.3 L644.2,126.2 L648.0,122.9 L638.4,114.6 L638.9,111.0 L643.4,98.8 L642.3,97.1 L633.4,96.0 L642.2,92.6 L653.9,94.3 L657.0,90.3 L660.4,90.3 L660.6,100.0 L665.3,112.6 L663.8,158.2 L662.6,163.3 L663.4,171.5 L659.5,180.6 L661.0,186.2 L656.0,187.2 L638.7,175.1 L633.5,175.6 L625.1,182.7 L618.1,196.8 L610.7,205.6 L609.7,209.2 L610.0,225.4 L613.4,223.7 L616.7,230.5 L617.2,236.4 L624.7,244.9 Z">
  <desc xmlns="http://www.highcharts.com/svg/namespace">
    <labelrank>2</labelrank>
    <hasc>ZA.MP</hasc>
    <alt-name>Eastern Transvaal</alt-name>
    <woe-id>2346983</woe-id>
    <subregion>NULL</subregion>
    <fips>SF02</fips>
    <postal-code>MP</postal-code>
    <name>Mpumalanga</name>
    <country>South Africa</country>
    <type-en>Province</type-en>
    <region>NULL</region>
    <longitude>30.1421</longitude>
    <woe-name>Mpumalanga</woe-name>
    <latitude>-25.9893</latitude>
    <woe-label>Mpumalanga, ZA, South Africa</woe-label>
    <type>Provinsie</type>
    <hc-middle-x>0.46</hc-middle-x>
    <hc-middle-y>0.54</hc-middle-y>
    <hc-key>za-mp</hc-key>
    <hc-a2>MP</hc-a2>
  </desc>
</path>
</g>

<text x="350" y="714" text-anchor="middle" font-family="Verdana" font-size="8" stroke-opacity="0.6">Copyright (c) 2014 Highsoft AS, Based on data from Natural Earth</text>

</svg>