<?xml version="1.0" encoding="utf-8" standalone="no"?>
<!DOCTYPE svg PUBLIC "-//W3C//DTD SVG 1.1//EN" "http://www.w3.org/Graphics/SVG/1.1/DTD/svg11.dtd">

<svg version="1.1" height="700pt" width="700pt" xmlns="http://www.w3.org/2000/svg" xmlns:xlink="http://www.w3.org/1999/xlink">
<desc>
Map version: 1.1.1
Copyright (c) 2014 Highsoft AS, Based on data from Natural Earth
</desc>
<title>China</title>
<g id="admin1">

<g id="CN">
  <desc xmlns="http://www.highcharts.com/svg/namespace">
    <name>China</name>
    <labelrank>2</labelrank>
    <country-abbrev>China</country-abbrev>
    <subregion>Eastern Asia</subregion>
    <woe-id>23424781</woe-id>
    <region-wb>East Asia &amp; Pacific</region-wb>
    <iso-a3>CHN</iso-a3>
    <iso-a2>CN</iso-a2>
    <region-un>Asia</region-un>
    <continent>Asia</continent>
    <hc-key>cn</hc-key>
    <hc-a2>CH</hc-a2>
  </desc>
</g>

<path fill="#CEE3F5" stroke="#6E6E6E" stroke-width="0.4" id="CN.3664" d="M433.6,575.7 L433.4,575.7 L433.5,575.6 L433.6,575.6 Z">
  <desc xmlns="http://www.highcharts.com/svg/namespace">
    <labelrank>20</labelrank>
    <hasc>CN</hasc>
    <alt-name>NULL</alt-name>
    <woe-id>12497556</woe-id>
    <subregion>NULL</subregion>
    <fips>NULL</fips>
    <postal-code>NULL</postal-code>
    <name>Paracel Islands</name>
    <country>China</country>
    <type-en>NULL</type-en>
    <region>NULL</region>
    <longitude>111.201</longitude>
    <woe-name>Paracel Islands</woe-name>
    <latitude>15.7833</latitude>
    <woe-label>NULL</woe-label>
    <type>NULL</type>
    <hc-middle-x>0.50</hc-middle-x>
    <hc-middle-y>0.50</hc-middle-y>
    <hc-key>cn-3664</hc-key>
    <hc-a2>PI</hc-a2>
  </desc>
</path>

<path fill="#CEE3F5" stroke="#6E6E6E" stroke-width="0.4" id="CN.SH" d="M571.7,347.5 L564.1,345.0 L563.3,342.3 L572.5,346.2 Z M559.4,354.6 L562.6,347.9 L564.5,347.3 L569.5,350.2 L572.9,355.4 L564.2,359.0 L560.5,357.2 Z">
  <desc xmlns="http://www.highcharts.com/svg/namespace">
    <labelrank>7</labelrank>
    <hasc>CN.SH</hasc>
    <alt-name>Shàngh?i</alt-name>
    <woe-id>12578012</woe-id>
    <subregion>NULL</subregion>
    <fips>CH23</fips>
    <postal-code>SH</postal-code>
    <name>Shanghai</name>
    <country>China</country>
    <type-en>Municipality</type-en>
    <region>East China</region>
    <longitude>121.409</longitude>
    <woe-name>Shanghai</woe-name>
    <latitude>31.0909</latitude>
    <woe-label>Shanghai, CN, China</woe-label>
    <type>Zhíxiáshì</type>
    <hc-middle-x>0.43</hc-middle-x>
    <hc-middle-y>0.62</hc-middle-y>
    <hc-key>cn-sh</hc-key>
    <hc-a2>SH</hc-a2>
  </desc>
</path>

<path fill="#CEE3F5" stroke="#6E6E6E" stroke-width="0.4" id="CN.ZJ" d="M575.9,365.0 L576.0,367.1 L578.4,369.7 L572.3,367.6 Z M554.4,407.6 L547.1,408.8 L544.1,403.7 L540.5,407.4 L536.0,406.8 L533.6,399.7 L533.3,394.6 L529.6,395.3 L529.2,389.4 L523.6,383.0 L525.7,379.1 L528.2,378.4 L532.5,374.2 L534.6,370.5 L534.3,365.5 L540.7,364.7 L538.7,362.1 L541.2,360.7 L543.3,353.4 L547.1,353.1 L549.7,356.0 L552.6,355.9 L554.3,358.4 L559.4,354.6 L560.5,357.2 L564.2,359.0 L560.6,361.4 L557.7,366.0 L559.8,366.9 L562.9,364.4 L565.8,364.3 L569.8,368.9 L573.7,370.3 L570.4,375.1 L573.1,373.9 L573.7,382.3 L569.2,379.2 L566.9,382.0 L569.7,381.8 L570.5,385.9 L567.9,388.0 L570.7,393.0 L567.4,393.9 L564.6,397.5 L564.6,392.6 L562.1,398.5 L557.6,404.7 L556.8,410.1 L555.5,410.0 Z">
  <desc xmlns="http://www.highcharts.com/svg/namespace">
    <labelrank>2</labelrank>
    <hasc>CN.ZJ</hasc>
    <alt-name>Zhèji?ng</alt-name>
    <woe-id>12577992</woe-id>
    <subregion>NULL</subregion>
    <fips>CH02</fips>
    <postal-code>ZJ</postal-code>
    <name>Zhejiang</name>
    <country>China</country>
    <type-en>Province</type-en>
    <region>East China</region>
    <longitude>119.97</longitude>
    <woe-name>Zhejiang</woe-name>
    <latitude>29.1084</latitude>
    <woe-label>Zhejiang, CN, China</woe-label>
    <type>Sh?ng</type>
    <hc-middle-x>0.48</hc-middle-x>
    <hc-middle-y>0.52</hc-middle-y>
    <hc-key>cn-zj</hc-key>
    <hc-a2>ZJ</hc-a2>
  </desc>
</path>

<path fill="#CEE3F5" stroke="#6E6E6E" stroke-width="0.4" id="CN.HA" d="M399.5,529.6 L399.3,524.5 L407.4,518.4 L408.8,515.6 L411.0,516.9 L414.5,514.4 L418.1,516.0 L420.5,513.8 L425.9,515.1 L427.5,512.6 L431.0,515.0 L431.7,519.5 L427.2,523.8 L423.7,533.8 L421.5,533.9 L417.6,537.0 L414.2,537.6 L411.6,540.8 L410.0,539.0 L406.2,539.0 L399.9,535.6 Z">
  <desc xmlns="http://www.highcharts.com/svg/namespace">
    <labelrank>2</labelrank>
    <hasc>CN.HA</hasc>
    <alt-name>H?inán</alt-name>
    <woe-id>12578020</woe-id>
    <subregion>NULL</subregion>
    <fips>CH31</fips>
    <postal-code>HA</postal-code>
    <name>Hainan</name>
    <country>China</country>
    <type-en>Province</type-en>
    <region>South Central China</region>
    <longitude>109.825</longitude>
    <woe-name>Hainan</woe-name>
    <latitude>19.1865</latitude>
    <woe-label>Hainan, CN, China</woe-label>
    <type>Sh?ng</type>
    <hc-middle-x>0.50</hc-middle-x>
    <hc-middle-y>0.45</hc-middle-y>
    <hc-key>cn-ha</hc-key>
    <hc-a2>HA</hc-a2>
  </desc>
</path>

<path fill="#CEE3F5" stroke="#6E6E6E" stroke-width="0.4" id="CN.XZ" d="M279.3,379.2 L277.2,376.7 L275.8,381.0 L276.1,384.6 L273.9,387.0 L271.7,385.2 L269.0,388.0 L262.3,381.6 L259.0,385.9 L254.6,383.8 L250.5,377.8 L248.0,371.9 L248.1,369.3 L245.8,367.7 L240.7,367.5 L234.4,371.0 L228.2,368.6 L226.6,366.2 L221.7,368.8 L222.5,370.0 L212.7,373.9 L210.4,373.6 L205.4,377.4 L199.3,380.4 L198.6,383.1 L189.9,384.7 L185.6,383.6 L186.2,381.4 L181.9,378.2 L179.2,379.6 L171.5,377.0 L173.3,374.9 L169.0,372.4 L164.2,372.6 L160.1,374.3 L152.4,380.9 L149.7,384.7 L148.3,381.1 L150.4,377.1 L147.9,372.9 L141.1,375.3 L137.5,374.1 L136.0,375.3 L128.8,373.8 L127.5,371.9 L121.7,368.7 L120.0,371.0 L117.2,369.2 L114.1,370.4 L111.6,363.3 L110.4,364.3 L103.8,362.2 L105.6,358.6 L99.5,357.2 L94.7,351.9 L94.0,346.6 L86.5,346.0 L83.3,339.0 L79.3,337.7 L76.4,333.2 L71.9,330.1 L72.0,326.3 L66.1,323.8 L63.4,323.9 L61.9,327.1 L58.8,328.2 L58.0,324.5 L50.8,318.6 L50.2,315.8 L46.0,311.4 L42.8,311.1 L39.9,307.7 L38.1,302.6 L33.8,303.1 L35.6,299.5 L34.3,296.7 L35.9,294.2 L33.2,289.6 L33.2,285.1 L37.6,284.4 L39.1,289.0 L41.2,289.2 L46.9,286.4 L46.2,281.5 L47.4,278.7 L42.9,275.5 L41.4,271.5 L42.5,263.8 L45.9,262.4 L46.0,260.6 L49.3,259.8 L56.4,261.5 L59.1,258.2 L59.0,254.7 L66.0,247.2 L67.7,249.2 L73.2,252.0 L74.5,250.8 L81.8,254.5 L85.5,254.2 L91.6,249.8 L97.6,251.2 L98.8,255.4 L104.3,257.2 L112.1,258.3 L116.8,256.6 L124.3,255.1 L128.9,257.4 L133.6,256.6 L137.9,252.0 L141.1,251.0 L154.7,251.6 L160.0,251.0 L165.5,251.6 L174.2,255.8 L179.2,259.3 L176.1,260.3 L180.0,263.3 L178.4,268.8 L175.2,269.9 L175.3,275.7 L177.9,276.5 L176.8,279.1 L177.4,284.8 L174.2,288.4 L179.6,299.6 L186.4,304.5 L191.5,302.3 L193.6,302.6 L195.3,306.6 L203.0,312.7 L212.6,314.1 L218.4,318.1 L221.3,317.7 L225.8,319.6 L231.9,317.5 L237.1,324.2 L241.3,327.2 L240.2,329.1 L241.6,332.4 L249.0,333.9 L251.6,331.1 L253.9,333.6 L257.7,334.6 L257.4,330.9 L264.0,330.0 L266.0,323.9 L270.4,323.7 L276.2,327.1 L278.8,332.8 L278.2,335.3 L283.2,342.5 L279.5,344.8 L283.3,351.4 L282.6,352.6 L283.4,363.6 L282.2,367.3 L283.2,373.7 L283.2,373.7 Z">
  <desc xmlns="http://www.highcharts.com/svg/namespace">
    <labelrank>2</labelrank>
    <hasc>CN.XZ</hasc>
    <alt-name>Tibet|X?zàng</alt-name>
    <woe-id>12578004</woe-id>
    <subregion>Western</subregion>
    <fips>CH14</fips>
    <postal-code>XZ</postal-code>
    <name>Xizang</name>
    <country>China</country>
    <type-en>Autonomous Region</type-en>
    <region>Southwest China</region>
    <longitude>88.41370000000001</longitude>
    <woe-name>Xizang</woe-name>
    <latitude>31.4515</latitude>
    <woe-label>Tibet, CN, China</woe-label>
    <type>Zìzhìqu</type>
    <hc-middle-x>0.40</hc-middle-x>
    <hc-middle-y>0.49</hc-middle-y>
    <hc-key>cn-xz</hc-key>
    <hc-a2>XZ</hc-a2>
  </desc>
</path>

<path fill="#CEE3F5" stroke="#6E6E6E" stroke-width="0.4" id="CN.YN" d="M279.3,379.2 L283.2,373.7 L283.2,373.7 L282.8,385.1 L285.2,389.0 L285.9,383.8 L290.4,379.9 L291.7,383.5 L295.2,387.6 L293.7,391.5 L297.1,396.4 L301.2,394.9 L306.4,407.4 L310.6,412.6 L309.4,414.5 L312.1,417.9 L311.3,419.9 L314.4,422.6 L317.9,422.2 L324.1,418.4 L325.3,420.6 L329.1,419.2 L330.6,416.5 L329.0,410.8 L329.2,405.5 L332.3,404.0 L337.7,397.8 L337.4,393.8 L342.9,391.4 L342.0,388.4 L344.1,387.3 L350.0,387.3 L347.8,388.7 L350.0,395.1 L348.9,397.1 L351.8,398.9 L355.6,398.3 L357.8,395.7 L360.6,397.2 L360.6,401.2 L359.0,405.8 L354.8,406.9 L349.3,406.0 L348.1,404.6 L345.8,406.9 L342.5,404.9 L338.1,409.2 L340.4,411.1 L340.1,416.6 L343.1,417.7 L348.6,415.1 L351.5,420.1 L346.0,430.1 L351.9,436.3 L348.3,443.6 L348.8,448.5 L350.9,447.7 L355.6,448.8 L356.1,452.3 L359.7,454.4 L364.2,454.8 L367.3,453.7 L369.4,457.3 L368.3,462.0 L364.6,462.1 L360.0,467.0 L357.4,463.9 L351.3,466.5 L350.5,469.9 L343.9,472.9 L342.3,470.8 L339.7,472.2 L339.0,474.9 L334.8,470.7 L332.8,473.6 L330.3,470.6 L325.7,475.3 L323.9,473.1 L318.7,470.1 L315.4,475.0 L307.9,473.9 L305.9,476.9 L308.5,483.0 L307.3,492.7 L300.6,490.6 L300.0,483.1 L294.2,486.2 L287.1,486.9 L286.9,483.6 L284.3,482.4 L284.6,477.7 L274.1,475.2 L277.4,470.6 L277.1,467.0 L280.0,462.7 L276.3,462.4 L271.7,460.2 L272.3,454.1 L270.0,451.1 L270.2,448.6 L273.1,446.4 L269.4,447.0 L264.1,445.9 L256.6,448.8 L255.1,447.5 L257.9,445.2 L257.5,440.6 L255.9,440.5 L256.6,436.1 L259.8,434.8 L259.1,433.2 L261.1,429.1 L265.0,427.6 L265.7,424.5 L268.1,425.3 L270.8,421.7 L273.2,421.3 L271.7,417.9 L275.1,410.7 L274.8,402.7 L275.4,396.9 L272.1,395.0 L270.4,397.0 L268.7,390.5 L269.0,388.0 L271.7,385.2 L273.9,387.0 L276.1,384.6 L275.8,381.0 L277.2,376.7 Z">
  <desc xmlns="http://www.highcharts.com/svg/namespace">
    <labelrank>2</labelrank>
    <hasc>CN.YN</hasc>
    <alt-name>Yúnnán</alt-name>
    <woe-id>12578018</woe-id>
    <subregion>Western</subregion>
    <fips>CH29</fips>
    <postal-code>YN</postal-code>
    <name>Yunnan</name>
    <country>China</country>
    <type-en>Province</type-en>
    <region>Southwest China</region>
    <longitude>101.661</longitude>
    <woe-name>Yunnan</woe-name>
    <latitude>24.4603</latitude>
    <woe-label>Yunnan, CN, China</woe-label>
    <type>Sh?ng</type>
    <hc-middle-x>0.42</hc-middle-x>
    <hc-middle-y>0.59</hc-middle-y>
    <hc-key>cn-yn</hc-key>
    <hc-a2>YN</hc-a2>
  </desc>
</path>

<path fill="#CEE3F5" stroke="#6E6E6E" stroke-width="0.4" id="CN.AH" d="M499.8,374.1 L497.1,364.6 L494.9,361.1 L498.2,356.6 L493.5,353.3 L492.0,353.9 L489.8,350.5 L491.7,345.8 L496.3,344.9 L495.8,334.1 L492.1,336.0 L487.5,333.3 L487.3,329.3 L483.6,326.1 L486.7,326.0 L489.2,323.6 L489.1,319.9 L492.7,318.5 L491.8,314.0 L492.9,311.8 L496.7,312.4 L499.5,316.6 L505.1,313.0 L503.9,308.1 L502.0,308.3 L498.9,304.0 L500.3,303.9 L501.7,302.9 L506.9,306.4 L508.7,306.5 L509.8,309.9 L517.1,312.0 L518.5,316.1 L523.4,315.4 L524.1,316.5 L521.2,323.3 L524.8,324.0 L525.1,327.8 L527.2,330.5 L531.2,330.4 L532.8,326.8 L536.6,329.0 L537.2,332.2 L535.8,334.5 L533.4,332.3 L529.2,332.8 L530.5,337.7 L526.9,342.0 L528.5,344.3 L533.4,346.5 L532.2,350.5 L533.0,352.4 L539.7,351.3 L543.3,353.4 L541.2,360.7 L538.7,362.1 L540.7,364.7 L534.3,365.5 L534.6,370.5 L532.5,374.2 L528.2,378.4 L525.7,379.1 L523.2,376.8 L517.4,376.2 L515.8,373.2 L511.5,373.2 L511.7,375.0 L507.2,377.4 L506.5,375.2 L509.2,372.0 L506.1,370.2 L504.2,372.6 Z">
  <desc xmlns="http://www.highcharts.com/svg/namespace">
    <labelrank>2</labelrank>
    <hasc>CN.AH</hasc>
    <alt-name>?nhu?</alt-name>
    <woe-id>12578022</woe-id>
    <subregion>Central</subregion>
    <fips>CH01</fips>
    <postal-code>AH</postal-code>
    <name>Anhui</name>
    <country>China</country>
    <type-en>Province</type-en>
    <region>East China</region>
    <longitude>117.253</longitude>
    <woe-name>Anhui</woe-name>
    <latitude>31.9537</latitude>
    <woe-label>Anhui, CN, China</woe-label>
    <type>Sh?ng</type>
    <hc-middle-x>0.44</hc-middle-x>
    <hc-middle-y>0.59</hc-middle-y>
    <hc-key>cn-ah</hc-key>
    <hc-a2>AH</hc-a2>
  </desc>
</path>

<path fill="#CEE3F5" stroke="#6E6E6E" stroke-width="0.4" id="CN.HU" d="M489.8,350.5 L492.0,353.9 L493.5,353.3 L498.2,356.6 L494.9,361.1 L497.1,364.6 L499.8,374.1 L496.1,374.9 L491.4,373.1 L488.7,376.7 L483.8,378.1 L483.0,380.0 L475.7,382.1 L471.3,384.8 L468.2,383.9 L467.3,381.5 L469.1,379.4 L467.4,372.9 L461.5,379.0 L458.9,378.5 L458.4,374.2 L455.4,376.6 L450.7,377.8 L449.9,375.9 L444.3,372.2 L439.8,372.0 L437.7,370.4 L431.3,369.4 L427.8,370.5 L429.3,374.1 L426.4,375.8 L423.1,373.7 L419.1,374.4 L414.5,377.2 L411.5,383.3 L407.9,379.6 L407.5,375.4 L404.3,372.1 L403.0,374.0 L403.5,365.4 L401.6,364.1 L405.3,361.7 L414.5,361.9 L420.6,357.6 L423.0,358.5 L424.5,353.3 L423.8,350.2 L419.1,347.7 L417.5,345.1 L418.5,340.6 L416.4,336.0 L418.3,332.6 L422.9,333.3 L425.0,332.3 L424.1,329.1 L419.8,327.7 L420.0,325.4 L416.3,324.3 L418.9,322.7 L426.0,324.5 L429.9,323.3 L432.4,325.5 L435.2,323.0 L438.0,328.0 L445.0,334.2 L451.2,336.7 L457.0,336.8 L460.7,335.7 L466.7,337.6 L469.2,335.9 L470.0,342.4 L472.2,345.7 L474.4,344.2 L479.5,345.8 L479.4,348.2 L485.1,349.6 L486.7,347.9 Z">
  <desc xmlns="http://www.highcharts.com/svg/namespace">
    <labelrank>2</labelrank>
    <hasc>CN.HU</hasc>
    <alt-name>Húb?i</alt-name>
    <woe-id>12578002</woe-id>
    <subregion>Central</subregion>
    <fips>CH12</fips>
    <postal-code>HU</postal-code>
    <name>Hubei</name>
    <country>China</country>
    <type-en>Province</type-en>
    <region>South Central China</region>
    <longitude>112.264</longitude>
    <woe-name>Hubei</woe-name>
    <latitude>30.9857</latitude>
    <woe-label>Hubei, CN, China</woe-label>
    <type>Sh?ng</type>
    <hc-middle-x>0.55</hc-middle-x>
    <hc-middle-y>0.52</hc-middle-y>
    <hc-key>cn-hu</hc-key>
    <hc-a2>HU</hc-a2>
  </desc>
</path>

<path fill="#CEE3F5" stroke="#6E6E6E" stroke-width="0.4" id="CN.SA" d="M435.2,323.0 L432.4,325.5 L429.9,323.3 L426.0,324.5 L418.9,322.7 L416.3,324.3 L420.0,325.4 L419.8,327.7 L424.1,329.1 L425.0,332.3 L422.9,333.3 L418.3,332.6 L416.4,336.0 L418.5,340.6 L417.5,345.1 L414.2,345.5 L410.8,341.9 L404.2,337.9 L398.5,337.3 L397.8,338.4 L391.1,332.7 L388.0,333.6 L386.5,329.7 L382.1,329.1 L376.0,331.0 L374.6,327.0 L367.9,328.5 L367.2,325.9 L372.0,325.1 L372.6,321.4 L370.3,319.0 L374.8,315.8 L380.8,316.4 L379.3,311.9 L381.2,306.3 L382.7,304.8 L378.5,301.7 L381.6,297.7 L381.9,294.5 L386.2,294.5 L389.6,297.6 L397.3,296.7 L395.5,292.9 L405.5,292.6 L407.1,290.8 L405.8,283.5 L408.1,281.8 L408.6,276.5 L404.5,273.6 L400.7,272.6 L399.0,270.2 L391.8,267.5 L391.9,265.2 L391.5,261.7 L392.6,257.4 L396.9,253.6 L400.1,254.8 L401.3,257.1 L410.0,256.7 L411.0,252.1 L412.4,253.1 L412.9,246.9 L421.4,237.0 L427.4,232.9 L431.2,231.7 L432.9,233.7 L435.4,230.4 L438.7,228.7 L438.5,231.7 L439.8,232.8 L437.0,237.4 L435.2,245.7 L431.0,249.4 L431.0,253.2 L433.7,256.1 L434.1,259.1 L432.6,263.3 L428.9,269.1 L430.2,273.6 L429.6,280.3 L431.5,288.5 L427.9,294.3 L426.7,302.2 L427.7,303.0 L427.6,305.0 L431.0,309.7 L430.6,313.9 L435.2,318.2 Z">
  <desc xmlns="http://www.highcharts.com/svg/namespace">
    <labelrank>2</labelrank>
    <hasc>CN.SA</hasc>
    <alt-name>Sh?nx?</alt-name>
    <woe-id>12578015</woe-id>
    <subregion>Western</subregion>
    <fips>CH26</fips>
    <postal-code>SA</postal-code>
    <name>Shaanxi</name>
    <country>China</country>
    <type-en>Province</type-en>
    <region>Northwest China</region>
    <longitude>108.363</longitude>
    <woe-name>Shaanxi</woe-name>
    <latitude>33.7713</latitude>
    <woe-label>Shaanxi, CN, China</woe-label>
    <type>Sh?ng</type>
    <hc-middle-x>0.58</hc-middle-x>
    <hc-middle-y>0.69</hc-middle-y>
    <hc-key>cn-sa</hc-key>
    <hc-a2>SA</hc-a2>
  </desc>
</path>

<path fill="#CEE3F5" stroke="#6E6E6E" stroke-width="0.4" id="CN.CQ" d="M417.5,345.1 L419.1,347.7 L423.8,350.2 L424.5,353.3 L423.0,358.5 L420.6,357.6 L414.5,361.9 L405.3,361.7 L401.6,364.1 L403.5,365.4 L403.0,374.0 L404.3,372.1 L407.5,375.4 L407.9,379.6 L411.5,383.3 L412.3,384.1 L411.9,392.0 L409.6,396.3 L405.0,395.6 L405.8,393.0 L400.1,389.0 L399.7,383.3 L394.4,384.5 L393.4,382.2 L389.8,380.5 L388.8,385.8 L383.6,385.4 L381.2,387.0 L379.0,391.1 L376.3,386.1 L375.1,389.6 L373.8,385.2 L367.3,383.1 L366.9,379.7 L363.3,377.8 L362.0,374.2 L367.5,370.4 L368.0,368.0 L365.8,366.2 L369.0,362.4 L373.1,363.8 L374.5,365.6 L378.3,364.0 L380.4,368.2 L384.4,368.4 L390.3,360.6 L390.8,357.6 L396.2,357.0 L397.7,352.0 L402.5,347.1 L403.8,343.9 L401.0,341.1 L404.2,337.9 L410.8,341.9 L414.2,345.5 Z">
  <desc xmlns="http://www.highcharts.com/svg/namespace">
    <labelrank>2</labelrank>
    <hasc>CN.CQ</hasc>
    <alt-name>Chóngqìng</alt-name>
    <woe-id>20070171</woe-id>
    <subregion>Western</subregion>
    <fips>CH33</fips>
    <postal-code>CQ</postal-code>
    <name>Chongqing</name>
    <country>China</country>
    <type-en>Municipality</type-en>
    <region>Southwest China</region>
    <longitude>107.73</longitude>
    <woe-name>Chongqing</woe-name>
    <latitude>30.0173</latitude>
    <woe-label>Chongqing, CN, China</woe-label>
    <type>Zhíxiáshì</type>
    <hc-middle-x>0.42</hc-middle-x>
    <hc-middle-y>0.62</hc-middle-y>
    <hc-key>cn-cq</hc-key>
    <hc-a2>CQ</hc-a2>
  </desc>
</path>

<path fill="#CEE3F5" stroke="#6E6E6E" stroke-width="0.4" id="CN.GZ" d="M348.3,443.6 L351.9,436.3 L346.0,430.1 L351.5,420.1 L348.6,415.1 L343.1,417.7 L340.1,416.6 L340.4,411.1 L338.1,409.2 L342.5,404.9 L345.8,406.9 L348.1,404.6 L349.3,406.0 L354.8,406.9 L359.0,405.8 L360.6,401.2 L364.8,402.0 L374.1,400.3 L371.3,395.2 L368.5,395.4 L365.6,392.5 L366.2,389.0 L370.2,386.7 L374.5,390.9 L375.1,389.6 L376.3,386.1 L379.0,391.1 L381.2,387.0 L383.6,385.4 L388.8,385.8 L389.8,380.5 L393.4,382.2 L394.4,384.5 L399.7,383.3 L400.1,389.0 L405.8,393.0 L405.0,395.6 L409.6,396.3 L411.9,392.0 L413.0,395.5 L412.2,398.6 L413.9,404.5 L405.2,412.4 L413.6,412.0 L414.6,415.9 L411.6,417.7 L412.9,420.5 L411.4,423.7 L413.4,427.7 L411.2,431.9 L406.7,431.3 L407.8,434.7 L403.3,433.7 L401.5,436.3 L398.0,434.4 L395.7,438.3 L392.1,439.9 L389.4,437.5 L387.4,438.7 L384.3,433.6 L380.7,435.2 L380.9,437.8 L369.7,441.6 L367.7,446.1 L361.1,443.2 L357.0,440.2 L350.7,445.3 Z">
  <desc xmlns="http://www.highcharts.com/svg/namespace">
    <labelrank>2</labelrank>
    <hasc>CN.GZ</hasc>
    <alt-name>Gùizh?u</alt-name>
    <woe-id>12578007</woe-id>
    <subregion>Western</subregion>
    <fips>CH18</fips>
    <postal-code>GZ</postal-code>
    <name>Guizhou</name>
    <country>China</country>
    <type-en>Province</type-en>
    <region>Southwest China</region>
    <longitude>106.559</longitude>
    <woe-name>Guizhou</woe-name>
    <latitude>26.8033</latitude>
    <woe-label>Guizhou, CN, China</woe-label>
    <type>Sh?ng</type>
    <hc-middle-x>0.53</hc-middle-x>
    <hc-middle-y>0.50</hc-middle-y>
    <hc-key>cn-gz</hc-key>
    <hc-a2>GZ</hc-a2>
  </desc>
</path>

<path fill="#CEE3F5" stroke="#6E6E6E" stroke-width="0.4" id="CN.HN" d="M413.4,427.7 L411.4,423.7 L412.9,420.5 L411.6,417.7 L414.6,415.9 L413.6,412.0 L405.2,412.4 L413.9,404.5 L412.2,398.6 L413.0,395.5 L411.9,392.0 L412.3,384.1 L411.5,383.3 L414.5,377.2 L419.1,374.4 L423.1,373.7 L426.4,375.8 L429.3,374.1 L427.8,370.5 L431.3,369.4 L437.7,370.4 L439.8,372.0 L444.3,372.2 L449.9,375.9 L450.7,377.8 L455.4,376.6 L458.4,374.2 L458.9,378.5 L461.5,379.0 L467.4,372.9 L469.1,379.4 L467.3,381.5 L468.2,383.9 L471.3,384.8 L474.4,388.8 L473.3,392.1 L475.5,394.3 L471.5,399.9 L469.2,400.5 L466.9,406.2 L467.4,409.4 L470.7,409.7 L469.4,412.6 L471.2,415.5 L470.8,419.7 L473.7,420.8 L471.6,426.7 L474.7,425.9 L471.4,432.7 L471.6,437.1 L467.1,438.8 L462.3,436.2 L458.3,438.9 L459.3,444.0 L456.9,444.3 L455.1,441.8 L448.8,441.2 L448.2,446.4 L446.2,447.2 L441.9,446.5 L439.9,448.4 L438.8,441.7 L436.9,441.1 L433.6,444.4 L433.2,441.0 L437.5,436.0 L439.3,429.9 L436.0,429.4 L436.8,424.8 L432.9,423.1 L432.0,424.8 L427.8,423.7 L423.7,428.9 L419.6,425.6 L417.5,429.7 Z">
  <desc xmlns="http://www.highcharts.com/svg/namespace">
    <labelrank>2</labelrank>
    <hasc>CN.HN</hasc>
    <alt-name>Húnán</alt-name>
    <woe-id>12578001</woe-id>
    <subregion>Central</subregion>
    <fips>CH11</fips>
    <postal-code>HN</postal-code>
    <name>Hunan</name>
    <country>China</country>
    <type-en>Province</type-en>
    <region>South Central China</region>
    <longitude>111.712</longitude>
    <woe-name>Hunan</woe-name>
    <latitude>27.6667</latitude>
    <woe-label>Hunan, CN, China</woe-label>
    <type>Sh?ng</type>
    <hc-middle-x>0.51</hc-middle-x>
    <hc-middle-y>0.50</hc-middle-y>
    <hc-key>cn-hn</hc-key>
    <hc-a2>HN</hc-a2>
  </desc>
</path>

<path fill="#CEE3F5" stroke="#6E6E6E" stroke-width="0.4" id="CN.SC" d="M367.2,325.9 L367.9,328.5 L374.6,327.0 L376.0,331.0 L382.1,329.1 L386.5,329.7 L388.0,333.6 L391.1,332.7 L397.8,338.4 L398.5,337.3 L404.2,337.9 L401.0,341.1 L403.8,343.9 L402.5,347.1 L397.7,352.0 L396.2,357.0 L390.8,357.6 L390.3,360.6 L384.4,368.4 L380.4,368.2 L378.3,364.0 L374.5,365.6 L373.1,363.8 L369.0,362.4 L365.8,366.2 L368.0,368.0 L367.5,370.4 L362.0,374.2 L363.3,377.8 L366.9,379.7 L367.3,383.1 L373.8,385.2 L375.1,389.6 L374.5,390.9 L370.2,386.7 L366.2,389.0 L365.6,392.5 L368.5,395.4 L371.3,395.2 L374.1,400.3 L364.8,402.0 L360.6,401.2 L360.6,397.2 L357.8,395.7 L355.6,398.3 L351.8,398.9 L348.9,397.1 L350.0,395.1 L347.8,388.7 L350.0,387.3 L344.1,387.3 L342.0,388.4 L342.9,391.4 L337.4,393.8 L337.7,397.8 L332.3,404.0 L329.2,405.5 L329.0,410.8 L330.6,416.5 L329.1,419.2 L325.3,420.6 L324.1,418.4 L317.9,422.2 L314.4,422.6 L311.3,419.9 L312.1,417.9 L309.4,414.5 L310.6,412.6 L306.4,407.4 L301.2,394.9 L297.1,396.4 L293.7,391.5 L295.2,387.6 L291.7,383.5 L290.4,379.9 L285.9,383.8 L285.2,389.0 L282.8,385.1 L283.2,373.7 L283.2,373.7 L282.2,367.3 L283.4,363.6 L282.6,352.6 L283.3,351.4 L279.5,344.8 L283.2,342.5 L278.2,335.3 L278.8,332.8 L276.2,327.1 L270.4,323.7 L267.1,321.1 L266.6,318.1 L268.7,313.9 L271.8,311.1 L268.0,307.7 L268.3,303.9 L272.4,302.3 L272.8,304.4 L276.5,303.4 L281.5,305.6 L283.5,308.3 L285.4,315.9 L290.4,320.6 L295.2,323.1 L297.6,319.2 L301.0,323.1 L303.9,323.7 L306.1,328.4 L307.2,325.1 L313.4,325.5 L313.8,319.1 L317.4,317.8 L319.7,319.5 L321.8,313.8 L323.5,315.7 L322.3,319.8 L330.4,315.4 L327.1,308.1 L329.6,307.7 L335.0,303.7 L339.0,305.5 L339.5,310.7 L344.0,311.2 L343.5,312.6 L350.5,313.7 L353.7,318.9 L353.8,322.8 L352.2,325.9 L355.4,328.4 L359.5,329.8 L364.1,329.6 Z">
  <desc xmlns="http://www.highcharts.com/svg/namespace">
    <labelrank>2</labelrank>
    <hasc>CN.SC</hasc>
    <alt-name>Sìchu?n</alt-name>
    <woe-id>12578016</woe-id>
    <subregion>Western</subregion>
    <fips>CH32</fips>
    <postal-code>SC</postal-code>
    <name>Sichuan</name>
    <country>China</country>
    <type-en>Province</type-en>
    <region>Southwest China</region>
    <longitude>102.384</longitude>
    <woe-name>Sichuan</woe-name>
    <latitude>30.5431</latitude>
    <woe-label>Sichuan, CN, China</woe-label>
    <type>Sh?ng</type>
    <hc-middle-x>0.45</hc-middle-x>
    <hc-middle-y>0.50</hc-middle-y>
    <hc-key>cn-sc</hc-key>
    <hc-a2>SC</hc-a2>
  </desc>
</path>

<path fill="#CEE3F5" stroke="#6E6E6E" stroke-width="0.4" id="CN.SX" d="M427.7,303.0 L426.7,302.2 L427.9,294.3 L431.5,288.5 L429.6,280.3 L430.2,273.6 L428.9,269.1 L432.6,263.3 L434.1,259.1 L433.7,256.1 L431.0,253.2 L431.0,249.4 L435.2,245.7 L437.0,237.4 L439.8,232.8 L438.5,231.7 L441.2,230.8 L443.0,227.7 L446.2,228.5 L448.1,227.2 L450.3,222.4 L453.8,218.1 L457.4,219.9 L460.4,217.1 L463.6,216.2 L464.8,217.7 L473.1,215.1 L474.4,211.2 L475.9,216.8 L478.6,217.6 L473.6,219.8 L471.8,222.4 L477.1,224.7 L478.9,229.7 L477.2,235.2 L475.1,236.8 L470.8,236.7 L470.5,240.7 L467.0,244.8 L467.1,249.1 L470.1,250.6 L472.9,256.7 L473.2,260.5 L469.6,266.2 L469.9,269.6 L466.0,271.9 L467.0,275.7 L469.2,277.6 L467.8,288.2 L465.6,290.5 L459.2,294.2 L448.9,294.2 L448.6,297.0 L446.1,296.4 L442.7,299.6 L430.1,303.5 Z">
  <desc xmlns="http://www.highcharts.com/svg/namespace">
    <labelrank>2</labelrank>
    <hasc>CN.SX</hasc>
    <alt-name>Sh?nx?</alt-name>
    <woe-id>12578013</woe-id>
    <subregion>Central</subregion>
    <fips>CH24</fips>
    <postal-code>SX</postal-code>
    <name>Shanxi</name>
    <country>China</country>
    <type-en>Province</type-en>
    <region>North China</region>
    <longitude>112.389</longitude>
    <woe-name>Shanxi</woe-name>
    <latitude>37.7586</latitude>
    <woe-label>Shanxi, CN, China</woe-label>
    <type>Sh?ng</type>
    <hc-middle-x>0.50</hc-middle-x>
    <hc-middle-y>0.44</hc-middle-y>
    <hc-key>cn-sx</hc-key>
    <hc-a2>SX</hc-a2>
  </desc>
</path>

<path fill="#CEE3F5" stroke="#6E6E6E" stroke-width="0.4" id="CN.HE" d="M427.7,303.0 L430.1,303.5 L442.7,299.6 L446.1,296.4 L448.6,297.0 L448.9,294.2 L459.2,294.2 L465.6,290.5 L467.8,288.2 L469.2,277.6 L472.4,277.6 L479.2,280.8 L486.0,280.1 L490.2,280.5 L488.7,283.9 L495.9,282.4 L487.5,291.5 L483.0,295.1 L482.8,297.5 L486.9,298.6 L490.1,301.0 L491.5,304.0 L498.9,304.0 L502.0,308.3 L503.9,308.1 L505.1,313.0 L499.5,316.6 L496.7,312.4 L492.9,311.8 L491.8,314.0 L492.7,318.5 L489.1,319.9 L489.2,323.6 L486.7,326.0 L483.6,326.1 L487.3,329.3 L487.5,333.3 L492.1,336.0 L495.8,334.1 L496.3,344.9 L491.7,345.8 L489.8,350.5 L486.7,347.9 L485.1,349.6 L479.4,348.2 L479.5,345.8 L474.4,344.2 L472.2,345.7 L470.0,342.4 L469.2,335.9 L466.7,337.6 L460.7,335.7 L457.0,336.8 L451.2,336.7 L445.0,334.2 L438.0,328.0 L435.2,323.0 L435.2,318.2 L430.6,313.9 L431.0,309.7 L427.6,305.0 Z">
  <desc xmlns="http://www.highcharts.com/svg/namespace">
    <labelrank>2</labelrank>
    <hasc>CN.HE</hasc>
    <alt-name>Hénán</alt-name>
    <woe-id>12577999</woe-id>
    <subregion>Central</subregion>
    <fips>CH09</fips>
    <postal-code>HE</postal-code>
    <name>Henan</name>
    <country>China</country>
    <type-en>Province</type-en>
    <region>South Central China</region>
    <longitude>113.484</longitude>
    <woe-name>Henan</woe-name>
    <latitude>33.9055</latitude>
    <woe-label>Henan, CN, China</woe-label>
    <type>Sh?ng</type>
    <hc-middle-x>0.52</hc-middle-x>
    <hc-middle-y>0.47</hc-middle-y>
    <hc-key>cn-he</hc-key>
    <hc-a2>HE</hc-a2>
  </desc>
</path>

<path fill="#CEE3F5" stroke="#6E6E6E" stroke-width="0.4" id="CN.JX" d="M471.6,437.1 L471.4,432.7 L474.7,425.9 L471.6,426.7 L473.7,420.8 L470.8,419.7 L471.2,415.5 L469.4,412.6 L470.7,409.7 L467.4,409.4 L466.9,406.2 L469.2,400.5 L471.5,399.9 L475.5,394.3 L473.3,392.1 L474.4,388.8 L471.3,384.8 L475.7,382.1 L483.0,380.0 L483.8,378.1 L488.7,376.7 L491.4,373.1 L496.1,374.9 L499.8,374.1 L504.2,372.6 L506.1,370.2 L509.2,372.0 L506.5,375.2 L507.2,377.4 L511.7,375.0 L511.5,373.2 L515.8,373.2 L517.4,376.2 L523.2,376.8 L525.7,379.1 L523.6,383.0 L529.2,389.4 L529.6,395.3 L528.7,398.0 L521.7,400.6 L520.8,402.4 L517.7,400.2 L514.8,401.9 L512.7,406.1 L513.3,410.3 L510.4,414.0 L507.1,414.6 L505.1,418.9 L506.6,421.7 L503.8,424.7 L502.9,429.6 L500.4,430.9 L498.5,438.3 L496.7,440.6 L497.4,444.6 L495.7,445.9 L495.0,450.0 L491.2,446.6 L483.9,449.4 L478.2,450.7 L474.8,448.3 L478.0,443.8 L482.2,441.6 L480.0,437.7 L472.9,439.7 Z">
  <desc xmlns="http://www.highcharts.com/svg/namespace">
    <labelrank>2</labelrank>
    <hasc>CN.JX</hasc>
    <alt-name>Ji?ngx?</alt-name>
    <woe-id>12577993</woe-id>
    <subregion>Central</subregion>
    <fips>CH03</fips>
    <postal-code>JX</postal-code>
    <name>Jiangxi</name>
    <country>China</country>
    <type-en>Province</type-en>
    <region>East China</region>
    <longitude>116.017</longitude>
    <woe-name>Jiangxi</woe-name>
    <latitude>27.6397</latitude>
    <woe-label>Jiangxi, CN, China</woe-label>
    <type>Sh?ng</type>
    <hc-middle-x>0.50</hc-middle-x>
    <hc-middle-y>0.37</hc-middle-y>
    <hc-key>cn-jx</hc-key>
    <hc-a2>JX</hc-a2>
  </desc>
</path>

<path fill="#CEE3F5" stroke="#6E6E6E" stroke-width="0.4" id="CN.NM" d="M474.4,211.2 L473.1,215.1 L464.8,217.7 L463.6,216.2 L460.4,217.1 L457.4,219.9 L453.8,218.1 L450.3,222.4 L448.1,227.2 L446.2,228.5 L443.0,227.7 L441.2,230.8 L438.5,231.7 L438.7,228.7 L435.4,230.4 L432.9,233.7 L431.2,231.7 L427.4,232.9 L421.4,237.0 L412.9,246.9 L412.4,253.1 L411.0,252.1 L410.0,256.7 L401.3,257.1 L400.1,254.8 L396.9,253.6 L393.9,252.5 L391.1,249.1 L387.2,248.7 L383.0,246.4 L389.5,235.4 L387.5,230.4 L381.7,231.2 L379.4,233.7 L375.7,241.8 L374.5,253.3 L369.3,253.9 L364.2,256.7 L358.0,257.0 L357.1,258.5 L354.2,257.4 L349.3,252.3 L346.5,251.1 L346.2,247.2 L347.8,246.7 L347.5,242.2 L351.5,240.1 L357.1,232.9 L355.4,227.7 L351.8,227.5 L346.2,229.1 L342.2,231.5 L335.6,229.2 L328.7,231.4 L330.9,234.3 L328.4,237.0 L322.3,235.3 L321.1,231.4 L317.4,228.9 L317.4,225.6 L314.1,224.9 L310.3,220.2 L304.6,217.0 L301.6,216.7 L307.6,212.2 L311.6,206.2 L309.8,201.8 L299.8,201.8 L295.8,203.1 L293.5,205.3 L288.6,205.2 L290.2,200.6 L286.2,196.1 L283.2,190.6 L285.8,188.3 L280.1,169.5 L305.9,175.5 L312.3,174.3 L325.8,177.8 L330.6,178.4 L334.8,183.8 L346.5,187.5 L353.7,191.8 L362.8,190.6 L362.6,193.8 L368.5,195.2 L370.8,193.0 L389.3,185.5 L405.6,183.6 L412.7,184.7 L420.7,184.2 L422.8,182.7 L431.4,179.5 L437.6,171.5 L445.2,167.9 L449.1,165.3 L448.0,161.5 L443.1,155.0 L447.1,145.2 L450.2,143.3 L455.0,144.0 L456.7,146.0 L462.5,148.1 L468.5,148.9 L473.2,145.8 L477.3,141.7 L478.6,138.7 L483.1,138.9 L490.9,137.7 L496.8,133.4 L497.3,130.2 L501.5,123.8 L503.7,122.5 L509.3,123.0 L510.2,119.4 L513.6,120.3 L519.5,116.8 L524.9,117.3 L525.9,116.0 L531.5,118.2 L535.6,118.3 L538.0,116.4 L537.7,113.2 L535.5,109.2 L530.7,105.2 L528.4,101.3 L524.9,99.8 L522.3,96.5 L518.4,95.6 L512.9,96.9 L509.5,101.9 L503.9,98.4 L497.2,98.7 L492.9,101.3 L489.7,97.6 L489.1,94.6 L492.3,92.0 L492.2,87.8 L501.5,66.4 L505.5,68.8 L513.1,71.3 L517.5,68.5 L522.5,63.7 L527.3,63.0 L529.6,61.2 L529.9,56.9 L527.6,56.5 L531.2,50.3 L531.3,47.5 L533.7,44.4 L537.1,34.4 L541.8,30.1 L543.9,26.4 L542.1,22.6 L543.0,19.2 L539.8,17.7 L536.0,18.5 L535.6,15.7 L538.1,13.8 L544.0,6.4 L549.6,5.5 L553.8,10.4 L547.7,18.1 L556.7,23.0 L558.2,19.5 L564.8,24.0 L563.4,25.9 L564.6,32.5 L567.4,37.7 L574.1,40.4 L577.1,38.4 L582.3,38.6 L587.2,36.8 L590.1,32.4 L594.1,34.0 L600.7,42.4 L597.8,46.4 L598.6,49.6 L596.0,52.4 L593.8,59.1 L593.4,64.9 L594.2,68.7 L593.3,73.5 L590.1,73.3 L587.3,83.5 L587.2,91.1 L584.0,84.4 L573.5,96.8 L566.7,101.7 L565.1,105.1 L567.2,108.2 L574.3,113.8 L576.3,111.5 L578.9,113.3 L576.7,116.3 L572.4,116.7 L572.4,119.6 L574.5,122.5 L570.6,124.8 L569.9,130.8 L566.2,127.3 L564.6,129.6 L561.7,127.0 L558.0,131.0 L561.3,131.7 L564.9,137.9 L562.6,140.7 L563.3,147.4 L567.4,154.7 L575.3,149.4 L575.6,151.3 L580.9,162.2 L579.5,166.1 L583.2,167.5 L582.5,171.8 L577.7,174.2 L577.2,176.0 L572.7,177.6 L569.7,176.1 L567.8,179.5 L564.9,178.4 L560.5,182.7 L557.3,182.2 L553.6,186.1 L549.0,187.8 L542.4,195.1 L542.3,192.7 L536.6,185.0 L533.0,187.9 L534.5,189.3 L533.9,194.3 L535.1,199.0 L533.3,202.1 L527.5,201.1 L523.1,201.4 L520.7,195.6 L522.5,193.3 L520.3,190.9 L518.9,185.4 L516.1,181.9 L513.1,181.8 L511.8,184.3 L505.8,185.4 L505.6,191.3 L502.6,192.8 L500.0,191.5 L496.1,194.8 L494.0,192.9 L488.1,196.1 L486.8,198.2 L482.9,197.9 L483.2,192.8 L481.9,189.1 L478.1,190.7 L475.5,194.0 L474.9,198.1 L471.7,200.8 L472.2,204.9 L470.5,205.8 Z">
  <desc xmlns="http://www.highcharts.com/svg/namespace">
    <labelrank>2</labelrank>
    <hasc>CN.NM</hasc>
    <alt-name>Nei Mongol|Nèim?ngg?</alt-name>
    <woe-id>12578009</woe-id>
    <subregion>Western</subregion>
    <fips>CH20</fips>
    <postal-code>NM</postal-code>
    <name>Inner Mongol</name>
    <country>China</country>
    <type-en>Autonomous Region</type-en>
    <region>North China</region>
    <longitude>111.623</longitude>
    <woe-name>Inner Mongol</woe-name>
    <latitude>41.5938</latitude>
    <woe-label>Nei Mongol, CN, China</woe-label>
    <type>Zìzhìqu</type>
    <hc-middle-x>0.68</hc-middle-x>
    <hc-middle-y>0.61</hc-middle-y>
    <hc-key>cn-nm</hc-key>
    <hc-a2>NM</hc-a2>
  </desc>
</path>

<path fill="#CEE3F5" stroke="#6E6E6E" stroke-width="0.4" id="CN.GX" d="M360.0,467.0 L364.6,462.1 L368.3,462.0 L369.4,457.3 L367.3,453.7 L364.2,454.8 L359.7,454.4 L356.1,452.3 L355.6,448.8 L350.9,447.7 L348.8,448.5 L348.3,443.6 L350.7,445.3 L357.0,440.2 L361.1,443.2 L367.7,446.1 L369.7,441.6 L380.9,437.8 L380.7,435.2 L384.3,433.6 L387.4,438.7 L389.4,437.5 L392.1,439.9 L395.7,438.3 L398.0,434.4 L401.5,436.3 L403.3,433.7 L407.8,434.7 L406.7,431.3 L411.2,431.9 L413.4,427.7 L417.5,429.7 L419.6,425.6 L423.7,428.9 L427.8,423.7 L432.0,424.8 L432.9,423.1 L436.8,424.8 L436.0,429.4 L439.3,429.9 L437.5,436.0 L433.2,441.0 L433.6,444.4 L436.9,441.1 L438.8,441.7 L439.9,448.4 L441.9,446.5 L446.2,447.2 L446.8,452.3 L444.5,454.4 L444.9,457.7 L441.6,460.0 L438.0,465.8 L437.3,473.3 L432.9,477.1 L428.3,479.3 L429.5,482.2 L427.7,483.6 L423.5,483.4 L424.0,487.5 L418.5,487.9 L415.5,492.0 L412.1,490.1 L412.5,493.1 L407.2,494.3 L407.3,491.4 L402.1,490.5 L398.2,487.3 L399.0,491.2 L396.4,489.5 L395.8,491.8 L392.2,492.8 L388.6,489.9 L383.3,490.6 L378.6,486.8 L379.0,485.7 L374.2,484.5 L374.5,481.2 L372.8,478.2 L376.0,473.8 L372.6,471.0 L370.3,471.9 L366.2,470.0 L364.2,470.9 Z">
  <desc xmlns="http://www.highcharts.com/svg/namespace">
    <labelrank>2</labelrank>
    <hasc>CN.GX</hasc>
    <alt-name>Guangxi Zhuang|Guangxi Zhuàngzú</alt-name>
    <woe-id>12578006</woe-id>
    <subregion>Western</subregion>
    <fips>CH16</fips>
    <postal-code>GX</postal-code>
    <name>Guangxi</name>
    <country>China</country>
    <type-en>Autonomous Region</type-en>
    <region>South Central China</region>
    <longitude>108.756</longitude>
    <woe-name>Guangxi</woe-name>
    <latitude>23.7451</latitude>
    <woe-label>Guangxi, CN, China</woe-label>
    <type>Zìzhìqu</type>
    <hc-middle-x>0.58</hc-middle-x>
    <hc-middle-y>0.56</hc-middle-y>
    <hc-key>cn-gx</hc-key>
    <hc-a2>GX</hc-a2>
  </desc>
</path>

<path fill="#CEE3F5" stroke="#6E6E6E" stroke-width="0.4" id="CN.HL" d="M574.5,122.5 L572.4,119.6 L572.4,116.7 L576.7,116.3 L578.9,113.3 L576.3,111.5 L574.3,113.8 L567.2,108.2 L565.1,105.1 L566.7,101.7 L573.5,96.8 L584.0,84.4 L587.2,91.1 L587.3,83.5 L590.1,73.3 L593.3,73.5 L594.2,68.7 L593.4,64.9 L593.8,59.1 L596.0,52.4 L598.6,49.6 L597.8,46.4 L600.7,42.4 L594.1,34.0 L590.1,32.4 L587.2,36.8 L582.3,38.6 L577.1,38.4 L574.1,40.4 L567.4,37.7 L564.6,32.5 L563.4,25.9 L564.8,24.0 L558.2,19.5 L556.7,23.0 L547.7,18.1 L553.8,10.4 L549.6,5.5 L559.0,2.0 L564.4,2.0 L568.4,0.1 L572.2,0.0 L578.8,2.8 L580.7,5.2 L585.7,5.9 L588.2,5.2 L594.8,8.6 L598.7,13.5 L604.2,22.2 L603.6,25.1 L606.5,31.6 L609.1,34.6 L609.9,40.3 L614.1,45.2 L615.2,52.2 L618.0,53.8 L617.8,60.5 L621.6,64.0 L624.5,64.6 L632.0,63.4 L631.6,64.9 L635.4,66.7 L639.8,65.3 L644.8,71.0 L648.8,73.5 L653.3,72.9 L652.2,76.9 L655.9,81.5 L654.8,86.3 L659.2,91.9 L663.4,90.4 L665.2,91.4 L675.5,89.6 L676.7,85.5 L680.9,82.4 L685.0,82.2 L687.5,79.4 L694.4,76.2 L698.1,77.7 L697.1,81.5 L700.0,86.5 L697.4,91.5 L694.2,94.7 L693.6,105.1 L692.4,107.6 L693.4,111.0 L691.3,113.2 L689.5,122.4 L686.6,125.1 L686.9,130.1 L684.0,131.5 L682.3,128.6 L676.3,128.0 L674.2,129.9 L672.1,128.5 L668.3,134.9 L663.0,137.3 L664.8,139.6 L668.1,149.2 L667.5,153.6 L668.9,158.4 L664.2,159.2 L659.1,156.3 L657.1,151.8 L655.3,153.9 L652.9,151.3 L651.3,153.8 L645.7,155.8 L645.8,158.6 L641.9,159.7 L636.1,150.8 L634.6,145.5 L631.3,148.3 L631.7,151.7 L629.5,153.0 L625.0,147.8 L625.5,145.1 L623.4,144.1 L619.7,145.2 L619.6,139.9 L618.0,136.9 L613.4,135.4 L609.0,137.4 L605.4,136.2 L603.5,131.9 L600.0,134.0 L588.8,133.8 L584.5,129.2 L583.2,120.8 Z">
  <desc xmlns="http://www.highcharts.com/svg/namespace">
    <labelrank>2</labelrank>
    <hasc>CN.HL</hasc>
    <alt-name>H?ilóngji?ng</alt-name>
    <woe-id>12577998</woe-id>
    <subregion>Northeast</subregion>
    <fips>CH08</fips>
    <postal-code>HL</postal-code>
    <name>Heilongjiang</name>
    <country>China</country>
    <type-en>Province</type-en>
    <region>Northeast China</region>
    <longitude>127.97</longitude>
    <woe-name>Heilongjiang</woe-name>
    <latitude>46.8451</latitude>
    <woe-label>Heilongjiang, CN, China</woe-label>
    <type>Sh?ng</type>
    <hc-middle-x>0.53</hc-middle-x>
    <hc-middle-y>0.69</hc-middle-y>
    <hc-key>cn-hl</hc-key>
    <hc-a2>HL</hc-a2>
  </desc>
</path>

<path fill="#CEE3F5" stroke="#6E6E6E" stroke-width="0.4" id="CN.FJ" d="M497.4,444.6 L496.7,440.6 L498.5,438.3 L500.4,430.9 L502.9,429.6 L503.8,424.7 L506.6,421.7 L505.1,418.9 L507.1,414.6 L510.4,414.0 L513.3,410.3 L512.7,406.1 L514.8,401.9 L517.7,400.2 L520.8,402.4 L521.7,400.6 L528.7,398.0 L529.6,395.3 L533.3,394.6 L533.6,399.7 L536.0,406.8 L540.5,407.4 L544.1,403.7 L547.1,408.8 L554.4,407.6 L555.5,410.0 L553.3,411.2 L553.9,414.0 L550.6,415.2 L548.5,418.3 L547.7,415.6 L546.0,420.6 L546.3,423.8 L543.7,428.2 L546.9,428.0 L545.5,432.4 L549.3,434.1 L547.9,436.3 L544.3,437.0 L542.5,434.5 L539.3,436.4 L542.7,438.6 L537.8,438.4 L536.3,441.2 L538.2,443.2 L534.5,444.9 L533.7,448.9 L530.8,448.0 L525.9,451.5 L527.0,453.5 L524.0,456.9 L522.2,456.3 L520.1,461.2 L518.8,459.2 L517.5,462.1 L516.1,460.5 L514.6,463.0 L512.8,461.3 L511.7,454.9 L508.7,449.7 L505.8,448.8 L503.7,445.6 Z">
  <desc xmlns="http://www.highcharts.com/svg/namespace">
    <labelrank>2</labelrank>
    <hasc>CN.FJ</hasc>
    <alt-name>Fújiàn</alt-name>
    <woe-id>12577997</woe-id>
    <subregion>NULL</subregion>
    <fips>CH07</fips>
    <postal-code>FJ</postal-code>
    <name>Fujian</name>
    <country>China</country>
    <type-en>Province</type-en>
    <region>NULL</region>
    <longitude>118.178</longitude>
    <woe-name>Fujian</woe-name>
    <latitude>26.408</latitude>
    <woe-label>Fujian, CN, China</woe-label>
    <type>Sh?ng</type>
    <hc-middle-x>0.58</hc-middle-x>
    <hc-middle-y>0.37</hc-middle-y>
    <hc-key>cn-fj</hc-key>
    <hc-a2>FJ</hc-a2>
  </desc>
</path>

<path fill="#CEE3F5" stroke="#6E6E6E" stroke-width="0.4" id="CN.GD" d="M415.5,492.0 L418.5,487.9 L424.0,487.5 L423.5,483.4 L427.7,483.6 L429.5,482.2 L428.3,479.3 L432.9,477.1 L437.3,473.3 L438.0,465.8 L441.6,460.0 L444.9,457.7 L444.5,454.4 L446.8,452.3 L446.2,447.2 L448.2,446.4 L448.8,441.2 L455.1,441.8 L456.9,444.3 L459.3,444.0 L458.3,438.9 L462.3,436.2 L467.1,438.8 L471.6,437.1 L472.9,439.7 L480.0,437.7 L482.2,441.6 L478.0,443.8 L474.8,448.3 L478.2,450.7 L483.9,449.4 L491.2,446.6 L495.0,450.0 L495.7,445.9 L497.4,444.6 L503.7,445.6 L505.8,448.8 L508.7,449.7 L511.7,454.9 L512.8,461.3 L514.6,463.0 L513.2,462.5 L509.4,467.0 L506.0,466.1 L507.3,468.6 L505.8,472.9 L503.2,472.6 L496.9,475.8 L495.0,473.8 L492.9,475.9 L486.8,475.2 L484.3,478.6 L483.0,474.9 L480.1,476.1 L479.5,480.1 L477.8,477.8 L471.1,480.2 L469.2,475.7 L463.9,473.9 L467.7,477.2 L465.8,484.2 L461.8,487.1 L460.3,483.6 L459.6,487.2 L456.9,487.1 L453.5,489.9 L449.0,490.7 L445.9,489.3 L440.7,493.2 L433.5,493.9 L428.3,495.6 L425.7,501.2 L422.2,500.8 L422.6,505.4 L425.7,508.0 L423.8,510.5 L417.2,511.1 L415.5,502.8 L414.1,501.3 L415.6,495.2 L418.1,493.2 Z">
  <desc xmlns="http://www.highcharts.com/svg/namespace">
    <labelrank>2</labelrank>
    <hasc>CN.GD</hasc>
    <alt-name>Gu?ngd?ng</alt-name>
    <woe-id>12578019</woe-id>
    <subregion>NULL</subregion>
    <fips>CH30</fips>
    <postal-code>GD</postal-code>
    <name>Guangdong</name>
    <country>China</country>
    <type-en>Province</type-en>
    <region>South Central China</region>
    <longitude>113.72</longitude>
    <woe-name>Guangdong</woe-name>
    <latitude>23.7924</latitude>
    <woe-label>Guangdong, CN, China</woe-label>
    <type>Sh?ng</type>
    <hc-middle-x>0.47</hc-middle-x>
    <hc-middle-y>0.32</hc-middle-y>
    <hc-key>cn-gd</hc-key>
    <hc-a2>GD</hc-a2>
  </desc>
</path>

<path fill="#CEE3F5" stroke="#6E6E6E" stroke-width="0.4" id="CN.BJ" d="M510.6,220.8 L505.0,222.1 L507.0,225.3 L506.4,227.1 L505.8,228.1 L505.5,228.4 L503.2,228.3 L500.7,230.9 L498.6,228.9 L493.3,230.0 L489.8,228.0 L490.9,225.4 L489.3,223.1 L494.2,220.0 L495.4,218.0 L492.8,214.2 L503.7,207.9 L508.3,211.9 L513.3,212.0 L509.8,214.6 L511.9,218.3 L511.4,220.5 Z">
  <desc xmlns="http://www.highcharts.com/svg/namespace">
    <labelrank>7</labelrank>
    <hasc>CN.BJ</hasc>
    <alt-name>B?ij?ng</alt-name>
    <woe-id>12578011</woe-id>
    <subregion>NULL</subregion>
    <fips>CH22</fips>
    <postal-code>BJ</postal-code>
    <name>Beijing</name>
    <country>China</country>
    <type-en>Municipality</type-en>
    <region>North China</region>
    <longitude>116.389</longitude>
    <woe-name>Beijing</woe-name>
    <latitude>39.9488</latitude>
    <woe-label>Beijing, CN, China</woe-label>
    <type>Zhíxiáshì</type>
    <hc-middle-x>0.49</hc-middle-x>
    <hc-middle-y>0.53</hc-middle-y>
    <hc-key>cn-bj</hc-key>
    <hc-a2>BJ</hc-a2>
  </desc>
</path>

<path fill="#CEE3F5" stroke="#6E6E6E" stroke-width="0.4" id="CN.HB" d="M506.4,227.1 L507.0,225.3 L505.0,222.1 L510.6,220.8 L509.7,228.1 Z M511.9,218.3 L509.8,214.6 L513.3,212.0 L508.3,211.9 L503.7,207.9 L492.8,214.2 L495.4,218.0 L494.2,220.0 L489.3,223.1 L490.9,225.4 L489.8,228.0 L493.3,230.0 L498.6,228.9 L500.7,230.9 L503.2,228.3 L505.5,228.4 L506.8,235.9 L504.7,237.4 L504.7,240.3 L511.4,244.1 L514.6,243.1 L516.8,246.7 L518.2,248.3 L513.4,254.8 L506.0,255.0 L501.6,260.6 L496.3,263.0 L492.2,271.0 L490.4,271.6 L488.0,275.8 L490.2,280.5 L486.0,280.1 L479.2,280.8 L472.4,277.6 L469.2,277.6 L467.0,275.7 L466.0,271.9 L469.9,269.6 L469.6,266.2 L473.2,260.5 L472.9,256.7 L470.1,250.6 L467.1,249.1 L467.0,244.8 L470.5,240.7 L470.8,236.7 L475.1,236.8 L477.2,235.2 L478.9,229.7 L477.1,224.7 L471.8,222.4 L473.6,219.8 L478.6,217.6 L475.9,216.8 L474.4,211.2 L470.5,205.8 L472.2,204.9 L471.7,200.8 L474.9,198.1 L475.5,194.0 L478.1,190.7 L481.9,189.1 L483.2,192.8 L482.9,197.9 L486.8,198.2 L488.1,196.1 L494.0,192.9 L496.1,194.8 L500.0,191.5 L502.6,192.8 L505.6,191.3 L505.8,185.4 L511.8,184.3 L513.1,181.8 L516.1,181.9 L518.9,185.4 L520.3,190.9 L522.5,193.3 L520.7,195.6 L523.1,201.4 L527.5,201.1 L533.3,202.1 L530.1,206.1 L529.2,209.2 L534.4,213.5 L537.6,213.2 L538.6,218.2 L541.2,221.6 L537.6,223.1 L535.4,225.9 L535.1,230.2 L531.8,234.0 L526.1,234.8 L522.7,236.3 L519.9,233.9 L518.4,228.7 L515.2,228.4 L513.7,222.3 L516.6,221.1 Z">
  <desc xmlns="http://www.highcharts.com/svg/namespace">
    <labelrank>2</labelrank>
    <hasc>CN.HB</hasc>
    <alt-name>Héb?i</alt-name>
    <woe-id>12578000</woe-id>
    <subregion>NULL</subregion>
    <fips>CH10</fips>
    <postal-code>HB</postal-code>
    <name>Hebei</name>
    <country>China</country>
    <type-en>Province</type-en>
    <region>North China</region>
    <longitude>115.314</longitude>
    <woe-name>Hebei</woe-name>
    <latitude>38.5205</latitude>
    <woe-label>Hebei, CN, China</woe-label>
    <type>Sh?ng</type>
    <hc-middle-x>0.28</hc-middle-x>
    <hc-middle-y>0.63</hc-middle-y>
    <hc-key>cn-hb</hc-key>
    <hc-a2>HB</hc-a2>
  </desc>
</path>

<path fill="#CEE3F5" stroke="#6E6E6E" stroke-width="0.4" id="CN.LN" d="M541.2,221.6 L538.6,218.2 L537.6,213.2 L534.4,213.5 L529.2,209.2 L530.1,206.1 L533.3,202.1 L535.1,199.0 L533.9,194.3 L534.5,189.3 L533.0,187.9 L536.6,185.0 L542.3,192.7 L542.4,195.1 L549.0,187.8 L553.6,186.1 L557.3,182.2 L560.5,182.7 L564.9,178.4 L567.8,179.5 L569.7,176.1 L572.7,177.6 L577.2,176.0 L577.7,174.2 L582.5,171.8 L583.2,167.5 L583.7,165.6 L590.0,169.0 L592.6,174.7 L595.6,170.5 L596.9,173.9 L603.1,184.7 L604.8,184.8 L602.9,187.9 L603.4,192.2 L605.4,193.7 L609.3,200.1 L607.3,203.7 L608.9,204.5 L605.7,208.2 L599.9,210.9 L594.0,217.3 L591.4,221.4 L582.9,222.6 L578.5,224.5 L571.6,229.0 L565.4,236.3 L557.4,240.0 L556.8,236.8 L563.3,234.3 L562.2,232.8 L564.3,229.9 L558.6,229.9 L558.6,226.8 L561.4,225.5 L561.1,222.6 L565.0,220.5 L569.6,212.4 L564.1,207.6 L556.1,206.6 L549.1,214.9 L548.0,218.1 Z">
  <desc xmlns="http://www.highcharts.com/svg/namespace">
    <labelrank>2</labelrank>
    <hasc>CN.LN</hasc>
    <alt-name>Liáoníng</alt-name>
    <woe-id>12578008</woe-id>
    <subregion>Northeast</subregion>
    <fips>CH19</fips>
    <postal-code>LN</postal-code>
    <name>Liaoning</name>
    <country>China</country>
    <type-en>Province</type-en>
    <region>Northeast China</region>
    <longitude>123.07</longitude>
    <woe-name>Liaoning</woe-name>
    <latitude>41.386</latitude>
    <woe-label>Liaoning, CN, China</woe-label>
    <type>Sh?ng</type>
    <hc-middle-x>0.64</hc-middle-x>
    <hc-middle-y>0.39</hc-middle-y>
    <hc-key>cn-ln</hc-key>
    <hc-a2>LN</hc-a2>
  </desc>
</path>

<path fill="#CEE3F5" stroke="#6E6E6E" stroke-width="0.4" id="CN.SD" d="M501.7,302.9 L500.3,303.9 L498.9,304.0 L491.5,304.0 L490.1,301.0 L486.9,298.6 L482.8,297.5 L483.0,295.1 L487.5,291.5 L495.9,282.4 L488.7,283.9 L490.2,280.5 L488.0,275.8 L490.4,271.6 L492.2,271.0 L496.3,263.0 L501.6,260.6 L506.0,255.0 L513.4,254.8 L518.2,248.3 L521.2,250.2 L526.7,251.1 L530.2,249.8 L535.4,256.8 L532.8,256.2 L532.2,262.8 L537.9,265.0 L541.9,264.4 L542.8,261.3 L548.0,256.5 L553.0,253.7 L560.8,256.8 L563.5,259.4 L569.7,257.0 L570.6,259.2 L576.6,259.0 L576.1,262.3 L572.7,268.0 L569.2,265.8 L554.0,274.3 L553.6,279.1 L549.5,280.8 L549.5,278.5 L546.5,278.4 L547.6,282.3 L544.3,287.2 L541.2,287.9 L537.0,295.6 L532.0,296.3 L530.8,300.6 L527.4,301.6 L526.4,305.3 L523.7,306.0 L522.1,302.3 L519.0,302.4 L518.8,304.3 L515.1,305.1 L513.4,303.5 L511.6,305.5 L507.1,298.1 L502.8,299.1 Z">
  <desc xmlns="http://www.highcharts.com/svg/namespace">
    <labelrank>2</labelrank>
    <hasc>CN.SD</hasc>
    <alt-name>Sh?nd?ng</alt-name>
    <woe-id>12578014</woe-id>
    <subregion>NULL</subregion>
    <fips>CH25</fips>
    <postal-code>SD</postal-code>
    <name>Shandong</name>
    <country>China</country>
    <type-en>Province</type-en>
    <region>East China</region>
    <longitude>118.114</longitude>
    <woe-name>Shandong</woe-name>
    <latitude>36.3271</latitude>
    <woe-label>Shandong, CN, China</woe-label>
    <type>Sh?ng</type>
    <hc-middle-x>0.38</hc-middle-x>
    <hc-middle-y>0.52</hc-middle-y>
    <hc-key>cn-sd</hc-key>
    <hc-a2>SD</hc-a2>
  </desc>
</path>

<path fill="#CEE3F5" stroke="#6E6E6E" stroke-width="0.4" id="CN.TJ" d="M514.6,243.1 L511.4,244.1 L504.7,240.3 L504.7,237.4 L506.8,235.9 L505.5,228.4 L505.8,228.1 L506.4,227.1 L509.7,228.1 L510.6,220.8 L511.4,220.5 L511.9,218.3 L516.6,221.1 L513.7,222.3 L515.2,228.4 L518.4,228.7 L519.9,233.9 L516.5,235.6 L517.9,237.5 L515.0,240.2 Z">
  <desc xmlns="http://www.highcharts.com/svg/namespace">
    <labelrank>7</labelrank>
    <hasc>CN.TJ</hasc>
    <alt-name>Ti?nj?n</alt-name>
    <woe-id>12578017</woe-id>
    <subregion>NULL</subregion>
    <fips>CH28</fips>
    <postal-code>TJ</postal-code>
    <name>Tianjin</name>
    <country>China</country>
    <type-en>Municipality</type-en>
    <region>North China</region>
    <longitude>117.347</longitude>
    <woe-name>Tianjin</woe-name>
    <latitude>39.3708</latitude>
    <woe-label>Tianjin, CN, China</woe-label>
    <type>Zhíxiáshì</type>
    <hc-middle-x>0.82</hc-middle-x>
    <hc-middle-y>0.63</hc-middle-y>
    <hc-key>cn-tj</hc-key>
    <hc-a2>TJ</hc-a2>
  </desc>
</path>

<path fill="#CEE3F5" stroke="#6E6E6E" stroke-width="0.4" id="CN.JS" d="M543.3,353.4 L539.7,351.3 L533.0,352.4 L532.2,350.5 L533.4,346.5 L528.5,344.3 L526.9,342.0 L530.5,337.7 L529.2,332.8 L533.4,332.3 L535.8,334.5 L537.2,332.2 L536.6,329.0 L532.8,326.8 L531.2,330.4 L527.2,330.5 L525.1,327.8 L524.8,324.0 L521.2,323.3 L524.1,316.5 L523.4,315.4 L518.5,316.1 L517.1,312.0 L509.8,309.9 L508.7,306.5 L506.9,306.4 L501.7,302.9 L502.8,299.1 L507.1,298.1 L511.6,305.5 L513.4,303.5 L515.1,305.1 L518.8,304.3 L519.0,302.4 L522.1,302.3 L523.7,306.0 L526.4,305.3 L527.4,301.6 L530.8,300.6 L532.0,296.3 L537.0,295.6 L536.1,300.9 L537.9,299.9 L541.7,303.2 L549.3,306.5 L552.5,316.1 L558.0,325.3 L557.8,330.3 L564.5,334.2 L565.4,338.2 L570.2,340.3 L570.4,344.1 L563.6,341.5 L559.8,342.8 L557.6,339.9 L556.9,343.1 L562.0,344.6 L564.5,347.3 L562.6,347.9 L559.4,354.6 L554.3,358.4 L552.6,355.9 L549.7,356.0 L547.1,353.1 Z">
  <desc xmlns="http://www.highcharts.com/svg/namespace">
    <labelrank>2</labelrank>
    <hasc>CN.JS</hasc>
    <alt-name>Ji?ngs?</alt-name>
    <woe-id>12577994</woe-id>
    <subregion>NULL</subregion>
    <fips>CH04</fips>
    <postal-code>JS</postal-code>
    <name>Jiangsu</name>
    <country>China</country>
    <type-en>Province</type-en>
    <region>East China</region>
    <longitude>119.942</longitude>
    <woe-name>Jiangsu</woe-name>
    <latitude>32.9844</latitude>
    <woe-label>Jiangsu, CN, China</woe-label>
    <type>Sh?ng</type>
    <hc-middle-x>0.54</hc-middle-x>
    <hc-middle-y>0.39</hc-middle-y>
    <hc-key>cn-js</hc-key>
    <hc-a2>JS</hc-a2>
  </desc>
</path>

<path fill="#CEE3F5" stroke="#6E6E6E" stroke-width="0.4" id="CN.QH" d="M321.8,313.8 L319.7,319.5 L317.4,317.8 L313.8,319.1 L313.4,325.5 L307.2,325.1 L306.1,328.4 L303.9,323.7 L301.0,323.1 L297.6,319.2 L295.2,323.1 L290.4,320.6 L285.4,315.9 L283.5,308.3 L281.5,305.6 L276.5,303.4 L272.8,304.4 L272.4,302.3 L268.3,303.9 L268.0,307.7 L271.8,311.1 L268.7,313.9 L266.6,318.1 L267.1,321.1 L270.4,323.7 L266.0,323.9 L264.0,330.0 L257.4,330.9 L257.7,334.6 L253.9,333.6 L251.6,331.1 L249.0,333.9 L241.6,332.4 L240.2,329.1 L241.3,327.2 L237.1,324.2 L231.9,317.5 L225.8,319.6 L221.3,317.7 L218.4,318.1 L212.6,314.1 L203.0,312.7 L195.3,306.6 L193.6,302.6 L191.5,302.3 L186.4,304.5 L179.6,299.6 L174.2,288.4 L177.4,284.8 L176.8,279.1 L177.9,276.5 L175.3,275.7 L175.2,269.9 L178.4,268.8 L180.0,263.3 L176.1,260.3 L179.2,259.3 L190.6,260.6 L193.4,262.6 L196.8,261.1 L196.0,255.5 L192.7,252.0 L194.5,249.1 L200.5,248.4 L199.0,241.0 L192.0,235.5 L192.6,232.3 L190.1,225.3 L196.6,222.6 L204.3,222.6 L211.4,221.6 L217.1,219.7 L224.3,219.1 L233.9,218.0 L242.7,218.9 L249.2,222.3 L252.2,222.1 L260.1,230.7 L265.2,233.3 L265.2,234.5 L270.1,236.7 L272.4,224.2 L276.3,225.3 L284.5,231.3 L287.4,228.4 L290.6,229.8 L292.9,228.2 L296.4,231.3 L303.9,239.9 L308.0,242.7 L308.1,238.5 L312.7,242.4 L313.5,244.7 L318.2,247.2 L326.5,254.6 L328.5,251.5 L329.4,255.4 L335.2,260.6 L333.9,263.6 L336.3,266.1 L335.4,268.2 L337.6,273.3 L340.1,275.1 L338.7,277.0 L338.9,280.8 L335.6,280.5 L335.1,285.3 L330.2,286.5 L331.0,289.6 L322.9,296.4 L327.5,299.9 L328.1,302.1 L322.5,305.8 L320.6,303.9 L312.5,300.3 L310.5,303.6 L314.2,308.4 L314.4,311.2 L318.6,310.9 L319.8,313.9 Z">
  <desc xmlns="http://www.highcharts.com/svg/namespace">
    <labelrank>2</labelrank>
    <hasc>CN.QH</hasc>
    <alt-name>NULL</alt-name>
    <woe-id>12577996</woe-id>
    <subregion>Western</subregion>
    <fips>NULL</fips>
    <postal-code>QH</postal-code>
    <name>Qinghai</name>
    <country>China</country>
    <type-en>Province</type-en>
    <region>Northwest China</region>
    <longitude>96.2377</longitude>
    <woe-name>Qinghai</woe-name>
    <latitude>35.2652</latitude>
    <woe-label>Qinghai, CN, China</woe-label>
    <type>Sh?ng</type>
    <hc-middle-x>0.47</hc-middle-x>
    <hc-middle-y>0.47</hc-middle-y>
    <hc-key>cn-qh</hc-key>
    <hc-a2>QH</hc-a2>
  </desc>
</path>

<path fill="#CEE3F5" stroke="#6E6E6E" stroke-width="0.4" id="CN.GS" d="M321.8,313.8 L319.8,313.9 L318.6,310.9 L314.4,311.2 L314.2,308.4 L310.5,303.6 L312.5,300.3 L320.6,303.9 L322.5,305.8 L328.1,302.1 L327.5,299.9 L322.9,296.4 L331.0,289.6 L330.2,286.5 L335.1,285.3 L335.6,280.5 L338.9,280.8 L338.7,277.0 L340.1,275.1 L337.6,273.3 L335.4,268.2 L336.3,266.1 L333.9,263.6 L335.2,260.6 L329.4,255.4 L328.5,251.5 L326.5,254.6 L318.2,247.2 L313.5,244.7 L312.7,242.4 L308.1,238.5 L308.0,242.7 L303.9,239.9 L296.4,231.3 L292.9,228.2 L290.6,229.8 L287.4,228.4 L284.5,231.3 L276.3,225.3 L272.4,224.2 L270.1,236.7 L265.2,234.5 L265.2,233.3 L260.1,230.7 L252.2,222.1 L249.2,222.3 L242.7,218.9 L233.9,218.0 L224.3,219.1 L225.1,214.6 L223.8,208.9 L226.1,204.5 L227.1,199.2 L231.0,199.8 L234.7,198.4 L240.7,191.2 L248.1,184.6 L254.0,182.2 L262.3,182.5 L265.6,180.3 L266.6,172.5 L270.6,169.5 L271.9,169.5 L280.1,169.5 L285.8,188.3 L283.2,190.6 L286.2,196.1 L290.2,200.6 L288.6,205.2 L293.5,205.3 L295.8,203.1 L299.8,201.8 L309.8,201.8 L311.6,206.2 L307.6,212.2 L301.6,216.7 L304.6,217.0 L310.3,220.2 L314.1,224.9 L317.4,225.6 L317.4,228.9 L321.1,231.4 L322.3,235.3 L328.4,237.0 L330.9,234.3 L328.7,231.4 L335.6,229.2 L342.2,231.5 L346.2,229.1 L351.8,227.5 L355.4,227.7 L357.1,232.9 L351.5,240.1 L347.5,242.2 L347.8,246.7 L346.2,247.2 L346.5,251.1 L349.3,252.3 L354.2,257.4 L357.1,258.5 L361.1,258.5 L360.1,260.9 L362.9,261.6 L368.1,268.4 L366.8,269.7 L369.2,276.3 L367.4,281.0 L368.6,283.8 L371.7,285.0 L374.1,289.3 L380.8,290.7 L380.7,285.2 L384.3,285.7 L386.6,284.2 L387.2,279.9 L385.7,277.8 L381.9,276.8 L382.3,270.2 L384.3,263.2 L391.9,265.2 L391.8,267.5 L399.0,270.2 L400.7,272.6 L404.5,273.6 L408.6,276.5 L408.1,281.8 L405.8,283.5 L407.1,290.8 L405.5,292.6 L395.5,292.9 L397.3,296.7 L389.6,297.6 L386.2,294.5 L381.9,294.5 L381.6,297.7 L378.5,301.7 L382.7,304.8 L381.2,306.3 L379.3,311.9 L380.8,316.4 L374.8,315.8 L370.3,319.0 L372.6,321.4 L372.0,325.1 L367.2,325.9 L364.1,329.6 L359.5,329.8 L355.4,328.4 L352.2,325.9 L353.8,322.8 L353.7,318.9 L350.5,313.7 L343.5,312.6 L344.0,311.2 L339.5,310.7 L339.0,305.5 L335.0,303.7 L329.6,307.7 L327.1,308.1 L330.4,315.4 L322.3,319.8 L323.5,315.7 Z">
  <desc xmlns="http://www.highcharts.com/svg/namespace">
    <labelrank>2</labelrank>
    <hasc>CN.GS</hasc>
    <alt-name>G?nsù</alt-name>
    <woe-id>12578005</woe-id>
    <subregion>Western</subregion>
    <fips>CH15</fips>
    <postal-code>GS</postal-code>
    <name>Gansu</name>
    <country>China</country>
    <type-en>Province</type-en>
    <region>Northwest China</region>
    <longitude>100.735</longitude>
    <woe-name>Gansu</woe-name>
    <latitude>38.7393</latitude>
    <woe-label>Gansu, CN, China</woe-label>
    <type>Sh?ng</type>
    <hc-middle-x>0.24</hc-middle-x>
    <hc-middle-y>0.25</hc-middle-y>
    <hc-key>cn-gs</hc-key>
    <hc-a2>GS</hc-a2>
  </desc>
</path>

<path fill="#CEE3F5" stroke="#6E6E6E" stroke-width="0.4" id="CN.XJ" d="M270.6,169.5 L266.6,172.5 L265.6,180.3 L262.3,182.5 L254.0,182.2 L248.1,184.6 L240.7,191.2 L234.7,198.4 L231.0,199.8 L227.1,199.2 L226.1,204.5 L223.8,208.9 L225.1,214.6 L224.3,219.1 L217.1,219.7 L211.4,221.6 L204.3,222.6 L196.6,222.6 L190.1,225.3 L192.6,232.3 L192.0,235.5 L199.0,241.0 L200.5,248.4 L194.5,249.1 L192.7,252.0 L196.0,255.5 L196.8,261.1 L193.4,262.6 L190.6,260.6 L179.2,259.3 L174.2,255.8 L165.5,251.6 L160.0,251.0 L154.7,251.6 L141.1,251.0 L137.9,252.0 L133.6,256.6 L128.9,257.4 L124.3,255.1 L116.8,256.6 L112.1,258.3 L104.3,257.2 L98.8,255.4 L97.6,251.2 L91.6,249.8 L85.5,254.2 L81.8,254.5 L74.5,250.8 L73.2,252.0 L67.7,249.2 L66.0,247.2 L59.0,254.7 L59.1,258.2 L56.4,261.5 L49.3,259.8 L46.0,260.6 L38.9,254.2 L37.7,244.6 L38.9,242.1 L31.4,240.1 L25.7,236.9 L22.4,233.7 L22.5,231.4 L17.8,231.7 L15.6,226.7 L17.9,221.7 L16.5,217.9 L12.2,215.9 L12.2,213.3 L7.2,211.3 L1.6,207.4 L6.2,205.9 L6.6,207.2 L11.7,205.7 L9.3,202.0 L10.7,199.7 L9.9,194.7 L11.3,188.3 L6.8,184.7 L2.7,185.9 L0.4,184.1 L0.0,180.1 L2.0,178.4 L0.5,174.2 L1.7,171.2 L5.6,169.9 L5.2,166.5 L8.2,163.3 L12.5,163.6 L19.3,159.0 L23.2,161.0 L28.2,159.6 L28.2,164.6 L35.1,163.9 L35.5,165.6 L40.1,162.2 L42.8,157.8 L45.9,157.0 L51.0,159.2 L58.0,159.9 L62.4,155.5 L74.4,151.8 L79.7,151.5 L81.2,149.9 L85.1,150.4 L86.8,147.3 L86.6,141.2 L88.1,138.8 L92.1,137.9 L90.5,135.5 L95.5,135.0 L95.7,129.8 L93.7,119.0 L95.7,110.5 L97.3,109.6 L92.1,107.5 L91.0,105.5 L93.6,104.2 L102.7,104.4 L113.1,103.1 L114.8,106.6 L118.9,106.1 L121.9,107.5 L123.1,103.5 L119.8,101.3 L124.9,91.5 L131.8,80.6 L132.9,76.7 L134.4,76.7 L141.9,82.1 L150.1,83.5 L150.8,86.3 L156.2,83.7 L159.4,84.0 L162.2,79.1 L162.1,70.2 L166.4,62.9 L170.8,63.5 L175.1,62.4 L177.5,59.9 L178.2,55.2 L180.2,53.6 L185.6,55.1 L190.3,54.3 L189.2,60.2 L191.6,62.6 L190.1,63.7 L196.1,69.0 L196.0,71.1 L200.4,75.5 L205.9,75.7 L207.6,79.4 L211.0,79.0 L213.7,83.0 L214.2,88.8 L217.4,94.6 L218.8,101.6 L216.5,105.6 L217.0,110.2 L213.2,114.0 L211.9,118.0 L213.7,123.2 L216.6,123.4 L222.2,126.4 L226.1,126.7 L231.1,128.6 L234.3,128.4 L242.7,130.9 L246.7,135.8 L249.6,136.5 L251.0,138.9 L258.3,143.9 L262.2,143.9 L261.1,148.2 L263.1,148.9 L266.3,161.3 L270.2,166.1 Z">
  <desc xmlns="http://www.highcharts.com/svg/namespace">
    <labelrank>2</labelrank>
    <hasc>CN.XJ</hasc>
    <alt-name>Xinjiang Uygur|X?nji?ng Wéiwú?r</alt-name>
    <woe-id>12578003</woe-id>
    <subregion>Western</subregion>
    <fips>CH13</fips>
    <postal-code>XJ</postal-code>
    <name>Xinjiang</name>
    <country>China</country>
    <type-en>Autonomous Region</type-en>
    <region>Northwest China</region>
    <longitude>85.42529999999999</longitude>
    <woe-name>Xinjiang</woe-name>
    <latitude>41.122</latitude>
    <woe-label>Xinjiang, CN, China</woe-label>
    <type>Zìzhìqu</type>
    <hc-middle-x>0.54</hc-middle-x>
    <hc-middle-y>0.55</hc-middle-y>
    <hc-key>cn-xj</hc-key>
    <hc-a2>XJ</hc-a2>
  </desc>
</path>

<path fill="#CEE3F5" stroke="#6E6E6E" stroke-width="0.4" id="CN.JL" d="M608.9,204.5 L607.3,203.7 L609.3,200.1 L605.4,193.7 L603.4,192.2 L602.9,187.9 L604.8,184.8 L603.1,184.7 L596.9,173.9 L595.6,170.5 L592.6,174.7 L590.0,169.0 L583.7,165.6 L583.2,167.5 L579.5,166.1 L580.9,162.2 L575.6,151.3 L575.3,149.4 L567.4,154.7 L563.3,147.4 L562.6,140.7 L564.9,137.9 L561.3,131.7 L558.0,131.0 L561.7,127.0 L564.6,129.6 L566.2,127.3 L569.9,130.8 L570.6,124.8 L574.5,122.5 L583.2,120.8 L584.5,129.2 L588.8,133.8 L600.0,134.0 L603.5,131.9 L605.4,136.2 L609.0,137.4 L613.4,135.4 L618.0,136.9 L619.6,139.9 L619.7,145.2 L623.4,144.1 L625.5,145.1 L625.0,147.8 L629.5,153.0 L631.7,151.7 L631.3,148.3 L634.6,145.5 L636.1,150.8 L641.9,159.7 L645.8,158.6 L645.7,155.8 L651.3,153.8 L652.9,151.3 L655.3,153.9 L657.1,151.8 L659.1,156.3 L664.2,159.2 L668.9,158.4 L668.2,167.2 L660.5,170.8 L659.7,172.2 L656.9,167.3 L653.8,167.9 L652.9,176.1 L648.8,176.5 L647.6,180.1 L644.4,183.4 L634.4,184.9 L638.1,190.9 L636.5,194.2 L634.7,192.9 L630.6,193.9 L626.2,193.1 L621.9,188.9 L618.5,191.3 L617.4,194.9 L612.4,203.4 Z">
  <desc xmlns="http://www.highcharts.com/svg/namespace">
    <labelrank>2</labelrank>
    <hasc>CN.JL</hasc>
    <alt-name>Jílín</alt-name>
    <woe-id>12577995</woe-id>
    <subregion>Northeast</subregion>
    <fips>CH05</fips>
    <postal-code>JL</postal-code>
    <name>Jilin</name>
    <country>China</country>
    <type-en>Province</type-en>
    <region>Northeast China</region>
    <longitude>126.466</longitude>
    <woe-name>Jilin</woe-name>
    <latitude>43.2978</latitude>
    <woe-label>Jilin, CN, China</woe-label>
    <type>Sh?ng</type>
    <hc-middle-x>0.48</hc-middle-x>
    <hc-middle-y>0.53</hc-middle-y>
    <hc-key>cn-jl</hc-key>
    <hc-a2>JL</hc-a2>
  </desc>
</path>

<path fill="#CEE3F5" stroke="#6E6E6E" stroke-width="0.4" id="CN.NX" d="M396.9,253.6 L392.6,257.4 L391.5,261.7 L391.9,265.2 L384.3,263.2 L382.3,270.2 L381.9,276.8 L385.7,277.8 L387.2,279.9 L386.6,284.2 L384.3,285.7 L380.7,285.2 L380.8,290.7 L374.1,289.3 L371.7,285.0 L368.6,283.8 L367.4,281.0 L369.2,276.3 L366.8,269.7 L368.1,268.4 L362.9,261.6 L360.1,260.9 L361.1,258.5 L357.1,258.5 L358.0,257.0 L364.2,256.7 L369.3,253.9 L374.5,253.3 L375.7,241.8 L379.4,233.7 L381.7,231.2 L387.5,230.4 L389.5,235.4 L383.0,246.4 L387.2,248.7 L391.1,249.1 L393.9,252.5 Z">
  <desc xmlns="http://www.highcharts.com/svg/namespace">
    <labelrank>2</labelrank>
    <hasc>CN.NX</hasc>
    <alt-name>Ningxia Hui|Níngxià Húizú</alt-name>
    <woe-id>12578010</woe-id>
    <subregion>Western</subregion>
    <fips>CH21</fips>
    <postal-code>NX</postal-code>
    <name>Ningxia</name>
    <country>China</country>
    <type-en>Autonomous Region</type-en>
    <region>Northwest China</region>
    <longitude>106.038</longitude>
    <woe-name>Ningxia</woe-name>
    <latitude>37.1762</latitude>
    <woe-label>Ningxia, CN, China</woe-label>
    <type>Zìzhìqu</type>
    <hc-middle-x>0.51</hc-middle-x>
    <hc-middle-y>0.44</hc-middle-y>
    <hc-key>cn-nx</hc-key>
    <hc-a2>NX</hc-a2>
  </desc>
</path>
</g>

<text x="350" y="714" text-anchor="middle" font-family="Verdana" font-size="8" stroke-opacity="0.6">Copyright (c) 2014 Highsoft AS, Based on data from Natural Earth</text>

</svg>