<?xml version="1.0" encoding="utf-8" standalone="no"?>
<!DOCTYPE svg PUBLIC "-//W3C//DTD SVG 1.1//EN" "http://www.w3.org/Graphics/SVG/1.1/DTD/svg11.dtd">

<svg version="1.1" height="700pt" width="700pt" xmlns="http://www.w3.org/2000/svg" xmlns:xlink="http://www.w3.org/1999/xlink">
<desc>
Map version: 1.1.1
Copyright (c) 2014 Highsoft AS, Based on data from Natural Earth
</desc>
<title>Austria</title>
<g id="admin1">

<g id="AT">
  <desc xmlns="http://www.highcharts.com/svg/namespace">
    <name>Austria</name>
    <labelrank>4</labelrank>
    <country-abbrev>Aust.</country-abbrev>
    <subregion>Western Europe</subregion>
    <woe-id>23424750</woe-id>
    <region-wb>Europe &amp; Central Asia</region-wb>
    <iso-a3>AUT</iso-a3>
    <iso-a2>AT</iso-a2>
    <region-un>Europe</region-un>
    <continent>Europe</continent>
    <hc-key>at</hc-key>
    <hc-a2>AU</hc-a2>
  </desc>
</g>

<path fill="#CEE3F5" stroke="#6E6E6E" stroke-width="0.4" id="AT.WI" d="M637.5,93.1 L640.3,91.4 L642.8,94.3 L644.7,98.5 L643.8,105.6 L646.6,111.5 L640.2,110.6 L634.7,111.4 L632.1,114.5 L626.2,112.9 L621.4,113.5 L615.8,113.3 L613.0,110.0 L613.6,106.1 L611.4,102.4 L613.1,98.0 L617.6,98.5 L619.9,96.1 L625.8,91.9 L630.5,89.8 L631.5,88.0 L634.3,88.2 Z">
  <desc xmlns="http://www.highcharts.com/svg/namespace">
    <labelrank>9</labelrank>
    <hasc>AT.WI</hasc>
    <alt-name>Vienna|Viena</alt-name>
    <woe-id>2344716</woe-id>
    <subregion>NULL</subregion>
    <fips>AU09</fips>
    <postal-code>WI</postal-code>
    <name>Wien</name>
    <country>Austria</country>
    <type-en>State</type-en>
    <region>NULL</region>
    <longitude>16.3798</longitude>
    <woe-name>Wien</woe-name>
    <latitude>48.2247</latitude>
    <woe-label>Vienna, AT, Austria</woe-label>
    <type>Bundesländ|Länd</type>
    <hc-middle-x>0.48</hc-middle-x>
    <hc-middle-y>0.53</hc-middle-y>
    <hc-key>at-wi</hc-key>
    <hc-a2>WI</hc-a2>
  </desc>
</path>

<path fill="#CEE3F5" stroke="#6E6E6E" stroke-width="0.4" id="AT.VO" d="M53.5,289.0 L48.2,287.4 L42.7,282.5 L32.9,278.9 L29.6,275.3 L30.4,266.9 L29.6,265.0 L12.4,258.7 L4.2,258.2 L6.9,255.1 L7.7,251.6 L7.0,248.1 L4.9,244.9 L2.2,243.1 L3.4,239.0 L1.6,234.6 L2.3,232.8 L0.0,230.0 L6.5,221.4 L8.0,216.9 L12.8,210.6 L13.2,204.8 L7.3,200.7 L4.8,196.4 L9.6,198.2 L11.4,196.8 L15.2,198.6 L17.2,195.8 L22.3,196.0 L20.0,192.3 L23.4,187.6 L26.1,186.9 L28.4,188.6 L28.7,193.4 L32.9,193.6 L38.4,195.1 L40.9,194.0 L41.1,196.3 L44.9,202.9 L47.6,201.5 L51.9,208.3 L52.2,211.4 L50.0,212.9 L51.6,218.3 L56.9,218.9 L58.5,217.5 L62.5,216.9 L64.0,220.3 L61.6,228.3 L58.7,231.2 L60.5,231.4 L61.8,235.3 L62.7,241.5 L62.4,246.6 L56.0,257.7 L54.4,265.2 L54.7,270.2 L53.7,274.2 L50.2,278.0 L50.0,280.5 Z">
  <desc xmlns="http://www.highcharts.com/svg/namespace">
    <labelrank>6</labelrank>
    <hasc>AT.VO</hasc>
    <alt-name>NULL</alt-name>
    <woe-id>2344715</woe-id>
    <subregion>NULL</subregion>
    <fips>AU08</fips>
    <postal-code>VO</postal-code>
    <name>Vorarlberg</name>
    <country>Austria</country>
    <type-en>State</type-en>
    <region>NULL</region>
    <longitude>9.873749999999999</longitude>
    <woe-name>Vorarlberg</woe-name>
    <latitude>47.2617</latitude>
    <woe-label>Vorarlberg, AT, Austria</woe-label>
    <type>Bundesländ|Länd</type>
    <hc-middle-x>0.50</hc-middle-x>
    <hc-middle-y>0.52</hc-middle-y>
    <hc-key>at-vo</hc-key>
    <hc-a2>VO</hc-a2>
  </desc>
</path>

<path fill="#CEE3F5" stroke="#6E6E6E" stroke-width="0.4" id="AT.BU" d="M691.5,115.0 L693.2,116.9 L691.5,122.1 L692.6,125.4 L697.8,127.3 L700.0,129.1 L694.5,134.2 L695.5,135.3 L693.8,140.0 L695.0,140.7 L694.3,144.9 L692.0,147.6 L687.8,149.1 L687.9,150.6 L691.2,152.5 L692.8,155.8 L691.5,157.4 L692.9,166.8 L695.3,169.8 L679.6,174.1 L676.1,173.7 L674.6,170.2 L670.0,175.5 L664.8,174.9 L662.8,173.3 L661.0,169.3 L652.4,166.0 L648.5,165.7 L645.2,167.3 L643.8,172.4 L638.6,175.9 L637.1,174.8 L634.4,178.9 L641.3,181.7 L643.8,181.0 L650.0,183.2 L655.0,183.4 L657.6,188.2 L657.2,190.8 L660.1,192.9 L660.9,196.7 L656.4,200.8 L657.0,206.3 L652.4,210.2 L642.7,215.1 L640.2,212.6 L638.2,214.7 L638.7,219.9 L637.6,220.9 L642.0,228.6 L642.0,232.7 L637.9,235.6 L637.4,243.2 L639.5,243.7 L639.5,248.8 L643.9,247.9 L646.6,249.6 L644.2,254.1 L642.3,255.4 L642.6,259.2 L645.6,261.7 L639.4,265.3 L643.4,266.0 L645.2,268.6 L638.2,270.0 L636.1,268.5 L625.6,268.6 L624.4,272.2 L621.9,273.9 L621.7,276.3 L615.3,281.7 L612.1,286.4 L603.5,292.1 L600.9,286.8 L602.1,280.5 L605.4,277.5 L612.6,266.2 L612.4,264.2 L608.0,258.5 L607.4,255.3 L608.1,247.3 L605.2,237.6 L604.1,230.4 L600.2,219.4 L600.3,217.1 L602.5,214.2 L604.8,216.2 L611.6,209.4 L619.2,208.8 L623.0,206.2 L627.6,200.9 L626.9,191.4 L631.5,181.2 L625.4,173.6 L623.1,169.6 L622.9,161.3 L626.0,160.8 L628.1,158.6 L628.9,150.5 L631.5,146.2 L635.8,142.6 L641.6,141.3 L648.1,143.2 L651.6,141.2 L657.6,135.7 L659.5,130.5 L663.6,127.6 L665.7,127.4 L673.1,122.6 L677.0,121.2 L682.8,124.5 L684.5,121.4 L684.3,117.3 L686.1,115.7 L689.0,116.8 Z">
  <desc xmlns="http://www.highcharts.com/svg/namespace">
    <labelrank>6</labelrank>
    <hasc>AT.BU</hasc>
    <alt-name>Burgenlândia</alt-name>
    <woe-id>2344708</woe-id>
    <subregion>NULL</subregion>
    <fips>AU01</fips>
    <postal-code>BU</postal-code>
    <name>Burgenland</name>
    <country>Austria</country>
    <type-en>State</type-en>
    <region>NULL</region>
    <longitude>16.3584</longitude>
    <woe-name>Burgenland</woe-name>
    <latitude>47.4281</latitude>
    <woe-label>Burgenland, AT, Austria</woe-label>
    <type>Bundesländ|Länd</type>
    <hc-middle-x>0.76</hc-middle-x>
    <hc-middle-y>0.18</hc-middle-y>
    <hc-key>at-bu</hc-key>
    <hc-a2>BU</hc-a2>
  </desc>
</path>

<path fill="#CEE3F5" stroke="#6E6E6E" stroke-width="0.4" id="AT.ST" d="M611.6,209.4 L604.8,216.2 L602.5,214.2 L600.3,217.1 L600.2,219.4 L604.1,230.4 L605.2,237.6 L608.1,247.3 L607.4,255.3 L608.0,258.5 L612.4,264.2 L612.6,266.2 L605.4,277.5 L602.1,280.5 L600.9,286.8 L603.5,292.1 L599.7,293.2 L598.9,296.0 L598.5,305.0 L599.7,308.3 L602.8,311.6 L603.1,314.7 L600.2,311.9 L596.4,311.3 L590.0,308.4 L584.8,308.2 L578.5,311.0 L568.9,310.4 L567.4,309.5 L566.7,314.5 L561.1,315.3 L557.7,317.1 L556.0,321.9 L551.6,323.9 L544.5,319.9 L527.4,321.2 L518.1,320.4 L511.3,312.8 L509.7,305.1 L506.4,294.1 L508.1,288.7 L508.2,284.7 L500.6,273.6 L496.9,269.2 L493.1,267.3 L482.9,269.9 L471.5,271.0 L468.9,270.0 L460.4,270.4 L450.9,273.9 L439.0,269.8 L432.8,266.1 L426.8,266.6 L416.7,271.6 L412.3,277.7 L408.9,279.4 L403.2,283.9 L399.8,284.6 L394.1,280.4 L397.6,275.8 L401.6,268.4 L403.1,264.2 L403.0,259.8 L408.3,253.6 L407.8,251.1 L405.0,249.1 L401.1,244.0 L400.0,240.1 L395.2,233.1 L385.7,236.9 L379.8,232.7 L377.4,227.7 L374.6,218.6 L373.7,213.8 L375.2,208.2 L383.8,209.8 L388.3,206.6 L389.3,204.1 L388.8,200.0 L384.3,193.1 L384.8,184.0 L387.5,181.2 L397.2,176.3 L409.1,179.7 L413.2,179.2 L417.4,184.0 L419.0,189.0 L421.4,187.6 L431.4,184.5 L436.6,188.1 L440.5,189.5 L445.4,188.7 L451.8,184.1 L457.2,181.4 L458.5,179.1 L471.6,173.6 L477.4,168.8 L480.6,171.3 L490.2,171.0 L494.4,174.4 L498.6,174.1 L506.3,170.4 L510.1,170.6 L522.0,166.3 L525.8,160.9 L530.2,161.3 L535.8,159.8 L539.1,160.5 L543.1,164.0 L550.7,167.4 L554.3,169.9 L560.5,170.3 L563.6,173.7 L566.7,175.4 L570.6,175.6 L571.7,177.2 L573.5,184.4 L578.4,183.1 L581.4,184.8 L581.5,190.6 L585.0,191.0 L587.5,192.7 L589.9,197.9 L597.5,199.0 L602.0,201.2 L605.0,199.7 L608.3,206.8 Z">
  <desc xmlns="http://www.highcharts.com/svg/namespace">
    <labelrank>6</labelrank>
    <hasc>AT.ST</hasc>
    <alt-name>Styria|Est¡ria|Estiria</alt-name>
    <woe-id>2344713</woe-id>
    <subregion>NULL</subregion>
    <fips>AU06</fips>
    <postal-code>ST</postal-code>
    <name>Steiermark</name>
    <country>Austria</country>
    <type-en>State</type-en>
    <region>NULL</region>
    <longitude>14.8565</longitude>
    <woe-name>Steiermark</woe-name>
    <latitude>47.3901</latitude>
    <woe-label>Styria, AT, Austria</woe-label>
    <type>Bundesländ|Länd</type>
    <hc-middle-x>0.58</hc-middle-x>
    <hc-middle-y>0.44</hc-middle-y>
    <hc-key>at-st</hc-key>
    <hc-a2>ST</hc-a2>
  </desc>
</path>

<path fill="#CEE3F5" stroke="#6E6E6E" stroke-width="0.4" id="AT.KA" d="M394.1,280.4 L399.8,284.6 L403.2,283.9 L408.9,279.4 L412.3,277.7 L416.7,271.6 L426.8,266.6 L432.8,266.1 L439.0,269.8 L450.9,273.9 L460.4,270.4 L468.9,270.0 L471.5,271.0 L482.9,269.9 L493.1,267.3 L496.9,269.2 L500.6,273.6 L508.2,284.7 L508.1,288.7 L506.4,294.1 L509.7,305.1 L511.3,312.8 L518.1,320.4 L514.0,320.1 L508.6,321.9 L505.2,327.0 L502.0,324.2 L498.7,326.4 L494.3,327.1 L491.8,331.7 L488.8,340.0 L486.2,341.5 L481.4,342.1 L478.7,346.7 L470.3,350.1 L467.4,357.0 L465.8,357.8 L462.1,352.4 L458.9,353.3 L454.4,351.7 L453.1,349.7 L448.9,350.2 L429.0,349.9 L422.5,345.1 L419.6,344.0 L413.2,344.4 L404.6,340.4 L401.8,339.9 L394.4,341.0 L388.2,339.5 L383.9,339.5 L372.6,335.9 L368.6,335.8 L365.9,333.5 L360.2,333.9 L356.1,333.2 L346.5,335.3 L342.8,335.1 L334.9,330.6 L327.2,328.8 L305.3,327.1 L300.0,323.6 L294.6,323.2 L290.5,321.2 L294.0,314.1 L295.5,308.1 L297.5,307.2 L311.7,304.6 L315.0,307.1 L316.2,304.7 L310.6,296.9 L305.4,291.0 L304.1,285.1 L299.4,280.0 L296.8,273.5 L298.3,268.7 L297.7,266.2 L289.7,263.5 L287.5,258.8 L290.4,255.5 L300.3,260.6 L313.5,263.9 L320.9,268.7 L326.9,270.3 L337.5,269.2 L342.4,266.8 L346.9,262.9 L350.0,262.4 L362.2,265.8 L373.6,267.9 L377.7,268.2 L383.3,270.7 L391.4,276.8 Z">
  <desc xmlns="http://www.highcharts.com/svg/namespace">
    <labelrank>6</labelrank>
    <hasc>AT.KA</hasc>
    <alt-name>Carinthia|Caríntia|Carintia</alt-name>
    <woe-id>2344709</woe-id>
    <subregion>NULL</subregion>
    <fips>AU02</fips>
    <postal-code>KA</postal-code>
    <name>Kärnten</name>
    <country>Austria</country>
    <type-en>State</type-en>
    <region>NULL</region>
    <longitude>13.8695</longitude>
    <woe-name>Kärnten</woe-name>
    <latitude>46.7201</latitude>
    <woe-label>Carinthia, AT, Austria</woe-label>
    <type>Bundesländ|Länd</type>
    <hc-middle-x>0.56</hc-middle-x>
    <hc-middle-y>0.53</hc-middle-y>
    <hc-key>at-ka</hc-key>
    <hc-a2>KA</hc-a2>
  </desc>
</path>

<path fill="#CEE3F5" stroke="#6E6E6E" stroke-width="0.4" id="AT.OO" d="M477.4,168.8 L471.6,173.6 L458.5,179.1 L457.2,181.4 L451.8,184.1 L445.4,188.7 L440.5,189.5 L436.6,188.1 L431.4,184.5 L421.4,187.6 L419.0,189.0 L417.4,184.0 L413.2,179.2 L409.1,179.7 L397.2,176.3 L387.5,181.2 L384.8,184.0 L384.3,193.1 L388.8,200.0 L389.3,204.1 L388.3,206.6 L383.8,209.8 L375.2,208.2 L369.9,204.8 L366.7,201.5 L365.7,197.6 L368.2,192.4 L366.6,187.2 L370.0,176.8 L368.8,174.4 L363.3,172.3 L363.3,169.7 L368.4,169.3 L369.5,167.9 L367.4,165.9 L350.8,162.2 L348.6,160.1 L346.7,150.4 L347.1,145.0 L348.9,142.7 L354.0,143.2 L354.9,141.1 L349.6,137.1 L343.4,140.0 L334.6,140.2 L330.2,138.4 L325.3,134.2 L319.1,134.1 L316.3,135.5 L315.3,138.1 L308.1,140.7 L306.5,136.2 L300.2,129.5 L298.1,124.7 L298.9,121.9 L305.9,116.5 L311.0,110.9 L316.0,110.0 L325.1,102.6 L334.5,98.9 L347.0,96.8 L350.0,95.1 L358.9,87.3 L361.8,78.6 L361.7,74.8 L363.5,69.7 L362.0,62.3 L363.3,60.6 L369.2,59.1 L378.6,61.7 L383.0,65.7 L386.9,67.5 L388.5,62.4 L391.4,61.8 L394.6,55.3 L394.4,46.7 L395.8,43.9 L393.0,39.9 L395.7,34.3 L399.3,35.2 L404.6,39.0 L410.7,42.3 L415.3,49.3 L412.9,51.4 L416.1,56.5 L419.2,57.8 L431.9,59.1 L440.9,62.1 L449.0,58.2 L452.3,51.3 L453.6,50.4 L455.8,52.9 L459.4,54.7 L464.5,53.3 L466.6,55.4 L469.6,55.7 L471.8,59.1 L474.7,57.7 L476.6,59.7 L482.3,60.9 L488.2,63.5 L494.3,65.4 L495.0,69.1 L492.6,69.1 L492.2,73.1 L494.8,77.3 L497.1,78.0 L497.6,82.4 L499.9,84.9 L501.0,91.6 L500.7,106.3 L497.2,103.8 L491.0,104.9 L487.2,109.3 L474.2,112.6 L470.8,110.7 L468.2,107.2 L464.1,104.4 L460.0,104.4 L456.9,108.0 L455.6,116.6 L456.6,121.7 L453.6,128.5 L451.9,130.0 L453.6,131.9 L468.5,142.8 L476.2,145.9 L481.8,150.6 L479.1,160.6 L478.9,165.4 Z">
  <desc xmlns="http://www.highcharts.com/svg/namespace">
    <labelrank>6</labelrank>
    <hasc>AT.OO</hasc>
    <alt-name>Upper Austria|Alta-Áustria|Alta Austria|Österreich ober der Enns|Oberösterreich</alt-name>
    <woe-id>2344711</woe-id>
    <subregion>NULL</subregion>
    <fips>AU04</fips>
    <postal-code>OO</postal-code>
    <name>Oberösterreich</name>
    <country>Austria</country>
    <type-en>State</type-en>
    <region>NULL</region>
    <longitude>13.856</longitude>
    <woe-name>Oberösterreich</woe-name>
    <latitude>48.2377</latitude>
    <woe-label>Upper Austria, AT, Austria</woe-label>
    <type>Bundesländ|Länd</type>
    <hc-middle-x>0.53</hc-middle-x>
    <hc-middle-y>0.38</hc-middle-y>
    <hc-key>at-oo</hc-key>
    <hc-a2>OO</hc-a2>
  </desc>
</path>

<path fill="#CEE3F5" stroke="#6E6E6E" stroke-width="0.4" id="AT.SZ" d="M375.2,208.2 L373.7,213.8 L374.6,218.6 L377.4,227.7 L379.8,232.7 L385.7,236.9 L395.2,233.1 L400.0,240.1 L401.1,244.0 L405.0,249.1 L407.8,251.1 L408.3,253.6 L403.0,259.8 L403.1,264.2 L401.6,268.4 L397.6,275.8 L394.1,280.4 L391.4,276.8 L383.3,270.7 L377.7,268.2 L373.6,267.9 L362.2,265.8 L350.0,262.4 L346.9,262.9 L342.4,266.8 L337.5,269.2 L326.9,270.3 L320.9,268.7 L313.5,263.9 L300.3,260.6 L290.4,255.5 L287.5,258.8 L282.3,254.3 L273.0,252.7 L264.0,254.2 L258.5,259.4 L247.6,264.4 L245.4,261.9 L241.0,262.7 L240.9,257.0 L239.9,253.7 L236.7,249.4 L236.5,245.4 L238.2,238.1 L238.0,235.4 L240.6,234.1 L244.7,233.9 L255.1,230.4 L258.4,228.5 L265.5,230.2 L271.5,228.5 L275.7,221.6 L281.8,220.6 L286.0,217.0 L292.1,206.3 L290.2,200.9 L290.3,196.5 L284.0,190.9 L281.7,186.8 L284.9,183.9 L290.0,182.3 L299.9,183.5 L299.0,185.9 L304.6,191.0 L302.1,192.3 L300.9,195.4 L301.4,198.8 L305.9,201.2 L310.9,206.5 L316.4,210.3 L322.5,210.4 L325.1,207.3 L324.3,200.7 L325.2,194.9 L328.4,189.7 L327.7,182.7 L323.6,177.4 L318.5,178.4 L313.4,177.4 L311.9,175.9 L314.2,172.3 L315.1,168.6 L321.1,159.2 L318.7,155.8 L315.6,148.6 L309.4,143.4 L308.1,140.7 L315.3,138.1 L316.3,135.5 L319.1,134.1 L325.3,134.2 L330.2,138.4 L334.6,140.2 L343.4,140.0 L349.6,137.1 L354.9,141.1 L354.0,143.2 L348.9,142.7 L347.1,145.0 L346.7,150.4 L348.6,160.1 L350.8,162.2 L367.4,165.9 L369.5,167.9 L368.4,169.3 L363.3,169.7 L363.3,172.3 L368.8,174.4 L370.0,176.8 L366.6,187.2 L368.2,192.4 L365.7,197.6 L366.7,201.5 L369.9,204.8 Z">
  <desc xmlns="http://www.highcharts.com/svg/namespace">
    <labelrank>7</labelrank>
    <hasc>AT.SZ</hasc>
    <alt-name>Salzburgo</alt-name>
    <woe-id>2344712</woe-id>
    <subregion>NULL</subregion>
    <fips>AU05</fips>
    <postal-code>SZ</postal-code>
    <name>Salzburg</name>
    <country>Austria</country>
    <type-en>State</type-en>
    <region>NULL</region>
    <longitude>13.0106</longitude>
    <woe-name>Salzburg</woe-name>
    <latitude>47.2534</latitude>
    <woe-label>Salzburg, AT, Austria</woe-label>
    <type>Bundesländ|Länd</type>
    <hc-middle-x>0.53</hc-middle-x>
    <hc-middle-y>0.64</hc-middle-y>
    <hc-key>at-sz</hc-key>
    <hc-a2>SZ</hc-a2>
  </desc>
</path>

<path fill="#CEE3F5" stroke="#6E6E6E" stroke-width="0.4" id="AT.TR" d="M287.5,258.8 L289.7,263.5 L297.7,266.2 L298.3,268.7 L296.8,273.5 L299.4,280.0 L304.1,285.1 L305.4,291.0 L310.6,296.9 L316.2,304.7 L315.0,307.1 L311.7,304.6 L297.5,307.2 L295.5,308.1 L294.0,314.1 L290.5,321.2 L285.7,320.6 L280.2,321.3 L274.5,318.4 L265.6,315.8 L262.4,312.9 L259.9,305.6 L253.1,302.3 L253.8,296.1 L253.0,291.5 L246.4,289.8 L244.3,287.2 L240.1,285.8 L241.5,284.4 L238.8,274.3 L239.8,272.0 L245.5,268.9 L247.6,264.4 L258.5,259.4 L264.0,254.2 L273.0,252.7 L282.3,254.3 Z M241.0,262.7 L230.0,267.7 L223.4,267.9 L215.2,271.3 L212.0,273.8 L207.8,274.4 L204.9,276.5 L202.1,276.0 L199.1,273.7 L191.0,272.4 L183.4,273.7 L181.1,271.7 L177.7,272.0 L173.7,276.1 L170.9,275.9 L164.7,273.6 L158.2,274.5 L150.0,277.4 L143.8,283.2 L140.0,295.6 L134.4,302.4 L128.3,301.5 L123.5,302.7 L118.3,300.3 L115.6,300.7 L108.4,298.0 L111.5,294.8 L110.6,293.4 L103.6,288.9 L100.5,288.6 L91.0,290.9 L87.1,290.3 L84.2,287.7 L85.4,280.3 L85.0,278.0 L81.1,274.3 L79.3,271.1 L76.9,269.7 L74.1,271.1 L69.9,276.7 L69.8,279.3 L64.2,279.0 L60.7,286.5 L53.5,289.0 L50.0,280.5 L50.2,278.0 L53.7,274.2 L54.7,270.2 L54.4,265.2 L56.0,257.7 L62.4,246.6 L62.7,241.5 L61.8,235.3 L60.5,231.4 L66.5,230.9 L72.7,227.8 L76.3,224.1 L78.6,220.0 L82.9,217.5 L86.9,209.8 L86.2,203.9 L84.2,202.3 L85.5,195.7 L84.1,191.4 L87.8,190.4 L87.6,195.2 L90.2,197.1 L94.1,197.8 L99.6,193.4 L101.9,193.5 L113.8,198.5 L114.9,200.3 L118.4,200.4 L124.8,198.6 L127.8,200.8 L124.0,203.7 L129.2,207.1 L133.7,212.2 L133.2,215.3 L135.3,218.0 L144.9,218.4 L152.9,213.9 L157.2,214.2 L156.9,217.9 L161.1,217.3 L165.5,212.7 L172.8,211.6 L173.3,209.3 L171.2,208.2 L175.6,203.4 L182.1,204.0 L188.4,202.6 L190.1,200.8 L192.1,195.0 L195.0,192.5 L200.7,193.4 L208.2,193.6 L213.3,194.8 L216.3,191.6 L224.0,190.2 L245.1,191.5 L248.5,188.0 L248.6,181.5 L246.3,177.6 L252.4,174.2 L250.6,179.0 L252.0,181.4 L257.0,179.9 L262.3,181.1 L269.0,179.9 L271.6,185.6 L275.5,188.5 L281.7,186.8 L284.0,190.9 L290.3,196.5 L290.2,200.9 L292.1,206.3 L286.0,217.0 L281.8,220.6 L275.7,221.6 L271.5,228.5 L265.5,230.2 L258.4,228.5 L255.1,230.4 L244.7,233.9 L240.6,234.1 L238.0,235.4 L238.2,238.1 L236.5,245.4 L236.7,249.4 L239.9,253.7 L240.9,257.0 Z">
  <desc xmlns="http://www.highcharts.com/svg/namespace">
    <labelrank>6</labelrank>
    <hasc>AT.TR</hasc>
    <alt-name>Tyrol</alt-name>
    <woe-id>2344714</woe-id>
    <subregion>NULL</subregion>
    <fips>AU07</fips>
    <postal-code>TR</postal-code>
    <name>Tirol</name>
    <country>Austria</country>
    <type-en>State</type-en>
    <region>NULL</region>
    <longitude>11.38</longitude>
    <woe-name>Tirol</woe-name>
    <latitude>47.2082</latitude>
    <woe-label>Tyrol, AT, Austria</woe-label>
    <type>Bundesländ|Länd</type>
    <hc-middle-x>0.39</hc-middle-x>
    <hc-middle-y>0.46</hc-middle-y>
    <hc-key>at-tr</hc-key>
    <hc-a2>TR</hc-a2>
  </desc>
</path>

<path fill="#CEE3F5" stroke="#6E6E6E" stroke-width="0.4" id="AT.NO" d="M611.6,209.4 L608.3,206.8 L605.0,199.7 L602.0,201.2 L597.5,199.0 L589.9,197.9 L587.5,192.7 L585.0,191.0 L581.5,190.6 L581.4,184.8 L578.4,183.1 L573.5,184.4 L571.7,177.2 L570.6,175.6 L566.7,175.4 L563.6,173.7 L560.5,170.3 L554.3,169.9 L550.7,167.4 L543.1,164.0 L539.1,160.5 L535.8,159.8 L530.2,161.3 L525.8,160.9 L522.0,166.3 L510.1,170.6 L506.3,170.4 L498.6,174.1 L494.4,174.4 L490.2,171.0 L480.6,171.3 L477.4,168.8 L478.9,165.4 L479.1,160.6 L481.8,150.6 L476.2,145.9 L468.5,142.8 L453.6,131.9 L451.9,130.0 L453.6,128.5 L456.6,121.7 L455.6,116.6 L456.9,108.0 L460.0,104.4 L464.1,104.4 L468.2,107.2 L470.8,110.7 L474.2,112.6 L487.2,109.3 L491.0,104.9 L497.2,103.8 L500.7,106.3 L501.0,91.6 L499.9,84.9 L497.6,82.4 L497.1,78.0 L494.8,77.3 L492.2,73.1 L492.6,69.1 L495.0,69.1 L494.3,65.4 L488.2,63.5 L482.3,60.9 L476.6,59.7 L474.7,57.7 L475.5,53.8 L475.6,46.0 L477.3,43.2 L481.9,38.9 L484.0,31.8 L490.1,31.8 L494.8,33.6 L497.6,31.0 L496.3,27.9 L498.8,16.7 L498.2,4.9 L499.7,0.0 L506.6,1.3 L513.6,1.7 L514.7,5.4 L514.2,9.2 L522.7,7.2 L524.9,2.8 L531.4,3.7 L543.7,8.6 L548.2,12.3 L555.7,14.9 L562.8,18.7 L566.9,19.0 L571.5,16.7 L575.0,16.4 L577.0,19.3 L581.2,20.3 L583.3,23.3 L594.7,31.2 L599.5,33.1 L607.8,32.3 L624.1,34.3 L626.5,32.9 L630.7,24.9 L637.4,23.2 L649.4,26.3 L651.4,31.5 L657.4,32.1 L663.8,35.1 L670.4,33.5 L672.7,36.4 L674.4,45.3 L677.6,48.7 L678.8,55.1 L678.2,57.5 L675.4,60.4 L671.1,70.9 L670.1,81.6 L675.4,84.9 L675.3,88.0 L677.1,91.4 L680.3,93.2 L683.8,108.7 L686.2,111.1 L690.0,112.6 L691.5,115.0 L689.0,116.8 L686.1,115.7 L684.3,117.3 L684.5,121.4 L682.8,124.5 L677.0,121.2 L673.1,122.6 L665.7,127.4 L663.6,127.6 L659.5,130.5 L657.6,135.7 L651.6,141.2 L648.1,143.2 L641.6,141.3 L635.8,142.6 L631.5,146.2 L628.9,150.5 L628.1,158.6 L626.0,160.8 L622.9,161.3 L623.1,169.6 L625.4,173.6 L631.5,181.2 L626.9,191.4 L627.6,200.9 L623.0,206.2 L619.2,208.8 Z M637.5,93.1 L634.3,88.2 L631.5,88.0 L630.5,89.8 L625.8,91.9 L619.9,96.1 L617.6,98.5 L613.1,98.0 L611.4,102.4 L613.6,106.1 L613.0,110.0 L615.8,113.3 L621.4,113.5 L626.2,112.9 L632.1,114.5 L634.7,111.4 L640.2,110.6 L646.6,111.5 L643.8,105.6 L644.7,98.5 L642.8,94.3 L640.3,91.4 Z">
  <desc xmlns="http://www.highcharts.com/svg/namespace">
    <labelrank>6</labelrank>
    <hasc>AT.NO</hasc>
    <alt-name>Lower Austria|Baixa-Áustria|Baja Austria|Niederdonau|Österreich unter der Enns</alt-name>
    <woe-id>2344710</woe-id>
    <subregion>NULL</subregion>
    <fips>AU03</fips>
    <postal-code>NO</postal-code>
    <name>Niederösterreich</name>
    <country>Austria</country>
    <type-en>State</type-en>
    <region>NULL</region>
    <longitude>15.7448</longitude>
    <woe-name>Niederösterreich</woe-name>
    <latitude>48.2477</latitude>
    <woe-label>Lower Austria, AT, Austria</woe-label>
    <type>Bundesländ|Länd</type>
    <hc-middle-x>0.42</hc-middle-x>
    <hc-middle-y>0.55</hc-middle-y>
    <hc-key>at-no</hc-key>
    <hc-a2>NO</hc-a2>
  </desc>
</path>
</g>

<text x="350" y="714" text-anchor="middle" font-family="Verdana" font-size="8" stroke-opacity="0.6">Copyright (c) 2014 Highsoft AS, Based on data from Natural Earth</text>

</svg>