<?xml version="1.0" encoding="utf-8" standalone="no"?>
<!DOCTYPE svg PUBLIC "-//W3C//DTD SVG 1.1//EN" "http://www.w3.org/Graphics/SVG/1.1/DTD/svg11.dtd">

<svg version="1.1" height="700pt" width="700pt" xmlns="http://www.w3.org/2000/svg" xmlns:xlink="http://www.w3.org/1999/xlink">
<desc>
Map version: 1.1.1
Copyright (c) 2014 Highsoft AS, Based on data from Kadaster / Centraal Bureau voor de Statistiek, 2014
</desc>
<title>Friesland</title>
<g id="admin2">

<g id="NL.FR">
  <desc xmlns="http://www.highcharts.com/svg/namespace">
    <labelrank>8</labelrank>
    <hasc>NL.FR</hasc>
    <alt-name>Frise|Frisia|Frísia</alt-name>
    <woe-id>2346374</woe-id>
    <subregion>NULL</subregion>
    <fips>NL02</fips>
    <postal-code>FR</postal-code>
    <name>Friesland</name>
    <country>Netherlands</country>
    <type-en>Province</type-en>
    <region>NULL</region>
    <longitude>5.77345</longitude>
    <woe-name>Friesland</woe-name>
    <latitude>53.0792</latitude>
    <woe-label>Friesland, NL, Netherlands</woe-label>
    <type>Provincie</type>
    <hc-key>nl-fr</hc-key>
    <hc-a2>FR</hc-a2>
  </desc>
</g>

<g id="NL">
  <desc xmlns="http://www.highcharts.com/svg/namespace">
    <name>Netherlands</name>
    <labelrank>5</labelrank>
    <country-abbrev>Neth.</country-abbrev>
    <subregion>Western Europe</subregion>
    <woe-id>-90</woe-id>
    <region-wb>Europe &amp; Central Asia</region-wb>
    <iso-a3>NLD</iso-a3>
    <iso-a2>NL</iso-a2>
    <region-un>Europe</region-un>
    <continent>Europe</continent>
    <hc-key>nl</hc-key>
    <hc-a2>NE</hc-a2>
  </desc>
</g>

<path fill="#CEE3F5" stroke="#6E6E6E" stroke-width="0.4" id="NL.FR.GM0058" d="M561.7,160.0 L560.4,160.4 L559.5,159.9 L558.7,159.0 L558.6,158.6 L558.6,158.1 L558.6,157.7 L560.5,154.6 L560.0,151.6 L558.3,151.1 L556.7,151.5 L556.2,151.6 L555.9,151.4 L555.9,151.4 L555.7,151.3 L554.6,150.3 L554.0,149.6 L553.8,149.4 L553.9,149.4 L553.8,149.3 L553.8,148.7 L553.9,148.6 L554.6,147.4 L553.9,146.2 L553.0,145.9 L552.5,145.6 L552.1,145.6 L551.0,145.3 L549.8,145.6 L549.5,146.2 L549.1,146.9 L549.0,147.0 L548.6,147.3 L547.3,147.4 L547.0,147.2 L546.3,146.7 L545.7,145.6 L545.2,144.7 L544.9,144.6 L544.8,144.5 L543.3,144.7 L541.7,145.7 L541.3,145.9 L541.1,145.9 L541.1,145.9 L541.1,145.9 L540.4,145.5 L539.6,143.8 L536.4,144.2 L534.8,145.8 L534.4,145.3 L534.1,144.7 L534.1,144.6 L534.1,144.5 L534.1,144.5 L533.9,144.4 L533.2,143.9 L532.0,144.0 L531.1,144.6 L530.3,144.9 L527.4,144.7 L527.0,144.7 L526.7,144.7 L526.3,144.7 L526.0,144.7 L525.6,144.7 L524.6,144.4 L524.3,144.3 L523.7,144.2 L523.7,144.2 L523.5,144.2 L523.5,144.2 L522.9,144.4 L521.2,145.1 L520.1,145.0 L519.7,144.8 L519.6,144.8 L518.9,144.4 L517.3,144.3 L517.2,144.4 L517.2,144.4 L517.2,144.4 L516.6,145.0 L516.1,145.0 L516.2,145.0 L516.1,144.9 L515.9,144.8 L515.8,144.6 L515.6,144.3 L515.4,144.1 L515.4,144.2 L515.4,144.2 L515.3,144.1 L515.0,144.1 L514.8,144.2 L514.7,144.3 L512.9,144.5 L510.6,145.4 L510.2,148.1 L510.2,150.1 L510.2,150.2 L510.4,152.6 L510.5,156.5 L509.2,157.0 L509.0,157.1 L506.3,157.0 L505.7,156.5 L505.2,156.2 L503.1,156.0 L503.1,156.0 L502.8,155.9 L502.5,155.9 L502.0,156.0 L501.9,156.0 L500.3,155.8 L499.7,155.9 L496.7,156.2 L495.8,156.8 L495.8,156.8 L495.8,156.8 L495.8,156.8 L495.3,156.9 L494.9,157.2 L494.9,157.2 L494.8,157.2 L494.4,157.4 L494.3,157.4 L494.1,157.5 L493.9,157.6 L492.8,158.2 L490.7,158.8 L489.2,156.2 L489.2,156.1 L488.7,155.5 L488.3,153.9 L489.2,153.1 L489.6,152.9 L489.8,152.2 L489.7,151.8 L489.7,151.5 L489.8,151.2 L489.2,150.7 L488.8,148.8 L488.7,148.6 L488.7,148.6 L484.7,147.4 L483.0,148.4 L481.6,148.6 L481.4,148.6 L480.6,148.9 L479.6,149.8 L478.9,151.1 L478.6,151.5 L477.8,151.5 L477.3,151.5 L476.3,152.0 L473.6,153.2 L472.7,153.1 L472.6,153.1 L471.2,150.9 L471.2,150.9 L471.2,150.9 L471.9,150.2 L472.0,150.2 L472.3,149.9 L472.8,149.5 L472.8,149.5 L472.2,148.7 L471.8,148.2 L472.1,148.0 L473.1,147.1 L471.9,146.4 L471.2,146.5 L470.4,147.3 L470.3,147.4 L470.0,147.6 L470.0,147.6 L469.4,146.7 L469.3,146.7 L469.1,146.7 L468.9,146.8 L468.8,146.4 L469.0,146.4 L469.0,146.4 L469.0,146.4 L470.0,146.1 L470.0,146.1 L470.0,146.1 L470.0,146.1 L469.6,145.3 L468.4,142.9 L466.3,142.6 L464.6,142.4 L464.3,141.5 L463.8,141.0 L463.8,140.9 L463.5,140.6 L463.4,140.2 L462.2,140.2 L462.0,140.2 L461.2,139.7 L461.4,139.6 L461.6,139.5 L462.1,138.9 L463.8,137.9 L461.8,136.4 L461.5,135.5 L461.4,135.2 L461.3,134.8 L460.8,134.8 L459.9,134.7 L459.6,134.0 L459.7,133.9 L459.8,133.7 L459.8,133.6 L459.6,133.4 L459.6,133.5 L459.3,133.3 L458.0,132.6 L455.5,131.4 L455.4,131.4 L452.1,130.3 L450.4,131.0 L449.3,129.8 L449.2,129.7 L449.2,129.6 L449.0,129.0 L448.1,128.3 L447.7,128.1 L447.7,128.0 L447.7,128.0 L447.8,128.0 L449.3,126.9 L448.7,124.6 L448.8,124.2 L448.1,123.5 L447.3,122.7 L445.5,121.0 L445.5,120.3 L445.5,120.2 L444.5,119.0 L444.4,119.0 L444.2,118.8 L443.9,118.4 L440.6,118.5 L435.4,112.9 L435.0,112.5 L435.0,112.5 L433.0,110.4 L432.8,110.2 L441.1,107.0 L447.0,101.0 L449.1,101.1 L445.3,95.8 L446.9,96.1 L449.3,101.1 L469.7,100.3 L480.7,95.8 L494.0,92.1 L505.3,87.9 L515.4,87.0 L528.5,83.8 L535.7,85.6 L538.3,81.7 L539.5,82.7 L556.4,84.5 L559.0,85.2 L574.2,76.8 L574.7,77.4 L567.6,81.3 L566.2,93.3 L568.6,101.1 L571.0,105.0 L570.1,110.1 L572.0,114.8 L572.1,113.1 L573.3,115.8 L573.3,116.8 L572.7,116.8 L573.0,117.4 L572.7,122.5 L574.9,128.1 L578.5,131.2 L576.5,135.2 L578.8,144.9 L570.0,147.0 L570.6,148.1 L570.3,148.2 L569.3,148.7 L569.2,148.8 L568.4,150.6 L567.9,154.2 L566.5,155.7 L565.9,156.0 L564.6,156.7 L564.3,156.9 L563.4,157.8 L562.8,158.8 L562.3,159.4 Z M534.1,144.5 L534.1,144.5 L534.0,144.5 Z M448.8,124.2 L448.8,124.2 L448.8,124.2 L448.8,124.2 L448.8,124.2 L448.8,124.2 L448.8,124.2 L448.8,124.2 L448.8,124.2 L448.8,124.2 L448.8,124.2 L448.8,124.1 Z M577.4,127.5 L578.1,129.0 L577.4,129.3 L576.3,127.8 Z M521.4,48.8 L524.4,49.9 L518.8,55.2 L517.1,52.4 L518.1,49.4 Z M517.5,33.1 L512.4,37.6 L509.2,38.1 L508.9,36.4 L514.9,31.1 Z M522.4,37.6 L519.1,36.9 L521.9,36.0 Z M471.2,150.9 L471.2,150.9 L471.2,150.9 L471.2,150.9 L471.2,150.9 Z">
  <desc xmlns="http://www.highcharts.com/svg/namespace">
    <name>Dongeradeel</name>
    <hc-middle-x>0.50</hc-middle-x>
    <hc-middle-y>0.69</hc-middle-y>
    <hc-key>nl-fr-gm0058</hc-key>
    <hc-a2>DO</hc-a2>
  </desc>
</path>

<path fill="#CEE3F5" stroke="#6E6E6E" stroke-width="0.4" id="NL.FR.GM0060" d="M353.2,80.7 L351.1,80.6 L354.7,79.1 L355.7,79.6 Z M445.7,43.7 L465.2,41.8 L474.3,41.5 L484.2,43.5 L483.2,48.1 L478.1,50.1 L471.0,50.6 L467.9,50.0 L455.6,50.4 L449.3,55.0 L425.1,61.7 L418.1,64.7 L410.7,66.6 L399.7,66.3 L395.4,65.2 L389.4,65.3 L384.4,64.0 L378.5,63.7 L375.3,65.7 L373.4,69.3 L366.8,74.4 L358.0,78.0 L355.5,77.9 L350.1,80.6 L336.7,74.7 L332.0,71.1 L329.2,66.4 L327.9,62.1 L329.3,57.5 L337.1,48.2 L340.1,46.8 L352.0,44.8 L362.8,46.2 L357.8,47.4 L350.1,46.5 L350.5,48.9 L360.1,52.0 L366.9,51.6 L376.9,51.9 L390.6,51.2 L418.4,47.6 Z">
  <desc xmlns="http://www.highcharts.com/svg/namespace">
    <name>Ameland</name>
    <hc-middle-x>0.13</hc-middle-x>
    <hc-middle-y>0.55</hc-middle-y>
    <hc-key>nl-fr-gm0060</hc-key>
    <hc-a2>AM</hc-a2>
  </desc>
</path>

<path fill="#CEE3F5" stroke="#6E6E6E" stroke-width="0.4" id="NL.FR.GM0093" d="M174.9,207.9 L181.7,209.3 L177.2,212.5 L174.4,212.3 Z M134.0,179.8 L134.6,181.9 L133.9,180.6 Z M268.1,93.5 L267.7,94.4 L263.0,96.0 L253.9,96.8 L239.8,96.7 L229.4,99.2 L222.7,104.3 L218.0,109.8 L212.4,113.6 L207.6,114.9 L204.5,117.5 L199.6,115.9 L194.7,119.8 L192.8,119.6 L190.6,123.4 L182.5,121.5 L179.6,123.0 L174.7,122.2 L168.7,127.8 L166.7,126.5 L159.3,128.9 L158.0,134.2 L154.4,134.5 L152.7,136.6 L147.1,139.1 L151.4,139.4 L146.7,142.1 L137.4,141.1 L132.4,138.0 L129.6,138.1 L129.2,135.5 L131.4,129.4 L135.8,122.9 L142.2,116.3 L145.9,109.6 L149.2,106.4 L171.9,99.6 L182.2,96.1 L196.1,92.8 L215.6,87.4 L233.5,81.9 L261.4,71.7 L272.2,67.0 L284.0,63.5 L296.0,64.0 L302.4,67.7 L303.9,76.7 L303.0,76.7 L300.6,69.2 L298.5,73.2 L292.6,76.2 L285.2,77.4 L284.3,78.5 L271.3,85.6 L264.1,83.1 L268.9,86.8 L266.5,89.1 L262.2,88.1 L258.3,85.3 L257.1,87.2 L263.0,90.8 L269.4,91.2 L268.9,92.1 L269.5,91.5 L271.3,91.5 L270.1,93.1 Z">
  <desc xmlns="http://www.highcharts.com/svg/namespace">
    <name>Terschelling</name>
    <hc-middle-x>0.30</hc-middle-x>
    <hc-middle-y>0.31</hc-middle-y>
    <hc-key>nl-fr-gm0093</hc-key>
    <hc-a2>TE</hc-a2>
  </desc>
</path>

<path fill="#CEE3F5" stroke="#6E6E6E" stroke-width="0.4" id="NL.FR.GM0063" d="M301.2,198.1 L300.3,196.1 L307.5,188.7 L309.9,182.1 L317.8,172.9 L320.9,170.1 L333.5,163.0 L337.4,161.7 L350.0,154.3 L361.3,151.3 L377.6,142.9 L379.5,152.0 L379.2,156.6 L382.7,155.4 L391.5,157.9 L387.7,164.4 L385.9,171.9 L383.9,172.1 L381.1,179.6 L379.8,186.3 L381.3,189.6 L386.7,193.8 L384.4,196.5 L387.3,202.8 L386.4,205.7 L380.5,206.7 L373.5,209.3 L367.1,208.4 L367.1,212.0 L358.9,210.8 L355.3,209.5 L355.5,207.0 L346.1,204.5 L344.6,205.3 L335.5,202.3 L334.1,207.5 L340.6,213.7 L335.4,218.1 L328.6,221.5 L328.6,221.5 L328.6,221.5 L328.6,221.5 L325.3,224.8 L306.1,198.6 Z">
  <desc xmlns="http://www.highcharts.com/svg/namespace">
    <name>het Bildt</name>
    <hc-middle-x>0.49</hc-middle-x>
    <hc-middle-y>0.49</hc-middle-y>
    <hc-key>nl-fr-gm0063</hc-key>
    <hc-a2>HB</hc-a2>
  </desc>
</path>

<path fill="#CEE3F5" stroke="#6E6E6E" stroke-width="0.4" id="NL.FR.GM0079" d="M561.7,160.0 L565.9,156.0 L567.9,154.2 L568.4,150.6 L570.6,148.1 L578.0,146.3 L579.9,145.0 L577.1,136.6 L579.9,131.8 L584.2,134.8 L585.5,133.4 L582.5,131.2 L576.1,123.0 L576.4,120.0 L578.8,118.1 L585.8,121.1 L586.2,129.9 L589.2,120.1 L594.9,120.0 L595.0,124.2 L596.9,128.3 L599.8,130.2 L600.7,135.5 L603.5,132.2 L597.5,125.7 L597.2,121.5 L599.7,126.5 L603.5,128.6 L609.2,123.9 L611.6,123.6 L619.4,125.3 L625.6,127.9 L623.8,148.8 L629.1,150.2 L628.0,154.1 L623.2,156.0 L619.2,165.7 L614.6,165.3 L612.6,167.4 L612.2,175.3 L614.4,180.0 L613.7,181.9 L610.4,181.9 L607.4,185.8 L606.6,190.1 L604.5,190.5 L600.9,190.3 L598.6,188.5 L597.6,184.6 L587.2,181.6 L583.7,183.4 L586.0,186.5 L581.8,188.4 L572.1,186.9 L567.7,189.8 L564.3,186.7 L553.3,190.6 L551.2,190.6 L547.0,193.8 L535.7,199.6 L522.5,203.8 L523.5,198.5 L524.5,187.2 L525.2,187.0 L525.6,169.0 L534.0,167.6 L532.9,164.5 L532.8,150.8 L533.3,146.3 L534.8,145.8 L539.6,143.8 L541.1,145.9 L541.1,145.9 L541.7,145.7 L544.8,144.5 L544.9,144.6 L545.7,145.6 L547.0,147.2 L547.2,147.4 L547.3,147.4 L549.5,146.2 L551.0,145.3 L552.1,145.6 L553.0,145.9 L553.9,146.2 L553.9,148.6 L553.8,149.3 L553.8,149.4 L554.0,149.6 L555.7,151.3 L555.9,151.4 L556.7,151.5 L560.0,151.6 L560.5,154.6 L558.6,158.1 L558.5,158.4 L558.6,158.6 Z">
  <desc xmlns="http://www.highcharts.com/svg/namespace">
    <name>Kollumerland en Nieuwkruisland</name>
    <hc-middle-x>0.55</hc-middle-x>
    <hc-middle-y>0.51</hc-middle-y>
    <hc-key>nl-fr-gm0079</hc-key>
    <hc-a2>KE</hc-a2>
  </desc>
</path>

<path fill="#CEE3F5" stroke="#6E6E6E" stroke-width="0.4" id="NL.FR.GM1891" d="M502.0,156.0 L505.7,156.5 L509.2,157.0 L510.1,157.0 L510.5,156.5 L510.6,145.4 L515.4,144.2 L515.4,144.1 L517.2,144.4 L519.7,144.8 L521.2,145.1 L523.5,144.2 L523.5,144.2 L523.7,144.2 L524.6,144.4 L527.0,144.7 L534.8,145.8 L533.3,146.3 L532.8,150.8 L532.9,164.5 L534.0,167.6 L525.6,169.0 L525.2,187.0 L524.5,187.2 L523.5,198.5 L522.5,203.8 L515.4,205.7 L512.0,206.2 L510.9,206.0 L496.4,214.9 L489.6,216.8 L484.4,216.7 L478.1,200.6 L470.4,199.6 L469.1,195.9 L465.6,195.3 L455.8,187.4 L450.7,182.5 L454.7,179.9 L457.2,176.5 L461.0,174.0 L459.6,169.7 L456.2,164.0 L466.8,156.5 L472.6,153.1 L476.3,152.0 L477.8,151.5 L478.9,151.1 L480.6,148.9 L481.6,148.6 L484.7,147.4 L488.6,148.4 L488.7,148.6 L488.8,148.8 L489.8,151.2 L488.3,153.9 L489.2,156.1 L489.6,157.0 L490.7,158.8 L496.7,156.2 L500.3,155.8 Z">
  <desc xmlns="http://www.highcharts.com/svg/namespace">
    <name>Dantumadiel</name>
    <hc-middle-x>0.41</hc-middle-x>
    <hc-middle-y>0.50</hc-middle-y>
    <hc-key>nl-fr-gm1891</hc-key>
    <hc-a2>DA</hc-a2>
  </desc>
</path>

<path fill="#CEE3F5" stroke="#6E6E6E" stroke-width="0.4" id="NL.FR.GM0072" d="M247.6,281.3 L247.5,281.3 L247.7,281.3 Z M257.8,238.6 L257.9,238.6 L257.9,238.6 L266.1,243.3 L267.0,245.5 L270.8,245.8 L280.7,244.4 L281.2,249.3 L280.1,249.7 L278.0,255.6 L277.3,262.7 L284.3,260.7 L283.2,264.6 L280.0,267.2 L280.4,270.5 L276.4,280.8 L274.5,284.2 L272.9,286.7 L269.8,285.9 L270.5,283.9 L266.0,283.5 L265.1,282.1 L265.1,282.1 L257.8,279.8 L252.0,279.7 L250.2,282.0 L247.8,281.3 L249.2,271.6 L246.7,266.0 L246.9,263.9 L250.5,258.8 L253.3,257.8 L257.4,253.4 L258.7,250.3 L254.7,255.3 L251.2,257.2 L257.8,238.7 L257.8,238.7 Z M211.5,339.0 L210.7,336.1 L210.8,335.7 L210.7,336.1 Z M214.8,334.8 L215.0,334.7 L215.0,334.8 Z M216.6,336.9 L216.6,336.9 L216.6,336.9 L216.8,337.1 Z M216.6,336.9 L215.9,336.7 L215.9,336.7 L216.6,336.9 Z M223.7,256.6 L233.4,260.1 L223.7,256.7 L215.2,253.8 Z">
  <desc xmlns="http://www.highcharts.com/svg/namespace">
    <name>Harlingen</name>
    <hc-middle-x>0.74</hc-middle-x>
    <hc-middle-y>0.25</hc-middle-y>
    <hc-key>nl-fr-gm0072</hc-key>
    <hc-a2>HA</hc-a2>
  </desc>
</path>

<path fill="#CEE3F5" stroke="#6E6E6E" stroke-width="0.4" id="NL.FR.GM1722" d="M440.6,118.5 L443.9,118.4 L445.5,120.3 L448.8,124.1 L448.8,124.2 L448.8,124.2 L449.3,126.9 L447.8,127.3 L447.8,128.0 L448.1,128.3 L449.2,129.6 L450.4,131.0 L452.1,130.3 L459.3,133.3 L459.6,133.4 L459.8,133.7 L460.8,134.8 L461.5,135.5 L463.8,137.9 L461.6,139.5 L461.2,139.7 L462.2,140.2 L463.8,141.0 L465.7,141.9 L466.3,142.6 L469.0,146.4 L469.3,146.7 L470.0,147.6 L470.0,147.6 L470.4,147.3 L471.9,146.4 L472.1,148.0 L472.2,148.7 L472.3,149.9 L472.6,153.1 L466.8,156.5 L456.2,164.0 L459.6,169.7 L461.0,174.0 L457.2,176.5 L454.7,179.9 L450.7,182.5 L447.2,178.3 L441.1,174.2 L435.4,176.9 L431.7,184.6 L419.3,183.2 L419.4,180.8 L415.1,180.1 L398.1,171.6 L392.0,172.2 L385.9,171.9 L387.7,164.4 L391.5,157.9 L382.7,155.4 L379.2,156.6 L379.5,152.0 L377.6,142.9 L382.0,139.3 L406.1,125.4 L412.7,122.9 L423.6,116.2 L431.4,112.1 L432.8,110.2 L433.0,110.4 L433.0,110.4 L433.7,111.2 Z M471.2,150.9 L471.2,150.9 L471.2,150.9 L471.2,150.9 Z M448.8,124.2 L448.8,124.2 L448.8,124.2 L448.8,124.2 Z">
  <desc xmlns="http://www.highcharts.com/svg/namespace">
    <name>Ferwerderadiel</name>
    <hc-middle-x>0.49</hc-middle-x>
    <hc-middle-y>0.54</hc-middle-y>
    <hc-key>nl-fr-gm1722</hc-key>
    <hc-a2>FE</hc-a2>
  </desc>
</path>

<path fill="#CEE3F5" stroke="#6E6E6E" stroke-width="0.4" id="NL.FR.GM0088" d="M521.9,36.0 L523.7,36.9 L522.4,37.6 Z M550.2,19.9 L555.0,16.8 L550.6,25.0 L551.4,31.3 L550.8,36.6 L548.6,43.1 L546.9,41.8 L545.6,37.2 L547.4,33.9 L548.3,29.3 L547.7,24.4 Z M563.8,41.1 L562.1,45.4 L557.8,49.9 L559.1,52.5 L555.0,51.5 L550.3,43.5 L554.6,39.6 L552.8,37.9 L552.3,32.8 L553.0,28.0 L556.1,20.9 L563.8,14.7 L558.9,15.0 L556.3,18.5 L556.8,13.4 L569.9,11.5 L584.4,10.6 L594.9,9.5 L617.4,6.5 L641.9,0.7 L654.9,0.0 L656.0,2.7 L650.4,7.5 L645.2,9.7 L637.6,9.6 L632.0,13.5 L624.3,17.0 L616.2,19.8 L614.1,23.0 L608.5,26.1 L609.8,26.7 L601.7,30.1 L595.1,29.9 L588.7,31.4 L580.9,33.8 L566.4,34.7 L562.9,39.5 Z">
  <desc xmlns="http://www.highcharts.com/svg/namespace">
    <name>Schiermonnikoog</name>
    <hc-middle-x>0.46</hc-middle-x>
    <hc-middle-y>0.40</hc-middle-y>
    <hc-key>nl-fr-gm0088</hc-key>
    <hc-a2>SC</hc-a2>
  </desc>
</path>

<path fill="#CEE3F5" stroke="#6E6E6E" stroke-width="0.4" id="NL.FR.GM0096" d="M134.0,179.8 L133.9,180.6 L129.0,180.7 L126.8,183.3 L116.3,191.0 L114.3,188.3 L114.1,185.0 L121.1,178.2 L128.1,178.0 Z M36.1,233.3 L32.9,235.4 L26.1,242.0 L16.9,241.6 L10.9,243.1 L2.9,249.6 L0.0,244.2 L0.2,238.4 L5.6,234.9 L31.2,215.8 L40.5,207.5 L49.0,198.8 L62.0,188.7 L72.0,182.4 L75.1,179.9 L89.7,172.8 L95.6,172.1 L107.1,174.2 L107.6,176.8 L105.1,180.6 L98.5,180.3 L92.3,182.2 L84.2,189.2 L78.5,192.4 L59.2,200.1 L52.5,204.7 L54.8,212.1 L52.7,212.7 L50.3,213.4 L46.3,217.1 L45.2,220.4 L41.7,219.8 L41.2,222.6 L35.8,225.7 L37.7,227.7 Z">
  <desc xmlns="http://www.highcharts.com/svg/namespace">
    <name>Vlieland</name>
    <hc-middle-x>0.18</hc-middle-x>
    <hc-middle-y>0.76</hc-middle-y>
    <hc-key>nl-fr-gm0096</hc-key>
    <hc-a2>VL</hc-a2>
  </desc>
</path>

<path fill="#CEE3F5" stroke="#6E6E6E" stroke-width="0.4" id="NL.FR.GM1900" d="M307.9,294.7 L310.7,295.3 L310.0,295.8 L308.3,297.3 L306.4,296.9 L304.2,301.2 L304.0,303.5 L303.8,306.0 L302.5,304.8 L302.0,304.3 L299.4,307.5 L299.7,314.1 L301.1,316.1 L307.7,316.7 L312.7,315.9 L314.3,318.8 L314.3,318.9 L314.0,324.4 L317.4,328.3 L321.2,326.9 L321.3,326.8 L327.0,327.9 L329.2,333.5 L327.5,333.9 L328.0,335.4 L329.1,338.0 L332.2,339.3 L332.3,339.3 L332.4,339.3 L337.5,337.0 L337.4,335.9 L337.3,335.3 L339.2,334.7 L339.9,334.7 L340.4,334.7 L340.4,334.6 L343.0,334.0 L344.4,336.8 L347.5,336.1 L350.0,339.9 L353.0,338.5 L353.8,338.2 L354.5,337.7 L355.4,339.3 L357.1,339.8 L357.7,338.9 L357.7,338.6 L357.8,338.6 L357.8,338.5 L360.4,334.8 L363.9,333.1 L365.5,332.4 L366.3,331.8 L367.9,335.9 L374.8,331.3 L377.1,329.8 L377.2,330.0 L377.4,330.1 L378.0,331.1 L378.5,332.1 L377.4,332.6 L375.8,333.9 L375.9,334.0 L377.1,335.3 L377.3,335.5 L377.3,335.5 L377.3,335.5 L376.1,336.8 L376.5,337.4 L376.8,337.7 L376.8,337.7 L376.8,337.7 L377.0,338.0 L377.1,338.1 L377.3,338.2 L378.1,338.9 L381.6,341.9 L385.9,342.9 L389.1,345.3 L389.1,345.3 L389.2,345.5 L390.1,346.0 L390.4,346.3 L390.8,346.5 L390.9,346.6 L391.6,347.2 L392.2,347.8 L392.7,348.3 L393.2,348.3 L399.4,352.3 L401.6,352.5 L399.6,355.8 L393.9,365.0 L393.7,366.3 L393.7,367.1 L393.7,368.1 L392.8,375.8 L399.8,381.3 L397.2,385.0 L388.8,388.0 L388.5,388.3 L388.2,389.1 L387.4,389.5 L386.8,389.9 L386.0,390.7 L385.4,391.9 L384.7,393.3 L384.7,393.4 L384.2,395.1 L382.1,397.3 L382.1,397.4 L382.3,398.0 L382.3,398.1 L381.3,399.1 L380.2,398.7 L379.9,398.6 L378.1,397.9 L377.2,397.6 L375.0,396.1 L374.2,397.5 L373.6,399.4 L373.8,400.8 L374.3,404.7 L375.5,413.5 L375.0,433.4 L375.7,436.8 L371.0,437.0 L371.0,437.0 L354.9,435.2 L354.2,445.3 L334.2,451.2 L332.1,447.4 L331.4,445.7 L328.7,441.2 L324.0,431.9 L320.4,428.2 L299.1,442.7 L295.7,446.0 L282.8,462.6 L290.5,471.4 L289.9,472.3 L288.8,474.2 L290.8,476.3 L291.0,476.4 L292.0,477.1 L294.2,478.5 L289.4,484.9 L284.4,486.5 L283.5,486.8 L283.3,486.9 L281.5,484.0 L279.7,484.8 L279.3,484.5 L278.3,485.4 L275.9,485.0 L275.5,484.9 L274.9,485.2 L270.4,484.4 L268.9,484.0 L263.8,483.4 L261.1,484.5 L264.3,486.7 L266.3,494.0 L266.7,495.2 L268.2,500.6 L261.6,502.9 L256.8,501.6 L249.0,496.7 L243.0,490.4 L237.9,486.8 L232.6,485.1 L229.1,476.0 L235.3,467.0 L243.8,461.6 L249.3,460.9 L251.4,458.1 L252.4,449.6 L248.3,436.8 L246.1,434.3 L251.2,431.4 L252.4,424.7 L250.9,421.7 L252.9,418.8 L250.5,410.3 L246.9,401.2 L246.3,392.3 L245.2,389.8 L248.2,387.2 L249.6,378.4 L244.8,375.3 L244.6,370.3 L246.8,369.8 L246.7,360.1 L245.6,367.9 L243.1,369.0 L240.8,363.0 L238.4,359.8 L234.4,360.3 L236.6,357.5 L234.6,352.9 L244.3,352.4 L246.8,354.5 L241.5,346.0 L239.9,336.5 L235.1,325.7 L230.6,328.6 L222.4,337.0 L217.4,340.2 L215.9,336.7 L216.6,336.9 L216.6,336.9 L216.6,336.9 L216.6,336.9 L216.6,336.9 L216.9,337.4 L216.9,337.4 L221.5,336.7 L234.0,323.7 L236.0,316.0 L234.5,313.8 L241.6,309.0 L245.4,303.6 L247.3,292.0 L247.6,281.3 L247.7,281.3 L247.8,281.3 L250.2,282.0 L252.0,279.7 L257.8,279.8 L265.1,282.1 L270.5,283.9 L269.8,285.9 L272.9,286.7 L274.5,284.2 L276.8,286.8 L281.2,288.1 L280.1,291.1 L283.5,287.3 L288.2,290.2 L289.2,292.4 L292.6,289.5 L291.8,284.3 L299.0,283.9 L300.4,282.4 L303.4,286.5 L307.7,289.8 L307.7,289.9 L307.8,290.1 L307.8,290.1 L307.8,290.1 L308.0,291.4 L307.3,292.5 L307.4,292.9 Z M216.8,337.1 L216.8,337.1 L216.8,337.2 L216.8,337.2 L216.8,337.1 Z M375.9,334.0 L375.9,334.0 L375.9,334.0 L375.9,334.0 Z M214.8,334.8 L215.0,334.8 L215.1,334.9 L215.1,334.9 L215.1,334.9 L215.5,335.2 L214.7,336.5 L217.1,343.4 L214.2,339.6 Z M211.5,339.0 L210.7,336.1 L210.8,335.7 L212.2,341.0 L200.4,344.2 L198.6,345.4 L166.6,375.0 L163.3,379.6 L156.0,384.8 L143.7,396.2 L143.3,395.8 L198.0,345.2 L203.3,342.5 L210.9,340.4 Z M234.2,351.8 L229.6,342.9 L228.8,338.0 L230.5,337.2 L232.4,339.9 L236.3,340.2 L238.7,342.3 L240.5,348.1 L243.0,351.9 Z">
  <desc xmlns="http://www.highcharts.com/svg/namespace">
    <name>Súdwest-Fryslân</name>
    <hc-middle-x>0.71</hc-middle-x>
    <hc-middle-y>0.46</hc-middle-y>
    <hc-key>nl-fr-gm1900</hc-key>
    <hc-a2>SF</hc-a2>
  </desc>
</path>

<path fill="#CEE3F5" stroke="#6E6E6E" stroke-width="0.4" id="NL.FR.GM0140" d="M307.9,294.7 L307.2,293.4 L307.4,292.9 L308.0,291.4 L307.8,290.1 L307.8,290.1 L307.7,289.9 L307.7,289.8 L307.7,289.8 L308.1,290.4 L309.3,292.1 L310.0,292.1 L313.3,291.6 L314.6,294.8 L315.9,295.2 L316.8,295.1 L317.2,295.2 L317.5,295.0 L318.3,295.0 L319.6,293.8 L320.1,291.6 L322.5,291.9 L322.9,291.9 L323.5,292.8 L325.6,294.3 L327.3,293.1 L325.8,290.9 L325.8,290.2 L325.7,289.1 L325.0,288.2 L326.5,288.1 L329.3,286.6 L329.3,286.5 L329.5,285.8 L329.8,284.9 L331.1,285.0 L331.7,285.0 L331.7,284.6 L331.3,281.2 L331.2,280.3 L330.2,280.0 L330.1,280.0 L330.1,279.9 L330.1,279.5 L330.0,278.9 L329.3,279.0 L327.0,279.5 L326.2,273.6 L324.8,271.7 L321.0,270.9 L321.1,267.2 L322.7,266.9 L322.7,266.7 L322.7,266.7 L322.7,266.5 L323.0,265.4 L323.1,265.3 L324.2,264.6 L324.9,263.9 L324.3,263.0 L324.6,262.7 L324.6,262.6 L324.8,260.2 L331.7,255.0 L332.9,258.1 L338.8,261.4 L340.3,266.0 L344.6,266.1 L347.4,263.6 L353.3,267.1 L355.8,265.5 L358.8,260.1 L360.2,261.6 L362.5,258.3 L363.7,259.3 L366.8,255.1 L372.5,258.0 L373.4,260.8 L379.5,259.5 L381.9,263.0 L386.2,263.2 L390.4,261.1 L391.9,261.4 L402.5,259.3 L401.8,263.3 L402.8,267.6 L402.3,277.9 L402.8,282.2 L400.2,289.0 L399.1,295.7 L400.4,301.3 L392.7,309.4 L386.7,314.5 L380.0,322.2 L377.4,330.1 L377.1,329.8 L376.9,329.7 L376.9,329.6 L374.8,331.3 L374.4,331.6 L367.9,335.9 L366.4,331.7 L360.4,334.8 L358.8,336.7 L358.3,337.7 L357.8,338.5 L357.7,338.6 L357.1,339.8 L354.5,337.7 L350.0,339.9 L347.5,336.1 L344.4,336.8 L343.0,334.0 L339.9,334.7 L337.3,335.3 L337.5,337.0 L332.3,339.3 L332.3,339.3 L332.3,339.4 L332.2,339.3 L331.3,337.6 L329.3,337.9 L329.1,338.0 L329.0,338.0 L327.9,335.8 L328.0,335.4 L329.2,333.5 L327.0,327.9 L321.2,326.9 L320.9,326.8 L317.4,328.3 L314.0,324.4 L314.3,318.8 L314.3,318.7 L314.3,318.6 L314.0,317.0 L312.7,315.9 L307.7,316.7 L301.1,316.1 L299.7,314.1 L299.4,307.5 L302.5,304.8 L304.0,303.5 L304.3,303.3 L304.5,301.9 L304.2,301.2 L306.4,296.9 L310.7,295.3 Z">
  <desc xmlns="http://www.highcharts.com/svg/namespace">
    <name>Littenseradiel</name>
    <hc-middle-x>0.53</hc-middle-x>
    <hc-middle-y>0.50</hc-middle-y>
    <hc-key>nl-fr-gm0140</hc-key>
    <hc-a2>LI</hc-a2>
  </desc>
</path>

<path fill="#CEE3F5" stroke="#6E6E6E" stroke-width="0.4" id="NL.FR.GM0070" d="M319.6,293.8 L314.6,294.8 L313.3,291.6 L310.9,292.9 L310.0,292.1 L308.1,290.4 L307.8,290.1 L307.8,290.1 L307.8,290.1 L307.7,289.9 L307.7,289.8 L303.4,286.5 L300.4,282.4 L299.0,283.9 L291.8,284.3 L292.6,289.5 L289.2,292.4 L288.2,290.2 L283.5,287.3 L280.1,291.1 L281.2,288.1 L276.8,286.8 L274.5,284.2 L276.4,280.8 L280.4,270.5 L280.0,267.2 L283.2,264.6 L284.3,260.7 L277.3,262.7 L278.0,255.6 L280.1,249.7 L281.2,249.3 L280.7,244.4 L270.8,245.8 L267.0,245.5 L266.1,243.3 L257.9,238.6 L262.1,231.1 L268.0,226.0 L272.3,220.4 L277.4,215.0 L279.8,214.3 L286.4,208.9 L290.7,206.7 L297.8,200.4 L300.3,196.1 L300.4,196.6 L301.2,198.1 L303.4,198.8 L304.3,199.2 L306.1,198.6 L308.5,202.1 L308.7,202.4 L309.1,202.9 L312.3,207.2 L313.8,209.3 L315.4,211.6 L325.3,224.8 L326.8,223.8 L328.6,221.5 L328.6,221.5 L328.6,221.5 L328.6,221.5 L328.6,221.5 L328.6,221.5 L328.6,221.5 L332.9,226.3 L332.2,226.9 L332.4,227.2 L332.6,227.4 L332.6,227.4 L332.6,227.4 L332.6,227.5 L333.4,228.5 L331.4,229.4 L334.0,232.7 L334.2,232.9 L335.3,232.7 L338.1,237.1 L331.1,240.0 L332.1,241.4 L332.2,241.5 L332.4,242.5 L332.8,243.7 L333.0,244.3 L333.0,244.4 L332.8,244.9 L333.5,246.5 L335.1,247.5 L336.3,247.7 L336.3,248.4 L336.3,248.4 L336.2,248.7 L337.4,249.2 L334.2,253.2 L331.7,255.0 L327.0,258.9 L324.8,260.2 L324.3,261.6 L324.5,261.9 L324.6,262.6 L324.9,263.9 L323.1,265.3 L322.9,265.5 L322.7,266.5 L321.1,267.2 L321.0,270.9 L324.8,271.7 L326.2,273.6 L327.0,279.5 L329.3,279.0 L330.1,279.9 L330.2,280.0 L331.3,281.2 L332.3,282.4 L331.7,284.6 L331.7,284.6 L331.1,285.0 L329.5,285.8 L325.0,288.2 L325.6,289.8 L325.8,290.2 L327.3,293.1 L323.5,292.8 L323.9,291.7 L322.5,291.9 Z M257.8,238.7 L257.4,238.3 L257.8,238.6 L257.8,238.7 Z">
  <desc xmlns="http://www.highcharts.com/svg/namespace">
    <name>Franekeradeel</name>
    <hc-middle-x>0.52</hc-middle-x>
    <hc-middle-y>0.47</hc-middle-y>
    <hc-key>nl-fr-gm0070</hc-key>
    <hc-a2>FR</hc-a2>
  </desc>
</path>

<path fill="#CEE3F5" stroke="#6E6E6E" stroke-width="0.4" id="NL.FR.GM0055" d="M378.5,332.1 L377.4,330.1 L380.0,322.2 L386.7,314.5 L392.7,309.4 L400.4,301.3 L399.1,295.7 L409.9,294.5 L412.5,296.8 L413.0,295.1 L417.8,297.0 L424.8,292.4 L426.0,287.4 L428.5,286.0 L429.2,279.1 L433.0,275.2 L427.0,266.9 L429.7,265.1 L433.5,265.1 L436.2,261.2 L444.9,259.7 L446.6,260.0 L472.9,260.8 L476.0,259.3 L475.9,266.0 L470.5,275.0 L466.1,278.4 L473.0,288.2 L479.9,292.0 L482.1,294.7 L485.4,306.8 L483.8,307.7 L477.2,302.9 L475.4,304.2 L468.1,304.3 L455.6,306.5 L457.7,315.5 L454.4,318.2 L456.6,319.6 L451.2,325.3 L451.9,330.6 L462.2,328.7 L462.3,326.8 L476.4,326.5 L479.0,326.6 L480.3,329.7 L477.9,331.8 L480.9,335.7 L484.2,335.8 L485.6,337.8 L483.8,344.4 L490.4,344.0 L488.4,346.7 L484.8,347.6 L484.7,351.0 L482.0,351.2 L484.3,353.3 L477.8,358.6 L475.5,355.5 L476.1,359.3 L472.4,362.3 L466.9,364.7 L465.3,360.5 L463.8,361.0 L467.0,369.2 L464.0,369.8 L462.3,368.9 L451.3,367.6 L449.7,364.7 L450.3,361.8 L445.6,359.9 L444.0,356.9 L437.6,362.7 L431.7,357.5 L426.0,366.5 L424.7,365.8 L403.9,366.9 L403.6,352.6 L401.6,352.5 L399.4,352.3 L396.5,350.3 L394.4,348.9 L393.6,348.3 L393.2,348.3 L392.2,347.8 L391.5,347.4 L391.6,347.2 L391.6,347.2 L391.7,347.1 L390.9,346.6 L390.9,346.6 L390.4,346.3 L389.1,345.3 L385.9,342.9 L381.6,341.9 L381.3,340.3 L381.1,340.3 L379.5,339.9 L378.7,338.7 L378.1,338.9 L378.0,339.0 L377.3,338.2 L377.3,338.2 L376.1,336.8 L377.3,335.5 L377.3,335.5 L377.3,335.5 L377.1,335.3 L376.2,334.4 L375.9,334.0 L375.9,334.0 L375.9,334.0 Z M377.3,335.5 L377.3,335.5 L377.3,335.5 Z M375.8,333.9 L375.9,334.0 L375.9,334.0 L375.8,334.0 Z">
  <desc xmlns="http://www.highcharts.com/svg/namespace">
    <name>Boarnsterhim</name>
    <hc-middle-x>0.47</hc-middle-x>
    <hc-middle-y>0.68</hc-middle-y>
    <hc-key>nl-fr-gm0055</hc-key>
    <hc-a2>BO</hc-a2>
  </desc>
</path>

<path fill="#CEE3F5" stroke="#6E6E6E" stroke-width="0.4" id="NL.FR.GM0051" d="M379.9,398.6 L381.3,399.1 L382.4,398.4 L382.3,398.1 L382.3,398.0 L382.2,397.9 L382.1,397.5 L382.1,397.4 L384.2,395.1 L384.7,393.3 L384.7,393.2 L384.9,392.7 L385.2,392.1 L385.4,391.9 L387.4,389.5 L388.8,388.0 L397.2,385.0 L397.1,382.9 L397.1,382.9 L397.8,382.5 L398.6,382.1 L399.6,381.5 L399.6,381.5 L399.8,381.3 L399.7,381.2 L399.8,380.9 L399.0,380.4 L392.8,375.8 L393.7,367.1 L393.9,365.0 L401.6,352.5 L403.6,352.6 L403.9,366.9 L424.7,365.8 L426.0,366.5 L431.7,357.5 L437.6,362.7 L444.0,356.9 L445.6,359.9 L450.3,361.8 L449.7,364.7 L451.3,367.6 L462.3,368.9 L464.0,369.8 L464.6,371.7 L458.5,370.6 L462.2,373.0 L460.4,375.5 L462.6,378.3 L459.5,379.3 L461.9,387.7 L459.7,389.7 L462.2,392.2 L459.5,394.2 L461.6,398.0 L462.1,403.4 L474.6,425.6 L474.1,427.3 L484.0,445.9 L485.9,448.0 L483.8,451.4 L474.7,458.6 L463.7,461.6 L462.5,465.5 L444.2,456.2 L408.3,468.4 L380.9,460.7 L380.7,465.3 L375.2,464.4 L365.7,469.8 L358.7,458.2 L360.5,455.9 L358.0,452.9 L354.2,445.3 L354.9,435.2 L371.0,437.0 L371.0,437.0 L375.7,436.8 L375.0,433.4 L375.5,413.5 L375.1,407.8 L375.1,407.5 L374.3,404.7 L373.6,401.7 L373.8,400.8 L375.0,396.1 L378.1,397.9 L378.9,398.4 Z">
  <desc xmlns="http://www.highcharts.com/svg/namespace">
    <name>Skarsterlân</name>
    <hc-middle-x>0.50</hc-middle-x>
    <hc-middle-y>0.56</hc-middle-y>
    <hc-key>nl-fr-gm0051</hc-key>
    <hc-a2>SK</hc-a2>
  </desc>
</path>

<path fill="#CEE3F5" stroke="#6E6E6E" stroke-width="0.4" id="NL.FR.GM0653" d="M264.3,486.7 L261.0,484.5 L261.1,484.5 L263.8,483.4 L268.9,484.0 L270.7,484.6 L274.9,485.2 L275.9,485.0 L281.5,484.0 L283.5,486.8 L283.5,486.9 L283.7,487.0 L283.9,486.9 L284.4,486.5 L288.1,483.5 L289.4,484.9 L294.2,478.5 L294.3,478.4 L292.0,477.1 L291.2,476.6 L291.0,476.4 L288.8,474.2 L290.5,471.4 L282.8,462.6 L295.7,446.0 L299.1,442.7 L320.4,428.2 L321.3,428.9 L322.3,429.6 L324.0,431.9 L325.1,434.9 L334.2,451.2 L354.2,445.3 L358.0,452.9 L360.5,455.9 L358.7,458.2 L365.7,469.8 L360.4,471.9 L361.1,475.0 L356.9,481.6 L356.5,485.6 L357.5,490.1 L353.5,492.2 L346.0,498.1 L339.0,497.4 L332.4,499.2 L330.7,501.1 L329.9,506.6 L324.4,510.9 L318.0,512.3 L314.2,511.8 L306.7,509.2 L290.0,501.7 L282.2,499.4 L279.5,499.4 L273.4,497.3 L271.5,500.0 L268.2,500.6 L267.5,498.3 L267.1,496.7 L266.7,495.2 L266.3,494.0 L266.3,494.0 L266.6,493.9 Z">
  <desc xmlns="http://www.highcharts.com/svg/namespace">
    <name>Gaasterlân-Sleat</name>
    <hc-middle-x>0.60</hc-middle-x>
    <hc-middle-y>0.51</hc-middle-y>
    <hc-key>nl-fr-gm0653</hc-key>
    <hc-a2>GS</hc-a2>
  </desc>
</path>

<path fill="#CEE3F5" stroke="#6E6E6E" stroke-width="0.4" id="NL.FR.GM1908" d="M331.1,240.0 L338.1,237.1 L335.3,232.7 L331.4,229.4 L332.4,227.2 L332.9,226.3 L328.6,221.5 L328.6,221.5 L335.4,218.1 L340.6,213.7 L334.1,207.5 L335.5,202.3 L344.6,205.3 L346.1,204.5 L355.5,207.0 L355.3,209.5 L358.9,210.8 L367.1,212.0 L367.1,208.4 L373.5,209.3 L380.5,206.7 L386.4,205.7 L387.2,206.7 L391.1,210.9 L385.1,215.4 L388.9,218.2 L386.5,219.0 L387.6,229.5 L392.6,229.3 L392.0,232.6 L388.0,232.9 L388.7,236.6 L392.6,242.4 L390.8,247.4 L391.1,251.6 L393.4,251.7 L390.4,261.1 L386.2,263.2 L381.9,263.0 L379.5,259.5 L373.4,260.8 L372.5,258.0 L366.8,255.1 L363.7,259.3 L362.5,258.3 L360.2,261.6 L358.8,260.1 L355.8,265.5 L353.3,267.1 L347.4,263.6 L344.6,266.1 L340.3,266.0 L338.8,261.4 L332.9,258.1 L331.7,255.0 L337.4,249.2 L336.3,248.4 L333.5,246.5 L333.0,244.4 L332.8,243.7 L332.8,242.4 L332.2,241.5 Z">
  <desc xmlns="http://www.highcharts.com/svg/namespace">
    <name>Menameradiel</name>
    <hc-middle-x>0.50</hc-middle-x>
    <hc-middle-y>0.57</hc-middle-y>
    <hc-key>nl-fr-gm1908</hc-key>
    <hc-a2>ME</hc-a2>
  </desc>
</path>

<path fill="#CEE3F5" stroke="#6E6E6E" stroke-width="0.4" id="NL.FR.GM0081" d="M391.1,210.9 L387.2,206.7 L386.4,205.7 L387.3,202.8 L384.4,196.5 L386.7,193.8 L381.3,189.6 L379.8,186.3 L381.1,179.6 L383.9,172.1 L385.9,171.9 L392.0,172.2 L398.1,171.6 L415.1,180.1 L419.4,180.8 L419.3,183.2 L431.7,184.6 L429.3,189.1 L428.4,199.0 L429.9,204.0 L429.7,208.1 L424.2,217.2 L423.1,220.7 L419.7,222.3 L407.6,220.9 L405.2,221.1 L404.1,215.6 L399.7,215.4 L398.9,211.5 Z">
  <desc xmlns="http://www.highcharts.com/svg/namespace">
    <name>Leeuwarderadeel</name>
    <hc-middle-x>0.47</hc-middle-x>
    <hc-middle-y>0.51</hc-middle-y>
    <hc-key>nl-fr-gm0081</hc-key>
    <hc-a2>LE</hc-a2>
  </desc>
</path>

<path fill="#CEE3F5" stroke="#6E6E6E" stroke-width="0.4" id="NL.FR.GM0737" d="M429.7,208.1 L429.9,204.0 L428.4,199.0 L429.3,189.1 L431.7,184.6 L435.4,176.9 L441.1,174.2 L447.2,178.3 L450.7,182.5 L455.8,187.4 L465.6,195.3 L469.1,195.9 L470.4,199.6 L478.1,200.6 L484.4,216.7 L489.6,216.8 L496.4,214.9 L510.9,206.0 L512.0,206.2 L515.6,213.9 L541.9,223.8 L539.3,225.3 L541.1,228.7 L538.8,230.0 L542.1,239.0 L548.9,245.2 L553.1,251.6 L555.6,251.8 L552.1,269.6 L547.1,266.7 L544.9,268.4 L543.2,264.8 L540.9,266.4 L526.3,267.2 L514.6,268.6 L511.1,269.8 L504.8,274.6 L495.4,284.6 L485.8,289.8 L482.0,292.6 L482.1,294.7 L479.9,292.0 L473.0,288.2 L466.1,278.4 L470.5,275.0 L475.9,266.0 L476.0,259.3 L472.9,260.8 L446.6,260.0 L444.9,259.7 L440.4,246.3 L439.5,245.1 L444.2,243.6 L442.1,236.0 L459.5,231.9 L463.5,230.0 L462.9,227.1 L457.6,227.0 L455.4,225.5 L455.6,220.1 L451.5,220.3 L450.9,214.2 L446.0,215.8 L439.0,216.8 L441.6,207.3 Z">
  <desc xmlns="http://www.highcharts.com/svg/namespace">
    <name>Tytsjerksteradiel</name>
    <hc-middle-x>0.54</hc-middle-x>
    <hc-middle-y>0.60</hc-middle-y>
    <hc-key>nl-fr-gm0737</hc-key>
    <hc-a2>TY</hc-a2>
  </desc>
</path>

<path fill="#CEE3F5" stroke="#6E6E6E" stroke-width="0.4" id="NL.FR.GM0090" d="M583.4,262.6 L583.5,279.9 L588.3,284.6 L579.1,291.0 L571.4,300.1 L562.4,306.4 L557.8,317.8 L554.4,323.7 L547.9,328.8 L525.7,328.2 L519.2,328.4 L512.0,324.5 L507.6,323.3 L502.8,323.7 L500.7,326.3 L478.4,324.4 L476.4,326.5 L462.3,326.8 L462.2,328.7 L451.9,330.6 L451.2,325.3 L456.6,319.6 L454.4,318.2 L457.7,315.5 L455.6,306.5 L468.1,304.3 L475.4,304.2 L477.2,302.9 L483.8,307.7 L485.4,306.8 L482.1,294.7 L482.0,292.6 L485.8,289.8 L495.4,284.6 L504.8,274.6 L511.1,269.8 L514.6,268.6 L526.3,267.2 L540.9,266.4 L543.2,264.8 L544.9,268.4 L547.1,266.7 L552.1,269.6 L558.5,271.1 L559.6,274.3 L570.9,264.4 L572.8,269.4 Z">
  <desc xmlns="http://www.highcharts.com/svg/namespace">
    <name>Smallingerland</name>
    <hc-middle-x>0.57</hc-middle-x>
    <hc-middle-y>0.50</hc-middle-y>
    <hc-key>nl-fr-gm0090</hc-key>
    <hc-a2>SM</hc-a2>
  </desc>
</path>

<path fill="#CEE3F5" stroke="#6E6E6E" stroke-width="0.4" id="NL.FR.GM0082" d="M436.5,519.0 L432.2,521.8 L423.7,529.5 L420.9,519.5 L404.5,503.9 L393.7,501.2 L395.8,508.8 L388.8,505.7 L387.6,501.4 L386.6,506.9 L384.3,505.9 L382.4,501.6 L376.2,500.4 L370.5,501.3 L368.8,503.5 L364.2,502.5 L363.7,495.0 L357.5,490.1 L356.5,485.6 L356.9,481.6 L361.1,475.0 L360.4,471.9 L365.7,469.8 L375.2,464.4 L380.7,465.3 L380.9,460.7 L408.3,468.4 L444.2,456.2 L462.5,465.5 L459.8,467.3 L454.9,474.9 L451.4,479.3 L450.8,482.8 L446.3,490.9 L444.6,500.1 L442.9,501.5 L440.2,508.1 L439.7,511.4 L436.0,514.8 Z">
  <desc xmlns="http://www.highcharts.com/svg/namespace">
    <name>Lemsterland</name>
    <hc-middle-x>0.50</hc-middle-x>
    <hc-middle-y>0.39</hc-middle-y>
    <hc-key>nl-fr-gm0082</hc-key>
    <hc-a2>LE</hc-a2>
  </desc>
</path>

<path fill="#CEE3F5" stroke="#6E6E6E" stroke-width="0.4" id="NL.FR.GM0098" d="M622.1,433.6 L621.2,436.4 L615.8,441.2 L605.4,458.2 L587.8,470.5 L568.7,486.2 L556.3,494.4 L551.4,498.6 L542.8,498.6 L538.9,500.2 L542.5,508.2 L530.1,516.9 L527.0,511.5 L519.5,513.7 L515.6,516.2 L510.1,512.8 L505.6,504.4 L503.3,498.3 L497.4,500.1 L496.4,504.9 L491.6,502.1 L483.5,505.0 L481.9,507.1 L483.4,509.0 L482.6,512.3 L478.4,516.0 L476.1,520.0 L472.1,522.1 L471.4,524.6 L464.9,527.6 L463.1,530.0 L457.0,527.4 L447.7,527.3 L442.8,522.9 L439.0,522.0 L436.5,519.0 L436.0,514.8 L439.7,511.4 L440.2,508.1 L442.9,501.5 L444.6,500.1 L446.3,490.9 L450.8,482.8 L451.4,479.3 L454.9,474.9 L459.8,467.3 L462.5,465.5 L463.7,461.6 L474.7,458.6 L483.8,451.4 L485.9,448.0 L493.8,436.7 L498.0,435.4 L503.9,436.0 L511.4,431.5 L514.5,430.8 L529.6,441.4 L532.4,441.3 L547.1,431.2 L550.1,427.4 L550.8,427.3 L562.1,443.7 L574.7,435.1 L577.0,432.0 L582.3,430.1 L588.8,426.1 L595.6,423.5 L600.9,420.2 L601.1,423.1 L605.0,426.8 L607.2,432.5 Z">
  <desc xmlns="http://www.highcharts.com/svg/namespace">
    <name>Weststellingwerf</name>
    <hc-middle-x>0.41</hc-middle-x>
    <hc-middle-y>0.46</hc-middle-y>
    <hc-key>nl-fr-gm0098</hc-key>
    <hc-a2>WE</hc-a2>
  </desc>
</path>

<path fill="#CEE3F5" stroke="#6E6E6E" stroke-width="0.4" id="NL.FR.GM0080" d="M444.9,259.7 L436.2,261.2 L433.5,265.1 L429.7,265.1 L427.0,266.9 L433.0,275.2 L429.2,279.1 L428.5,286.0 L426.0,287.4 L424.8,292.4 L417.8,297.0 L413.0,295.1 L412.5,296.8 L409.9,294.5 L399.1,295.7 L400.2,289.0 L402.8,282.2 L402.3,277.9 L402.8,267.6 L401.8,263.3 L402.5,259.3 L391.9,261.4 L390.4,261.1 L393.4,251.7 L391.1,251.6 L390.8,247.4 L392.6,242.4 L388.7,236.6 L388.0,232.9 L392.0,232.6 L392.6,229.3 L387.6,229.5 L386.5,219.0 L388.9,218.2 L385.1,215.4 L391.1,210.9 L398.9,211.5 L399.7,215.4 L404.1,215.6 L405.2,221.1 L407.6,220.9 L419.7,222.3 L423.1,220.7 L424.2,217.2 L429.7,208.1 L441.6,207.3 L439.0,216.8 L446.0,215.8 L450.9,214.2 L451.5,220.3 L455.6,220.1 L455.4,225.5 L457.6,227.0 L462.9,227.1 L463.5,230.0 L459.5,231.9 L442.1,236.0 L444.2,243.6 L439.5,245.1 L440.4,246.3 Z">
  <desc xmlns="http://www.highcharts.com/svg/namespace">
    <name>Leeuwarden</name>
    <hc-middle-x>0.39</hc-middle-x>
    <hc-middle-y>0.34</hc-middle-y>
    <hc-key>nl-fr-gm0080</hc-key>
    <hc-a2>LE</hc-a2>
  </desc>
</path>

<path fill="#CEE3F5" stroke="#6E6E6E" stroke-width="0.4" id="NL.FR.GM0085" d="M654.4,321.0 L670.4,326.0 L669.2,350.5 L700.0,394.5 L686.3,423.7 L660.6,444.3 L646.7,431.3 L626.1,430.3 L622.1,433.6 L607.2,432.5 L605.0,426.8 L601.1,423.1 L600.9,420.2 L595.6,423.5 L588.8,426.1 L582.3,430.1 L577.0,432.0 L574.7,435.1 L562.1,443.7 L550.8,427.3 L550.1,427.4 L553.4,422.8 L562.8,416.0 L568.8,413.6 L574.8,403.3 L581.5,397.0 L597.6,388.6 L600.1,385.6 L599.9,350.8 L603.2,351.9 L624.2,339.8 L632.3,334.5 L632.5,330.1 Z">
  <desc xmlns="http://www.highcharts.com/svg/namespace">
    <name>Ooststellingwerf</name>
    <hc-middle-x>0.61</hc-middle-x>
    <hc-middle-y>0.59</hc-middle-y>
    <hc-key>nl-fr-gm0085</hc-key>
    <hc-a2>OO</hc-a2>
  </desc>
</path>

<path fill="#CEE3F5" stroke="#6E6E6E" stroke-width="0.4" id="NL.FR.GM0059" d="M604.5,190.5 L605.9,192.9 L603.8,195.2 L604.4,199.1 L598.7,201.6 L601.9,203.9 L597.8,205.3 L597.4,207.4 L602.2,210.5 L602.5,213.5 L604.7,215.6 L604.8,219.0 L600.5,227.8 L595.9,232.7 L592.2,233.7 L592.2,237.5 L590.4,238.9 L587.6,245.4 L585.0,254.5 L583.3,257.3 L583.4,262.6 L572.8,269.4 L570.9,264.4 L559.6,274.3 L558.5,271.1 L552.1,269.6 L555.6,251.8 L553.1,251.6 L548.9,245.2 L542.1,239.0 L538.8,230.0 L541.1,228.7 L539.3,225.3 L541.9,223.8 L515.6,213.9 L512.0,206.2 L515.4,205.7 L522.5,203.8 L535.7,199.6 L547.0,193.8 L551.2,190.6 L553.3,190.6 L564.3,186.7 L567.7,189.8 L572.1,186.9 L581.8,188.4 L586.0,186.5 L583.7,183.4 L587.2,181.6 L597.6,184.6 L598.6,188.5 L600.9,190.3 Z">
  <desc xmlns="http://www.highcharts.com/svg/namespace">
    <name>Achtkarspelen</name>
    <hc-middle-x>0.55</hc-middle-x>
    <hc-middle-y>0.40</hc-middle-y>
    <hc-key>nl-fr-gm0059</hc-key>
    <hc-a2>AC</hc-a2>
  </desc>
</path>

<path fill="#CEE3F5" stroke="#6E6E6E" stroke-width="0.4" id="NL.FR.GM0086" d="M588.3,284.6 L597.2,294.2 L605.0,294.3 L610.2,295.1 L622.6,294.0 L627.7,296.0 L631.8,298.9 L635.3,303.9 L646.3,307.6 L642.4,317.2 L654.4,321.0 L632.5,330.1 L632.3,334.5 L624.2,339.8 L603.2,351.9 L599.9,350.8 L591.7,360.6 L587.9,363.7 L580.0,367.0 L576.8,367.4 L568.1,371.3 L567.6,373.6 L558.0,380.8 L553.4,385.8 L554.9,388.2 L551.9,392.2 L548.4,393.1 L542.2,400.0 L531.3,406.2 L523.6,407.9 L520.9,407.0 L493.0,402.9 L495.8,398.1 L494.8,397.0 L500.7,388.2 L501.8,384.4 L499.6,381.4 L498.0,375.9 L500.1,374.7 L503.1,364.1 L500.6,361.4 L488.5,356.1 L484.3,353.3 L482.0,351.2 L484.7,351.0 L484.8,347.6 L488.4,346.7 L490.4,344.0 L483.8,344.4 L485.6,337.8 L484.2,335.8 L480.9,335.7 L477.9,331.8 L480.3,329.7 L479.0,326.6 L476.4,326.5 L478.4,324.4 L500.7,326.3 L502.8,323.7 L507.6,323.3 L512.0,324.5 L519.2,328.4 L525.7,328.2 L547.9,328.8 L554.4,323.7 L557.8,317.8 L562.4,306.4 L571.4,300.1 L579.1,291.0 Z">
  <desc xmlns="http://www.highcharts.com/svg/namespace">
    <name>Opsterland</name>
    <hc-middle-x>0.46</hc-middle-x>
    <hc-middle-y>0.53</hc-middle-y>
    <hc-key>nl-fr-gm0086</hc-key>
    <hc-a2>OP</hc-a2>
  </desc>
</path>

<path fill="#CEE3F5" stroke="#6E6E6E" stroke-width="0.4" id="NL.FR.GM0074" d="M484.3,353.3 L488.5,356.1 L500.6,361.4 L503.1,364.1 L500.1,374.7 L498.0,375.9 L499.6,381.4 L501.8,384.4 L500.7,388.2 L494.8,397.0 L495.8,398.1 L493.0,402.9 L520.9,407.0 L523.6,407.9 L531.3,406.2 L542.2,400.0 L548.4,393.1 L551.9,392.2 L554.9,388.2 L553.4,385.8 L558.0,380.8 L567.6,373.6 L568.1,371.3 L576.8,367.4 L580.0,367.0 L587.9,363.7 L591.7,360.6 L599.9,350.8 L600.1,385.6 L597.6,388.6 L581.5,397.0 L574.8,403.3 L568.8,413.6 L562.8,416.0 L553.4,422.8 L550.1,427.4 L547.1,431.2 L532.4,441.3 L529.6,441.4 L514.5,430.8 L511.4,431.5 L503.9,436.0 L498.0,435.4 L493.8,436.7 L485.9,448.0 L484.0,445.9 L474.1,427.3 L474.6,425.6 L462.1,403.4 L461.6,398.0 L459.5,394.2 L462.2,392.2 L459.7,389.7 L461.9,387.7 L459.5,379.3 L462.6,378.3 L460.4,375.5 L462.2,373.0 L458.5,370.6 L464.6,371.7 L464.0,369.8 L467.0,369.2 L463.8,361.0 L465.3,360.5 L466.9,364.7 L472.4,362.3 L476.1,359.3 L475.5,355.5 L477.8,358.6 Z">
  <desc xmlns="http://www.highcharts.com/svg/namespace">
    <name>Heerenveen</name>
    <hc-middle-x>0.19</hc-middle-x>
    <hc-middle-y>0.55</hc-middle-y>
    <hc-key>nl-fr-gm0074</hc-key>
    <hc-a2>HE</hc-a2>
  </desc>
</path>
</g>

<text x="350" y="714" text-anchor="middle" font-family="Verdana" font-size="8" stroke-opacity="0.6">Copyright (c) 2014 Highsoft AS, Based on data from Kadaster / Centraal Bureau voor de Statistiek, 2014</text>

</svg>