<?xml version="1.0" encoding="utf-8" standalone="no"?>
<!DOCTYPE svg PUBLIC "-//W3C//DTD SVG 1.1//EN" "http://www.w3.org/Graphics/SVG/1.1/DTD/svg11.dtd">

<svg version="1.1" height="700pt" width="700pt" xmlns="http://www.w3.org/2000/svg" xmlns:xlink="http://www.w3.org/1999/xlink">
<desc>
Map version: 1.1.1
Copyright (c) 2014 Highsoft AS, Based on data from Kadaster / Centraal Bureau voor de Statistiek, 2014
</desc>
<title>Groningen</title>
<g id="admin2">

<g id="NL">
  <desc xmlns="http://www.highcharts.com/svg/namespace">
    <name>Netherlands</name>
    <labelrank>5</labelrank>
    <country-abbrev>Neth.</country-abbrev>
    <subregion>Western Europe</subregion>
    <woe-id>-90</woe-id>
    <region-wb>Europe &amp; Central Asia</region-wb>
    <iso-a3>NLD</iso-a3>
    <iso-a2>NL</iso-a2>
    <region-un>Europe</region-un>
    <continent>Europe</continent>
    <hc-key>nl</hc-key>
    <hc-a2>NE</hc-a2>
  </desc>
</g>

<g id="NL.GR">
  <desc xmlns="http://www.highcharts.com/svg/namespace">
    <labelrank>7</labelrank>
    <hasc>NL.GR</hasc>
    <alt-name>Groninga|Groningue</alt-name>
    <woe-id>2346376</woe-id>
    <subregion>NULL</subregion>
    <fips>NL04</fips>
    <postal-code>GR</postal-code>
    <name>Groningen</name>
    <country>Netherlands</country>
    <type-en>Province</type-en>
    <region>NULL</region>
    <longitude>6.73067</longitude>
    <woe-name>Groningen</woe-name>
    <latitude>53.279</latitude>
    <woe-label>Groningen, NL, Netherlands</woe-label>
    <type>Provincie</type>
    <hc-key>nl-gr</hc-key>
    <hc-a2>GR</hc-a2>
  </desc>
</g>

<path fill="#CEE3F5" stroke="#6E6E6E" stroke-width="0.4" id="NL.GR.GM1651" d="M153.4,52.5 L152.2,42.1 L152.7,39.9 L154.3,48.7 Z M155.0,30.1 L156.9,37.3 L154.2,34.5 L149.7,35.1 L146.6,41.3 L143.9,36.9 L144.3,34.3 L148.1,31.3 Z M254.9,32.2 L254.4,34.9 L251.1,35.0 L248.0,30.9 L251.5,29.7 Z M258.3,18.9 L259.4,19.9 L255.2,19.9 L255.0,18.7 Z M245.0,11.5 L253.8,13.7 L255.4,12.8 L262.7,16.4 L267.5,21.6 L256.9,16.2 L240.3,23.2 L239.0,23.0 L238.8,16.7 L240.2,14.0 Z M210.2,155.0 L209.2,151.8 L216.7,153.0 L217.5,143.9 L222.3,143.8 L225.6,127.8 L225.0,124.7 L224.9,123.9 L224.3,120.5 L224.1,119.1 L248.3,113.2 L258.1,110.0 L260.7,107.7 L269.7,105.1 L272.0,103.5 L287.8,97.3 L311.2,93.2 L338.2,90.3 L347.3,91.6 L358.6,95.8 L369.5,102.2 L378.5,94.3 L388.6,98.0 L390.7,101.4 L389.1,106.5 L378.9,103.7 L378.1,105.9 L387.5,108.9 L386.8,111.2 L381.9,109.8 L381.7,112.0 L397.0,115.1 L397.9,112.1 L392.5,109.9 L395.6,101.5 L403.2,104.9 L408.9,108.8 L417.2,117.4 L418.2,121.8 L413.1,135.0 L412.1,148.3 L405.4,144.7 L395.0,134.0 L365.0,151.2 L362.5,146.9 L360.5,147.4 L360.1,145.2 L359.5,144.6 L359.4,144.4 L359.3,144.4 L359.0,144.1 L357.5,144.0 L357.4,144.2 L353.9,148.8 L350.6,152.0 L344.8,155.2 L342.7,156.3 L339.2,158.8 L330.4,169.2 L326.2,173.6 L325.1,174.5 L324.7,174.8 L322.5,176.6 L320.1,178.5 L318.7,179.6 L318.5,179.8 L318.3,180.0 L317.9,180.4 L317.5,180.9 L314.3,183.9 L313.6,184.3 L311.1,185.7 L311.1,185.7 L311.0,185.9 L310.0,187.6 L309.9,187.6 L308.8,188.6 L308.7,188.5 L305.8,185.9 L305.1,186.1 L304.9,186.0 L301.8,184.4 L300.6,184.8 L300.0,185.4 L300.0,185.4 L300.0,185.5 L299.1,185.0 L298.7,184.5 L298.6,184.4 L298.5,184.2 L298.3,184.1 L298.3,184.2 L298.3,184.2 L297.1,184.2 L293.7,186.1 L290.6,184.1 L290.6,184.1 L290.6,184.1 L290.5,184.1 L290.1,184.2 L287.1,185.2 L286.4,184.8 L285.8,184.5 L285.8,184.5 L285.6,184.6 L284.9,184.8 L284.5,185.2 L284.0,185.5 L283.9,185.8 L283.0,186.2 L280.4,186.0 L280.2,185.9 L279.5,185.0 L279.4,184.8 L277.2,185.1 L277.4,186.7 L273.5,187.5 L273.5,187.5 L273.0,187.6 L270.8,187.6 L270.7,187.6 L269.9,187.9 L269.5,188.2 L269.4,188.3 L267.8,189.1 L267.7,191.0 L268.6,197.5 L267.8,198.0 L267.6,198.7 L267.6,198.9 L267.3,199.0 L267.4,199.0 L267.1,199.0 L265.4,199.5 L264.8,199.5 L263.4,199.5 L263.0,199.9 L262.6,200.6 L261.1,200.2 L259.5,200.2 L256.7,200.3 L256.1,200.3 L256.0,200.3 L256.0,200.3 L256.0,200.3 L256.0,200.3 L256.0,200.2 L255.9,200.2 L255.8,199.9 L255.9,199.7 L256.1,199.3 L255.9,199.7 L255.8,199.9 L253.8,199.4 L250.1,201.8 L248.8,202.6 L248.2,202.7 L247.7,204.3 L247.0,205.1 L246.0,206.1 L245.9,206.2 L245.6,206.4 L245.3,206.3 L245.4,206.3 L245.0,206.1 L242.2,204.7 L238.8,201.2 L238.8,199.7 L238.5,198.5 L237.5,197.6 L236.9,197.1 L235.2,191.4 L234.8,190.9 L234.3,191.1 L231.9,190.4 L231.5,190.6 L230.6,191.0 L228.4,190.1 L227.9,190.1 L225.5,189.4 L228.3,178.7 L228.1,177.2 L226.3,174.6 L226.0,173.8 L225.7,172.2 L224.3,171.6 L222.6,170.1 L219.3,171.8 L214.4,165.4 L213.9,165.5 L212.7,165.7 L211.0,166.0 L209.5,164.0 Z M191.0,18.9 L189.4,28.4 L186.0,35.4 L183.9,33.2 L179.6,21.1 L173.8,11.1 L173.9,9.1 L178.1,3.0 L182.3,0.0 L189.9,0.4 L195.5,3.5 L207.8,16.3 L207.2,17.7 L197.0,8.8 L194.7,5.6 L189.0,4.8 L187.8,6.4 L196.0,10.2 L203.2,16.1 L208.2,21.5 L204.2,21.2 L200.2,16.7 L191.1,18.4 L191.1,18.9 L199.7,17.2 L201.5,18.6 L201.9,20.1 L194.5,21.0 Z M256.0,200.3 L256.0,200.3 L255.9,200.2 L256.0,200.3 L256.0,200.3 L256.0,200.3 Z">
  <desc xmlns="http://www.highcharts.com/svg/namespace">
    <name>Eemsmond</name>
    <hc-middle-x>0.55</hc-middle-x>
    <hc-middle-y>0.69</hc-middle-y>
    <hc-key>nl-gr-gm1651</hc-key>
    <hc-a2>EE</hc-a2>
  </desc>
</path>

<path fill="#CEE3F5" stroke="#6E6E6E" stroke-width="0.4" id="NL.GR.GM1663" d="M21.6,168.2 L26.2,169.4 L27.2,171.2 L27.0,177.8 L20.9,177.2 L12.8,170.6 L13.3,167.7 L16.2,168.5 L17.5,172.0 L19.1,166.4 Z M15.9,154.4 L17.3,156.1 L15.0,157.8 L14.4,155.0 Z M41.2,150.3 L38.2,153.0 L34.9,151.9 L36.9,150.3 Z M87.0,214.2 L86.8,213.6 L85.6,212.3 L79.7,208.1 L75.1,203.9 L72.8,200.6 L57.0,193.2 L50.9,192.6 L45.7,196.8 L41.7,197.4 L41.0,189.7 L49.5,187.2 L55.1,183.7 L52.2,180.9 L44.6,183.3 L41.8,181.5 L47.1,177.3 L44.3,172.9 L41.8,175.5 L34.8,176.2 L28.7,174.6 L30.7,169.9 L34.9,170.4 L42.7,169.4 L31.7,166.5 L23.7,166.1 L15.1,163.5 L15.2,158.7 L24.0,159.2 L21.8,151.8 L15.9,148.4 L12.7,147.9 L14.1,140.1 L15.7,139.0 L23.4,139.6 L25.8,143.5 L30.5,147.2 L32.1,150.7 L36.0,154.6 L43.2,153.9 L45.1,151.9 L42.9,147.7 L36.2,146.5 L29.6,141.1 L30.6,138.8 L25.8,138.4 L20.1,133.9 L19.8,131.8 L26.3,135.1 L33.2,134.1 L49.6,129.3 L54.5,128.9 L61.0,131.4 L77.4,141.7 L85.0,148.6 L88.9,148.3 L97.5,143.0 L98.0,141.5 L119.4,133.7 L129.6,130.4 L135.3,131.8 L148.0,129.6 L155.9,127.2 L170.1,125.9 L187.5,122.6 L200.1,122.9 L207.2,122.5 L213.5,119.8 L223.9,118.3 L224.3,120.5 L224.9,123.9 L225.0,124.7 L214.4,126.9 L214.0,127.0 L210.2,124.3 L206.5,124.8 L205.5,129.3 L205.0,132.6 L203.5,132.4 L200.3,139.9 L201.0,142.0 L200.5,141.9 L200.1,142.0 L200.0,142.1 L199.8,142.3 L200.4,143.8 L203.1,144.9 L202.8,144.9 L200.8,145.0 L199.8,145.9 L199.7,146.1 L199.6,146.3 L199.6,147.0 L201.1,149.3 L200.5,149.9 L198.5,150.6 L197.0,150.5 L196.4,150.5 L196.2,150.8 L196.2,150.8 L195.1,153.1 L188.7,150.2 L188.7,150.2 L187.8,150.3 L187.0,151.4 L185.0,155.4 L185.0,156.7 L184.3,156.9 L183.5,157.5 L178.6,157.3 L177.9,160.3 L182.1,176.1 L184.3,181.9 L181.0,184.3 L179.6,185.2 L179.1,187.5 L185.9,193.4 L185.6,200.2 L185.6,200.3 L185.6,201.9 L186.1,202.4 L183.6,204.3 L180.5,203.2 L179.3,208.8 L174.6,208.4 L174.0,211.0 L173.4,211.4 L172.4,212.1 L167.8,215.3 L164.1,217.9 L165.4,223.2 L161.7,226.7 L161.4,226.7 L158.3,227.2 L158.3,227.1 L158.3,226.6 L158.3,225.1 L158.0,223.2 L155.6,218.0 L153.8,216.6 L153.4,216.6 L150.7,217.6 L145.8,216.5 L145.3,216.4 L145.0,216.8 L144.6,217.4 L144.2,218.0 L144.0,218.5 L143.2,220.5 L141.4,223.1 L136.0,224.7 L135.7,224.8 L124.7,223.6 L117.8,221.7 L117.0,222.9 L113.5,227.7 L109.8,228.4 L107.1,225.0 L102.5,223.9 L97.3,226.8 L96.7,227.1 L93.4,226.7 L93.2,226.7 L93.1,226.6 L88.3,222.8 Z M46.3,170.0 L45.9,173.3 L47.7,175.9 L47.6,173.7 Z M73.0,201.8 L73.3,202.1 L74.1,202.9 L74.1,202.9 L73.5,202.3 Z">
  <desc xmlns="http://www.highcharts.com/svg/namespace">
    <name>De Marne</name>
    <hc-middle-x>0.47</hc-middle-x>
    <hc-middle-y>0.55</hc-middle-y>
    <hc-key>nl-gr-gm1663</hc-key>
    <hc-a2>DM</hc-a2>
  </desc>
</path>

<path fill="#CEE3F5" stroke="#6E6E6E" stroke-width="0.4" id="NL.GR.GM1895" d="M600.5,312.3 L600.8,315.6 L599.1,316.9 L599.3,313.7 Z M543.1,229.9 L548.7,228.7 L577.3,227.8 L548.7,228.8 Z M433.4,322.9 L431.2,324.0 L430.6,324.4 L429.9,324.5 L429.0,324.8 L429.1,324.9 L427.9,320.3 L426.9,316.4 L427.6,312.9 L427.7,312.9 L428.0,312.9 L428.2,311.6 L428.2,311.6 L428.3,310.5 L428.8,307.7 L428.8,307.7 L431.6,307.2 L434.7,311.5 L438.5,313.8 L444.0,306.9 L446.7,309.1 L448.9,302.8 L452.9,295.3 L462.4,292.2 L477.6,286.2 L488.2,286.4 L488.1,292.3 L492.8,299.7 L498.5,297.0 L501.8,293.7 L504.4,294.2 L513.2,305.9 L514.4,305.1 L518.9,310.8 L525.9,305.4 L524.3,303.9 L528.9,299.3 L533.0,297.5 L536.6,297.9 L539.8,302.0 L544.8,303.6 L551.2,303.5 L558.2,306.0 L562.7,308.8 L564.7,308.2 L569.9,311.2 L572.0,308.7 L587.1,316.0 L598.2,318.5 L600.9,315.8 L602.2,326.7 L601.0,326.4 L604.5,339.6 L604.4,355.9 L598.7,364.8 L609.6,372.8 L602.7,375.5 L595.8,376.2 L588.2,390.0 L587.0,396.8 L583.4,396.9 L580.3,398.7 L579.8,399.0 L579.5,399.7 L578.0,403.3 L561.7,390.5 L559.6,395.0 L559.2,395.8 L558.5,396.3 L556.8,396.9 L550.1,399.3 L541.7,403.9 L540.3,405.0 L539.0,405.8 L539.1,405.8 L538.9,405.8 L538.1,406.2 L536.3,406.7 L533.5,406.3 L532.0,405.5 L532.0,405.5 L529.0,404.7 L523.9,405.9 L516.9,411.7 L506.5,418.5 L505.2,420.4 L504.3,421.3 L501.6,423.9 L501.2,424.4 L500.2,425.4 L499.8,425.8 L498.6,427.1 L497.6,428.1 L497.4,428.3 L497.2,428.5 L497.2,428.5 L496.9,429.1 L496.8,429.4 L496.5,430.8 L496.5,431.0 L496.4,431.2 L496.4,431.2 L496.4,431.3 L495.3,432.4 L493.7,432.7 L492.7,431.7 L469.3,431.0 L464.9,427.9 L456.3,435.7 L456.6,434.5 L453.5,422.5 L451.5,410.8 L451.3,410.5 L450.9,410.7 L451.0,404.6 L451.0,404.6 L449.0,389.3 L445.2,389.0 L444.4,381.8 L437.3,382.7 L437.1,379.1 L422.0,381.2 L427.3,376.0 L425.9,373.3 L425.9,373.3 L425.9,373.3 L426.4,373.4 L427.0,373.1 L427.0,373.1 L427.2,372.9 L427.6,372.5 L427.9,371.3 L427.9,371.3 L427.7,370.8 L427.3,369.6 L427.1,369.0 L427.1,368.0 L427.2,367.1 L427.4,367.1 L428.5,365.5 L429.8,361.9 L429.7,361.2 L430.4,359.8 L431.6,357.5 L433.9,358.2 L434.5,357.4 L434.8,356.1 L434.8,356.1 L430.6,353.4 L435.4,344.4 L433.1,342.1 L438.4,337.0 L434.8,329.4 L436.3,328.6 Z M444.5,381.8 L444.5,381.8 L444.5,381.8 L444.5,381.8 Z M550.6,232.7 L549.6,232.8 L549.6,232.8 L549.6,232.8 L549.6,232.8 L550.6,232.7 Z M550.6,232.7 L568.8,231.5 L568.9,236.0 L559.1,236.0 L563.7,235.8 L564.0,231.8 L559.3,232.1 L559.1,236.0 L554.1,236.0 L554.3,232.5 L550.6,232.7 Z M568.7,232.2 L564.1,231.8 L563.8,236.0 L568.8,236.0 Z M559.0,235.3 L559.2,232.2 L554.4,232.4 L554.1,236.0 Z M549.6,232.8 L550.3,236.5 L549.5,232.8 L549.6,232.8 L549.6,232.8 Z">
  <desc xmlns="http://www.highcharts.com/svg/namespace">
    <name>Oldambt</name>
    <hc-middle-x>0.43</hc-middle-x>
    <hc-middle-y>0.64</hc-middle-y>
    <hc-key>nl-gr-gm1895</hc-key>
    <hc-a2>OL</hc-a2>
  </desc>
</path>

<path fill="#CEE3F5" stroke="#6E6E6E" stroke-width="0.4" id="NL.GR.GM0037" d="M486.8,621.2 L480.7,615.7 L436.4,548.8 L394.1,501.3 L396.5,499.3 L398.4,501.0 L405.9,496.1 L415.7,510.1 L420.9,504.0 L423.3,508.1 L436.0,522.2 L440.0,525.2 L448.1,528.8 L467.7,495.5 L469.4,489.9 L471.3,489.3 L481.2,472.2 L483.0,476.3 L484.3,474.1 L486.4,474.5 L495.0,481.3 L513.4,479.2 L519.3,482.5 L521.5,485.1 L519.3,494.8 L514.9,495.0 L514.2,502.3 L521.2,501.3 L524.5,503.5 L522.6,506.5 L520.8,515.3 L522.1,519.7 L525.4,519.0 L527.3,522.4 L530.6,523.8 L531.9,528.7 L515.3,540.4 L512.8,589.2 L509.7,590.9 L508.5,610.3 L492.6,611.5 L488.6,616.4 Z">
  <desc xmlns="http://www.highcharts.com/svg/namespace">
    <name>Stadskanaal</name>
    <hc-middle-x>0.64</hc-middle-x>
    <hc-middle-y>0.50</hc-middle-y>
    <hc-key>nl-gr-gm0037</hc-key>
    <hc-a2>ST</hc-a2>
  </desc>
</path>

<path fill="#CEE3F5" stroke="#6E6E6E" stroke-width="0.4" id="NL.GR.GM0056" d="M152.6,227.3 L152.4,233.3 L150.6,238.6 L147.7,242.3 L149.3,248.6 L153.2,249.2 L155.6,254.2 L152.9,257.4 L150.8,257.2 L148.4,261.1 L151.9,262.4 L152.7,264.9 L159.8,260.5 L160.8,262.7 L164.2,263.0 L168.1,260.4 L172.4,264.8 L176.2,265.0 L178.2,272.5 L183.3,271.8 L183.0,274.8 L188.5,275.6 L194.2,273.9 L196.0,275.3 L196.7,286.2 L198.4,289.6 L193.1,295.8 L189.1,297.3 L185.1,294.1 L180.7,292.8 L180.2,297.9 L175.7,312.4 L169.7,333.4 L155.6,330.5 L153.3,326.8 L149.5,316.6 L142.0,318.4 L136.4,323.1 L133.0,315.1 L127.4,305.4 L124.8,306.7 L124.1,304.2 L121.3,305.5 L121.0,302.1 L117.1,302.9 L117.6,298.0 L112.3,299.0 L112.5,295.0 L109.7,295.6 L110.3,288.9 L101.9,290.4 L102.1,288.1 L88.2,289.9 L84.0,291.4 L77.1,291.5 L63.7,293.4 L62.1,285.7 L62.9,283.1 L37.2,281.9 L40.2,280.8 L41.7,275.2 L46.2,270.4 L50.6,270.8 L51.6,268.4 L49.3,262.0 L50.7,251.7 L53.5,249.2 L59.5,250.2 L65.8,237.9 L72.4,235.9 L75.2,233.1 L74.2,231.0 L67.3,228.5 L72.1,201.3 L73.0,201.8 L73.0,201.8 L73.5,202.3 L74.1,202.9 L74.1,202.9 L75.1,207.3 L75.1,203.9 L75.1,203.9 L75.1,203.9 L75.1,203.9 L79.7,208.1 L87.0,214.2 L87.6,214.9 L88.2,217.4 L88.3,222.8 L89.6,224.7 L92.7,226.5 L93.1,226.6 L93.1,226.6 L93.4,226.7 L93.9,226.9 L94.4,226.9 L95.5,227.1 L96.0,227.0 L96.7,227.1 L97.3,226.8 L97.9,226.6 L102.5,223.9 L107.1,225.0 L109.8,228.4 L113.5,227.7 L115.9,223.0 L117.0,222.9 L120.5,222.6 L121.9,223.1 L123.5,223.3 L124.7,223.6 L125.8,223.6 L126.0,223.7 L128.4,223.7 L130.5,223.8 L136.0,224.7 L136.4,224.8 L136.7,224.8 L137.6,224.5 L141.4,223.1 L144.0,218.5 L144.6,217.4 L144.9,216.8 L145.0,216.8 L145.8,216.5 L146.3,216.4 L150.7,217.6 L153.8,216.6 L154.2,216.4 L155.6,218.0 L158.0,223.2 L158.3,227.1 L158.3,227.2 L158.3,227.2 Z M75.1,203.9 L75.1,203.9 L75.1,203.9 L75.1,203.9 L75.1,203.9 Z">
  <desc xmlns="http://www.highcharts.com/svg/namespace">
    <name>Zuidhorn</name>
    <hc-middle-x>0.55</hc-middle-x>
    <hc-middle-y>0.51</hc-middle-y>
    <hc-key>nl-gr-gm0056</hc-key>
    <hc-a2>ZU</hc-a2>
  </desc>
</path>

<path fill="#CEE3F5" stroke="#6E6E6E" stroke-width="0.4" id="NL.GR.GM0053" d="M152.6,227.3 L158.3,227.1 L158.3,227.2 L158.6,227.8 L159.8,227.8 L160.1,227.9 L161.1,227.0 L161.4,226.7 L165.4,223.2 L164.1,217.9 L167.3,216.6 L167.8,215.3 L168.3,214.2 L168.9,214.1 L172.1,211.7 L172.4,212.1 L172.7,212.4 L172.9,212.6 L173.2,211.9 L173.4,211.4 L174.6,208.4 L179.3,208.8 L180.5,203.2 L183.6,204.3 L186.1,202.4 L185.6,200.2 L185.2,198.6 L185.2,198.5 L185.9,193.4 L179.1,187.5 L181.0,184.3 L181.4,183.5 L181.6,183.4 L184.3,181.9 L182.1,176.1 L177.9,160.3 L180.1,158.3 L182.0,158.3 L182.4,158.0 L183.5,157.5 L185.2,156.7 L185.2,156.6 L187.0,151.4 L188.7,150.2 L189.1,149.9 L189.2,149.9 L189.2,150.0 L191.6,150.4 L195.1,153.1 L195.8,150.9 L195.9,150.9 L196.2,150.8 L197.0,150.5 L201.1,149.3 L200.8,145.0 L202.7,145.4 L202.8,144.9 L203.1,144.9 L203.0,143.2 L203.0,143.2 L203.0,143.2 L200.4,143.8 L202.4,141.8 L202.7,141.8 L202.7,141.6 L202.9,141.6 L202.9,141.2 L203.0,140.9 L202.9,140.9 L200.3,139.9 L203.5,132.4 L205.0,132.6 L206.5,124.8 L210.2,124.3 L214.4,126.9 L214.4,126.9 L214.5,127.0 L219.2,126.0 L223.8,125.0 L225.0,124.7 L225.6,127.8 L222.3,143.8 L217.5,143.9 L216.7,153.0 L209.2,151.8 L208.3,154.4 L208.8,154.6 L208.8,154.9 L210.2,155.0 L210.3,160.1 L210.2,160.3 L209.5,164.0 L211.0,166.0 L212.2,165.1 L212.7,165.7 L213.0,166.1 L213.9,165.5 L214.3,165.2 L214.4,165.4 L219.3,171.8 L222.7,170.1 L224.3,171.6 L225.4,172.7 L226.0,173.8 L226.3,174.6 L228.3,178.7 L228.4,178.9 L225.5,189.4 L231.5,190.6 L235.2,191.4 L237.5,197.6 L238.8,201.2 L234.5,203.0 L233.3,207.1 L233.7,212.9 L228.7,232.9 L225.3,265.8 L224.5,270.4 L221.2,280.0 L214.0,280.6 L214.7,284.2 L206.9,286.2 L196.7,286.2 L196.0,275.3 L194.2,273.9 L188.5,275.6 L183.0,274.8 L183.3,271.8 L178.2,272.5 L176.2,265.0 L172.4,264.8 L168.1,260.4 L164.2,263.0 L160.8,262.7 L159.8,260.5 L152.7,264.9 L151.9,262.4 L148.4,261.1 L150.8,257.2 L152.9,257.4 L155.6,254.2 L153.2,249.2 L149.3,248.6 L147.7,242.3 L150.6,238.6 L152.4,233.3 Z M185.2,156.7 L185.2,156.7 L185.2,156.6 Z">
  <desc xmlns="http://www.highcharts.com/svg/namespace">
    <name>Winsum</name>
    <hc-middle-x>0.56</hc-middle-x>
    <hc-middle-y>0.64</hc-middle-y>
    <hc-key>nl-gr-gm0053</hc-key>
    <hc-a2>WI</hc-a2>
  </desc>
</path>

<path fill="#CEE3F5" stroke="#6E6E6E" stroke-width="0.4" id="NL.GR.GM0047" d="M394.1,501.3 L371.8,476.2 L367.5,471.5 L361.8,424.9 L364.4,423.9 L362.9,420.2 L373.4,416.0 L374.4,418.5 L399.2,421.0 L403.9,422.0 L404.0,420.2 L409.8,420.1 L411.0,417.3 L421.1,418.6 L439.0,422.4 L445.6,425.3 L453.1,426.6 L454.2,436.4 L453.2,450.0 L451.0,451.1 L442.9,463.4 L435.1,471.7 L431.2,486.1 L436.0,490.0 L436.1,494.1 L428.3,494.1 L428.7,498.0 L419.8,499.2 L420.9,504.0 L415.7,510.1 L405.9,496.1 L398.4,501.0 L396.5,499.3 Z">
  <desc xmlns="http://www.highcharts.com/svg/namespace">
    <name>Veendam</name>
    <hc-middle-x>0.44</hc-middle-x>
    <hc-middle-y>0.48</hc-middle-y>
    <hc-key>nl-gr-gm0047</hc-key>
    <hc-a2>VE</hc-a2>
  </desc>
</path>

<path fill="#CEE3F5" stroke="#6E6E6E" stroke-width="0.4" id="NL.GR.GM1730" d="M346.5,447.9 L330.2,455.1 L328.1,457.1 L331.0,459.5 L321.1,465.7 L316.7,467.3 L309.4,471.9 L308.1,470.5 L300.8,475.0 L297.1,469.8 L287.5,461.8 L279.7,458.1 L277.5,456.1 L272.2,457.7 L275.0,459.7 L280.3,468.4 L284.3,473.0 L283.9,476.1 L280.7,477.7 L282.0,481.0 L278.9,483.1 L274.4,483.3 L267.3,492.5 L266.2,496.2 L268.5,498.8 L270.3,511.4 L260.2,511.3 L244.1,504.0 L246.1,499.9 L247.4,491.7 L247.1,485.8 L245.6,479.9 L243.4,477.3 L236.3,479.8 L235.4,478.1 L229.2,478.4 L228.7,482.4 L225.9,482.5 L225.7,477.6 L217.2,478.5 L217.6,481.3 L213.8,490.2 L215.2,493.3 L211.9,501.0 L204.1,497.8 L201.5,492.5 L198.9,490.2 L191.2,491.2 L187.8,489.3 L192.0,479.7 L193.9,471.2 L193.4,464.5 L189.9,456.7 L180.9,439.9 L178.0,431.0 L177.9,426.1 L175.9,417.2 L186.5,415.1 L187.8,417.8 L194.7,413.2 L194.0,408.3 L210.3,407.1 L211.1,400.9 L209.3,397.2 L210.3,394.7 L208.1,388.7 L210.5,382.2 L208.4,379.8 L210.4,376.4 L209.9,372.9 L203.6,362.0 L201.8,355.5 L196.8,345.3 L198.6,343.8 L206.9,346.7 L209.1,357.1 L213.4,362.8 L217.3,360.8 L223.3,372.3 L225.4,383.5 L235.8,378.1 L239.0,395.7 L246.0,396.6 L249.6,401.9 L254.0,405.7 L253.4,408.3 L256.6,409.7 L258.0,414.8 L261.2,418.3 L261.0,423.8 L265.8,427.4 L265.1,434.3 L288.7,424.1 L300.4,421.0 L324.7,423.5 L332.8,432.5 L346.5,447.9 L346.5,447.9 Z">
  <desc xmlns="http://www.highcharts.com/svg/namespace">
    <name>Tynaarlo</name>
    <hc-middle-x>0.45</hc-middle-x>
    <hc-middle-y>0.65</hc-middle-y>
    <hc-key>nl-gr-gm1730</hc-key>
    <hc-a2>TY</hc-a2>
  </desc>
</path>

<path fill="#CEE3F5" stroke="#6E6E6E" stroke-width="0.4" id="NL.GR.GM0048" d="M486.8,621.2 L488.6,616.4 L492.6,611.5 L508.5,610.3 L509.7,590.9 L512.8,589.2 L515.3,540.4 L531.9,528.7 L530.6,523.8 L527.3,522.4 L525.4,519.0 L522.1,519.7 L520.8,515.3 L522.6,506.5 L524.5,503.5 L521.2,501.3 L514.2,502.3 L514.9,495.0 L519.3,494.8 L521.5,485.1 L525.1,486.8 L526.4,490.0 L534.3,485.7 L539.5,494.4 L542.9,494.4 L550.0,507.5 L582.9,493.5 L593.3,492.6 L597.2,535.7 L599.7,539.5 L595.0,545.6 L577.3,601.9 L530.5,675.4 L520.2,688.7 L523.1,700.0 L511.2,699.4 L511.3,693.0 L513.8,688.4 L509.5,690.3 L506.0,686.8 L500.1,677.0 L496.8,672.7 L495.1,673.2 L493.4,665.8 L478.6,665.3 L497.6,624.5 Z">
  <desc xmlns="http://www.highcharts.com/svg/namespace">
    <name>Vlagtwedde</name>
    <hc-middle-x>0.54</hc-middle-x>
    <hc-middle-y>0.43</hc-middle-y>
    <hc-key>nl-gr-gm0048</hc-key>
    <hc-a2>VL</hc-a2>
  </desc>
</path>

<path fill="#CEE3F5" stroke="#6E6E6E" stroke-width="0.4" id="NL.GR.GM0765" d="M484.3,474.1 L483.0,476.3 L481.2,472.2 L471.3,489.3 L469.4,489.9 L467.7,495.5 L448.1,528.8 L440.0,525.2 L436.0,522.2 L423.3,508.1 L420.9,504.0 L419.8,499.2 L428.7,498.0 L428.3,494.1 L436.1,494.1 L436.0,490.0 L431.2,486.1 L435.1,471.7 L442.9,463.4 L451.0,451.1 L453.2,450.0 L454.2,436.4 L455.3,436.1 L456.3,435.7 L464.9,427.9 L469.3,431.0 L492.7,431.7 L493.7,432.7 L491.4,435.1 L493.8,439.4 L500.8,445.8 Z">
  <desc xmlns="http://www.highcharts.com/svg/namespace">
    <name>Pekela</name>
    <hc-middle-x>0.48</hc-middle-x>
    <hc-middle-y>0.46</hc-middle-y>
    <hc-key>nl-gr-gm0765</hc-key>
    <hc-a2>PE</hc-a2>
  </desc>
</path>

<path fill="#CEE3F5" stroke="#6E6E6E" stroke-width="0.4" id="NL.GR.GM1987" d="M456.3,435.7 L455.3,436.1 L454.2,436.4 L453.1,426.6 L445.6,425.3 L439.0,422.4 L421.1,418.6 L411.0,417.3 L409.8,420.1 L404.0,420.2 L403.9,422.0 L399.2,421.0 L374.4,418.5 L373.4,416.0 L362.9,420.2 L357.9,408.1 L363.2,406.0 L362.7,404.7 L368.0,402.6 L366.3,398.3 L372.7,399.1 L371.4,395.8 L371.4,382.1 L375.5,371.2 L375.0,365.2 L378.4,362.2 L369.6,361.0 L374.5,356.0 L371.3,353.5 L373.2,349.1 L378.5,345.2 L385.3,344.0 L387.3,339.6 L395.1,336.9 L396.1,331.9 L409.7,326.9 L413.5,323.7 L418.2,326.5 L423.3,327.1 L429.1,324.9 L429.1,324.9 L429.9,324.5 L431.2,324.0 L432.2,323.6 L433.4,322.9 L436.4,328.6 L436.3,328.6 L434.8,329.4 L437.0,335.3 L437.0,335.3 L437.0,335.3 L437.0,335.3 L437.0,335.3 L438.4,337.0 L433.1,342.1 L435.4,344.4 L434.1,346.0 L432.8,348.3 L430.6,353.4 L435.4,354.8 L434.8,356.1 L433.9,358.2 L433.9,358.2 L431.6,357.5 L431.2,359.2 L430.4,359.8 L430.2,359.9 L430.0,360.1 L429.9,360.2 L429.9,360.3 L428.5,365.5 L427.1,369.0 L427.1,369.5 L427.7,370.8 L427.9,371.3 L427.2,372.9 L427.1,373.0 L427.0,373.1 L427.0,373.1 L425.9,373.3 L425.9,373.3 L425.7,373.4 L425.5,373.4 L425.4,373.5 L427.3,376.0 L422.0,381.1 L422.0,381.2 L437.1,379.1 L437.3,382.6 L437.3,382.7 L444.4,381.8 L444.5,381.8 L444.5,381.8 L444.5,381.8 L444.5,381.8 L445.2,389.0 L449.0,389.3 L451.0,404.6 L451.0,404.6 L451.0,404.6 L451.0,404.7 L451.5,410.8 L454.0,422.1 L454.1,422.3 L453.5,422.5 L456.6,434.5 Z M437.0,335.3 L437.0,335.3 L437.0,335.3 L437.0,335.3 L437.0,335.3 L437.0,335.3 Z M444.5,381.8 L444.5,381.8 L444.5,381.8 L444.5,381.8 L444.5,381.8 Z">
  <desc xmlns="http://www.highcharts.com/svg/namespace">
    <name>Menterwolde</name>
    <hc-middle-x>0.47</hc-middle-x>
    <hc-middle-y>0.54</hc-middle-y>
    <hc-key>nl-gr-gm1987</hc-key>
    <hc-a2>ME</hc-a2>
  </desc>
</path>

<path fill="#CEE3F5" stroke="#6E6E6E" stroke-width="0.4" id="NL.GR.GM0005" d="M250.1,201.8 L255.3,211.3 L247.9,212.3 L251.0,213.0 L252.8,218.6 L257.8,218.5 L260.0,223.3 L259.2,225.1 L262.9,233.7 L273.1,233.9 L276.0,240.5 L282.4,240.0 L276.0,255.3 L264.8,280.2 L269.0,286.6 L269.6,294.8 L260.5,296.2 L260.0,294.3 L253.1,294.1 L253.1,291.9 L241.7,289.4 L243.2,283.0 L241.5,284.0 L230.8,283.6 L230.5,281.6 L221.7,282.5 L221.2,280.0 L224.5,270.4 L225.3,265.8 L228.7,232.9 L233.7,212.9 L233.3,207.1 L234.5,203.0 L238.8,201.2 L242.2,204.7 L245.9,206.2 L246.5,206.0 L247.0,205.1 L248.2,202.7 Z">
  <desc xmlns="http://www.highcharts.com/svg/namespace">
    <name>Bedum</name>
    <hc-middle-x>0.51</hc-middle-x>
    <hc-middle-y>0.57</hc-middle-y>
    <hc-key>nl-gr-gm0005</hc-key>
    <hc-a2>BE</hc-a2>
  </desc>
</path>

<path fill="#CEE3F5" stroke="#6E6E6E" stroke-width="0.4" id="NL.GR.GM0040" d="M429.1,324.9 L423.3,327.1 L418.2,326.5 L413.5,323.7 L409.7,326.9 L396.1,331.9 L395.1,336.9 L387.3,339.6 L385.3,344.0 L378.5,345.2 L373.2,349.1 L371.3,353.5 L374.5,356.0 L369.6,361.0 L368.7,362.0 L356.8,365.2 L342.5,366.5 L342.3,375.3 L347.6,375.6 L347.6,377.0 L329.9,376.3 L315.0,371.2 L295.5,344.5 L286.4,342.8 L276.5,327.8 L273.6,318.4 L274.0,310.5 L278.1,308.4 L288.6,301.1 L316.9,285.4 L325.9,279.5 L333.1,276.1 L349.9,266.7 L358.0,262.2 L374.4,253.5 L375.7,255.9 L380.6,253.7 L382.1,260.0 L392.3,261.2 L395.6,254.7 L401.1,256.8 L412.0,254.4 L416.5,254.5 L417.9,261.9 L418.4,265.1 L420.9,266.2 L416.5,269.9 L415.8,270.4 L415.9,272.5 L427.9,273.0 L428.4,273.1 L428.5,273.1 L427.9,278.8 L427.5,283.0 L428.2,287.9 L429.8,288.0 L429.6,291.3 L429.0,299.1 L427.6,307.2 L428.8,307.7 L427.7,312.9 L426.9,316.4 L429.0,324.8 Z">
  <desc xmlns="http://www.highcharts.com/svg/namespace">
    <name>Slochteren</name>
    <hc-middle-x>0.55</hc-middle-x>
    <hc-middle-y>0.47</hc-middle-y>
    <hc-key>nl-gr-gm0040</hc-key>
    <hc-a2>SL</hc-a2>
  </desc>
</path>

<path fill="#CEE3F5" stroke="#6E6E6E" stroke-width="0.4" id="NL.GR.GM0007" d="M579.8,399.0 L587.0,396.8 L587.0,403.5 L583.1,410.9 L580.6,412.6 L581.6,422.9 L584.3,426.2 L582.5,428.6 L593.8,436.9 L591.0,467.7 L593.3,492.6 L582.9,493.5 L550.0,507.5 L542.9,494.4 L539.5,494.4 L534.3,485.7 L526.4,490.0 L525.1,486.8 L521.5,485.1 L519.3,482.5 L513.4,479.2 L495.0,481.3 L486.4,474.5 L484.3,474.1 L500.8,445.8 L493.8,439.4 L491.4,435.1 L493.7,432.7 L496.9,429.1 L501.2,424.4 L506.5,418.5 L516.9,411.7 L523.9,405.9 L529.0,404.7 L532.0,405.5 L536.3,406.7 L550.1,399.3 L554.4,398.5 L556.8,396.9 L559.6,395.0 L560.4,394.0 L561.7,390.5 L578.0,403.3 Z">
  <desc xmlns="http://www.highcharts.com/svg/namespace">
    <name>Bellingwedde</name>
    <hc-middle-x>0.58</hc-middle-x>
    <hc-middle-y>0.52</hc-middle-y>
    <hc-key>nl-gr-gm0007</hc-key>
    <hc-a2>BE</hc-a2>
  </desc>
</path>

<path fill="#CEE3F5" stroke="#6E6E6E" stroke-width="0.4" id="NL.GR.GM0009" d="M274.0,310.5 L273.0,305.9 L269.6,294.8 L269.0,286.6 L264.8,280.2 L276.0,255.3 L282.4,240.0 L293.3,244.0 L298.1,247.0 L302.5,251.4 L314.0,239.8 L325.6,244.6 L327.9,238.8 L330.8,237.4 L337.3,240.6 L334.6,242.5 L339.1,251.2 L340.6,250.5 L343.4,254.8 L345.8,252.1 L350.0,258.3 L348.0,263.3 L349.9,266.7 L333.1,276.1 L325.9,279.5 L316.9,285.4 L288.6,301.1 L278.1,308.4 Z">
  <desc xmlns="http://www.highcharts.com/svg/namespace">
    <name>Ten Boer</name>
    <hc-middle-x>0.52</hc-middle-x>
    <hc-middle-y>0.38</hc-middle-y>
    <hc-key>nl-gr-gm0009</hc-key>
    <hc-a2>TB</hc-a2>
  </desc>
</path>

<path fill="#CEE3F5" stroke="#6E6E6E" stroke-width="0.4" id="NL.GR.GM0014" d="M269.6,294.8 L273.0,305.9 L274.0,310.5 L273.6,318.4 L276.5,327.8 L286.4,342.8 L276.4,350.9 L270.4,353.5 L274.4,355.9 L270.1,357.7 L250.2,346.8 L245.2,348.3 L246.7,352.5 L236.3,356.6 L236.0,359.2 L230.6,359.4 L228.0,357.6 L223.0,359.9 L222.3,358.1 L217.3,360.8 L213.4,362.8 L209.1,357.1 L206.9,346.7 L198.6,343.8 L193.8,341.5 L187.6,343.2 L183.7,338.2 L180.0,337.5 L168.9,340.6 L171.0,336.6 L169.7,333.4 L175.7,312.4 L180.2,297.9 L180.7,292.8 L185.1,294.1 L189.1,297.3 L193.1,295.8 L198.4,289.6 L196.7,286.2 L206.9,286.2 L214.7,284.2 L214.0,280.6 L221.2,280.0 L221.7,282.5 L230.5,281.6 L230.8,283.6 L241.5,284.0 L243.2,283.0 L241.7,289.4 L253.1,291.9 L253.1,294.1 L260.0,294.3 L260.5,296.2 Z">
  <desc xmlns="http://www.highcharts.com/svg/namespace">
    <name>Groningen</name>
    <hc-middle-x>0.47</hc-middle-x>
    <hc-middle-y>0.48</hc-middle-y>
    <hc-key>nl-gr-gm0014</hc-key>
    <hc-a2>GR</hc-a2>
  </desc>
</path>

<path fill="#CEE3F5" stroke="#6E6E6E" stroke-width="0.4" id="NL.GR.GM0018" d="M270.1,357.7 L274.4,355.9 L270.4,353.5 L276.4,350.9 L286.4,342.8 L295.5,344.5 L315.0,371.2 L329.9,376.3 L347.6,377.0 L347.6,375.6 L342.3,375.3 L342.5,366.5 L356.8,365.2 L368.7,362.0 L369.6,361.0 L378.4,362.2 L375.0,365.2 L375.5,371.2 L371.4,382.1 L371.4,395.8 L372.7,399.1 L366.3,398.3 L368.0,402.6 L362.7,404.7 L363.2,406.0 L357.9,408.1 L362.9,420.2 L364.4,423.9 L361.8,424.9 L367.5,471.5 L355.0,457.4 L346.5,447.9 L346.5,447.9 L324.7,423.5 L300.4,421.0 L297.7,399.7 L296.0,394.7 L298.3,392.8 L297.7,389.2 L294.7,383.0 L291.1,378.3 L282.7,371.9 L280.2,363.0 Z">
  <desc xmlns="http://www.highcharts.com/svg/namespace">
    <name>Hoogezand-Sappemeer</name>
    <hc-middle-x>0.55</hc-middle-x>
    <hc-middle-y>0.41</hc-middle-y>
    <hc-key>nl-gr-gm0018</hc-key>
    <hc-a2>HS</hc-a2>
  </desc>
</path>

<path fill="#CEE3F5" stroke="#6E6E6E" stroke-width="0.4" id="NL.GR.GM0010" d="M415.9,272.5 L416.5,269.9 L417.6,268.6 L420.9,266.2 L418.4,265.1 L417.4,262.3 L417.4,262.3 L417.9,261.9 L418.3,261.6 L418.1,261.1 L418.1,260.9 L418.0,260.8 L418.0,260.5 L417.4,258.2 L416.5,254.5 L416.6,252.7 L416.7,251.7 L416.7,251.1 L416.8,250.3 L416.9,249.2 L417.0,248.0 L417.2,244.8 L417.3,243.2 L417.0,243.3 L415.8,243.7 L415.7,242.9 L415.5,241.7 L415.4,241.4 L414.5,236.6 L414.8,231.7 L414.9,230.7 L414.9,230.3 L415.0,229.6 L414.7,229.1 L414.2,228.6 L414.2,228.6 L414.2,228.6 L414.2,228.6 L414.2,228.5 L414.2,228.5 L414.2,228.5 L414.2,228.0 L414.3,225.9 L414.1,224.9 L414.1,224.9 L414.1,224.9 L414.1,224.9 L414.2,224.5 L414.4,224.3 L414.6,224.0 L414.7,223.2 L414.8,221.9 L415.0,219.9 L415.1,217.9 L415.3,217.0 L414.9,215.8 L414.9,215.8 L415.2,215.0 L415.3,214.9 L415.5,214.9 L415.5,214.7 L416.0,213.0 L416.6,212.7 L416.6,212.7 L416.6,212.7 L416.7,212.5 L416.6,211.7 L416.7,211.5 L416.7,211.3 L416.7,211.2 L416.6,210.8 L416.7,209.6 L416.7,209.5 L416.7,209.0 L413.8,207.7 L411.0,206.7 L410.4,207.9 L410.7,208.2 L411.0,208.6 L410.7,209.3 L410.6,209.4 L410.5,209.8 L410.3,210.1 L410.1,210.4 L410.0,210.9 L407.4,211.0 L406.2,210.4 L406.1,210.6 L406.1,210.7 L406.1,210.8 L406.1,210.8 L406.1,211.0 L406.0,211.4 L405.9,211.7 L405.9,211.9 L403.6,211.1 L403.6,211.1 L403.4,210.8 L402.8,209.6 L402.5,210.4 L401.9,210.3 L401.6,210.2 L399.8,209.6 L399.2,209.6 L398.9,209.7 L398.9,209.7 L398.8,209.7 L398.5,209.6 L398.4,209.6 L397.7,209.2 L397.6,209.2 L396.8,209.0 L396.6,208.7 L396.5,208.7 L396.5,208.7 L396.5,208.7 L396.5,208.7 L396.5,208.7 L396.3,208.8 L396.2,208.8 L395.8,208.7 L393.2,209.8 L393.2,209.9 L393.1,209.9 L392.8,209.1 L391.6,207.9 L390.8,208.4 L390.7,208.3 L390.3,208.0 L390.2,207.8 L390.1,208.0 L389.6,208.6 L388.4,208.2 L388.3,208.3 L388.1,208.6 L388.3,209.3 L387.2,209.9 L386.7,209.6 L387.4,208.2 L387.2,208.5 L386.9,208.2 L385.9,208.2 L385.6,205.6 L384.5,205.5 L382.0,206.1 L381.3,204.0 L381.3,204.0 L381.3,204.0 L381.3,204.0 L381.3,203.9 L381.3,203.9 L381.3,203.9 L381.3,203.9 L381.9,202.2 L381.8,201.9 L381.6,201.0 L382.0,200.3 L382.8,197.7 L380.9,193.2 L380.5,193.7 L378.5,193.8 L377.3,192.0 L374.7,193.4 L372.2,190.9 L371.4,190.1 L370.5,189.2 L369.6,188.3 L368.7,187.5 L368.9,187.1 L369.0,186.7 L369.5,186.2 L370.1,185.6 L370.3,185.1 L367.8,182.6 L367.1,182.0 L367.1,182.0 L367.8,181.4 L367.0,180.3 L365.8,178.8 L366.8,178.2 L362.6,170.4 L362.2,169.8 L360.5,166.7 L360.4,166.4 L360.3,166.1 L360.1,165.9 L360.1,165.9 L357.8,161.6 L357.4,160.0 L356.0,156.3 L356.0,156.3 L356.0,156.3 L361.8,153.0 L363.3,152.1 L363.3,152.1 L364.4,151.5 L365.0,151.2 L395.0,134.0 L405.4,144.7 L412.1,148.3 L414.7,151.2 L419.7,160.5 L418.0,162.6 L420.9,167.2 L419.8,175.3 L422.5,185.0 L423.8,199.2 L426.4,207.1 L430.3,207.6 L435.7,212.2 L442.4,219.7 L445.9,220.5 L450.2,225.1 L449.7,227.2 L456.2,230.5 L464.9,232.9 L475.6,237.7 L465.0,233.8 L451.6,229.9 L447.5,226.3 L444.5,221.4 L440.8,226.5 L460.6,235.6 L464.3,235.3 L479.6,242.4 L482.1,245.3 L488.1,241.2 L488.9,244.9 L487.3,248.5 L496.6,252.3 L502.7,251.2 L508.5,255.4 L525.7,255.3 L528.2,252.0 L539.1,248.3 L530.6,257.9 L528.8,264.8 L529.8,271.1 L525.8,284.1 L526.0,288.9 L533.0,297.5 L528.9,299.3 L524.3,303.9 L525.9,305.4 L518.9,310.8 L514.4,305.1 L513.2,305.9 L504.4,294.2 L501.8,293.7 L498.5,297.0 L492.8,299.7 L488.1,292.3 L488.2,286.4 L477.6,286.2 L462.4,292.2 L452.9,295.3 L448.9,302.8 L446.7,309.1 L444.0,306.9 L438.5,313.8 L434.7,311.5 L431.6,307.2 L428.8,307.7 L428.8,307.5 L427.6,307.2 L429.0,299.1 L429.3,294.5 L429.6,291.3 L429.8,288.0 L429.8,288.0 L428.2,287.9 L428.2,287.9 L428.2,287.8 L428.8,283.2 L427.5,283.0 L428.0,278.8 L427.9,278.8 L427.9,278.7 L428.5,273.1 L428.5,273.0 L428.5,273.0 L428.4,273.1 L428.0,273.3 L427.9,273.0 L427.8,272.9 L427.8,272.9 L427.8,272.7 L427.8,272.7 L427.8,272.7 L423.5,272.5 L421.9,272.4 L421.3,272.4 L420.6,272.4 L419.8,272.3 L419.2,272.3 L418.9,272.3 Z M477.5,242.2 L479.5,242.3 L469.4,238.0 L470.0,238.3 Z M414.2,228.5 L414.2,228.6 L414.2,228.6 L414.2,228.6 L414.2,228.6 L414.2,228.6 Z M381.3,203.9 L381.3,203.9 L381.3,203.9 L381.3,203.9 L381.3,203.9 Z M381.3,203.9 L381.3,204.0 L381.3,204.0 L381.3,204.0 L381.3,204.0 L381.3,203.9 Z">
  <desc xmlns="http://www.highcharts.com/svg/namespace">
    <name>Delfzijl</name>
    <hc-middle-x>0.61</hc-middle-x>
    <hc-middle-y>0.71</hc-middle-y>
    <hc-key>nl-gr-gm0010</hc-key>
    <hc-a2>DE</hc-a2>
  </desc>
</path>

<path fill="#CEE3F5" stroke="#6E6E6E" stroke-width="0.4" id="NL.GR.GM0003" d="M417.0,248.0 L416.8,250.3 L416.7,251.7 L416.5,254.5 L412.0,254.4 L401.1,256.8 L395.6,254.7 L392.3,261.2 L382.1,260.0 L380.6,253.7 L375.7,255.9 L374.4,253.5 L370.6,246.5 L373.1,245.2 L368.6,235.7 L370.2,234.6 L369.5,228.2 L380.7,224.3 L386.9,225.5 L389.5,222.2 L386.7,216.0 L387.2,209.9 L390.7,208.3 L391.6,207.9 L393.1,209.9 L393.2,209.8 L396.2,208.8 L396.5,208.7 L396.5,208.7 L396.5,208.7 L399.2,209.6 L403.6,211.1 L405.9,211.9 L410.0,210.9 L410.7,208.2 L411.0,206.7 L416.7,209.0 L414.9,215.8 L414.4,224.3 L414.2,228.5 L414.2,228.5 L414.5,236.6 L415.5,241.7 L415.8,243.7 L417.3,243.2 Z">
  <desc xmlns="http://www.highcharts.com/svg/namespace">
    <name>Appingedam</name>
    <hc-middle-x>0.50</hc-middle-x>
    <hc-middle-y>0.50</hc-middle-y>
    <hc-key>nl-gr-gm0003</hc-key>
    <hc-a2>AP</hc-a2>
  </desc>
</path>

<path fill="#CEE3F5" stroke="#6E6E6E" stroke-width="0.4" id="NL.GR.GM0024" d="M387.2,209.9 L386.7,216.0 L389.5,222.2 L386.9,225.5 L380.7,224.3 L369.5,228.2 L370.2,234.6 L368.6,235.7 L373.1,245.2 L370.6,246.5 L374.4,253.5 L358.0,262.2 L349.9,266.7 L348.0,263.3 L350.0,258.3 L345.8,252.1 L343.4,254.8 L340.6,250.5 L339.1,251.2 L334.6,242.5 L337.3,240.6 L330.8,237.4 L327.9,238.8 L325.6,244.6 L314.0,239.8 L302.5,251.4 L298.1,247.0 L293.3,244.0 L282.4,240.0 L276.0,240.5 L273.1,233.9 L262.9,233.7 L259.2,225.1 L260.0,223.3 L257.8,218.5 L252.8,218.6 L251.0,213.0 L247.9,212.3 L255.3,211.3 L250.1,201.8 L253.8,199.4 L255.9,199.7 L255.9,199.7 L259.5,200.2 L262.6,200.6 L264.8,199.5 L268.6,197.5 L267.8,189.1 L273.5,187.5 L275.0,187.5 L277.4,186.7 L277.2,185.1 L279.4,184.8 L279.9,185.8 L280.2,185.9 L284.5,185.2 L286.4,184.8 L290.1,184.2 L290.6,184.1 L290.6,184.1 L293.7,186.1 L296.1,185.5 L298.3,184.2 L298.7,184.5 L300.0,185.5 L300.0,185.4 L301.8,184.4 L304.7,186.0 L304.9,186.0 L308.8,188.6 L310.0,187.6 L313.6,184.3 L317.9,180.4 L320.1,178.5 L330.4,169.2 L339.2,158.8 L350.6,152.0 L357.2,144.0 L357.4,144.2 L360.5,147.4 L362.5,146.9 L365.0,151.2 L363.3,152.1 L361.8,153.0 L356.0,156.3 L356.0,156.3 L357.8,161.6 L360.1,165.9 L360.4,166.4 L362.2,169.8 L366.8,178.2 L367.0,180.3 L367.1,182.0 L370.3,185.1 L369.5,186.2 L368.9,187.1 L368.7,187.4 L369.6,188.3 L371.4,190.1 L374.7,193.4 L377.3,192.0 L380.9,193.2 L382.8,197.7 L381.8,201.9 L381.3,203.9 L381.3,203.9 L381.3,203.9 L381.3,203.9 L381.3,203.9 L381.3,204.0 L381.3,204.0 L381.3,204.0 L381.3,204.0 L382.0,206.1 L385.6,205.6 L385.8,208.3 L386.9,208.2 L387.4,208.2 Z M256.0,200.3 L256.0,200.3 L256.0,200.3 L256.0,200.3 Z">
  <desc xmlns="http://www.highcharts.com/svg/namespace">
    <name>Loppersum</name>
    <hc-middle-x>0.52</hc-middle-x>
    <hc-middle-y>0.58</hc-middle-y>
    <hc-key>nl-gr-gm0024</hc-key>
    <hc-a2>LO</hc-a2>
  </desc>
</path>

<path fill="#CEE3F5" stroke="#6E6E6E" stroke-width="0.4" id="NL.GR.GM0022" d="M136.4,323.1 L142.0,318.4 L149.5,316.6 L153.3,326.8 L155.6,330.5 L169.7,333.4 L171.0,336.6 L168.9,340.6 L159.7,343.8 L156.6,352.1 L148.8,356.2 L136.2,360.5 L134.8,361.8 L132.8,371.0 L128.2,374.3 L125.7,378.2 L120.1,383.6 L120.4,387.5 L109.8,413.5 L107.9,427.5 L103.9,427.8 L96.1,446.7 L68.7,434.8 L64.7,414.7 L77.1,413.0 L76.0,404.9 L99.3,401.1 L97.5,391.5 L94.5,370.0 L93.0,367.0 L98.6,364.2 L97.2,355.4 L99.3,354.6 L97.5,340.4 L92.5,343.8 L91.4,341.5 L91.4,333.8 L101.6,330.1 L107.6,331.1 L112.9,326.6 L120.1,326.6 L121.3,324.3 L130.5,324.7 Z">
  <desc xmlns="http://www.highcharts.com/svg/namespace">
    <name>Leek</name>
    <hc-middle-x>0.57</hc-middle-x>
    <hc-middle-y>0.21</hc-middle-y>
    <hc-key>nl-gr-gm0022</hc-key>
    <hc-a2>LE</hc-a2>
  </desc>
</path>

<path fill="#CEE3F5" stroke="#6E6E6E" stroke-width="0.4" id="NL.GR.GM0017" d="M300.4,421.0 L288.7,424.1 L265.1,434.3 L265.8,427.4 L261.0,423.8 L261.2,418.3 L258.0,414.8 L256.6,409.7 L253.4,408.3 L254.0,405.7 L249.6,401.9 L246.0,396.6 L239.0,395.7 L235.8,378.1 L225.4,383.5 L223.3,372.3 L217.3,360.8 L222.3,358.1 L223.0,359.9 L228.0,357.6 L230.6,359.4 L236.0,359.2 L236.3,356.6 L246.7,352.5 L245.2,348.3 L250.2,346.8 L270.1,357.7 L280.2,363.0 L282.7,371.9 L291.1,378.3 L294.7,383.0 L297.7,389.2 L298.3,392.8 L296.0,394.7 L297.7,399.7 Z">
  <desc xmlns="http://www.highcharts.com/svg/namespace">
    <name>Haren</name>
    <hc-middle-x>0.62</hc-middle-x>
    <hc-middle-y>0.52</hc-middle-y>
    <hc-key>nl-gr-gm0017</hc-key>
    <hc-a2>HA</hc-a2>
  </desc>
</path>

<path fill="#CEE3F5" stroke="#6E6E6E" stroke-width="0.4" id="NL.GR.GM0015" d="M0.2,396.9 L0.0,396.1 L2.3,366.5 L4.9,362.9 L9.2,351.3 L13.7,343.1 L16.2,341.5 L16.6,336.5 L21.6,335.5 L28.0,329.6 L31.5,324.2 L31.5,321.8 L34.7,318.5 L35.0,314.1 L32.3,311.1 L32.3,307.1 L26.2,302.5 L27.1,299.8 L32.6,298.5 L28.7,295.1 L36.4,292.3 L36.0,287.2 L39.0,284.5 L37.2,281.9 L62.9,283.1 L62.1,285.7 L63.7,293.4 L77.1,291.5 L84.0,291.4 L88.2,289.9 L102.1,288.1 L101.9,290.4 L110.3,288.9 L109.7,295.6 L112.5,295.0 L112.3,299.0 L117.6,298.0 L117.1,302.9 L121.0,302.1 L121.3,305.5 L124.1,304.2 L124.8,306.7 L127.4,305.4 L133.0,315.1 L136.4,323.1 L130.5,324.7 L121.3,324.3 L120.1,326.6 L112.9,326.6 L107.6,331.1 L101.6,330.1 L91.4,333.8 L88.7,335.2 L85.1,334.0 L85.2,338.5 L83.1,341.7 L63.9,345.8 L64.7,350.8 L66.4,353.1 L41.2,361.6 L41.6,363.5 L36.3,366.2 L35.0,374.6 L33.1,378.3 L28.5,381.9 L9.4,393.2 Z">
  <desc xmlns="http://www.highcharts.com/svg/namespace">
    <name>Grootegast</name>
    <hc-middle-x>0.46</hc-middle-x>
    <hc-middle-y>0.34</hc-middle-y>
    <hc-key>nl-gr-gm0015</hc-key>
    <hc-a2>GR</hc-a2>
  </desc>
</path>

<path fill="#CEE3F5" stroke="#6E6E6E" stroke-width="0.4" id="NL.GR.GM0025" d="M0.2,396.9 L9.4,393.2 L28.5,381.9 L33.1,378.3 L35.0,374.6 L36.3,366.2 L41.6,363.5 L41.2,361.6 L66.4,353.1 L64.7,350.8 L63.9,345.8 L83.1,341.7 L85.2,338.5 L85.1,334.0 L88.7,335.2 L91.4,333.8 L91.4,341.5 L92.5,343.8 L97.5,340.4 L99.3,354.6 L97.2,355.4 L98.6,364.2 L93.0,367.0 L94.5,370.0 L97.5,391.5 L99.3,401.1 L76.0,404.9 L77.1,413.0 L64.7,414.7 L68.7,434.8 L65.4,433.4 L61.3,426.4 L56.3,422.1 L49.8,419.0 L33.5,419.0 L26.6,417.4 L16.5,416.4 L7.9,406.4 L2.0,397.9 Z">
  <desc xmlns="http://www.highcharts.com/svg/namespace">
    <name>Marum</name>
    <hc-middle-x>0.57</hc-middle-x>
    <hc-middle-y>0.57</hc-middle-y>
    <hc-key>nl-gr-gm0025</hc-key>
    <hc-a2>MA</hc-a2>
  </desc>
</path>
</g>

<text x="350" y="714" text-anchor="middle" font-family="Verdana" font-size="8" stroke-opacity="0.6">Copyright (c) 2014 Highsoft AS, Based on data from Kadaster / Centraal Bureau voor de Statistiek, 2014</text>

</svg>