<?xml version="1.0" encoding="utf-8" standalone="no"?>
<!DOCTYPE svg PUBLIC "-//W3C//DTD SVG 1.1//EN" "http://www.w3.org/Graphics/SVG/1.1/DTD/svg11.dtd">

<svg version="1.1" height="700pt" width="700pt" xmlns="http://www.w3.org/2000/svg" xmlns:xlink="http://www.w3.org/1999/xlink">
<desc>
Map version: 1.1.1
Copyright (c) 2014 Highsoft AS, Based on data from Kadaster / Centraal Bureau voor de Statistiek, 2014
</desc>
<title>Limburg</title>
<g id="admin2">

<g id="NL">
  <desc xmlns="http://www.highcharts.com/svg/namespace">
    <name>Netherlands</name>
    <labelrank>5</labelrank>
    <country-abbrev>Neth.</country-abbrev>
    <subregion>Western Europe</subregion>
    <woe-id>-90</woe-id>
    <region-wb>Europe &amp; Central Asia</region-wb>
    <iso-a3>NLD</iso-a3>
    <iso-a2>NL</iso-a2>
    <region-un>Europe</region-un>
    <continent>Europe</continent>
    <hc-key>nl</hc-key>
    <hc-a2>NE</hc-a2>
  </desc>
</g>

<g id="NL.LI">
  <desc xmlns="http://www.highcharts.com/svg/namespace">
    <labelrank>8</labelrank>
    <hasc>NL.LI</hasc>
    <alt-name>Limbourg|Limburgo</alt-name>
    <woe-id>2346377</woe-id>
    <subregion>NULL</subregion>
    <fips>NL05</fips>
    <postal-code>LI</postal-code>
    <name>Limburg</name>
    <country>Netherlands</country>
    <type-en>Province</type-en>
    <region>NULL</region>
    <longitude>5.93161</longitude>
    <woe-name>Limburg</woe-name>
    <latitude>51.2248</latitude>
    <woe-label>Limburg, NL, Netherlands</woe-label>
    <type>Provincie</type>
    <hc-key>nl-li</hc-key>
    <hc-a2>LI</hc-a2>
  </desc>
</g>

<path fill="#CEE3F5" stroke="#6E6E6E" stroke-width="0.4" id="NL.LI.GM0889" d="M237.3,337.1 L237.3,339.1 L221.5,358.2 L216.1,361.9 L211.7,359.5 L207.9,355.8 L206.7,355.5 L203.4,359.3 L196.1,359.5 L191.6,357.2 L190.7,354.2 L187.1,352.1 L186.8,350.0 L188.5,347.2 L193.2,347.0 L196.4,345.3 L196.9,341.7 L203.6,333.1 L208.6,329.7 L212.3,330.5 L213.9,327.1 L219.7,324.3 L220.4,325.6 L223.4,325.5 L227.8,329.9 L229.3,328.0 L232.6,329.4 L235.1,332.1 Z">
  <desc xmlns="http://www.highcharts.com/svg/namespace">
    <name>Beesel</name>
    <hc-middle-x>0.53</hc-middle-x>
    <hc-middle-y>0.54</hc-middle-y>
    <hc-key>nl-li-gm0889</hc-key>
    <hc-a2>BE</hc-a2>
  </desc>
</path>

<path fill="#CEE3F5" stroke="#6E6E6E" stroke-width="0.4" id="NL.LI.GM0899" d="M195.5,557.2 L195.2,557.8 L200.3,560.4 L199.7,563.6 L201.4,572.6 L200.6,575.2 L198.8,578.3 L183.2,577.2 L176.9,573.9 L174.2,574.3 L168.7,579.1 L163.5,574.4 L162.7,572.8 L165.2,571.3 L163.9,569.4 L165.6,566.3 L168.3,564.1 L172.7,561.6 L176.9,557.2 L178.1,554.6 L182.0,557.2 L184.3,555.5 L192.4,557.1 Z">
  <desc xmlns="http://www.highcharts.com/svg/namespace">
    <name>Brunssum</name>
    <hc-middle-x>0.67</hc-middle-x>
    <hc-middle-y>0.49</hc-middle-y>
    <hc-key>nl-li-gm0899</hc-key>
    <hc-a2>BR</hc-a2>
  </desc>
</path>

<path fill="#CEE3F5" stroke="#6E6E6E" stroke-width="0.4" id="NL.LI.GM0882" d="M198.8,578.3 L200.6,575.2 L201.4,572.6 L210.3,574.8 L213.4,576.6 L215.6,575.3 L217.9,577.0 L217.2,580.4 L223.3,581.2 L224.8,579.5 L229.3,580.4 L232.5,582.3 L234.3,580.4 L233.4,583.3 L229.4,588.7 L228.7,591.2 L223.0,592.4 L218.9,595.4 L215.5,596.1 L213.0,595.5 L213.0,600.6 L214.4,602.6 L213.4,604.5 L210.9,605.2 L208.7,615.3 L205.0,615.3 L202.7,616.3 L199.2,611.0 L198.5,606.2 L192.4,599.6 L192.1,594.2 L190.4,592.4 L191.4,589.8 L196.6,583.7 Z">
  <desc xmlns="http://www.highcharts.com/svg/namespace">
    <name>Landgraaf</name>
    <hc-middle-x>0.71</hc-middle-x>
    <hc-middle-y>0.27</hc-middle-y>
    <hc-key>nl-li-gm0882</hc-key>
    <hc-a2>LA</hc-a2>
  </desc>
</path>

<path fill="#CEE3F5" stroke="#6E6E6E" stroke-width="0.4" id="NL.LI.GM0917" d="M203.8,634.5 L203.1,637.9 L204.2,638.9 L203.4,641.3 L204.6,644.1 L207.4,645.2 L206.4,646.1 L208.0,650.3 L207.0,651.7 L204.5,649.9 L203.9,646.8 L201.4,643.5 L197.7,642.8 L198.3,639.3 L186.2,630.6 L182.4,624.2 L180.3,619.8 L176.9,615.6 L171.7,607.9 L161.4,594.8 L158.2,591.2 L152.9,589.0 L154.6,587.6 L150.8,586.8 L149.0,584.6 L153.0,579.4 L155.3,579.6 L159.3,576.3 L158.7,575.3 L160.8,574.0 L162.7,572.8 L163.5,574.4 L168.7,579.1 L174.2,574.3 L176.9,573.9 L183.2,577.2 L198.8,578.3 L196.6,583.7 L191.4,589.8 L190.4,592.4 L192.1,594.2 L192.4,599.6 L198.5,606.2 L199.2,611.0 L202.7,616.3 L204.1,617.4 L200.3,620.9 L199.2,624.0 L195.9,625.3 L200.7,632.4 Z">
  <desc xmlns="http://www.highcharts.com/svg/namespace">
    <name>Heerlen</name>
    <hc-middle-x>0.44</hc-middle-x>
    <hc-middle-y>0.26</hc-middle-y>
    <hc-key>nl-li-gm0917</hc-key>
    <hc-a2>HE</hc-a2>
  </desc>
</path>

<path fill="#CEE3F5" stroke="#6E6E6E" stroke-width="0.4" id="NL.LI.GM0951" d="M158.7,575.3 L159.3,576.3 L155.3,579.6 L153.0,579.4 L149.0,584.6 L150.8,586.8 L154.6,587.6 L152.9,589.0 L158.2,591.2 L161.4,594.8 L158.9,594.9 L157.7,596.8 L152.2,601.1 L153.2,602.1 L147.6,606.3 L149.3,608.1 L143.6,610.5 L140.7,610.0 L135.4,610.9 L131.1,611.2 L130.5,610.2 L124.1,612.1 L122.9,609.0 L124.4,605.0 L122.9,604.7 L117.1,610.3 L113.2,608.1 L108.7,609.7 L107.2,605.4 L107.0,601.5 L109.9,601.2 L109.3,598.2 L106.7,594.9 L108.6,593.9 L108.8,590.3 L121.5,587.7 L121.3,586.2 L125.7,585.9 L128.1,581.6 L129.2,582.7 L132.2,580.8 L136.4,581.9 L137.6,579.5 L146.3,574.8 L147.2,577.8 L150.6,575.9 L152.6,575.8 L155.9,574.2 Z">
  <desc xmlns="http://www.highcharts.com/svg/namespace">
    <name>Nuth</name>
    <hc-middle-x>0.52</hc-middle-x>
    <hc-middle-y>0.58</hc-middle-y>
    <hc-key>nl-li-gm0951</hc-key>
    <hc-a2>NU</hc-a2>
  </desc>
</path>

<path fill="#CEE3F5" stroke="#6E6E6E" stroke-width="0.4" id="NL.LI.GM0971" d="M84.0,571.2 L84.2,568.6 L89.1,566.0 L89.5,564.8 L88.0,561.3 L83.7,558.8 L81.9,559.6 L78.6,563.2 L76.0,563.6 L73.4,562.2 L72.4,558.7 L75.8,553.5 L77.9,552.0 L79.0,547.9 L84.7,544.5 L87.7,537.7 L90.8,534.7 L91.9,532.5 L90.9,525.8 L91.8,522.8 L93.9,519.3 L99.8,518.9 L98.8,521.8 L94.9,529.4 L101.1,531.2 L98.5,541.2 L98.7,544.3 L100.7,549.5 L99.7,553.3 L100.8,557.7 L101.2,563.5 L102.0,567.0 L102.0,567.0 L102.0,567.0 L102.0,567.0 L100.2,568.6 L98.2,570.3 L100.3,570.9 L98.8,573.0 L97.7,578.6 L95.2,581.4 L90.9,579.8 L85.3,576.3 L85.9,574.0 Z">
  <desc xmlns="http://www.highcharts.com/svg/namespace">
    <name>Stein</name>
    <hc-middle-x>0.47</hc-middle-x>
    <hc-middle-y>0.53</hc-middle-y>
    <hc-key>nl-li-gm0971</hc-key>
    <hc-a2>ST</hc-a2>
  </desc>
</path>

<path fill="#CEE3F5" stroke="#6E6E6E" stroke-width="0.4" id="NL.LI.GM0888" d="M104.2,564.7 L108.1,567.6 L112.1,562.2 L120.4,566.8 L123.5,567.7 L124.3,565.1 L128.5,568.7 L130.1,567.4 L131.7,569.0 L131.4,574.5 L130.0,578.6 L128.1,581.6 L125.7,585.9 L121.3,586.2 L121.5,587.7 L108.8,590.3 L96.9,593.2 L90.4,601.6 L88.9,600.2 L93.4,590.2 L95.5,587.2 L97.2,582.4 L95.2,581.4 L97.7,578.6 L98.8,573.0 L100.3,570.9 L98.2,570.3 L100.2,568.6 L102.0,567.0 L102.0,567.0 Z">
  <desc xmlns="http://www.highcharts.com/svg/namespace">
    <name>Beek</name>
    <hc-middle-x>0.58</hc-middle-x>
    <hc-middle-y>0.35</hc-middle-y>
    <hc-key>nl-li-gm0888</hc-key>
    <hc-a2>BE</hc-a2>
  </desc>
</path>

<path fill="#CEE3F5" stroke="#6E6E6E" stroke-width="0.4" id="NL.LI.GM0881" d="M157.8,544.6 L163.7,539.5 L172.8,537.1 L173.9,539.4 L178.6,543.0 L183.4,540.4 L185.5,540.9 L199.7,539.4 L203.6,539.3 L203.8,540.7 L201.7,547.8 L198.4,555.2 L195.5,557.2 L192.4,557.1 L184.3,555.5 L182.0,557.2 L178.1,554.6 L176.9,557.2 L172.7,561.6 L168.3,564.1 L163.3,562.7 L157.5,559.2 L159.2,558.0 L157.9,557.0 L159.5,555.0 L157.2,551.9 L155.1,551.7 L156.6,549.9 L155.7,548.7 L159.8,546.3 Z">
  <desc xmlns="http://www.highcharts.com/svg/namespace">
    <name>Onderbanken</name>
    <hc-middle-x>0.51</hc-middle-x>
    <hc-middle-y>0.41</hc-middle-y>
    <hc-key>nl-li-gm0881</hc-key>
    <hc-a2>ON</hc-a2>
  </desc>
</path>

<path fill="#CEE3F5" stroke="#6E6E6E" stroke-width="0.4" id="NL.LI.GM1883" d="M102.0,567.0 L102.0,567.0 L101.2,563.5 L100.8,557.7 L99.7,553.3 L100.7,549.5 L98.7,544.3 L98.5,541.2 L101.1,531.2 L94.9,529.4 L98.8,521.8 L99.8,518.9 L93.9,519.3 L95.1,516.3 L93.4,513.6 L88.2,512.0 L86.9,509.5 L87.5,507.4 L90.3,503.4 L92.0,498.8 L92.6,493.9 L92.1,491.5 L93.3,489.3 L97.0,489.9 L101.4,492.0 L104.0,490.9 L105.7,492.5 L108.3,491.4 L112.3,482.0 L114.2,482.0 L114.1,485.0 L116.0,494.3 L116.3,498.9 L119.7,497.9 L122.3,500.0 L125.5,499.5 L127.5,505.0 L125.9,506.1 L127.6,510.9 L132.7,511.0 L138.0,508.7 L137.1,510.7 L139.2,516.7 L139.2,518.3 L141.7,521.3 L146.7,522.7 L146.7,527.1 L151.1,528.6 L150.7,538.8 L146.1,543.7 L148.2,547.3 L145.6,547.9 L143.9,551.8 L140.2,555.2 L138.4,555.9 L136.4,553.4 L135.1,555.3 L132.0,553.6 L131.0,554.9 L129.1,552.7 L125.4,555.9 L124.0,560.4 L124.3,565.1 L123.5,567.7 L120.4,566.8 L112.1,562.2 L108.1,567.6 L104.2,564.7 L102.0,567.0 Z">
  <desc xmlns="http://www.highcharts.com/svg/namespace">
    <name>Sittard-Geleen</name>
    <hc-middle-x>0.55</hc-middle-x>
    <hc-middle-y>0.57</hc-middle-y>
    <hc-key>nl-li-gm1883</hc-key>
    <hc-a2>SG</hc-a2>
  </desc>
</path>

<path fill="#CEE3F5" stroke="#6E6E6E" stroke-width="0.4" id="NL.LI.GM0928" d="M202.7,616.3 L205.0,615.3 L208.7,615.3 L210.9,605.2 L213.4,604.5 L214.4,602.6 L213.0,600.6 L213.0,595.5 L215.5,596.1 L218.9,595.4 L223.0,592.4 L228.7,591.2 L227.3,601.6 L229.8,606.9 L232.3,608.7 L231.8,611.1 L233.2,613.8 L231.4,619.0 L228.9,622.0 L228.0,631.5 L223.2,629.3 L220.3,628.9 L220.4,625.8 L219.0,624.9 L214.0,629.0 L210.7,629.6 L208.1,631.7 L204.2,632.8 L203.8,634.5 L200.7,632.4 L195.9,625.3 L199.2,624.0 L200.3,620.9 L204.1,617.4 Z">
  <desc xmlns="http://www.highcharts.com/svg/namespace">
    <name>Kerkrade</name>
    <hc-middle-x>0.68</hc-middle-x>
    <hc-middle-y>0.65</hc-middle-y>
    <hc-key>nl-li-gm0928</hc-key>
    <hc-a2>KE</hc-a2>
  </desc>
</path>

<path fill="#CEE3F5" stroke="#6E6E6E" stroke-width="0.4" id="NL.LI.GM0944" d="M137.7,41.0 L134.5,41.0 L126.7,38.4 L123.5,35.7 L120.3,20.6 L118.7,18.3 L113.3,14.6 L115.2,11.0 L114.3,7.9 L114.3,2.4 L122.4,0.0 L125.0,0.4 L130.4,8.5 L132.9,10.6 L135.0,17.5 L142.7,20.0 L141.4,22.6 L142.6,24.2 L145.0,24.4 L143.5,25.7 L143.5,29.8 L141.6,33.8 L138.3,38.1 Z">
  <desc xmlns="http://www.highcharts.com/svg/namespace">
    <name>Mook en Middelaar</name>
    <hc-middle-x>0.51</hc-middle-x>
    <hc-middle-y>0.49</hc-middle-y>
    <hc-key>nl-li-gm0944</hc-key>
    <hc-a2>ME</hc-a2>
  </desc>
</path>

<path fill="#CEE3F5" stroke="#6E6E6E" stroke-width="0.4" id="NL.LI.GM1711" d="M104.0,490.9 L104.6,488.2 L102.5,482.9 L105.6,479.3 L105.1,475.7 L102.3,473.1 L101.4,470.8 L102.8,468.1 L106.8,466.0 L109.3,466.5 L113.1,468.5 L116.6,466.1 L117.6,463.4 L119.0,461.1 L122.2,459.4 L124.0,456.1 L125.0,456.6 L127.8,450.9 L133.3,438.6 L141.2,438.7 L144.2,437.6 L146.7,439.5 L148.6,438.2 L150.2,440.2 L151.2,439.2 L151.6,442.5 L154.6,449.1 L157.2,452.2 L163.1,451.6 L163.1,452.7 L169.0,452.1 L173.6,448.3 L176.6,450.8 L179.3,449.9 L181.9,446.5 L187.5,447.5 L188.9,450.7 L194.5,447.8 L194.2,448.6 L198.0,450.8 L199.1,455.4 L200.9,454.9 L202.0,458.6 L204.7,462.0 L193.3,466.4 L188.5,471.1 L186.2,474.2 L184.7,477.8 L181.7,479.0 L182.0,481.4 L179.2,485.8 L177.2,487.6 L176.5,491.1 L176.7,498.5 L172.5,501.2 L173.3,503.1 L172.6,505.5 L171.0,504.3 L167.8,504.1 L164.2,505.6 L162.5,501.5 L158.8,496.8 L155.1,486.3 L152.7,484.4 L150.1,487.3 L145.7,491.3 L144.0,494.0 L141.9,494.8 L132.9,495.9 L133.4,498.9 L136.8,503.9 L138.4,505.2 L138.0,508.7 L132.7,511.0 L127.6,510.9 L125.9,506.1 L127.5,505.0 L125.5,499.5 L122.3,500.0 L119.7,497.9 L116.3,498.9 L116.0,494.3 L114.1,485.0 L114.2,482.0 L112.3,482.0 L108.3,491.4 L105.7,492.5 Z">
  <desc xmlns="http://www.highcharts.com/svg/namespace">
    <name>Echt-Susteren</name>
    <hc-middle-x>0.43</hc-middle-x>
    <hc-middle-y>0.46</hc-middle-y>
    <hc-key>nl-li-gm1711</hc-key>
    <hc-a2>ES</hc-a2>
  </desc>
</path>

<path fill="#CEE3F5" stroke="#6E6E6E" stroke-width="0.4" id="NL.LI.GM0946" d="M113.9,294.9 L113.9,294.9 L113.9,294.9 L113.9,294.9 L113.9,294.9 L113.9,294.9 L113.9,294.9 L113.9,294.9 L113.9,294.9 Z M130.8,314.9 L123.7,319.1 L119.9,332.4 L114.7,340.6 L115.4,342.0 L113.1,344.1 L119.2,357.0 L120.6,356.3 L122.7,358.1 L123.1,361.3 L121.7,365.1 L120.6,363.9 L116.6,364.4 L114.5,366.9 L107.0,366.7 L103.0,368.0 L101.1,369.6 L96.1,370.1 L91.8,363.6 L90.0,361.8 L77.7,354.6 L74.2,350.6 L72.2,345.6 L68.8,341.6 L65.8,340.5 L59.5,340.1 L53.9,341.1 L49.3,342.8 L45.0,345.1 L42.1,345.0 L37.4,343.5 L33.8,339.9 L31.6,336.3 L36.5,328.7 L43.0,319.2 L107.1,297.1 L113.9,294.9 L113.9,294.9 L113.9,294.9 L113.9,294.9 L113.9,294.9 L113.9,294.9 L113.9,294.9 L113.9,294.9 L113.9,294.9 L110.7,301.0 L119.7,312.5 Z M113.9,294.9 L113.9,294.9 L113.9,294.9 L113.9,294.9 Z">
  <desc xmlns="http://www.highcharts.com/svg/namespace">
    <name>Nederweert</name>
    <hc-middle-x>0.63</hc-middle-x>
    <hc-middle-y>0.48</hc-middle-y>
    <hc-key>nl-li-gm0946</hc-key>
    <hc-a2>NE</hc-a2>
  </desc>
</path>

<path fill="#CEE3F5" stroke="#6E6E6E" stroke-width="0.4" id="NL.LI.GM0938" d="M95.2,581.4 L97.2,582.4 L95.5,587.2 L93.4,590.2 L88.9,600.2 L90.4,601.6 L96.9,593.2 L108.8,590.3 L108.6,593.9 L106.7,594.9 L109.3,598.2 L109.9,601.2 L107.0,601.5 L107.2,605.4 L108.7,609.7 L108.1,611.6 L102.0,612.1 L99.2,611.4 L97.0,616.9 L97.5,619.2 L94.9,618.7 L93.2,623.3 L91.7,623.7 L89.9,620.0 L87.4,620.9 L85.8,619.7 L80.3,618.2 L81.4,613.2 L77.1,611.9 L75.6,604.8 L73.2,603.3 L73.9,601.7 L70.9,599.8 L71.5,595.5 L74.9,594.9 L76.5,592.2 L75.9,586.7 L78.6,580.4 L82.0,576.9 L84.0,571.2 L85.9,574.0 L85.3,576.3 L90.9,579.8 Z">
  <desc xmlns="http://www.highcharts.com/svg/namespace">
    <name>Meerssen</name>
    <hc-middle-x>0.61</hc-middle-x>
    <hc-middle-y>0.63</hc-middle-y>
    <hc-key>nl-li-gm0938</hc-key>
    <hc-a2>ME</hc-a2>
  </desc>
</path>

<path fill="#CEE3F5" stroke="#6E6E6E" stroke-width="0.4" id="NL.LI.GM0957" d="M187.1,352.1 L190.7,354.2 L191.6,357.2 L196.1,359.5 L203.4,359.3 L206.7,355.5 L207.9,355.8 L211.7,359.5 L216.1,361.9 L222.4,375.2 L216.9,375.6 L214.7,377.0 L215.6,382.0 L218.0,402.6 L210.3,401.7 L210.2,405.2 L211.3,407.7 L208.4,408.3 L209.4,410.4 L212.7,410.9 L214.4,414.6 L211.1,417.0 L204.0,418.5 L199.9,418.3 L198.4,416.2 L192.9,415.2 L189.8,417.2 L186.8,417.9 L186.3,414.0 L183.5,414.4 L183.9,412.7 L181.1,412.7 L182.2,410.5 L181.5,408.4 L178.6,409.8 L168.3,420.9 L168.3,420.9 L168.2,421.0 L167.0,421.1 L165.9,420.5 L164.6,419.9 L162.1,420.0 L156.3,414.8 L154.0,414.2 L151.4,415.0 L153.4,413.1 L155.1,408.7 L153.1,407.9 L155.3,403.0 L159.1,398.1 L165.3,392.2 L171.0,386.8 L174.7,381.8 L177.0,376.6 L179.8,373.8 L184.2,371.2 L187.5,366.1 L188.7,358.3 Z M168.3,420.9 L168.3,420.9 L168.3,420.9 Z">
  <desc xmlns="http://www.highcharts.com/svg/namespace">
    <name>Roermond</name>
    <hc-middle-x>0.52</hc-middle-x>
    <hc-middle-y>0.56</hc-middle-y>
    <hc-key>nl-li-gm0957</hc-key>
    <hc-a2>RO</hc-a2>
  </desc>
</path>

<path fill="#CEE3F5" stroke="#6E6E6E" stroke-width="0.4" id="NL.LI.GM1669" d="M163.2,426.2 L168.2,421.0 L168.3,420.9 L168.3,420.9 L168.3,420.9 L168.3,420.9 L178.6,409.8 L181.5,408.4 L182.2,410.5 L181.1,412.7 L183.9,412.7 L183.5,414.4 L186.3,414.0 L186.8,417.9 L189.8,417.2 L192.9,415.2 L198.4,416.2 L199.9,418.3 L204.0,418.5 L211.1,417.0 L214.4,414.6 L212.7,410.9 L209.4,410.4 L208.4,408.3 L211.3,407.7 L210.2,405.2 L210.3,401.7 L218.0,402.6 L222.2,410.1 L225.7,410.8 L230.4,409.9 L234.6,408.0 L236.3,405.2 L242.1,401.0 L257.0,393.0 L263.9,398.2 L246.4,407.9 L262.5,417.3 L257.3,421.5 L257.6,424.2 L250.5,424.7 L245.4,427.2 L241.3,427.9 L237.8,431.6 L229.3,434.9 L227.3,434.9 L226.3,439.6 L222.9,441.2 L222.9,443.8 L220.8,446.0 L214.4,448.4 L212.4,452.0 L213.1,452.8 L204.7,462.0 L202.0,458.6 L200.9,454.9 L199.1,455.4 L198.0,450.8 L194.2,448.6 L194.5,447.8 L188.9,450.7 L187.5,447.5 L181.9,446.5 L179.3,449.9 L176.6,450.8 L173.6,448.3 L169.0,452.1 L163.1,452.7 L163.1,451.6 L157.2,452.2 L154.6,449.1 L151.6,442.5 L151.2,439.2 Z">
  <desc xmlns="http://www.highcharts.com/svg/namespace">
    <name>Roerdalen</name>
    <hc-middle-x>0.42</hc-middle-x>
    <hc-middle-y>0.56</hc-middle-y>
    <hc-key>nl-li-gm1669</hc-key>
    <hc-a2>RO</hc-a2>
  </desc>
</path>

<path fill="#CEE3F5" stroke="#6E6E6E" stroke-width="0.4" id="NL.LI.GM1641" d="M168.3,420.9 L163.2,426.2 L151.2,439.2 L150.2,440.2 L148.6,438.2 L146.7,439.5 L144.2,437.6 L141.2,438.7 L133.3,438.6 L127.8,450.9 L125.0,456.6 L124.0,456.1 L122.2,459.4 L119.0,461.1 L117.6,463.4 L117.1,460.0 L113.1,457.6 L109.3,458.4 L107.6,457.5 L106.2,454.7 L107.0,451.0 L111.4,445.1 L114.8,442.6 L119.6,442.0 L122.2,434.7 L126.0,432.4 L117.4,426.5 L118.3,424.2 L115.8,423.0 L115.9,421.4 L112.8,417.7 L112.9,415.2 L120.9,409.4 L123.7,412.0 L121.7,409.0 L125.6,405.6 L132.4,400.5 L129.9,397.8 L131.7,392.0 L134.4,386.8 L138.5,383.6 L140.5,383.1 L146.5,386.0 L146.3,390.0 L149.2,387.6 L154.0,390.8 L163.3,390.8 L165.3,392.2 L159.1,398.1 L155.3,403.0 L153.1,407.9 L155.1,408.7 L153.4,413.1 L151.4,415.0 L154.0,414.2 L156.3,414.8 L162.1,420.0 L165.9,420.5 L168.3,420.9 L168.3,420.9 Z">
  <desc xmlns="http://www.highcharts.com/svg/namespace">
    <name>Maasgouw</name>
    <hc-middle-x>0.54</hc-middle-x>
    <hc-middle-y>0.45</hc-middle-y>
    <hc-key>nl-li-gm1641</hc-key>
    <hc-a2>MA</hc-a2>
  </desc>
</path>

<path fill="#CEE3F5" stroke="#6E6E6E" stroke-width="0.4" id="NL.LI.GM0962" d="M168.3,564.1 L165.6,566.3 L163.9,569.4 L165.2,571.3 L162.7,572.8 L160.8,574.0 L158.7,575.3 L155.9,574.2 L152.6,575.8 L150.6,575.9 L147.2,577.8 L146.3,574.8 L137.6,579.5 L136.4,581.9 L132.2,580.8 L129.2,582.7 L128.1,581.6 L130.0,578.6 L131.4,574.5 L131.7,569.0 L130.1,567.4 L128.5,568.7 L124.3,565.1 L124.0,560.4 L125.4,555.9 L129.1,552.7 L131.0,554.9 L132.0,553.6 L135.1,555.3 L136.4,553.4 L138.4,555.9 L140.2,555.2 L143.9,551.8 L145.6,547.9 L148.2,547.3 L151.5,547.4 L157.8,544.6 L159.8,546.3 L155.7,548.7 L156.6,549.9 L155.1,551.7 L157.2,551.9 L159.5,555.0 L157.9,557.0 L159.2,558.0 L157.5,559.2 L163.3,562.7 Z">
  <desc xmlns="http://www.highcharts.com/svg/namespace">
    <name>Schinnen</name>
    <hc-middle-x>0.49</hc-middle-x>
    <hc-middle-y>0.50</hc-middle-y>
    <hc-key>nl-li-gm0962</hc-key>
    <hc-a2>SC</hc-a2>
  </desc>
</path>

<path fill="#CEE3F5" stroke="#6E6E6E" stroke-width="0.4" id="NL.LI.GM0965" d="M182.4,624.2 L186.2,630.6 L198.3,639.3 L197.7,642.8 L201.4,643.5 L203.9,646.8 L204.5,649.9 L207.0,651.7 L207.7,654.6 L204.1,657.7 L201.5,661.7 L198.8,663.6 L190.8,657.7 L189.9,658.3 L188.1,655.1 L183.6,653.8 L184.6,650.7 L183.1,650.1 L179.0,646.2 L177.1,641.3 L176.5,634.1 L176.2,629.6 L181.3,627.5 Z">
  <desc xmlns="http://www.highcharts.com/svg/namespace">
    <name>Simpelveld</name>
    <hc-middle-x>0.73</hc-middle-x>
    <hc-middle-y>0.77</hc-middle-y>
    <hc-key>nl-li-gm0965</hc-key>
    <hc-a2>SI</hc-a2>
  </desc>
</path>

<path fill="#CEE3F5" stroke="#6E6E6E" stroke-width="0.4" id="NL.LI.GM0935" d="M66.3,663.8 L60.7,660.7 L59.1,661.7 L58.0,658.7 L52.0,658.5 L47.5,656.7 L48.3,653.8 L46.4,651.6 L45.3,652.5 L46.0,648.6 L44.7,647.8 L43.3,643.6 L41.7,642.7 L40.4,639.0 L41.9,636.4 L40.7,633.9 L42.0,631.8 L41.1,626.8 L44.3,623.9 L42.0,621.9 L45.0,619.2 L52.7,614.4 L56.9,615.1 L56.7,613.1 L58.1,609.6 L62.2,605.9 L64.0,600.0 L63.6,595.7 L64.8,594.2 L69.0,593.5 L71.5,595.5 L70.9,599.8 L73.9,601.7 L73.2,603.3 L75.6,604.8 L77.1,611.9 L81.4,613.2 L80.3,618.2 L85.8,619.7 L87.4,620.9 L89.9,620.0 L91.7,623.7 L93.2,623.3 L93.3,624.9 L87.6,629.9 L91.2,631.0 L91.4,637.8 L90.4,640.2 L84.6,641.7 L84.3,642.8 L86.9,643.5 L87.3,648.5 L86.0,654.4 L79.8,657.0 L78.6,658.6 L74.9,659.5 L75.0,666.8 L71.4,666.1 L71.7,663.8 Z">
  <desc xmlns="http://www.highcharts.com/svg/namespace">
    <name>Maastricht</name>
    <hc-middle-x>0.52</hc-middle-x>
    <hc-middle-y>0.54</hc-middle-y>
    <hc-key>nl-li-gm0935</hc-key>
    <hc-a2>MA</hc-a2>
  </desc>
</path>

<path fill="#CEE3F5" stroke="#6E6E6E" stroke-width="0.4" id="NL.LI.GM1729" d="M176.5,634.1 L177.1,641.3 L179.0,646.2 L183.1,650.1 L184.6,650.7 L183.6,653.8 L188.1,655.1 L189.9,658.3 L188.6,661.0 L187.1,662.7 L183.9,664.3 L182.0,663.6 L176.6,669.7 L174.1,668.2 L172.5,672.2 L174.0,678.1 L173.7,683.8 L170.4,685.2 L168.3,682.8 L165.1,682.8 L163.8,686.9 L166.0,688.9 L165.9,690.7 L168.1,691.3 L168.2,693.7 L170.7,695.0 L168.7,695.1 L164.7,699.1 L162.0,699.9 L162.0,696.9 L157.4,696.8 L156.1,699.4 L150.9,696.3 L150.5,690.0 L149.1,686.9 L144.8,690.2 L139.3,691.8 L134.7,696.3 L133.3,698.9 L131.3,690.9 L130.7,684.6 L128.0,679.9 L126.7,679.9 L126.8,676.5 L123.4,674.0 L120.5,670.2 L119.2,664.1 L124.4,661.5 L127.7,662.2 L130.1,656.9 L131.6,657.1 L134.0,652.6 L135.3,653.2 L138.0,651.1 L135.7,644.1 L138.5,640.6 L141.9,641.0 L143.3,638.5 L142.0,635.0 L147.7,634.5 L149.2,637.3 L152.4,636.8 L154.1,635.3 L160.0,632.8 L163.6,632.7 L166.0,637.9 L169.4,638.0 L173.1,635.1 Z">
  <desc xmlns="http://www.highcharts.com/svg/namespace">
    <name>Gulpen-Wittem</name>
    <hc-middle-x>0.52</hc-middle-x>
    <hc-middle-y>0.49</hc-middle-y>
    <hc-key>nl-li-gm1729</hc-key>
    <hc-a2>GW</hc-a2>
  </desc>
</path>

<path fill="#CEE3F5" stroke="#6E6E6E" stroke-width="0.4" id="NL.LI.GM1507" d="M151.8,267.5 L144.7,255.5 L126.1,226.4 L158.9,213.5 L169.7,208.4 L176.0,204.8 L184.1,203.3 L188.0,201.5 L191.2,201.1 L195.1,196.4 L195.5,195.1 L199.5,193.6 L204.5,195.5 L207.1,194.6 L209.3,189.8 L205.8,181.3 L204.8,175.8 L205.5,170.5 L209.8,169.6 L211.2,170.8 L214.2,170.3 L217.9,171.5 L220.9,170.6 L222.9,171.4 L222.6,173.5 L229.4,178.8 L231.3,175.8 L233.7,177.5 L237.2,172.0 L238.8,173.4 L244.5,175.8 L248.0,178.8 L249.7,182.7 L249.0,192.3 L249.3,194.5 L254.1,202.5 L254.6,208.9 L252.8,212.7 L249.3,217.2 L245.5,224.1 L245.2,228.4 L247.4,236.2 L247.2,239.4 L244.7,243.3 L243.9,248.0 L245.9,256.0 L240.8,257.0 L238.5,245.0 L237.8,242.6 L236.1,243.6 L232.1,243.0 L229.6,239.6 L223.2,240.8 L214.8,240.5 L213.2,240.9 L213.1,248.1 L211.7,250.5 L211.2,253.9 L211.9,257.6 L189.1,267.7 L183.8,269.6 L176.6,271.0 L163.3,271.7 L158.6,268.4 Z">
  <desc xmlns="http://www.highcharts.com/svg/namespace">
    <name>Horst aan de Maas</name>
    <hc-middle-x>0.47</hc-middle-x>
    <hc-middle-y>0.63</hc-middle-y>
    <hc-key>nl-li-gm1507</hc-key>
    <hc-a2>HA</hc-a2>
  </desc>
</path>

<path fill="#CEE3F5" stroke="#6E6E6E" stroke-width="0.4" id="NL.LI.GM0994" d="M91.2,631.0 L87.6,629.9 L93.3,624.9 L93.2,623.3 L94.9,618.7 L97.5,619.2 L97.0,616.9 L99.2,611.4 L102.0,612.1 L108.1,611.6 L108.7,609.7 L113.2,608.1 L117.1,610.3 L122.9,604.7 L124.4,605.0 L122.9,609.0 L124.1,612.1 L130.5,610.2 L131.1,611.2 L135.4,610.9 L136.5,614.4 L139.3,617.1 L139.0,620.0 L141.0,622.9 L139.3,628.3 L141.5,627.8 L144.5,630.3 L147.7,634.5 L142.0,635.0 L143.3,638.5 L141.9,641.0 L138.5,640.6 L135.7,644.1 L132.0,645.5 L128.8,644.7 L125.6,642.9 L125.8,647.0 L123.0,647.4 L119.0,646.0 L119.1,641.3 L112.1,638.3 L110.4,634.0 L110.0,635.1 L106.0,634.2 L101.2,634.6 L99.2,632.0 L97.0,632.8 L93.7,631.3 Z">
  <desc xmlns="http://www.highcharts.com/svg/namespace">
    <name>Valkenburg aan de Geul</name>
    <hc-middle-x>0.56</hc-middle-x>
    <hc-middle-y>0.48</hc-middle-y>
    <hc-key>nl-li-gm0994</hc-key>
    <hc-a2>VA</hc-a2>
  </desc>
</path>

<path fill="#CEE3F5" stroke="#6E6E6E" stroke-width="0.4" id="NL.LI.GM0893" d="M249.7,182.7 L248.0,178.8 L244.5,175.8 L238.8,173.4 L237.2,172.0 L232.2,167.4 L227.8,164.0 L226.1,160.3 L225.1,156.1 L223.2,153.8 L219.0,153.3 L212.8,154.4 L210.0,154.3 L204.8,150.8 L202.7,148.7 L196.6,147.2 L193.1,142.8 L191.8,139.2 L192.4,132.9 L190.9,128.0 L186.3,122.3 L185.2,118.8 L184.7,108.3 L183.2,104.9 L172.3,94.7 L166.2,91.0 L163.9,90.3 L174.1,82.1 L176.4,81.5 L179.8,77.1 L183.8,78.4 L186.7,76.2 L183.4,71.8 L186.4,67.3 L188.5,69.5 L203.9,75.0 L205.3,74.3 L206.8,76.2 L209.9,75.6 L210.6,77.4 L215.6,78.4 L216.5,76.7 L223.5,79.5 L223.3,83.1 L220.1,85.9 L221.1,87.3 L219.7,89.3 L216.8,101.6 L215.7,103.8 L214.2,103.0 L214.5,108.8 L213.6,114.1 L224.9,121.9 L226.8,122.5 L231.0,130.3 L238.3,137.2 L242.6,139.7 L251.9,158.4 L257.0,161.7 L262.0,165.6 L267.6,174.9 L268.3,178.7 L264.4,181.2 L257.8,181.0 Z">
  <desc xmlns="http://www.highcharts.com/svg/namespace">
    <name>Bergen (L,)</name>
    <hc-middle-x>0.43</hc-middle-x>
    <hc-middle-y>0.50</hc-middle-y>
    <hc-key>nl-li-gm0893</hc-key>
    <hc-a2>B(</hc-a2>
  </desc>
</path>

<path fill="#CEE3F5" stroke="#6E6E6E" stroke-width="0.4" id="NL.LI.GM0986" d="M147.7,634.5 L144.5,630.3 L141.5,627.8 L139.3,628.3 L141.0,622.9 L139.0,620.0 L139.3,617.1 L136.5,614.4 L135.4,610.9 L140.7,610.0 L143.6,610.5 L149.3,608.1 L147.6,606.3 L153.2,602.1 L152.2,601.1 L157.7,596.8 L158.9,594.9 L161.4,594.8 L171.7,607.9 L176.9,615.6 L180.3,619.8 L182.4,624.2 L181.3,627.5 L176.2,629.6 L176.5,634.1 L173.1,635.1 L169.4,638.0 L166.0,637.9 L163.6,632.7 L160.0,632.8 L154.1,635.3 L152.4,636.8 L149.2,637.3 Z">
  <desc xmlns="http://www.highcharts.com/svg/namespace">
    <name>Voerendaal</name>
    <hc-middle-x>0.48</hc-middle-x>
    <hc-middle-y>0.61</hc-middle-y>
    <hc-key>nl-li-gm0986</hc-key>
    <hc-a2>VO</hc-a2>
  </desc>
</path>

<path fill="#CEE3F5" stroke="#6E6E6E" stroke-width="0.4" id="NL.LI.GM0983" d="M268.3,178.7 L268.8,182.0 L268.5,189.9 L271.4,194.1 L273.6,200.9 L273.4,210.3 L272.7,214.3 L273.2,220.2 L270.4,220.6 L271.1,229.0 L268.1,252.6 L270.6,251.5 L277.2,251.7 L277.3,252.3 L272.3,259.2 L272.6,260.9 L278.3,278.9 L263.3,293.8 L265.3,296.8 L262.8,296.8 L258.5,298.1 L254.4,298.6 L254.9,301.0 L252.8,303.7 L251.0,307.8 L251.0,310.6 L248.9,313.7 L248.9,316.3 L245.4,322.8 L238.9,331.5 L237.3,337.1 L235.1,332.1 L232.6,329.4 L229.3,328.0 L227.8,329.9 L223.4,325.5 L220.4,325.6 L219.7,324.3 L221.5,323.0 L227.4,315.9 L232.4,306.2 L233.0,301.6 L232.1,295.4 L234.8,292.3 L232.8,290.7 L227.5,284.0 L224.3,283.4 L220.2,273.7 L218.8,274.6 L217.3,272.1 L214.3,269.5 L219.6,264.0 L219.4,261.8 L216.5,259.6 L211.9,257.6 L211.2,253.9 L211.7,250.5 L213.1,248.1 L213.2,240.9 L214.8,240.5 L223.2,240.8 L229.6,239.6 L232.1,243.0 L236.1,243.6 L237.8,242.6 L238.5,245.0 L240.8,257.0 L245.9,256.0 L243.9,248.0 L244.7,243.3 L247.2,239.4 L247.4,236.2 L245.2,228.4 L245.5,224.1 L249.3,217.2 L252.8,212.7 L254.6,208.9 L254.1,202.5 L249.3,194.5 L249.0,192.3 L249.7,182.7 L257.8,181.0 L264.4,181.2 Z">
  <desc xmlns="http://www.highcharts.com/svg/namespace">
    <name>Venlo</name>
    <hc-middle-x>0.54</hc-middle-x>
    <hc-middle-y>0.58</hc-middle-y>
    <hc-key>nl-li-gm0983</hc-key>
    <hc-a2>VE</hc-a2>
  </desc>
</path>

<path fill="#CEE3F5" stroke="#6E6E6E" stroke-width="0.4" id="NL.LI.GM1640" d="M188.5,347.2 L186.8,350.0 L187.1,352.1 L188.7,358.3 L187.5,366.1 L184.2,371.2 L179.8,373.8 L177.0,376.6 L174.7,381.8 L171.0,386.8 L165.3,392.2 L163.3,390.8 L154.0,390.8 L149.2,387.6 L146.3,390.0 L146.5,386.0 L140.5,383.1 L138.5,383.6 L134.4,386.8 L131.7,392.0 L129.9,397.8 L132.4,400.5 L125.6,405.6 L121.7,409.0 L123.7,412.0 L120.9,409.4 L112.9,415.2 L112.8,417.7 L111.9,417.1 L108.3,420.7 L107.6,423.4 L104.3,420.8 L102.8,423.1 L98.3,424.9 L95.4,427.8 L92.3,429.1 L91.0,426.8 L92.9,423.6 L92.7,420.9 L91.4,419.6 L88.8,420.4 L88.4,417.1 L92.5,414.9 L90.0,414.6 L91.2,410.6 L87.0,407.2 L82.2,406.9 L77.6,403.6 L77.6,400.8 L80.8,393.9 L80.4,390.9 L78.5,390.8 L79.7,387.0 L83.6,385.0 L86.6,385.9 L89.0,385.6 L90.5,382.5 L92.3,382.2 L96.1,370.1 L101.1,369.6 L103.0,368.0 L107.0,366.7 L114.5,366.9 L116.6,364.4 L120.6,363.9 L121.7,365.1 L123.1,361.3 L122.7,358.1 L120.6,356.3 L119.2,357.0 L113.1,344.1 L115.4,342.0 L114.7,340.6 L119.9,332.4 L123.7,319.1 L130.8,314.9 L133.5,315.5 L145.1,320.4 L143.6,316.6 L164.1,324.7 L187.6,339.2 L188.9,343.3 Z">
  <desc xmlns="http://www.highcharts.com/svg/namespace">
    <name>Leudal</name>
    <hc-middle-x>0.64</hc-middle-x>
    <hc-middle-y>0.34</hc-middle-y>
    <hc-key>nl-li-gm1640</hc-key>
    <hc-a2>LE</hc-a2>
  </desc>
</path>

<path fill="#CEE3F5" stroke="#6E6E6E" stroke-width="0.4" id="NL.LI.GM0984" d="M196.6,147.2 L202.7,148.7 L204.8,150.8 L210.0,154.3 L212.8,154.4 L219.0,153.3 L223.2,153.8 L225.1,156.1 L226.1,160.3 L227.8,164.0 L232.2,167.4 L237.2,172.0 L233.7,177.5 L231.3,175.8 L229.4,178.8 L222.6,173.5 L222.9,171.4 L220.9,170.6 L217.9,171.5 L214.2,170.3 L211.2,170.8 L209.8,169.6 L205.5,170.5 L204.8,175.8 L205.8,181.3 L209.3,189.8 L207.1,194.6 L204.5,195.5 L199.5,193.6 L195.5,195.1 L195.1,196.4 L191.2,201.1 L188.0,201.5 L184.1,203.3 L176.0,204.8 L169.7,208.4 L158.9,213.5 L126.1,226.4 L124.6,224.0 L118.8,195.7 L115.1,187.5 L107.3,145.4 L130.1,148.7 L136.7,154.0 L148.9,152.5 L166.1,146.3 L177.7,139.9 L183.8,144.4 L189.8,151.7 L190.1,148.6 L193.3,148.6 Z">
  <desc xmlns="http://www.highcharts.com/svg/namespace">
    <name>Venray</name>
    <hc-middle-x>0.38</hc-middle-x>
    <hc-middle-y>0.47</hc-middle-y>
    <hc-key>nl-li-gm0984</hc-key>
    <hc-a2>VE</hc-a2>
  </desc>
</path>

<path fill="#CEE3F5" stroke="#6E6E6E" stroke-width="0.4" id="NL.LI.GM1894" d="M151.8,267.5 L158.6,268.4 L163.3,271.7 L176.6,271.0 L183.8,269.6 L189.1,267.7 L211.9,257.6 L216.5,259.6 L219.4,261.8 L219.6,264.0 L214.3,269.5 L217.3,272.1 L218.8,274.6 L220.2,273.7 L224.3,283.4 L227.5,284.0 L232.8,290.7 L234.8,292.3 L232.1,295.4 L233.0,301.6 L232.4,306.2 L227.4,315.9 L221.5,323.0 L219.7,324.3 L213.9,327.1 L212.3,330.5 L208.6,329.7 L203.6,333.1 L196.9,341.7 L196.4,345.3 L193.2,347.0 L188.5,347.2 L188.9,343.3 L187.6,339.2 L164.1,324.7 L143.6,316.6 L145.1,320.4 L133.5,315.5 L130.8,314.9 L119.7,312.5 L110.7,301.0 L113.9,294.9 L113.9,294.9 L128.4,289.9 Z M113.9,294.9 L113.9,294.9 L113.9,294.9 L113.9,294.9 Z">
  <desc xmlns="http://www.highcharts.com/svg/namespace">
    <name>Peel en Maas</name>
    <hc-middle-x>0.55</hc-middle-x>
    <hc-middle-y>0.48</hc-middle-y>
    <hc-key>nl-li-gm1894</hc-key>
    <hc-a2>PE</hc-a2>
  </desc>
</path>

<path fill="#CEE3F5" stroke="#6E6E6E" stroke-width="0.4" id="NL.LI.GM0981" d="M187.1,662.7 L186.5,666.4 L188.8,668.3 L192.4,668.9 L195.8,671.5 L197.0,673.5 L200.6,676.8 L204.1,678.3 L210.1,682.2 L206.2,689.3 L207.6,695.4 L204.7,695.0 L198.3,696.6 L191.9,696.6 L187.4,695.6 L187.7,693.7 L185.1,692.0 L180.2,691.2 L178.2,692.6 L175.3,692.9 L170.7,695.0 L168.2,693.7 L168.1,691.3 L165.9,690.7 L166.0,688.9 L163.8,686.9 L165.1,682.8 L168.3,682.8 L170.4,685.2 L173.7,683.8 L174.0,678.1 L172.5,672.2 L174.1,668.2 L176.6,669.7 L182.0,663.6 L183.9,664.3 Z">
  <desc xmlns="http://www.highcharts.com/svg/namespace">
    <name>Vaals</name>
    <hc-middle-x>0.51</hc-middle-x>
    <hc-middle-y>0.50</hc-middle-y>
    <hc-key>nl-li-gm0981</hc-key>
    <hc-a2>VA</hc-a2>
  </desc>
</path>

<path fill="#CEE3F5" stroke="#6E6E6E" stroke-width="0.4" id="NL.LI.GM0988" d="M77.6,403.6 L75.3,405.7 L66.6,407.3 L62.3,410.4 L61.7,409.3 L56.7,408.2 L56.2,409.1 L53.7,407.3 L48.2,409.3 L48.0,408.0 L42.8,407.1 L40.2,408.2 L36.5,402.3 L38.3,401.8 L37.7,399.5 L30.7,396.3 L0.0,385.0 L12.0,381.0 L12.1,382.3 L22.4,378.4 L23.9,364.9 L24.1,349.7 L24.3,348.2 L31.6,336.3 L33.8,339.9 L37.4,343.5 L42.1,345.0 L45.0,345.1 L49.3,342.8 L53.9,341.1 L59.5,340.1 L65.8,340.5 L68.8,341.6 L72.2,345.6 L74.2,350.6 L77.7,354.6 L90.0,361.8 L91.8,363.6 L96.1,370.1 L92.3,382.2 L90.5,382.5 L89.0,385.6 L86.6,385.9 L83.6,385.0 L79.7,387.0 L78.5,390.8 L80.4,390.9 L80.8,393.9 L77.6,400.8 Z">
  <desc xmlns="http://www.highcharts.com/svg/namespace">
    <name>Weert</name>
    <hc-middle-x>0.54</hc-middle-x>
    <hc-middle-y>0.51</hc-middle-y>
    <hc-key>nl-li-gm0988</hc-key>
    <hc-a2>WE</hc-a2>
  </desc>
</path>

<path fill="#CEE3F5" stroke="#6E6E6E" stroke-width="0.4" id="NL.LI.GM1903" d="M131.3,690.9 L128.8,692.1 L125.3,695.7 L121.4,695.8 L118.3,697.6 L115.3,697.7 L108.8,688.4 L105.1,690.6 L102.9,685.8 L101.3,680.5 L96.7,680.5 L92.5,685.7 L88.9,689.0 L86.2,694.2 L85.8,698.2 L82.0,698.1 L77.4,693.3 L75.6,696.7 L73.4,696.2 L71.9,697.9 L69.9,697.6 L68.7,700.0 L63.9,700.0 L61.4,698.8 L61.5,695.2 L65.5,690.7 L67.5,687.1 L68.8,682.5 L68.6,679.9 L64.2,672.9 L64.3,671.0 L67.3,667.0 L66.3,663.8 L71.7,663.8 L71.4,666.1 L75.0,666.8 L74.9,659.5 L78.6,658.6 L79.8,657.0 L86.0,654.4 L87.3,648.5 L86.9,643.5 L84.3,642.8 L84.6,641.7 L90.4,640.2 L91.4,637.8 L91.2,631.0 L93.7,631.3 L97.0,632.8 L99.2,632.0 L101.2,634.6 L106.0,634.2 L110.0,635.1 L110.4,634.0 L112.1,638.3 L119.1,641.3 L119.0,646.0 L123.0,647.4 L125.8,647.0 L125.6,642.9 L128.8,644.7 L132.0,645.5 L135.7,644.1 L138.0,651.1 L135.3,653.2 L134.0,652.6 L131.6,657.1 L130.1,656.9 L127.7,662.2 L124.4,661.5 L119.2,664.1 L120.5,670.2 L123.4,674.0 L126.8,676.5 L126.7,679.9 L128.0,679.9 L130.7,684.6 Z">
  <desc xmlns="http://www.highcharts.com/svg/namespace">
    <name>Eijsden-Margraten</name>
    <hc-middle-x>0.56</hc-middle-x>
    <hc-middle-y>0.41</hc-middle-y>
    <hc-key>nl-li-gm1903</hc-key>
    <hc-a2>EM</hc-a2>
  </desc>
</path>

<path fill="#CEE3F5" stroke="#6E6E6E" stroke-width="0.4" id="NL.LI.GM0907" d="M145.0,24.4 L147.4,24.1 L150.9,22.1 L152.2,26.4 L159.9,25.3 L164.8,25.1 L168.7,25.6 L172.8,28.6 L183.8,33.6 L186.5,36.6 L190.8,39.3 L189.6,41.8 L186.0,42.0 L183.9,43.1 L183.0,45.3 L184.0,50.6 L185.3,52.2 L185.9,56.3 L184.5,58.2 L186.3,61.4 L185.5,66.0 L186.4,67.3 L183.4,71.8 L186.7,76.2 L183.8,78.4 L179.8,77.1 L176.4,81.5 L174.1,82.1 L163.9,90.3 L159.9,86.7 L158.4,83.5 L157.8,78.5 L158.0,70.1 L157.4,65.4 L154.0,53.5 L153.5,47.5 L152.1,45.0 L147.7,42.8 L141.2,41.2 L137.7,41.0 L138.3,38.1 L141.6,33.8 L143.5,29.8 L143.5,25.7 Z">
  <desc xmlns="http://www.highcharts.com/svg/namespace">
    <name>Gennep</name>
    <hc-middle-x>0.59</hc-middle-x>
    <hc-middle-y>0.41</hc-middle-y>
    <hc-key>nl-li-gm0907</hc-key>
    <hc-a2>GE</hc-a2>
  </desc>
</path>
</g>

<text x="350" y="714" text-anchor="middle" font-family="Verdana" font-size="8" stroke-opacity="0.6">Copyright (c) 2014 Highsoft AS, Based on data from Kadaster / Centraal Bureau voor de Statistiek, 2014</text>

</svg>