<?xml version="1.0" encoding="utf-8" standalone="no"?>
<!DOCTYPE svg PUBLIC "-//W3C//DTD SVG 1.1//EN" "http://www.w3.org/Graphics/SVG/1.1/DTD/svg11.dtd">

<svg version="1.1" height="700pt" width="700pt" xmlns="http://www.w3.org/2000/svg" xmlns:xlink="http://www.w3.org/1999/xlink">
<desc>
Map version: 1.1.1
Copyright (c) 2014 Highsoft AS, Based on data from Kadaster / Centraal Bureau voor de Statistiek, 2014
</desc>
<title>Overijssel</title>
<g id="admin2">

<g id="NL.OV">
  <desc xmlns="http://www.highcharts.com/svg/namespace">
    <labelrank>8</labelrank>
    <hasc>NL.OV</hasc>
    <alt-name>NULL</alt-name>
    <woe-id>2346380</woe-id>
    <subregion>NULL</subregion>
    <fips>NL15</fips>
    <postal-code>OV</postal-code>
    <name>Overijssel</name>
    <country>Netherlands</country>
    <type-en>Province</type-en>
    <region>NULL</region>
    <longitude>6.41649</longitude>
    <woe-name>Overijssel</woe-name>
    <latitude>52.4311</latitude>
    <woe-label>Overyssel, NL, Netherlands</woe-label>
    <type>Provincie</type>
    <hc-key>nl-ov</hc-key>
    <hc-a2>OV</hc-a2>
  </desc>
</g>

<g id="NL">
  <desc xmlns="http://www.highcharts.com/svg/namespace">
    <name>Netherlands</name>
    <labelrank>5</labelrank>
    <country-abbrev>Neth.</country-abbrev>
    <subregion>Western Europe</subregion>
    <woe-id>-90</woe-id>
    <region-wb>Europe &amp; Central Asia</region-wb>
    <iso-a3>NLD</iso-a3>
    <iso-a2>NL</iso-a2>
    <region-un>Europe</region-un>
    <continent>Europe</continent>
    <hc-key>nl</hc-key>
    <hc-a2>NE</hc-a2>
  </desc>
</g>

<path fill="#CEE3F5" stroke="#6E6E6E" stroke-width="0.4" id="NL.OV.GM0166" d="M22.7,247.7 L24.9,249.1 L23.2,248.8 L21.8,247.7 Z M22.5,241.9 L22.0,245.7 L20.1,246.3 L21.8,245.1 Z M16.6,240.9 L19.6,244.3 L17.4,242.7 L15.1,239.2 Z M5.9,228.3 L7.9,230.5 L1.8,228.8 L3.8,232.8 L0.0,229.1 L0.9,227.3 Z M13.9,227.3 L12.3,231.6 L9.4,229.2 L9.0,223.9 Z M17.9,217.7 L19.3,221.6 L22.0,222.7 L23.2,227.9 L19.7,226.3 Z M19.0,215.8 L20.0,218.3 L22.2,220.7 L20.4,220.9 Z M14.4,215.5 L15.0,222.4 L17.7,222.5 L19.3,225.6 L13.5,223.6 L9.5,218.7 L10.3,216.1 Z M20.5,215.3 L23.8,215.9 L22.9,216.7 L21.6,217.9 Z M127.4,306.5 L129.7,308.1 L124.8,312.2 L121.1,311.1 L116.9,313.7 L103.8,326.2 L94.1,336.5 L90.5,329.5 L86.2,329.5 L78.7,335.7 L72.2,337.8 L68.1,324.7 L64.3,315.9 L59.5,307.7 L52.4,297.9 L46.9,293.4 L41.1,296.2 L39.6,292.9 L39.7,285.2 L37.2,265.9 L29.1,254.2 L29.4,251.9 L26.6,245.0 L21.3,240.3 L14.2,237.3 L29.3,237.9 L23.9,236.8 L11.3,235.8 L16.0,232.3 L17.3,235.6 L22.9,233.5 L29.4,237.9 L25.6,229.1 L27.5,224.9 L25.7,224.1 L28.3,216.8 L32.2,212.8 L63.2,207.3 L67.0,207.5 L73.3,212.9 L85.3,210.5 L86.3,208.5 L94.0,205.9 L96.1,202.9 L101.7,204.6 L107.8,204.7 L111.3,203.3 L111.4,203.4 L114.1,206.4 L113.0,214.2 L107.2,221.1 L101.9,230.7 L107.6,246.0 L124.3,239.1 L134.4,263.4 L117.9,270.9 L119.7,275.7 L132.2,282.6 L131.6,292.8 L128.0,292.1 L123.8,295.4 L123.4,296.0 L123.1,297.2 L123.0,297.9 L122.9,299.0 L123.0,300.2 L123.0,300.4 L124.0,302.8 L124.6,303.4 Z">
  <desc xmlns="http://www.highcharts.com/svg/namespace">
    <name>Kampen</name>
    <hc-middle-x>0.59</hc-middle-x>
    <hc-middle-y>0.48</hc-middle-y>
    <hc-key>nl-ov-gm0166</hc-key>
    <hc-a2>KA</hc-a2>
  </desc>
</path>

<path fill="#CEE3F5" stroke="#6E6E6E" stroke-width="0.4" id="NL.OV.GM0168" d="M700.0,450.8 L699.4,469.6 L690.4,481.9 L689.8,487.1 L685.5,493.5 L684.9,502.2 L680.1,504.7 L681.5,505.8 L672.8,522.8 L674.3,532.3 L673.5,539.4 L675.4,541.2 L680.7,555.3 L693.3,569.1 L690.7,574.9 L678.2,581.0 L667.1,583.0 L658.6,579.6 L650.6,580.9 L646.0,586.3 L637.8,577.3 L637.4,571.6 L641.3,565.1 L642.2,561.2 L640.5,544.1 L628.3,531.2 L624.4,528.8 L622.7,522.5 L628.6,520.9 L626.3,515.5 L631.2,507.1 L630.3,500.0 L631.4,497.0 L626.4,494.0 L622.7,493.7 L624.8,484.7 L633.7,483.9 L632.4,480.3 L638.4,472.2 L643.2,470.9 L639.4,457.6 L644.4,442.9 L652.1,450.0 L664.3,457.9 L677.6,454.8 Z">
  <desc xmlns="http://www.highcharts.com/svg/namespace">
    <name>Losser</name>
    <hc-middle-x>0.39</hc-middle-x>
    <hc-middle-y>0.47</hc-middle-y>
    <hc-key>nl-ov-gm0168</hc-key>
    <hc-a2>LO</hc-a2>
  </desc>
</path>

<path fill="#CEE3F5" stroke="#6E6E6E" stroke-width="0.4" id="NL.OV.GM0148" d="M283.8,235.3 L293.0,233.8 L294.8,239.8 L310.7,292.8 L313.4,302.3 L308.1,303.0 L304.2,305.6 L296.9,303.4 L296.9,312.1 L302.4,339.9 L300.8,362.3 L320.5,363.5 L316.2,369.4 L318.9,371.1 L321.5,378.1 L323.1,378.9 L320.8,387.5 L320.6,389.3 L307.4,387.6 L307.0,390.4 L300.2,390.8 L296.8,388.5 L295.2,391.4 L292.1,388.0 L284.5,383.2 L277.8,384.4 L277.7,381.0 L272.1,381.2 L271.5,370.7 L265.3,369.5 L265.4,360.9 L251.7,354.9 L242.6,352.3 L230.4,352.7 L224.2,348.8 L215.5,348.7 L210.8,346.5 L205.9,347.5 L202.4,342.8 L207.3,340.3 L217.5,337.7 L219.2,333.5 L223.7,328.8 L223.4,324.7 L218.0,321.4 L215.3,313.0 L209.9,303.0 L215.0,302.9 L221.2,291.7 L219.5,287.8 L232.2,259.8 L229.6,253.0 L228.0,244.1 L259.1,239.0 L259.6,237.5 L268.2,237.8 Z">
  <desc xmlns="http://www.highcharts.com/svg/namespace">
    <name>Dalfsen</name>
    <hc-middle-x>0.49</hc-middle-x>
    <hc-middle-y>0.42</hc-middle-y>
    <hc-key>nl-ov-gm0148</hc-key>
    <hc-a2>DA</hc-a2>
  </desc>
</path>

<path fill="#CEE3F5" stroke="#6E6E6E" stroke-width="0.4" id="NL.OV.GM0160" d="M294.8,239.8 L293.0,233.8 L283.8,235.3 L298.5,181.6 L299.4,180.4 L303.1,184.2 L306.7,184.8 L309.6,189.3 L316.5,192.8 L319.0,196.5 L318.0,198.8 L321.4,202.0 L324.3,209.8 L323.3,213.5 L324.7,219.0 L328.1,220.3 L328.6,223.4 L334.2,219.1 L339.6,220.1 L341.4,216.2 L347.9,217.9 L349.3,214.4 L352.5,213.0 L353.4,209.8 L356.0,210.3 L357.6,219.1 L360.6,221.4 L367.0,222.2 L370.8,221.2 L372.4,214.7 L376.2,213.5 L380.5,219.4 L388.3,219.3 L394.8,221.3 L398.8,224.5 L402.5,224.3 L400.9,195.2 L419.2,180.3 L422.8,178.5 L456.8,172.1 L493.4,191.2 L507.5,196.5 L505.8,201.2 L503.3,202.7 L506.1,204.8 L503.3,215.7 L510.0,216.4 L514.6,222.3 L516.8,227.3 L512.9,242.2 L511.4,250.8 L537.0,274.2 L536.9,275.9 L528.0,277.8 L522.5,275.2 L514.6,273.8 L511.0,284.1 L508.9,286.9 L489.6,281.9 L502.1,311.4 L496.9,342.6 L494.6,342.5 L481.6,334.2 L472.8,340.4 L473.1,345.0 L469.1,348.6 L470.1,353.6 L465.6,355.1 L457.6,352.5 L449.3,359.3 L443.6,347.0 L440.4,346.1 L448.7,335.4 L422.8,316.2 L425.5,311.4 L422.7,309.9 L418.5,316.3 L411.9,310.1 L412.1,303.4 L408.3,301.7 L406.8,295.3 L406.4,285.5 L402.6,272.5 L393.8,258.4 L384.5,264.3 L356.9,263.0 L353.5,261.4 L344.3,261.9 L338.2,242.4 L332.6,242.4 Z">
  <desc xmlns="http://www.highcharts.com/svg/namespace">
    <name>Hardenberg</name>
    <hc-middle-x>0.66</hc-middle-x>
    <hc-middle-y>0.43</hc-middle-y>
    <hc-key>nl-ov-gm0160</hc-key>
    <hc-a2>HA</hc-a2>
  </desc>
</path>

<path fill="#CEE3F5" stroke="#6E6E6E" stroke-width="0.4" id="NL.OV.GM0158" d="M593.9,638.4 L589.5,643.0 L583.9,664.5 L573.9,674.5 L555.7,675.9 L521.2,674.5 L496.7,674.2 L486.6,669.1 L475.5,666.6 L467.2,662.5 L474.2,651.4 L472.7,644.4 L474.6,637.2 L473.1,630.7 L458.8,622.6 L460.2,620.2 L457.8,616.0 L453.3,611.8 L447.8,608.9 L463.9,605.2 L474.5,601.5 L488.5,603.6 L491.9,601.7 L497.0,594.8 L511.4,602.2 L526.7,609.5 L538.2,623.3 L547.5,632.2 L552.4,628.5 L560.0,628.6 L583.0,636.8 Z">
  <desc xmlns="http://www.highcharts.com/svg/namespace">
    <name>Haaksbergen</name>
    <hc-middle-x>0.44</hc-middle-x>
    <hc-middle-y>0.58</hc-middle-y>
    <hc-key>nl-ov-gm0158</hc-key>
    <hc-a2>HA</hc-a2>
  </desc>
</path>

<path fill="#CEE3F5" stroke="#6E6E6E" stroke-width="0.4" id="NL.OV.GM0164" d="M526.7,609.5 L511.4,602.2 L497.0,594.8 L491.6,585.2 L497.4,577.1 L500.6,563.7 L502.6,566.4 L502.2,556.9 L504.9,553.3 L519.6,554.6 L520.7,554.1 L518.9,540.8 L518.5,531.5 L516.0,526.2 L522.5,522.8 L527.4,521.8 L529.8,518.5 L534.3,517.8 L539.8,511.9 L543.9,511.5 L541.5,507.3 L548.9,504.3 L549.5,499.8 L561.1,504.5 L562.4,506.7 L558.6,511.6 L559.3,513.8 L565.1,518.0 L573.5,520.7 L576.6,526.5 L573.7,532.1 L569.7,534.0 L564.8,536.4 L571.1,542.8 L569.2,547.7 L570.3,554.2 L561.7,559.0 L557.3,563.1 L553.7,575.7 L532.2,567.0 L527.0,571.6 L528.9,577.2 L521.4,585.6 L523.2,592.3 L526.8,598.6 Z">
  <desc xmlns="http://www.highcharts.com/svg/namespace">
    <name>Hengelo</name>
    <hc-middle-x>0.65</hc-middle-x>
    <hc-middle-y>0.38</hc-middle-y>
    <hc-key>nl-ov-gm0164</hc-key>
    <hc-a2>HE</hc-a2>
  </desc>
</path>

<path fill="#CEE3F5" stroke="#6E6E6E" stroke-width="0.4" id="NL.OV.GM1896" d="M163.5,270.6 L157.3,266.9 L154.7,265.3 L151.2,257.0 L134.4,263.4 L124.3,239.1 L107.6,246.0 L101.9,230.7 L107.2,221.1 L113.0,214.2 L114.1,206.4 L111.3,203.3 L113.1,203.1 L125.1,193.0 L129.8,194.6 L131.2,189.3 L131.3,189.2 L140.6,182.4 L149.7,182.2 L152.9,180.2 L155.0,178.8 L166.8,171.3 L167.0,171.1 L173.5,170.2 L174.8,173.6 L176.4,171.6 L177.8,170.4 L178.0,170.3 L178.7,169.7 L179.0,169.5 L179.2,169.5 L185.8,167.7 L185.8,167.7 L186.0,170.2 L177.0,177.1 L176.5,178.8 L176.5,179.1 L176.9,180.5 L177.0,180.9 L176.9,184.1 L176.8,184.9 L176.7,185.1 L175.9,186.4 L175.8,187.5 L175.1,191.9 L172.2,196.2 L172.6,205.3 L175.6,207.5 L175.6,207.5 L175.7,207.5 L176.1,208.7 L176.3,209.1 L176.6,209.8 L176.6,210.4 L176.9,215.2 L175.1,217.0 L176.3,222.2 L174.5,223.4 L175.4,224.2 L178.1,226.9 L181.1,229.1 L183.7,231.5 L186.3,235.7 L189.1,246.0 L198.0,243.5 L199.6,244.1 L199.7,244.1 L202.1,245.1 L204.0,251.8 L204.7,253.5 L206.8,258.4 L206.9,258.5 L208.0,261.1 L207.0,261.6 L201.8,265.6 L193.1,272.4 L186.5,268.0 L182.3,267.3 L181.0,267.1 L176.8,263.7 L176.6,263.6 L176.5,263.5 L176.9,259.0 L176.9,257.9 L173.2,257.8 L169.9,265.4 L165.0,271.5 Z M130.9,189.3 L129.6,187.7 L128.9,187.6 L129.6,187.4 L129.7,187.4 Z">
  <desc xmlns="http://www.highcharts.com/svg/namespace">
    <name>Zwartewaterland</name>
    <hc-middle-x>0.53</hc-middle-x>
    <hc-middle-y>0.62</hc-middle-y>
    <hc-key>nl-ov-gm1896</hc-key>
    <hc-a2>ZW</hc-a2>
  </desc>
</path>

<path fill="#CEE3F5" stroke="#6E6E6E" stroke-width="0.4" id="NL.OV.GM0193" d="M165.0,271.5 L167.3,268.0 L170.1,264.6 L170.2,264.6 L170.7,262.2 L173.2,257.8 L176.8,257.9 L176.9,257.9 L176.8,258.7 L176.9,259.0 L177.0,260.7 L176.5,263.5 L176.6,263.5 L176.6,263.6 L176.6,263.7 L176.8,263.7 L178.0,263.9 L178.8,264.1 L179.2,264.3 L179.8,265.6 L181.0,267.1 L182.0,267.2 L182.3,267.3 L184.7,268.3 L186.5,268.0 L188.5,269.4 L193.1,272.4 L201.2,266.0 L201.8,265.6 L208.0,261.1 L206.9,258.7 L206.9,258.5 L206.9,258.5 L206.8,258.4 L205.4,255.1 L204.7,253.5 L204.2,252.4 L204.0,251.8 L203.8,249.7 L203.5,247.2 L203.4,246.9 L202.1,245.1 L201.1,245.1 L199.7,244.1 L199.7,244.1 L199.6,244.1 L198.1,244.0 L198.0,243.5 L198.1,242.7 L215.7,241.0 L224.2,244.7 L228.0,244.1 L229.6,253.0 L232.2,259.8 L219.5,287.8 L221.2,291.7 L215.0,302.9 L209.9,303.0 L215.3,313.0 L218.0,321.4 L223.4,324.7 L223.7,328.8 L219.2,333.5 L217.5,337.7 L207.3,340.3 L202.4,342.8 L192.1,348.5 L196.4,354.5 L197.5,361.7 L193.2,369.4 L186.6,371.8 L178.2,370.8 L172.1,372.1 L168.1,366.3 L169.3,359.9 L168.7,348.7 L167.0,344.3 L160.5,337.9 L153.3,334.4 L149.9,330.9 L144.9,318.8 L138.3,312.7 L129.7,308.1 L127.4,306.5 L124.9,304.1 L124.6,303.4 L123.0,300.4 L123.0,297.9 L123.0,297.6 L123.1,297.2 L123.8,295.4 L124.0,294.8 L125.3,293.2 L128.0,292.1 L128.7,293.0 L129.6,292.9 L131.6,292.8 L132.2,282.6 L126.4,278.9 L126.3,278.9 L119.7,275.7 L117.9,270.9 L126.0,266.9 L134.3,263.5 L134.4,263.4 L134.4,263.4 L151.2,257.0 L154.7,265.3 L156.6,264.5 L156.8,264.7 L158.0,266.6 L157.3,266.9 L156.9,267.1 L160.6,269.5 L163.5,270.6 L163.7,270.7 Z">
  <desc xmlns="http://www.highcharts.com/svg/namespace">
    <name>Zwolle</name>
    <hc-middle-x>0.49</hc-middle-x>
    <hc-middle-y>0.41</hc-middle-y>
    <hc-key>nl-ov-gm0193</hc-key>
    <hc-a2>ZW</hc-a2>
  </desc>
</path>

<path fill="#CEE3F5" stroke="#6E6E6E" stroke-width="0.4" id="NL.OV.GM0153" d="M624.4,528.8 L628.3,531.2 L640.5,544.1 L642.2,561.2 L641.3,565.1 L637.4,571.6 L637.8,577.3 L646.0,586.3 L645.1,591.7 L641.7,600.0 L635.0,609.8 L634.9,612.4 L628.5,621.5 L618.7,623.6 L610.4,623.9 L604.4,625.4 L603.1,630.7 L593.9,638.4 L583.0,636.8 L560.0,628.6 L552.4,628.5 L547.5,632.2 L538.2,623.3 L526.7,609.5 L526.8,598.6 L523.2,592.3 L521.4,585.6 L528.9,577.2 L527.0,571.6 L532.2,567.0 L553.7,575.7 L557.3,563.1 L561.7,559.0 L570.3,554.2 L569.2,547.7 L571.1,542.8 L564.8,536.4 L569.7,534.0 L585.0,537.5 L589.6,536.0 L593.5,528.5 L597.4,529.5 L609.5,526.9 L610.3,529.9 L613.3,528.7 Z">
  <desc xmlns="http://www.highcharts.com/svg/namespace">
    <name>Enschede</name>
    <hc-middle-x>0.56</hc-middle-x>
    <hc-middle-y>0.52</hc-middle-y>
    <hc-key>nl-ov-gm0153</hc-key>
    <hc-a2>EN</hc-a2>
  </desc>
</path>

<path fill="#CEE3F5" stroke="#6E6E6E" stroke-width="0.4" id="NL.OV.GM0173" d="M624.4,528.8 L613.3,528.7 L610.3,529.9 L609.5,526.9 L600.0,519.4 L597.2,520.3 L587.8,515.5 L581.0,514.2 L582.1,507.3 L584.1,507.0 L588.0,501.8 L591.0,502.3 L592.6,496.2 L595.0,496.8 L596.2,493.3 L600.8,490.9 L604.4,483.5 L611.6,486.4 L621.2,487.5 L621.7,484.7 L624.8,484.7 L622.7,493.7 L626.4,494.0 L631.4,497.0 L630.3,500.0 L631.2,507.1 L626.3,515.5 L628.6,520.9 L622.7,522.5 Z">
  <desc xmlns="http://www.highcharts.com/svg/namespace">
    <name>Oldenzaal</name>
    <hc-middle-x>0.59</hc-middle-x>
    <hc-middle-y>0.44</hc-middle-y>
    <hc-key>nl-ov-gm0173</hc-key>
    <hc-a2>OL</hc-a2>
  </desc>
</path>

<path fill="#CEE3F5" stroke="#6E6E6E" stroke-width="0.4" id="NL.OV.GM1774" d="M569.7,534.0 L573.7,532.1 L576.6,526.5 L573.5,520.7 L565.1,518.0 L559.3,513.8 L558.6,511.6 L562.4,506.7 L561.1,504.5 L549.5,499.8 L549.6,499.0 L534.1,494.5 L526.3,482.5 L526.8,476.2 L528.6,472.3 L535.0,469.7 L537.5,466.4 L540.5,457.6 L553.5,456.1 L559.6,453.7 L569.4,456.2 L578.3,456.9 L580.4,458.7 L584.8,455.7 L585.5,433.8 L585.3,416.0 L579.5,409.7 L580.9,398.5 L605.1,394.0 L622.4,393.3 L633.8,394.8 L632.8,391.4 L640.6,385.0 L648.3,371.1 L650.2,365.7 L655.8,362.2 L659.2,366.2 L664.8,384.6 L667.5,399.1 L673.6,404.8 L680.1,422.2 L689.3,426.0 L693.2,426.6 L695.9,434.8 L700.0,450.8 L677.6,454.8 L664.3,457.9 L652.1,450.0 L644.4,442.9 L639.4,457.6 L643.2,470.9 L638.4,472.2 L632.4,480.3 L633.7,483.9 L624.8,484.7 L621.7,484.7 L621.2,487.5 L611.6,486.4 L604.4,483.5 L600.8,490.9 L596.2,493.3 L595.0,496.8 L592.6,496.2 L591.0,502.3 L588.0,501.8 L584.1,507.0 L582.1,507.3 L581.0,514.2 L587.8,515.5 L597.2,520.3 L600.0,519.4 L609.5,526.9 L597.4,529.5 L593.5,528.5 L589.6,536.0 L585.0,537.5 Z">
  <desc xmlns="http://www.highcharts.com/svg/namespace">
    <name>Dinkelland</name>
    <hc-middle-x>0.52</hc-middle-x>
    <hc-middle-y>0.45</hc-middle-y>
    <hc-key>nl-ov-gm1774</hc-key>
    <hc-a2>DI</hc-a2>
  </desc>
</path>

<path fill="#CEE3F5" stroke="#6E6E6E" stroke-width="0.4" id="NL.OV.GM0163" d="M326.1,389.2 L347.6,380.4 L352.4,376.1 L353.1,372.1 L355.5,370.4 L355.4,365.9 L357.8,360.5 L360.1,360.5 L369.1,375.0 L373.4,379.4 L392.7,383.4 L396.5,382.9 L398.3,380.5 L402.5,380.6 L404.1,375.6 L410.9,371.3 L419.2,373.6 L421.6,376.6 L426.4,376.1 L440.3,369.1 L440.8,383.3 L435.0,387.7 L427.0,397.0 L427.9,402.3 L394.6,411.4 L390.0,423.9 L392.8,433.4 L382.4,438.0 L382.4,445.4 L383.9,449.4 L395.8,451.8 L394.6,457.3 L387.9,457.0 L379.0,462.0 L376.5,467.8 L365.8,482.2 L361.5,487.8 L344.5,482.7 L340.2,482.0 L329.2,483.9 L303.6,487.4 L296.6,473.7 L292.3,457.1 L298.2,440.5 L306.1,434.5 L320.2,431.8 L323.5,432.7 L331.5,409.1 L333.9,400.8 Z">
  <desc xmlns="http://www.highcharts.com/svg/namespace">
    <name>Hellendoorn</name>
    <hc-middle-x>0.45</hc-middle-x>
    <hc-middle-y>0.55</hc-middle-y>
    <hc-key>nl-ov-gm0163</hc-key>
    <hc-a2>HE</hc-a2>
  </desc>
</path>

<path fill="#CEE3F5" stroke="#6E6E6E" stroke-width="0.4" id="NL.OV.GM0175" d="M360.1,360.5 L357.8,360.5 L355.4,365.9 L355.5,370.4 L353.1,372.1 L352.4,376.1 L347.6,380.4 L326.1,389.2 L323.7,388.4 L320.8,387.5 L323.1,378.9 L321.5,378.1 L318.9,371.1 L316.2,369.4 L320.5,363.5 L300.8,362.3 L302.4,339.9 L296.9,312.1 L296.9,303.4 L304.2,305.6 L308.1,303.0 L313.4,302.3 L310.7,292.8 L294.8,239.8 L332.6,242.4 L338.2,242.4 L344.3,261.9 L353.5,261.4 L356.9,263.0 L384.5,264.3 L393.8,258.4 L402.6,272.5 L406.4,285.5 L406.8,295.3 L408.3,301.7 L412.1,303.4 L411.9,310.1 L418.5,316.3 L422.7,309.9 L425.5,311.4 L422.8,316.2 L448.7,335.4 L440.4,346.1 L418.2,338.8 L391.4,334.9 L390.2,343.1 L385.3,343.6 L382.1,347.0 L376.1,346.4 L369.8,348.0 L364.9,352.9 L361.7,353.1 L358.7,356.6 Z">
  <desc xmlns="http://www.highcharts.com/svg/namespace">
    <name>Ommen</name>
    <hc-middle-x>0.37</hc-middle-x>
    <hc-middle-y>0.50</hc-middle-y>
    <hc-key>nl-ov-gm0175</hc-key>
    <hc-a2>OM</hc-a2>
  </desc>
</path>

<path fill="#CEE3F5" stroke="#6E6E6E" stroke-width="0.4" id="NL.OV.GM0177" d="M320.8,387.5 L323.7,388.4 L326.1,389.2 L333.9,400.8 L331.5,409.1 L323.5,432.7 L320.2,431.8 L306.1,434.5 L298.2,440.5 L292.3,457.1 L296.6,473.7 L303.6,487.4 L295.1,495.3 L286.8,501.7 L274.9,502.3 L254.1,501.3 L236.8,488.3 L237.1,483.5 L237.7,475.8 L235.9,474.6 L235.7,469.2 L238.0,465.4 L231.2,458.5 L217.1,453.6 L216.0,447.7 L213.1,442.5 L213.8,432.2 L220.2,436.3 L219.5,433.2 L221.7,430.2 L220.7,425.4 L223.8,426.3 L222.2,422.4 L229.0,423.2 L236.5,420.4 L237.5,413.1 L232.9,403.1 L238.3,390.1 L225.5,387.7 L226.0,385.7 L219.5,386.1 L216.6,381.0 L209.1,382.0 L199.0,361.5 L197.5,361.7 L196.4,354.5 L192.1,348.5 L202.4,342.8 L205.9,347.5 L210.8,346.5 L215.5,348.7 L224.2,348.8 L230.4,352.7 L242.6,352.3 L251.7,354.9 L265.4,360.9 L265.3,369.5 L271.5,370.7 L272.1,381.2 L277.7,381.0 L277.8,384.4 L284.5,383.2 L292.1,388.0 L295.2,391.4 L296.8,388.5 L300.2,390.8 L307.0,390.4 L307.4,387.6 L320.6,389.3 Z">
  <desc xmlns="http://www.highcharts.com/svg/namespace">
    <name>Raalte</name>
    <hc-middle-x>0.51</hc-middle-x>
    <hc-middle-y>0.54</hc-middle-y>
    <hc-key>nl-ov-gm0177</hc-key>
    <hc-a2>RA</hc-a2>
  </desc>
</path>

<path fill="#CEE3F5" stroke="#6E6E6E" stroke-width="0.4" id="NL.OV.GM1708" d="M177.8,170.4 L176.2,171.3 L174.8,173.6 L173.5,170.2 L166.8,171.3 L166.8,171.3 L160.1,175.3 L158.9,176.1 L158.1,176.6 L157.5,177.0 L156.0,178.1 L155.3,178.6 L155.1,178.7 L155.0,178.8 L155.0,178.8 L154.9,178.9 L153.4,179.9 L152.9,180.2 L152.6,180.3 L151.6,180.4 L149.7,182.2 L143.0,182.4 L140.6,182.4 L136.8,185.6 L136.1,186.1 L135.1,187.0 L132.9,188.8 L132.3,189.0 L131.2,189.3 L132.3,188.9 L131.3,189.2 L130.9,189.4 L130.9,189.4 L130.9,189.3 L130.7,189.0 L130.7,189.0 L130.7,189.0 L130.7,189.0 L130.6,188.9 L129.7,187.4 L129.6,187.4 L129.3,187.1 L128.9,187.6 L122.0,178.5 L111.2,174.3 L104.3,166.8 L88.5,161.3 L84.9,162.3 L84.4,156.7 L93.4,147.8 L95.1,148.3 L102.2,141.1 L102.2,137.0 L95.3,124.3 L90.7,121.3 L87.5,107.4 L81.2,88.7 L72.5,78.8 L69.3,78.7 L58.6,67.4 L48.3,59.2 L42.7,56.4 L35.4,55.2 L25.8,55.6 L25.9,53.0 L19.2,46.2 L13.8,35.4 L22.1,29.2 L27.7,26.3 L30.3,30.2 L35.0,31.7 L40.5,37.6 L51.9,38.7 L59.2,42.5 L61.7,39.7 L69.9,36.7 L71.1,33.8 L76.1,31.6 L79.4,26.9 L84.9,22.8 L86.2,18.8 L84.7,16.3 L86.9,14.0 L97.1,11.2 L102.7,15.1 L104.3,9.3 L111.9,7.8 L114.1,15.4 L118.7,26.3 L125.1,31.0 L130.1,28.3 L139.5,26.4 L142.9,33.3 L159.0,24.0 L155.4,13.7 L160.3,12.1 L170.9,13.1 L177.3,8.3 L192.6,0.0 L197.2,6.0 L198.0,9.5 L219.5,36.4 L222.5,37.6 L235.1,56.2 L230.5,62.6 L218.7,74.2 L216.1,79.5 L209.6,83.1 L196.1,86.3 L190.1,89.9 L189.1,93.7 L193.4,104.9 L204.4,136.9 L206.9,146.8 L208.2,146.7 L205.9,148.0 L204.4,153.3 L200.5,157.0 L194.7,160.2 L194.9,162.1 L187.3,167.3 L186.1,167.5 L185.8,167.5 L185.8,167.7 L184.3,167.9 L179.2,169.5 L179.0,169.5 L178.7,169.7 L178.5,169.8 L178.0,170.3 L177.9,170.4 Z">
  <desc xmlns="http://www.highcharts.com/svg/namespace">
    <name>Steenwijkerland</name>
    <hc-middle-x>0.57</hc-middle-x>
    <hc-middle-y>0.57</hc-middle-y>
    <hc-key>nl-ov-gm1708</hc-key>
    <hc-a2>ST</hc-a2>
  </desc>
</path>

<path fill="#CEE3F5" stroke="#6E6E6E" stroke-width="0.4" id="NL.OV.GM0180" d="M186.3,235.7 L183.7,231.5 L175.1,224.8 L175.4,224.2 L176.3,222.2 L175.1,217.0 L176.9,215.2 L176.6,210.4 L177.0,209.2 L176.3,209.1 L176.2,209.1 L176.1,208.7 L176.1,208.0 L175.7,207.5 L172.6,205.3 L172.2,196.2 L175.1,191.9 L175.8,187.5 L176.5,186.3 L176.7,185.1 L176.9,180.5 L177.0,177.1 L186.0,170.2 L185.8,167.7 L185.8,167.7 L186.1,167.5 L194.9,162.1 L194.7,160.2 L200.5,157.0 L204.4,153.3 L205.9,148.0 L208.2,146.7 L213.8,152.4 L210.0,157.7 L220.8,162.6 L219.6,156.7 L222.6,156.0 L225.7,161.6 L231.3,154.4 L241.2,153.8 L240.6,155.0 L248.1,157.9 L250.9,161.7 L254.0,160.6 L258.3,168.7 L265.6,169.7 L269.8,173.6 L273.1,170.1 L278.3,175.5 L281.8,176.5 L283.2,172.8 L287.6,173.1 L297.0,169.7 L300.4,174.3 L298.5,176.6 L299.4,180.4 L298.5,181.6 L283.8,235.3 L268.2,237.8 L259.6,237.5 L259.1,239.0 L228.0,244.1 L224.2,244.7 L215.7,241.0 L198.1,242.7 L198.0,243.5 L189.1,246.0 L185.5,236.8 L186.1,236.3 Z">
  <desc xmlns="http://www.highcharts.com/svg/namespace">
    <name>Staphorst</name>
    <hc-middle-x>0.48</hc-middle-x>
    <hc-middle-y>0.51</hc-middle-y>
    <hc-key>nl-ov-gm0180</hc-key>
    <hc-a2>ST</hc-a2>
  </desc>
</path>

<path fill="#CEE3F5" stroke="#6E6E6E" stroke-width="0.4" id="NL.OV.GM1742" d="M334.5,557.1 L324.9,555.8 L320.4,556.3 L315.5,552.8 L312.7,547.3 L313.1,541.4 L309.9,540.1 L301.4,531.5 L287.4,520.3 L286.8,501.7 L295.1,495.3 L303.6,487.4 L329.2,483.9 L340.2,482.0 L344.5,482.7 L361.5,487.8 L365.8,482.2 L382.8,485.5 L397.0,484.0 L401.1,492.1 L404.8,493.2 L407.9,490.9 L410.9,499.9 L411.8,507.9 L409.7,518.6 L411.8,522.7 L404.9,523.4 L396.2,522.0 L391.5,522.2 L373.5,529.2 L365.6,533.7 L365.5,535.2 L352.3,543.6 L342.1,548.8 Z">
  <desc xmlns="http://www.highcharts.com/svg/namespace">
    <name>Rijssen-Holten</name>
    <hc-middle-x>0.43</hc-middle-x>
    <hc-middle-y>0.44</hc-middle-y>
    <hc-key>nl-ov-gm1742</hc-key>
    <hc-a2>RH</hc-a2>
  </desc>
</path>

<path fill="#CEE3F5" stroke="#6E6E6E" stroke-width="0.4" id="NL.OV.GM0147" d="M526.3,482.5 L534.1,494.5 L549.6,499.0 L549.5,499.8 L548.9,504.3 L541.5,507.3 L543.9,511.5 L539.8,511.9 L534.3,517.8 L529.8,518.5 L527.4,521.8 L522.5,522.8 L516.0,526.2 L508.0,517.9 L502.6,510.4 L495.5,504.0 L488.1,502.6 L487.8,496.9 L496.6,494.2 L497.3,491.5 L490.8,486.1 L492.0,483.4 L497.5,481.4 L498.9,482.9 L505.5,473.6 L513.0,475.5 L518.0,478.6 L521.6,484.5 Z">
  <desc xmlns="http://www.highcharts.com/svg/namespace">
    <name>Borne</name>
    <hc-middle-x>0.45</hc-middle-x>
    <hc-middle-y>0.51</hc-middle-y>
    <hc-key>nl-ov-gm0147</hc-key>
    <hc-a2>BO</hc-a2>
  </desc>
</path>

<path fill="#CEE3F5" stroke="#6E6E6E" stroke-width="0.4" id="NL.OV.GM0141" d="M505.5,473.6 L498.9,482.9 L497.5,481.4 L492.0,483.4 L490.8,486.1 L497.3,491.5 L496.6,494.2 L487.8,496.9 L488.1,502.6 L484.6,504.1 L469.3,514.2 L451.7,518.0 L455.3,507.5 L444.0,501.9 L445.7,497.9 L440.7,497.6 L448.9,485.3 L438.6,473.1 L437.7,469.8 L441.6,468.2 L448.0,453.6 L444.3,447.9 L439.5,433.2 L445.5,428.1 L447.9,431.2 L460.8,422.9 L462.8,420.0 L466.7,423.4 L469.1,420.6 L475.7,429.1 L479.9,429.8 L482.4,423.3 L486.9,428.2 L487.3,426.2 L494.8,425.9 L494.3,428.1 L498.0,440.1 L502.5,441.7 L501.9,443.9 L504.6,454.7 L505.7,463.6 L499.5,471.4 Z">
  <desc xmlns="http://www.highcharts.com/svg/namespace">
    <name>Almelo</name>
    <hc-middle-x>0.50</hc-middle-x>
    <hc-middle-y>0.48</hc-middle-y>
    <hc-key>nl-ov-gm0141</hc-key>
    <hc-a2>AL</hc-a2>
  </desc>
</path>

<path fill="#CEE3F5" stroke="#6E6E6E" stroke-width="0.4" id="NL.OV.GM1773" d="M162.5,497.3 L156.7,498.2 L153.0,496.6 L153.8,487.5 L151.7,487.3 L151.2,482.1 L143.9,481.6 L146.3,478.1 L149.4,467.6 L150.4,452.4 L161.0,447.0 L158.6,443.6 L151.9,440.0 L152.4,435.4 L155.6,432.8 L174.0,428.5 L179.0,423.3 L178.9,415.8 L182.2,409.1 L176.0,406.4 L171.6,401.7 L174.0,395.8 L173.5,391.8 L175.8,386.8 L175.5,381.6 L177.3,379.2 L172.1,372.1 L178.2,370.8 L186.6,371.8 L193.2,369.4 L197.5,361.7 L199.0,361.5 L209.1,382.0 L216.6,381.0 L219.5,386.1 L226.0,385.7 L225.5,387.7 L238.3,390.1 L232.9,403.1 L237.5,413.1 L236.5,420.4 L229.0,423.2 L222.2,422.4 L223.8,426.3 L220.7,425.4 L221.7,430.2 L219.5,433.2 L220.2,436.3 L213.8,432.2 L213.1,442.5 L216.0,447.7 L217.1,453.6 L231.2,458.5 L238.0,465.4 L235.7,469.2 L235.9,474.6 L237.7,475.8 L237.1,483.5 L221.2,481.7 L217.2,486.3 L207.3,486.8 L207.4,492.2 L200.0,492.4 L184.7,495.7 L172.0,499.8 L166.4,500.7 Z">
  <desc xmlns="http://www.highcharts.com/svg/namespace">
    <name>Olst-Wijhe</name>
    <hc-middle-x>0.54</hc-middle-x>
    <hc-middle-y>0.50</hc-middle-y>
    <hc-key>nl-ov-gm1773</hc-key>
    <hc-a2>OW</hc-a2>
  </desc>
</path>

<path fill="#CEE3F5" stroke="#6E6E6E" stroke-width="0.4" id="NL.OV.GM0189" d="M439.5,433.2 L444.3,447.9 L448.0,453.6 L441.6,468.2 L437.7,469.8 L438.6,473.1 L448.9,485.3 L440.7,497.6 L445.7,497.9 L444.0,501.9 L455.3,507.5 L451.7,518.0 L439.7,535.0 L434.1,534.3 L423.1,535.9 L417.2,532.7 L411.8,522.7 L409.7,518.6 L411.8,507.9 L410.9,499.9 L407.9,490.9 L404.8,493.2 L401.1,492.1 L397.0,484.0 L382.8,485.5 L365.8,482.2 L376.5,467.8 L379.0,462.0 L387.9,457.0 L394.6,457.3 L395.8,451.8 L383.9,449.4 L382.4,445.4 L382.4,438.0 L392.8,433.4 L390.0,423.9 L394.6,411.4 L427.9,402.3 L435.5,422.2 Z">
  <desc xmlns="http://www.highcharts.com/svg/namespace">
    <name>Wierden</name>
    <hc-middle-x>0.53</hc-middle-x>
    <hc-middle-y>0.46</hc-middle-y>
    <hc-key>nl-ov-gm0189</hc-key>
    <hc-a2>WI</hc-a2>
  </desc>
</path>

<path fill="#CEE3F5" stroke="#6E6E6E" stroke-width="0.4" id="NL.OV.GM0183" d="M507.7,350.3 L511.0,351.4 L526.5,363.5 L538.4,367.9 L569.9,368.5 L582.3,369.1 L581.0,377.9 L586.2,376.8 L601.0,381.6 L610.3,385.7 L629.7,392.4 L632.8,391.4 L633.8,394.8 L622.4,393.3 L605.1,394.0 L580.9,398.5 L579.5,409.7 L585.3,416.0 L585.5,433.8 L584.8,455.7 L580.4,458.7 L578.3,456.9 L569.4,456.2 L559.6,453.7 L553.5,456.1 L540.5,457.6 L537.5,466.4 L535.0,469.7 L528.6,472.3 L526.8,476.2 L526.3,482.5 L521.6,484.5 L518.0,478.6 L513.0,475.5 L505.5,473.6 L499.5,471.4 L505.7,463.6 L504.6,454.7 L501.9,443.9 L502.5,441.7 L498.0,440.1 L494.3,428.1 L494.8,425.9 L479.5,404.1 L483.5,398.6 L484.3,394.8 L482.1,388.8 L482.3,382.5 L487.6,378.3 L492.7,377.5 L497.0,371.6 L496.7,369.1 L503.3,356.9 Z">
  <desc xmlns="http://www.highcharts.com/svg/namespace">
    <name>Tubbergen</name>
    <hc-middle-x>0.39</hc-middle-x>
    <hc-middle-y>0.46</hc-middle-y>
    <hc-key>nl-ov-gm0183</hc-key>
    <hc-a2>TU</hc-a2>
  </desc>
</path>

<path fill="#CEE3F5" stroke="#6E6E6E" stroke-width="0.4" id="NL.OV.GM1735" d="M458.8,622.6 L456.0,628.6 L453.1,624.2 L448.2,623.7 L448.1,626.4 L440.3,631.9 L435.3,626.4 L437.4,622.9 L431.9,616.6 L428.3,614.3 L409.3,618.2 L386.6,613.7 L376.5,617.1 L372.4,613.9 L367.3,612.2 L362.2,601.1 L362.9,596.6 L355.8,595.0 L350.1,584.1 L342.4,576.5 L337.9,566.3 L334.5,561.6 L334.5,557.1 L342.1,548.8 L352.3,543.6 L365.5,535.2 L365.6,533.7 L373.5,529.2 L391.5,522.2 L396.2,522.0 L404.9,523.4 L411.8,522.7 L417.2,532.7 L423.1,535.9 L434.1,534.3 L439.7,535.0 L451.7,518.0 L469.3,514.2 L484.6,504.1 L488.1,502.6 L495.5,504.0 L502.6,510.4 L508.0,517.9 L516.0,526.2 L518.5,531.5 L518.9,540.8 L520.7,554.1 L519.6,554.6 L504.9,553.3 L502.2,556.9 L502.6,566.4 L500.6,563.7 L497.4,577.1 L491.6,585.2 L497.0,594.8 L491.9,601.7 L488.5,603.6 L474.5,601.5 L463.9,605.2 L447.8,608.9 L453.3,611.8 L457.8,616.0 L460.2,620.2 Z">
  <desc xmlns="http://www.highcharts.com/svg/namespace">
    <name>Hof van Twente</name>
    <hc-middle-x>0.41</hc-middle-x>
    <hc-middle-y>0.52</hc-middle-y>
    <hc-key>nl-ov-gm1735</hc-key>
    <hc-a2>HV</hc-a2>
  </desc>
</path>

<path fill="#CEE3F5" stroke="#6E6E6E" stroke-width="0.4" id="NL.OV.GM0150" d="M237.1,483.5 L236.8,488.3 L254.1,501.3 L274.9,502.3 L286.8,501.7 L287.4,520.3 L301.4,531.5 L309.9,540.1 L313.1,541.4 L312.7,547.3 L315.5,552.8 L307.1,556.7 L298.3,556.2 L291.0,560.9 L291.1,569.0 L280.9,570.0 L268.5,569.7 L268.0,566.5 L262.2,565.1 L253.8,568.3 L248.1,565.7 L246.1,567.2 L235.6,566.6 L229.5,564.4 L226.9,565.1 L222.6,562.7 L223.9,567.2 L215.5,564.1 L208.5,564.1 L205.0,559.8 L195.9,561.9 L193.8,564.5 L196.2,572.9 L193.4,573.3 L192.8,567.3 L185.4,564.4 L182.4,558.6 L182.9,554.7 L189.3,550.0 L187.5,546.0 L183.8,547.4 L179.6,544.6 L173.2,542.6 L174.4,537.2 L176.9,534.4 L173.5,530.4 L172.4,524.0 L168.2,519.1 L167.7,509.8 L164.7,505.4 L162.5,497.3 L166.4,500.7 L172.0,499.8 L184.7,495.7 L200.0,492.4 L207.4,492.2 L207.3,486.8 L217.2,486.3 L221.2,481.7 Z">
  <desc xmlns="http://www.highcharts.com/svg/namespace">
    <name>Deventer</name>
    <hc-middle-x>0.50</hc-middle-x>
    <hc-middle-y>0.55</hc-middle-y>
    <hc-key>nl-ov-gm0150</hc-key>
    <hc-a2>DE</hc-a2>
  </desc>
</path>

<path fill="#CEE3F5" stroke="#6E6E6E" stroke-width="0.4" id="NL.OV.GM1700" d="M496.9,342.6 L503.0,346.9 L507.7,350.3 L503.3,356.9 L496.7,369.1 L497.0,371.6 L492.7,377.5 L487.6,378.3 L482.3,382.5 L482.1,388.8 L484.3,394.8 L483.5,398.6 L479.5,404.1 L494.8,425.9 L487.3,426.2 L486.9,428.2 L482.4,423.3 L479.9,429.8 L475.7,429.1 L469.1,420.6 L466.7,423.4 L462.8,420.0 L460.8,422.9 L447.9,431.2 L445.5,428.1 L439.5,433.2 L435.5,422.2 L427.9,402.3 L427.0,397.0 L435.0,387.7 L440.8,383.3 L440.3,369.1 L426.4,376.1 L421.6,376.6 L419.2,373.6 L410.9,371.3 L404.1,375.6 L402.5,380.6 L398.3,380.5 L396.5,382.9 L392.7,383.4 L373.4,379.4 L369.1,375.0 L360.1,360.5 L358.7,356.6 L361.7,353.1 L364.9,352.9 L369.8,348.0 L376.1,346.4 L382.1,347.0 L385.3,343.6 L390.2,343.1 L391.4,334.9 L418.2,338.8 L440.4,346.1 L443.6,347.0 L449.3,359.3 L457.6,352.5 L465.6,355.1 L470.1,353.6 L469.1,348.6 L473.1,345.0 L472.8,340.4 L481.6,334.2 L494.6,342.5 Z">
  <desc xmlns="http://www.highcharts.com/svg/namespace">
    <name>Twenterand</name>
    <hc-middle-x>0.68</hc-middle-x>
    <hc-middle-y>0.53</hc-middle-y>
    <hc-key>nl-ov-gm1700</hc-key>
    <hc-a2>TW</hc-a2>
  </desc>
</path>
</g>

<text x="350" y="714" text-anchor="middle" font-family="Verdana" font-size="8" stroke-opacity="0.6">Copyright (c) 2014 Highsoft AS, Based on data from Kadaster / Centraal Bureau voor de Statistiek, 2014</text>

</svg>