<?xml version="1.0" encoding="utf-8" standalone="no"?>
<!DOCTYPE svg PUBLIC "-//W3C//DTD SVG 1.1//EN" "http://www.w3.org/Graphics/SVG/1.1/DTD/svg11.dtd">

<svg version="1.1" height="700pt" width="700pt" xmlns="http://www.w3.org/2000/svg" xmlns:xlink="http://www.w3.org/1999/xlink">
<desc>
Map version: 1.1.1
Copyright (c) 2014 Highsoft AS, Based on data from Natural Earth
</desc>
<title>France, mainland</title>
<g id="admin1">

<g id="FR">
  <desc xmlns="http://www.highcharts.com/svg/namespace">
    <name>France</name>
    <labelrank>2</labelrank>
    <country-abbrev>Fr.</country-abbrev>
    <subregion>Western Europe</subregion>
    <woe-id>-90</woe-id>
    <region-wb>Europe &amp; Central Asia</region-wb>
    <iso-a3>FRA</iso-a3>
    <iso-a2>FR</iso-a2>
    <region-un>Europe</region-un>
    <continent>Europe</continent>
    <hc-key>fr</hc-key>
    <hc-a2>FR</hc-a2>
  </desc>
</g>

<path fill="#CEE3F5" stroke="#6E6E6E" stroke-width="0.4" id="FR.T" d="M175.7,400.7 L178.6,401.6 L178.8,406.2 L181.4,409.2 L179.2,415.9 L176.6,410.4 L170.4,402.5 L169.3,396.2 Z M166.7,380.3 L165.3,382.2 L175.3,384.2 L178.1,387.9 L173.6,387.3 L168.4,383.5 L164.4,383.5 L161.8,379.8 Z M205.5,456.7 L203.2,448.4 L198.6,440.9 L190.9,434.7 L190.6,432.9 L179.6,424.3 L176.6,424.1 L177.9,417.6 L182.8,416.8 L187.4,422.3 L191.2,424.3 L183.8,416.7 L182.6,411.8 L187.1,409.1 L187.6,404.3 L185.5,399.9 L188.3,400.2 L186.6,393.3 L181.1,388.4 L182.6,382.8 L186.5,380.6 L186.3,376.4 L188.6,374.0 L194.7,372.7 L196.2,376.2 L202.6,375.6 L206.3,378.2 L217.7,373.3 L213.6,368.8 L215.0,358.9 L213.0,347.9 L210.3,342.3 L210.7,338.3 L205.9,333.8 L204.5,328.6 L199.3,320.5 L204.5,322.9 L215.8,323.2 L220.4,320.8 L220.2,318.0 L230.1,316.2 L240.8,315.7 L244.1,319.3 L250.7,311.6 L254.5,311.9 L255.8,314.6 L261.2,316.3 L261.5,320.1 L267.3,321.3 L267.1,328.6 L274.0,330.3 L281.1,328.9 L282.4,325.1 L287.1,328.1 L289.2,333.4 L295.4,343.3 L298.8,346.6 L299.7,356.5 L306.3,363.2 L309.8,363.2 L314.7,371.9 L313.7,375.1 L306.5,377.6 L303.0,383.2 L297.7,383.8 L291.9,388.1 L293.8,394.4 L292.5,400.2 L298.8,407.9 L292.4,411.8 L290.1,422.1 L287.5,421.2 L282.1,428.5 L275.3,434.3 L274.0,440.3 L269.7,446.2 L261.9,450.4 L259.3,461.2 L252.1,467.2 L244.9,468.8 L242.8,474.4 L234.8,475.6 L225.7,470.0 L222.6,469.9 L221.3,463.2 L214.5,459.3 L212.5,455.0 Z">
  <desc xmlns="http://www.highcharts.com/svg/namespace">
    <name>Poitou-Charentes</name>
    <hc-middle-x>0.56</hc-middle-x>
    <hc-middle-y>0.42</hc-middle-y>
    <hc-key>fr-t</hc-key>
    <hc-a2>PC</hc-a2>
  </desc>
</path>

<path fill="#CEE3F5" stroke="#6E6E6E" stroke-width="0.4" id="FR.E" d="M82.0,287.7 L84.4,290.2 L75.1,288.0 L75.1,282.0 Z M118.3,280.6 L116.5,274.5 L99.2,275.5 L94.6,270.4 L103.6,271.6 L106.8,267.6 L102.3,265.3 L85.8,268.2 L83.9,266.3 L82.0,275.8 L82.3,266.2 L79.5,263.1 L80.4,259.4 L84.6,257.9 L83.4,253.9 L78.2,261.2 L71.3,256.2 L75.9,250.5 L66.5,256.4 L62.6,250.0 L57.8,249.6 L52.3,246.4 L45.3,246.8 L41.4,239.4 L35.7,241.5 L32.1,239.2 L25.2,244.8 L17.3,243.7 L19.1,239.3 L15.2,229.9 L10.3,225.3 L0.0,223.1 L2.6,221.2 L20.2,219.1 L24.0,220.0 L24.0,212.9 L16.1,207.9 L11.7,212.8 L11.1,206.3 L7.3,205.6 L12.0,203.0 L19.4,205.0 L30.9,205.2 L23.8,202.8 L27.0,199.8 L17.1,200.5 L22.6,195.5 L8.3,199.1 L1.0,198.9 L0.1,192.7 L1.2,186.8 L4.6,181.0 L8.9,180.3 L13.5,176.9 L21.9,176.6 L25.6,174.1 L27.2,177.3 L36.9,173.6 L45.5,171.7 L46.0,177.8 L48.4,176.1 L51.2,180.5 L54.2,172.4 L62.9,176.8 L66.5,177.1 L66.3,173.5 L69.1,173.2 L66.7,168.9 L70.5,165.1 L78.0,167.3 L85.8,163.9 L86.5,168.5 L93.1,164.6 L95.2,171.0 L100.8,173.6 L99.8,176.3 L105.7,182.8 L106.1,187.6 L111.1,191.0 L112.5,195.3 L118.5,189.8 L133.1,182.4 L131.9,187.0 L136.2,185.6 L137.8,191.2 L141.8,187.1 L146.7,186.3 L150.2,195.7 L152.1,196.0 L147.9,187.0 L150.9,183.3 L158.1,182.1 L157.9,189.2 L164.0,190.2 L171.2,188.5 L173.9,197.6 L177.9,203.1 L181.5,202.9 L187.9,198.0 L197.7,201.5 L197.4,216.0 L195.5,220.0 L196.8,227.5 L196.4,234.2 L197.6,241.4 L190.6,244.3 L185.3,258.5 L174.2,254.4 L166.9,257.8 L161.6,262.1 L155.0,263.8 L151.8,262.8 L139.9,266.2 L137.8,274.7 L133.3,279.3 L132.1,277.2 L127.1,277.3 L125.2,280.2 Z">
  <desc xmlns="http://www.highcharts.com/svg/namespace">
    <name>Bretagne</name>
    <hc-middle-x>0.50</hc-middle-x>
    <hc-middle-y>0.46</hc-middle-y>
    <hc-key>fr-e</hc-key>
    <hc-a2>BR</hc-a2>
  </desc>
</path>

<path fill="#CEE3F5" stroke="#6E6E6E" stroke-width="0.4" id="FR.R" d="M130.4,319.7 L127.2,320.5 L124.9,314.8 L130.1,315.8 Z M186.3,376.4 L183.1,375.1 L180.9,378.7 L172.5,372.2 L168.1,372.9 L165.4,366.6 L158.8,365.3 L149.2,358.9 L146.9,348.2 L137.1,335.0 L133.5,332.5 L135.0,323.7 L138.0,321.7 L141.6,314.3 L136.6,309.0 L128.5,306.2 L132.8,304.5 L134.1,295.6 L140.5,294.9 L145.2,296.3 L154.0,302.3 L147.6,295.3 L142.0,292.9 L134.5,292.9 L127.0,297.8 L122.2,294.2 L117.9,295.5 L118.8,292.4 L112.7,285.8 L121.8,283.2 L118.3,280.6 L125.2,280.2 L127.1,277.3 L132.1,277.2 L133.3,279.3 L137.8,274.7 L139.9,266.2 L151.8,262.8 L155.0,263.8 L161.6,262.1 L166.9,257.8 L174.2,254.4 L185.3,258.5 L190.6,244.3 L197.6,241.4 L196.4,234.2 L196.8,227.5 L195.5,220.0 L197.4,216.0 L197.7,201.5 L209.2,201.9 L214.7,207.0 L219.6,204.7 L225.5,205.4 L228.4,202.9 L236.3,204.0 L246.1,200.1 L246.8,204.6 L251.8,209.4 L251.9,213.5 L257.2,213.9 L265.2,207.7 L269.9,206.7 L274.7,208.9 L275.4,218.2 L280.4,220.5 L281.1,223.4 L289.9,225.5 L293.0,229.9 L296.8,230.7 L302.8,234.4 L298.4,237.4 L296.4,241.2 L298.6,243.4 L298.5,249.2 L295.2,252.9 L293.0,262.5 L287.0,266.2 L285.6,271.2 L276.7,275.2 L273.1,274.9 L272.3,278.4 L265.3,276.4 L261.2,294.3 L256.7,301.4 L254.5,311.9 L250.7,311.6 L244.1,319.3 L240.8,315.7 L230.1,316.2 L220.2,318.0 L220.4,320.8 L215.8,323.2 L204.5,322.9 L199.3,320.5 L204.5,328.6 L205.9,333.8 L210.7,338.3 L210.3,342.3 L213.0,347.9 L215.0,358.9 L213.6,368.8 L217.7,373.3 L206.3,378.2 L202.6,375.6 L196.2,376.2 L194.7,372.7 L188.6,374.0 Z">
  <desc xmlns="http://www.highcharts.com/svg/namespace">
    <name>Pays de la Loire</name>
    <hc-middle-x>0.45</hc-middle-x>
    <hc-middle-y>0.51</hc-middle-y>
    <hc-key>fr-r</hc-key>
    <hc-a2>PD</hc-a2>
  </desc>
</path>

<path fill="#CEE3F5" stroke="#6E6E6E" stroke-width="0.4" id="FR.U" d="M528.4,540.9 L523.6,541.0 L523.0,537.5 L525.7,532.6 L528.8,532.0 L531.8,536.3 Z M620.1,472.8 L618.7,474.4 L622.3,480.2 L625.9,481.3 L626.4,488.1 L634.6,493.6 L638.3,492.9 L642.7,495.9 L642.3,498.1 L646.0,506.7 L641.8,506.3 L640.0,511.8 L634.6,518.3 L634.3,521.8 L639.1,527.0 L636.4,532.2 L644.4,542.6 L646.5,542.1 L659.4,548.1 L667.0,550.7 L682.6,545.6 L685.1,552.7 L682.0,560.2 L673.7,571.0 L675.4,576.7 L671.9,580.9 L668.1,580.9 L665.9,585.7 L661.7,585.5 L658.7,589.5 L655.7,588.8 L655.3,596.9 L645.9,597.9 L643.0,605.9 L639.6,608.7 L632.1,609.7 L631.6,614.3 L624.8,620.0 L630.7,621.2 L629.9,626.3 L625.9,628.8 L621.8,628.2 L619.9,630.8 L612.5,632.3 L612.4,635.9 L606.8,633.9 L592.0,637.7 L586.8,633.5 L583.3,634.7 L587.0,638.5 L582.1,640.8 L577.7,638.2 L579.7,636.5 L568.7,629.8 L567.5,632.0 L563.1,628.4 L551.9,628.0 L553.1,623.6 L548.5,616.9 L545.3,619.2 L535.2,619.5 L531.6,615.3 L534.5,612.0 L541.3,611.3 L544.0,605.2 L540.7,607.0 L532.6,601.1 L531.5,604.4 L534.8,609.6 L532.8,612.4 L527.0,610.7 L521.5,615.5 L520.8,618.3 L511.8,618.4 L506.0,616.7 L506.7,611.9 L502.8,609.9 L496.7,610.7 L486.0,610.0 L487.2,606.6 L498.8,599.5 L497.7,596.5 L501.6,589.9 L507.7,590.6 L510.0,582.7 L509.6,576.6 L519.0,569.9 L521.4,565.0 L517.1,559.4 L514.3,559.3 L513.7,551.0 L509.9,543.7 L509.8,540.1 L514.7,540.1 L518.6,546.2 L532.5,542.1 L539.5,541.8 L539.0,545.8 L551.5,549.1 L552.4,551.7 L559.0,555.3 L563.7,550.6 L568.6,552.2 L568.9,544.0 L565.3,540.6 L555.7,535.5 L553.8,531.2 L557.5,531.2 L556.2,526.0 L562.8,527.2 L566.7,523.7 L563.8,520.4 L566.4,513.5 L574.1,512.1 L576.8,504.4 L584.0,502.0 L583.9,499.5 L592.6,495.4 L605.6,494.7 L606.1,490.3 L603.3,483.4 L597.7,483.1 L598.3,475.1 L604.8,474.7 L610.8,478.8 L614.0,474.6 Z">
  <desc xmlns="http://www.highcharts.com/svg/namespace">
    <name>Provence-Alpes-Côte-d'Azur</name>
    <hc-middle-x>0.58</hc-middle-x>
    <hc-middle-y>0.56</hc-middle-y>
    <hc-key>fr-u</hc-key>
    <hc-a2>PA</hc-a2>
  </desc>
</path>

<path fill="#CEE3F5" stroke="#6E6E6E" stroke-width="0.4" id="FR.N" d="M234.4,617.6 L232.9,615.9 L233.9,613.0 L235.9,614.5 Z M233.0,624.0 L231.4,623.1 L232.8,619.4 L234.6,622.1 Z M341.4,681.2 L339.1,677.8 L332.4,677.0 L328.6,674.5 L324.1,675.0 L321.8,678.7 L315.5,669.1 L304.6,668.7 L300.8,663.8 L292.2,662.9 L285.9,659.0 L276.7,658.2 L275.6,670.5 L260.6,670.0 L258.6,667.3 L253.9,671.1 L247.7,666.3 L235.4,669.1 L230.7,666.4 L228.5,660.1 L224.1,660.6 L220.1,656.9 L219.7,651.3 L221.5,644.4 L227.8,639.9 L227.6,636.3 L234.3,630.1 L237.7,623.7 L237.8,619.2 L240.9,617.0 L240.3,610.3 L237.3,602.2 L233.8,597.8 L226.5,596.6 L224.8,593.6 L229.4,584.5 L230.3,576.3 L228.2,572.3 L231.6,569.2 L235.4,569.6 L240.0,566.3 L240.7,570.1 L244.4,571.6 L248.1,565.9 L250.4,566.9 L254.3,563.0 L259.6,564.8 L268.5,560.5 L275.8,559.4 L279.6,562.3 L284.4,560.1 L289.0,553.6 L293.4,553.7 L296.5,543.4 L293.3,540.7 L295.3,535.4 L302.8,536.5 L301.0,522.1 L307.9,516.8 L310.5,512.2 L317.0,508.8 L325.8,495.7 L325.2,487.7 L327.2,485.2 L331.2,482.9 L335.8,484.2 L341.6,489.9 L346.4,492.1 L352.6,489.4 L361.2,488.9 L363.1,497.7 L366.7,505.0 L365.1,511.1 L367.9,516.5 L374.7,513.6 L383.5,514.2 L388.2,508.8 L391.5,500.4 L399.1,492.4 L402.3,498.3 L404.4,497.9 L409.3,506.7 L410.4,512.0 L413.5,515.7 L418.4,522.1 L422.7,533.6 L423.0,543.0 L421.7,546.2 L429.0,551.9 L434.8,551.7 L436.3,553.7 L431.1,560.3 L437.4,563.2 L440.2,567.1 L433.2,575.9 L430.5,576.2 L425.6,582.2 L417.7,582.4 L417.6,591.1 L410.8,591.7 L408.0,595.0 L401.6,597.8 L393.8,596.5 L392.7,602.5 L394.6,610.3 L389.4,613.3 L377.7,613.1 L371.6,611.6 L369.0,616.3 L361.6,615.5 L358.2,613.1 L350.1,615.3 L347.6,612.9 L345.2,619.2 L341.2,620.4 L338.4,627.1 L339.7,632.0 L342.9,634.5 L351.6,637.5 L355.3,650.0 L352.4,652.0 L354.5,657.7 L347.8,661.5 L350.6,666.2 L355.2,668.3 L360.8,667.8 L365.6,673.3 L355.9,674.3 L351.9,681.0 Z">
  <desc xmlns="http://www.highcharts.com/svg/namespace">
    <name>Midi-Pyrénées</name>
    <hc-middle-x>0.50</hc-middle-x>
    <hc-middle-y>0.47</hc-middle-y>
    <hc-key>fr-n</hc-key>
    <hc-a2>MP</hc-a2>
  </desc>
</path>

<path fill="#CEE3F5" stroke="#6E6E6E" stroke-width="0.4" id="FR.P" d="M197.7,201.5 L187.9,198.0 L181.5,202.9 L177.9,203.1 L173.9,197.6 L171.2,188.5 L175.9,189.3 L182.8,187.7 L175.8,184.0 L173.6,180.2 L173.3,170.0 L175.4,157.6 L173.5,158.9 L172.5,151.6 L173.4,141.8 L168.1,132.4 L162.9,127.4 L163.3,123.5 L160.2,116.4 L162.5,113.3 L161.6,106.0 L157.8,104.5 L158.6,100.8 L175.7,107.7 L180.2,107.1 L186.7,103.5 L192.9,105.0 L194.8,111.1 L190.4,116.1 L196.1,126.7 L196.0,132.6 L200.1,133.4 L201.9,129.7 L208.8,130.4 L214.8,133.1 L229.2,134.1 L236.2,135.7 L246.0,141.2 L255.9,138.4 L266.4,131.2 L273.4,129.9 L273.6,139.6 L277.0,143.8 L275.4,146.8 L279.2,154.5 L276.7,160.8 L279.1,167.7 L278.5,174.2 L287.5,174.9 L290.9,181.0 L295.2,183.4 L294.4,188.3 L298.9,192.3 L300.5,199.0 L305.4,203.9 L307.0,211.2 L302.3,216.9 L296.6,218.7 L296.8,230.7 L293.0,229.9 L289.9,225.5 L281.1,223.4 L280.4,220.5 L275.4,218.2 L274.7,208.9 L269.9,206.7 L265.2,207.7 L257.2,213.9 L251.9,213.5 L251.8,209.4 L246.8,204.6 L246.1,200.1 L236.3,204.0 L228.4,202.9 L225.5,205.4 L219.6,204.7 L214.7,207.0 L209.2,201.9 Z">
  <desc xmlns="http://www.highcharts.com/svg/namespace">
    <name>Basse-Normandie</name>
    <hc-middle-x>0.45</hc-middle-x>
    <hc-middle-y>0.53</hc-middle-y>
    <hc-key>fr-p</hc-key>
    <hc-a2>BN</hc-a2>
  </desc>
</path>

<path fill="#CEE3F5" stroke="#6E6E6E" stroke-width="0.4" id="FR.O" d="M347.0,59.4 L342.7,56.6 L340.7,54.0 L342.4,40.5 L341.5,32.1 L343.9,23.2 L342.7,16.9 L346.4,15.3 L350.4,11.0 L362.8,6.2 L370.9,5.2 L380.5,2.1 L383.6,2.5 L390.5,0.0 L392.2,6.9 L394.8,10.1 L393.2,14.1 L393.8,19.7 L399.0,22.4 L403.8,29.2 L409.5,30.9 L413.2,26.5 L419.9,24.4 L422.0,25.6 L426.3,34.7 L428.5,44.9 L432.2,47.6 L438.2,45.5 L440.1,48.1 L445.7,48.9 L447.6,51.3 L448.5,61.4 L450.4,63.1 L452.6,59.5 L460.5,60.8 L467.0,59.7 L472.4,66.1 L476.4,66.5 L474.1,69.7 L472.6,76.5 L475.4,76.5 L477.0,81.8 L473.0,85.3 L473.0,88.7 L466.1,87.4 L464.9,83.5 L460.3,85.2 L458.6,83.5 L449.8,82.2 L443.2,83.1 L437.8,85.8 L422.7,85.6 L416.3,81.3 L412.8,84.1 L407.0,85.5 L405.5,81.7 L402.6,84.1 L399.7,76.8 L398.7,80.9 L386.7,76.8 L384.0,79.5 L382.4,76.1 L387.3,71.5 L380.4,68.0 L375.6,70.1 L369.0,70.6 L366.2,66.9 L357.6,61.6 L354.2,58.3 Z">
  <desc xmlns="http://www.highcharts.com/svg/namespace">
    <name>Nord-Pas-de-Calais</name>
    <hc-middle-x>0.35</hc-middle-x>
    <hc-middle-y>0.56</hc-middle-y>
    <hc-key>fr-o</hc-key>
    <hc-a2>NP</hc-a2>
  </desc>
</path>

<path fill="#CEE3F5" stroke="#6E6E6E" stroke-width="0.4" id="FR.V" d="M583.9,370.6 L588.3,375.1 L586.1,384.2 L578.9,387.2 L579.2,393.8 L587.5,392.8 L596.8,384.3 L593.4,380.0 L597.1,373.5 L601.6,375.2 L608.3,370.2 L619.2,368.6 L624.2,369.3 L622.4,374.7 L627.0,380.6 L624.5,391.5 L629.0,392.2 L629.1,398.1 L632.7,398.0 L636.7,402.1 L639.2,407.6 L636.4,412.2 L627.2,416.1 L627.3,424.8 L637.0,430.5 L638.6,440.8 L649.0,448.3 L645.6,455.5 L646.7,460.6 L643.6,464.3 L638.4,465.0 L632.3,471.7 L626.1,469.8 L620.1,472.8 L614.0,474.6 L610.8,478.8 L604.8,474.7 L598.3,475.1 L597.7,483.1 L603.3,483.4 L606.1,490.3 L605.6,494.7 L592.6,495.4 L583.9,499.5 L584.0,502.0 L576.8,504.4 L574.1,512.1 L566.4,513.5 L563.8,520.4 L566.7,523.7 L562.8,527.2 L556.2,526.0 L557.5,531.2 L553.8,531.2 L555.7,535.5 L565.3,540.6 L568.9,544.0 L568.6,552.2 L563.7,550.6 L559.0,555.3 L552.4,551.7 L551.5,549.1 L539.0,545.8 L539.5,541.8 L532.5,542.1 L518.6,546.2 L514.7,540.1 L509.8,540.1 L509.9,543.7 L501.9,539.5 L495.5,543.1 L491.2,540.2 L486.5,544.1 L479.5,540.3 L474.6,540.4 L474.8,534.6 L471.6,530.3 L467.3,520.5 L464.3,506.9 L472.8,498.0 L480.2,496.8 L483.6,490.0 L488.2,488.7 L488.5,485.0 L491.8,484.0 L493.0,475.7 L495.0,477.2 L498.2,468.4 L491.4,464.7 L490.9,459.9 L488.0,455.2 L485.4,456.9 L480.0,455.8 L478.2,458.3 L465.5,459.3 L465.8,453.8 L469.1,448.3 L466.3,440.8 L459.7,435.1 L453.6,423.9 L455.4,415.7 L452.5,410.5 L460.2,406.3 L457.5,388.3 L463.8,384.9 L464.5,389.9 L469.1,392.7 L473.7,391.4 L486.3,392.9 L491.5,388.6 L492.7,383.4 L503.7,385.3 L505.5,382.4 L509.2,386.4 L510.2,391.1 L514.5,392.4 L515.5,385.5 L518.4,379.0 L521.7,365.8 L528.7,366.4 L535.0,365.2 L542.4,369.0 L546.2,376.4 L551.5,379.5 L553.9,384.2 L561.3,377.3 L566.1,383.0 L574.4,382.3 Z M528.4,540.9 L531.8,536.3 L528.8,532.0 L525.7,532.6 L523.0,537.5 L523.6,541.0 Z">
  <desc xmlns="http://www.highcharts.com/svg/namespace">
    <name>Rhône-Alpes</name>
    <hc-middle-x>0.46</hc-middle-x>
    <hc-middle-y>0.42</hc-middle-y>
    <hc-key>fr-v</hc-key>
    <hc-a2>RA</hc-a2>
  </desc>
</path>

<path fill="#CEE3F5" stroke="#6E6E6E" stroke-width="0.4" id="FR.S" d="M473.0,88.7 L476.0,90.2 L477.4,90.3 L479.2,98.3 L477.3,104.4 L478.5,108.5 L472.7,114.8 L469.0,116.7 L470.5,121.4 L468.6,132.7 L469.3,137.5 L460.5,136.4 L459.1,139.3 L448.7,142.8 L450.3,150.6 L453.5,152.7 L448.0,155.3 L445.5,164.1 L449.7,166.3 L441.6,175.7 L439.9,179.1 L436.7,178.9 L433.4,173.2 L431.5,173.6 L423.9,166.8 L422.0,159.7 L418.8,158.7 L413.5,160.9 L403.3,160.3 L401.3,161.7 L395.0,159.3 L392.7,160.4 L379.7,152.9 L374.6,153.9 L366.4,150.0 L356.1,153.3 L348.4,151.5 L346.4,148.1 L347.9,145.0 L350.9,146.6 L347.6,132.7 L350.1,126.0 L347.5,125.8 L346.1,115.0 L346.4,109.8 L350.0,105.4 L346.4,95.5 L338.1,86.3 L330.8,81.0 L335.6,75.8 L336.8,71.5 L340.4,69.0 L345.4,71.6 L346.0,68.9 L339.8,64.2 L340.4,58.5 L342.7,56.6 L347.0,59.4 L354.2,58.3 L357.6,61.6 L366.2,66.9 L369.0,70.6 L375.6,70.1 L380.4,68.0 L387.3,71.5 L382.4,76.1 L384.0,79.5 L386.7,76.8 L398.7,80.9 L399.7,76.8 L402.6,84.1 L405.5,81.7 L407.0,85.5 L412.8,84.1 L416.3,81.3 L422.7,85.6 L437.8,85.8 L443.2,83.1 L449.8,82.2 L458.6,83.5 L460.3,85.2 L464.9,83.5 L466.1,87.4 Z">
  <desc xmlns="http://www.highcharts.com/svg/namespace">
    <name>Picardie</name>
    <hc-middle-x>0.40</hc-middle-x>
    <hc-middle-y>0.51</hc-middle-y>
    <hc-key>fr-s</hc-key>
    <hc-a2>PI</hc-a2>
  </desc>
</path>

<path fill="#CEE3F5" stroke="#6E6E6E" stroke-width="0.4" id="FR.G" d="M439.9,179.1 L441.6,175.7 L449.7,166.3 L445.5,164.1 L448.0,155.3 L453.5,152.7 L450.3,150.6 L448.7,142.8 L459.1,139.3 L460.5,136.4 L469.3,137.5 L468.6,132.7 L470.5,121.4 L469.0,116.7 L472.7,114.8 L478.5,108.5 L477.3,104.4 L479.2,98.3 L477.4,90.3 L480.6,89.8 L488.8,91.9 L500.1,87.1 L501.3,79.5 L506.6,73.8 L510.9,74.8 L506.9,88.1 L509.9,91.4 L510.9,103.0 L515.7,102.1 L522.6,105.4 L528.5,110.9 L531.9,110.1 L534.1,116.3 L539.0,116.5 L534.5,121.4 L524.0,120.6 L522.6,125.6 L525.0,131.9 L521.4,139.2 L521.9,143.3 L518.3,147.0 L517.3,152.6 L519.2,162.0 L521.7,164.8 L520.2,171.4 L516.1,175.6 L516.0,182.9 L519.6,185.8 L522.7,196.3 L530.8,202.2 L539.3,205.3 L545.4,211.6 L544.4,218.2 L548.4,217.0 L552.7,222.2 L555.5,222.3 L559.7,227.7 L557.2,236.7 L564.3,242.7 L565.0,247.4 L570.1,249.7 L566.5,255.4 L561.0,259.6 L560.5,269.3 L554.5,272.3 L549.8,270.5 L545.5,271.5 L543.1,276.6 L537.8,278.2 L531.8,271.6 L527.1,272.9 L524.5,269.5 L521.1,270.4 L518.8,264.1 L521.9,261.8 L516.6,253.1 L510.9,246.4 L505.8,244.5 L501.1,245.1 L497.5,249.2 L485.9,250.9 L483.9,252.7 L480.1,248.9 L479.3,251.6 L470.4,253.0 L463.5,251.8 L462.9,248.0 L453.0,234.1 L451.0,235.7 L445.7,232.6 L447.0,226.5 L442.5,220.0 L437.1,217.6 L435.7,214.2 L436.5,205.0 L438.6,204.5 L443.2,198.0 L439.4,196.0 L438.5,189.2 L435.7,187.1 L436.3,182.1 Z">
  <desc xmlns="http://www.highcharts.com/svg/namespace">
    <name>Champagne-Ardenne</name>
    <hc-middle-x>0.33</hc-middle-x>
    <hc-middle-y>0.47</hc-middle-y>
    <hc-key>fr-g</hc-key>
    <hc-a2>CA</hc-a2>
  </desc>
</path>

<path fill="#CEE3F5" stroke="#6E6E6E" stroke-width="0.4" id="FR.K" d="M341.4,681.2 L351.9,681.0 L355.9,674.3 L365.6,673.3 L360.8,667.8 L355.2,668.3 L350.6,666.2 L347.8,661.5 L354.5,657.7 L352.4,652.0 L355.3,650.0 L351.6,637.5 L342.9,634.5 L339.7,632.0 L338.4,627.1 L341.2,620.4 L345.2,619.2 L347.6,612.9 L350.1,615.3 L358.2,613.1 L361.6,615.5 L369.0,616.3 L371.6,611.6 L377.7,613.1 L389.4,613.3 L394.6,610.3 L392.7,602.5 L393.8,596.5 L401.6,597.8 L408.0,595.0 L410.8,591.7 L417.6,591.1 L417.7,582.4 L425.6,582.2 L430.5,576.2 L433.2,575.9 L440.2,567.1 L437.4,563.2 L431.1,560.3 L436.3,553.7 L434.8,551.7 L429.0,551.9 L421.7,546.2 L423.0,543.0 L422.7,533.6 L418.4,522.1 L413.5,515.7 L420.3,496.7 L423.4,497.7 L428.5,493.5 L436.2,490.7 L442.7,501.9 L451.8,497.5 L452.3,500.6 L456.6,501.8 L464.3,506.9 L467.3,520.5 L471.6,530.3 L474.8,534.6 L474.6,540.4 L479.5,540.3 L486.5,544.1 L491.2,540.2 L495.5,543.1 L501.9,539.5 L509.9,543.7 L513.7,551.0 L514.3,559.3 L517.1,559.4 L521.4,565.0 L519.0,569.9 L509.6,576.6 L510.0,582.7 L507.7,590.6 L501.6,589.9 L497.7,596.5 L498.8,599.5 L487.2,606.6 L486.0,610.0 L480.6,607.8 L478.9,602.6 L469.3,604.3 L457.8,614.0 L450.9,617.1 L444.6,624.6 L437.1,624.4 L428.9,629.6 L421.3,638.7 L416.9,651.8 L417.9,654.6 L416.8,672.5 L417.7,682.8 L422.7,685.2 L425.3,692.6 L418.5,692.6 L416.4,689.9 L410.7,689.5 L393.3,697.3 L394.6,700.0 L382.9,699.8 L380.4,696.4 L371.8,692.7 L363.5,693.6 L358.4,698.7 L353.2,697.4 L351.1,691.8 L338.1,686.4 Z">
  <desc xmlns="http://www.highcharts.com/svg/namespace">
    <name>Languedoc-Roussillon</name>
    <hc-middle-x>0.27</hc-middle-x>
    <hc-middle-y>0.79</hc-middle-y>
    <hc-key>fr-k</hc-key>
    <hc-a2>LR</hc-a2>
  </desc>
</path>

<path fill="#CEE3F5" stroke="#6E6E6E" stroke-width="0.4" id="FR.A" d="M659.0,156.8 L665.7,155.4 L674.1,156.0 L682.8,159.9 L688.7,161.1 L684.3,172.5 L677.6,178.0 L676.7,181.7 L669.9,190.0 L670.5,197.6 L668.6,199.4 L667.1,206.9 L668.1,210.9 L665.6,214.6 L664.6,220.5 L661.5,225.5 L659.7,232.3 L662.7,239.6 L658.7,257.4 L659.0,266.5 L662.9,273.1 L657.5,276.8 L656.9,281.7 L652.3,286.1 L645.1,287.5 L640.9,285.7 L639.3,282.2 L639.4,278.7 L633.1,273.9 L633.3,264.3 L624.0,258.7 L623.1,256.5 L626.0,254.4 L627.4,244.4 L633.6,231.4 L632.8,229.2 L639.3,216.8 L633.9,214.0 L634.2,202.6 L632.0,199.5 L637.5,198.4 L641.4,194.1 L642.6,188.3 L640.6,186.1 L642.3,178.7 L636.7,172.7 L631.6,178.0 L631.0,173.2 L625.0,169.8 L629.1,156.6 L633.4,160.8 L640.7,162.9 L643.5,165.2 L650.7,163.5 L655.7,164.4 Z">
  <desc xmlns="http://www.highcharts.com/svg/namespace">
    <name>Alsace</name>
    <hc-middle-x>0.40</hc-middle-x>
    <hc-middle-y>0.51</hc-middle-y>
    <hc-key>fr-a</hc-key>
    <hc-a2>AL</hc-a2>
  </desc>
</path>

<path fill="#CEE3F5" stroke="#6E6E6E" stroke-width="0.4" id="FR.C" d="M413.5,515.7 L410.4,512.0 L409.3,506.7 L404.4,497.9 L402.3,498.3 L399.1,492.4 L391.5,500.4 L388.2,508.8 L383.5,514.2 L374.7,513.6 L367.9,516.5 L365.1,511.1 L366.7,505.0 L363.1,497.7 L361.2,488.9 L365.3,487.6 L364.4,482.3 L369.7,474.3 L369.1,469.1 L377.8,459.9 L380.3,454.1 L385.8,455.4 L387.5,448.8 L384.6,440.4 L387.8,435.2 L388.0,431.4 L383.5,426.6 L381.1,420.8 L386.8,417.6 L392.0,409.5 L390.5,396.3 L385.4,385.4 L377.6,380.8 L373.3,373.5 L375.5,369.6 L381.5,365.4 L393.3,363.2 L391.3,354.7 L393.7,354.3 L399.3,348.5 L405.7,349.2 L410.8,344.6 L416.3,344.0 L417.5,347.2 L426.5,352.3 L434.9,352.3 L438.5,350.7 L440.0,355.1 L445.4,352.6 L447.4,347.7 L455.6,358.3 L455.5,363.1 L468.7,369.9 L470.0,380.8 L463.8,384.9 L457.5,388.3 L460.2,406.3 L452.5,410.5 L455.4,415.7 L453.6,423.9 L459.7,435.1 L466.3,440.8 L469.1,448.3 L465.8,453.8 L465.5,459.3 L478.2,458.3 L480.0,455.8 L485.4,456.9 L488.0,455.2 L490.9,459.9 L491.4,464.7 L498.2,468.4 L495.0,477.2 L493.0,475.7 L491.8,484.0 L488.5,485.0 L488.2,488.7 L483.6,490.0 L480.2,496.8 L472.8,498.0 L464.3,506.9 L456.6,501.8 L452.3,500.6 L451.8,497.5 L442.7,501.9 L436.2,490.7 L428.5,493.5 L423.4,497.7 L420.3,496.7 Z">
  <desc xmlns="http://www.highcharts.com/svg/namespace">
    <name>Auvergne</name>
    <hc-middle-x>0.44</hc-middle-x>
    <hc-middle-y>0.44</hc-middle-y>
    <hc-key>fr-c</hc-key>
    <hc-a2>AU</hc-a2>
  </desc>
</path>

<path fill="#CEE3F5" stroke="#6E6E6E" stroke-width="0.4" id="FR.F" d="M416.3,344.0 L410.8,344.6 L405.7,349.2 L399.3,348.5 L393.7,354.3 L391.3,354.7 L393.3,363.2 L381.5,365.4 L375.5,369.6 L373.3,373.5 L364.9,373.7 L352.8,371.8 L350.0,373.1 L346.2,370.7 L345.2,374.5 L337.8,375.9 L332.2,373.5 L326.8,378.3 L322.4,374.5 L316.1,376.6 L313.7,375.1 L314.7,371.9 L309.8,363.2 L306.3,363.2 L299.7,356.5 L298.8,346.6 L295.4,343.3 L289.2,333.4 L287.1,328.1 L282.4,325.1 L281.1,328.9 L274.0,330.3 L267.1,328.6 L267.3,321.3 L261.5,320.1 L261.2,316.3 L255.8,314.6 L254.5,311.9 L256.7,301.4 L261.2,294.3 L265.3,276.4 L272.3,278.4 L273.1,274.9 L276.7,275.2 L285.6,271.2 L287.0,266.2 L293.0,262.5 L295.2,252.9 L298.5,249.2 L298.6,243.4 L296.4,241.2 L298.4,237.4 L302.8,234.4 L296.8,230.7 L296.6,218.7 L302.3,216.9 L307.0,211.2 L305.4,203.9 L300.5,199.0 L298.9,192.3 L301.9,189.7 L309.2,188.2 L314.4,184.0 L322.4,186.0 L327.0,183.2 L332.9,176.7 L335.1,171.2 L339.1,178.9 L340.8,186.5 L339.1,190.2 L348.1,201.7 L350.8,209.3 L357.1,211.3 L361.2,221.3 L360.6,224.7 L368.3,223.0 L372.3,219.9 L374.9,222.6 L378.1,220.8 L382.6,221.9 L384.5,227.1 L388.6,230.6 L385.2,236.4 L397.7,237.4 L403.3,234.4 L405.3,236.7 L410.6,234.8 L415.1,235.9 L417.0,241.1 L420.7,245.2 L419.2,251.3 L414.2,255.2 L414.6,263.1 L405.7,267.3 L405.8,270.0 L410.0,273.0 L413.0,281.8 L407.0,283.7 L410.8,291.0 L407.8,300.3 L413.1,305.9 L418.4,323.6 L417.6,334.2 L418.6,337.6 Z">
  <desc xmlns="http://www.highcharts.com/svg/namespace">
    <name>Centre</name>
    <hc-middle-x>0.54</hc-middle-x>
    <hc-middle-y>0.56</hc-middle-y>
    <hc-key>fr-f</hc-key>
    <hc-a2>CE</hc-a2>
  </desc>
</path>

<path fill="#CEE3F5" stroke="#6E6E6E" stroke-width="0.4" id="FR.L" d="M361.2,488.9 L352.6,489.4 L346.4,492.1 L341.6,489.9 L335.8,484.2 L331.2,482.9 L327.2,485.2 L324.2,480.7 L324.1,476.2 L317.8,474.5 L315.2,470.0 L317.6,465.9 L315.9,461.0 L320.3,456.2 L317.3,455.0 L318.2,451.0 L309.2,446.9 L310.3,443.1 L306.9,442.2 L302.8,436.7 L292.1,437.9 L288.9,436.4 L287.6,430.1 L282.1,428.5 L287.5,421.2 L290.1,422.1 L292.4,411.8 L298.8,407.9 L292.5,400.2 L293.8,394.4 L291.9,388.1 L297.7,383.8 L303.0,383.2 L306.5,377.6 L313.7,375.1 L316.1,376.6 L322.4,374.5 L326.8,378.3 L332.2,373.5 L337.8,375.9 L345.2,374.5 L346.2,370.7 L350.0,373.1 L352.8,371.8 L364.9,373.7 L373.3,373.5 L377.6,380.8 L385.4,385.4 L390.5,396.3 L392.0,409.5 L386.8,417.6 L381.1,420.8 L383.5,426.6 L388.0,431.4 L387.8,435.2 L384.6,440.4 L387.5,448.8 L385.8,455.4 L380.3,454.1 L377.8,459.9 L369.1,469.1 L369.7,474.3 L364.4,482.3 L365.3,487.6 Z">
  <desc xmlns="http://www.highcharts.com/svg/namespace">
    <name>Limousin</name>
    <hc-middle-x>0.59</hc-middle-x>
    <hc-middle-y>0.38</hc-middle-y>
    <hc-key>fr-l</hc-key>
    <hc-a2>LI</hc-a2>
  </desc>
</path>

<path fill="#CEE3F5" stroke="#6E6E6E" stroke-width="0.4" id="FR.D" d="M542.4,369.0 L535.0,365.2 L528.7,366.4 L521.7,365.8 L518.4,379.0 L515.5,385.5 L514.5,392.4 L510.2,391.1 L509.2,386.4 L505.5,382.4 L503.7,385.3 L492.7,383.4 L491.5,388.6 L486.3,392.9 L473.7,391.4 L469.1,392.7 L464.5,389.9 L463.8,384.9 L470.0,380.8 L468.7,369.9 L455.5,363.1 L455.6,358.3 L447.4,347.7 L445.4,352.6 L440.0,355.1 L438.5,350.7 L434.9,352.3 L426.5,352.3 L417.5,347.2 L416.3,344.0 L418.6,337.6 L417.6,334.2 L418.4,323.6 L413.1,305.9 L407.8,300.3 L410.8,291.0 L407.0,283.7 L413.0,281.8 L410.0,273.0 L405.8,270.0 L405.7,267.3 L414.6,263.1 L414.2,255.2 L419.2,251.3 L420.7,245.2 L417.0,241.1 L415.1,235.9 L410.6,234.8 L411.8,230.8 L416.2,225.8 L416.9,218.3 L433.5,217.2 L435.7,214.2 L437.1,217.6 L442.5,220.0 L447.0,226.5 L445.7,232.6 L451.0,235.7 L453.0,234.1 L462.9,248.0 L463.5,251.8 L470.4,253.0 L479.3,251.6 L480.1,248.9 L483.9,252.7 L485.9,250.9 L497.5,249.2 L501.1,245.1 L505.8,244.5 L510.9,246.4 L516.6,253.1 L521.9,261.8 L518.8,264.1 L521.1,270.4 L524.5,269.5 L527.1,272.9 L531.8,271.6 L537.8,278.2 L543.1,276.6 L548.8,277.2 L549.7,282.6 L546.0,285.8 L551.9,301.9 L550.2,309.8 L544.8,318.8 L540.8,320.9 L541.1,324.3 L537.8,327.0 L542.4,333.1 L549.5,336.6 L543.7,341.2 L545.6,343.0 L548.2,354.7 L545.0,359.8 L548.5,365.3 Z">
  <desc xmlns="http://www.highcharts.com/svg/namespace">
    <name>Bourgogne</name>
    <hc-middle-x>0.51</hc-middle-x>
    <hc-middle-y>0.55</hc-middle-y>
    <hc-key>fr-d</hc-key>
    <hc-a2>BO</hc-a2>
  </desc>
</path>

<path fill="#CEE3F5" stroke="#6E6E6E" stroke-width="0.4" id="FR.B" d="M327.2,485.2 L325.2,487.7 L325.8,495.7 L317.0,508.8 L310.5,512.2 L307.9,516.8 L301.0,522.1 L302.8,536.5 L295.3,535.4 L293.3,540.7 L296.5,543.4 L293.4,553.7 L289.0,553.6 L284.4,560.1 L279.6,562.3 L275.8,559.4 L268.5,560.5 L259.6,564.8 L254.3,563.0 L250.4,566.9 L248.1,565.9 L244.4,571.6 L240.7,570.1 L240.0,566.3 L235.4,569.6 L231.6,569.2 L228.2,572.3 L230.3,576.3 L229.4,584.5 L224.8,593.6 L226.5,596.6 L233.8,597.8 L237.3,602.2 L240.3,610.3 L240.9,617.0 L237.8,619.2 L237.7,623.7 L234.3,630.1 L227.6,636.3 L227.8,639.9 L221.5,644.4 L219.7,651.3 L220.1,656.9 L213.0,659.8 L203.6,659.0 L200.0,654.6 L195.3,652.1 L193.8,646.5 L180.8,645.1 L178.1,642.6 L171.1,640.7 L163.9,637.1 L159.8,633.1 L157.5,638.1 L151.6,633.6 L155.4,629.5 L157.2,621.0 L148.3,617.2 L143.5,619.2 L141.7,615.2 L137.3,616.0 L135.0,608.3 L142.8,607.6 L146.8,604.4 L154.4,593.8 L163.8,559.1 L168.7,536.6 L171.5,520.6 L171.2,516.4 L175.7,507.9 L183.8,508.0 L182.8,504.1 L177.3,498.9 L173.1,504.4 L171.3,510.7 L176.8,471.4 L179.8,458.9 L181.7,442.0 L185.1,435.9 L186.4,439.3 L194.2,445.9 L202.1,456.2 L204.0,470.7 L205.9,476.4 L210.6,480.7 L215.0,480.6 L208.4,476.8 L206.9,472.1 L205.5,456.7 L212.5,455.0 L214.5,459.3 L221.3,463.2 L222.6,469.9 L225.7,470.0 L234.8,475.6 L242.8,474.4 L244.9,468.8 L252.1,467.2 L259.3,461.2 L261.9,450.4 L269.7,446.2 L274.0,440.3 L275.3,434.3 L282.1,428.5 L287.6,430.1 L288.9,436.4 L292.1,437.9 L302.8,436.7 L306.9,442.2 L310.3,443.1 L309.2,446.9 L318.2,451.0 L317.3,455.0 L320.3,456.2 L315.9,461.0 L317.6,465.9 L315.2,470.0 L317.8,474.5 L324.1,476.2 L324.2,480.7 Z M234.4,617.6 L235.9,614.5 L233.9,613.0 L232.9,615.9 Z M233.0,624.0 L234.6,622.1 L232.8,619.4 L231.4,623.1 Z">
  <desc xmlns="http://www.highcharts.com/svg/namespace">
    <name>Aquitaine</name>
    <hc-middle-x>0.46</hc-middle-x>
    <hc-middle-y>0.44</hc-middle-y>
    <hc-key>fr-b</hc-key>
    <hc-a2>AQ</hc-a2>
  </desc>
</path>

<path fill="#CEE3F5" stroke="#6E6E6E" stroke-width="0.4" id="FR.I" d="M583.9,370.6 L574.4,382.3 L566.1,383.0 L561.3,377.3 L553.9,384.2 L551.5,379.5 L546.2,376.4 L542.4,369.0 L548.5,365.3 L545.0,359.8 L548.2,354.7 L545.6,343.0 L543.7,341.2 L549.5,336.6 L542.4,333.1 L537.8,327.0 L541.1,324.3 L540.8,320.9 L544.8,318.8 L550.2,309.8 L551.9,301.9 L546.0,285.8 L549.7,282.6 L548.8,277.2 L543.1,276.6 L545.5,271.5 L549.8,270.5 L554.5,272.3 L560.5,269.3 L561.0,259.6 L566.5,255.4 L570.1,249.7 L573.4,245.8 L574.4,248.9 L579.5,243.6 L583.6,243.7 L589.1,249.0 L596.0,247.0 L602.9,250.6 L607.0,250.1 L608.9,247.4 L613.6,251.3 L623.1,256.5 L624.0,258.7 L633.3,264.3 L633.1,273.9 L639.4,278.7 L639.3,282.2 L632.0,281.7 L631.2,285.5 L627.8,287.9 L624.9,293.7 L632.3,292.2 L634.6,294.3 L630.1,298.5 L630.2,302.2 L615.6,317.5 L611.7,323.8 L603.3,327.6 L603.2,342.3 L594.5,349.1 L587.3,356.2 L588.2,359.7 L584.0,366.3 Z">
  <desc xmlns="http://www.highcharts.com/svg/namespace">
    <name>Franche-Comté</name>
    <hc-middle-x>0.48</hc-middle-x>
    <hc-middle-y>0.36</hc-middle-y>
    <hc-key>fr-i</hc-key>
    <hc-a2>FC</hc-a2>
  </desc>
</path>

<path fill="#CEE3F5" stroke="#6E6E6E" stroke-width="0.4" id="FR.Q" d="M273.4,129.9 L279.5,128.7 L271.5,127.4 L263.6,124.8 L262.5,120.8 L267.7,109.1 L271.2,106.2 L279.2,102.8 L286.4,98.4 L294.3,95.2 L298.8,95.4 L320.2,89.1 L330.8,81.0 L338.1,86.3 L346.4,95.5 L350.0,105.4 L346.4,109.8 L346.1,115.0 L347.5,125.8 L350.1,126.0 L347.6,132.7 L350.9,146.6 L347.9,145.0 L346.4,148.1 L342.1,159.9 L333.3,162.5 L335.1,171.2 L332.9,176.7 L327.0,183.2 L322.4,186.0 L314.4,184.0 L309.2,188.2 L301.9,189.7 L298.9,192.3 L294.4,188.3 L295.2,183.4 L290.9,181.0 L287.5,174.9 L278.5,174.2 L279.1,167.7 L276.7,160.8 L279.2,154.5 L275.4,146.8 L277.0,143.8 L273.6,139.6 Z">
  <desc xmlns="http://www.highcharts.com/svg/namespace">
    <name>Haute-Normandie</name>
    <hc-middle-x>0.57</hc-middle-x>
    <hc-middle-y>0.44</hc-middle-y>
    <hc-key>fr-q</hc-key>
    <hc-a2>HN</hc-a2>
  </desc>
</path>

<path fill="#CEE3F5" stroke="#6E6E6E" stroke-width="0.4" id="FR.J" d="M335.1,171.2 L333.3,162.5 L342.1,159.9 L346.4,148.1 L348.4,151.5 L356.1,153.3 L366.4,150.0 L374.6,153.9 L379.7,152.9 L392.7,160.4 L395.0,159.3 L401.3,161.7 L403.3,160.3 L413.5,160.9 L418.8,158.7 L422.0,159.7 L423.9,166.8 L431.5,173.6 L433.4,173.2 L436.7,178.9 L439.9,179.1 L436.3,182.1 L435.7,187.1 L438.5,189.2 L439.4,196.0 L443.2,198.0 L438.6,204.5 L436.5,205.0 L435.7,214.2 L433.5,217.2 L416.9,218.3 L416.2,225.8 L411.8,230.8 L410.6,234.8 L405.3,236.7 L403.3,234.4 L397.7,237.4 L385.2,236.4 L388.6,230.6 L384.5,227.1 L382.6,221.9 L378.1,220.8 L374.9,222.6 L372.3,219.9 L368.3,223.0 L360.6,224.7 L361.2,221.3 L357.1,211.3 L350.8,209.3 L348.1,201.7 L339.1,190.2 L340.8,186.5 L339.1,178.9 Z">
  <desc xmlns="http://www.highcharts.com/svg/namespace">
    <name>Île-de-France</name>
    <hc-middle-x>0.49</hc-middle-x>
    <hc-middle-y>0.45</hc-middle-y>
    <hc-key>fr-j</hc-key>
    <hc-a2>ÎD</hc-a2>
  </desc>
</path>

<path fill="#CEE3F5" stroke="#6E6E6E" stroke-width="0.4" id="FR.M" d="M659.0,156.8 L655.7,164.4 L650.7,163.5 L643.5,165.2 L640.7,162.9 L633.4,160.8 L629.1,156.6 L625.0,169.8 L631.0,173.2 L631.6,178.0 L636.7,172.7 L642.3,178.7 L640.6,186.1 L642.6,188.3 L641.4,194.1 L637.5,198.4 L632.0,199.5 L634.2,202.6 L633.9,214.0 L639.3,216.8 L632.8,229.2 L633.6,231.4 L627.4,244.4 L626.0,254.4 L623.1,256.5 L613.6,251.3 L608.9,247.4 L607.0,250.1 L602.9,250.6 L596.0,247.0 L589.1,249.0 L583.6,243.7 L579.5,243.6 L574.4,248.9 L573.4,245.8 L570.1,249.7 L565.0,247.4 L564.3,242.7 L557.2,236.7 L559.7,227.7 L555.5,222.3 L552.7,222.2 L548.4,217.0 L544.4,218.2 L545.4,211.6 L539.3,205.3 L530.8,202.2 L522.7,196.3 L519.6,185.8 L516.0,182.9 L516.1,175.6 L520.2,171.4 L521.7,164.8 L519.2,162.0 L517.3,152.6 L518.3,147.0 L521.9,143.3 L521.4,139.2 L525.0,131.9 L522.6,125.6 L524.0,120.6 L534.5,121.4 L539.0,116.5 L543.8,125.4 L552.4,121.2 L558.2,120.7 L569.1,128.8 L574.5,128.1 L578.1,124.1 L584.0,124.3 L588.1,126.8 L592.1,125.9 L597.0,128.1 L601.5,133.8 L600.3,135.8 L605.2,140.9 L608.8,148.6 L614.6,150.5 L615.6,145.3 L625.0,147.1 L625.8,152.1 L629.1,150.1 L638.9,152.4 L645.0,146.9 L649.6,148.1 L652.3,153.4 Z">
  <desc xmlns="http://www.highcharts.com/svg/namespace">
    <name>Lorraine</name>
    <hc-middle-x>0.43</hc-middle-x>
    <hc-middle-y>0.49</hc-middle-y>
    <hc-key>fr-m</hc-key>
    <hc-a2>LO</hc-a2>
  </desc>
</path>
</g>

<text x="350" y="714" text-anchor="middle" font-family="Verdana" font-size="8" stroke-opacity="0.6">Copyright (c) 2014 Highsoft AS, Based on data from Natural Earth</text>

</svg>