<?xml version="1.0" encoding="utf-8" standalone="no"?>
<!DOCTYPE svg PUBLIC "-//W3C//DTD SVG 1.1//EN" "http://www.w3.org/Graphics/SVG/1.1/DTD/svg11.dtd">

<svg version="1.1" height="700pt" width="700pt" xmlns="http://www.w3.org/2000/svg" xmlns:xlink="http://www.w3.org/1999/xlink">
<desc>
Map version: 1.1.1
Copyright (c) 2014 Highsoft AS, Based on data from Natural Earth
</desc>
<title>Brazil</title>
<g id="admin1">

<g id="BR">
  <desc xmlns="http://www.highcharts.com/svg/namespace">
    <name>Brazil</name>
    <labelrank>2</labelrank>
    <country-abbrev>Brazil</country-abbrev>
    <subregion>South America</subregion>
    <woe-id>23424768</woe-id>
    <region-wb>Latin America &amp; Caribbean</region-wb>
    <iso-a3>BRA</iso-a3>
    <iso-a2>BR</iso-a2>
    <region-un>Americas</region-un>
    <continent>South America</continent>
    <hc-key>br</hc-key>
    <hc-a2>BR</hc-a2>
  </desc>
</g>

<path fill="#CEE3F5" stroke="#6E6E6E" stroke-width="0.4" id="BR.PA" d="M414.2,105.2 L413.9,107.6 L409.4,109.5 L409.9,106.8 Z M404.0,103.1 L406.4,98.7 L408.4,99.5 L404.4,103.0 L408.4,106.1 L406.0,113.2 L397.0,120.7 L393.9,120.2 L399.1,113.7 L399.0,109.9 Z M413.0,100.2 L410.4,99.0 L412.1,94.9 L415.3,93.9 L417.8,96.3 Z M438.4,93.5 L440.9,94.9 L439.2,96.9 L432.1,96.6 Z M425.2,90.0 L427.2,90.8 L435.4,87.8 L437.6,89.3 L432.2,94.5 L422.9,93.9 L422.5,90.9 Z M420.3,91.9 L421.1,95.0 L417.7,93.5 L419.9,91.8 L422.5,83.6 L423.3,88.6 Z M428.6,84.3 L424.1,88.3 L423.7,85.2 L427.9,83.1 Z M437.6,124.9 L432.3,127.3 L428.6,124.5 L426.3,126.6 L418.2,126.3 L414.6,120.3 L415.1,106.6 L417.3,99.5 L422.5,96.6 L435.4,99.1 L443.2,97.3 L457.4,99.4 L455.4,110.8 L449.9,116.5 L450.0,120.6 L443.7,123.6 Z M499.6,116.6 L497.5,121.5 L495.6,134.0 L493.6,135.1 L493.3,140.0 L489.0,144.1 L488.9,150.5 L483.9,156.0 L481.7,163.9 L471.0,177.6 L468.4,177.4 L451.7,190.9 L458.1,191.8 L462.0,196.2 L459.4,197.6 L460.6,201.0 L456.8,205.6 L457.5,209.0 L453.6,210.3 L452.2,214.4 L442.9,218.6 L443.1,224.4 L439.4,231.0 L443.4,234.8 L440.6,245.1 L436.0,252.8 L432.6,254.7 L427.2,261.8 L423.9,271.1 L405.1,270.0 L337.7,265.8 L313.4,264.2 L307.9,263.0 L303.0,260.0 L302.0,256.8 L293.4,251.6 L291.6,245.9 L292.3,242.2 L289.7,238.9 L287.7,232.6 L283.3,226.3 L278.6,219.5 L277.3,214.9 L280.3,211.2 L314.1,137.5 L312.2,133.4 L307.7,133.7 L307.8,131.5 L301.6,127.2 L291.3,123.2 L278.1,113.5 L277.2,110.2 L271.6,105.9 L269.8,101.1 L269.4,90.7 L267.6,71.2 L271.2,73.2 L275.8,72.0 L275.9,68.9 L279.2,66.2 L284.7,67.5 L285.4,65.0 L293.0,64.1 L297.0,59.5 L301.3,58.5 L306.6,61.2 L314.5,60.2 L320.8,61.9 L322.7,58.3 L319.0,53.0 L321.3,49.6 L326.1,51.9 L333.7,49.7 L339.5,49.3 L343.2,50.8 L344.2,54.2 L342.8,58.8 L343.9,63.0 L350.5,63.2 L359.1,69.6 L365.1,70.3 L367.6,77.9 L373.1,81.9 L372.8,87.8 L376.6,98.2 L381.8,101.8 L383.8,110.4 L386.7,113.9 L392.1,116.4 L394.8,115.4 L394.5,118.5 L389.6,118.8 L380.4,123.4 L388.1,121.9 L388.6,125.2 L394.6,122.8 L414.3,111.5 L411.9,114.9 L417.2,127.0 L421.1,129.4 L429.5,127.5 L435.3,129.2 L441.0,125.5 L437.2,139.9 L437.5,141.9 L442.9,129.7 L447.7,123.4 L447.6,126.8 L453.5,119.6 L457.5,124.3 L456.8,115.7 L464.4,106.6 L469.9,104.5 L474.2,108.5 L474.8,105.4 L481.8,106.9 L481.7,109.8 L486.4,107.6 L492.5,113.2 L498.0,111.4 L497.1,115.3 Z">
  <desc xmlns="http://www.highcharts.com/svg/namespace">
    <labelrank>2</labelrank>
    <hasc>BR.PA</hasc>
    <alt-name>NULL</alt-name>
    <woe-id>2344857</woe-id>
    <subregion>NULL</subregion>
    <fips>BR16</fips>
    <postal-code>PA</postal-code>
    <name>Pará</name>
    <country>Brazil</country>
    <type-en>State</type-en>
    <region>NULL</region>
    <longitude>-52.6491</longitude>
    <woe-name>Pará</woe-name>
    <latitude>-4.44313</latitude>
    <woe-label>Para, BR, Brazil</woe-label>
    <type>Estado</type>
    <hc-middle-x>0.45</hc-middle-x>
    <hc-middle-y>0.62</hc-middle-y>
    <hc-key>br-pa</hc-key>
    <hc-a2>PA</hc-a2>
  </desc>
</path>

<path fill="#CEE3F5" stroke="#6E6E6E" stroke-width="0.4" id="BR.SC" d="M444.0,594.4 L444.8,587.4 L447.0,588.1 L446.3,590.5 Z M424.4,620.7 L420.0,616.6 L421.0,611.1 L425.1,607.6 L424.3,605.4 L417.9,605.4 L410.7,603.2 L403.6,593.1 L394.5,586.8 L390.6,587.0 L388.8,584.0 L382.0,581.9 L377.9,582.9 L372.3,579.7 L368.1,581.4 L359.7,580.8 L361.8,575.6 L361.6,566.7 L362.6,564.6 L367.5,564.3 L371.3,566.6 L376.2,566.0 L386.2,568.2 L389.2,570.6 L401.6,571.3 L400.9,568.0 L404.4,564.7 L409.9,564.7 L411.4,561.9 L422.7,561.2 L428.3,565.1 L436.3,561.3 L444.8,561.4 L446.1,566.0 L443.1,571.7 L444.2,585.9 L442.6,588.3 L443.6,595.2 L439.1,608.5 L430.5,613.8 Z">
  <desc xmlns="http://www.highcharts.com/svg/namespace">
    <labelrank>2</labelrank>
    <hasc>BR.SC</hasc>
    <alt-name>Santa Catharina</alt-name>
    <woe-id>2344867</woe-id>
    <subregion>NULL</subregion>
    <fips>BR26</fips>
    <postal-code>SC</postal-code>
    <name>Santa Catarina</name>
    <country>Brazil</country>
    <type-en>State</type-en>
    <region>NULL</region>
    <longitude>-51.1586</longitude>
    <woe-name>Santa Catarina</woe-name>
    <latitude>-27.0392</latitude>
    <woe-label>Santa Catarina, BR, Brazil</woe-label>
    <type>Estado</type>
    <hc-middle-x>0.69</hc-middle-x>
    <hc-middle-y>0.38</hc-middle-y>
    <hc-key>br-sc</hc-key>
    <hc-a2>SC</hc-a2>
  </desc>
</path>

<path fill="#CEE3F5" stroke="#6E6E6E" stroke-width="0.4" id="BR.AP" d="M428.1,78.6 L427.3,81.2 L424.2,80.2 L430.4,75.6 Z M420.8,56.7 L423.5,59.8 L420.8,61.0 L419.7,58.9 Z M394.8,115.4 L392.1,116.4 L386.7,113.9 L383.8,110.4 L381.8,101.8 L376.6,98.2 L372.8,87.8 L373.1,81.9 L367.6,77.9 L365.1,70.3 L359.1,69.6 L350.5,63.2 L343.9,63.0 L342.8,58.8 L344.2,54.2 L343.2,50.8 L344.5,53.2 L354.7,57.0 L360.2,53.4 L365.5,54.6 L368.9,52.7 L375.8,55.8 L380.4,52.5 L393.3,28.5 L396.9,23.5 L402.0,21.3 L401.7,15.3 L406.9,20.2 L407.8,29.4 L409.6,25.2 L409.4,34.3 L416.9,55.8 L420.7,62.2 L425.8,62.1 L430.7,64.9 L431.1,73.8 L423.5,80.1 L414.9,91.7 L412.4,92.0 L406.6,97.0 L403.1,103.2 L398.6,108.1 L398.1,113.3 Z">
  <desc xmlns="http://www.highcharts.com/svg/namespace">
    <labelrank>2</labelrank>
    <hasc>BR.AP</hasc>
    <alt-name>NULL</alt-name>
    <woe-id>2344846</woe-id>
    <subregion>NULL</subregion>
    <fips>BR03</fips>
    <postal-code>AP</postal-code>
    <name>Amapá</name>
    <country>Brazil</country>
    <type-en>State</type-en>
    <region>NULL</region>
    <longitude>-51.6842</longitude>
    <woe-name>Amapá</woe-name>
    <latitude>1.41157</latitude>
    <woe-label>Amapa, BR, Brazil</woe-label>
    <type>Estado</type>
    <hc-middle-x>0.62</hc-middle-x>
    <hc-middle-y>0.51</hc-middle-y>
    <hc-key>br-ap</hc-key>
    <hc-a2>AP</hc-a2>
  </desc>
</path>

<path fill="#CEE3F5" stroke="#6E6E6E" stroke-width="0.4" id="BR.MS" d="M355.8,523.2 L353.1,525.0 L346.6,520.6 L341.6,523.6 L334.1,523.8 L331.9,517.1 L331.7,510.4 L330.0,506.4 L330.0,499.7 L325.9,494.2 L320.5,493.6 L316.7,489.9 L309.8,493.9 L303.5,492.2 L293.0,491.7 L290.6,489.8 L291.9,483.5 L292.9,470.3 L290.1,465.7 L289.8,461.0 L286.8,456.3 L291.8,452.9 L287.2,448.5 L292.6,436.3 L292.7,433.7 L296.4,420.6 L293.2,412.6 L298.5,414.8 L303.4,413.3 L309.7,404.8 L317.1,404.1 L321.0,402.3 L329.5,405.9 L336.9,411.1 L348.1,408.0 L350.4,410.8 L354.7,410.0 L360.2,404.3 L362.6,403.4 L361.4,410.3 L357.3,414.9 L361.8,416.8 L373.3,417.0 L373.2,422.0 L377.9,423.8 L376.4,428.9 L382.8,429.4 L397.2,437.2 L405.8,440.1 L408.7,443.5 L407.5,448.5 L408.0,454.8 L402.3,459.3 L397.2,465.3 L397.0,468.5 L392.8,473.7 L392.9,476.8 L388.8,480.4 L389.9,482.5 L384.3,490.2 L374.3,496.6 L370.9,500.9 L363.8,504.8 L361.7,511.5 L358.0,513.8 Z">
  <desc xmlns="http://www.highcharts.com/svg/namespace">
    <labelrank>2</labelrank>
    <hasc>BR.MS</hasc>
    <alt-name>NULL</alt-name>
    <woe-id>2344853</woe-id>
    <subregion>NULL</subregion>
    <fips>BR11</fips>
    <postal-code>MS</postal-code>
    <name>Mato Grosso do Sul</name>
    <country>Brazil</country>
    <type-en>State</type-en>
    <region>NULL</region>
    <longitude>-54.5502</longitude>
    <woe-name>Mato Grosso do Sul</woe-name>
    <latitude>-20.6756</latitude>
    <woe-label>Mato Grosso do Sul, BR, Brazil</woe-label>
    <type>Estado</type>
    <hc-middle-x>0.45</hc-middle-x>
    <hc-middle-y>0.43</hc-middle-y>
    <hc-key>br-ms</hc-key>
    <hc-a2>MS</hc-a2>
  </desc>
</path>

<path fill="#CEE3F5" stroke="#6E6E6E" stroke-width="0.4" id="BR.MG" d="M408.0,454.8 L407.5,448.5 L408.7,443.5 L419.8,430.1 L428.8,428.7 L434.1,426.6 L436.3,428.9 L443.4,423.7 L455.9,424.7 L461.3,426.5 L472.2,419.8 L471.1,416.6 L472.3,410.6 L468.2,408.8 L468.8,406.6 L475.0,400.4 L473.2,394.7 L470.1,391.5 L473.0,383.5 L473.0,383.5 L473.0,383.5 L473.0,383.5 L473.0,383.5 L481.3,380.2 L479.7,372.7 L480.7,365.9 L486.7,365.9 L487.4,360.0 L491.1,363.7 L495.9,363.1 L494.8,369.9 L501.1,367.9 L509.9,361.3 L515.9,359.0 L521.7,354.6 L526.0,353.0 L535.1,355.2 L533.6,360.9 L540.0,363.5 L544.7,361.0 L549.4,362.0 L555.7,366.9 L564.0,371.9 L569.0,370.8 L576.3,378.3 L576.6,382.4 L579.5,383.8 L583.3,382.0 L595.4,385.4 L601.4,391.2 L599.9,394.9 L594.2,399.1 L593.1,404.8 L589.0,405.5 L587.0,413.8 L593.4,421.2 L593.1,425.1 L589.5,423.2 L581.1,424.1 L583.2,426.5 L576.7,429.7 L578.9,432.7 L579.7,439.3 L576.6,440.6 L579.0,445.5 L578.3,451.4 L574.7,454.6 L569.7,464.4 L564.5,463.9 L561.3,474.1 L557.2,476.4 L551.6,489.0 L553.0,490.6 L540.0,495.3 L534.9,494.5 L527.0,495.1 L520.1,498.0 L516.3,497.9 L509.7,500.2 L499.8,504.0 L495.9,502.7 L494.1,506.4 L487.4,507.7 L483.9,506.7 L482.2,503.7 L483.7,501.0 L478.7,497.0 L480.5,493.7 L479.7,487.8 L482.6,481.6 L477.6,479.6 L474.4,480.2 L471.4,469.3 L473.2,466.3 L470.3,462.4 L471.4,458.5 L467.6,453.9 L458.8,454.8 L454.8,456.2 L444.3,456.8 L442.0,460.9 L440.9,456.3 L439.0,459.0 L436.7,456.6 L437.1,453.0 L426.8,452.1 L415.4,449.6 Z">
  <desc xmlns="http://www.highcharts.com/svg/namespace">
    <labelrank>2</labelrank>
    <hasc>BR.MG</hasc>
    <alt-name>Minas|Minas Geraes</alt-name>
    <woe-id>2344856</woe-id>
    <subregion>NULL</subregion>
    <fips>BR15</fips>
    <postal-code>MG</postal-code>
    <name>Minas Gerais</name>
    <country>Brazil</country>
    <type-en>State</type-en>
    <region>NULL</region>
    <longitude>-44.4808</longitude>
    <woe-name>Minas Gerais</woe-name>
    <latitude>-18.5895</latitude>
    <woe-label>Minas Gerais, BR, Brazil</woe-label>
    <type>Estado</type>
    <hc-middle-x>0.60</hc-middle-x>
    <hc-middle-y>0.45</hc-middle-y>
    <hc-key>br-mg</hc-key>
    <hc-a2>MG</hc-a2>
  </desc>
</path>

<path fill="#CEE3F5" stroke="#6E6E6E" stroke-width="0.4" id="BR.GO" d="M470.1,391.5 L473.2,394.7 L475.0,400.4 L468.8,406.6 L468.2,408.8 L472.3,410.6 L471.1,416.6 L472.2,419.8 L461.3,426.5 L455.9,424.7 L443.4,423.7 L436.3,428.9 L434.1,426.6 L428.8,428.7 L419.8,430.1 L408.7,443.5 L405.8,440.1 L397.2,437.2 L382.8,429.4 L376.4,428.9 L377.9,423.8 L373.2,422.0 L373.3,417.0 L370.1,408.9 L370.8,403.9 L374.0,396.5 L380.7,390.4 L380.1,386.2 L387.4,379.5 L393.8,377.6 L397.8,367.0 L403.7,362.5 L407.6,361.3 L412.0,347.3 L412.0,340.3 L417.2,331.7 L418.8,324.9 L421.2,319.5 L424.8,317.0 L422.5,323.9 L423.1,326.5 L432.8,331.0 L438.0,332.4 L442.5,323.3 L448.0,325.9 L448.7,334.5 L450.8,331.4 L459.3,331.6 L467.8,335.0 L468.6,330.7 L470.3,334.0 L478.2,330.6 L482.9,330.2 L486.1,327.7 L493.4,325.6 L496.0,327.9 L494.2,333.2 L495.8,333.9 L492.3,341.1 L494.5,350.7 L498.0,353.8 L497.9,360.0 L495.9,363.1 L491.1,363.7 L487.4,360.0 L486.7,365.9 L480.7,365.9 L479.7,372.7 L481.3,380.2 L473.0,383.5 L473.2,375.4 L471.2,373.7 L458.1,373.1 L456.2,379.4 L457.8,383.0 L473.0,383.5 L473.0,383.5 L473.0,383.5 Z">
  <desc xmlns="http://www.highcharts.com/svg/namespace">
    <labelrank>2</labelrank>
    <hasc>BR.GO</hasc>
    <alt-name>Goiáz|Goyáz</alt-name>
    <woe-id>2344852</woe-id>
    <subregion>NULL</subregion>
    <fips>BR29</fips>
    <postal-code>GO</postal-code>
    <name>Goiás</name>
    <country>Brazil</country>
    <type-en>State</type-en>
    <region>NULL</region>
    <longitude>-49.5786</longitude>
    <woe-name>Goiás</woe-name>
    <latitude>-15.863</latitude>
    <woe-label>Goias, BR, Brazil</woe-label>
    <type>Estado</type>
    <hc-middle-x>0.48</hc-middle-x>
    <hc-middle-y>0.55</hc-middle-y>
    <hc-key>br-go</hc-key>
    <hc-a2>GO</hc-a2>
  </desc>
</path>

<path fill="#CEE3F5" stroke="#6E6E6E" stroke-width="0.4" id="BR.RS" d="M424.4,620.7 L418.9,629.3 L414.3,640.8 L407.7,651.1 L400.9,658.7 L389.8,666.6 L386.3,670.4 L387.5,666.9 L392.3,664.1 L400.5,656.5 L401.0,651.3 L407.7,646.5 L408.6,638.7 L400.2,635.3 L400.8,638.6 L397.7,643.9 L396.6,651.4 L393.5,654.5 L389.1,655.3 L386.3,662.2 L384.6,662.8 L383.7,672.7 L377.9,687.4 L374.9,691.3 L366.4,698.7 L364.0,697.0 L365.5,694.8 L365.2,689.6 L368.3,687.1 L370.4,681.8 L374.1,684.1 L376.3,683.0 L378.5,678.0 L376.7,673.5 L369.7,679.3 L366.0,677.6 L362.5,673.5 L360.6,668.3 L355.1,665.8 L350.0,661.6 L348.0,658.0 L344.5,657.4 L341.3,654.4 L337.7,653.7 L332.5,647.0 L328.4,651.1 L326.1,651.3 L326.0,646.2 L313.0,634.0 L309.2,634.1 L307.1,637.5 L302.1,637.4 L300.9,635.8 L305.2,632.0 L305.7,629.0 L308.7,627.8 L319.1,615.0 L329.0,600.1 L334.2,597.3 L336.2,594.3 L340.8,593.0 L342.8,589.1 L351.6,584.9 L354.3,582.2 L359.7,580.8 L368.1,581.4 L372.3,579.7 L377.9,582.9 L382.0,581.9 L388.8,584.0 L390.6,587.0 L394.5,586.8 L403.6,593.1 L410.7,603.2 L417.9,605.4 L424.3,605.4 L425.1,607.6 L421.0,611.1 L420.0,616.6 Z">
  <desc xmlns="http://www.highcharts.com/svg/namespace">
    <labelrank>2</labelrank>
    <hasc>BR.RS</hasc>
    <alt-name>NULL</alt-name>
    <woe-id>2344864</woe-id>
    <subregion>NULL</subregion>
    <fips>BR23</fips>
    <postal-code>RS</postal-code>
    <name>Rio Grande do Sul</name>
    <country>Brazil</country>
    <type-en>State</type-en>
    <region>NULL</region>
    <longitude>-53.656</longitude>
    <woe-name>Rio Grande do Sul</woe-name>
    <latitude>-29.7277</latitude>
    <woe-label>Rio Grande do Sul, BR, Brazil</woe-label>
    <type>Estado</type>
    <hc-middle-x>0.54</hc-middle-x>
    <hc-middle-y>0.37</hc-middle-y>
    <hc-key>br-rs</hc-key>
    <hc-a2>RS</hc-a2>
  </desc>
</path>

<path fill="#CEE3F5" stroke="#6E6E6E" stroke-width="0.4" id="BR.TO" d="M499.8,281.0 L501.9,281.3 L503.1,281.4 L501.2,283.8 L493.2,288.8 L488.3,298.8 L490.7,302.1 L496.7,304.1 L493.7,308.4 L496.7,310.0 L491.9,313.5 L492.2,318.9 L494.9,320.4 L493.4,325.6 L486.1,327.7 L482.9,330.2 L478.2,330.6 L470.3,334.0 L468.6,330.7 L467.8,335.0 L459.3,331.6 L450.8,331.4 L448.7,334.5 L448.0,325.9 L442.5,323.3 L438.0,332.4 L432.8,331.0 L423.1,326.5 L422.5,323.9 L424.8,317.0 L421.2,319.5 L418.8,324.9 L415.7,321.0 L416.2,302.7 L414.6,300.7 L417.0,292.3 L417.3,285.6 L423.9,271.1 L427.2,261.8 L432.6,254.7 L436.0,252.8 L440.6,245.1 L443.4,234.8 L439.4,231.0 L443.1,224.4 L442.9,218.6 L452.2,214.4 L453.6,210.3 L457.5,209.0 L456.8,205.6 L460.6,201.0 L459.4,197.6 L462.0,196.2 L458.1,191.8 L451.7,190.9 L455.8,187.9 L467.1,189.7 L467.5,191.5 L472.9,193.3 L475.1,200.4 L475.7,206.9 L473.0,220.9 L468.9,224.1 L473.0,225.7 L473.2,228.8 L481.6,239.6 L489.5,237.3 L491.4,240.3 L490.7,246.2 L485.5,246.8 L483.3,253.8 L480.1,257.5 L484.3,259.9 L485.8,264.3 L489.6,267.0 L487.2,270.4 L490.0,272.5 L492.7,278.2 Z">
  <desc xmlns="http://www.highcharts.com/svg/namespace">
    <labelrank>2</labelrank>
    <hasc>BR.TO</hasc>
    <alt-name>NULL</alt-name>
    <woe-id>2344870</woe-id>
    <subregion>NULL</subregion>
    <fips>BR31</fips>
    <postal-code>TO</postal-code>
    <name>Tocantins</name>
    <country>Brazil</country>
    <type-en>State</type-en>
    <region>NULL</region>
    <longitude>-48.2502</longitude>
    <woe-name>Tocantins</woe-name>
    <latitude>-10.223</latitude>
    <woe-label>Tocantins, BR, Brazil</woe-label>
    <type>Estado</type>
    <hc-middle-x>0.47</hc-middle-x>
    <hc-middle-y>0.57</hc-middle-y>
    <hc-key>br-to</hc-key>
    <hc-a2>TO</hc-a2>
  </desc>
</path>

<path fill="#CEE3F5" stroke="#6E6E6E" stroke-width="0.4" id="BR.PI" d="M503.1,281.4 L501.9,281.3 L499.8,281.0 L501.4,275.4 L502.0,266.9 L499.7,256.0 L502.7,251.9 L507.2,242.1 L509.2,233.5 L512.4,231.4 L522.9,228.7 L530.3,223.7 L535.2,217.6 L541.7,216.5 L545.5,219.1 L554.1,217.6 L556.6,208.7 L552.7,205.0 L552.3,197.1 L557.3,191.5 L557.0,184.7 L555.3,181.7 L557.0,176.7 L554.7,172.0 L559.4,166.2 L563.7,157.7 L568.8,157.4 L575.6,150.2 L575.7,145.3 L578.7,147.4 L586.3,149.9 L582.6,157.7 L586.4,168.8 L589.1,174.1 L586.2,177.9 L586.9,184.8 L591.0,194.1 L591.8,205.0 L594.7,217.0 L599.9,219.9 L596.7,226.9 L597.4,230.5 L594.7,231.2 L595.0,237.2 L597.0,238.6 L596.0,244.0 L589.9,249.4 L588.3,249.1 L581.8,254.3 L579.4,258.3 L575.2,259.0 L573.0,263.9 L569.6,262.9 L564.8,264.6 L559.2,269.1 L555.0,268.7 L550.2,265.3 L545.7,265.9 L544.5,263.9 L538.0,266.0 L540.1,272.8 L539.6,277.1 L535.7,284.1 L530.2,287.5 L526.6,286.7 L515.4,291.9 L510.7,289.7 L505.8,281.4 Z">
  <desc xmlns="http://www.highcharts.com/svg/namespace">
    <labelrank>2</labelrank>
    <hasc>BR.PI</hasc>
    <alt-name>Piauhy</alt-name>
    <woe-id>2344861</woe-id>
    <subregion>NULL</subregion>
    <fips>BR20</fips>
    <postal-code>PI</postal-code>
    <name>Piauí</name>
    <country>Brazil</country>
    <type-en>State</type-en>
    <region>NULL</region>
    <longitude>-43.1974</longitude>
    <woe-name>Piauí</woe-name>
    <latitude>-8.086980000000001</latitude>
    <woe-label>Piaui, BR, Brazil</woe-label>
    <type>Estado</type>
    <hc-middle-x>0.54</hc-middle-x>
    <hc-middle-y>0.66</hc-middle-y>
    <hc-key>br-pi</hc-key>
    <hc-a2>PI</hc-a2>
  </desc>
</path>

<path fill="#CEE3F5" stroke="#6E6E6E" stroke-width="0.4" id="BR.AL" d="M692.2,262.7 L689.2,267.8 L668.4,291.2 L664.8,286.4 L661.3,285.5 L659.4,281.6 L653.3,277.4 L641.1,271.7 L637.7,269.4 L637.1,267.8 L642.0,264.5 L646.1,259.5 L650.1,261.2 L655.8,267.0 L660.1,269.4 L670.7,267.0 L676.9,261.5 L682.1,262.3 L686.6,260.9 Z">
  <desc xmlns="http://www.highcharts.com/svg/namespace">
    <labelrank>2</labelrank>
    <hasc>BR.AL</hasc>
    <alt-name>NULL</alt-name>
    <woe-id>2344845</woe-id>
    <subregion>NULL</subregion>
    <fips>BR02</fips>
    <postal-code>AL</postal-code>
    <name>Alagoas</name>
    <country>Brazil</country>
    <type-en>State</type-en>
    <region>NULL</region>
    <longitude>-36.6917</longitude>
    <woe-name>Alagoas</woe-name>
    <latitude>-9.773910000000001</latitude>
    <woe-label>Alagoas, BR, Brazil</woe-label>
    <type>Estado</type>
    <hc-middle-x>0.87</hc-middle-x>
    <hc-middle-y>0.40</hc-middle-y>
    <hc-key>br-al</hc-key>
    <hc-a2>AL</hc-a2>
  </desc>
</path>

<path fill="#CEE3F5" stroke="#6E6E6E" stroke-width="0.4" id="BR.PB" d="M697.5,217.4 L700.0,229.9 L699.4,237.1 L698.0,237.1 L695.0,234.4 L687.3,235.0 L686.1,238.6 L680.4,241.3 L670.5,241.2 L666.6,245.9 L660.5,249.4 L657.7,247.0 L657.4,243.5 L654.0,243.8 L657.3,239.5 L656.9,235.9 L660.2,232.9 L656.1,230.3 L652.8,231.6 L642.8,239.1 L637.8,240.4 L636.2,237.5 L633.1,238.7 L630.1,235.8 L633.3,229.9 L630.8,227.3 L630.0,222.3 L633.9,213.0 L640.9,215.8 L646.1,212.6 L647.7,209.6 L656.7,207.1 L658.2,208.8 L652.0,216.8 L651.8,219.1 L657.0,222.0 L661.2,220.0 L664.7,221.2 L666.0,225.1 L668.4,224.3 L671.0,218.7 L670.3,214.1 L680.4,216.1 L684.9,215.5 L691.4,217.7 Z">
  <desc xmlns="http://www.highcharts.com/svg/namespace">
    <labelrank>2</labelrank>
    <hasc>BR.PB</hasc>
    <alt-name>Parahyba</alt-name>
    <woe-id>2344858</woe-id>
    <subregion>NULL</subregion>
    <fips>BR17</fips>
    <postal-code>PB</postal-code>
    <name>Paraíba</name>
    <country>Brazil</country>
    <type-en>State</type-en>
    <region>NULL</region>
    <longitude>-36.2726</longitude>
    <woe-name>Paraíba</woe-name>
    <latitude>-7.34234</latitude>
    <woe-label>Paraiba, BR, Brazil</woe-label>
    <type>Estado</type>
    <hc-middle-x>0.74</hc-middle-x>
    <hc-middle-y>0.47</hc-middle-y>
    <hc-key>br-pb</hc-key>
    <hc-a2>PB</hc-a2>
  </desc>
</path>

<path fill="#CEE3F5" stroke="#6E6E6E" stroke-width="0.4" id="BR.CE" d="M633.9,213.0 L630.0,222.3 L630.8,227.3 L633.3,229.9 L630.1,235.8 L625.1,239.9 L613.2,230.7 L597.4,230.5 L596.7,226.9 L599.9,219.9 L594.7,217.0 L591.8,205.0 L591.0,194.1 L586.9,184.8 L586.2,177.9 L589.1,174.1 L586.4,168.8 L582.6,157.7 L586.3,149.9 L585.9,147.5 L599.8,145.9 L609.1,147.2 L620.3,153.5 L632.7,162.8 L635.9,163.3 L642.4,171.9 L648.4,176.5 L651.2,180.5 L656.3,182.3 L657.8,184.8 L649.0,188.9 L641.3,203.9 L633.0,210.7 Z">
  <desc xmlns="http://www.highcharts.com/svg/namespace">
    <labelrank>2</labelrank>
    <hasc>BR.CE</hasc>
    <alt-name>NULL</alt-name>
    <woe-id>2344849</woe-id>
    <subregion>NULL</subregion>
    <fips>BR06</fips>
    <postal-code>CE</postal-code>
    <name>Ceará</name>
    <country>Brazil</country>
    <type-en>State</type-en>
    <region>NULL</region>
    <longitude>-39.3429</longitude>
    <woe-name>Ceará</woe-name>
    <latitude>-5.37602</latitude>
    <woe-label>Ceara, BR, Brazil</woe-label>
    <type>Estado</type>
    <hc-middle-x>0.42</hc-middle-x>
    <hc-middle-y>0.42</hc-middle-y>
    <hc-key>br-ce</hc-key>
    <hc-a2>CE</hc-a2>
  </desc>
</path>

<path fill="#CEE3F5" stroke="#6E6E6E" stroke-width="0.4" id="BR.SE" d="M668.4,291.2 L659.3,295.8 L651.4,307.2 L648.3,309.1 L642.8,308.9 L639.3,305.6 L639.8,303.4 L635.7,296.9 L636.6,293.5 L640.5,294.4 L643.9,292.3 L643.2,288.4 L644.5,282.1 L641.4,278.1 L641.1,271.7 L653.3,277.4 L659.4,281.6 L661.3,285.5 L664.8,286.4 Z">
  <desc xmlns="http://www.highcharts.com/svg/namespace">
    <labelrank>2</labelrank>
    <hasc>BR.SE</hasc>
    <alt-name>NULL</alt-name>
    <woe-id>2344869</woe-id>
    <subregion>NULL</subregion>
    <fips>BR28</fips>
    <postal-code>SE</postal-code>
    <name>Sergipe</name>
    <country>Brazil</country>
    <type-en>State</type-en>
    <region>NULL</region>
    <longitude>-37.3836</longitude>
    <woe-name>Sergipe</woe-name>
    <latitude>-10.5918</latitude>
    <woe-label>Sergipe, BR, Brazil</woe-label>
    <type>Estado</type>
    <hc-middle-x>0.60</hc-middle-x>
    <hc-middle-y>0.74</hc-middle-y>
    <hc-key>br-se</hc-key>
    <hc-a2>SE</hc-a2>
  </desc>
</path>

<path fill="#CEE3F5" stroke="#6E6E6E" stroke-width="0.4" id="BR.RR" d="M188.3,54.2 L188.3,50.9 L176.4,49.9 L177.4,45.6 L173.4,38.0 L173.8,29.4 L168.0,24.7 L163.0,17.3 L167.0,19.8 L175.3,20.5 L176.4,23.7 L187.9,22.8 L190.4,23.7 L196.7,30.2 L199.9,28.5 L199.7,22.0 L206.6,19.3 L210.0,20.8 L221.3,18.1 L226.2,13.2 L231.3,13.3 L233.3,10.1 L238.5,6.5 L237.5,0.9 L241.4,1.6 L245.7,0.0 L249.8,3.3 L248.9,9.8 L246.8,13.6 L255.1,16.0 L254.3,19.7 L257.8,24.1 L252.2,29.9 L252.5,34.3 L250.0,39.6 L249.2,46.3 L251.0,52.3 L253.8,54.1 L253.7,61.5 L262.8,70.0 L267.6,71.2 L269.4,90.7 L248.7,90.7 L243.5,99.0 L242.1,104.1 L243.0,107.4 L235.9,110.0 L232.4,104.7 L229.2,103.6 L221.5,107.9 L220.3,120.3 L215.3,119.5 L212.6,115.4 L204.0,108.7 L207.5,106.3 L206.4,100.9 L202.7,94.4 L205.1,80.2 L202.0,69.1 L199.0,65.7 L200.5,59.5 L195.1,58.2 L192.6,55.3 Z">
  <desc xmlns="http://www.highcharts.com/svg/namespace">
    <labelrank>2</labelrank>
    <hasc>BR.RR</hasc>
    <alt-name>Rio Branco</alt-name>
    <woe-id>2344866</woe-id>
    <subregion>NULL</subregion>
    <fips>BR25</fips>
    <postal-code>RR</postal-code>
    <name>Roraima</name>
    <country>Brazil</country>
    <type-en>State</type-en>
    <region>NULL</region>
    <longitude>-61.3325</longitude>
    <woe-name>Roraima</woe-name>
    <latitude>1.93803</latitude>
    <woe-label>Roraima, BR, Brazil</woe-label>
    <type>Estado</type>
    <hc-middle-x>0.59</hc-middle-x>
    <hc-middle-y>0.51</hc-middle-y>
    <hc-key>br-rr</hc-key>
    <hc-a2>RR</hc-a2>
  </desc>
</path>

<path fill="#CEE3F5" stroke="#6E6E6E" stroke-width="0.4" id="BR.SP" d="M370.9,500.9 L374.3,496.6 L384.3,490.2 L389.9,482.5 L388.8,480.4 L392.9,476.8 L392.8,473.7 L397.0,468.5 L397.2,465.3 L402.3,459.3 L408.0,454.8 L415.4,449.6 L426.8,452.1 L437.1,453.0 L436.7,456.6 L439.0,459.0 L440.9,456.3 L442.0,460.9 L444.3,456.8 L454.8,456.2 L458.8,454.8 L467.6,453.9 L471.4,458.5 L470.3,462.4 L473.2,466.3 L471.4,469.3 L474.4,480.2 L477.6,479.6 L482.6,481.6 L479.7,487.8 L480.5,493.7 L478.7,497.0 L483.7,501.0 L482.2,503.7 L483.9,506.7 L487.4,507.7 L494.1,506.4 L495.9,502.7 L499.8,504.0 L509.7,500.2 L512.7,503.9 L519.7,504.2 L518.5,508.3 L509.6,510.8 L508.3,514.6 L510.3,517.4 L507.6,517.0 L498.3,522.3 L501.6,524.5 L501.0,526.7 L491.2,523.6 L486.4,524.9 L472.5,532.4 L471.9,534.3 L462.6,539.9 L456.8,545.0 L453.4,549.6 L451.3,544.3 L445.8,544.8 L445.3,538.0 L434.1,537.3 L435.4,531.5 L429.5,522.8 L429.3,511.9 L424.0,505.5 L410.4,505.8 L408.9,503.6 L401.1,500.3 L397.9,500.9 L389.3,497.8 L386.8,500.0 L374.6,498.6 Z">
  <desc xmlns="http://www.highcharts.com/svg/namespace">
    <labelrank>2</labelrank>
    <hasc>BR.SP</hasc>
    <alt-name>NULL</alt-name>
    <woe-id>2344868</woe-id>
    <subregion>NULL</subregion>
    <fips>BR32</fips>
    <postal-code>SP</postal-code>
    <name>São Paulo</name>
    <country>Brazil</country>
    <type-en>State</type-en>
    <region>NULL</region>
    <longitude>-48.5206</longitude>
    <woe-name>São Paulo</woe-name>
    <latitude>-22.2267</latitude>
    <woe-label>Sao Paulo, BR, Brazil</woe-label>
    <type>Estado</type>
    <hc-middle-x>0.44</hc-middle-x>
    <hc-middle-y>0.32</hc-middle-y>
    <hc-key>br-sp</hc-key>
    <hc-a2>SP</hc-a2>
  </desc>
</path>

<path fill="#CEE3F5" stroke="#6E6E6E" stroke-width="0.4" id="BR.PE" d="M692.2,262.7 L686.6,260.9 L682.1,262.3 L676.9,261.5 L670.7,267.0 L660.1,269.4 L655.8,267.0 L650.1,261.2 L646.1,259.5 L642.0,264.5 L637.1,267.8 L635.8,261.4 L632.3,258.1 L624.5,257.3 L616.9,252.2 L607.9,257.4 L607.8,260.0 L601.1,262.2 L599.9,266.7 L594.6,268.9 L592.2,268.2 L593.3,263.9 L590.7,262.6 L590.3,257.2 L585.6,254.3 L581.8,254.3 L588.3,249.1 L589.9,249.4 L596.0,244.0 L597.0,238.6 L595.0,237.2 L594.7,231.2 L597.4,230.5 L613.2,230.7 L625.1,239.9 L630.1,235.8 L633.1,238.7 L636.2,237.5 L637.8,240.4 L642.8,239.1 L652.8,231.6 L656.1,230.3 L660.2,232.9 L656.9,235.9 L657.3,239.5 L654.0,243.8 L657.4,243.5 L657.7,247.0 L660.5,249.4 L666.6,245.9 L670.5,241.2 L680.4,241.3 L686.1,238.6 L687.3,235.0 L695.0,234.4 L698.0,237.1 L699.1,244.0 Z">
  <desc xmlns="http://www.highcharts.com/svg/namespace">
    <labelrank>2</labelrank>
    <hasc>BR.PE</hasc>
    <alt-name>Pernambouc</alt-name>
    <woe-id>2344860</woe-id>
    <subregion>NULL</subregion>
    <fips>BR30</fips>
    <postal-code>PE</postal-code>
    <name>Pernambuco</name>
    <country>Brazil</country>
    <type-en>State</type-en>
    <region>NULL</region>
    <longitude>-37.2958</longitude>
    <woe-name>Pernambuco</woe-name>
    <latitude>-8.47283</latitude>
    <woe-label>Pernambuco, BR, Brazil</woe-label>
    <type>Estado</type>
    <hc-middle-x>0.56</hc-middle-x>
    <hc-middle-y>0.53</hc-middle-y>
    <hc-key>br-pe</hc-key>
    <hc-a2>PE</hc-a2>
  </desc>
</path>

<path fill="#CEE3F5" stroke="#6E6E6E" stroke-width="0.4" id="BR.MA" d="M575.7,145.3 L575.6,150.2 L568.8,157.4 L563.7,157.7 L559.4,166.2 L554.7,172.0 L557.0,176.7 L555.3,181.7 L557.0,184.7 L557.3,191.5 L552.3,197.1 L552.7,205.0 L556.6,208.7 L554.1,217.6 L545.5,219.1 L541.7,216.5 L535.2,217.6 L530.3,223.7 L522.9,228.7 L512.4,231.4 L509.2,233.5 L507.2,242.1 L502.7,251.9 L499.7,256.0 L502.0,266.9 L501.4,275.4 L499.8,281.0 L492.7,278.2 L490.0,272.5 L487.2,270.4 L489.6,267.0 L485.8,264.3 L484.3,259.9 L480.1,257.5 L483.3,253.8 L485.5,246.8 L490.7,246.2 L491.4,240.3 L489.5,237.3 L481.6,239.6 L473.2,228.8 L473.0,225.7 L468.9,224.1 L473.0,220.9 L475.7,206.9 L475.1,200.4 L472.9,193.3 L467.5,191.5 L467.1,189.7 L455.8,187.9 L451.7,190.9 L468.4,177.4 L471.0,177.6 L481.7,163.9 L483.9,156.0 L488.9,150.5 L489.0,144.1 L493.3,140.0 L493.6,135.1 L495.6,134.0 L497.5,121.5 L499.6,116.6 L502.8,115.9 L506.9,119.4 L509.3,117.7 L510.2,121.9 L512.4,121.4 L513.2,126.3 L519.2,119.2 L521.8,121.5 L522.6,125.6 L527.6,128.2 L529.9,138.3 L525.6,143.6 L524.6,149.3 L527.1,144.5 L529.1,148.2 L530.3,141.0 L535.7,138.3 L536.1,141.1 L530.8,145.2 L535.8,145.1 L538.3,141.0 L541.1,140.6 L542.7,135.9 L546.8,141.2 L546.8,137.3 L549.4,137.4 L560.1,141.4 L568.6,146.5 Z">
  <desc xmlns="http://www.highcharts.com/svg/namespace">
    <labelrank>2</labelrank>
    <hasc>BR.MA</hasc>
    <alt-name>São Luíz de Maranhão</alt-name>
    <woe-id>2344854</woe-id>
    <subregion>NULL</subregion>
    <fips>BR13</fips>
    <postal-code>MA</postal-code>
    <name>Maranhão</name>
    <country>Brazil</country>
    <type-en>State</type-en>
    <region>NULL</region>
    <longitude>-45.389</longitude>
    <woe-name>Maranhão</woe-name>
    <latitude>-5.01897</latitude>
    <woe-label>Maranhao, BR, Brazil</woe-label>
    <type>Estado</type>
    <hc-middle-x>0.45</hc-middle-x>
    <hc-middle-y>0.43</hc-middle-y>
    <hc-key>br-ma</hc-key>
    <hc-a2>MA</hc-a2>
  </desc>
</path>

<path fill="#CEE3F5" stroke="#6E6E6E" stroke-width="0.4" id="BR.PR" d="M362.6,564.6 L359.9,559.4 L358.6,553.3 L355.4,551.0 L349.6,553.5 L347.2,549.8 L352.5,543.0 L350.6,542.1 L352.6,537.1 L353.1,525.0 L355.8,523.2 L358.0,513.8 L361.7,511.5 L363.8,504.8 L370.9,500.9 L374.6,498.6 L386.8,500.0 L389.3,497.8 L397.9,500.9 L401.1,500.3 L408.9,503.6 L410.4,505.8 L424.0,505.5 L429.3,511.9 L429.5,522.8 L435.4,531.5 L434.1,537.3 L445.3,538.0 L445.8,544.8 L451.3,544.3 L453.4,549.6 L448.6,553.3 L449.6,548.1 L447.4,548.3 L447.5,555.1 L444.8,561.4 L436.3,561.3 L428.3,565.1 L422.7,561.2 L411.4,561.9 L409.9,564.7 L404.4,564.7 L400.9,568.0 L401.6,571.3 L389.2,570.6 L386.2,568.2 L376.2,566.0 L371.3,566.6 L367.5,564.3 Z">
  <desc xmlns="http://www.highcharts.com/svg/namespace">
    <labelrank>2</labelrank>
    <hasc>BR.PR</hasc>
    <alt-name>NULL</alt-name>
    <woe-id>2344859</woe-id>
    <subregion>NULL</subregion>
    <fips>BR18</fips>
    <postal-code>PR</postal-code>
    <name>Paraná</name>
    <country>Brazil</country>
    <type-en>State</type-en>
    <region>NULL</region>
    <longitude>-51.3228</longitude>
    <woe-name>Paraná</woe-name>
    <latitude>-24.6618</latitude>
    <woe-label>Parana, BR, Brazil</woe-label>
    <type>Estado</type>
    <hc-middle-x>0.40</hc-middle-x>
    <hc-middle-y>0.50</hc-middle-y>
    <hc-key>br-pr</hc-key>
    <hc-a2>PR</hc-a2>
  </desc>
</path>

<path fill="#CEE3F5" stroke="#6E6E6E" stroke-width="0.4" id="BR.BA" d="M593.1,425.1 L593.4,421.2 L587.0,413.8 L589.0,405.5 L593.1,404.8 L594.2,399.1 L599.9,394.9 L601.4,391.2 L595.4,385.4 L583.3,382.0 L579.5,383.8 L576.6,382.4 L576.3,378.3 L569.0,370.8 L564.0,371.9 L555.7,366.9 L549.4,362.0 L544.7,361.0 L540.0,363.5 L533.6,360.9 L535.1,355.2 L526.0,353.0 L521.7,354.6 L515.9,359.0 L509.9,361.3 L501.1,367.9 L494.8,369.9 L495.9,363.1 L497.9,360.0 L498.0,353.8 L494.5,350.7 L492.3,341.1 L495.8,333.9 L494.2,333.2 L496.0,327.9 L493.4,325.6 L494.9,320.4 L492.2,318.9 L491.9,313.5 L496.7,310.0 L493.7,308.4 L496.7,304.1 L490.7,302.1 L488.3,298.8 L493.2,288.8 L501.2,283.8 L503.1,281.4 L505.8,281.4 L510.7,289.7 L515.4,291.9 L526.6,286.7 L530.2,287.5 L535.7,284.1 L539.6,277.1 L540.1,272.8 L538.0,266.0 L544.5,263.9 L545.7,265.9 L550.2,265.3 L555.0,268.7 L559.2,269.1 L564.8,264.6 L569.6,262.9 L573.0,263.9 L575.2,259.0 L579.4,258.3 L581.8,254.3 L585.6,254.3 L590.3,257.2 L590.7,262.6 L593.3,263.9 L592.2,268.2 L594.6,268.9 L599.9,266.7 L601.1,262.2 L607.8,260.0 L607.9,257.4 L616.9,252.2 L624.5,257.3 L632.3,258.1 L635.8,261.4 L637.1,267.8 L637.7,269.4 L641.1,271.7 L641.4,278.1 L644.5,282.1 L643.2,288.4 L643.9,292.3 L640.5,294.4 L636.6,293.5 L635.7,296.9 L639.8,303.4 L639.3,305.6 L642.8,308.9 L648.3,309.1 L649.1,310.1 L644.7,318.8 L637.1,329.3 L632.1,334.5 L628.7,335.9 L629.0,330.4 L625.4,328.3 L624.2,331.6 L627.3,335.1 L620.6,339.9 L621.3,346.9 L617.9,352.1 L620.3,353.6 L617.0,365.8 L618.2,385.1 L619.1,387.5 L615.0,398.2 L611.3,411.4 L611.8,421.0 L605.2,426.5 L601.8,432.1 L593.5,425.7 Z">
  <desc xmlns="http://www.highcharts.com/svg/namespace">
    <labelrank>2</labelrank>
    <hasc>BR.BA</hasc>
    <alt-name>Ba¡a</alt-name>
    <woe-id>2344848</woe-id>
    <subregion>NULL</subregion>
    <fips>BR05</fips>
    <postal-code>BA</postal-code>
    <name>Bahia</name>
    <country>Brazil</country>
    <type-en>State</type-en>
    <region>NULL</region>
    <longitude>-41.8027</longitude>
    <woe-name>Bahia</woe-name>
    <latitude>-12.3651</latitude>
    <woe-label>Bahia, BR, Brazil</woe-label>
    <type>Estado</type>
    <hc-middle-x>0.58</hc-middle-x>
    <hc-middle-y>0.36</hc-middle-y>
    <hc-key>br-ba</hc-key>
    <hc-a2>BA</hc-a2>
  </desc>
</path>

<path fill="#CEE3F5" stroke="#6E6E6E" stroke-width="0.4" id="BR.ES" d="M561.3,474.1 L564.5,463.9 L569.7,464.4 L574.7,454.6 L578.3,451.4 L579.0,445.5 L576.6,440.6 L579.7,439.3 L578.9,432.7 L576.7,429.7 L583.2,426.5 L581.1,424.1 L589.5,423.2 L593.1,425.1 L593.5,425.7 L601.8,432.1 L600.0,438.6 L599.5,452.1 L597.1,456.3 L593.6,458.0 L587.1,471.0 L581.9,476.8 L580.2,476.8 L575.6,484.3 L563.4,480.3 L563.3,475.0 Z">
  <desc xmlns="http://www.highcharts.com/svg/namespace">
    <labelrank>2</labelrank>
    <hasc>BR.ES</hasc>
    <alt-name>Espiritu Santo</alt-name>
    <woe-id>2344851</woe-id>
    <subregion>NULL</subregion>
    <fips>BR08</fips>
    <postal-code>ES</postal-code>
    <name>Espírito Santo</name>
    <country>Brazil</country>
    <type-en>State</type-en>
    <region>NULL</region>
    <longitude>-40.5436</longitude>
    <woe-name>Espírito Santo</woe-name>
    <latitude>-19.6916</latitude>
    <woe-label>Espirito Santo, BR, Brazil</woe-label>
    <type>Estado</type>
    <hc-middle-x>0.76</hc-middle-x>
    <hc-middle-y>0.44</hc-middle-y>
    <hc-key>br-es</hc-key>
    <hc-a2>ES</hc-a2>
  </desc>
</path>

<path fill="#CEE3F5" stroke="#6E6E6E" stroke-width="0.4" id="BR.RJ" d="M510.3,517.4 L508.3,514.6 L509.6,510.8 L518.5,508.3 L519.7,504.2 L512.7,503.9 L509.7,500.2 L516.3,497.9 L520.1,498.0 L527.0,495.1 L534.9,494.5 L540.0,495.3 L553.0,490.6 L551.6,489.0 L557.2,476.4 L561.3,474.1 L563.3,475.0 L563.4,480.3 L575.6,484.3 L573.5,488.7 L574.6,496.6 L569.7,499.8 L562.4,501.7 L557.1,505.9 L558.0,510.5 L554.9,513.4 L538.8,512.5 L537.3,510.9 L538.5,506.9 L535.2,508.1 L535.7,512.7 L522.6,513.5 L529.3,512.4 L525.1,510.3 L518.9,513.0 L521.2,514.8 L517.2,515.5 L518.8,511.6 L511.1,513.0 L514.0,516.2 Z">
  <desc xmlns="http://www.highcharts.com/svg/namespace">
    <labelrank>2</labelrank>
    <hasc>BR.RJ</hasc>
    <alt-name>NULL</alt-name>
    <woe-id>2344862</woe-id>
    <subregion>NULL</subregion>
    <fips>BR21</fips>
    <postal-code>RJ</postal-code>
    <name>Rio de Janeiro</name>
    <country>Brazil</country>
    <type-en>State</type-en>
    <region>NULL</region>
    <longitude>-43.1152</longitude>
    <woe-name>Rio de Janeiro</woe-name>
    <latitude>-22.4049</latitude>
    <woe-label>Rio de Janeiro, BR, Brazil</woe-label>
    <type>Estado</type>
    <hc-middle-x>0.72</hc-middle-x>
    <hc-middle-y>0.56</hc-middle-y>
    <hc-key>br-rj</hc-key>
    <hc-a2>RJ</hc-a2>
  </desc>
</path>

<path fill="#CEE3F5" stroke="#6E6E6E" stroke-width="0.4" id="BR.RN" d="M633.9,213.0 L633.0,210.7 L641.3,203.9 L649.0,188.9 L657.8,184.8 L669.7,190.6 L679.9,189.4 L688.6,191.5 L692.8,198.0 L695.4,211.4 L697.5,217.4 L691.4,217.7 L684.9,215.5 L680.4,216.1 L670.3,214.1 L671.0,218.7 L668.4,224.3 L666.0,225.1 L664.7,221.2 L661.2,220.0 L657.0,222.0 L651.8,219.1 L652.0,216.8 L658.2,208.8 L656.7,207.1 L647.7,209.6 L646.1,212.6 L640.9,215.8 Z">
  <desc xmlns="http://www.highcharts.com/svg/namespace">
    <labelrank>2</labelrank>
    <hasc>BR.RN</hasc>
    <alt-name>NULL</alt-name>
    <woe-id>2344863</woe-id>
    <subregion>NULL</subregion>
    <fips>BR22</fips>
    <postal-code>RN</postal-code>
    <name>Rio Grande do Norte</name>
    <country>Brazil</country>
    <type-en>State</type-en>
    <region>NULL</region>
    <longitude>-36.5472</longitude>
    <woe-name>Rio Grande do Norte</woe-name>
    <latitude>-5.66157</latitude>
    <woe-label>Rio Grande do Norte, BR, Brazil</woe-label>
    <type>Estado</type>
    <hc-middle-x>0.53</hc-middle-x>
    <hc-middle-y>0.53</hc-middle-y>
    <hc-key>br-rn</hc-key>
    <hc-a2>RN</hc-a2>
  </desc>
</path>

<path fill="#CEE3F5" stroke="#6E6E6E" stroke-width="0.4" id="BR.AM" d="M188.3,54.2 L192.6,55.3 L195.1,58.2 L200.5,59.5 L199.0,65.7 L202.0,69.1 L205.1,80.2 L202.7,94.4 L206.4,100.9 L207.5,106.3 L204.0,108.7 L212.6,115.4 L215.3,119.5 L220.3,120.3 L221.5,107.9 L229.2,103.6 L232.4,104.7 L235.9,110.0 L243.0,107.4 L242.1,104.1 L243.5,99.0 L248.7,90.7 L269.4,90.7 L269.8,101.1 L271.6,105.9 L277.2,110.2 L278.1,113.5 L291.3,123.2 L301.6,127.2 L307.8,131.5 L307.7,133.7 L312.2,133.4 L314.1,137.5 L280.3,211.2 L277.3,214.9 L278.6,219.5 L283.3,226.3 L279.0,234.9 L280.3,240.3 L276.3,251.7 L221.7,252.9 L219.8,251.5 L217.0,254.6 L212.4,253.1 L208.0,246.2 L205.0,245.9 L201.6,240.6 L198.4,239.7 L187.1,239.8 L186.2,242.8 L180.5,246.0 L179.2,252.3 L176.9,252.5 L177.2,257.0 L165.5,258.2 L160.2,266.6 L157.7,263.4 L148.3,269.4 L145.3,266.7 L137.0,266.8 L135.2,271.1 L129.6,275.0 L75.7,251.6 L65.5,246.5 L24.2,237.6 L3.4,229.6 L4.0,225.5 L15.0,216.2 L12.9,209.5 L16.8,202.4 L18.0,191.5 L23.1,189.3 L32.9,181.2 L38.2,178.7 L52.6,176.6 L55.0,172.7 L64.3,172.3 L66.3,175.5 L70.8,172.8 L80.0,116.7 L75.8,108.3 L75.7,104.1 L70.1,100.4 L67.8,97.1 L68.2,83.8 L78.1,81.2 L84.7,82.7 L84.4,78.7 L80.5,75.0 L71.8,75.1 L71.8,63.0 L102.3,63.0 L100.2,61.0 L101.7,57.7 L105.3,62.5 L109.0,61.4 L112.6,57.0 L117.1,56.3 L121.1,63.4 L122.0,73.2 L125.4,72.3 L133.8,80.1 L138.3,81.3 L145.7,76.9 L148.7,76.9 L149.0,82.8 L156.7,74.2 L164.0,72.0 L169.8,67.3 L170.1,69.4 L175.7,64.8 L177.3,59.2 L181.5,58.7 Z">
  <desc xmlns="http://www.highcharts.com/svg/namespace">
    <labelrank>2</labelrank>
    <hasc>BR.AM</hasc>
    <alt-name>Amazone</alt-name>
    <woe-id>2344847</woe-id>
    <subregion>NULL</subregion>
    <fips>BR04</fips>
    <postal-code>AM</postal-code>
    <name>Amazonas</name>
    <country>Brazil</country>
    <type-en>State</type-en>
    <region>NULL</region>
    <longitude>-63.7853</longitude>
    <woe-name>Amazonas</woe-name>
    <latitude>-4.21774</latitude>
    <woe-label>Amazonas, BR, Brazil</woe-label>
    <type>Estado</type>
    <hc-middle-x>0.56</hc-middle-x>
    <hc-middle-y>0.55</hc-middle-y>
    <hc-key>br-am</hc-key>
    <hc-a2>AM</hc-a2>
  </desc>
</path>

<path fill="#CEE3F5" stroke="#6E6E6E" stroke-width="0.4" id="BR.MT" d="M283.3,226.3 L287.7,232.6 L289.7,238.9 L292.3,242.2 L291.6,245.9 L293.4,251.6 L302.0,256.8 L303.0,260.0 L307.9,263.0 L313.4,264.2 L337.7,265.8 L405.1,270.0 L423.9,271.1 L417.3,285.6 L417.0,292.3 L414.6,300.7 L416.2,302.7 L415.7,321.0 L418.8,324.9 L417.2,331.7 L412.0,340.3 L412.0,347.3 L407.6,361.3 L403.7,362.5 L397.8,367.0 L393.8,377.6 L387.4,379.5 L380.1,386.2 L380.7,390.4 L374.0,396.5 L370.8,403.9 L370.1,408.9 L373.3,417.0 L361.8,416.8 L357.3,414.9 L361.4,410.3 L362.6,403.4 L360.2,404.3 L354.7,410.0 L350.4,410.8 L348.1,408.0 L336.9,411.1 L329.5,405.9 L321.0,402.3 L317.1,404.1 L309.7,404.8 L303.4,413.3 L298.5,414.8 L293.2,412.6 L292.0,409.4 L281.8,404.4 L279.9,394.0 L282.1,386.9 L280.0,387.7 L251.2,387.4 L250.3,386.5 L248.9,373.6 L242.7,366.5 L248.1,366.3 L247.5,357.9 L244.3,351.7 L245.5,346.4 L244.0,343.0 L239.5,340.7 L245.3,336.2 L247.2,329.8 L250.4,327.2 L254.7,317.4 L249.5,303.3 L252.8,299.4 L251.1,295.1 L243.3,292.7 L225.1,293.0 L224.9,282.9 L223.2,279.8 L224.4,268.5 L221.9,262.8 L224.0,255.5 L221.7,252.9 L276.3,251.7 L280.3,240.3 L279.0,234.9 Z">
  <desc xmlns="http://www.highcharts.com/svg/namespace">
    <labelrank>2</labelrank>
    <hasc>BR.MT</hasc>
    <alt-name>Matto Grosso</alt-name>
    <woe-id>2344855</woe-id>
    <subregion>NULL</subregion>
    <fips>BR14</fips>
    <postal-code>MT</postal-code>
    <name>Mato Grosso</name>
    <country>Brazil</country>
    <type-en>State</type-en>
    <region>NULL</region>
    <longitude>-55.9235</longitude>
    <woe-name>Mato Grosso</woe-name>
    <latitude>-13.3926</latitude>
    <woe-label>Mato Grosso, BR, Brazil</woe-label>
    <type>Estado</type>
    <hc-middle-x>0.49</hc-middle-x>
    <hc-middle-y>0.54</hc-middle-y>
    <hc-key>br-mt</hc-key>
    <hc-a2>MT</hc-a2>
  </desc>
</path>

<path fill="#CEE3F5" stroke="#6E6E6E" stroke-width="0.4" id="BR.DF" d="M473.0,383.5 L473.0,383.5 L473.0,383.5 L457.8,383.0 L456.2,379.4 L458.1,373.1 L471.2,373.7 L473.2,375.4 L473.0,383.5 L473.0,383.5 Z">
  <desc xmlns="http://www.highcharts.com/svg/namespace">
    <labelrank>7</labelrank>
    <hasc>BR.DF</hasc>
    <alt-name>NULL</alt-name>
    <woe-id>2344850</woe-id>
    <subregion>NULL</subregion>
    <fips>BR07</fips>
    <postal-code>DF</postal-code>
    <name>Distrito Federal</name>
    <country>Brazil</country>
    <type-en>Federal District</type-en>
    <region>NULL</region>
    <longitude>-47.7902</longitude>
    <woe-name>Distrito Federal</woe-name>
    <latitude>-15.7665</latitude>
    <woe-label>Distrito Federal, BR, Brazil</woe-label>
    <type>Distrito Federal</type>
    <hc-middle-x>0.90</hc-middle-x>
    <hc-middle-y>0.52</hc-middle-y>
    <hc-key>br-df</hc-key>
    <hc-a2>DF</hc-a2>
  </desc>
</path>

<path fill="#CEE3F5" stroke="#6E6E6E" stroke-width="0.4" id="BR.AC" d="M132.9,276.3 L125.8,282.8 L121.0,284.3 L114.5,291.6 L107.8,291.7 L104.6,297.1 L96.0,300.2 L96.4,298.1 L85.1,297.2 L75.2,297.4 L69.5,300.4 L65.0,298.3 L63.2,299.8 L62.1,272.9 L63.8,270.3 L52.3,280.4 L48.9,281.8 L34.7,282.5 L32.3,273.9 L23.2,272.0 L16.0,272.3 L20.2,266.0 L16.1,259.3 L9.5,253.1 L5.7,242.2 L0.0,237.8 L5.2,233.0 L3.4,229.6 L24.2,237.6 L65.5,246.5 L75.7,251.6 L129.6,275.0 Z">
  <desc xmlns="http://www.highcharts.com/svg/namespace">
    <labelrank>2</labelrank>
    <hasc>BR.</hasc>
    <alt-name>NULL</alt-name>
    <woe-id>2344844</woe-id>
    <subregion>NULL</subregion>
    <fips>BR01</fips>
    <postal-code>AC</postal-code>
    <name>Acre</name>
    <country>Brazil</country>
    <type-en>State</type-en>
    <region>NULL</region>
    <longitude>-70.2976</longitude>
    <woe-name>Acre</woe-name>
    <latitude>-8.9285</latitude>
    <woe-label>Acre, BR, Brazil</woe-label>
    <type>Estado</type>
    <hc-middle-x>0.49</hc-middle-x>
    <hc-middle-y>0.52</hc-middle-y>
    <hc-key>br-ac</hc-key>
    <hc-a2>AC</hc-a2>
  </desc>
</path>

<path fill="#CEE3F5" stroke="#6E6E6E" stroke-width="0.4" id="BR.RO" d="M239.5,340.7 L233.7,337.3 L219.8,338.9 L213.9,331.6 L209.4,331.9 L202.6,329.7 L197.7,323.8 L192.2,324.2 L184.9,320.6 L182.8,322.3 L174.4,321.1 L173.0,317.6 L167.1,313.6 L163.5,313.1 L162.1,308.7 L159.8,308.6 L155.9,298.1 L157.4,295.0 L155.6,291.8 L155.1,285.2 L157.2,280.9 L156.6,273.8 L153.9,271.3 L151.7,274.2 L149.4,272.8 L140.9,273.9 L132.9,276.3 L129.6,275.0 L135.2,271.1 L137.0,266.8 L145.3,266.7 L148.3,269.4 L157.7,263.4 L160.2,266.6 L165.5,258.2 L177.2,257.0 L176.9,252.5 L179.2,252.3 L180.5,246.0 L186.2,242.8 L187.1,239.8 L198.4,239.7 L201.6,240.6 L205.0,245.9 L208.0,246.2 L212.4,253.1 L217.0,254.6 L219.8,251.5 L221.7,252.9 L224.0,255.5 L221.9,262.8 L224.4,268.5 L223.2,279.8 L224.9,282.9 L225.1,293.0 L243.3,292.7 L251.1,295.1 L252.8,299.4 L249.5,303.3 L254.7,317.4 L250.4,327.2 L247.2,329.8 L245.3,336.2 Z">
  <desc xmlns="http://www.highcharts.com/svg/namespace">
    <labelrank>2</labelrank>
    <hasc>BR.</hasc>
    <alt-name>Guaporé</alt-name>
    <woe-id>2344865</woe-id>
    <subregion>Guaporé</subregion>
    <fips>BR24</fips>
    <postal-code>RO</postal-code>
    <name>Rondônia</name>
    <country>Brazil</country>
    <type-en>State</type-en>
    <region>NULL</region>
    <longitude>-63.1439</longitude>
    <woe-name>Rondônia</woe-name>
    <latitude>-10.9712</latitude>
    <woe-label>Rondonia, BR, Brazil</woe-label>
    <type>Estado</type>
    <hc-middle-x>0.57</hc-middle-x>
    <hc-middle-y>0.58</hc-middle-y>
    <hc-key>br-ro</hc-key>
    <hc-a2>RO</hc-a2>
  </desc>
</path>
</g>

<text x="350" y="714" text-anchor="middle" font-family="Verdana" font-size="8" stroke-opacity="0.6">Copyright (c) 2014 Highsoft AS, Based on data from Natural Earth</text>

</svg>