<?xml version="1.0" encoding="utf-8" standalone="no"?>
<!DOCTYPE svg PUBLIC "-//W3C//DTD SVG 1.1//EN" "http://www.w3.org/Graphics/SVG/1.1/DTD/svg11.dtd">

<svg xmlns="http://www.w3.org/2000/svg" height="700pt" version="1.1" width="700pt" xmlns:xlink="http://www.w3.org/1999/xlink">
<desc>
Map version: 1.1.1
Copyright (c) 2014 Highsoft AS, Based on data from Natural Earth
</desc>
<title>Norway with Svalbard and Jan Mayen</title>
<g id="admin1">

<g id="NO">
  <desc xmlns="http://www.highcharts.com/svg/namespace">
    <name>Norway</name>
    <labelrank>3</labelrank>
    <country-abbrev>Nor.</country-abbrev>
    <subregion>Northern Europe</subregion>
    <woe-id>-90</woe-id>
    <region-wb>Europe &amp; Central Asia</region-wb>
    <iso-a3>NOR</iso-a3>
    <iso-a2>NO</iso-a2>
    <region-un>Europe</region-un>
    <continent>Europe</continent>
    <hc-key>no</hc-key>
    <hc-a2>NO</hc-a2>
  </desc>
</g>

<path d="M37.5,470.2 L39.7,471.6 L38.6,475.2 L36.6,475.7 L32.9,475.1 L32.0,473.2 L34.0,470.0 Z M38.4,466.8 L38.9,467.0 L38.3,468.8 L35.3,468.2 Z M46.7,468.8 L41.3,473.0 L40.4,467.2 L41.5,465.2 L44.3,464.2 L45.2,467.6 Z M51.0,464.5 L53.2,466.7 L47.7,466.1 L46.3,464.0 Z M49.8,457.8 L49.5,459.5 L47.0,457.9 L49.8,456.4 Z M69.5,451.4 L69.5,453.3 L63.5,454.7 L63.0,453.1 L64.3,450.9 L65.6,451.4 L68.4,450.6 Z M68.0,444.8 L70.8,445.0 L69.4,449.1 L67.2,447.1 Z M95.8,436.0 L92.4,438.9 L90.1,436.8 L91.6,434.8 L92.6,435.7 L95.2,435.0 Z M89.9,438.6 L85.8,442.1 L82.8,439.9 L84.1,437.9 L83.5,436.0 L85.6,435.6 L87.1,438.3 L88.5,434.8 L89.6,433.9 Z M105.6,432.6 L102.9,432.3 L102.6,429.4 L104.2,429.5 Z M102.7,432.8 L98.6,433.4 L96.7,431.0 L100.6,428.1 L102.2,429.9 Z M110.2,428.8 L112.1,431.5 L111.7,432.6 L108.3,433.2 L106.5,432.2 L104.9,429.0 L105.5,426.9 L107.2,427.4 L108.0,429.7 L108.6,426.7 Z M118.3,419.9 L120.9,424.1 L119.1,431.6 L113.0,431.4 L112.3,428.7 L110.3,426.3 L115.7,425.3 L117.3,424.1 L114.6,421.6 Z M103.9,420.6 L101.7,422.9 L99.0,424.0 L97.3,422.4 L98.5,422.0 L94.9,420.6 L94.5,418.4 L98.1,417.5 L100.2,415.8 L102.4,416.5 Z M29.4,484.5 L32.5,480.5 L29.1,479.0 L28.6,477.7 L30.0,475.0 L34.5,476.8 L35.1,479.2 L36.1,476.3 L38.2,476.7 L40.5,475.6 L41.9,478.0 L40.9,481.5 L38.9,485.2 L41.6,482.0 L42.4,479.3 L44.3,481.7 L44.3,483.4 L46.2,482.9 L52.0,484.4 L45.5,481.4 L43.4,477.1 L42.2,476.1 L43.0,473.8 L45.4,470.9 L52.8,468.4 L54.1,473.4 L57.2,479.7 L56.3,482.8 L58.0,481.6 L56.4,475.2 L54.9,471.9 L55.0,467.9 L57.5,467.6 L58.8,470.1 L58.7,467.1 L63.0,465.5 L66.9,467.8 L66.3,471.0 L68.4,475.1 L68.6,479.1 L66.6,482.6 L66.6,484.5 L68.8,481.3 L69.8,475.8 L71.6,475.7 L73.8,477.5 L76.1,475.3 L72.9,475.5 L68.1,472.9 L67.4,470.4 L68.9,470.2 L66.4,465.8 L62.7,464.1 L57.4,465.9 L55.2,465.9 L53.2,463.8 L57.1,462.0 L62.4,463.2 L61.1,461.6 L57.8,461.5 L59.3,460.5 L52.7,460.1 L52.7,457.6 L54.7,456.1 L59.9,456.4 L61.4,459.5 L62.5,457.1 L65.9,455.3 L68.1,458.2 L69.7,455.5 L73.5,456.3 L73.7,462.5 L74.9,457.6 L79.7,460.1 L81.0,462.6 L83.1,463.2 L83.5,465.3 L84.5,462.9 L89.6,462.2 L88.8,461.5 L82.9,461.9 L81.1,460.0 L82.7,458.0 L82.9,460.7 L83.9,459.5 L84.0,456.3 L86.4,455.2 L91.9,454.1 L98.8,455.6 L97.1,453.2 L97.8,452.2 L92.7,453.3 L87.3,453.8 L84.2,455.4 L80.8,455.2 L80.6,452.8 L83.4,451.3 L88.5,450.4 L86.8,450.1 L79.4,452.0 L71.1,452.0 L71.0,449.6 L73.9,447.0 L77.5,448.1 L75.8,446.0 L72.9,446.1 L71.0,441.2 L75.3,438.9 L80.1,437.8 L84.9,443.8 L89.3,440.7 L91.9,441.1 L89.6,444.3 L96.6,441.7 L98.9,443.3 L100.0,450.6 L103.7,453.0 L105.8,455.9 L108.8,456.5 L100.9,449.0 L101.1,445.1 L96.6,439.0 L94.5,439.7 L97.8,435.7 L100.0,435.0 L100.7,438.2 L105.2,443.5 L104.5,447.6 L106.3,447.5 L109.0,450.0 L110.4,448.5 L113.2,451.6 L111.5,448.5 L108.3,446.6 L107.0,443.7 L112.5,443.8 L112.5,442.7 L109.7,442.4 L111.4,440.9 L106.6,442.9 L105.0,441.3 L107.8,441.1 L107.9,440.0 L104.7,440.2 L102.8,439.4 L101.9,434.9 L103.3,434.1 L105.6,436.7 L103.8,433.2 L111.0,435.0 L113.2,436.4 L111.7,433.5 L112.8,432.6 L118.6,431.9 L117.5,432.9 L118.5,435.4 L120.6,435.9 L122.8,434.9 L127.0,435.8 L127.1,433.9 L128.8,432.5 L133.1,433.9 L133.1,441.2 L135.1,443.1 L131.4,447.1 L131.4,449.8 L130.3,452.6 L127.5,453.8 L118.6,456.3 L118.3,457.8 L123.2,465.1 L124.9,466.3 L122.4,473.7 L120.3,475.6 L117.3,475.8 L114.6,474.6 L103.7,474.1 L97.1,475.4 L95.2,479.6 L93.4,481.9 L90.4,482.8 L86.1,481.9 L82.8,485.4 L82.9,486.7 L79.0,486.5 L75.4,488.4 L70.7,488.5 L67.9,490.1 L62.1,490.8 L59.5,484.9 L53.0,487.3 L51.2,489.0 L47.8,487.1 L44.1,488.4 L40.7,486.5 L37.5,487.2 L35.8,486.5 L31.8,487.2 Z" fill="#CEE3F5" id="NO.MR" stroke="#6E6E6E" stroke-width="0.4">
  <desc xmlns="http://www.highcharts.com/svg/namespace">
    <labelrank>7</labelrank>
    <hasc>NO.MR</hasc>
    <alt-name>Moere og Romsdal fylk|Møre|Romsdal</alt-name>
    <woe-id>2346391</woe-id>
    <subregion>NULL</subregion>
    <fips>NO08</fips>
    <postal-code>MR</postal-code>
    <name>Møre og Romsdal</name>
    <country>Norway</country>
    <type-en>County</type-en>
    <region>NULL</region>
    <longitude>8.35107</longitude>
    <woe-name>Møre og Romsdal</woe-name>
    <latitude>62.5471</latitude>
    <woe-label>More og Romsdal, NO, Norway</woe-label>
    <type>Fylke</type>
    <hc-middle-x>0.67</hc-middle-x>
    <hc-middle-y>0.68</hc-middle-y>
    <hc-key>no-mr</hc-key>
    <hc-a2>MR</hc-a2>
  </desc>
</path>

<path d="M125.4,408.1 L127.1,407.8 L128.0,410.1 L124.9,410.7 Z M147.6,391.0 L146.6,392.5 L145.7,390.9 L146.7,389.8 Z M118.6,431.9 L120.8,431.7 L119.1,431.6 L120.9,424.1 L118.3,419.9 L120.3,421.8 L122.6,420.7 L123.5,418.5 L125.9,421.3 L126.1,425.9 L129.2,424.5 L133.2,423.9 L128.1,423.9 L127.6,420.6 L134.8,419.2 L130.3,419.5 L127.4,418.9 L127.4,416.7 L129.4,416.6 L132.5,414.2 L133.1,416.6 L135.5,413.1 L140.6,410.6 L142.8,415.9 L142.5,417.7 L144.6,419.8 L145.8,422.5 L144.8,425.1 L142.4,427.4 L146.0,425.9 L148.6,428.1 L152.8,428.5 L152.2,427.4 L148.4,426.2 L147.6,423.8 L149.0,422.2 L153.9,421.1 L155.1,422.3 L158.1,422.0 L160.3,423.4 L163.0,422.5 L165.4,424.5 L167.4,423.1 L167.4,426.2 L169.1,428.3 L180.8,429.6 L184.7,437.2 L194.6,437.3 L198.0,448.1 L195.0,452.1 L194.7,454.0 L195.8,462.1 L193.9,469.8 L197.9,482.7 L195.2,483.2 L191.4,481.3 L186.9,480.0 L184.3,480.8 L180.1,478.5 L178.7,475.6 L173.1,469.6 L171.8,464.4 L165.4,461.8 L161.2,463.6 L160.0,462.1 L157.8,462.4 L150.7,460.9 L147.4,463.4 L145.6,466.9 L144.8,470.8 L145.3,474.4 L142.2,476.2 L140.0,478.7 L139.1,478.2 L136.8,482.0 L132.2,482.2 L120.3,475.6 L122.4,473.7 L124.9,466.3 L123.2,465.1 L118.3,457.8 L118.6,456.3 L127.5,453.8 L130.3,452.6 L131.4,449.8 L131.4,447.1 L135.1,443.1 L133.1,441.2 L133.1,433.9 L128.8,432.5 L127.1,433.9 L127.0,435.8 L122.8,434.9 L120.6,435.9 L118.5,435.4 L117.5,432.9 Z M123.8,411.9 L126.0,411.4 L128.1,413.6 L126.3,415.2 L120.2,417.1 L116.9,417.0 L111.6,419.1 L109.0,418.8 L106.5,416.8 L107.7,414.5 L110.3,412.1 L116.6,411.9 L113.5,410.3 L119.4,408.9 L120.3,410.3 L121.7,408.7 L123.6,408.5 Z M108.5,406.4 L109.1,404.6 L113.5,404.1 L119.0,401.8 L117.3,401.4 L117.2,400.5 L120.7,399.8 L120.6,404.9 L118.6,406.3 L111.8,406.5 L113.5,405.6 Z M151.8,416.9 L146.5,419.1 L145.2,417.8 L144.7,414.6 L143.6,413.1 L143.1,408.3 L147.9,407.0 L148.9,404.0 L144.7,406.4 L137.1,409.2 L137.6,406.1 L143.0,404.0 L138.4,404.4 L137.6,403.5 L140.5,401.4 L144.6,399.5 L143.8,398.3 L146.4,398.5 L153.4,396.1 L152.2,394.6 L147.4,396.7 L151.0,394.5 L150.4,393.4 L147.4,394.6 L149.4,390.5 L147.8,389.2 L149.9,386.3 L151.9,388.0 L153.9,387.6 L152.0,386.6 L153.5,385.7 L153.8,382.4 L158.3,382.3 L155.6,380.7 L159.2,379.4 L160.7,377.6 L160.8,375.0 L162.1,374.0 L164.4,374.4 L163.3,372.2 L161.3,372.1 L162.5,370.8 L164.9,372.4 L168.4,376.4 L172.3,378.7 L170.8,382.4 L168.9,383.6 L168.3,386.4 L170.6,388.5 L168.2,391.7 L166.9,396.2 L163.5,399.0 L160.5,403.7 L159.2,407.1 L153.2,411.1 L151.3,413.9 Z" fill="#CEE3F5" id="NO.ST" stroke="#6E6E6E" stroke-width="0.4">
  <desc xmlns="http://www.highcharts.com/svg/namespace">
    <labelrank>7</labelrank>
    <hasc>NO.ST</hasc>
    <alt-name>Soer-Troendelag fylke|Søndre Trondhjem|Suður-Þrændalög</alt-name>
    <woe-id>2346399</woe-id>
    <subregion>NULL</subregion>
    <fips>NO16</fips>
    <postal-code>ST</postal-code>
    <name>Sør-Trøndelag</name>
    <country>Norway</country>
    <type-en>County</type-en>
    <region>NULL</region>
    <longitude>10.6956</longitude>
    <woe-name>Sør-Trøndelag</woe-name>
    <latitude>62.9613</latitude>
    <woe-label>Sor-Trondelag, NO, Norway</woe-label>
    <type>Fylke</type>
    <hc-middle-x>0.57</hc-middle-x>
    <hc-middle-y>0.71</hc-middle-y>
    <hc-key>no-st</hc-key>
    <hc-a2>ST</hc-a2>
  </desc>
</path>

<path d="M13.4,599.5 L11.1,601.6 L10.2,599.6 L8.5,599.3 L7.8,593.1 L9.7,589.7 L12.4,592.2 L13.7,596.5 Z M7.1,587.4 L7.0,589.4 L4.9,589.5 L4.4,588.2 Z M19.7,586.4 L19.0,589.8 L17.5,591.7 L18.0,594.2 L14.4,594.6 L14.1,591.1 L11.8,590.6 L11.3,589.0 L13.7,588.8 L14.4,586.4 L19.7,585.8 Z M9.3,584.4 L9.9,587.1 L8.9,588.7 L6.8,585.6 L8.1,582.6 Z M6.9,571.0 L6.4,577.3 L5.0,577.5 L4.8,575.1 L3.5,575.6 L2.7,571.9 L4.9,571.4 L3.8,569.9 L3.9,564.7 L4.7,564.1 Z M6.8,560.2 L9.8,561.8 L10.7,563.5 L10.2,566.3 L8.4,566.9 L8.9,564.7 L7.3,563.4 L7.3,561.4 L5.7,560.9 L5.4,558.0 Z M2.6,553.8 L2.6,556.0 L1.1,555.6 L1.9,551.8 Z M2.8,615.2 L3.6,612.2 L7.0,607.9 L9.3,607.1 L12.7,602.9 L12.6,606.4 L11.4,611.7 L8.9,614.2 L6.3,614.6 Z M18.4,566.5 L21.2,568.0 L23.9,565.5 L25.8,555.3 L26.8,552.7 L24.5,553.2 L25.7,550.8 L22.6,553.2 L20.8,553.5 L20.4,556.6 L18.2,557.0 L14.1,559.3 L12.2,558.3 L9.4,553.1 L12.7,555.8 L6.5,545.4 L8.6,545.6 L12.4,549.4 L15.4,551.4 L15.3,553.3 L18.1,556.2 L18.1,552.2 L16.9,549.9 L14.1,547.8 L17.4,546.3 L17.2,544.9 L19.8,543.7 L22.6,543.7 L21.2,541.9 L17.2,543.4 L16.0,545.6 L11.3,544.1 L13.5,539.8 L16.4,538.6 L18.5,539.9 L22.3,539.7 L25.8,538.1 L27.6,539.1 L30.0,538.6 L31.6,539.7 L35.5,537.3 L38.3,540.0 L38.2,541.8 L41.5,544.2 L47.4,542.7 L47.5,544.4 L49.5,544.7 L51.6,542.6 L55.4,544.7 L52.7,547.5 L56.3,550.2 L55.9,552.4 L58.4,553.2 L58.6,555.3 L70.9,559.3 L73.5,561.8 L74.9,567.9 L73.8,578.4 L69.9,586.3 L67.2,590.0 L64.6,594.3 L61.0,595.9 L57.8,600.1 L57.4,603.1 L55.3,605.6 L52.3,605.3 L44.5,608.6 L43.4,607.5 L44.7,604.1 L44.5,601.5 L40.9,600.4 L34.3,603.3 L30.4,609.8 L29.8,611.8 L23.8,610.9 L20.8,612.1 L18.2,611.7 L12.4,612.5 L12.7,609.3 L14.2,606.4 L17.6,607.2 L17.7,610.6 L20.0,608.3 L19.0,607.1 L23.6,603.2 L25.8,604.9 L31.9,601.8 L33.4,600.2 L27.4,603.5 L25.4,603.5 L24.7,601.2 L22.0,602.4 L20.4,599.8 L17.7,597.4 L20.5,596.3 L21.6,593.9 L26.8,593.3 L26.7,591.1 L28.7,588.2 L31.3,586.7 L36.5,585.8 L35.9,583.5 L34.2,585.3 L31.6,585.9 L31.4,581.0 L33.3,580.4 L35.5,577.4 L39.8,573.1 L42.3,572.4 L44.1,570.4 L47.6,571.6 L43.7,579.3 L42.1,587.2 L44.7,581.4 L44.8,578.9 L47.7,573.4 L52.1,569.2 L55.9,568.6 L59.3,569.7 L60.2,568.4 L54.9,567.8 L58.4,563.8 L55.5,565.3 L53.7,567.8 L51.4,568.4 L48.6,570.6 L46.5,570.0 L49.7,566.4 L45.9,568.9 L40.7,570.3 L38.5,571.9 L33.8,572.3 L35.5,573.3 L32.5,578.7 L29.9,577.3 L26.8,582.3 L25.6,582.1 L24.5,589.4 L21.6,590.7 L20.0,587.9 L21.4,585.7 L21.5,581.7 L23.3,579.3 L21.1,580.0 L18.5,582.4 L17.4,581.0 L18.2,578.9 L22.2,577.6 L18.6,577.1 L22.0,571.4 L21.2,570.6 L17.3,578.1 L13.6,582.1 L11.0,580.5 L12.8,577.4 L9.4,577.2 L12.1,574.7 L8.6,573.5 L8.5,570.0 L9.6,567.8 L12.8,567.9 L11.8,565.9 L12.0,562.8 L14.0,561.0 L17.0,565.8 L18.3,566.5 L14.6,560.1 L21.5,556.9 L23.0,553.8 L24.9,554.7 L23.1,565.3 L21.2,566.5 Z M5.0,594.5 L6.2,597.1 L8.3,601.5 L5.9,601.0 L3.6,604.5 L4.2,608.2 L2.8,609.2 L2.1,605.9 L3.1,602.9 L5.0,600.7 L2.1,599.8 L3.6,594.6 Z" fill="#CEE3F5" id="NO.HO" stroke="#6E6E6E" stroke-width="0.4">
  <desc xmlns="http://www.highcharts.com/svg/namespace">
    <labelrank>7</labelrank>
    <hasc>NO.HO</hasc>
    <alt-name>Hordaland fylke|Hörðaland|Søndre Bergenhus</alt-name>
    <woe-id>2346390</woe-id>
    <subregion>NULL</subregion>
    <fips>NO07</fips>
    <postal-code>HO</postal-code>
    <name>Hordaland</name>
    <country>Norway</country>
    <type-en>County</type-en>
    <region>NULL</region>
    <longitude>6.89657</longitude>
    <woe-name>Hordaland</woe-name>
    <latitude>60.1134</latitude>
    <woe-label>Hordaland Fylke, NO, Norway</woe-label>
    <type>Fylke</type>
    <hc-middle-x>0.48</hc-middle-x>
    <hc-middle-y>0.22</hc-middle-y>
    <hc-key>no-ho</hc-key>
    <hc-a2>HO</hc-a2>
  </desc>
</path>

<path d="M4.9,538.2 L6.1,538.2 L7.0,541.3 L5.8,541.8 L3.7,538.0 Z M3.6,532.8 L2.4,534.7 L1.4,530.7 L3.0,529.8 Z M8.3,527.2 L10.4,525.8 L10.6,528.9 L7.7,531.9 L7.2,529.4 L5.3,531.2 L6.0,526.4 L7.6,524.3 Z M19.7,482.9 L21.7,483.8 L19.8,487.3 L18.0,486.4 L19.1,484.8 L17.9,481.3 Z M13.8,488.4 L16.0,488.3 L22.3,491.9 L19.5,492.9 L19.9,491.1 L16.7,493.8 L14.2,494.2 L14.8,491.8 L11.9,490.6 Z M11.3,544.1 L9.9,543.5 L10.0,537.1 L11.6,538.6 L13.4,536.2 L10.1,536.2 L10.7,532.9 L14.0,531.8 L17.4,534.3 L21.1,535.5 L23.8,533.3 L30.7,532.7 L30.2,534.8 L33.4,532.2 L38.6,532.9 L42.5,534.9 L42.6,537.4 L45.0,537.3 L43.9,539.5 L47.7,535.8 L50.4,534.7 L51.7,531.8 L56.2,533.7 L58.2,537.3 L60.2,537.9 L60.7,542.2 L59.5,543.9 L61.7,544.3 L64.0,548.1 L64.4,545.3 L62.9,544.7 L61.3,539.6 L61.2,537.4 L65.5,537.0 L66.8,535.6 L72.3,538.3 L70.3,535.8 L73.3,533.5 L70.8,531.7 L70.5,527.1 L75.8,519.6 L71.8,523.0 L69.8,522.4 L70.5,525.0 L68.6,527.4 L70.9,533.4 L68.7,534.5 L67.6,533.4 L65.0,535.1 L60.1,536.3 L59.4,534.9 L61.9,532.7 L59.0,533.4 L53.4,531.0 L50.9,529.1 L55.2,523.3 L55.6,520.4 L53.5,524.9 L51.4,527.0 L49.7,526.9 L50.3,530.1 L49.1,533.0 L47.1,534.4 L43.3,533.4 L41.0,530.0 L38.2,531.5 L35.0,529.9 L25.1,530.2 L22.7,532.1 L20.1,532.5 L18.5,529.6 L15.7,530.5 L15.3,527.7 L12.4,526.9 L12.9,525.7 L16.9,527.6 L17.7,526.6 L15.2,524.1 L12.2,524.0 L11.6,520.8 L16.4,519.6 L17.1,518.2 L19.2,519.1 L20.4,523.2 L20.5,519.9 L19.1,518.1 L23.9,517.8 L28.7,518.8 L26.8,517.6 L16.9,517.3 L14.0,518.6 L12.9,515.6 L15.6,513.7 L12.0,513.3 L19.1,511.7 L22.1,512.3 L25.5,514.6 L32.5,512.3 L30.5,511.7 L28.0,513.2 L24.6,512.9 L23.8,511.4 L21.0,511.3 L17.6,508.5 L17.9,506.9 L23.3,507.7 L18.4,504.8 L25.3,506.2 L20.7,503.3 L14.8,502.4 L13.9,500.3 L15.3,496.6 L17.3,496.3 L19.6,494.3 L25.0,492.7 L24.2,491.1 L26.1,489.4 L29.2,489.7 L33.7,491.5 L34.8,494.4 L39.5,494.3 L40.0,495.1 L38.1,500.0 L40.6,495.5 L41.5,495.6 L43.9,499.2 L45.3,499.6 L42.7,495.5 L48.5,496.3 L50.6,498.1 L54.0,498.2 L56.1,495.5 L57.4,495.3 L60.5,497.6 L60.6,496.1 L58.6,494.5 L55.3,495.0 L53.0,497.5 L47.8,495.1 L43.8,495.0 L42.5,493.7 L38.5,492.5 L36.5,493.5 L35.1,491.2 L40.2,491.6 L41.0,491.0 L33.2,489.4 L28.0,488.0 L21.0,489.1 L19.8,487.8 L21.6,485.0 L23.3,486.2 L25.8,482.9 L27.4,483.7 L23.9,478.6 L21.6,477.9 L21.1,474.9 L24.2,472.7 L26.1,475.3 L26.6,478.8 L29.5,481.6 L29.4,484.5 L31.8,487.2 L35.8,486.5 L37.5,487.2 L40.7,486.5 L44.1,488.4 L47.8,487.1 L51.2,489.0 L53.0,487.3 L59.5,484.9 L62.1,490.8 L67.9,490.1 L70.7,488.5 L75.4,488.4 L77.0,491.0 L76.0,497.5 L77.2,502.6 L78.4,504.4 L84.2,504.7 L87.4,506.4 L87.9,512.1 L89.4,515.4 L94.1,518.3 L96.3,522.5 L92.6,522.8 L92.0,525.3 L93.0,528.1 L88.7,532.7 L88.8,535.5 L91.2,540.0 L91.4,541.9 L91.1,544.5 L86.6,548.8 L82.4,548.5 L78.5,551.8 L76.6,555.8 L74.0,556.7 L70.9,559.3 L58.6,555.3 L58.4,553.2 L55.9,552.4 L56.3,550.2 L52.7,547.5 L55.4,544.7 L51.6,542.6 L49.5,544.7 L47.5,544.4 L47.4,542.7 L41.5,544.2 L38.2,541.8 L38.3,540.0 L35.5,537.3 L31.6,539.7 L30.0,538.6 L27.6,539.1 L25.8,538.1 L22.3,539.7 L18.5,539.9 L16.4,538.6 L13.5,539.8 Z" fill="#CEE3F5" id="NO.SF" stroke="#6E6E6E" stroke-width="0.4">
  <desc xmlns="http://www.highcharts.com/svg/namespace">
    <labelrank>7</labelrank>
    <hasc>NO.SF</hasc>
    <alt-name>Sogn og Fjordane fyl|Nordre Bergenhus|Sogn og Firða-Fylki</alt-name>
    <woe-id>2346398</woe-id>
    <subregion>NULL</subregion>
    <fips>NO15</fips>
    <postal-code>SF</postal-code>
    <name>Sogn og Fjordane</name>
    <country>Norway</country>
    <type-en>County</type-en>
    <region>NULL</region>
    <longitude>6.43282</longitude>
    <woe-name>Sogn og Fjordane</woe-name>
    <latitude>61.5538</latitude>
    <woe-label>Sogn og Fjordane Fylke, NO, Norway</woe-label>
    <type>Fylke</type>
    <hc-middle-x>0.56</hc-middle-x>
    <hc-middle-y>0.43</hc-middle-y>
    <hc-key>no-sf</hc-key>
    <hc-a2>SF</hc-a2>
  </desc>
</path>

<path d="M32.6,685.7 L32.6,687.3 L31.4,687.1 L30.0,684.7 Z M76.5,694.6 L74.6,695.1 L73.4,697.2 L70.8,694.9 L72.5,693.9 L71.4,690.5 L70.4,694.6 L67.5,697.6 L60.1,697.8 L57.8,700.0 L52.6,699.4 L49.3,698.1 L44.1,697.4 L43.8,699.0 L41.5,699.2 L41.8,697.5 L46.3,694.3 L40.1,696.5 L41.7,693.5 L39.2,696.0 L36.8,693.2 L41.0,692.6 L36.6,688.8 L37.1,692.1 L34.9,691.9 L35.1,688.2 L33.8,691.7 L36.1,694.7 L31.5,694.2 L29.4,691.2 L31.6,688.5 L33.8,688.5 L34.7,686.3 L33.2,681.1 L32.8,685.0 L26.7,682.7 L31.2,681.0 L33.7,678.6 L33.7,671.4 L34.1,665.7 L31.6,664.7 L30.6,662.8 L33.8,661.6 L35.3,660.0 L33.4,656.4 L35.6,652.5 L36.0,648.5 L45.0,639.9 L47.7,635.7 L53.6,637.9 L51.2,646.2 L52.2,649.3 L49.3,653.2 L48.9,655.0 L58.6,654.1 L63.4,655.4 L65.0,660.0 L64.0,663.4 L62.1,664.4 L62.1,670.1 L60.0,672.3 L60.5,675.8 L65.6,676.3 L66.6,679.1 L68.9,680.5 L70.9,684.2 L73.9,683.8 L74.2,686.6 L76.8,687.7 L76.9,690.5 L75.6,692.1 Z" fill="#CEE3F5" id="NO.VA" stroke="#6E6E6E" stroke-width="0.4">
  <desc xmlns="http://www.highcharts.com/svg/namespace">
    <labelrank>7</labelrank>
    <hasc>NO.VA</hasc>
    <alt-name>Vest-Agder fylke|Lister og Mandal|Vestur-Agðir</alt-name>
    <woe-id>2346402</woe-id>
    <subregion>NULL</subregion>
    <fips>NO19</fips>
    <postal-code>VA</postal-code>
    <name>Vest-Agder</name>
    <country>Norway</country>
    <type-en>County</type-en>
    <region>NULL</region>
    <longitude>7.30897</longitude>
    <woe-name>Vest-Agder</woe-name>
    <latitude>58.4481</latitude>
    <woe-label>Vest-Agder Fylke, NO, Norway</woe-label>
    <type>Fylke</type>
    <hc-middle-x>0.44</hc-middle-x>
    <hc-middle-y>0.67</hc-middle-y>
    <hc-key>no-va</hc-key>
    <hc-a2>VA</hc-a2>
  </desc>
</path>

<path d="M157.3,652.7 L158.5,652.6 L157.3,655.2 L155.9,654.8 Z M181.9,615.5 L181.9,620.8 L180.1,623.1 L176.4,624.9 L175.8,628.2 L178.1,638.8 L178.6,644.6 L176.6,650.3 L176.4,652.8 L173.8,661.7 L170.5,663.4 L167.9,662.7 L168.1,659.3 L166.3,651.8 L161.3,650.7 L161.4,646.5 L159.1,649.7 L157.3,649.9 L156.5,647.5 L154.0,646.0 L151.7,647.6 L150.0,642.0 L151.1,639.7 L148.2,639.4 L148.1,635.0 L146.5,633.6 L148.4,629.8 L149.2,630.6 L151.4,629.0 L152.7,626.4 L157.1,620.8 L157.8,618.8 L165.0,619.3 L165.5,615.7 L167.8,616.9 L168.8,619.8 L170.9,621.2 L171.9,624.5 L177.3,617.4 L179.7,615.6 Z" fill="#CEE3F5" id="NO.OF" stroke="#6E6E6E" stroke-width="0.4">
  <desc xmlns="http://www.highcharts.com/svg/namespace">
    <labelrank>7</labelrank>
    <hasc>NO.OF</hasc>
    <alt-name>Oestfold fylke</alt-name>
    <woe-id>2346396</woe-id>
    <subregion>NULL</subregion>
    <fips>NO13</fips>
    <postal-code>OF</postal-code>
    <name>Østfold</name>
    <country>Norway</country>
    <type-en>County</type-en>
    <region>NULL</region>
    <longitude>11.2074</longitude>
    <woe-name>Østfold</woe-name>
    <latitude>59.4065</latitude>
    <woe-label>Ostfold, NO, Norway</woe-label>
    <type>Fylke</type>
    <hc-middle-x>0.46</hc-middle-x>
    <hc-middle-y>0.46</hc-middle-y>
    <hc-key>no-of</hc-key>
    <hc-a2>OF</hc-a2>
  </desc>
</path>

<path d="M182.5,361.4 L184.5,364.0 L183.7,366.3 L181.9,365.0 Z M182.2,360.5 L181.1,363.1 L179.7,361.0 L178.1,361.0 L178.5,359.1 L181.2,358.3 Z M170.9,348.3 L169.1,349.2 L170.4,345.4 L172.3,345.3 L176.1,343.2 L177.9,343.3 Z M173.9,342.1 L174.4,342.7 L171.2,344.3 L170.1,341.9 Z M193.0,336.9 L187.9,340.2 L187.1,339.5 L188.6,336.7 Z M200.1,342.0 L201.6,342.5 L201.5,343.2 L202.1,343.2 L204.5,344.7 L206.9,344.0 L210.0,344.6 L211.4,346.1 L214.4,346.3 L217.5,344.8 L218.8,341.9 L220.5,341.1 L223.6,337.6 L227.2,338.5 L232.4,338.2 L235.1,338.6 L247.2,337.5 L249.5,338.4 L233.7,366.1 L240.3,371.1 L243.0,371.9 L244.3,373.7 L245.1,386.2 L244.8,388.1 L240.9,395.9 L239.9,396.4 L223.7,391.7 L217.9,393.3 L212.5,396.6 L210.8,398.4 L205.9,405.9 L201.1,413.8 L198.1,416.7 L199.1,422.1 L198.6,424.3 L193.2,432.8 L194.6,437.3 L184.7,437.2 L180.8,429.6 L169.1,428.3 L167.4,426.2 L167.4,423.1 L168.4,422.1 L165.2,420.7 L165.5,418.0 L168.8,417.4 L167.3,415.1 L162.9,417.4 L165.2,413.5 L167.8,412.3 L168.9,410.6 L172.0,409.0 L173.9,409.9 L177.0,406.9 L182.2,405.2 L181.2,402.6 L177.5,401.5 L174.2,402.2 L174.0,400.1 L177.1,397.4 L182.1,395.7 L183.6,393.8 L178.3,392.7 L177.5,390.7 L176.2,394.1 L171.1,396.9 L168.0,399.9 L165.2,400.6 L161.6,403.5 L166.3,401.7 L170.3,399.4 L172.9,401.5 L173.3,402.9 L171.3,404.6 L169.1,408.2 L166.8,408.6 L162.7,410.6 L161.9,412.5 L157.1,415.3 L152.9,415.9 L151.8,416.9 L151.3,413.9 L153.2,411.1 L159.2,407.1 L160.5,403.7 L163.5,399.0 L166.9,396.2 L168.2,391.7 L170.6,388.5 L168.3,386.4 L168.9,383.6 L170.8,382.4 L172.3,378.7 L168.4,376.4 L164.9,372.4 L164.6,369.9 L167.4,372.0 L169.1,374.5 L170.1,374.1 L166.7,369.2 L170.0,368.6 L169.2,365.4 L171.2,369.1 L173.0,365.1 L173.1,362.5 L175.2,363.8 L175.6,366.8 L177.7,369.3 L177.3,371.0 L180.3,371.0 L181.3,372.0 L180.1,375.2 L182.0,373.9 L182.9,371.0 L188.6,369.8 L183.6,370.3 L184.2,368.0 L186.0,367.6 L188.8,365.2 L187.9,362.0 L185.7,364.8 L183.7,361.4 L183.3,357.6 L187.0,354.6 L192.4,354.1 L193.6,353.1 L189.2,351.8 L192.5,351.3 L192.5,350.2 L189.4,350.8 L191.2,349.1 L199.0,345.1 L202.5,346.3 L200.8,344.7 L198.8,344.4 L195.5,345.5 L191.5,348.4 L188.8,349.3 L188.8,350.7 L185.5,352.3 L183.1,355.2 L179.9,355.7 L182.7,354.2 L184.4,351.9 L182.5,352.4 L180.0,351.3 L181.2,350.2 L186.7,349.6 L189.9,348.2 L180.4,349.5 L184.1,346.3 L186.5,347.7 L185.8,345.9 L189.4,345.4 L193.9,343.5 L193.6,341.8 L197.3,339.3 L198.8,339.8 Z M175.2,361.2 L176.2,360.1 L179.3,362.4 L180.9,366.3 L183.5,366.4 L183.1,369.9 L180.2,367.6 L177.9,367.8 L176.8,365.2 L179.1,364.6 L178.4,363.2 L175.9,363.4 Z M177.2,344.4 L179.7,346.8 L181.0,347.4 L179.8,349.0 L176.7,350.4 L176.0,349.2 L176.9,347.2 L175.2,347.0 L172.9,349.1 L171.1,348.9 Z" fill="#CEE3F5" id="NO.NT" stroke="#6E6E6E" stroke-width="0.4">
  <desc xmlns="http://www.highcharts.com/svg/namespace">
    <labelrank>7</labelrank>
    <hasc>NO.NT</hasc>
    <alt-name>Nord-Troendelag fylke|Nordre Trondhjem|Norður-Þrændalög</alt-name>
    <woe-id>2346393</woe-id>
    <subregion>NULL</subregion>
    <fips>NO10</fips>
    <postal-code>NT</postal-code>
    <name>Nord-Trøndelag</name>
    <country>Norway</country>
    <type-en>County</type-en>
    <region>NULL</region>
    <longitude>12.2637</longitude>
    <woe-name>Nord-Trøndelag</woe-name>
    <latitude>64.2773</latitude>
    <woe-label>Nord-Trondelag, NO, Norway</woe-label>
    <type>Fylke</type>
    <hc-middle-x>0.62</hc-middle-x>
    <hc-middle-y>0.39</hc-middle-y>
    <hc-key>no-nt</hc-key>
    <hc-a2>NT</hc-a2>
  </desc>
</path>

<path d="M11.4,634.9 L15.7,636.6 L14.7,638.6 L10.4,635.3 Z M18.8,634.1 L16.5,635.3 L16.3,633.3 L17.9,632.3 Z M7.4,632.7 L5.7,630.2 L7.0,628.6 L8.1,630.7 Z M22.7,631.3 L20.8,630.4 L21.7,628.3 L25.6,629.3 Z M3.8,625.3 L4.6,626.5 L3.3,631.9 L1.4,633.1 L0.0,629.9 L1.1,625.0 L2.4,625.5 L1.4,622.0 L2.8,618.6 L4.2,623.9 Z M2.8,615.2 L6.3,614.6 L8.9,614.2 L11.6,613.7 L12.4,612.5 L18.2,611.7 L20.8,612.1 L23.8,610.9 L29.8,611.8 L30.4,609.8 L34.3,603.3 L40.9,600.4 L44.5,601.5 L44.7,604.1 L43.4,607.5 L44.5,608.6 L52.3,605.3 L55.3,605.6 L55.5,608.7 L58.7,611.4 L55.4,611.9 L51.6,614.9 L50.8,619.1 L51.4,620.8 L48.2,622.7 L44.9,629.8 L44.7,635.2 L47.7,635.7 L45.0,639.9 L36.0,648.5 L35.6,652.5 L33.4,656.4 L35.3,660.0 L33.8,661.6 L30.6,662.8 L31.6,664.7 L34.1,665.7 L33.7,671.4 L33.7,678.6 L31.2,681.0 L26.7,682.7 L21.8,678.8 L20.1,678.3 L16.7,675.2 L16.2,671.0 L11.8,669.2 L11.5,667.5 L9.5,667.3 L6.6,661.1 L5.0,654.2 L6.6,652.8 L7.3,648.4 L8.3,647.9 L8.1,643.9 L10.3,645.8 L8.0,642.0 L9.1,639.6 L13.1,643.5 L13.3,646.1 L17.5,645.0 L22.4,651.7 L21.8,648.7 L24.1,645.8 L26.1,644.9 L38.2,642.8 L30.6,642.9 L25.2,644.0 L21.2,648.4 L20.0,645.2 L22.3,643.6 L21.4,642.0 L19.3,642.1 L18.1,638.3 L19.7,637.1 L25.4,636.0 L22.2,635.6 L24.6,632.3 L29.6,629.8 L31.6,627.6 L28.3,629.6 L25.9,629.4 L25.4,627.6 L29.5,627.8 L28.7,625.7 L25.7,627.0 L25.0,625.1 L23.2,625.9 L25.9,622.6 L29.0,621.6 L31.0,617.5 L38.4,615.3 L33.8,615.6 L30.9,616.7 L32.4,614.5 L32.4,611.6 L31.1,615.5 L28.6,619.5 L21.4,624.5 L21.1,619.6 L28.4,619.0 L21.0,617.4 L19.9,614.5 L18.8,615.1 L18.8,618.4 L16.8,618.8 L14.9,620.9 L17.7,619.9 L19.7,622.7 L19.7,624.5 L15.3,624.6 L14.2,626.2 L12.9,620.1 L11.6,625.2 L8.9,626.8 L7.8,621.3 L6.4,624.9 L6.1,619.3 L4.6,622.7 Z" fill="#CEE3F5" id="NO.RO" stroke="#6E6E6E" stroke-width="0.4">
  <desc xmlns="http://www.highcharts.com/svg/namespace">
    <labelrank>7</labelrank>
    <hasc>NO.RO</hasc>
    <alt-name>Rogaland fylke|Stavanger</alt-name>
    <woe-id>2346397</woe-id>
    <subregion>NULL</subregion>
    <fips>NO14</fips>
    <postal-code>RO</postal-code>
    <name>Rogaland</name>
    <country>Norway</country>
    <type-en>County</type-en>
    <region>NULL</region>
    <longitude>6.41809</longitude>
    <woe-name>Rogaland</woe-name>
    <latitude>59.1585</latitude>
    <woe-label>Rogaland Fylke, NO, Norway</woe-label>
    <type>Fylke</type>
    <hc-middle-x>0.35</hc-middle-x>
    <hc-middle-y>0.73</hc-middle-y>
    <hc-key>no-ro</hc-key>
    <hc-a2>RO</hc-a2>
  </desc>
</path>

<path d="M145.0,613.5 L145.4,619.6 L147.0,621.1 L147.0,625.9 L143.8,628.7 L142.3,627.5 L142.7,624.2 L141.6,618.4 L138.2,616.4 L139.2,618.8 L132.5,618.9 L129.5,621.6 L132.7,628.6 L125.1,628.5 L124.8,631.6 L121.0,630.0 L118.9,626.7 L117.5,626.7 L116.8,619.4 L114.8,615.2 L115.2,611.0 L111.3,608.4 L111.5,605.0 L109.6,601.6 L106.6,599.2 L106.1,594.5 L102.4,590.7 L92.1,589.2 L86.0,587.6 L76.5,590.3 L71.4,588.8 L67.2,590.0 L69.9,586.3 L73.8,578.4 L74.9,567.9 L73.5,561.8 L70.9,559.3 L74.0,556.7 L76.6,555.8 L78.5,551.8 L82.4,548.5 L86.6,548.8 L91.1,544.5 L91.4,541.9 L93.7,539.8 L96.2,543.1 L101.6,546.7 L101.9,548.7 L104.5,550.7 L108.3,552.0 L116.0,558.5 L118.6,561.4 L118.3,563.4 L120.1,568.1 L120.0,570.4 L125.0,572.1 L126.1,574.6 L130.5,576.5 L130.2,571.5 L133.4,570.0 L134.0,567.6 L136.6,568.0 L139.3,574.7 L140.6,582.9 L142.6,588.2 L144.2,590.6 L149.8,595.3 L147.1,600.3 L144.5,601.4 L142.6,604.3 L141.5,611.4 L142.7,613.1 Z" fill="#CEE3F5" id="NO.BU" stroke="#6E6E6E" stroke-width="0.4">
  <desc xmlns="http://www.highcharts.com/svg/namespace">
    <labelrank>7</labelrank>
    <hasc>NO.BU</hasc>
    <alt-name>Buskerud fylke</alt-name>
    <woe-id>2346387</woe-id>
    <subregion>NULL</subregion>
    <fips>NO04</fips>
    <postal-code>BU</postal-code>
    <name>Buskerud</name>
    <country>Norway</country>
    <type-en>County</type-en>
    <region>NULL</region>
    <longitude>9.045730000000001</longitude>
    <woe-name>Buskerud</woe-name>
    <latitude>60.4253</latitude>
    <woe-label>Buskerud Fylke, NO, Norway</woe-label>
    <type>Fylke</type>
    <hc-middle-x>0.50</hc-middle-x>
    <hc-middle-y>0.44</hc-middle-y>
    <hc-key>no-bu</hc-key>
    <hc-a2>BU</hc-a2>
  </desc>
</path>

<path d="M124.8,631.6 L125.1,628.5 L132.7,628.6 L129.5,621.6 L132.5,618.9 L139.2,618.8 L141.8,622.0 L140.7,627.8 L137.5,625.8 L140.6,631.6 L142.9,632.5 L142.2,637.3 L143.9,639.8 L142.5,642.6 L139.7,641.2 L137.9,648.6 L136.7,649.2 L136.4,652.7 L135.6,649.2 L135.2,653.6 L133.7,654.8 L133.2,652.3 L127.6,656.9 L123.7,656.2 L124.3,653.4 L125.5,648.7 L125.1,645.5 L126.6,643.8 L126.5,639.7 L124.6,636.6 Z" fill="#CEE3F5" id="NO.VF" stroke="#6E6E6E" stroke-width="0.4">
  <desc xmlns="http://www.highcharts.com/svg/namespace">
    <labelrank>7</labelrank>
    <hasc>NO.VF</hasc>
    <alt-name>Vestfold fylke|Jarlsberg og Larvik</alt-name>
    <woe-id>2346403</woe-id>
    <subregion>NULL</subregion>
    <fips>NO20</fips>
    <postal-code>VF</postal-code>
    <name>Vestfold</name>
    <country>Norway</country>
    <type-en>County</type-en>
    <region>NULL</region>
    <longitude>10.1269</longitude>
    <woe-name>Vestfold</woe-name>
    <latitude>59.3146</latitude>
    <woe-label>Vestfold Fylke, NO, Norway</woe-label>
    <type>Fylke</type>
    <hc-middle-x>0.85</hc-middle-x>
    <hc-middle-y>0.51</hc-middle-y>
    <hc-key>no-vf</hc-key>
    <hc-a2>VF</hc-a2>
  </desc>
</path>

<path d="M534.5,56.7 L535.9,57.4 L533.2,60.3 L531.9,59.5 L531.5,61.8 L530.0,61.8 L531.1,57.5 L530.2,54.8 L531.0,53.4 L533.3,53.9 Z M447.0,50.8 L447.5,52.2 L445.9,53.6 L446.3,51.0 Z M383.8,61.1 L382.7,60.1 L382.7,54.6 L384.3,56.1 L384.5,57.9 Z M378.6,57.8 L377.7,58.5 L377.2,57.1 L377.9,55.2 Z M452.6,29.4 L451.9,30.0 L451.3,28.5 L452.2,27.6 Z M419.2,16.8 L419.6,19.3 L421.9,18.7 L421.4,20.9 L420.1,21.8 L416.9,20.1 L418.5,19.3 L416.7,18.7 L417.2,16.2 Z M434.2,12.6 L435.6,13.1 L435.1,15.1 L433.7,14.0 Z M430.5,10.6 L431.4,10.2 L430.9,14.2 L428.0,13.0 L429.3,10.1 Z M396.2,58.2 L394.7,56.2 L396.3,53.2 L400.0,52.7 L401.5,52.5 L402.7,55.1 L405.0,55.3 L406.3,59.1 L401.5,59.4 Z M409.9,56.9 L407.9,57.1 L407.3,54.8 L407.5,50.2 L406.3,54.3 L404.6,53.5 L403.0,51.5 L404.5,50.2 L403.1,48.9 L406.6,44.7 L407.2,45.8 L409.1,44.3 L409.8,46.2 L410.0,42.6 L411.3,41.9 L413.6,42.4 L411.5,40.6 L412.4,38.8 L413.4,38.5 L414.5,40.5 L414.7,43.8 L416.3,46.0 L415.5,49.1 L412.7,52.8 L411.3,53.5 L412.5,54.6 Z M414.9,36.8 L414.2,34.0 L415.0,31.4 L416.9,31.0 L417.2,33.2 L419.7,32.8 L421.1,33.7 L423.3,37.0 L423.1,38.7 L419.6,43.3 L417.5,43.0 Z M402.0,44.3 L397.9,43.5 L398.0,45.5 L397.0,46.9 L395.4,45.5 L395.3,47.5 L393.1,47.6 L391.8,45.5 L391.4,48.3 L389.7,48.8 L390.8,43.6 L392.2,41.6 L386.7,43.0 L387.5,41.1 L385.3,40.6 L386.9,39.8 L389.7,40.9 L390.0,38.6 L393.5,40.8 L392.4,37.1 L394.6,38.0 L395.1,35.7 L397.2,37.0 L396.5,39.0 L400.5,38.7 L398.1,33.7 L400.3,33.8 L401.9,34.9 L401.4,36.1 L402.9,37.7 L403.5,34.4 L405.2,34.8 L405.8,33.7 L403.1,30.8 L404.0,29.5 L405.3,30.5 L405.1,28.7 L407.3,31.0 L408.3,30.7 L407.4,26.5 L409.0,27.2 L410.5,29.8 L409.3,30.3 L408.0,36.0 L406.0,35.6 L406.6,37.6 L405.5,41.4 L404.2,40.6 L404.0,42.3 Z M452.8,11.5 L455.0,8.7 L455.0,11.2 L453.4,13.0 L450.6,14.2 L447.6,14.0 L448.3,15.7 L444.7,16.9 L442.2,14.6 L444.4,12.4 L442.5,12.0 L440.5,13.6 L439.6,11.7 L442.1,8.2 L446.5,9.6 L445.7,8.0 L443.1,6.0 L445.0,4.6 L447.2,4.5 L447.3,6.8 L449.0,7.3 L450.9,5.4 L451.7,7.3 L449.6,9.6 L451.0,10.1 L450.7,11.6 Z M380.6,65.6 L375.2,64.1 L378.6,61.4 L379.8,64.5 L379.7,60.0 L380.9,58.9 L382.1,61.4 L383.5,61.9 L387.0,66.9 L385.4,60.7 L387.9,57.5 L388.6,59.4 L390.1,58.3 L390.9,59.2 L393.1,58.4 L394.0,59.5 L393.3,61.8 L394.3,65.0 L393.5,66.5 L396.4,65.8 L398.7,66.8 L398.3,65.6 L394.9,64.9 L395.2,60.5 L396.8,59.8 L399.5,61.7 L400.7,61.3 L406.0,61.4 L404.7,65.9 L402.6,67.4 L399.5,68.7 L397.3,68.8 L396.8,70.3 L401.2,69.0 L404.9,66.9 L407.3,64.4 L407.4,67.9 L408.4,70.5 L409.8,69.6 L411.2,74.3 L413.1,71.8 L414.3,74.1 L416.5,71.8 L417.5,69.6 L413.0,69.4 L410.5,66.9 L413.6,65.3 L414.2,63.9 L412.2,62.7 L414.1,60.9 L411.6,61.1 L411.3,59.8 L415.0,58.7 L414.5,57.7 L411.5,58.7 L413.1,56.7 L416.1,55.6 L414.3,54.5 L414.5,51.8 L418.0,46.9 L419.2,44.2 L420.5,43.3 L427.6,43.7 L425.8,41.8 L423.6,40.8 L425.7,37.4 L425.8,34.2 L426.6,32.7 L429.2,33.0 L431.6,35.4 L433.5,35.4 L433.2,33.1 L431.6,30.9 L429.4,29.3 L424.9,29.1 L424.0,28.1 L424.0,25.3 L425.9,23.5 L427.5,25.8 L430.4,27.4 L429.9,22.9 L431.4,22.2 L428.4,19.4 L429.6,17.0 L431.5,17.2 L433.3,19.0 L432.8,20.2 L435.5,19.4 L435.2,16.3 L436.5,16.9 L435.6,21.4 L437.5,22.3 L438.1,18.5 L440.1,20.8 L441.0,25.0 L442.5,23.6 L442.7,19.7 L441.2,16.3 L441.4,15.1 L444.8,17.3 L444.5,19.8 L443.5,20.9 L447.9,18.2 L449.0,19.8 L450.9,17.7 L452.0,19.6 L450.6,21.4 L449.4,24.4 L447.9,25.3 L448.6,26.7 L446.7,30.5 L445.7,31.1 L444.5,34.3 L440.9,39.4 L440.6,40.5 L443.4,38.7 L443.7,40.8 L440.5,41.2 L441.3,42.1 L443.8,41.3 L444.8,46.0 L443.7,45.5 L442.0,47.9 L444.0,48.7 L444.6,50.3 L441.3,55.0 L441.4,58.8 L442.3,62.8 L443.8,63.4 L442.8,60.7 L444.0,58.6 L444.2,61.1 L445.4,62.4 L447.3,60.8 L447.7,57.0 L448.7,55.6 L450.6,49.8 L448.3,48.7 L451.3,42.0 L453.8,34.9 L455.7,31.3 L455.9,26.6 L459.6,17.5 L462.8,12.6 L464.1,12.0 L465.4,14.9 L465.0,18.5 L466.3,18.7 L465.7,25.0 L461.2,29.1 L463.7,27.9 L466.7,28.4 L466.2,35.1 L467.0,37.1 L466.3,39.7 L466.8,43.3 L469.2,41.9 L468.9,39.5 L470.8,38.5 L471.0,36.2 L475.1,35.6 L473.0,32.7 L473.8,28.6 L477.7,29.2 L474.9,27.5 L474.8,24.6 L473.3,23.8 L473.9,21.6 L476.4,20.9 L475.9,19.3 L476.6,16.5 L481.5,16.5 L478.8,16.0 L479.5,14.8 L476.6,11.7 L475.7,13.5 L473.1,13.4 L471.7,12.3 L472.0,9.8 L475.3,10.5 L472.8,8.0 L472.8,6.4 L476.8,6.7 L478.6,9.1 L478.4,5.8 L476.9,3.4 L477.3,1.7 L479.7,0.8 L479.8,2.8 L483.1,3.6 L485.6,1.3 L486.6,2.7 L487.9,0.0 L489.4,1.3 L488.8,4.6 L489.8,5.5 L491.3,3.6 L493.9,3.3 L495.0,4.1 L495.0,9.0 L493.1,9.6 L494.7,10.4 L493.2,11.8 L493.7,12.8 L491.8,15.3 L487.1,15.7 L483.9,16.8 L488.6,18.4 L490.8,18.3 L490.2,20.2 L488.0,21.5 L486.2,24.6 L484.1,26.7 L486.5,25.8 L491.9,21.2 L493.1,18.8 L494.1,19.3 L493.9,24.1 L490.9,29.6 L488.8,32.4 L490.0,35.0 L490.1,32.6 L494.4,30.0 L492.9,31.8 L494.1,33.4 L495.5,29.4 L496.8,28.7 L495.4,35.6 L496.8,43.3 L498.3,49.1 L497.3,53.2 L498.8,50.0 L498.8,46.9 L497.0,41.3 L496.5,34.4 L497.5,32.8 L497.5,30.4 L498.7,29.5 L500.3,31.9 L500.7,28.2 L499.4,28.4 L497.5,26.9 L498.1,19.8 L499.8,19.6 L497.7,17.5 L499.6,10.2 L500.5,8.7 L504.8,7.1 L505.1,8.3 L507.9,7.9 L509.9,10.5 L511.8,10.8 L510.5,13.3 L512.1,15.6 L514.7,14.3 L517.3,11.6 L518.9,12.2 L519.4,15.4 L518.6,18.1 L520.8,16.8 L522.7,12.0 L524.6,11.6 L526.7,12.7 L525.3,14.9 L527.9,15.0 L530.0,17.1 L527.0,19.7 L528.0,20.9 L532.5,17.7 L534.9,18.1 L534.9,19.5 L538.5,21.2 L540.6,23.6 L542.0,21.0 L545.6,24.9 L545.4,27.2 L546.9,29.0 L544.7,30.7 L538.3,33.3 L537.9,35.9 L536.4,36.7 L536.0,41.0 L533.4,43.1 L533.9,44.1 L517.0,45.6 L506.2,44.7 L505.5,46.0 L508.1,45.1 L506.2,48.1 L507.4,48.9 L509.2,47.9 L510.7,48.6 L508.8,49.4 L512.2,49.2 L513.7,49.9 L516.2,49.2 L517.1,51.6 L520.3,50.4 L526.9,51.4 L523.4,56.0 L522.6,58.4 L523.8,57.9 L524.7,55.2 L528.7,54.3 L530.1,57.7 L528.7,61.7 L527.2,68.1 L529.7,63.4 L533.7,62.4 L535.5,59.8 L535.6,62.5 L536.8,61.5 L539.3,63.2 L537.1,60.4 L538.5,58.5 L537.3,57.4 L536.5,53.9 L538.6,53.0 L538.8,55.2 L541.1,54.9 L543.1,61.8 L542.7,63.8 L544.1,62.9 L542.9,55.6 L546.8,55.1 L547.4,56.8 L549.4,54.5 L551.6,59.6 L552.7,61.0 L554.0,65.7 L553.4,68.7 L551.7,69.5 L547.2,69.8 L542.2,66.6 L538.9,66.6 L540.8,67.5 L542.0,70.9 L541.3,72.7 L541.4,76.5 L538.5,81.8 L535.8,82.5 L533.7,85.3 L530.6,86.2 L529.2,88.4 L529.5,97.2 L528.8,99.8 L527.2,102.1 L525.3,102.9 L522.6,100.7 L522.0,99.4 L521.4,93.5 L526.1,83.8 L527.1,78.8 L523.1,73.1 L520.7,68.9 L506.3,65.3 L505.2,62.6 L501.0,61.5 L494.2,53.4 L492.5,54.4 L489.3,54.9 L488.9,57.1 L487.0,58.6 L485.3,61.3 L485.4,62.9 L482.0,65.1 L477.4,64.0 L471.1,66.3 L470.5,70.9 L469.1,73.3 L467.7,77.9 L464.9,79.4 L464.0,81.9 L465.2,83.9 L465.0,87.3 L463.9,89.0 L464.5,92.4 L464.1,94.5 L465.2,96.8 L464.0,100.1 L464.2,106.6 L465.3,109.0 L465.7,113.4 L467.1,115.6 L465.5,122.8 L462.2,123.2 L460.6,124.1 L457.7,128.0 L457.1,130.6 L457.8,135.7 L457.6,137.3 L454.7,139.5 L454.2,142.2 L453.3,142.0 L450.7,138.4 L448.7,137.2 L442.1,136.0 L439.1,134.5 L437.8,133.1 L433.7,131.5 L431.1,132.8 L430.8,137.3 L429.1,138.6 L426.2,139.5 L421.3,143.8 L419.0,141.3 L417.4,140.7 L414.3,141.7 L409.1,139.7 L406.0,140.9 L405.3,139.8 L404.2,135.1 L402.2,133.5 L399.4,128.6 L396.5,126.0 L394.7,123.4 L403.8,121.0 L405.3,119.8 L406.1,116.9 L405.7,113.3 L402.9,108.4 L400.1,104.8 L399.7,101.0 L404.1,98.7 L407.0,98.2 L407.8,94.2 L409.3,91.1 L406.6,90.6 L404.1,89.4 L400.8,83.7 L401.6,81.1 L400.6,80.2 L400.8,77.9 L396.2,76.2 L391.2,65.9 L389.0,67.0 L387.3,69.3 L382.8,65.6 Z" fill="#CEE3F5" id="NO.FI" stroke="#6E6E6E" stroke-width="0.4">
  <desc xmlns="http://www.highcharts.com/svg/namespace">
    <labelrank>7</labelrank>
    <hasc>NO.FI</hasc>
    <alt-name>Finnmark fylke|Finmarken|Finnmárkku|Finnmörk</alt-name>
    <woe-id>2346388</woe-id>
    <subregion>NULL</subregion>
    <fips>NO05</fips>
    <postal-code>FI</postal-code>
    <name>Finnmark</name>
    <country>Norway</country>
    <type-en>County</type-en>
    <region>NULL</region>
    <longitude>24.4789</longitude>
    <woe-name>Finnmark</woe-name>
    <latitude>69.56480000000001</latitude>
    <woe-label>Finnmark Fylke, NO, Norway</woe-label>
    <type>Fylke</type>
    <hc-middle-x>0.35</hc-middle-x>
    <hc-middle-y>0.52</hc-middle-y>
    <hc-key>no-fi</hc-key>
    <hc-a2>FI</hc-a2>
  </desc>
</path>

<path d="M203.7,335.4 L202.9,336.7 L204.8,337.4 L201.2,340.2 L197.8,339.0 L200.1,336.6 L200.2,333.7 L202.4,331.9 Z M202.6,318.2 L201.1,321.2 L199.8,322.1 L200.9,320.5 Z M198.4,306.3 L198.6,309.7 L197.3,311.9 L194.0,310.2 L195.6,306.3 Z M209.1,305.8 L206.7,309.2 L205.9,308.4 L206.9,306.8 Z M209.0,303.4 L207.6,304.1 L208.5,302.3 L210.3,301.3 Z M225.5,276.7 L220.4,279.3 L221.7,277.0 L225.4,276.4 Z M218.0,275.2 L219.2,275.8 L219.4,278.4 L216.8,279.4 L215.9,277.4 Z M221.3,268.5 L220.0,272.5 L218.0,270.9 L219.1,269.6 L218.4,267.9 L219.9,267.2 Z M215.2,259.9 L215.8,261.3 L215.1,262.3 L214.0,260.6 Z M230.6,250.3 L232.4,250.7 L232.1,251.6 L228.1,252.1 Z M241.1,236.0 L238.8,236.8 L238.9,235.2 L240.2,234.7 Z M248.8,233.2 L247.8,234.9 L248.0,238.8 L247.0,239.2 L245.9,236.0 L243.7,235.1 L245.3,232.1 L247.4,233.4 L249.0,230.1 Z M252.2,217.0 L252.0,218.4 L248.7,219.4 L251.7,216.1 Z M218.7,203.4 L215.7,204.1 L217.3,202.6 L218.7,202.0 Z M266.5,188.0 L270.1,190.7 L267.6,191.5 L263.8,191.2 L263.9,188.3 Z M282.4,185.9 L280.9,187.5 L278.3,186.1 L276.5,187.5 L273.9,186.6 L275.6,185.4 L281.3,185.2 Z M269.6,188.5 L268.0,188.5 L267.5,187.0 L268.9,184.9 Z M290.3,184.2 L287.5,183.4 L289.4,181.4 L290.5,182.5 Z M232.8,183.2 L232.0,185.8 L231.3,184.8 L229.6,187.1 L228.5,183.1 L229.8,181.5 L231.1,183.3 L231.7,181.8 L231.0,178.3 L233.7,179.8 Z M262.3,174.0 L261.8,175.1 L260.4,173.8 L262.1,171.0 L263.4,172.2 Z M249.6,170.2 L250.1,171.8 L248.7,173.6 L247.7,171.1 L246.0,171.0 L246.2,169.2 Z M291.5,163.9 L291.4,164.7 L288.2,165.0 L286.1,166.6 L285.6,165.7 L287.3,159.5 L290.2,158.3 L291.6,159.2 L292.7,161.8 L290.9,163.0 Z M259.8,160.8 L256.7,157.4 L258.8,156.4 L264.3,157.6 L262.3,160.8 Z M263.6,140.8 L261.4,140.2 L261.9,137.9 L263.6,138.1 Z M198.8,339.8 L200.8,340.6 L201.6,342.5 L200.1,342.0 Z M202.6,324.5 L202.1,322.3 L206.0,318.7 L205.7,317.2 L203.1,318.2 L205.1,312.7 L206.0,315.3 L207.6,316.7 L209.4,323.1 L205.8,325.9 L203.1,326.1 L203.8,328.5 L199.9,331.7 L201.1,327.2 L200.2,326.8 L201.2,324.3 Z M216.0,290.4 L219.5,290.4 L215.8,292.4 L213.4,294.0 L210.4,297.2 L210.2,296.2 L207.8,296.5 L210.2,291.9 L213.0,289.8 L213.1,292.0 Z M212.7,282.6 L209.7,281.7 L212.2,280.3 L213.4,281.5 L212.1,284.0 L214.2,285.1 L211.7,287.7 L206.5,289.9 Z M220.4,196.0 L224.6,184.2 L226.5,181.7 L228.1,181.8 L226.9,183.2 L227.4,188.7 L225.6,189.3 L224.4,187.7 L224.2,189.6 L225.7,190.6 L225.0,192.5 L222.6,193.7 L222.0,195.3 Z M237.7,182.8 L237.4,180.8 L236.1,180.2 L236.1,182.2 L235.1,184.3 L234.0,182.7 L234.6,180.8 L236.7,178.1 L234.5,179.5 L235.5,177.3 L235.3,175.4 L237.3,174.6 L235.1,173.7 L237.8,171.0 L240.8,172.5 L242.4,169.5 L244.6,168.9 L245.0,171.2 L244.2,172.4 L246.6,171.8 L247.9,173.3 L247.0,175.8 L245.4,177.1 L240.3,178.2 L241.7,180.2 L240.3,181.2 L239.3,180.1 L239.2,182.4 Z M254.5,176.4 L248.6,178.7 L248.7,176.1 L251.8,174.0 L250.8,170.3 L252.6,171.6 L254.5,170.1 L252.4,167.1 L254.5,166.5 L256.4,167.6 L255.5,165.4 L257.6,164.2 L258.7,166.9 L259.0,164.2 L260.4,164.3 L260.9,166.3 L260.1,168.2 L262.0,166.5 L262.4,164.0 L264.5,164.3 L265.6,163.2 L267.3,163.7 L265.0,167.7 L259.7,173.2 L258.9,173.0 L260.0,170.1 L259.2,169.0 L257.9,173.6 Z M270.8,152.4 L265.5,156.4 L261.9,156.1 L260.8,153.2 L265.0,151.7 L267.5,149.9 L267.2,147.0 L264.8,146.2 L265.7,147.4 L264.7,149.3 L261.0,151.4 L260.6,149.4 L259.6,151.7 L258.1,150.6 L257.0,153.9 L253.5,154.5 L252.3,150.6 L255.6,148.1 L253.6,147.0 L255.3,144.3 L256.5,147.9 L256.9,144.3 L258.4,143.4 L258.2,146.4 L262.1,145.2 L263.3,145.6 L262.5,142.3 L263.4,141.3 L264.5,145.0 L265.3,141.9 L267.4,143.8 L265.6,140.6 L264.5,135.2 L266.9,133.5 L268.0,137.7 L269.9,139.1 L268.9,143.4 L270.5,141.6 L271.6,141.9 L271.0,144.5 L269.8,144.5 L269.6,146.7 L271.9,148.3 L271.9,150.3 Z M276.7,126.8 L279.2,125.6 L280.5,121.0 L284.8,117.4 L285.7,119.8 L284.2,126.4 L283.4,127.1 L279.7,132.9 L276.3,134.8 L274.7,133.3 L275.1,135.3 L274.4,138.7 L272.5,140.3 L272.4,136.2 L273.0,133.5 L275.0,128.6 Z M293.1,156.0 L292.9,157.7 L290.2,157.1 L285.4,158.5 L284.7,162.2 L283.1,166.0 L281.3,167.3 L281.4,163.3 L278.8,164.3 L278.4,167.1 L276.5,170.9 L274.6,169.0 L271.6,169.5 L271.3,168.1 L276.1,161.8 L275.0,161.7 L272.8,164.8 L271.8,164.7 L268.9,169.0 L266.9,170.6 L266.0,172.5 L264.4,173.5 L264.5,170.3 L266.7,166.1 L269.5,162.5 L269.6,159.6 L267.8,159.3 L268.9,157.1 L273.0,155.3 L274.2,153.3 L273.1,151.7 L272.9,148.4 L276.5,147.6 L273.1,147.0 L272.9,144.1 L276.5,143.3 L275.0,142.6 L274.8,140.9 L276.5,136.5 L281.5,136.3 L281.1,140.6 L278.2,148.1 L279.2,151.3 L277.4,154.3 L276.7,158.5 L277.4,162.1 L281.1,157.8 L282.3,155.3 L284.1,155.5 L288.2,153.5 Z M325.7,156.9 L325.2,157.3 L325.1,164.4 L326.6,174.7 L326.3,176.9 L322.0,186.9 L321.5,187.0 L309.9,180.4 L308.0,183.9 L300.1,191.0 L299.3,192.8 L296.5,204.9 L294.1,209.7 L291.8,211.6 L288.5,212.4 L287.1,216.9 L293.7,228.5 L293.4,236.3 L287.6,242.6 L285.8,245.1 L278.3,260.4 L273.3,266.1 L274.5,274.0 L274.5,277.5 L265.5,283.9 L254.6,285.3 L256.7,300.2 L256.5,303.4 L254.8,307.6 L253.6,320.0 L253.7,327.8 L251.1,331.0 L249.5,338.4 L247.2,337.5 L235.1,338.6 L232.4,338.2 L227.2,338.5 L223.6,337.6 L220.5,341.1 L218.8,341.9 L217.5,344.8 L214.4,346.3 L211.4,346.1 L210.0,344.6 L206.9,344.0 L204.5,344.7 L202.1,343.2 L202.0,340.5 L206.0,338.6 L208.3,338.7 L209.2,337.1 L211.4,336.9 L215.7,332.2 L218.9,327.3 L218.9,326.3 L212.9,333.3 L209.1,335.8 L206.2,335.3 L208.5,333.8 L206.8,330.6 L213.2,330.5 L213.3,329.8 L207.9,329.0 L205.9,329.2 L203.6,330.9 L205.9,327.4 L209.3,324.0 L210.5,324.3 L209.2,319.9 L212.7,321.7 L213.2,318.3 L211.2,316.5 L212.4,315.7 L211.6,312.5 L210.1,316.5 L207.8,315.2 L208.2,312.0 L207.1,312.2 L206.8,309.7 L210.2,304.9 L211.9,305.6 L213.5,310.0 L216.3,310.1 L214.1,308.8 L213.5,306.2 L211.9,304.9 L211.8,303.2 L215.0,300.1 L213.0,298.8 L214.6,294.9 L217.0,293.0 L222.3,295.2 L225.1,299.0 L223.9,294.1 L221.0,293.4 L219.9,291.5 L222.1,287.7 L215.5,288.8 L214.6,287.7 L216.4,285.6 L219.0,284.1 L222.8,283.3 L226.6,281.6 L228.4,280.0 L233.1,279.0 L234.1,280.1 L232.3,281.8 L234.2,281.8 L233.0,285.3 L235.4,283.4 L239.5,282.9 L234.8,281.9 L236.7,279.1 L239.7,280.0 L242.6,279.3 L243.4,277.5 L246.0,275.2 L246.0,273.8 L242.4,275.7 L241.2,277.6 L238.0,276.1 L236.8,278.4 L235.1,279.0 L234.2,276.4 L230.7,278.7 L228.0,278.8 L226.2,280.6 L223.3,282.2 L222.5,280.9 L225.4,277.8 L228.8,275.7 L232.5,275.8 L229.7,273.5 L226.8,275.8 L225.5,274.2 L222.9,274.5 L222.1,272.5 L225.2,271.1 L225.8,269.7 L224.1,265.1 L221.8,263.8 L224.6,262.8 L227.0,264.9 L229.9,263.0 L232.7,262.6 L236.5,264.6 L235.5,263.3 L232.1,261.9 L235.1,259.7 L233.1,259.7 L231.3,261.9 L226.8,262.2 L227.8,259.2 L230.4,258.2 L227.8,258.1 L226.6,256.4 L229.9,257.5 L232.7,256.1 L228.3,254.6 L228.1,253.4 L233.0,254.0 L233.7,255.1 L237.1,255.3 L237.3,254.1 L240.4,254.0 L241.3,253.1 L237.6,253.0 L235.4,254.1 L234.1,253.5 L235.0,251.6 L237.7,252.2 L237.8,251.2 L233.4,250.4 L234.1,249.4 L237.1,249.2 L238.8,250.0 L243.5,250.3 L239.5,249.1 L236.2,245.7 L235.6,243.9 L233.8,244.0 L235.3,242.3 L238.5,242.4 L238.8,240.8 L240.9,240.8 L243.2,239.5 L241.5,241.6 L242.3,242.7 L244.7,239.5 L244.1,238.0 L245.1,236.0 L246.0,239.7 L248.3,240.2 L249.4,236.1 L252.4,236.0 L255.9,237.9 L255.8,236.3 L249.8,235.3 L251.3,230.9 L253.3,231.3 L258.7,230.9 L254.4,229.9 L256.3,228.6 L257.2,229.6 L259.9,228.1 L262.8,228.8 L262.3,231.9 L264.7,228.6 L266.3,228.2 L271.6,230.6 L272.1,234.2 L273.3,234.2 L273.6,230.3 L272.0,228.8 L273.6,228.1 L279.0,230.2 L278.7,228.0 L276.7,228.6 L272.6,226.9 L270.7,228.4 L271.3,226.6 L268.7,227.0 L265.6,226.3 L267.7,223.0 L264.6,224.0 L263.9,225.2 L259.8,225.2 L261.0,225.9 L257.7,228.0 L257.9,224.7 L255.7,226.1 L250.7,226.6 L256.3,219.5 L257.3,216.9 L260.3,217.2 L260.8,219.5 L265.3,215.9 L260.8,215.9 L258.8,213.7 L260.2,211.7 L265.5,209.0 L267.5,211.2 L266.5,211.5 L264.5,209.7 L265.5,212.2 L264.6,213.8 L261.4,214.6 L264.7,214.7 L267.9,212.0 L268.6,213.7 L267.1,217.3 L269.2,214.2 L271.8,213.7 L273.9,215.1 L276.0,221.9 L277.7,224.8 L278.6,223.4 L276.9,221.8 L276.2,218.5 L274.7,216.9 L276.1,215.1 L275.0,214.7 L276.4,212.5 L281.8,209.1 L277.8,210.3 L274.4,212.5 L269.7,211.8 L269.2,208.6 L270.5,208.1 L273.7,209.0 L272.5,206.2 L271.5,207.5 L269.8,206.5 L268.2,207.4 L268.3,205.5 L271.1,203.2 L270.3,201.5 L272.6,203.1 L277.5,203.5 L275.3,201.9 L274.1,202.6 L272.4,200.3 L276.2,199.9 L280.3,203.6 L280.1,201.0 L276.2,198.6 L272.0,197.1 L268.2,201.5 L265.2,203.7 L261.1,205.6 L258.9,204.7 L261.9,202.5 L260.2,201.0 L266.7,200.4 L264.6,200.1 L265.0,198.2 L261.2,198.9 L259.5,197.1 L260.2,196.1 L265.6,195.3 L265.8,194.1 L261.4,194.9 L264.3,192.3 L268.1,192.8 L268.3,195.7 L270.3,192.5 L279.9,189.2 L281.5,191.8 L283.4,186.2 L285.3,185.8 L281.1,184.7 L276.2,184.7 L275.1,182.8 L271.9,185.6 L271.4,187.0 L269.9,184.8 L272.3,181.3 L274.3,179.8 L274.4,181.7 L276.7,179.6 L276.8,178.0 L278.7,179.4 L278.8,181.9 L276.5,181.9 L276.5,183.7 L280.5,181.8 L282.5,179.7 L281.4,177.7 L282.8,176.9 L283.1,173.6 L284.6,173.8 L284.8,178.1 L285.8,177.5 L285.8,182.7 L284.9,185.0 L287.2,186.6 L288.3,188.7 L288.8,192.7 L292.9,196.6 L293.2,194.3 L290.3,193.1 L289.2,191.8 L290.0,186.9 L292.2,190.7 L293.4,191.7 L293.3,189.6 L290.7,186.8 L291.5,186.0 L293.6,188.7 L293.9,185.6 L291.2,184.9 L293.1,181.5 L297.1,183.7 L297.5,182.6 L295.3,181.9 L293.8,180.2 L290.8,182.2 L290.2,179.9 L292.1,178.1 L292.0,176.6 L294.6,177.7 L292.5,174.6 L291.8,175.5 L287.2,175.9 L288.0,174.7 L290.6,174.5 L290.5,173.4 L287.6,173.0 L285.8,171.7 L287.1,169.9 L289.3,170.4 L290.0,171.6 L293.8,173.0 L294.9,176.2 L298.4,179.0 L299.7,179.3 L296.5,175.8 L295.6,172.9 L294.0,171.2 L291.8,170.8 L288.0,168.1 L291.9,166.0 L297.2,165.0 L300.6,166.6 L299.8,169.2 L305.6,166.5 L307.6,171.1 L311.6,173.5 L310.9,171.9 L308.5,169.7 L307.1,166.4 L307.9,164.6 L309.4,164.5 L312.8,166.6 L313.7,166.0 L310.1,164.2 L313.5,163.2 L318.9,164.7 L314.8,162.0 L312.0,162.3 L313.4,157.9 L309.9,159.5 L308.0,162.0 L303.9,163.3 L304.3,160.4 L302.5,159.5 L300.1,162.7 L294.0,163.4 L292.6,159.6 L294.8,158.3 L295.3,159.5 L297.9,158.9 L300.6,156.4 L309.9,155.6 L313.6,153.8 L322.6,152.8 Z" fill="#CEE3F5" id="NO.NO" stroke="#6E6E6E" stroke-width="0.4">
  <desc xmlns="http://www.highcharts.com/svg/namespace">
    <labelrank>7</labelrank>
    <hasc>NO.NO</hasc>
    <alt-name>Nordland fylke</alt-name>
    <woe-id>2346392</woe-id>
    <subregion>NULL</subregion>
    <fips>NO09</fips>
    <postal-code>NO</postal-code>
    <name>Nordland</name>
    <country>Norway</country>
    <type-en>County</type-en>
    <region>NULL</region>
    <longitude>14.7203</longitude>
    <woe-name>Nordland</woe-name>
    <latitude>66.7347</latitude>
    <woe-label>Nordland Fylke, NO, Norway</woe-label>
    <type>Fylke</type>
    <hc-middle-x>0.45</hc-middle-x>
    <hc-middle-y>0.67</hc-middle-y>
    <hc-key>no-no</hc-key>
    <hc-a2>NO</hc-a2>
  </desc>
</path>

<path d="M304.5,146.2 L299.5,148.1 L299.5,145.6 L302.6,140.9 L303.4,143.1 L305.2,145.6 Z M306.6,140.7 L306.5,137.6 L308.3,137.7 L310.6,140.3 L308.1,143.7 L306.7,144.3 L305.3,140.5 L303.9,138.9 L304.2,137.5 Z M291.1,135.3 L293.9,135.5 L294.6,136.6 L294.0,139.7 L290.8,139.1 L288.2,135.6 L289.0,134.2 Z M309.6,133.9 L308.6,131.5 L310.4,128.8 L312.2,128.4 L312.1,130.3 Z M327.5,89.3 L327.9,87.1 L329.2,87.6 L329.2,89.0 Z M367.1,87.2 L365.2,87.5 L364.4,85.5 L364.9,82.5 L367.5,81.5 L368.0,85.3 Z M349.1,86.0 L345.6,87.1 L344.8,86.1 L346.2,82.8 L348.9,80.3 L350.2,78.0 L351.8,79.5 L349.8,85.4 Z M371.0,75.9 L373.9,75.6 L372.0,77.3 L371.4,79.2 L369.0,79.3 L367.9,76.7 L369.5,74.2 Z M385.0,73.9 L384.6,75.4 L382.2,74.3 L382.8,72.9 Z M332.5,76.0 L334.0,73.8 L335.6,75.4 L334.5,77.0 L332.0,78.5 L331.0,80.4 L330.0,77.1 L330.6,73.7 L332.0,74.1 Z M369.9,72.3 L368.7,72.8 L367.9,70.4 L368.4,68.7 L370.1,70.8 Z M345.8,73.6 L342.3,72.9 L342.3,70.7 L343.7,70.5 L346.2,72.7 Z M333.5,69.3 L333.7,71.9 L331.8,71.2 L332.7,69.4 Z M339.1,65.6 L340.2,69.1 L339.9,71.9 L337.7,73.0 L335.7,71.3 L338.1,68.7 L337.3,66.5 Z M357.3,66.1 L356.8,65.8 L356.5,61.5 L358.2,63.6 Z M330.9,101.8 L324.4,104.7 L323.1,104.8 L321.4,102.7 L319.3,101.7 L321.7,99.2 L323.6,99.5 L324.7,101.4 L326.6,98.8 L324.6,99.0 L322.5,95.4 L329.9,94.9 L326.1,94.6 L324.9,92.3 L325.3,90.8 L327.7,91.5 L327.8,92.9 L329.5,90.0 L330.7,89.9 L330.6,92.5 L332.1,96.0 L333.2,90.8 L331.2,88.2 L330.9,85.6 L333.9,85.8 L333.9,87.5 L336.6,88.0 L338.1,90.3 L337.8,92.7 L335.8,95.1 L333.8,96.2 L333.3,98.1 L334.5,100.9 L332.9,102.4 Z M345.9,83.1 L344.2,87.2 L343.0,88.7 L339.2,90.2 L337.7,87.7 L331.6,82.3 L334.1,82.4 L335.2,80.9 L333.6,80.4 L333.5,78.6 L335.0,77.7 L338.3,77.5 L337.2,75.0 L339.7,73.8 L340.1,75.1 L341.9,74.7 L341.4,77.2 L343.4,79.2 L344.5,76.2 L346.1,75.5 L346.8,78.9 L347.9,77.3 L348.6,79.1 L346.2,81.1 Z M366.3,64.3 L368.1,66.4 L367.5,70.6 L368.2,73.1 L366.3,73.1 L364.6,74.6 L364.6,71.9 L363.1,74.1 L360.8,71.9 L360.9,68.3 L363.7,64.6 Z M349.2,71.1 L346.8,66.9 L345.0,65.4 L347.3,63.1 L347.9,65.2 L349.6,67.2 L350.3,69.3 L351.0,67.1 L352.6,69.1 L354.5,69.3 L353.3,70.2 L356.5,71.8 L354.8,72.5 L353.6,74.8 L350.8,75.0 L349.4,73.8 Z M281.1,140.6 L281.5,136.3 L281.9,140.0 L280.8,145.5 L278.9,148.0 L280.6,147.4 L282.5,145.0 L283.2,146.5 L282.2,150.7 L279.5,152.9 L279.3,157.1 L280.0,154.6 L283.6,151.0 L284.7,153.5 L285.0,151.2 L284.1,149.2 L285.5,147.6 L287.5,147.9 L285.7,145.4 L285.4,142.6 L287.0,141.5 L288.4,142.4 L288.1,139.0 L289.3,140.8 L291.7,141.8 L292.0,143.6 L293.9,143.0 L292.8,144.9 L293.5,148.5 L294.5,149.2 L293.1,156.0 L288.2,153.5 L284.1,155.5 L282.3,155.3 L281.1,157.8 L277.4,162.1 L276.7,158.5 L277.4,154.3 L279.2,151.3 L278.2,148.1 Z M394.7,123.4 L388.3,113.6 L381.7,112.8 L378.0,115.9 L377.1,119.1 L379.8,123.8 L379.0,126.2 L377.8,126.5 L372.1,123.7 L370.1,127.4 L360.4,129.0 L365.4,134.5 L366.2,140.0 L364.5,147.9 L363.2,150.7 L359.8,154.5 L365.5,157.4 L361.5,163.7 L360.0,164.5 L351.0,161.3 L342.2,157.6 L335.7,158.6 L334.6,158.3 L330.4,154.8 L325.7,156.9 L322.6,152.8 L313.6,153.8 L309.9,155.6 L300.6,156.4 L297.9,158.9 L295.3,159.5 L294.8,158.3 L294.5,154.2 L295.6,152.6 L299.0,150.5 L302.4,148.9 L305.5,152.8 L304.8,149.3 L307.3,147.9 L309.6,148.5 L311.4,150.8 L314.5,149.9 L312.0,149.5 L310.2,146.7 L308.7,147.5 L306.9,146.3 L311.1,143.0 L313.2,144.3 L317.3,144.7 L311.2,142.1 L315.4,138.8 L317.4,139.9 L317.9,138.6 L315.6,137.6 L315.8,136.5 L310.3,138.6 L312.2,135.3 L311.3,133.5 L314.7,128.3 L314.2,127.0 L318.1,126.6 L319.8,125.1 L323.4,124.6 L322.0,123.9 L322.3,120.7 L320.6,120.8 L320.2,117.8 L322.1,115.2 L323.2,111.2 L322.6,108.6 L325.2,107.0 L327.0,110.3 L326.7,111.8 L328.2,111.7 L329.4,113.6 L329.4,117.1 L330.1,116.8 L330.4,113.1 L331.3,116.4 L333.3,118.3 L332.9,115.4 L335.4,114.9 L337.4,116.3 L339.0,116.3 L337.4,114.3 L332.3,112.7 L330.2,109.3 L328.4,109.0 L328.7,104.9 L331.1,103.8 L335.1,102.9 L335.2,105.5 L336.1,105.7 L338.7,110.9 L341.2,113.1 L345.0,113.2 L345.6,115.5 L343.5,117.0 L344.6,119.6 L346.0,118.5 L347.9,119.5 L347.1,114.4 L344.9,111.4 L341.3,111.7 L338.2,107.4 L338.1,105.2 L342.0,101.6 L338.8,102.7 L337.1,102.3 L336.6,99.5 L338.9,95.2 L339.0,93.0 L342.4,90.3 L345.1,90.4 L347.1,89.0 L351.2,88.5 L349.7,95.1 L350.8,97.1 L349.7,102.5 L350.2,106.8 L348.2,110.0 L350.9,107.5 L351.2,98.6 L354.7,98.7 L353.3,97.7 L352.4,94.5 L353.0,90.5 L355.1,86.1 L354.7,90.4 L355.4,90.0 L357.5,80.7 L358.2,81.6 L360.1,79.3 L362.3,83.0 L362.2,87.6 L361.6,94.8 L363.0,98.4 L361.4,99.8 L361.6,104.5 L360.5,105.4 L360.3,108.4 L356.8,112.6 L357.2,113.3 L355.9,116.4 L357.3,115.4 L358.4,112.6 L362.0,109.4 L363.1,105.3 L365.2,99.3 L368.2,102.0 L369.5,101.5 L367.5,98.2 L364.9,96.7 L365.2,91.2 L364.6,89.2 L366.9,88.8 L369.3,87.1 L369.9,84.9 L369.1,83.0 L373.4,79.1 L371.1,84.2 L373.7,87.3 L373.1,85.5 L374.0,83.5 L375.9,82.5 L375.5,85.9 L376.8,84.8 L376.5,80.8 L378.6,80.5 L376.3,79.3 L376.7,75.7 L379.1,74.1 L382.3,75.8 L383.0,79.0 L386.5,81.0 L389.5,83.7 L390.7,86.1 L393.3,87.8 L392.4,85.0 L389.6,83.0 L391.2,81.7 L389.6,80.8 L388.9,77.4 L389.1,75.2 L390.6,75.1 L390.9,73.4 L387.7,74.0 L386.9,71.8 L389.8,71.2 L391.2,67.9 L388.9,70.0 L386.7,69.9 L384.8,71.8 L382.6,70.0 L380.9,70.5 L379.2,67.7 L380.1,66.2 L377.7,67.0 L374.8,65.0 L375.2,64.1 L380.6,65.6 L382.8,65.6 L387.3,69.3 L389.0,67.0 L391.2,65.9 L396.2,76.2 L400.8,77.9 L400.6,80.2 L401.6,81.1 L400.8,83.7 L404.1,89.4 L406.6,90.6 L409.3,91.1 L407.8,94.2 L407.0,98.2 L404.1,98.7 L399.7,101.0 L400.1,104.8 L402.9,108.4 L405.7,113.3 L406.1,116.9 L405.3,119.8 L403.8,121.0 Z M309.6,101.8 L310.5,101.9 L312.5,106.0 L313.8,106.3 L313.4,101.4 L315.0,104.6 L316.4,101.8 L317.6,104.7 L316.8,106.6 L316.9,109.6 L318.5,105.4 L320.6,106.7 L319.3,107.5 L318.7,110.4 L319.9,111.3 L321.3,110.4 L321.6,114.2 L319.2,114.9 L318.3,116.2 L319.3,119.7 L318.0,119.8 L319.7,123.4 L315.0,124.0 L313.2,125.1 L310.9,125.2 L311.6,122.6 L310.5,122.7 L306.3,127.9 L305.0,130.8 L305.5,132.2 L302.8,132.7 L304.0,129.1 L298.6,130.8 L297.8,130.0 L298.4,127.4 L302.9,126.6 L303.3,124.0 L299.8,123.4 L300.6,121.2 L303.3,121.5 L303.7,120.3 L300.2,118.2 L299.9,116.9 L304.0,117.2 L302.2,115.4 L302.5,114.4 L299.2,114.8 L300.2,112.7 L302.8,113.2 L304.0,112.5 L308.6,113.3 L306.6,111.6 L309.6,111.5 L310.5,110.7 L305.8,109.5 L304.6,107.0 L308.5,108.0 L307.0,105.3 L309.7,106.3 L313.2,108.9 L311.6,105.7 L310.2,104.8 Z" fill="#CEE3F5" id="NO.TR" stroke="#6E6E6E" stroke-width="0.4">
  <desc xmlns="http://www.highcharts.com/svg/namespace">
    <labelrank>7</labelrank>
    <hasc>NO.TR</hasc>
    <alt-name>Troms fylke|Tromsø|Troms-Fylki</alt-name>
    <woe-id>2346401</woe-id>
    <subregion>NULL</subregion>
    <fips>NO18</fips>
    <postal-code>TR</postal-code>
    <name>Troms</name>
    <country>Norway</country>
    <type-en>County</type-en>
    <region>NULL</region>
    <longitude>19.0835</longitude>
    <woe-name>Troms</woe-name>
    <latitude>68.9053</latitude>
    <woe-label>Troms Fylke, NO, Norway</woe-label>
    <type>Fylke</type>
    <hc-middle-x>0.49</hc-middle-x>
    <hc-middle-y>0.71</hc-middle-y>
    <hc-key>no-tr</hc-key>
    <hc-a2>TR</hc-a2>
  </desc>
</path>

<path d="M149.2,630.6 L148.3,627.1 L148.7,624.8 L146.6,617.7 L148.4,612.2 L149.6,611.0 L150.8,617.3 L152.2,611.8 L155.3,612.8 L157.0,610.6 L157.2,604.3 L153.4,597.0 L151.3,595.5 L153.3,594.8 L155.2,589.7 L158.0,586.0 L158.3,584.3 L155.6,580.9 L152.3,579.8 L154.0,575.8 L157.1,578.1 L163.3,576.3 L165.4,571.6 L165.4,571.7 L167.1,577.5 L169.8,580.4 L171.5,585.4 L175.2,590.2 L174.9,595.0 L181.4,602.0 L181.1,608.7 L181.9,611.3 L180.9,613.8 L181.9,615.5 L179.7,615.6 L177.3,617.4 L171.9,624.5 L170.9,621.2 L168.8,619.8 L167.8,616.9 L165.5,615.7 L165.0,619.3 L157.8,618.8 L157.1,620.8 L152.7,626.4 L151.4,629.0 Z" fill="#CEE3F5" id="NO.AK" stroke="#6E6E6E" stroke-width="0.4">
  <desc xmlns="http://www.highcharts.com/svg/namespace">
    <labelrank>7</labelrank>
    <hasc>NO.AK</hasc>
    <alt-name>Akershus fylke</alt-name>
    <woe-id>2346385</woe-id>
    <subregion>NULL</subregion>
    <fips>NO01</fips>
    <postal-code>AK</postal-code>
    <name>Akershus</name>
    <country>Norway</country>
    <type-en>County</type-en>
    <region>NULL</region>
    <longitude>11.2222</longitude>
    <woe-name>Akershus</woe-name>
    <latitude>60.1365</latitude>
    <woe-label>Akershus Fylke, NO, Norway</woe-label>
    <type>Fylke</type>
    <hc-middle-x>0.59</hc-middle-x>
    <hc-middle-y>0.45</hc-middle-y>
    <hc-key>no-ak</hc-key>
    <hc-a2>AK</hc-a2>
  </desc>
</path>

<path d="M163.3,576.3 L157.1,578.1 L154.0,575.8 L152.3,579.8 L155.6,580.9 L158.3,584.3 L158.0,586.0 L155.2,589.7 L153.3,594.8 L151.3,595.5 L149.8,595.3 L144.2,590.6 L142.6,588.2 L140.6,582.9 L139.3,574.7 L136.6,568.0 L134.0,567.6 L133.4,570.0 L130.2,571.5 L130.5,576.5 L126.1,574.6 L125.0,572.1 L120.0,570.4 L120.1,568.1 L118.3,563.4 L118.6,561.4 L116.0,558.5 L108.3,552.0 L104.5,550.7 L101.9,548.7 L101.6,546.7 L96.2,543.1 L93.7,539.8 L91.4,541.9 L91.2,540.0 L88.8,535.5 L88.7,532.7 L93.0,528.1 L92.0,525.3 L92.6,522.8 L96.3,522.5 L94.1,518.3 L89.4,515.4 L87.9,512.1 L87.4,506.4 L84.2,504.7 L78.4,504.4 L77.2,502.6 L76.0,497.5 L77.0,491.0 L75.4,488.4 L79.0,486.5 L82.9,486.7 L82.8,485.4 L86.1,481.9 L90.4,482.8 L93.4,481.9 L95.2,479.6 L97.1,475.4 L103.7,474.1 L114.6,474.6 L117.3,475.8 L120.3,475.6 L132.2,482.2 L136.8,482.0 L133.7,486.0 L133.2,487.9 L138.5,492.7 L138.8,494.3 L136.3,496.1 L136.0,500.7 L140.4,503.6 L142.6,502.6 L142.9,505.6 L141.4,510.3 L146.8,512.5 L149.6,514.8 L154.0,511.8 L155.3,513.9 L156.1,521.9 L156.1,525.9 L159.6,536.6 L157.6,537.7 L153.7,543.5 L148.5,547.7 L150.0,550.6 L152.1,552.1 L155.1,557.2 L154.7,561.4 L162.6,568.2 L165.4,571.6 L165.4,571.7 Z" fill="#CEE3F5" id="NO.OP" stroke="#6E6E6E" stroke-width="0.4">
  <desc xmlns="http://www.highcharts.com/svg/namespace">
    <labelrank>7</labelrank>
    <hasc>NO.OP</hasc>
    <alt-name>Oppland fylke|Kristian|Opland|Upplönd</alt-name>
    <woe-id>2346394</woe-id>
    <subregion>NULL</subregion>
    <fips>NO11</fips>
    <postal-code>OP</postal-code>
    <name>Oppland</name>
    <country>Norway</country>
    <type-en>County</type-en>
    <region>NULL</region>
    <longitude>9.24644</longitude>
    <woe-name>Oppland</woe-name>
    <latitude>61.5731</latitude>
    <woe-label>Oppland Fylke, NO, Norway</woe-label>
    <type>Fylke</type>
    <hc-middle-x>0.57</hc-middle-x>
    <hc-middle-y>0.49</hc-middle-y>
    <hc-key>no-op</hc-key>
    <hc-a2>OP</hc-a2>
  </desc>
</path>

<path d="M165.4,571.7 L165.4,571.6 L162.6,568.2 L154.7,561.4 L155.1,557.2 L152.1,552.1 L150.0,550.6 L148.5,547.7 L153.7,543.5 L157.6,537.7 L159.6,536.6 L156.1,525.9 L156.1,521.9 L155.3,513.9 L154.0,511.8 L149.6,514.8 L146.8,512.5 L141.4,510.3 L142.9,505.6 L142.6,502.6 L140.4,503.6 L136.0,500.7 L136.3,496.1 L138.8,494.3 L138.5,492.7 L133.2,487.9 L133.7,486.0 L136.8,482.0 L139.1,478.2 L140.0,478.7 L142.2,476.2 L145.3,474.4 L144.8,470.8 L145.6,466.9 L147.4,463.4 L150.7,460.9 L157.8,462.4 L160.0,462.1 L161.2,463.6 L165.4,461.8 L171.8,464.4 L173.1,469.6 L178.7,475.6 L180.1,478.5 L184.3,480.8 L186.9,480.0 L191.4,481.3 L195.2,483.2 L197.9,482.7 L198.6,488.5 L193.6,515.1 L199.7,522.8 L204.5,524.9 L210.8,534.4 L211.1,535.5 L209.1,543.0 L207.1,545.8 L205.3,551.6 L201.0,550.9 L195.0,552.5 L194.3,554.2 L195.6,558.5 L196.9,566.3 L199.4,571.5 L202.0,579.1 L201.8,585.4 L198.8,590.5 L199.5,595.7 L199.1,599.8 L197.3,603.3 L193.0,608.0 L189.0,611.0 L183.7,610.5 L181.9,611.3 L181.1,608.7 L181.4,602.0 L174.9,595.0 L175.2,590.2 L171.5,585.4 L169.8,580.4 L167.1,577.5 Z" fill="#CEE3F5" id="NO.HE" stroke="#6E6E6E" stroke-width="0.4">
  <desc xmlns="http://www.highcharts.com/svg/namespace">
    <labelrank>7</labelrank>
    <hasc>NO.HE</hasc>
    <alt-name>Hedmark fylke|Hedemarken|Heiðmörk</alt-name>
    <woe-id>2346389</woe-id>
    <subregion>NULL</subregion>
    <fips>NO06</fips>
    <postal-code>HE</postal-code>
    <name>Hedmark</name>
    <country>Norway</country>
    <type-en>County</type-en>
    <region>NULL</region>
    <longitude>11.2721</longitude>
    <woe-name>Hedmark</woe-name>
    <latitude>61.5285</latitude>
    <woe-label>Hedmark Fylke, NO, Norway</woe-label>
    <type>Fylke</type>
    <hc-middle-x>0.53</hc-middle-x>
    <hc-middle-y>0.41</hc-middle-y>
    <hc-key>no-he</hc-key>
    <hc-a2>HE</hc-a2>
  </desc>
</path>

<path d="M149.8,595.3 L151.3,595.5 L153.4,597.0 L157.2,604.3 L157.0,610.6 L155.3,612.8 L152.2,611.8 L152.3,609.5 L146.4,609.4 L144.8,611.0 L145.0,613.5 L142.7,613.1 L141.5,611.4 L142.6,604.3 L144.5,601.4 L147.1,600.3 Z" fill="#CEE3F5" id="NO.OS" stroke="#6E6E6E" stroke-width="0.4">
  <desc xmlns="http://www.highcharts.com/svg/namespace">
    <labelrank>9</labelrank>
    <hasc>NO.OS</hasc>
    <alt-name>Oslo fylke|Kristiania</alt-name>
    <woe-id>2346395</woe-id>
    <subregion>NULL</subregion>
    <fips>NO12</fips>
    <postal-code>OS</postal-code>
    <name>Oslo</name>
    <country>Norway</country>
    <type-en>County</type-en>
    <region>NULL</region>
    <longitude>10.6419</longitude>
    <woe-name>Oslo</woe-name>
    <latitude>60.0237</latitude>
    <woe-label>Oslo Fylke, NO, Norway</woe-label>
    <type>Fylke</type>
    <hc-middle-x>0.08</hc-middle-x>
    <hc-middle-y>0.49</hc-middle-y>
    <hc-key>no-os</hc-key>
    <hc-a2>OS</hc-a2>
  </desc>
</path>

<path d="M58.7,611.4 L55.5,608.7 L55.3,605.6 L57.4,603.1 L57.8,600.1 L61.0,595.9 L64.6,594.3 L67.2,590.0 L71.4,588.8 L76.5,590.3 L86.0,587.6 L92.1,589.2 L102.4,590.7 L106.1,594.5 L106.6,599.2 L109.6,601.6 L111.5,605.0 L111.3,608.4 L115.2,611.0 L114.8,615.2 L116.8,619.4 L117.5,626.7 L118.9,626.7 L121.0,630.0 L124.8,631.6 L124.6,636.6 L126.5,639.7 L126.6,643.8 L125.1,645.5 L125.5,648.7 L124.3,653.4 L122.5,652.5 L120.9,649.3 L120.6,651.6 L119.5,647.0 L117.0,647.4 L119.7,652.0 L121.6,653.3 L119.6,654.8 L120.4,656.3 L117.1,657.9 L114.3,657.3 L115.6,658.9 L112.2,658.7 L110.5,660.5 L109.4,659.4 L108.5,661.9 L113.3,662.3 L111.4,664.7 L106.6,662.5 L106.7,659.9 L102.6,654.0 L102.3,652.2 L97.8,651.9 L97.0,656.0 L94.7,659.4 L90.2,654.5 L86.7,655.2 L85.3,653.2 L83.6,653.1 L79.4,650.3 L78.4,651.4 L74.0,649.6 L71.3,643.0 L69.5,640.2 L70.4,635.6 L69.3,632.4 L64.6,626.1 L66.7,624.6 L67.4,622.2 L65.4,619.7 L66.2,616.4 L64.3,613.4 L61.7,613.5 Z" fill="#CEE3F5" id="NO.TE" stroke="#6E6E6E" stroke-width="0.4">
  <desc xmlns="http://www.highcharts.com/svg/namespace">
    <labelrank>7</labelrank>
    <hasc>NO.TE</hasc>
    <alt-name>Telemark fylke|Bratsberg|Þelamörk</alt-name>
    <woe-id>2346400</woe-id>
    <subregion>NULL</subregion>
    <fips>NO17</fips>
    <postal-code>TE</postal-code>
    <name>Telemark</name>
    <country>Norway</country>
    <type-en>County</type-en>
    <region>NULL</region>
    <longitude>8.48804</longitude>
    <woe-name>Telemark</woe-name>
    <latitude>59.5476</latitude>
    <woe-label>Telemark Fylke, NO, Norway</woe-label>
    <type>Fylke</type>
    <hc-middle-x>0.52</hc-middle-x>
    <hc-middle-y>0.50</hc-middle-y>
    <hc-key>no-te</hc-key>
    <hc-a2>TE</hc-a2>
  </desc>
</path>

<path d="M111.4,664.7 L107.4,667.0 L102.9,666.1 L102.3,667.1 L106.4,667.6 L104.7,669.2 L105.8,670.1 L100.9,673.8 L98.5,674.4 L98.1,677.2 L92.4,681.8 L90.9,684.3 L87.2,685.6 L84.6,690.1 L82.6,689.2 L80.5,690.4 L76.5,694.6 L75.6,692.1 L76.9,690.5 L76.8,687.7 L74.2,686.6 L73.9,683.8 L70.9,684.2 L68.9,680.5 L66.6,679.1 L65.6,676.3 L60.5,675.8 L60.0,672.3 L62.1,670.1 L62.1,664.4 L64.0,663.4 L65.0,660.0 L63.4,655.4 L58.6,654.1 L48.9,655.0 L49.3,653.2 L52.2,649.3 L51.2,646.2 L53.6,637.9 L47.7,635.7 L44.7,635.2 L44.9,629.8 L48.2,622.7 L51.4,620.8 L50.8,619.1 L51.6,614.9 L55.4,611.9 L58.7,611.4 L61.7,613.5 L64.3,613.4 L66.2,616.4 L65.4,619.7 L67.4,622.2 L66.7,624.6 L64.6,626.1 L69.3,632.4 L70.4,635.6 L69.5,640.2 L71.3,643.0 L74.0,649.6 L78.4,651.4 L79.4,650.3 L83.6,653.1 L85.3,653.2 L86.7,655.2 L90.2,654.5 L94.7,659.4 L97.0,656.0 L97.8,651.9 L102.3,652.2 L102.6,654.0 L106.7,659.9 L106.6,662.5 Z" fill="#CEE3F5" id="NO.AA" stroke="#6E6E6E" stroke-width="0.4">
  <desc xmlns="http://www.highcharts.com/svg/namespace">
    <labelrank>7</labelrank>
    <hasc>NO.AA</hasc>
    <alt-name>Aust-Agder fylke|Austur-Agðir|Nedenes</alt-name>
    <woe-id>2346386</woe-id>
    <subregion>NULL</subregion>
    <fips>NO02</fips>
    <postal-code>AA</postal-code>
    <name>Aust-Agder</name>
    <country>Norway</country>
    <type-en>County</type-en>
    <region>NULL</region>
    <longitude>8.14878</longitude>
    <woe-name>Aust-Agder</woe-name>
    <latitude>58.6698</latitude>
    <woe-label>Aust-Agder Fylke, NO, Norway</woe-label>
    <type>Fylke</type>
    <hc-middle-x>0.49</hc-middle-x>
    <hc-middle-y>0.70</hc-middle-y>
    <hc-key>no-aa</hc-key>
    <hc-a2>AA</hc-a2>
  </desc>
</path>
<g id="NO">
  <desc xmlns="http://www.highcharts.com/svg/namespace">
    <name>Norway</name>
    <labelrank>3</labelrank>
    <country-abbrev>Nor.</country-abbrev>
    <subregion>Northern Europe</subregion>
    <woe-id>-90</woe-id>
    <region-wb>Europe &amp; Central Asia</region-wb>
    <iso-a3>NOR</iso-a3>
    <iso-a2>NO</iso-a2>
    <region-un>Europe</region-un>
    <continent>Europe</continent>
    <hc-key>no</hc-key>
    <hc-a2>NO</hc-a2>
  </desc>
</g>

<path d="M99.61,160.00 L99.17,159.33 L100.04,156.73 L101.65,153.80 L102.34,151.47 L103.05,151.42 L101.95,154.28 L100.85,155.95 L100.67,157.00 L99.80,158.14 Z M74.10,95.99 L74.25,96.55 L75.28,95.56 L76.51,95.99 L76.75,96.69 L77.50,95.73 L77.79,95.86 L78.06,97.73 L78.71,98.91 L78.50,100.39 L78.84,102.56 L78.78,104.36 L79.07,105.56 L71.63,107.68 L71.40,107.11 L70.01,106.88 L69.23,107.97 L68.95,107.48 L69.97,105.44 L69.57,104.53 L68.00,104.19 L68.25,103.55 L69.11,103.45 L69.19,101.91 L67.96,100.41 L66.14,99.33 L66.33,98.73 L70.48,96.91 L71.38,97.27 L71.76,96.94 L71.89,95.69 L72.32,94.89 L73.07,94.76 L73.78,95.15 Z M105.43,92.88 L105.06,91.97 L103.56,90.78 L102.97,88.84 L103.14,87.84 L104.15,87.71 L104.44,88.48 L105.72,90.51 L106.86,90.77 L106.49,91.44 L106.58,92.05 Z M13.23,92.22 L12.95,92.90 L14.16,92.49 L14.22,93.76 L15.52,95.85 L16.21,95.89 L16.06,97.48 L16.64,100.17 L16.87,103.24 L16.44,103.42 L16.24,102.79 L15.48,102.55 L15.04,101.02 L15.41,100.05 L14.33,98.10 L14.17,97.21 L12.84,95.21 L11.68,95.42 L11.42,93.97 L11.34,90.11 L10.87,88.33 L10.96,87.63 L10.14,85.35 L10.00,84.40 L10.45,83.49 L10.49,81.86 L10.32,81.31 L10.85,80.84 L12.32,82.03 L12.98,83.52 L12.74,84.66 L13.27,85.27 L13.54,86.70 L12.61,87.80 L13.00,88.79 L12.90,89.71 L13.32,90.14 Z M117.83,82.96 L118.03,83.17 L120.19,82.84 L121.42,82.18 L121.76,82.81 L119.24,84.56 L117.27,83.52 L116.88,83.09 L114.12,84.50 L112.78,86.35 L111.19,85.90 L112.17,84.85 L112.71,83.43 L113.93,83.20 L114.21,82.45 L114.06,81.78 L116.20,81.59 L117.51,82.40 Z M124.36,80.12 L123.90,80.32 L123.33,79.21 L124.70,79.00 L124.92,79.38 Z M66.74,79.76 L68.22,79.69 L68.81,80.37 L69.90,80.91 L70.29,81.84 L69.53,82.72 L68.37,82.96 L67.83,83.62 L67.28,83.42 L66.90,82.72 L66.20,82.77 L65.76,82.21 L66.29,81.64 L66.35,79.91 Z M66.54,72.46 L66.27,73.34 L65.87,72.70 L63.99,73.24 L63.90,72.02 L63.61,71.58 L64.11,71.11 Z M17.49,58.03 L16.80,59.07 L16.05,58.82 L15.99,57.88 L16.61,57.78 L16.03,56.82 L16.91,56.79 L17.66,57.54 Z M17.73,56.49 L17.53,56.77 L16.17,56.22 L15.90,55.57 L16.36,55.00 L17.17,55.23 Z M135.67,39.58 L135.35,40.44 L132.92,41.71 L132.14,43.04 L126.26,46.05 L125.41,45.25 L125.44,44.88 L132.24,40.76 L132.44,40.33 L133.78,39.14 Z M59.49,43.61 L59.83,43.91 L59.12,45.12 L58.40,45.79 L57.45,44.62 L56.57,44.16 L56.80,43.32 L57.68,41.96 L59.02,42.70 Z M88.31,40.95 L87.24,41.26 L87.15,39.37 L87.37,38.96 Z M87.07,37.39 L87.69,38.06 L87.35,38.64 L86.30,38.28 L86.29,37.58 Z M66.20,38.45 L65.56,38.23 L65.63,37.60 L66.41,36.85 L66.94,37.68 Z M70.15,33.90 L70.06,34.39 L68.89,33.15 L70.23,33.34 Z M72.90,32.19 L73.05,32.72 L71.93,33.45 L71.48,33.09 L71.37,32.31 L72.30,31.78 Z M71.27,31.69 L71.15,32.21 L70.33,32.68 L70.30,31.95 L69.67,31.90 L69.47,31.07 L68.96,30.68 L68.92,30.01 L69.42,30.00 L69.88,30.98 Z M73.33,130.11 L71.86,130.68 L70.74,130.59 L70.36,129.84 L70.80,128.79 L70.34,128.01 L70.43,126.77 L72.49,125.77 L72.79,125.12 L72.93,121.80 L74.04,119.91 L74.05,119.15 L74.80,118.05 L74.66,116.81 L75.44,116.19 L74.93,115.54 L73.58,114.78 L72.79,113.97 L70.51,111.15 L70.64,110.37 L71.21,109.54 L75.56,107.33 L79.89,107.59 L80.71,106.65 L83.35,105.78 L85.64,107.40 L86.58,108.83 L86.01,109.48 L85.89,110.27 L84.61,110.56 L84.20,111.50 L84.27,113.28 L84.60,113.92 L86.19,114.75 L87.94,117.28 L89.96,117.73 L90.73,116.42 L91.77,116.26 L92.17,115.81 L92.89,117.18 L93.08,118.36 L92.06,120.47 L92.01,121.72 L90.87,124.93 L90.68,125.17 L90.16,128.12 L89.21,129.77 L87.97,130.77 L86.80,132.25 L86.30,133.79 L86.47,134.87 L86.14,135.70 L84.07,136.00 L82.63,136.62 L80.78,135.87 L80.49,134.66 L81.23,133.68 L81.05,132.29 L80.57,131.32 L80.71,130.57 L82.22,128.88 L82.84,127.01 L81.72,127.24 L81.45,126.67 L80.66,126.38 L79.67,127.09 L79.05,128.64 L73.65,129.72 Z M68.07,85.12 L73.54,87.51 L74.31,87.92 L74.24,89.72 L74.50,90.29 L74.25,91.14 L73.39,92.60 L73.60,93.43 L73.26,93.83 L72.85,93.35 L72.01,93.62 L72.00,94.23 L71.48,94.26 L70.42,93.23 L69.43,92.77 L68.90,94.57 L67.95,94.25 L66.61,94.17 L65.89,94.41 L65.46,95.43 L63.88,94.79 L62.77,96.06 L62.87,97.10 L63.32,98.09 L59.13,99.41 L58.92,99.84 L59.48,102.12 L58.99,103.60 L58.76,105.23 L59.42,106.21 L59.08,107.51 L58.38,108.11 L58.79,109.30 L59.25,109.73 L59.17,110.91 L57.53,112.62 L56.13,111.75 L55.56,111.94 L54.98,112.73 L55.54,114.00 L54.66,115.22 L54.35,116.22 L54.96,117.71 L54.88,120.74 L54.19,122.95 L54.19,124.21 L53.60,125.95 L53.62,127.83 L52.89,128.70 L51.83,128.58 L51.26,127.91 L49.84,128.44 L49.85,129.25 L49.09,129.85 L49.28,130.48 L48.56,132.63 L47.91,134.00 L47.88,135.75 L47.31,137.35 L47.38,138.67 L46.81,139.69 L46.34,141.86 L44.84,141.42 L44.92,141.92 L46.23,143.81 L45.93,144.58 L44.42,146.86 L44.16,148.02 L43.25,148.58 L43.22,149.63 L44.16,150.14 L44.88,151.60 L44.78,152.26 L44.03,152.99 L44.08,153.61 L43.40,154.06 L43.20,155.09 L41.85,156.00 L40.34,155.55 L40.22,154.67 L39.33,154.13 L38.74,155.56 L38.32,154.85 L38.75,153.02 L38.51,151.47 L37.46,150.45 L36.27,149.68 L35.94,148.64 L34.73,146.79 L33.57,145.92 L34.21,144.68 L35.25,144.45 L35.63,143.81 L36.22,143.98 L37.56,143.22 L38.50,143.38 L38.76,144.68 L39.40,144.36 L39.67,143.13 L40.42,143.30 L40.58,142.56 L38.93,142.79 L37.98,141.74 L37.70,139.96 L37.17,140.63 L36.51,140.35 L36.75,141.84 L35.54,142.32 L35.21,142.13 L32.88,141.85 L31.70,140.53 L31.72,139.39 L31.14,139.03 L31.20,137.85 L28.49,136.04 L27.55,136.14 L26.96,135.45 L26.72,133.65 L26.90,132.95 L25.86,132.41 L26.09,130.78 L25.18,129.14 L25.12,127.51 L25.74,127.58 L25.02,126.06 L25.10,125.01 L26.29,124.11 L28.71,123.86 L29.19,124.31 L29.54,125.52 L29.09,126.75 L30.35,126.73 L30.75,125.22 L31.59,125.33 L32.54,124.86 L33.12,125.56 L37.70,126.42 L38.56,127.61 L39.25,129.25 L39.73,129.42 L40.31,127.98 L39.21,127.51 L37.78,124.99 L32.22,123.11 L31.67,123.24 L30.90,121.73 L31.72,121.25 L32.84,121.31 L33.43,120.80 L40.81,119.37 L41.47,118.66 L44.91,118.51 L45.41,119.08 L46.48,119.52 L45.89,118.68 L45.01,118.19 L44.54,116.49 L45.24,116.53 L45.90,115.74 L46.05,114.73 L44.44,115.42 L43.84,116.77 L38.08,117.23 L36.74,115.75 L35.12,116.31 L33.53,118.15 L31.46,118.24 L30.79,118.53 L30.22,117.72 L29.88,118.05 L30.53,118.53 L29.40,118.71 L28.79,118.34 L28.15,118.51 L27.91,117.80 L27.24,117.97 L26.07,119.48 L25.71,118.69 L25.10,118.96 L24.73,117.85 L25.51,116.93 L25.38,116.13 L24.61,115.34 L24.90,114.03 L24.90,112.03 L25.28,111.04 L25.01,109.11 L25.71,109.01 L26.88,108.10 L27.44,108.20 L28.07,109.06 L28.98,111.44 L28.98,112.17 L29.54,111.95 L29.52,110.18 L29.02,108.89 L29.14,108.47 L34.18,108.32 L33.99,107.67 L34.99,106.78 L36.10,105.30 L36.90,104.88 L37.76,104.93 L38.53,105.76 L38.81,105.20 L38.29,104.45 L38.10,103.48 L38.48,102.76 L39.50,101.96 L40.13,102.22 L41.66,101.52 L42.53,102.29 L46.47,102.22 L48.82,99.95 L48.24,99.62 L46.02,101.20 L44.71,100.47 L44.45,99.26 L43.46,99.57 L43.04,98.72 L43.69,98.05 L44.23,96.21 L45.25,94.90 L45.87,93.52 L46.32,93.50 L46.51,92.50 L45.32,92.46 L45.23,91.58 L44.80,91.02 L43.71,92.95 L43.68,93.88 L43.23,95.45 L41.46,96.73 L41.12,97.85 L37.67,98.28 L37.16,97.45 L36.84,95.65 L36.88,93.59 L37.90,93.49 L38.38,92.39 L38.79,90.25 L38.53,88.35 L38.95,87.76 L38.46,86.42 L37.40,88.34 L37.06,89.91 L37.01,91.53 L37.21,91.95 L35.95,92.37 L35.35,93.83 L34.42,92.31 L34.76,91.55 L34.79,89.63 L34.28,89.52 L33.24,90.79 L32.41,91.25 L32.86,91.53 L32.69,94.22 L32.88,94.84 L32.14,95.15 L31.46,96.34 L31.92,97.53 L32.62,97.73 L33.01,98.43 L33.20,99.87 L32.74,100.13 L31.48,99.89 L31.31,100.34 L30.84,99.61 L30.16,100.37 L30.43,102.08 L28.49,103.72 L28.99,102.51 L28.28,102.48 L27.83,104.27 L27.10,102.84 L26.77,102.89 L27.24,104.61 L22.97,103.59 L22.02,104.21 L21.60,102.83 L22.04,101.41 L21.74,99.41 L20.61,98.71 L19.32,95.16 L20.41,94.72 L23.23,95.08 L24.53,94.22 L24.28,93.79 L23.16,94.25 L19.97,93.52 L19.71,91.91 L17.87,91.05 L17.19,90.05 L17.31,88.78 L17.06,87.99 L16.40,87.44 L16.28,86.74 L17.11,84.87 L17.46,84.52 L18.35,84.76 L18.04,83.70 L16.50,82.49 L15.94,81.52 L15.61,79.70 L16.99,79.57 L20.51,82.67 L21.81,82.85 L22.04,82.59 L22.02,80.50 L21.77,79.79 L19.79,80.34 L19.35,79.89 L20.16,79.59 L18.07,77.16 L19.48,75.50 L19.36,75.04 L20.19,73.50 L21.29,73.25 L20.99,72.37 L21.39,71.81 L21.40,70.52 L20.79,70.88 L19.99,70.53 L20.19,72.25 L19.55,72.31 L19.30,70.96 L19.32,69.61 L18.73,69.90 L18.54,71.00 L18.85,73.66 L18.63,74.23 L15.93,75.88 L15.51,75.06 L15.86,72.30 L15.54,70.97 L15.47,69.50 L15.06,68.67 L14.88,67.37 L15.37,67.03 L15.17,66.20 L15.65,65.40 L15.73,64.46 L15.30,63.28 L14.94,63.05 L15.16,61.57 L17.74,61.97 L17.59,61.61 L16.14,60.65 L17.27,59.22 L19.41,60.27 L19.51,59.50 L19.14,59.18 L18.62,57.27 L19.03,56.12 L18.85,55.65 L19.41,55.32 L20.58,56.19 L20.79,54.93 L21.20,55.11 L21.68,54.27 L22.53,54.12 L22.91,55.83 L22.81,56.30 L23.21,58.24 L23.01,58.84 L23.60,59.37 L23.87,58.64 L24.15,59.80 L24.46,59.77 L24.74,58.36 L24.13,57.13 L24.16,55.47 L24.51,54.66 L25.48,54.90 L26.03,56.37 L25.86,57.65 L26.77,56.90 L27.21,57.02 L28.99,55.58 L30.03,55.47 L30.68,54.89 L31.87,55.08 L33.09,54.49 L33.74,55.93 L33.63,57.80 L33.09,58.88 L32.12,59.71 L29.52,59.77 L28.19,59.60 L28.08,60.20 L25.79,62.28 L24.81,62.28 L24.63,62.88 L25.41,63.54 L26.00,63.08 L27.08,63.14 L27.90,62.48 L28.68,62.77 L29.29,62.52 L30.14,62.93 L30.27,63.66 L29.34,65.13 L28.86,64.92 L28.84,66.45 L29.57,67.52 L29.63,66.27 L30.44,66.08 L30.59,66.90 L31.24,67.71 L31.83,70.10 L31.55,72.50 L32.16,73.14 L32.60,72.48 L33.09,70.89 L32.51,68.94 L32.78,68.34 L32.30,64.73 L32.80,63.75 L33.57,62.94 L34.54,62.95 L34.03,62.22 L34.27,61.65 L35.06,61.09 L34.75,60.87 L35.80,59.16 L36.82,57.07 L38.35,58.39 L38.63,59.10 L39.25,61.88 L40.05,63.27 L39.98,65.79 L40.29,66.86 L40.18,67.73 L40.43,69.79 L40.50,72.08 L41.05,72.70 L41.36,74.25 L41.83,75.54 L41.06,76.98 L40.84,78.33 L41.10,78.73 L41.77,77.18 L42.19,77.37 L43.32,80.58 L43.23,82.27 L44.03,83.82 L44.24,84.96 L44.74,85.15 L45.11,84.59 L45.01,83.49 L44.60,82.95 L44.60,81.80 L44.31,79.65 L43.97,78.57 L43.81,76.66 L43.90,75.30 L43.02,72.93 L43.15,72.05 L43.12,66.83 L43.01,66.27 L43.46,65.28 L43.11,65.04 L43.02,63.68 L42.57,61.02 L42.73,60.22 L42.54,58.97 L42.74,58.36 L42.80,56.50 L43.21,55.72 L45.22,56.42 L45.30,55.38 L44.85,54.88 L44.66,53.78 L45.31,52.34 L45.19,51.70 L46.74,50.26 L47.98,50.96 L48.23,52.87 L48.66,53.82 L48.54,55.11 L49.06,56.24 L49.59,55.77 L49.45,54.52 L50.01,53.68 L51.58,54.30 L52.21,55.28 L53.04,55.83 L54.66,59.02 L54.85,59.76 L55.62,61.13 L55.41,62.11 L54.52,62.94 L53.53,64.76 L53.39,65.87 L52.57,66.38 L53.51,66.73 L53.53,68.09 L53.23,70.64 L52.52,71.13 L52.60,71.81 L53.92,70.92 L54.68,69.31 L55.26,65.91 L55.88,64.52 L56.82,64.14 L57.35,65.08 L57.92,65.49 L58.79,66.84 L58.98,68.85 L59.52,69.96 L59.36,70.92 L59.64,71.47 L59.26,72.04 L59.37,73.75 L58.79,74.84 L57.91,75.01 L58.02,75.72 L59.11,75.60 L59.57,76.42 L59.43,77.82 L59.57,78.56 L61.17,78.66 L61.55,77.76 L62.29,77.83 L63.36,78.78 L64.36,78.45 L64.64,78.87 L64.39,79.57 L64.63,80.83 L65.08,81.51 L64.95,83.02 L65.68,82.83 L66.63,83.43 Z M95.50,47.09 L96.24,47.02 L96.68,46.60 L101.17,46.52 L102.36,48.19 L103.35,48.26 L103.63,48.60 L103.28,50.30 L103.50,50.70 L103.31,52.37 L104.12,53.79 L104.19,55.34 L103.94,55.94 L102.76,56.44 L102.22,57.92 L101.50,58.26 L101.47,58.82 L100.97,59.29 L100.85,60.25 L99.86,61.14 L99.53,62.00 L97.50,63.50 L97.45,64.00 L97.98,64.82 L98.51,66.44 L98.39,67.37 L97.88,68.35 L97.98,69.04 L97.07,70.46 L95.82,71.27 L94.64,72.51 L93.48,72.64 L93.09,71.34 L92.27,71.62 L91.19,73.11 L89.68,73.62 L89.54,76.02 L88.56,77.35 L82.14,76.59 L81.03,75.28 L80.48,74.02 L80.49,72.37 L81.77,70.66 L79.67,71.50 L79.12,71.03 L75.22,72.25 L74.04,71.49 L70.23,72.08 L70.44,71.26 L69.76,69.65 L66.82,69.31 L65.84,67.98 L64.05,66.69 L63.80,64.94 L64.82,64.23 L66.95,63.97 L67.32,64.82 L68.05,65.60 L72.10,66.31 L71.95,65.74 L69.35,64.57 L68.42,62.75 L75.85,62.11 L76.06,60.73 L78.13,60.04 L78.47,59.58 L77.76,59.06 L75.54,60.26 L75.20,59.83 L75.37,59.16 L76.00,58.58 L66.82,59.74 L65.86,60.83 L64.86,60.79 L64.42,61.49 L63.08,61.70 L62.61,61.00 L61.79,61.36 L60.23,61.06 L59.30,61.43 L59.02,60.05 L58.59,59.25 L57.75,59.46 L57.48,58.31 L56.98,57.72 L56.39,55.94 L55.96,55.76 L56.98,54.61 L57.61,54.60 L58.19,54.11 L58.52,54.39 L59.06,53.63 L58.41,53.60 L59.03,52.73 L59.49,53.83 L59.93,52.13 L57.53,51.79 L57.21,51.18 L56.81,51.46 L56.43,50.39 L56.97,50.95 L57.54,50.44 L56.44,49.98 L55.85,48.72 L54.69,48.94 L55.17,47.98 L56.00,47.07 L57.55,47.53 L58.74,47.44 L59.43,48.06 L59.76,47.42 L59.43,46.79 L60.21,47.11 L60.72,48.19 L61.83,49.52 L62.11,50.41 L62.57,50.41 L62.97,48.99 L63.94,48.60 L63.74,47.99 L62.87,47.95 L62.12,47.17 L61.56,45.33 L61.52,44.01 L61.02,42.72 L61.30,42.29 L62.54,42.90 L62.81,43.26 L64.14,46.32 L64.43,46.63 L65.36,46.55 L64.79,46.10 L64.76,45.43 L65.33,44.47 L65.01,43.45 L65.13,42.79 L65.77,41.59 L63.83,41.45 L63.54,40.82 L63.55,39.48 L63.75,38.91 L64.68,39.65 L64.43,38.66 L64.56,37.94 L65.27,38.32 L65.41,38.90 L66.32,38.97 L66.62,40.16 L66.62,41.48 L66.92,41.59 L67.19,40.52 L68.19,40.47 L68.37,41.43 L68.95,42.45 L68.83,43.30 L69.36,44.24 L70.23,43.72 L70.44,43.93 L69.97,45.16 L70.30,46.43 L70.65,46.90 L72.24,46.22 L72.92,45.37 L72.78,45.99 L73.15,46.69 L73.41,45.66 L73.97,45.00 L74.58,46.08 L74.95,44.78 L75.58,45.03 L75.87,46.80 L74.95,48.01 L74.36,49.48 L74.63,49.75 L75.53,48.66 L75.95,49.33 L76.78,49.88 L77.61,51.93 L77.41,52.57 L77.54,53.58 L78.00,53.72 L78.43,52.94 L78.15,52.12 L78.39,51.84 L79.00,52.72 L78.28,51.09 L78.81,51.21 L78.39,49.84 L78.52,48.03 L78.78,46.49 L78.67,45.28 L79.16,44.57 L79.21,43.78 L78.26,43.00 L78.00,42.20 L78.23,40.30 L78.57,39.87 L79.71,40.26 L79.42,42.35 L79.75,43.09 L80.14,43.17 L79.94,42.28 L80.35,41.60 L80.48,40.67 L79.98,37.89 L80.35,37.57 L81.14,38.79 L82.62,39.34 L83.11,39.95 L82.82,40.81 L81.95,41.25 L82.46,41.63 L82.44,42.24 L82.98,42.42 L83.01,44.29 L82.63,45.07 L81.78,45.59 L81.61,48.01 L81.93,49.11 L82.59,49.63 L82.81,49.28 L82.02,47.88 L82.84,48.04 L82.79,47.18 L83.13,47.20 L83.52,48.71 L83.80,48.22 L83.55,47.30 L83.95,46.56 L83.96,47.80 L84.55,48.96 L84.99,47.76 L85.71,47.36 L85.25,45.85 L85.55,45.44 L85.14,45.05 L85.32,43.61 L85.88,44.39 L86.73,44.54 L85.98,43.56 L86.92,43.72 L87.54,44.51 L87.57,43.91 L88.26,44.14 L88.06,43.22 L88.39,42.74 L87.54,42.71 L87.20,42.26 L87.72,41.46 L88.88,42.01 L89.55,43.13 L88.93,43.83 L88.95,44.64 L89.43,45.00 L89.63,44.26 L90.23,43.79 L90.64,41.89 L91.00,42.85 L90.60,45.15 L91.15,44.72 L91.95,44.92 L92.27,44.42 L93.46,43.92 L92.86,44.81 L93.40,45.63 L94.36,45.06 L94.77,45.43 L94.98,46.29 L95.35,45.57 L95.79,45.82 Z" fill="#CEE3F5" id="NO.SV" stroke="#6E6E6E" stroke-width="0.4">
  <desc xmlns="http://www.highcharts.com/svg/namespace">
    <labelrank>8</labelrank>
    <hasc>SJ.SV</hasc>
    <alt-name>NULL</alt-name>
    <woe-id>23424953</woe-id>
    <subregion>NULL</subregion>
    <fips>SV00</fips>
    <postal-code>SV</postal-code>
    <name>Svalbard</name>
    <country>Norway</country>
    <type-en>Territory</type-en>
    <region>NULL</region>
    <longitude>18.069</longitude>
    <woe-name>Svalbard</woe-name>
    <latitude>78.8124</latitude>
    <woe-label>Svalbard, SJ, Svalbard and Jan Mayen</woe-label>
    <type>Territory</type>
    <hc-middle-x>0.34</hc-middle-x>
    <hc-middle-y>0.46</hc-middle-y>
    <hc-key>no-sv</hc-key>
    <hc-a2>SV</hc-a2>
  </desc>
</path>
<g id="NO">
  <desc xmlns="http://www.highcharts.com/svg/namespace">
    <name>Norway</name>
    <labelrank>3</labelrank>
    <country-abbrev>Nor.</country-abbrev>
    <subregion>Northern Europe</subregion>
    <woe-id>-90</woe-id>
    <region-wb>Europe &amp; Central Asia</region-wb>
    <iso-a3>NOR</iso-a3>
    <iso-a2>NO</iso-a2>
    <region-un>Europe</region-un>
    <continent>Europe</continent>
    <hc-key>no</hc-key>
    <hc-a2>NO</hc-a2>
  </desc>
</g>

<path d="M69.357,200.414 L69.994,201.843 L70.000,203.426 L69.550,204.717 L68.823,205.250 L68.271,205.909 L68.446,207.435 L68.854,209.207 L69.009,210.618 L68.439,211.619 L58.386,217.250 L57.778,217.054 L56.564,216.250 L55.909,216.198 L52.785,217.650 L51.806,218.692 L50.799,219.229 L46.627,225.151 L46.200,225.565 L45.292,226.008 L44.860,226.494 L44.638,226.978 L44.208,228.190 L43.979,228.689 L43.374,229.259 L42.505,229.579 L41.621,229.552 L40.965,229.126 L41.080,228.628 L41.210,227.883 L41.320,227.569 L40.196,225.303 L40.000,224.215 L40.796,223.763 L41.520,223.754 L41.825,223.620 L42.203,223.275 L43.136,221.836 L43.935,221.423 L44.221,220.972 L44.445,220.450 L44.661,220.053 L45.176,219.666 L47.316,219.306 L48.408,218.650 L49.579,217.312 L49.732,217.014 L49.925,216.236 L50.900,215.467 L53.971,214.601 L54.134,214.315 L54.350,213.619 L54.574,213.474 L55.133,213.421 L55.390,213.199 L55.627,212.707 L56.399,210.241 L56.610,209.779 L57.027,209.091 L57.237,208.625 L58.359,205.371 L58.924,204.300 L60.165,202.687 L63.674,202.123 L63.974,201.860 L64.504,200.726 L64.665,200.487 L65.279,200.239 L67.249,200.449 L68.307,200.000 L68.818,200.008 Z" fill="#CEE3F5" id="NO.SJ" stroke="#6E6E6E" stroke-width="0.4">
  <desc xmlns="http://www.highcharts.com/svg/namespace">
    <labelrank>7</labelrank>
    <hasc>NO.SJ</hasc>
    <alt-name>NULL</alt-name>
    <woe-id>NULL</woe-id>
    <subregion>NULL</subregion>
    <fips>JN00</fips>
    <postal-code>SJ</postal-code>
    <name>Jan Mayen</name>
    <country>Norway</country>
    <type-en>NULL</type-en>
    <region>NULL</region>
    <longitude>-8.07</longitude>
    <woe-name>NULL</woe-name>
    <latitude>71.01</latitude>
    <woe-label>NULL</woe-label>
    <type>NULL</type>
    <hc-middle-x>0.76</hc-middle-x>
    <hc-middle-y>0.29</hc-middle-y>
    <hc-key>no-sj</hc-key>
    <hc-a2>SJ</hc-a2>
  </desc>
</path>
</g>

<text font-family="Verdana" font-size="8" stroke-opacity="0.6" text-anchor="middle" x="350" y="714">Copyright (c) 2014 Highsoft AS, Based on data from Natural Earth</text>

<g id="__separator_lines__"><path d="M142,16 L142,245 L7,245 M137,180 L12,180" fill="none" stroke="#551111" stroke-width="0.4" /></g></svg>