<?xml version="1.0" encoding="utf-8" standalone="no"?>
<!DOCTYPE svg PUBLIC "-//W3C//DTD SVG 1.1//EN" "http://www.w3.org/Graphics/SVG/1.1/DTD/svg11.dtd">

<svg version="1.1" height="700pt" width="700pt" xmlns="http://www.w3.org/2000/svg" xmlns:xlink="http://www.w3.org/1999/xlink">
<desc>
Map version: 1.1.1
Copyright (c) 2014 Highsoft AS, Based on data from Natural Earth
</desc>
<title>Czech Republic</title>
<g id="admin1">

<g id="CZ">
  <desc xmlns="http://www.highcharts.com/svg/namespace">
    <name>Czech Republic</name>
    <labelrank>5</labelrank>
    <country-abbrev>Cz. Rep.</country-abbrev>
    <subregion>Eastern Europe</subregion>
    <woe-id>23424810</woe-id>
    <region-wb>Europe &amp; Central Asia</region-wb>
    <iso-a3>CZE</iso-a3>
    <iso-a2>CZ</iso-a2>
    <region-un>Europe</region-un>
    <continent>Europe</continent>
    <hc-key>cz</hc-key>
    <hc-a2>CR</hc-a2>
  </desc>
</g>

<path fill="#CEE3F5" stroke="#6E6E6E" stroke-width="0.4" id="CZ.2293" d="M262.5,147.7 L266.4,150.4 L267.3,153.5 L263.5,157.5 L264.4,164.9 L263.6,166.4 L257.6,167.2 L251.8,166.7 L248.0,169.7 L235.9,172.4 L231.6,174.1 L229.5,173.1 L229.3,168.3 L226.5,165.1 L224.6,160.3 L221.7,156.6 L222.3,154.0 L219.0,150.6 L221.4,148.5 L226.3,146.8 L230.5,148.0 L232.8,143.7 L246.3,139.9 L253.7,140.2 L257.9,145.2 Z">
  <desc xmlns="http://www.highcharts.com/svg/namespace">
    <labelrank>9</labelrank>
    <hasc>CZ.SK</hasc>
    <alt-name>Prag |Hlavní m?sto Praha</alt-name>
    <woe-id>20070472</woe-id>
    <subregion>NULL</subregion>
    <fips>EZ11</fips>
    <postal-code>NULL</postal-code>
    <name>Prague</name>
    <country>Czech Republic</country>
    <type-en>Region</type-en>
    <region>NULL</region>
    <longitude>14.4487</longitude>
    <woe-name>Prague</woe-name>
    <latitude>50.0647</latitude>
    <woe-label>Hlavni mesto Praha, CZ, Czech Republic</woe-label>
    <type>Kraj</type>
    <hc-middle-x>0.52</hc-middle-x>
    <hc-middle-y>0.47</hc-middle-y>
    <hc-key>cz-2293</hc-key>
    <hc-a2>PR</hc-a2>
  </desc>
</path>

<path fill="#CEE3F5" stroke="#6E6E6E" stroke-width="0.4" id="CZ.6305" d="M579.9,347.2 L568.3,352.2 L564.4,351.8 L559.5,347.8 L551.3,351.7 L539.0,346.0 L533.9,344.8 L529.2,345.9 L523.7,350.2 L522.2,354.8 L517.2,360.0 L514.7,364.5 L509.7,380.1 L506.9,384.5 L506.8,387.5 L503.0,383.4 L501.3,372.8 L498.7,369.3 L490.8,371.1 L483.3,367.4 L476.2,366.5 L474.1,360.4 L459.9,356.4 L453.9,357.0 L452.1,358.2 L446.9,367.5 L444.1,369.2 L424.9,366.4 L415.1,367.1 L409.5,364.8 L396.2,355.1 L393.8,351.5 L388.9,350.3 L386.6,346.7 L382.5,347.0 L376.9,349.6 L372.1,349.1 L363.9,344.5 L357.6,342.1 L360.2,334.3 L360.7,331.9 L364.4,331.8 L366.4,334.9 L371.2,330.9 L377.7,333.7 L385.3,326.7 L391.9,325.6 L394.0,321.5 L396.5,321.0 L400.7,317.2 L402.8,320.0 L407.2,320.1 L410.1,318.3 L417.4,319.4 L421.9,314.6 L429.3,312.1 L432.4,306.1 L431.8,300.3 L433.9,296.8 L430.9,293.1 L431.1,287.4 L434.6,284.4 L433.6,278.5 L436.3,274.3 L445.3,268.6 L445.7,265.7 L443.4,258.4 L443.1,247.3 L446.2,246.7 L446.4,240.9 L443.2,236.6 L445.1,229.7 L459.9,228.4 L462.8,223.5 L477.5,224.1 L486.4,227.1 L484.4,231.1 L480.1,231.3 L482.1,235.7 L486.6,240.0 L485.6,244.5 L488.4,251.1 L487.1,258.3 L492.9,262.5 L495.6,261.3 L498.5,257.5 L497.6,251.7 L495.5,245.4 L498.4,243.6 L502.6,245.2 L504.6,247.8 L507.4,255.6 L512.3,260.2 L514.0,267.0 L519.7,269.1 L525.3,276.8 L525.3,279.9 L523.6,283.4 L524.5,288.9 L531.5,298.1 L526.8,301.6 L522.1,307.6 L525.5,311.2 L533.8,309.7 L534.1,316.5 L539.8,320.4 L546.3,321.5 L548.3,326.4 L552.1,327.9 L555.2,331.1 L560.8,329.4 L566.4,330.6 L568.8,335.9 L575.3,337.9 L577.9,340.8 Z">
  <desc xmlns="http://www.highcharts.com/svg/namespace">
    <labelrank>6</labelrank>
    <hasc>CZ.</hasc>
    <alt-name>South Moravian Region, Jihomoravský kraj</alt-name>
    <woe-id>20070503</woe-id>
    <subregion>NULL</subregion>
    <fips>NULL</fips>
    <postal-code>NULL</postal-code>
    <name>Jihomoravský</name>
    <country>Czech Republic</country>
    <type-en>Region</type-en>
    <region>NULL</region>
    <longitude>16.7484</longitude>
    <woe-name>Jihomoravský</woe-name>
    <latitude>49.1054</latitude>
    <woe-label>Jihomoravský, CZ, Czech Republic</woe-label>
    <type>Kraj</type>
    <hc-middle-x>0.54</hc-middle-x>
    <hc-middle-y>0.59</hc-middle-y>
    <hc-key>cz-6305</hc-key>
    <hc-a2>JI</hc-a2>
  </desc>
</path>

<path fill="#CEE3F5" stroke="#6E6E6E" stroke-width="0.4" id="CZ.6306" d="M654.4,258.3 L654.5,264.0 L648.4,269.2 L634.5,275.3 L629.2,282.6 L626.3,292.9 L626.6,305.3 L624.0,312.6 L617.6,317.4 L611.9,317.2 L607.2,319.2 L604.7,329.4 L602.1,333.6 L595.3,334.0 L588.4,343.5 L579.9,347.2 L577.9,340.8 L575.3,337.9 L568.8,335.9 L566.4,330.6 L560.8,329.4 L555.2,331.1 L552.1,327.9 L548.3,326.4 L546.3,321.5 L539.8,320.4 L534.1,316.5 L533.8,309.7 L525.5,311.2 L522.1,307.6 L526.8,301.6 L531.5,298.1 L524.5,288.9 L523.6,283.4 L525.3,279.9 L528.4,280.2 L530.2,275.6 L538.2,275.0 L544.3,267.1 L542.4,263.3 L542.8,257.9 L547.1,258.7 L549.7,260.9 L557.5,264.0 L561.2,260.5 L566.1,257.6 L573.5,257.5 L575.8,254.7 L574.6,251.5 L579.2,249.9 L588.4,251.4 L591.2,250.1 L591.0,245.3 L595.2,239.3 L601.8,240.7 L603.2,236.4 L607.8,236.3 L612.1,241.4 L628.3,239.2 L633.3,241.8 L641.2,241.4 L643.6,242.5 L645.9,247.1 L649.2,249.6 L652.1,257.7 Z">
  <desc xmlns="http://www.highcharts.com/svg/namespace">
    <labelrank>6</labelrank>
    <hasc>CZ.</hasc>
    <alt-name>Zlín Region, Zlínský kraj</alt-name>
    <woe-id>20070469</woe-id>
    <subregion>NULL</subregion>
    <fips>NULL</fips>
    <postal-code>NULL</postal-code>
    <name>Zlínský</name>
    <country>Czech Republic</country>
    <type-en>Region</type-en>
    <region>NULL</region>
    <longitude>17.7745</longitude>
    <woe-name>Zlínský</woe-name>
    <latitude>49.1837</latitude>
    <woe-label>Zlínský, CZ, Czech Republic</woe-label>
    <type>Kraj</type>
    <hc-middle-x>0.43</hc-middle-x>
    <hc-middle-y>0.50</hc-middle-y>
    <hc-key>cz-6306</hc-key>
    <hc-a2>ZL</hc-a2>
  </desc>
</path>

<path fill="#CEE3F5" stroke="#6E6E6E" stroke-width="0.4" id="CZ.6307" d="M603.2,236.4 L601.8,240.7 L595.2,239.3 L591.0,245.3 L591.2,250.1 L588.4,251.4 L579.2,249.9 L574.6,251.5 L575.8,254.7 L573.5,257.5 L566.1,257.6 L561.2,260.5 L557.5,264.0 L549.7,260.9 L547.1,258.7 L542.8,257.9 L542.4,263.3 L544.3,267.1 L538.2,275.0 L530.2,275.6 L528.4,280.2 L525.3,279.9 L525.3,276.8 L519.7,269.1 L514.0,267.0 L512.3,260.2 L507.4,255.6 L504.6,247.8 L502.6,245.2 L498.4,243.6 L495.5,245.4 L497.6,251.7 L498.5,257.5 L495.6,261.3 L492.9,262.5 L487.1,258.3 L488.4,251.1 L485.6,244.5 L486.6,240.0 L482.1,235.7 L480.1,231.3 L484.4,231.1 L486.4,227.1 L488.4,219.2 L491.5,215.8 L490.6,210.4 L486.9,206.8 L486.6,204.1 L479.7,191.9 L481.2,185.6 L481.0,177.5 L478.5,165.5 L486.9,158.8 L486.4,152.5 L488.8,143.7 L492.5,133.7 L497.4,129.2 L501.2,129.7 L501.6,126.7 L506.6,130.1 L504.2,118.1 L497.8,112.8 L494.6,103.4 L491.2,98.7 L491.1,96.4 L496.2,94.9 L500.7,97.4 L503.0,97.1 L513.6,99.7 L517.2,102.3 L523.1,102.2 L526.9,109.2 L533.0,112.0 L537.8,111.7 L539.7,115.4 L539.9,119.5 L542.1,122.1 L543.1,119.1 L545.4,118.9 L547.3,128.3 L543.9,132.5 L541.8,131.5 L538.5,135.8 L530.3,140.7 L528.2,144.5 L526.6,150.8 L527.5,157.7 L521.6,166.5 L521.0,170.0 L524.8,175.9 L521.9,179.8 L521.2,187.4 L523.4,189.8 L527.9,190.2 L529.6,193.5 L538.6,197.7 L543.7,196.2 L551.9,204.5 L558.8,205.4 L562.3,203.2 L566.1,205.6 L572.5,204.3 L578.7,209.0 L578.8,216.2 L584.5,216.0 L587.9,222.6 L591.9,224.7 L596.0,228.4 L597.2,233.0 L600.2,233.7 Z">
  <desc xmlns="http://www.highcharts.com/svg/namespace">
    <labelrank>6</labelrank>
    <hasc>CZ.</hasc>
    <alt-name>Olomouc Region, Olomoucký kraj</alt-name>
    <woe-id>20070470</woe-id>
    <subregion>NULL</subregion>
    <fips>NULL</fips>
    <postal-code>NULL</postal-code>
    <name>Olomoucký</name>
    <country>Czech Republic</country>
    <type-en>Region</type-en>
    <region>NULL</region>
    <longitude>17.1244</longitude>
    <woe-name>Olomoucký</woe-name>
    <latitude>49.6928</latitude>
    <woe-label>Olomoucký, CZ, Czech Republic</woe-label>
    <type>Kraj</type>
    <hc-middle-x>0.47</hc-middle-x>
    <hc-middle-y>0.75</hc-middle-y>
    <hc-key>cz-6307</hc-key>
    <hc-a2>OL</hc-a2>
  </desc>
</path>

<path fill="#CEE3F5" stroke="#6E6E6E" stroke-width="0.4" id="CZ.6308" d="M486.4,227.1 L477.5,224.1 L462.8,223.5 L459.9,228.4 L445.1,229.7 L433.9,224.4 L431.5,221.0 L426.2,217.4 L421.0,215.3 L416.1,215.4 L411.6,211.8 L403.4,208.8 L401.9,211.6 L396.2,215.2 L389.4,214.1 L387.7,210.8 L381.8,206.3 L378.5,201.5 L375.7,200.9 L369.2,196.7 L361.3,197.4 L354.8,189.2 L350.3,186.3 L352.4,174.3 L343.8,166.8 L337.2,163.6 L335.2,161.0 L340.6,158.8 L340.7,151.5 L342.4,149.9 L348.8,151.9 L355.1,146.0 L358.6,144.8 L362.7,146.8 L367.3,145.8 L372.1,148.8 L374.0,148.1 L376.5,142.0 L381.6,140.4 L383.5,145.3 L386.1,147.7 L392.6,141.2 L400.7,141.4 L403.3,149.0 L409.2,150.1 L411.7,153.7 L422.8,162.0 L425.9,160.1 L435.1,159.1 L437.6,157.0 L439.4,152.9 L450.0,147.6 L452.3,141.1 L463.3,144.4 L471.3,149.7 L475.5,149.3 L480.8,143.2 L484.9,136.3 L487.1,134.3 L492.5,133.7 L488.8,143.7 L486.4,152.5 L486.9,158.8 L478.5,165.5 L481.0,177.5 L481.2,185.6 L479.7,191.9 L486.6,204.1 L486.9,206.8 L490.6,210.4 L491.5,215.8 L488.4,219.2 Z">
  <desc xmlns="http://www.highcharts.com/svg/namespace">
    <labelrank>6</labelrank>
    <hasc>CZ.</hasc>
    <alt-name>Pardubice Region, Pardubický kraj</alt-name>
    <woe-id>20070465</woe-id>
    <subregion>NULL</subregion>
    <fips>NULL</fips>
    <postal-code>NULL</postal-code>
    <name>Pardubický</name>
    <country>Czech Republic</country>
    <type-en>Region</type-en>
    <region>NULL</region>
    <longitude>16.2784</longitude>
    <woe-name>Pardubický</woe-name>
    <latitude>49.8651</latitude>
    <woe-label>Pardubický, CZ, Czech Republic</woe-label>
    <type>Kraj</type>
    <hc-middle-x>0.53</hc-middle-x>
    <hc-middle-y>0.55</hc-middle-y>
    <hc-key>cz-6308</hc-key>
    <hc-a2>PA</hc-a2>
  </desc>
</path>

<path fill="#CEE3F5" stroke="#6E6E6E" stroke-width="0.4" id="CZ.KK" d="M43.9,177.5 L37.7,173.1 L38.4,166.9 L16.0,154.1 L14.8,148.3 L10.3,144.6 L9.5,142.1 L10.2,133.7 L5.9,127.0 L1.0,123.7 L0.0,121.7 L3.2,118.5 L3.1,114.1 L0.1,110.1 L7.6,111.0 L9.5,112.4 L10.3,117.9 L15.8,119.7 L15.7,124.0 L18.2,127.5 L20.5,135.4 L23.7,134.7 L23.0,129.6 L26.5,120.2 L29.8,117.0 L33.1,111.3 L40.6,106.7 L41.3,102.9 L45.0,99.9 L49.2,98.9 L56.9,98.5 L62.3,99.7 L70.3,93.3 L77.6,92.5 L86.9,98.6 L91.3,98.1 L96.3,102.1 L103.0,103.0 L106.8,107.6 L116.9,110.2 L118.0,112.0 L118.9,127.0 L118.3,129.4 L122.2,138.8 L119.5,143.1 L123.9,147.1 L121.6,150.0 L122.2,154.7 L116.2,155.9 L116.6,163.5 L112.8,164.2 L109.2,159.9 L102.1,158.3 L98.2,161.5 L88.5,166.4 L86.0,174.4 L80.4,173.2 L76.6,175.2 L73.3,172.5 L65.3,172.1 L61.3,176.0 L53.4,175.3 L48.7,178.6 Z">
  <desc xmlns="http://www.highcharts.com/svg/namespace">
    <labelrank>6</labelrank>
    <hasc>CZ.KK</hasc>
    <alt-name>Carlsbad| Karlovy Vary</alt-name>
    <woe-id>20070500</woe-id>
    <subregion>NULL</subregion>
    <fips>EZ09</fips>
    <postal-code>KK</postal-code>
    <name>Karlovarský</name>
    <country>Czech Republic</country>
    <type-en>Region</type-en>
    <region>NULL</region>
    <longitude>12.7286</longitude>
    <woe-name>Karlovarský</woe-name>
    <latitude>50.1601</latitude>
    <woe-label>Karlovarský, CZ, Czech Republic</woe-label>
    <type>Kraj</type>
    <hc-middle-x>0.54</hc-middle-x>
    <hc-middle-y>0.50</hc-middle-y>
    <hc-key>cz-kk</hc-key>
    <hc-a2>KK</hc-a2>
  </desc>
</path>

<path fill="#CEE3F5" stroke="#6E6E6E" stroke-width="0.4" id="CZ.CK" d="M360.7,331.9 L360.2,334.3 L357.6,342.1 L349.9,336.7 L335.5,330.7 L327.8,329.5 L325.2,334.6 L315.1,336.7 L315.8,332.3 L314.6,327.8 L306.4,327.2 L298.2,325.5 L296.4,331.3 L296.7,345.2 L293.6,358.3 L294.9,361.9 L291.6,364.9 L286.1,362.7 L279.0,362.5 L276.3,370.9 L270.7,375.8 L268.7,379.1 L267.8,392.4 L263.9,394.4 L261.3,390.4 L257.8,390.0 L255.4,387.4 L249.3,389.0 L245.1,386.7 L242.6,383.7 L241.0,384.8 L236.9,392.8 L227.3,397.2 L216.8,393.4 L201.8,391.6 L198.2,390.0 L194.6,383.8 L197.5,381.4 L192.2,373.0 L185.1,369.0 L178.9,364.4 L174.7,363.2 L172.6,361.0 L165.3,346.9 L157.9,344.4 L154.6,340.0 L153.3,334.0 L151.4,334.2 L144.3,330.1 L146.5,323.8 L152.2,316.0 L152.0,311.2 L153.8,305.4 L158.1,303.6 L162.0,297.1 L165.6,294.0 L163.3,290.8 L164.6,287.5 L164.4,283.3 L167.6,280.8 L172.6,270.7 L171.9,263.4 L172.9,255.8 L170.2,247.2 L176.3,243.8 L187.1,247.0 L195.4,243.7 L197.1,240.2 L200.5,239.0 L202.8,240.7 L209.5,241.7 L215.5,240.9 L219.5,238.2 L225.5,238.6 L230.3,243.3 L237.0,240.6 L244.3,242.0 L255.9,241.6 L257.2,243.5 L261.9,243.4 L266.0,240.3 L270.1,239.2 L272.2,237.1 L272.6,231.9 L276.2,228.4 L281.5,231.7 L282.5,234.2 L288.1,235.2 L292.1,239.5 L294.2,242.6 L293.1,244.6 L288.6,246.7 L290.1,252.3 L290.3,257.9 L288.1,266.6 L291.1,272.9 L291.8,278.6 L297.7,283.5 L303.2,281.4 L310.3,286.7 L313.0,290.4 L317.3,293.1 L321.8,289.5 L328.9,293.0 L334.9,293.9 L337.3,301.9 L342.3,306.6 L351.9,307.3 L357.2,305.8 L363.1,312.6 L358.2,314.1 L356.8,318.7 L352.9,323.4 L352.7,326.4 L355.5,329.2 L359.1,329.8 Z">
  <desc xmlns="http://www.highcharts.com/svg/namespace">
    <labelrank>6</labelrank>
    <hasc>CZ.CK</hasc>
    <alt-name>Budweis|Budejovický|Ceskobudejovický|South Bohemian</alt-name>
    <woe-id>20070502</woe-id>
    <subregion>NULL</subregion>
    <fips>EZ01</fips>
    <postal-code>CK</postal-code>
    <name>Jiho?eský</name>
    <country>Czech Republic</country>
    <type-en>Region</type-en>
    <region>NULL</region>
    <longitude>14.5598</longitude>
    <woe-name>Jiho?eský</woe-name>
    <latitude>49.0726</latitude>
    <woe-label>Jiho?eský, CZ, Czech Republic</woe-label>
    <type>Kraj</type>
    <hc-middle-x>0.42</hc-middle-x>
    <hc-middle-y>0.47</hc-middle-y>
    <hc-key>cz-ck</hc-key>
    <hc-a2>CK</hc-a2>
  </desc>
</path>

<path fill="#CEE3F5" stroke="#6E6E6E" stroke-width="0.4" id="CZ.JK" d="M445.1,229.7 L443.2,236.6 L446.4,240.9 L446.2,246.7 L443.1,247.3 L443.4,258.4 L445.7,265.7 L445.3,268.6 L436.3,274.3 L433.6,278.5 L434.6,284.4 L431.1,287.4 L430.9,293.1 L433.9,296.8 L431.8,300.3 L432.4,306.1 L429.3,312.1 L421.9,314.6 L417.4,319.4 L410.1,318.3 L407.2,320.1 L402.8,320.0 L400.7,317.2 L396.5,321.0 L394.0,321.5 L391.9,325.6 L385.3,326.7 L377.7,333.7 L371.2,330.9 L366.4,334.9 L364.4,331.8 L360.7,331.9 L359.1,329.8 L355.5,329.2 L352.7,326.4 L352.9,323.4 L356.8,318.7 L358.2,314.1 L363.1,312.6 L357.2,305.8 L351.9,307.3 L342.3,306.6 L337.3,301.9 L334.9,293.9 L328.9,293.0 L321.8,289.5 L317.3,293.1 L313.0,290.4 L310.3,286.7 L303.2,281.4 L297.7,283.5 L291.8,278.6 L291.1,272.9 L288.1,266.6 L290.3,257.9 L290.1,252.3 L288.6,246.7 L293.1,244.6 L294.2,242.6 L292.1,239.5 L297.7,234.0 L298.3,230.9 L303.7,232.6 L308.7,231.8 L316.5,232.1 L324.6,228.1 L322.9,221.5 L318.2,218.0 L318.4,214.6 L322.7,207.4 L327.7,207.2 L335.5,203.2 L339.8,199.5 L345.4,198.6 L346.7,193.5 L349.8,190.5 L350.3,186.3 L354.8,189.2 L361.3,197.4 L369.2,196.7 L375.7,200.9 L378.5,201.5 L381.8,206.3 L387.7,210.8 L389.4,214.1 L396.2,215.2 L401.9,211.6 L403.4,208.8 L411.6,211.8 L416.1,215.4 L421.0,215.3 L426.2,217.4 L431.5,221.0 L433.9,224.4 Z">
  <desc xmlns="http://www.highcharts.com/svg/namespace">
    <labelrank>6</labelrank>
    <hasc>CZ.JK</hasc>
    <alt-name>Iglau|Jihlavský|Vysocina|Vyso?ina</alt-name>
    <woe-id>20070467</woe-id>
    <subregion>NULL</subregion>
    <fips>EZ02</fips>
    <postal-code>JK</postal-code>
    <name>Vyso?ina</name>
    <country>Czech Republic</country>
    <type-en>Region</type-en>
    <region>NULL</region>
    <longitude>15.7721</longitude>
    <woe-name>Vyso?ina</woe-name>
    <latitude>49.4088</latitude>
    <woe-label>Vyso?ina, CZ, Czech Republic</woe-label>
    <type>Kraj</type>
    <hc-middle-x>0.51</hc-middle-x>
    <hc-middle-y>0.54</hc-middle-y>
    <hc-key>cz-jk</hc-key>
    <hc-a2>JK</hc-a2>
  </desc>
</path>

<path fill="#CEE3F5" stroke="#6E6E6E" stroke-width="0.4" id="CZ.SK" d="M342.4,149.9 L340.7,151.5 L340.6,158.8 L335.2,161.0 L337.2,163.6 L343.8,166.8 L352.4,174.3 L350.3,186.3 L349.8,190.5 L346.7,193.5 L345.4,198.6 L339.8,199.5 L335.5,203.2 L327.7,207.2 L322.7,207.4 L318.4,214.6 L318.2,218.0 L322.9,221.5 L324.6,228.1 L316.5,232.1 L308.7,231.8 L303.7,232.6 L298.3,230.9 L297.7,234.0 L292.1,239.5 L288.1,235.2 L282.5,234.2 L281.5,231.7 L276.2,228.4 L272.6,231.9 L272.2,237.1 L270.1,239.2 L266.0,240.3 L261.9,243.4 L257.2,243.5 L255.9,241.6 L244.3,242.0 L237.0,240.6 L230.3,243.3 L225.5,238.6 L219.5,238.2 L215.5,240.9 L209.5,241.7 L202.8,240.7 L200.5,239.0 L197.1,240.2 L195.4,243.7 L187.1,247.0 L176.3,243.8 L170.2,247.2 L171.2,239.8 L168.9,235.7 L169.0,230.1 L165.3,226.0 L165.8,218.4 L163.8,216.2 L165.9,213.6 L171.5,211.6 L175.7,207.7 L173.7,204.4 L174.7,195.7 L176.8,187.8 L179.4,187.1 L177.2,177.7 L171.8,174.8 L170.5,172.4 L167.0,171.3 L163.1,167.4 L159.2,165.6 L151.7,165.1 L146.8,160.2 L142.0,158.3 L136.5,159.7 L136.9,154.0 L135.7,150.8 L140.8,147.7 L145.7,143.1 L148.8,138.0 L156.0,134.9 L162.6,130.4 L168.6,130.4 L178.5,125.5 L181.6,126.6 L191.5,119.7 L195.6,119.0 L197.2,113.0 L203.5,112.3 L210.5,114.0 L218.6,112.7 L221.9,114.0 L227.1,110.9 L233.4,110.2 L235.5,106.5 L234.8,97.4 L238.0,98.4 L244.0,94.3 L246.5,87.1 L256.8,87.3 L258.0,90.5 L269.9,88.2 L282.4,80.3 L290.9,70.1 L295.2,69.8 L301.2,71.5 L303.8,74.4 L307.9,74.1 L309.8,80.8 L313.5,84.0 L312.6,87.2 L314.0,92.2 L314.9,101.5 L312.8,105.2 L312.7,111.5 L317.8,113.7 L321.0,120.1 L335.7,121.8 L336.9,128.5 L339.4,137.0 L336.8,141.8 L340.8,145.7 Z M262.5,147.7 L257.9,145.2 L253.7,140.2 L246.3,139.9 L232.8,143.7 L230.5,148.0 L226.3,146.8 L221.4,148.5 L219.0,150.6 L222.3,154.0 L221.7,156.6 L224.6,160.3 L226.5,165.1 L229.3,168.3 L229.5,173.1 L231.6,174.1 L235.9,172.4 L248.0,169.7 L251.8,166.7 L257.6,167.2 L263.6,166.4 L264.4,164.9 L263.5,157.5 L267.3,153.5 L266.4,150.4 Z">
  <desc xmlns="http://www.highcharts.com/svg/namespace">
    <labelrank>6</labelrank>
    <hasc>CZ.SK</hasc>
    <alt-name>Central Bohemian</alt-name>
    <woe-id>20070468</woe-id>
    <subregion>NULL</subregion>
    <fips>EZ05</fips>
    <postal-code>SK</postal-code>
    <name>St?edo?eský</name>
    <country>Czech Republic</country>
    <type-en>Region</type-en>
    <region>NULL</region>
    <longitude>14.4559</longitude>
    <woe-name>St?edo?eský</woe-name>
    <latitude>49.7498</latitude>
    <woe-label>StÅ?edo?eský, CZ, Czech Republic</woe-label>
    <type>Kraj</type>
    <hc-middle-x>0.72</hc-middle-x>
    <hc-middle-y>0.57</hc-middle-y>
    <hc-key>cz-sk</hc-key>
    <hc-a2>SK</hc-a2>
  </desc>
</path>

<path fill="#CEE3F5" stroke="#6E6E6E" stroke-width="0.4" id="CZ.LK" d="M313.5,84.0 L309.8,80.8 L307.9,74.1 L303.8,74.4 L301.2,71.5 L295.2,69.8 L290.9,70.1 L282.4,80.3 L269.9,88.2 L258.0,90.5 L256.8,87.3 L246.5,87.1 L245.7,83.4 L238.5,77.3 L232.9,59.3 L237.1,50.9 L239.9,48.2 L242.6,41.9 L243.8,35.3 L245.4,34.7 L250.7,40.2 L253.2,39.7 L255.1,33.4 L258.9,32.3 L260.4,29.7 L269.7,35.7 L277.3,36.2 L280.9,28.9 L286.7,28.0 L298.3,28.8 L298.6,19.4 L299.9,17.4 L299.8,12.8 L296.2,7.4 L299.8,5.0 L307.6,5.8 L311.0,9.3 L313.4,5.3 L315.9,5.0 L317.3,9.8 L323.1,9.8 L327.4,13.8 L325.7,20.0 L327.0,25.1 L329.3,29.5 L334.7,33.1 L336.0,36.1 L335.6,40.8 L337.7,42.6 L340.7,38.5 L345.0,38.1 L353.2,40.9 L358.1,52.4 L357.4,58.1 L358.3,63.9 L360.1,66.3 L360.1,74.7 L363.6,82.7 L362.0,87.3 L354.2,85.9 L350.9,82.9 L346.5,83.5 L345.3,89.9 L343.3,92.6 L340.3,90.9 L335.2,85.3 L328.7,84.0 L324.3,89.0 L322.3,88.8 L316.7,84.1 Z">
  <desc xmlns="http://www.highcharts.com/svg/namespace">
    <labelrank>6</labelrank>
    <hasc>CZ.LK</hasc>
    <alt-name>Reichenberg| Liberec</alt-name>
    <woe-id>20070498</woe-id>
    <subregion>NULL</subregion>
    <fips>EZ03</fips>
    <postal-code>LK</postal-code>
    <name>Liberecký</name>
    <country>Czech Republic</country>
    <type-en>Region</type-en>
    <region>NULL</region>
    <longitude>14.9186</longitude>
    <woe-name>Liberecký</woe-name>
    <latitude>50.7339</latitude>
    <woe-label>Liberecký, CZ, Czech Republic</woe-label>
    <type>Kraj</type>
    <hc-middle-x>0.38</hc-middle-x>
    <hc-middle-y>0.55</hc-middle-y>
    <hc-key>cz-lk</hc-key>
    <hc-a2>LK</hc-a2>
  </desc>
</path>

<path fill="#CEE3F5" stroke="#6E6E6E" stroke-width="0.4" id="CZ.HK" d="M342.4,149.9 L340.8,145.7 L336.8,141.8 L339.4,137.0 L336.9,128.5 L335.7,121.8 L321.0,120.1 L317.8,113.7 L312.7,111.5 L312.8,105.2 L314.9,101.5 L314.0,92.2 L312.6,87.2 L313.5,84.0 L316.7,84.1 L322.3,88.8 L324.3,89.0 L328.7,84.0 L335.2,85.3 L340.3,90.9 L343.3,92.6 L345.3,89.9 L346.5,83.5 L350.9,82.9 L354.2,85.9 L362.0,87.3 L363.6,82.7 L360.1,74.7 L360.1,66.3 L358.3,63.9 L357.4,58.1 L358.1,52.4 L353.2,40.9 L365.4,45.1 L369.7,49.0 L378.1,46.8 L381.2,49.1 L386.5,57.8 L390.0,57.9 L396.0,55.6 L399.0,57.1 L401.3,61.8 L401.7,65.9 L400.3,69.1 L404.6,68.3 L410.8,62.0 L415.1,62.4 L419.9,65.5 L422.9,63.5 L424.3,59.9 L429.3,59.6 L435.8,62.1 L444.7,71.1 L445.6,74.2 L442.5,75.5 L441.4,82.8 L438.4,86.3 L433.3,85.8 L431.0,88.5 L424.0,93.2 L422.0,97.6 L423.0,100.4 L426.3,100.9 L429.5,107.0 L436.9,105.7 L438.6,107.5 L438.9,111.8 L440.8,114.2 L447.7,117.3 L454.8,128.4 L458.0,131.6 L460.4,140.0 L463.3,144.4 L452.3,141.1 L450.0,147.6 L439.4,152.9 L437.6,157.0 L435.1,159.1 L425.9,160.1 L422.8,162.0 L411.7,153.7 L409.2,150.1 L403.3,149.0 L400.7,141.4 L392.6,141.2 L386.1,147.7 L383.5,145.3 L381.6,140.4 L376.5,142.0 L374.0,148.1 L372.1,148.8 L367.3,145.8 L362.7,146.8 L358.6,144.8 L355.1,146.0 L348.8,151.9 Z">
  <desc xmlns="http://www.highcharts.com/svg/namespace">
    <labelrank>6</labelrank>
    <hasc>CZ.HK</hasc>
    <alt-name>Königsgrätz| Hradec Králové</alt-name>
    <woe-id>20070466</woe-id>
    <subregion>NULL</subregion>
    <fips>EZ07</fips>
    <postal-code>HK</postal-code>
    <name>Královéhradecký</name>
    <country>Czech Republic</country>
    <type-en>Region</type-en>
    <region>NULL</region>
    <longitude>15.8838</longitude>
    <woe-name>Královéhradecký</woe-name>
    <latitude>50.3723</latitude>
    <woe-label>Královéhradecký, CZ, Czech Republic</woe-label>
    <type>Kraj</type>
    <hc-middle-x>0.41</hc-middle-x>
    <hc-middle-y>0.56</hc-middle-y>
    <hc-key>cz-hk</hc-key>
    <hc-a2>HK</hc-a2>
  </desc>
</path>

<path fill="#CEE3F5" stroke="#6E6E6E" stroke-width="0.4" id="CZ.VK" d="M603.2,236.4 L600.2,233.7 L597.2,233.0 L596.0,228.4 L591.9,224.7 L587.9,222.6 L584.5,216.0 L578.8,216.2 L578.7,209.0 L572.5,204.3 L566.1,205.6 L562.3,203.2 L558.8,205.4 L551.9,204.5 L543.7,196.2 L538.6,197.7 L529.6,193.5 L527.9,190.2 L523.4,189.8 L521.2,187.4 L521.9,179.8 L524.8,175.9 L521.0,170.0 L521.6,166.5 L527.5,157.7 L526.6,150.8 L528.2,144.5 L530.3,140.7 L538.5,135.8 L541.8,131.5 L543.9,132.5 L547.3,128.3 L545.4,118.9 L548.7,123.6 L550.9,123.5 L553.7,119.7 L558.6,119.1 L567.9,120.4 L571.9,118.2 L575.6,111.5 L578.0,111.6 L580.8,115.0 L579.8,122.5 L582.6,126.4 L581.7,128.9 L575.4,133.6 L566.6,135.7 L566.2,138.5 L571.4,144.7 L576.0,144.3 L581.7,146.2 L580.5,148.4 L583.1,151.6 L585.4,157.2 L593.5,165.2 L597.3,165.8 L601.0,164.5 L604.0,161.7 L610.0,160.8 L613.8,159.0 L610.5,156.4 L609.9,152.8 L613.1,153.5 L619.3,157.2 L620.2,161.6 L626.8,162.6 L631.8,166.1 L636.8,167.8 L640.8,173.8 L648.5,169.6 L660.5,174.7 L662.9,174.6 L666.8,171.8 L668.4,172.6 L669.6,179.9 L672.4,181.3 L669.7,184.7 L670.0,189.0 L674.7,198.7 L676.0,203.3 L678.1,205.4 L682.8,205.9 L687.7,209.9 L692.4,208.6 L694.5,210.9 L695.5,216.4 L699.8,228.8 L700.0,234.8 L693.8,236.0 L689.7,240.1 L686.8,240.4 L680.3,238.1 L675.9,239.9 L671.3,239.4 L669.2,240.9 L667.3,247.6 L663.9,249.6 L657.5,256.9 L654.4,258.3 L652.1,257.7 L649.2,249.6 L645.9,247.1 L643.6,242.5 L641.2,241.4 L633.3,241.8 L628.3,239.2 L612.1,241.4 L607.8,236.3 Z">
  <desc xmlns="http://www.highcharts.com/svg/namespace">
    <labelrank>6</labelrank>
    <hasc>CZ.VK</hasc>
    <alt-name>Mährisch-Ostrau|Mähren|Morava|Moravie|Mor via|Moravskoslezský|Ostravský| Moravian-Silesian</alt-name>
    <woe-id>20070471</woe-id>
    <subregion>NULL</subregion>
    <fips>PL04</fips>
    <postal-code>VK</postal-code>
    <name>Moravskoslezský</name>
    <country>Czech Republic</country>
    <type-en>Region</type-en>
    <region>NULL</region>
    <longitude>17.9683</longitude>
    <woe-name>Moravskoslezský</woe-name>
    <latitude>49.7687</latitude>
    <woe-label>Moravskoslezský, CZ, Czech Republic</woe-label>
    <type>Kraj</type>
    <hc-middle-x>0.50</hc-middle-x>
    <hc-middle-y>0.59</hc-middle-y>
    <hc-key>cz-vk</hc-key>
    <hc-a2>VK</hc-a2>
  </desc>
</path>

<path fill="#CEE3F5" stroke="#6E6E6E" stroke-width="0.4" id="CZ.6303" d="M123.9,147.1 L119.5,143.1 L122.2,138.8 L118.3,129.4 L118.9,127.0 L118.0,112.0 L116.9,110.2 L106.8,107.6 L103.0,103.0 L96.3,102.1 L91.3,98.1 L95.1,94.3 L96.6,84.8 L102.8,85.2 L106.7,84.1 L112.0,84.5 L116.1,80.1 L119.7,71.1 L125.0,73.3 L127.2,72.3 L129.0,68.0 L135.1,64.5 L137.6,68.4 L141.8,69.1 L147.0,64.1 L146.6,61.9 L149.7,58.9 L149.0,54.3 L153.2,51.8 L157.8,51.0 L167.0,51.3 L172.8,49.5 L181.5,49.6 L186.4,46.6 L187.6,40.6 L190.7,40.7 L194.4,37.2 L202.1,37.3 L218.0,30.2 L222.3,25.2 L225.9,24.5 L233.9,25.2 L236.9,22.7 L237.5,18.7 L231.1,15.9 L228.5,13.4 L229.7,10.8 L223.1,8.7 L225.7,2.4 L228.1,0.0 L235.1,0.8 L239.2,3.9 L245.7,2.9 L247.8,0.1 L248.9,3.4 L253.8,6.3 L257.0,10.1 L257.1,14.0 L254.5,20.2 L255.7,21.1 L261.3,18.8 L263.1,20.7 L260.4,29.7 L258.9,32.3 L255.1,33.4 L253.2,39.7 L250.7,40.2 L245.4,34.7 L243.8,35.3 L242.6,41.9 L239.9,48.2 L237.1,50.9 L232.9,59.3 L238.5,77.3 L245.7,83.4 L246.5,87.1 L244.0,94.3 L238.0,98.4 L234.8,97.4 L235.5,106.5 L233.4,110.2 L227.1,110.9 L221.9,114.0 L218.6,112.7 L210.5,114.0 L203.5,112.3 L197.2,113.0 L195.6,119.0 L191.5,119.7 L181.6,126.6 L178.5,125.5 L168.6,130.4 L162.6,130.4 L156.0,134.9 L148.8,138.0 L145.7,143.1 L140.8,147.7 L135.7,150.8 L132.1,152.3 L126.5,150.5 Z">
  <desc xmlns="http://www.highcharts.com/svg/namespace">
    <labelrank>6</labelrank>
    <hasc>CZ.</hasc>
    <alt-name>Ústí nad Labem Region, Ústecký kraj</alt-name>
    <woe-id>20070499</woe-id>
    <subregion>NULL</subregion>
    <fips>NULL</fips>
    <postal-code>NULL</postal-code>
    <name>Ústecký</name>
    <country>Czech Republic</country>
    <type-en>Region</type-en>
    <region>NULL</region>
    <longitude>13.8424</longitude>
    <woe-name>Ústecký</woe-name>
    <latitude>50.4996</latitude>
    <woe-label>Ã?stecký, CZ, Czech Republic</woe-label>
    <type>Kraj</type>
    <hc-middle-x>0.56</hc-middle-x>
    <hc-middle-y>0.54</hc-middle-y>
    <hc-key>cz-6303</hc-key>
    <hc-a2>ÚS</hc-a2>
  </desc>
</path>

<path fill="#CEE3F5" stroke="#6E6E6E" stroke-width="0.4" id="CZ.6304" d="M123.9,147.1 L126.5,150.5 L132.1,152.3 L135.7,150.8 L136.9,154.0 L136.5,159.7 L142.0,158.3 L146.8,160.2 L151.7,165.1 L159.2,165.6 L163.1,167.4 L167.0,171.3 L170.5,172.4 L171.8,174.8 L177.2,177.7 L179.4,187.1 L176.8,187.8 L174.7,195.7 L173.7,204.4 L175.7,207.7 L171.5,211.6 L165.9,213.6 L163.8,216.2 L165.8,218.4 L165.3,226.0 L169.0,230.1 L168.9,235.7 L171.2,239.8 L170.2,247.2 L172.9,255.8 L171.9,263.4 L172.6,270.7 L167.6,280.8 L164.4,283.3 L164.6,287.5 L163.3,290.8 L165.6,294.0 L162.0,297.1 L158.1,303.6 L153.8,305.4 L152.0,311.2 L152.2,316.0 L146.5,323.8 L144.3,330.1 L142.1,330.6 L139.9,335.1 L134.2,331.4 L129.8,326.0 L128.7,318.7 L121.2,309.7 L117.8,307.7 L111.5,307.3 L108.6,305.5 L105.6,299.6 L96.1,286.0 L91.6,281.1 L90.5,276.7 L82.6,270.4 L78.6,269.2 L77.6,271.7 L69.5,270.9 L65.8,268.3 L62.6,260.5 L60.6,258.3 L53.9,254.1 L52.3,249.1 L52.1,241.1 L49.1,240.2 L46.0,234.4 L45.3,228.9 L40.1,223.1 L39.8,215.1 L31.9,209.9 L28.4,203.0 L29.7,200.6 L35.8,197.3 L37.1,189.1 L39.2,189.8 L42.5,183.0 L43.9,177.5 L48.7,178.6 L53.4,175.3 L61.3,176.0 L65.3,172.1 L73.3,172.5 L76.6,175.2 L80.4,173.2 L86.0,174.4 L88.5,166.4 L98.2,161.5 L102.1,158.3 L109.2,159.9 L112.8,164.2 L116.6,163.5 L116.2,155.9 L122.2,154.7 L121.6,150.0 Z">
  <desc xmlns="http://www.highcharts.com/svg/namespace">
    <labelrank>6</labelrank>
    <hasc>CZ.</hasc>
    <alt-name>Plze? Region, Plze?ský kraj</alt-name>
    <woe-id>20070501</woe-id>
    <subregion>NULL</subregion>
    <fips>NULL</fips>
    <postal-code>NULL</postal-code>
    <name>Plze?ský</name>
    <country>Czech Republic</country>
    <type-en>Region</type-en>
    <region>NULL</region>
    <longitude>13.2001</longitude>
    <woe-name>Plze?ský</woe-name>
    <latitude>49.6458</latitude>
    <woe-label>PlzeÅ?ský, CZ, Czech Republic</woe-label>
    <type>Kraj</type>
    <hc-middle-x>0.54</hc-middle-x>
    <hc-middle-y>0.44</hc-middle-y>
    <hc-key>cz-6304</hc-key>
    <hc-a2>PL</hc-a2>
  </desc>
</path>
</g>

<text x="350" y="714" text-anchor="middle" font-family="Verdana" font-size="8" stroke-opacity="0.6">Copyright (c) 2014 Highsoft AS, Based on data from Natural Earth</text>

</svg>