<?xml version="1.0" encoding="utf-8" standalone="no"?>
<!DOCTYPE svg PUBLIC "-//W3C//DTD SVG 1.1//EN" "http://www.w3.org/Graphics/SVG/1.1/DTD/svg11.dtd">

<svg version="1.1" height="700pt" width="700pt" xmlns="http://www.w3.org/2000/svg" xmlns:xlink="http://www.w3.org/1999/xlink">
<desc>
Map version: 1.1.1
Copyright (c) 2014 Highsoft AS, Based on data from Natural Earth
</desc>
<title>New Zealand</title>
<g id="admin1">

<g id="NZ">
  <desc xmlns="http://www.highcharts.com/svg/namespace">
    <name>New Zealand</name>
    <labelrank>2</labelrank>
    <country-abbrev>N.Z.</country-abbrev>
    <subregion>Australia and New Zealand</subregion>
    <woe-id>23424916</woe-id>
    <region-wb>East Asia &amp; Pacific</region-wb>
    <iso-a3>NZL</iso-a3>
    <iso-a2>NZ</iso-a2>
    <region-un>Oceania</region-un>
    <continent>Oceania</continent>
    <hc-key>nz</hc-key>
    <hc-a2>NZ</hc-a2>
  </desc>
</g>

<path fill="#CEE3F5" stroke="#6E6E6E" stroke-width="0.4" id="NZ.AU" d="M314.7,131.5 L314.7,134.0 L312.2,134.3 L309.8,133.5 L308.2,130.7 L310.5,130.7 L311.7,131.8 L315.1,129.3 L316.1,130.7 Z M304.0,115.1 L302.2,114.5 L302.5,111.8 L303.6,112.7 Z M313.3,104.2 L311.3,103.1 L313.5,101.7 L314.3,103.5 Z M326.0,99.4 L329.5,102.1 L328.2,105.3 L330.7,108.7 L328.9,110.8 L328.3,108.6 L326.7,109.1 L326.0,106.7 L324.7,106.9 L321.5,104.2 L322.9,104.1 L323.4,101.4 L321.6,99.6 L323.8,99.0 L323.4,96.4 L325.2,96.8 Z M294.3,99.2 L298.2,104.8 L300.9,106.4 L300.1,109.3 L303.1,110.2 L297.9,110.2 L299.1,114.3 L298.9,116.8 L297.5,113.5 L296.1,116.1 L297.5,117.5 L296.0,119.5 L296.5,122.1 L297.6,123.1 L301.9,123.1 L298.8,124.7 L296.5,124.0 L297.9,126.1 L300.2,133.6 L297.2,133.2 L295.6,130.3 L293.0,131.4 L292.6,132.5 L294.7,132.5 L293.4,133.6 L294.4,134.6 L294.5,137.7 L296.5,135.3 L298.1,134.5 L302.4,135.0 L303.3,135.6 L302.1,138.4 L303.3,139.8 L304.5,134.4 L305.9,137.9 L305.8,139.2 L308.3,138.6 L307.5,136.5 L310.5,136.9 L310.5,140.3 L311.6,141.3 L314.2,140.0 L316.9,139.9 L320.2,143.3 L318.0,144.4 L316.7,143.6 L314.9,148.1 L314.6,151.6 L310.9,152.0 L298.6,155.0 L296.2,156.6 L293.9,156.9 L289.6,145.3 L292.9,145.1 L293.3,147.1 L296.6,154.5 L296.5,151.2 L298.5,150.7 L295.8,149.9 L298.6,147.8 L298.8,149.0 L300.5,147.0 L302.4,146.2 L304.4,148.3 L304.6,145.7 L301.3,144.4 L300.3,142.1 L299.2,143.3 L298.6,141.7 L300.6,139.5 L295.3,139.1 L292.9,140.3 L292.1,142.6 L290.5,142.3 L288.1,144.2 L286.8,142.9 L283.8,130.2 L281.7,126.4 L276.3,119.4 L275.2,117.1 L274.9,114.8 L276.1,113.4 L275.7,116.2 L276.8,114.3 L278.0,114.5 L281.2,120.7 L283.3,121.5 L281.7,122.0 L281.9,123.7 L284.8,125.5 L286.4,121.4 L286.5,118.2 L285.6,118.0 L286.5,114.3 L285.4,112.6 L286.4,111.0 L285.1,110.2 L283.3,111.7 L281.0,111.8 L278.8,110.7 L279.4,108.2 L283.6,108.4 L288.7,105.1 L288.3,103.8 L293.5,99.6 Z">
  <desc xmlns="http://www.highcharts.com/svg/namespace">
    <labelrank>7</labelrank>
    <hasc>NZ.AU</hasc>
    <alt-name>T?maki-makau-rau</alt-name>
    <woe-id>15021756</woe-id>
    <subregion>NULL</subregion>
    <fips>NZE7</fips>
    <postal-code>AU</postal-code>
    <name>Auckland</name>
    <country>New Zealand</country>
    <type-en>Unitary Authority</type-en>
    <region>North Island</region>
    <longitude>174.597</longitude>
    <woe-name>Auckland</woe-name>
    <latitude>-36.6334</latitude>
    <woe-label>Auckland, NZ, New Zealand</woe-label>
    <type>Unitary Authority</type>
    <hc-middle-x>0.31</hc-middle-x>
    <hc-middle-y>0.41</hc-middle-y>
    <hc-key>nz-au</hc-key>
    <hc-a2>AU</hc-a2>
  </desc>
</path>

<path fill="#CEE3F5" stroke="#6E6E6E" stroke-width="0.4" id="NZ.MA" d="M280.2,348.1 L278.8,351.2 L276.8,351.2 L274.9,352.5 L272.4,352.5 L274.8,351.6 L276.8,349.5 L278.9,349.0 L277.3,347.4 L280.0,346.5 Z M263.6,329.8 L262.3,334.3 L261.3,334.2 L257.8,337.2 L256.8,336.9 L257.1,332.8 L258.6,334.4 L258.2,332.6 L258.7,329.2 L260.9,328.7 L261.3,330.7 L264.1,327.1 Z M249.7,343.5 L251.8,345.1 L255.3,343.2 L254.8,341.7 L253.2,341.6 L255.8,339.6 L257.7,339.3 L259.7,337.2 L259.5,339.5 L260.4,339.7 L261.9,337.3 L264.6,336.0 L266.5,337.6 L264.0,337.3 L263.5,339.4 L261.9,339.7 L262.1,341.0 L256.9,341.4 L257.8,342.4 L256.4,345.8 L257.2,346.3 L258.7,343.8 L262.5,343.3 L262.3,345.1 L260.7,344.5 L260.6,346.3 L258.2,348.6 L260.3,350.1 L259.7,352.3 L256.1,354.0 L257.1,355.3 L262.6,352.3 L268.2,350.9 L270.1,349.7 L264.2,349.6 L261.1,350.4 L261.0,348.1 L263.2,344.8 L264.5,345.1 L264.2,348.2 L266.7,343.1 L265.8,341.8 L265.1,343.5 L263.2,341.4 L264.5,341.4 L265.1,339.4 L268.7,341.9 L270.6,341.4 L272.1,339.7 L273.2,342.7 L272.1,343.2 L273.6,344.3 L276.6,341.1 L277.4,341.5 L273.2,348.4 L272.7,345.8 L271.4,347.2 L273.2,350.4 L270.8,352.0 L268.3,352.1 L266.7,353.1 L263.9,353.3 L262.6,354.8 L265.7,354.5 L267.5,353.4 L270.6,352.8 L272.0,354.1 L275.7,353.0 L277.3,351.8 L274.2,357.1 L271.5,358.2 L272.5,356.4 L270.0,356.9 L267.0,362.1 L267.0,366.7 L269.1,368.8 L269.2,366.2 L271.3,369.8 L273.2,377.0 L275.6,377.4 L275.4,378.6 L272.0,384.6 L267.6,389.2 L266.4,387.6 L261.4,386.5 L258.3,387.1 L256.6,388.2 L254.7,386.4 L253.6,388.5 L248.3,392.0 L245.9,394.1 L244.8,398.3 L243.6,400.5 L239.0,402.5 L234.9,406.4 L235.4,407.8 L233.1,412.0 L229.8,413.9 L226.6,412.2 L226.9,410.1 L225.4,408.9 L224.0,406.2 L222.0,405.4 L221.9,402.8 L220.7,399.5 L217.6,398.1 L216.6,396.3 L217.8,392.0 L221.6,387.2 L222.7,382.1 L225.1,377.9 L227.3,376.0 L233.9,367.3 L236.5,366.7 L237.4,364.4 L238.1,360.1 L242.1,357.1 L245.4,352.1 L248.7,348.1 Z">
  <desc xmlns="http://www.highcharts.com/svg/namespace">
    <labelrank>6</labelrank>
    <hasc>NZ.MA</hasc>
    <alt-name>NULL</alt-name>
    <woe-id>15021759</woe-id>
    <subregion>NULL</subregion>
    <fips>NZF4</fips>
    <postal-code>MA</postal-code>
    <name>Marlborough District</name>
    <country>New Zealand</country>
    <type-en>Unitary Authority</type-en>
    <region>South Island</region>
    <longitude>173.656</longitude>
    <woe-name>Marlborough</woe-name>
    <latitude>-41.638</latitude>
    <woe-label>Marlborough, NZ, New Zealand</woe-label>
    <type>Unitary Authority</type>
    <hc-middle-x>0.41</hc-middle-x>
    <hc-middle-y>0.59</hc-middle-y>
    <hc-key>nz-ma</hc-key>
    <hc-a2>MA</hc-a2>
  </desc>
</path>

<path fill="#CEE3F5" stroke="#6E6E6E" stroke-width="0.4" id="NZ.SO" d="M39.1,658.1 L38.1,657.8 L39.2,656.5 L40.3,657.0 Z M46.0,635.2 L45.1,635.3 L45.3,633.6 L46.7,633.9 Z M76.0,633.4 L74.8,631.8 L76.4,630.4 L77.0,631.5 Z M47.8,654.9 L47.3,654.4 L44.7,656.4 L45.4,657.0 L48.4,655.8 L46.7,658.6 L46.2,657.5 L45.2,658.9 L41.7,659.6 L41.9,656.1 L44.4,653.2 L44.3,649.7 L45.2,648.1 L48.4,646.8 L47.9,643.3 L49.3,642.9 L50.4,640.2 L48.2,635.9 L48.0,633.3 L48.8,630.3 L52.0,630.2 L53.3,629.3 L56.3,631.2 L59.6,635.3 L63.2,638.4 L62.5,640.1 L57.0,639.7 L57.3,641.2 L55.8,643.6 L58.5,641.4 L62.1,642.9 L61.9,644.2 L64.8,643.0 L65.9,644.3 L65.6,646.4 L64.0,646.9 L66.0,648.3 L63.6,648.2 L63.9,649.4 L57.3,651.1 L54.3,654.5 L52.1,653.7 L50.4,653.9 L49.5,652.3 L48.0,653.4 Z M10.3,585.7 L6.7,587.5 L5.0,587.3 L8.3,585.8 Z M12.6,585.8 L11.1,585.6 L11.7,584.4 L13.8,584.4 Z M8.3,579.6 L9.4,582.7 L9.0,584.7 L6.0,585.5 L5.3,582.4 L4.1,581.6 L2.1,584.4 L0.9,585.2 L2.7,580.6 L6.7,579.2 Z M17.8,562.6 L16.1,562.8 L13.3,561.4 L12.5,559.7 L14.8,555.2 L16.2,559.3 Z M60.9,519.2 L59.1,521.0 L56.8,524.8 L55.6,530.5 L55.4,536.3 L54.8,538.2 L55.6,541.7 L58.4,545.3 L60.5,546.1 L59.6,551.4 L61.8,556.7 L62.5,559.6 L64.3,560.4 L68.0,560.1 L74.0,556.9 L79.4,564.5 L81.9,565.1 L83.4,564.3 L87.0,558.5 L88.6,557.5 L89.9,558.2 L93.2,561.6 L94.0,563.7 L92.6,565.2 L90.4,571.7 L88.5,576.2 L88.0,581.5 L88.6,585.1 L90.3,586.6 L91.0,588.9 L91.4,593.4 L93.4,596.3 L93.9,599.2 L95.6,603.3 L95.7,606.5 L94.9,610.8 L96.0,615.7 L97.5,617.5 L96.7,620.9 L96.8,623.6 L95.4,626.0 L92.4,624.8 L91.5,627.0 L86.0,625.4 L84.7,621.3 L79.7,622.7 L80.1,621.6 L76.8,621.1 L77.9,623.8 L76.1,624.5 L70.2,624.2 L71.5,622.6 L75.1,623.1 L73.3,621.9 L70.3,622.2 L68.1,621.2 L68.2,623.1 L69.7,625.3 L66.7,623.4 L64.7,620.8 L67.0,620.8 L68.9,617.8 L67.9,615.1 L66.5,618.3 L65.8,618.3 L62.4,612.3 L60.8,611.5 L57.0,612.6 L57.1,614.1 L53.2,613.7 L52.8,614.7 L50.0,615.2 L45.9,611.7 L47.5,610.2 L44.0,605.2 L40.2,604.0 L35.7,603.7 L34.1,609.0 L30.4,610.4 L28.2,609.9 L26.2,610.7 L23.0,609.1 L18.8,608.8 L14.1,609.3 L11.8,609.1 L9.7,607.8 L8.5,605.7 L9.8,604.9 L12.1,601.5 L13.3,598.0 L17.3,595.2 L16.5,595.0 L12.3,597.7 L11.8,600.2 L6.2,602.9 L7.3,598.4 L8.8,596.9 L11.8,595.7 L12.2,594.6 L9.9,595.7 L8.1,595.1 L9.8,592.6 L9.3,591.4 L6.2,596.8 L2.9,598.0 L1.5,599.6 L0.7,598.1 L0.0,591.0 L0.7,589.3 L10.2,587.7 L14.5,586.7 L18.4,583.5 L14.2,583.1 L10.2,584.1 L11.7,581.6 L14.0,580.4 L10.1,581.0 L10.0,577.9 L14.4,575.9 L17.3,576.4 L15.8,575.1 L19.0,573.3 L19.2,572.1 L14.7,574.9 L11.9,575.7 L10.0,576.9 L7.6,577.1 L7.0,575.5 L8.1,572.6 L8.8,568.7 L10.3,567.8 L15.4,569.6 L14.3,567.3 L13.3,568.0 L9.9,565.5 L12.3,561.9 L15.2,564.1 L14.4,565.6 L17.4,564.7 L18.9,566.5 L17.4,568.9 L18.9,568.9 L20.3,566.5 L22.1,567.9 L23.2,570.7 L24.1,569.4 L22.1,567.2 L18.3,563.9 L19.3,562.8 L23.5,561.4 L25.1,563.4 L25.1,559.7 L21.6,560.8 L18.1,561.0 L16.6,557.9 L16.2,555.1 L17.1,553.7 L19.0,554.2 L20.5,556.0 L22.2,555.8 L18.6,552.6 L17.7,552.6 L19.8,549.4 L22.0,551.6 L22.3,553.6 L23.3,551.6 L25.5,551.7 L22.1,550.1 L20.9,548.5 L22.1,546.5 L27.2,548.0 L22.3,545.4 L23.0,544.0 L25.9,540.7 L29.7,538.7 L31.1,541.5 L30.7,543.5 L31.6,546.1 L33.6,546.0 L32.1,543.2 L31.9,541.2 L30.6,537.8 L30.9,536.1 L33.1,534.6 L34.6,536.3 L34.0,539.4 L35.1,540.4 L35.9,536.9 L33.9,533.1 L35.3,532.1 L38.0,534.0 L35.4,531.2 L38.1,529.3 L40.7,526.1 L42.8,525.8 L46.2,528.2 L47.4,530.4 L47.3,527.6 L44.6,525.8 L43.4,521.0 L46.9,516.2 L50.0,513.0 L49.7,511.4 L52.9,511.2 L53.5,509.2 L57.2,508.2 L59.7,509.5 L62.2,513.1 Z">
  <desc xmlns="http://www.highcharts.com/svg/namespace">
    <labelrank>6</labelrank>
    <hasc>NZ.SO</hasc>
    <alt-name>Murihiku</alt-name>
    <woe-id>15021750</woe-id>
    <subregion>NULL</subregion>
    <fips>NZF8</fips>
    <postal-code>SO</postal-code>
    <name>Southland</name>
    <country>New Zealand</country>
    <type-en>Regional Council</type-en>
    <region>South Island</region>
    <longitude>167.928</longitude>
    <woe-name>Southland</woe-name>
    <latitude>-45.6455</latitude>
    <woe-label>Southland, NZ, New Zealand</woe-label>
    <type>Regional Council</type>
    <hc-middle-x>0.53</hc-middle-x>
    <hc-middle-y>0.51</hc-middle-y>
    <hc-key>nz-so</hc-key>
    <hc-a2>SO</hc-a2>
  </desc>
</path>

<path fill="#CEE3F5" stroke="#6E6E6E" stroke-width="0.4" id="NZ.WK" d="M341.1,124.9 L339.6,124.5 L338.6,122.2 L339.7,121.9 Z M293.2,228.6 L290.5,227.2 L291.5,223.6 L291.7,215.0 L293.5,210.1 L294.4,206.4 L295.1,200.7 L294.6,197.3 L297.4,197.3 L300.0,199.8 L299.7,198.3 L303.1,198.1 L301.5,195.3 L299.6,195.1 L297.9,196.3 L298.2,194.3 L301.7,191.5 L300.4,189.6 L298.9,192.2 L297.7,190.5 L298.1,185.7 L299.2,183.4 L301.1,182.8 L305.5,182.5 L304.4,181.5 L305.3,179.1 L303.0,181.1 L300.5,180.5 L298.2,170.6 L296.0,165.1 L295.6,162.3 L298.1,160.8 L299.9,156.7 L297.8,158.1 L296.6,160.1 L295.2,159.6 L293.9,156.9 L296.2,156.6 L298.6,155.0 L310.9,152.0 L314.6,151.6 L314.9,148.1 L316.7,143.6 L318.0,144.4 L320.2,143.3 L319.8,149.2 L321.6,153.2 L324.8,154.1 L329.4,152.0 L330.0,154.9 L331.2,155.6 L329.4,147.9 L329.5,145.3 L328.3,141.2 L324.8,136.2 L328.1,135.3 L325.6,134.9 L326.2,133.5 L328.9,132.4 L327.9,131.8 L326.9,128.3 L327.7,125.8 L325.4,122.6 L323.2,121.6 L322.1,119.5 L322.3,116.8 L325.5,116.8 L328.0,119.7 L329.1,118.5 L330.2,120.8 L329.2,123.0 L331.7,124.0 L331.9,127.2 L332.9,128.4 L333.2,131.5 L334.8,130.3 L339.2,128.8 L341.6,129.4 L338.9,132.5 L336.8,133.6 L335.5,135.5 L336.8,137.8 L337.5,135.2 L340.5,134.7 L342.5,139.8 L342.6,144.5 L343.7,147.4 L342.3,150.3 L343.5,150.7 L343.7,153.5 L342.4,151.7 L342.8,154.9 L344.4,157.6 L344.9,161.9 L343.3,162.5 L343.1,164.3 L341.3,166.8 L342.0,168.3 L339.6,167.2 L338.8,168.6 L339.7,170.2 L339.2,172.1 L339.8,175.0 L342.8,181.9 L343.1,185.9 L344.4,187.9 L344.0,190.2 L345.0,193.1 L347.6,194.0 L350.0,197.0 L352.8,197.6 L355.0,200.1 L355.7,205.4 L357.6,209.4 L363.4,212.3 L364.7,215.3 L362.9,220.5 L360.6,219.3 L359.1,221.8 L356.7,221.7 L357.9,218.4 L357.0,217.7 L352.5,219.0 L350.0,216.5 L347.0,219.1 L347.0,221.2 L352.4,223.3 L353.0,224.1 L351.5,228.1 L353.8,231.9 L352.2,232.9 L348.8,231.8 L348.1,234.5 L350.5,239.2 L351.5,240.2 L354.2,240.7 L354.8,245.2 L352.9,248.2 L350.9,250.5 L342.9,250.8 L339.5,253.5 L337.8,256.9 L336.2,257.7 L331.1,257.4 L327.8,256.3 L327.7,254.3 L330.1,248.2 L329.3,246.3 L331.0,241.8 L327.1,241.0 L327.8,237.8 L326.8,235.6 L327.6,232.8 L325.9,230.5 L327.3,228.4 L328.8,224.7 L330.6,222.1 L327.7,222.5 L324.8,220.8 L319.2,221.2 L314.2,224.0 L310.2,223.6 L304.3,225.5 L303.1,229.5 L300.2,230.8 L298.0,228.9 Z">
  <desc xmlns="http://www.highcharts.com/svg/namespace">
    <labelrank>7</labelrank>
    <hasc>NZ.WK</hasc>
    <alt-name>Waikato</alt-name>
    <woe-id>15021765</woe-id>
    <subregion>NULL</subregion>
    <fips>NULL</fips>
    <postal-code>WK</postal-code>
    <name>Waikato</name>
    <country>New Zealand</country>
    <type-en>Regional Council</type-en>
    <region>North Island</region>
    <longitude>175.445</longitude>
    <woe-name>Waikato</woe-name>
    <latitude>-38.0409</latitude>
    <woe-label>Waikato, NZ, New Zealand</woe-label>
    <type>Regional Council</type>
    <hc-middle-x>0.39</hc-middle-x>
    <hc-middle-y>0.48</hc-middle-y>
    <hc-key>nz-wk</hc-key>
    <hc-a2>WK</hc-a2>
  </desc>
</path>

<path fill="#CEE3F5" stroke="#6E6E6E" stroke-width="0.4" id="NZ.WG" d="M299.1,335.9 L298.3,335.2 L300.1,332.8 L301.2,333.1 Z M351.7,333.1 L349.0,339.6 L347.1,340.3 L345.1,343.3 L342.9,349.7 L338.9,354.9 L331.6,360.9 L327.4,363.2 L319.0,369.5 L316.4,370.4 L314.5,372.2 L310.4,372.3 L309.1,367.1 L309.7,363.4 L309.2,362.5 L304.7,360.7 L302.8,360.8 L300.0,363.3 L297.3,362.3 L297.5,358.0 L298.7,355.0 L298.4,352.6 L295.6,352.9 L293.9,355.2 L296.2,356.2 L294.9,358.1 L292.7,358.6 L289.2,357.2 L287.9,355.8 L288.0,353.1 L290.4,352.4 L293.5,349.3 L294.4,347.2 L296.7,345.8 L297.9,346.2 L296.8,343.6 L300.7,340.1 L302.2,335.3 L305.5,331.3 L310.7,330.6 L315.6,330.8 L318.4,330.1 L321.5,331.3 L327.5,330.8 L340.8,329.3 L345.9,329.7 L349.4,330.7 Z">
  <desc xmlns="http://www.highcharts.com/svg/namespace">
    <labelrank>6</labelrank>
    <hasc>NZ.WG</hasc>
    <alt-name>Te Whanga-nui-a-Tara</alt-name>
    <woe-id>15021762</woe-id>
    <subregion>NULL</subregion>
    <fips>NULL</fips>
    <postal-code>WG</postal-code>
    <name>Wellington</name>
    <country>New Zealand</country>
    <type-en>Regional Council</type-en>
    <region>North Island</region>
    <longitude>175.2</longitude>
    <woe-name>Wellington</woe-name>
    <latitude>-41.2275</latitude>
    <woe-label>Wellington, NZ, New Zealand</woe-label>
    <type>Regional Council</type>
    <hc-middle-x>0.51</hc-middle-x>
    <hc-middle-y>0.36</hc-middle-y>
    <hc-key>nz-wg</hc-key>
    <hc-a2>WG</hc-a2>
  </desc>
</path>

<path fill="#CEE3F5" stroke="#6E6E6E" stroke-width="0.4" id="NZ.4680" d="M431.4,682.1 L431.0,682.3 L431.0,682.1 L431.3,682.0 Z">
  <desc xmlns="http://www.highcharts.com/svg/namespace">
    <labelrank>20</labelrank>
    <hasc>-99</hasc>
    <alt-name>NULL</alt-name>
    <woe-id>-99</woe-id>
    <subregion>NULL</subregion>
    <fips>NULL</fips>
    <postal-code>NULL</postal-code>
    <name>Bounty Islands</name>
    <country>New Zealand</country>
    <type-en>NULL</type-en>
    <region>New Zealand Outlying Islands</region>
    <longitude>179.069</longitude>
    <woe-name>NULL</woe-name>
    <latitude>-47.7136</latitude>
    <woe-label>NULL</woe-label>
    <type>NULL</type>
    <hc-middle-x>0.41</hc-middle-x>
    <hc-middle-y>0.37</hc-middle-y>
    <hc-key>nz-4680</hc-key>
    <hc-a2>BI</hc-a2>
  </desc>
</path>

<path fill="#CEE3F5" stroke="#6E6E6E" stroke-width="0.4" id="NZ.6943" d="M191.3,0.0 L192.1,0.2 L191.8,1.1 L190.9,0.3 Z">
  <desc xmlns="http://www.highcharts.com/svg/namespace">
    <labelrank>20</labelrank>
    <hasc>-99</hasc>
    <alt-name>NULL</alt-name>
    <woe-id>-99</woe-id>
    <subregion>NULL</subregion>
    <fips>NULL</fips>
    <postal-code>NULL</postal-code>
    <name>Three Kings Islands</name>
    <country>New Zealand</country>
    <type-en>NULL</type-en>
    <region>New Zealand Outlying Islands</region>
    <longitude>172.135</longitude>
    <woe-name>NULL</woe-name>
    <latitude>-34.1566</latitude>
    <woe-label>NULL</woe-label>
    <type>NULL</type>
    <hc-middle-x>0.60</hc-middle-x>
    <hc-middle-y>0.34</hc-middle-y>
    <hc-key>nz-6943</hc-key>
    <hc-a2>TK</hc-a2>
  </desc>
</path>

<path fill="#CEE3F5" stroke="#6E6E6E" stroke-width="0.4" id="NZ.6947" d="M14.6,699.6 L13.8,699.9 L12.5,700.0 L14.7,697.8 Z">
  <desc xmlns="http://www.highcharts.com/svg/namespace">
    <labelrank>20</labelrank>
    <hasc>-99</hasc>
    <alt-name>NULL</alt-name>
    <woe-id>-99</woe-id>
    <subregion>NULL</subregion>
    <fips>NULL</fips>
    <postal-code>NULL</postal-code>
    <name>The Snares</name>
    <country>New Zealand</country>
    <type-en>NULL</type-en>
    <region>New Zealand Outlying Islands</region>
    <longitude>166.608</longitude>
    <woe-name>NULL</woe-name>
    <latitude>-48.0227</latitude>
    <woe-label>NULL</woe-label>
    <type>NULL</type>
    <hc-middle-x>0.70</hc-middle-x>
    <hc-middle-y>0.68</hc-middle-y>
    <hc-key>nz-6947</hc-key>
    <hc-a2>TS</hc-a2>
  </desc>
</path>

<path fill="#CEE3F5" stroke="#6E6E6E" stroke-width="0.4" id="NZ.CA" d="M266.4,387.6 L267.6,389.2 L264.7,392.2 L262.9,396.2 L262.8,398.6 L260.4,402.6 L255.0,407.2 L253.4,409.4 L254.4,412.0 L252.1,411.3 L250.0,412.6 L248.0,415.0 L245.8,420.9 L240.4,432.3 L239.3,432.9 L239.4,435.5 L237.9,438.0 L233.1,440.4 L232.6,441.9 L230.5,443.6 L225.6,444.8 L220.6,448.7 L218.2,453.5 L218.6,454.8 L217.6,460.9 L218.4,465.1 L219.4,468.0 L219.2,469.6 L221.4,470.2 L218.0,470.8 L215.9,472.1 L218.1,472.9 L218.9,471.9 L222.1,471.7 L222.9,473.6 L223.6,470.9 L224.6,471.5 L224.7,474.1 L226.2,472.8 L228.3,473.9 L229.8,472.5 L231.3,475.3 L231.6,478.7 L230.8,482.8 L228.8,483.1 L227.3,484.5 L226.1,477.9 L225.0,477.9 L225.2,483.4 L226.3,485.2 L223.0,485.2 L220.9,484.1 L218.3,481.3 L218.9,479.7 L211.3,481.5 L206.6,482.9 L206.5,482.2 L214.7,479.2 L211.2,478.0 L209.3,476.3 L206.4,477.0 L205.5,478.8 L205.5,482.5 L204.6,483.6 L200.4,484.3 L199.8,485.0 L193.7,488.1 L186.8,493.2 L184.6,493.4 L181.5,495.6 L175.5,498.8 L170.8,503.6 L168.3,504.5 L166.0,509.2 L165.8,513.5 L164.1,517.1 L162.4,518.0 L163.2,519.0 L163.9,528.6 L162.7,529.9 L164.1,531.3 L163.8,535.8 L162.8,538.2 L157.4,536.5 L151.0,535.0 L146.7,535.9 L144.1,537.0 L138.7,542.3 L135.3,544.3 L133.7,542.4 L133.2,538.7 L132.0,537.3 L127.6,538.0 L123.9,537.4 L122.0,534.8 L119.4,528.3 L117.4,525.2 L113.6,525.2 L110.5,521.8 L107.9,520.7 L106.6,516.1 L104.5,514.8 L104.1,512.9 L103.7,502.8 L106.4,498.2 L108.2,494.0 L107.8,491.2 L112.0,486.1 L117.4,481.3 L121.5,474.6 L122.5,472.2 L126.2,468.5 L130.9,466.3 L135.7,463.4 L138.6,462.4 L140.2,462.6 L143.6,458.5 L149.8,453.3 L154.8,450.4 L157.0,446.4 L162.0,444.5 L163.9,441.3 L166.3,439.1 L169.6,438.2 L172.3,436.7 L173.9,436.9 L180.8,435.2 L182.2,430.5 L186.3,428.5 L186.6,427.0 L190.1,423.2 L194.4,421.2 L199.8,414.0 L203.9,410.5 L207.0,408.9 L208.4,404.8 L210.8,403.5 L212.5,401.4 L214.9,395.9 L216.6,396.3 L217.6,398.1 L220.7,399.5 L221.9,402.8 L222.0,405.4 L224.0,406.2 L225.4,408.9 L226.9,410.1 L226.6,412.2 L229.8,413.9 L233.1,412.0 L235.4,407.8 L234.9,406.4 L239.0,402.5 L243.6,400.5 L244.8,398.3 L245.9,394.1 L248.3,392.0 L253.6,388.5 L254.7,386.4 L256.6,388.2 L258.3,387.1 L261.4,386.5 Z">
  <desc xmlns="http://www.highcharts.com/svg/namespace">
    <labelrank>6</labelrank>
    <hasc>NZ.CA</hasc>
    <alt-name>Waitaha</alt-name>
    <woe-id>15021751</woe-id>
    <subregion>NULL</subregion>
    <fips>NZE9</fips>
    <postal-code>CA</postal-code>
    <name>Canterbury</name>
    <country>New Zealand</country>
    <type-en>Regional Council</type-en>
    <region>South Island</region>
    <longitude>171.813</longitude>
    <woe-name>Canterbury</woe-name>
    <latitude>-43.4</latitude>
    <woe-label>Canterbury, NZ, New Zealand</woe-label>
    <type>Regional Council</type>
    <hc-middle-x>0.40</hc-middle-x>
    <hc-middle-y>0.55</hc-middle-y>
    <hc-key>nz-ca</hc-key>
    <hc-a2>CA</hc-a2>
  </desc>
</path>

<path fill="#CEE3F5" stroke="#6E6E6E" stroke-width="0.4" id="NZ.OT" d="M107.8,491.2 L108.2,494.0 L106.4,498.2 L103.7,502.8 L104.1,512.9 L104.5,514.8 L106.6,516.1 L107.9,520.7 L110.5,521.8 L113.6,525.2 L117.4,525.2 L119.4,528.3 L122.0,534.8 L123.9,537.4 L127.6,538.0 L132.0,537.3 L133.2,538.7 L133.7,542.4 L135.3,544.3 L138.7,542.3 L144.1,537.0 L146.7,535.9 L151.0,535.0 L157.4,536.5 L162.8,538.2 L160.1,544.3 L156.3,548.5 L154.5,552.7 L152.9,558.6 L154.0,560.9 L152.4,563.1 L152.7,564.8 L150.5,567.2 L149.5,570.9 L146.5,571.9 L147.9,573.0 L147.1,574.8 L144.6,576.3 L144.6,577.4 L147.0,577.5 L149.3,579.0 L148.7,580.1 L146.4,580.9 L144.4,582.7 L142.5,585.8 L146.9,583.4 L149.9,579.8 L150.4,583.9 L148.2,584.9 L147.5,586.2 L140.3,587.2 L137.4,588.3 L134.8,590.3 L132.4,594.5 L131.7,599.0 L129.7,601.3 L127.0,602.7 L125.1,605.3 L120.5,608.9 L119.3,610.6 L119.0,615.1 L117.0,616.4 L114.0,615.9 L112.5,616.6 L115.8,616.8 L115.2,618.6 L111.9,620.9 L109.5,620.4 L106.6,622.3 L107.4,623.4 L104.2,623.4 L103.6,624.6 L100.9,623.8 L99.0,625.5 L97.3,625.6 L96.8,623.6 L96.7,620.9 L97.5,617.5 L96.0,615.7 L94.9,610.8 L95.7,606.5 L95.6,603.3 L93.9,599.2 L93.4,596.3 L91.4,593.4 L91.0,588.9 L90.3,586.6 L88.6,585.1 L88.0,581.5 L88.5,576.2 L90.4,571.7 L92.6,565.2 L94.0,563.7 L93.2,561.6 L89.9,558.2 L88.6,557.5 L87.0,558.5 L83.4,564.3 L81.9,565.1 L79.4,564.5 L74.0,556.9 L68.0,560.1 L64.3,560.4 L62.5,559.6 L61.8,556.7 L59.6,551.4 L60.5,546.1 L58.4,545.3 L55.6,541.7 L54.8,538.2 L55.4,536.3 L55.6,530.5 L56.8,524.8 L59.1,521.0 L60.9,519.2 L65.4,518.5 L72.1,514.7 L75.4,513.6 L77.4,510.8 L78.7,506.3 L81.3,503.8 L83.2,500.7 L86.5,498.5 L92.0,497.7 L94.3,496.8 L97.1,498.0 L103.4,493.8 L105.1,490.9 Z">
  <desc xmlns="http://www.highcharts.com/svg/namespace">
    <labelrank>6</labelrank>
    <hasc>NZ.OT</hasc>
    <alt-name>? T?kou</alt-name>
    <woe-id>15021754</woe-id>
    <subregion>NULL</subregion>
    <fips>NZF7</fips>
    <postal-code>OT</postal-code>
    <name>Otago</name>
    <country>New Zealand</country>
    <type-en>Regional Council</type-en>
    <region>South Island</region>
    <longitude>169.887</longitude>
    <woe-name>Otago</woe-name>
    <latitude>-45.4296</latitude>
    <woe-label>Otago, NZ, New Zealand</woe-label>
    <type>Regional Council</type>
    <hc-middle-x>0.44</hc-middle-x>
    <hc-middle-y>0.40</hc-middle-y>
    <hc-key>nz-ot</hc-key>
    <hc-a2>OT</hc-a2>
  </desc>
</path>

<path fill="#CEE3F5" stroke="#6E6E6E" stroke-width="0.4" id="NZ.MW" d="M365.4,316.4 L364.7,317.9 L362.1,317.8 L359.7,321.3 L357.4,323.5 L355.7,327.2 L354.3,328.0 L351.7,333.1 L349.4,330.7 L345.9,329.7 L340.8,329.3 L327.5,330.8 L321.5,331.3 L318.4,330.1 L315.6,330.8 L310.7,330.6 L305.5,331.3 L308.6,325.5 L310.5,320.3 L310.9,315.5 L311.9,315.1 L311.6,312.9 L312.7,306.2 L311.9,304.6 L310.9,298.6 L309.8,296.2 L302.8,287.6 L298.1,284.8 L295.4,284.6 L296.5,282.7 L301.9,278.2 L302.0,276.2 L304.0,275.2 L303.5,274.3 L304.2,269.7 L303.4,266.7 L300.5,263.6 L300.4,259.8 L297.9,258.1 L299.1,255.0 L301.8,253.4 L302.6,251.7 L306.0,247.5 L307.6,247.3 L306.4,245.8 L303.9,245.1 L303.4,242.3 L300.9,240.9 L300.1,236.6 L298.8,237.2 L297.4,233.6 L298.7,231.5 L300.2,230.8 L303.1,229.5 L304.3,225.5 L310.2,223.6 L314.2,224.0 L319.2,221.2 L324.8,220.8 L327.7,222.5 L330.6,222.1 L328.8,224.7 L327.3,228.4 L325.9,230.5 L327.6,232.8 L326.8,235.6 L327.8,237.8 L327.1,241.0 L331.0,241.8 L329.3,246.3 L330.1,248.2 L327.7,254.3 L327.8,256.3 L331.1,257.4 L336.2,257.7 L337.8,256.9 L339.5,253.5 L342.9,250.8 L350.9,250.5 L351.0,252.9 L352.1,254.8 L354.7,255.6 L355.4,258.3 L354.2,261.0 L356.1,262.4 L355.3,265.1 L355.4,268.0 L352.1,269.4 L348.8,272.7 L350.6,276.9 L347.8,284.9 L346.4,292.9 L347.8,294.1 L350.3,294.1 L354.2,297.0 L354.5,299.0 L356.1,300.9 L355.9,304.0 L356.8,306.7 L356.5,311.4 L358.8,313.7 L362.9,314.2 Z">
  <desc xmlns="http://www.highcharts.com/svg/namespace">
    <labelrank>6</labelrank>
    <hasc>NZ.MW</hasc>
    <alt-name>Manawatu Whanganui|Wanganui-Mawanatu</alt-name>
    <woe-id>15021764</woe-id>
    <subregion>NULL</subregion>
    <fips>NZF3</fips>
    <postal-code>MW</postal-code>
    <name>Manawatu-Wanganui</name>
    <country>New Zealand</country>
    <type-en>Regional Council</type-en>
    <region>North Island</region>
    <longitude>175.627</longitude>
    <woe-name>Manawatu-Wanganui</woe-name>
    <latitude>-39.8518</latitude>
    <woe-label>Manawatu Wanganui, NZ, New Zealand</woe-label>
    <type>Regional Council</type>
    <hc-middle-x>0.43</hc-middle-x>
    <hc-middle-y>0.48</hc-middle-y>
    <hc-key>nz-mw</hc-key>
    <hc-a2>MW</hc-a2>
  </desc>
</path>

<path fill="#CEE3F5" stroke="#6E6E6E" stroke-width="0.4" id="NZ.GI" d="M428.6,174.6 L436.5,175.4 L438.9,178.5 L441.6,179.0 L445.5,180.6 L447.4,183.9 L444.6,187.0 L443.1,190.5 L441.6,191.4 L439.7,195.5 L438.2,197.6 L439.1,201.5 L436.9,204.7 L437.7,206.9 L436.1,210.7 L437.7,213.3 L435.8,217.3 L436.8,219.1 L434.8,220.6 L434.4,224.2 L429.7,228.9 L424.8,232.5 L422.4,230.7 L419.8,231.6 L420.9,234.6 L419.7,237.4 L419.5,240.0 L418.3,244.4 L417.2,242.4 L415.4,242.0 L411.4,238.1 L405.3,230.4 L405.4,226.6 L402.0,224.1 L401.2,226.7 L393.1,221.3 L393.8,220.0 L393.5,216.6 L396.3,214.9 L401.1,213.2 L403.5,210.3 L404.0,206.9 L407.1,206.0 L410.2,203.8 L411.6,201.8 L412.0,197.2 L417.9,201.7 L419.6,199.7 L422.3,192.0 L424.5,188.2 L427.3,185.0 L427.0,183.9 L424.1,183.8 L424.8,180.1 L424.5,177.6 L427.7,176.6 Z">
  <desc xmlns="http://www.highcharts.com/svg/namespace">
    <labelrank>7</labelrank>
    <hasc>NZ.GI</hasc>
    <alt-name>T?ranga nui a Kiwa|East Coast</alt-name>
    <woe-id>15021761</woe-id>
    <subregion>NULL</subregion>
    <fips>NZF1</fips>
    <postal-code>GI</postal-code>
    <name>Gisborne District</name>
    <country>New Zealand</country>
    <type-en>Unitary Authority</type-en>
    <region>North Island</region>
    <longitude>177.93</longitude>
    <woe-name>Gisborne</woe-name>
    <latitude>-38.3442</latitude>
    <woe-label>Gisborne, NZ, New Zealand</woe-label>
    <type>Unitary Authority</type>
    <hc-middle-x>0.43</hc-middle-x>
    <hc-middle-y>0.61</hc-middle-y>
    <hc-key>nz-gi</hc-key>
    <hc-a2>GI</hc-a2>
  </desc>
</path>

<path fill="#CEE3F5" stroke="#6E6E6E" stroke-width="0.4" id="NZ.HB" d="M418.3,244.4 L418.1,248.1 L416.8,250.5 L419.5,251.0 L421.2,253.0 L419.0,255.0 L417.5,259.1 L415.7,260.7 L414.6,256.0 L416.1,251.1 L414.3,251.4 L412.2,250.1 L399.8,249.0 L397.6,249.1 L384.8,254.6 L383.1,258.3 L379.6,261.8 L378.3,264.4 L378.2,266.7 L379.5,269.1 L379.9,275.6 L382.7,277.7 L385.9,278.0 L384.3,281.2 L382.5,282.2 L381.1,287.0 L379.6,288.4 L378.1,292.8 L376.4,296.0 L376.3,298.5 L373.9,303.0 L370.2,306.7 L369.2,305.9 L367.2,309.3 L368.6,308.3 L365.9,313.2 L365.4,316.4 L362.9,314.2 L358.8,313.7 L356.5,311.4 L356.8,306.7 L355.9,304.0 L356.1,300.9 L354.5,299.0 L354.2,297.0 L350.3,294.1 L347.8,294.1 L346.4,292.9 L347.8,284.9 L350.6,276.9 L348.8,272.7 L352.1,269.4 L355.4,268.0 L355.3,265.1 L356.1,262.4 L354.2,261.0 L355.4,258.3 L354.7,255.6 L352.1,254.8 L351.0,252.9 L350.9,250.5 L352.9,248.2 L355.4,250.8 L358.4,251.9 L358.6,250.2 L360.7,249.3 L360.4,246.2 L362.5,243.9 L367.8,243.6 L367.5,241.4 L371.7,236.4 L372.1,231.2 L375.1,228.8 L378.5,228.1 L380.7,229.5 L382.8,229.9 L384.7,227.1 L388.3,224.6 L390.1,224.0 L391.4,221.9 L393.1,221.3 L401.2,226.7 L402.0,224.1 L405.4,226.6 L405.3,230.4 L411.4,238.1 L415.4,242.0 L417.2,242.4 Z">
  <desc xmlns="http://www.highcharts.com/svg/namespace">
    <labelrank>6</labelrank>
    <hasc>NZ.HB</hasc>
    <alt-name>Te Matau a M?ui|Hawkes Bay</alt-name>
    <woe-id>15021760</woe-id>
    <subregion>NULL</subregion>
    <fips>NZF2</fips>
    <postal-code>HB</postal-code>
    <name>Hawke's Bay</name>
    <country>New Zealand</country>
    <type-en>Regional Council</type-en>
    <region>North Island</region>
    <longitude>176.605</longitude>
    <woe-name>Hawke's Bay</woe-name>
    <latitude>-39.5434</latitude>
    <woe-label>Hawke's Bay, NZ, New Zealand</woe-label>
    <type>Regional Council</type>
    <hc-middle-x>0.29</hc-middle-x>
    <hc-middle-y>0.48</hc-middle-y>
    <hc-key>nz-hb</hc-key>
    <hc-a2>HB</hc-a2>
  </desc>
</path>

<path fill="#CEE3F5" stroke="#6E6E6E" stroke-width="0.4" id="NZ.BP" d="M393.1,221.3 L391.4,221.9 L390.1,224.0 L388.3,224.6 L384.7,227.1 L382.8,229.9 L380.7,229.5 L378.5,228.1 L375.1,228.8 L372.1,231.2 L371.7,236.4 L367.5,241.4 L367.8,243.6 L362.5,243.9 L360.4,246.2 L360.7,249.3 L358.6,250.2 L358.4,251.9 L355.4,250.8 L352.9,248.2 L354.8,245.2 L354.2,240.7 L351.5,240.2 L350.5,239.2 L348.1,234.5 L348.8,231.8 L352.2,232.9 L353.8,231.9 L351.5,228.1 L353.0,224.1 L352.4,223.3 L347.0,221.2 L347.0,219.1 L350.0,216.5 L352.5,219.0 L357.0,217.7 L357.9,218.4 L356.7,221.7 L359.1,221.8 L360.6,219.3 L362.9,220.5 L364.7,215.3 L363.4,212.3 L357.6,209.4 L355.7,205.4 L355.0,200.1 L352.8,197.6 L350.0,197.0 L347.6,194.0 L345.0,193.1 L344.0,190.2 L344.4,187.9 L343.1,185.9 L342.8,181.9 L339.8,175.0 L339.2,172.1 L339.7,170.2 L338.8,168.6 L339.6,167.2 L342.0,168.3 L341.3,166.8 L343.1,164.3 L343.3,162.5 L344.9,161.9 L346.6,166.5 L349.9,169.5 L352.8,174.9 L348.6,172.7 L350.2,172.1 L346.9,169.3 L344.0,169.5 L344.8,172.3 L346.1,172.6 L346.0,175.0 L348.6,175.1 L349.5,177.2 L351.2,177.9 L352.3,176.8 L353.8,177.8 L354.0,179.7 L355.7,179.4 L354.2,174.8 L355.5,175.3 L356.8,177.9 L363.6,181.6 L366.4,182.2 L374.1,188.3 L380.4,190.6 L383.1,191.1 L385.2,192.6 L388.9,193.3 L390.3,194.1 L387.8,194.5 L390.6,196.2 L390.8,194.2 L395.3,195.1 L402.2,194.4 L407.1,191.5 L408.9,189.6 L410.1,186.4 L411.8,185.6 L414.8,180.1 L420.4,178.9 L421.9,177.0 L425.1,176.3 L425.2,174.0 L428.6,174.6 L427.7,176.6 L424.5,177.6 L424.8,180.1 L424.1,183.8 L427.0,183.9 L427.3,185.0 L424.5,188.2 L422.3,192.0 L419.6,199.7 L417.9,201.7 L412.0,197.2 L411.6,201.8 L410.2,203.8 L407.1,206.0 L404.0,206.9 L403.5,210.3 L401.1,213.2 L396.3,214.9 L393.5,216.6 L393.8,220.0 Z">
  <desc xmlns="http://www.highcharts.com/svg/namespace">
    <labelrank>6</labelrank>
    <hasc>NZ.BP</hasc>
    <alt-name>Te Moana a Toi Te Huatahi</alt-name>
    <woe-id>15021753</woe-id>
    <subregion>NULL</subregion>
    <fips>NZE8</fips>
    <postal-code>BP</postal-code>
    <name>Bay of Plenty</name>
    <country>New Zealand</country>
    <type-en>Regional Council</type-en>
    <region>North Island</region>
    <longitude>176.858</longitude>
    <woe-name>Bay of Plenty</woe-name>
    <latitude>-38.2161</latitude>
    <woe-label>Bay of Plenty, NZ, New Zealand</woe-label>
    <type>Regional Council</type>
    <hc-middle-x>0.44</hc-middle-x>
    <hc-middle-y>0.50</hc-middle-y>
    <hc-key>nz-bp</hc-key>
    <hc-a2>BP</hc-a2>
  </desc>
</path>

<path fill="#CEE3F5" stroke="#6E6E6E" stroke-width="0.4" id="NZ.3315" d="M234.4,356.1 L238.1,353.7 L240.2,351.0 L244.3,347.4 L244.3,348.8 L246.8,347.2 L249.7,343.5 L248.7,348.1 L245.4,352.1 L242.1,357.1 L238.1,360.1 L235.3,358.0 Z">
  <desc xmlns="http://www.highcharts.com/svg/namespace">
    <labelrank>9</labelrank>
    <hasc>NZ.NE</hasc>
    <alt-name>Whakat?</alt-name>
    <woe-id>15021758</woe-id>
    <subregion>NULL</subregion>
    <fips>NULL</fips>
    <postal-code>NULL</postal-code>
    <name>Nelson City</name>
    <country>New Zealand</country>
    <type-en>Unitary Authority</type-en>
    <region>South Island</region>
    <longitude>173.388</longitude>
    <woe-name>Nelson</woe-name>
    <latitude>-41.2508</latitude>
    <woe-label>Nelson, NZ, New Zealand</woe-label>
    <type>Unitary Authority</type>
    <hc-middle-x>0.93</hc-middle-x>
    <hc-middle-y>0.24</hc-middle-y>
    <hc-key>nz-3315</hc-key>
    <hc-a2>NC</hc-a2>
  </desc>
</path>

<path fill="#CEE3F5" stroke="#6E6E6E" stroke-width="0.4" id="NZ.3316" d="M238.1,360.1 L237.4,364.4 L236.5,366.7 L233.9,367.3 L227.3,376.0 L225.1,377.9 L222.7,382.1 L221.6,387.2 L217.8,392.0 L216.6,396.3 L214.9,395.9 L212.5,401.4 L210.8,403.5 L208.4,404.8 L205.6,406.1 L203.8,403.4 L202.5,398.6 L199.1,397.6 L198.2,396.0 L195.6,395.6 L194.8,391.9 L193.3,390.6 L192.7,388.4 L194.8,381.9 L194.3,379.4 L194.9,377.6 L199.2,375.6 L199.7,373.2 L201.7,371.9 L203.5,366.3 L205.3,365.0 L205.5,362.1 L209.1,361.9 L211.6,359.6 L211.7,354.1 L214.4,353.1 L216.1,351.5 L215.8,350.4 L212.2,348.8 L209.3,346.4 L206.8,343.0 L203.5,343.2 L202.0,343.9 L202.0,341.6 L203.2,338.9 L199.2,333.6 L198.4,329.8 L199.2,329.7 L203.3,326.6 L207.1,321.9 L210.1,319.8 L209.5,322.0 L212.2,320.8 L212.7,318.4 L210.6,319.1 L213.8,316.3 L221.3,315.9 L227.3,317.0 L226.5,317.4 L218.2,316.7 L216.9,318.4 L215.7,323.2 L214.6,323.2 L216.1,325.2 L215.9,328.3 L216.9,327.6 L218.8,330.3 L222.5,333.1 L226.0,331.0 L227.0,329.8 L228.1,330.6 L228.3,333.6 L229.9,335.1 L229.6,338.9 L227.3,341.5 L228.6,341.5 L229.9,347.7 L228.9,346.3 L228.6,348.1 L230.3,349.5 L231.4,353.5 L230.4,354.9 L232.2,356.2 L234.4,356.1 L235.3,358.0 Z">
  <desc xmlns="http://www.highcharts.com/svg/namespace">
    <labelrank>6</labelrank>
    <hasc>NZ.TS</hasc>
    <alt-name>NULL</alt-name>
    <woe-id>15021757</woe-id>
    <subregion>NULL</subregion>
    <fips>NZ00</fips>
    <postal-code>NULL</postal-code>
    <name>Tasman District</name>
    <country>New Zealand</country>
    <type-en>Unitary Authority</type-en>
    <region>South Island</region>
    <longitude>172.675</longitude>
    <woe-name>Tasman</woe-name>
    <latitude>-41.6713</latitude>
    <woe-label>Tasman, NZ, New Zealand</woe-label>
    <type>Unitary Authority</type>
    <hc-middle-x>0.55</hc-middle-x>
    <hc-middle-y>0.59</hc-middle-y>
    <hc-key>nz-3316</hc-key>
    <hc-a2>TD</hc-a2>
  </desc>
</path>

<path fill="#CEE3F5" stroke="#6E6E6E" stroke-width="0.4" id="NZ.NO" d="M288.3,103.8 L284.1,105.5 L281.9,107.1 L279.8,105.5 L282.3,106.4 L285.2,99.0 L283.7,98.5 L283.9,100.1 L282.3,103.1 L280.5,101.3 L278.7,100.9 L279.3,98.2 L277.3,99.5 L276.9,98.1 L275.1,99.5 L275.5,101.0 L277.3,101.3 L277.9,103.4 L279.1,102.8 L280.6,104.3 L277.8,105.6 L275.9,104.3 L273.5,100.8 L270.8,100.6 L267.7,98.0 L267.2,94.4 L265.6,91.6 L263.8,90.1 L265.7,88.0 L264.2,85.7 L264.7,88.5 L263.0,90.1 L266.2,94.1 L267.0,97.5 L269.4,100.4 L275.8,109.5 L275.5,110.6 L272.8,112.0 L270.9,112.1 L269.9,110.3 L268.7,105.5 L263.5,98.3 L262.1,95.4 L244.0,70.7 L244.0,68.9 L245.4,67.2 L246.1,64.1 L247.7,63.1 L249.5,64.8 L249.6,62.1 L250.7,63.8 L251.2,61.1 L253.3,60.4 L254.4,57.9 L251.6,59.0 L250.5,56.0 L249.8,56.7 L250.7,59.3 L246.3,61.8 L244.0,61.7 L243.3,67.8 L242.5,67.9 L239.0,63.1 L239.0,59.3 L240.4,57.3 L238.4,58.3 L237.6,60.7 L235.7,58.3 L237.9,56.2 L235.4,56.9 L231.5,53.2 L231.3,51.5 L233.4,51.8 L234.8,50.0 L235.7,45.1 L235.2,42.6 L233.3,38.7 L230.1,35.1 L228.8,31.9 L227.6,31.0 L219.2,19.9 L214.0,16.4 L215.2,13.0 L220.3,14.7 L223.3,13.0 L228.0,13.4 L230.1,12.3 L229.2,14.7 L229.0,18.5 L228.0,18.8 L227.0,16.0 L225.9,15.8 L225.5,18.2 L223.6,19.4 L227.6,21.7 L227.6,24.5 L228.6,23.4 L228.9,20.0 L230.4,27.3 L234.8,32.0 L235.2,34.1 L232.3,31.0 L232.5,32.8 L234.2,34.5 L239.7,37.8 L238.3,40.3 L238.2,42.4 L240.4,43.0 L242.5,40.6 L242.1,35.7 L243.9,35.2 L246.1,33.1 L245.8,34.8 L247.5,34.1 L248.1,35.8 L244.7,36.5 L244.0,37.5 L245.5,40.7 L247.0,41.8 L249.9,41.8 L251.4,43.0 L252.0,42.0 L250.6,40.4 L251.0,38.7 L254.5,40.8 L257.4,40.5 L258.1,42.3 L259.5,42.7 L257.1,45.5 L259.6,46.9 L260.7,42.9 L263.9,42.4 L267.1,46.2 L267.9,48.3 L271.5,48.3 L273.5,49.3 L274.6,51.6 L272.4,51.9 L272.1,50.4 L269.2,50.9 L270.4,52.4 L269.5,53.8 L272.1,53.4 L272.0,56.1 L273.8,58.4 L274.3,60.9 L275.0,58.9 L276.7,59.6 L278.3,58.1 L274.9,56.9 L275.4,55.9 L278.4,56.2 L282.7,52.5 L283.0,53.8 L281.8,56.9 L282.7,58.6 L284.5,58.7 L284.8,61.8 L281.7,59.0 L283.8,63.4 L287.4,65.2 L288.6,67.6 L287.0,67.8 L291.2,72.3 L291.0,75.2 L287.4,74.7 L290.2,76.9 L289.0,78.6 L291.7,80.6 L291.5,82.4 L292.5,84.7 L291.4,85.0 L288.9,83.0 L288.1,80.9 L283.6,81.9 L282.6,78.1 L282.2,84.5 L284.0,83.4 L288.3,84.0 L288.8,85.8 L287.2,87.7 L287.9,91.8 L291.0,94.2 L293.3,95.3 L293.1,97.8 L294.3,99.2 L293.5,99.6 Z">
  <desc xmlns="http://www.highcharts.com/svg/namespace">
    <labelrank>6</labelrank>
    <hasc>NZ.NO</hasc>
    <alt-name>Te Tai tokerau</alt-name>
    <woe-id>15021755</woe-id>
    <subregion>NULL</subregion>
    <fips>NZF6</fips>
    <postal-code>NO</postal-code>
    <name>Northland</name>
    <country>New Zealand</country>
    <type-en>Regional Council</type-en>
    <region>North Island</region>
    <longitude>173.981</longitude>
    <woe-name>Northland</woe-name>
    <latitude>-35.5874</latitude>
    <woe-label>Northland, NZ, New Zealand</woe-label>
    <type>Regional Council</type>
    <hc-middle-x>0.68</hc-middle-x>
    <hc-middle-y>0.57</hc-middle-y>
    <hc-key>nz-no</hc-key>
    <hc-a2>NO</hc-a2>
  </desc>
</path>

<path fill="#CEE3F5" stroke="#6E6E6E" stroke-width="0.4" id="NZ.TK" d="M300.2,230.8 L298.7,231.5 L297.4,233.6 L298.8,237.2 L300.1,236.6 L300.9,240.9 L303.4,242.3 L303.9,245.1 L306.4,245.8 L307.6,247.3 L306.0,247.5 L302.6,251.7 L301.8,253.4 L299.1,255.0 L297.9,258.1 L300.4,259.8 L300.5,263.6 L303.4,266.7 L304.2,269.7 L303.5,274.3 L304.0,275.2 L302.0,276.2 L301.9,278.2 L296.5,282.7 L295.4,284.6 L287.6,282.8 L282.7,278.3 L278.2,272.1 L274.2,270.3 L267.7,269.2 L265.4,268.4 L260.3,264.4 L257.7,260.9 L256.8,256.3 L257.5,251.6 L258.7,249.4 L260.5,248.0 L264.5,246.3 L274.5,240.2 L280.5,240.4 L284.1,238.5 L289.5,232.7 L290.5,227.2 L293.2,228.6 L298.0,228.9 Z">
  <desc xmlns="http://www.highcharts.com/svg/namespace">
    <labelrank>6</labelrank>
    <hasc>NZ.TK</hasc>
    <alt-name>Taranaki|New Plymouth</alt-name>
    <woe-id>15021763</woe-id>
    <subregion>NULL</subregion>
    <fips>NZF9</fips>
    <postal-code>TK</postal-code>
    <name>Taranaki</name>
    <country>New Zealand</country>
    <type-en>Regional Council</type-en>
    <region>North Island</region>
    <longitude>174.414</longitude>
    <woe-name>Taranaki</woe-name>
    <latitude>-39.3382</latitude>
    <woe-label>Taranaki, NZ, New Zealand</woe-label>
    <type>Regional Council</type>
    <hc-middle-x>0.54</hc-middle-x>
    <hc-middle-y>0.46</hc-middle-y>
    <hc-key>nz-tk</hc-key>
    <hc-a2>TK</hc-a2>
  </desc>
</path>

<path fill="#CEE3F5" stroke="#6E6E6E" stroke-width="0.4" id="NZ.WC" d="M208.4,404.8 L207.0,408.9 L203.9,410.5 L199.8,414.0 L194.4,421.2 L190.1,423.2 L186.6,427.0 L186.3,428.5 L182.2,430.5 L180.8,435.2 L173.9,436.9 L172.3,436.7 L169.6,438.2 L166.3,439.1 L163.9,441.3 L162.0,444.5 L157.0,446.4 L154.8,450.4 L149.8,453.3 L143.6,458.5 L140.2,462.6 L138.6,462.4 L135.7,463.4 L130.9,466.3 L126.2,468.5 L122.5,472.2 L121.5,474.6 L117.4,481.3 L112.0,486.1 L107.8,491.2 L105.1,490.9 L103.4,493.8 L97.1,498.0 L94.3,496.8 L92.0,497.7 L86.5,498.5 L83.2,500.7 L81.3,503.8 L78.7,506.3 L77.4,510.8 L75.4,513.6 L72.1,514.7 L65.4,518.5 L60.9,519.2 L62.2,513.1 L59.7,509.5 L57.2,508.2 L53.5,509.2 L52.2,508.1 L54.5,507.0 L57.8,503.7 L60.3,500.7 L60.4,499.2 L62.2,497.3 L61.1,496.7 L67.2,494.7 L70.8,492.4 L72.9,494.3 L74.6,494.5 L78.5,492.4 L80.5,490.1 L86.2,485.8 L86.5,484.4 L90.0,481.2 L93.9,478.6 L96.6,477.3 L98.3,475.3 L99.9,475.3 L103.8,472.8 L106.1,473.0 L109.2,470.7 L111.7,466.1 L113.1,465.4 L113.3,463.6 L114.8,462.0 L119.5,459.4 L120.2,457.3 L122.1,454.9 L125.3,453.1 L126.9,453.8 L129.2,449.9 L128.0,449.7 L125.5,452.8 L126.1,450.6 L128.6,447.2 L131.2,446.9 L133.7,444.0 L136.6,441.9 L139.8,440.7 L141.2,439.5 L143.4,439.1 L145.8,437.1 L149.0,433.5 L152.0,427.9 L154.2,426.5 L158.4,420.7 L162.0,413.6 L162.3,410.8 L164.8,405.8 L165.6,398.4 L166.9,393.8 L168.7,391.3 L169.6,387.0 L171.2,382.5 L170.4,379.3 L176.7,378.8 L184.7,374.1 L186.5,371.2 L189.4,364.1 L192.6,361.5 L193.2,356.2 L195.1,355.4 L194.2,353.4 L193.8,347.9 L194.2,345.7 L193.7,335.2 L194.8,334.7 L196.7,331.2 L198.4,329.8 L199.2,333.6 L203.2,338.9 L202.0,341.6 L202.0,343.9 L203.5,343.2 L206.8,343.0 L209.3,346.4 L212.2,348.8 L215.8,350.4 L216.1,351.5 L214.4,353.1 L211.7,354.1 L211.6,359.6 L209.1,361.9 L205.5,362.1 L205.3,365.0 L203.5,366.3 L201.7,371.9 L199.7,373.2 L199.2,375.6 L194.9,377.6 L194.3,379.4 L194.8,381.9 L192.7,388.4 L193.3,390.6 L194.8,391.9 L195.6,395.6 L198.2,396.0 L199.1,397.6 L202.5,398.6 L203.8,403.4 L205.6,406.1 Z">
  <desc xmlns="http://www.highcharts.com/svg/namespace">
    <labelrank>6</labelrank>
    <hasc>NZ.WC</hasc>
    <alt-name>Te Taihau ? uru</alt-name>
    <woe-id>15021752</woe-id>
    <subregion>NULL</subregion>
    <fips>NZG3</fips>
    <postal-code>WC</postal-code>
    <name>West Coast</name>
    <country>New Zealand</country>
    <type-en>Regional Council</type-en>
    <region>South Island</region>
    <longitude>170.402</longitude>
    <woe-name>West Coast</woe-name>
    <latitude>-43.362</latitude>
    <woe-label>West Coast, NZ, New Zealand</woe-label>
    <type>Regional Council</type>
    <hc-middle-x>0.79</hc-middle-x>
    <hc-middle-y>0.43</hc-middle-y>
    <hc-key>nz-wc</hc-key>
    <hc-a2>WC</hc-a2>
  </desc>
</path>
</g>

<text x="350" y="714" text-anchor="middle" font-family="Verdana" font-size="8" stroke-opacity="0.6">Copyright (c) 2014 Highsoft AS, Based on data from Natural Earth</text>

</svg>