<?xml version="1.0" encoding="utf-8" standalone="no"?>
<!DOCTYPE svg PUBLIC "-//W3C//DTD SVG 1.1//EN" "http://www.w3.org/Graphics/SVG/1.1/DTD/svg11.dtd">

<svg version="1.1" height="700pt" width="700pt" xmlns="http://www.w3.org/2000/svg" xmlns:xlink="http://www.w3.org/1999/xlink">
<desc>
Map version: 1.1.1
Copyright (c) 2014 Highsoft AS, Based on data from Natural Earth
</desc>
<title>Australia</title>
<g id="admin1">

<g id="AU">
  <desc xmlns="http://www.highcharts.com/svg/namespace">
    <name>Australia</name>
    <labelrank>2</labelrank>
    <country-abbrev>Auz.</country-abbrev>
    <subregion>Australia and New Zealand</subregion>
    <woe-id>-90</woe-id>
    <region-wb>East Asia &amp; Pacific</region-wb>
    <iso-a3>AUS</iso-a3>
    <iso-a2>AU</iso-a2>
    <region-un>Oceania</region-un>
    <continent>Oceania</continent>
    <hc-key>au</hc-key>
    <hc-a2>AU</hc-a2>
  </desc>
</g>

<path fill="#CEE3F5" stroke="#6E6E6E" stroke-width="0.4" id="AU.NT" d="M372.6,50.3 L374.5,49.1 L377.6,51.6 L375.9,55.5 L380.3,58.4 L379.3,59.5 L371.3,57.6 L371.2,50.7 Z M265.3,9.5 L266.5,13.6 L269.8,15.4 L259.7,16.0 L262.2,12.9 L261.8,9.9 L264.5,6.8 Z M267.4,6.0 L271.3,7.8 L276.3,7.2 L280.1,4.4 L283.6,5.1 L285.5,9.1 L281.4,13.7 L276.0,17.4 L267.4,12.7 L264.9,5.3 Z M396.9,99.6 L396.9,99.6 L396.9,99.8 L391.7,264.0 L251.0,264.6 L243.3,70.7 L243.3,70.7 L247.9,74.8 L247.1,70.1 L251.5,71.6 L254.8,75.1 L251.8,69.2 L257.0,70.1 L253.1,65.0 L249.1,62.4 L252.2,56.5 L255.1,55.2 L257.7,44.9 L262.0,45.1 L263.9,41.9 L261.5,39.7 L261.6,35.9 L264.9,35.2 L265.5,30.2 L269.0,30.0 L269.9,26.7 L277.5,25.0 L276.6,20.9 L285.2,23.8 L292.4,22.3 L294.9,23.8 L306.0,20.6 L304.8,11.9 L300.4,8.2 L295.7,9.8 L292.5,6.2 L289.7,6.1 L293.4,2.8 L297.4,7.8 L297.1,2.8 L299.8,2.6 L303.8,5.9 L302.0,0.9 L303.7,0.0 L305.7,9.4 L309.2,6.1 L314.8,13.1 L321.9,14.5 L325.7,13.0 L328.2,16.5 L330.4,15.5 L336.7,19.1 L342.7,17.2 L347.9,22.8 L353.2,19.8 L357.1,20.0 L357.3,17.5 L364.1,15.8 L358.1,21.2 L359.5,23.8 L362.3,20.9 L365.3,22.5 L364.6,26.5 L368.6,26.3 L370.6,23.0 L366.6,19.4 L372.5,17.5 L376.4,23.6 L378.6,21.1 L380.5,24.9 L372.6,33.7 L375.2,35.6 L372.3,40.4 L370.5,37.5 L366.7,40.9 L361.9,41.9 L362.1,49.3 L365.0,47.7 L368.1,51.2 L364.0,50.8 L362.1,57.4 L359.5,58.6 L352.9,66.4 L354.4,70.6 L367.5,79.2 L371.7,83.9 L373.6,80.9 L375.2,88.0 L380.1,87.2 L386.3,91.9 L392.8,94.4 Z">
  <desc xmlns="http://www.highcharts.com/svg/namespace">
    <labelrank>2</labelrank>
    <hasc>AU.NT</hasc>
    <alt-name>NULL</alt-name>
    <woe-id>2344701</woe-id>
    <subregion>NULL</subregion>
    <fips>AS03</fips>
    <postal-code>NT</postal-code>
    <name>Northern Territory</name>
    <country>Australia</country>
    <type-en>Territory</type-en>
    <region>NULL</region>
    <longitude>133.78</longitude>
    <woe-name>Northern Territory</woe-name>
    <latitude>-20.1026</latitude>
    <woe-label>Northern Territory, AU, Australia</woe-label>
    <type>Territory</type>
    <hc-middle-x>0.50</hc-middle-x>
    <hc-middle-y>0.56</hc-middle-y>
    <hc-key>au-nt</hc-key>
    <hc-a2>NT</hc-a2>
  </desc>
</path>

<path fill="#CEE3F5" stroke="#6E6E6E" stroke-width="0.4" id="AU.WA" d="M0.2,281.7 L5.6,290.5 L2.8,289.3 L0.0,284.3 Z M243.3,70.7 L243.3,70.7 L251.0,264.6 L254.7,357.0 L254.9,363.1 L240.7,370.6 L230.1,374.4 L221.1,375.7 L213.8,374.6 L209.2,376.7 L204.6,380.7 L196.9,384.6 L192.8,387.8 L187.8,389.0 L184.5,392.2 L182.7,400.1 L177.0,407.1 L171.6,408.7 L170.5,406.6 L159.4,408.4 L156.1,410.2 L155.0,407.1 L152.1,408.6 L148.0,407.7 L134.2,410.4 L132.2,412.0 L126.0,411.9 L120.2,416.3 L116.5,423.4 L110.3,422.9 L109.5,425.7 L105.7,428.2 L104.8,431.7 L95.1,435.3 L94.4,437.0 L90.4,435.6 L80.2,437.4 L70.2,435.0 L64.0,429.0 L59.7,427.4 L56.7,428.7 L53.9,424.2 L52.7,414.4 L57.2,416.0 L59.3,414.7 L61.9,408.9 L59.3,398.3 L60.7,395.9 L59.6,385.4 L57.9,380.7 L48.5,367.7 L43.8,357.6 L41.9,345.1 L38.7,338.8 L34.1,334.1 L32.7,329.7 L26.0,323.5 L24.6,316.4 L21.5,310.3 L13.3,300.4 L8.0,296.4 L8.9,292.4 L12.6,298.6 L16.5,298.6 L16.9,294.0 L13.5,292.5 L8.0,284.7 L9.5,282.5 L13.8,286.9 L15.1,291.9 L16.3,287.7 L18.2,293.6 L20.6,295.3 L21.3,284.5 L19.6,283.9 L10.9,273.7 L8.1,267.2 L4.9,264.2 L3.2,256.0 L4.9,248.5 L7.0,246.0 L6.7,238.0 L2.7,230.3 L6.6,217.0 L8.7,215.5 L8.5,222.3 L11.0,227.9 L13.9,226.7 L16.7,215.1 L28.8,207.5 L39.4,194.2 L42.9,193.3 L48.5,187.8 L49.8,190.4 L54.0,187.8 L57.5,189.7 L63.6,187.7 L69.4,181.7 L80.6,178.6 L82.5,174.6 L86.2,172.6 L92.2,173.8 L95.8,171.6 L102.8,169.8 L114.1,163.8 L117.7,160.6 L122.4,153.0 L126.4,141.8 L127.8,141.9 L134.2,135.8 L134.6,133.1 L131.3,133.0 L130.2,120.5 L136.1,111.6 L140.3,111.1 L139.0,108.1 L141.4,104.6 L150.9,119.8 L153.8,122.9 L154.7,116.8 L153.7,113.6 L158.5,117.1 L155.0,109.0 L150.1,105.2 L154.8,103.7 L151.5,97.5 L155.4,98.2 L154.9,100.7 L159.5,102.4 L157.9,99.7 L165.5,102.4 L172.7,101.5 L166.4,101.0 L169.3,93.8 L165.8,93.0 L165.1,86.8 L169.1,86.2 L174.9,76.6 L180.6,79.2 L182.2,76.7 L176.9,72.4 L176.3,67.6 L178.5,69.4 L184.3,67.8 L184.3,62.6 L186.0,67.4 L188.0,66.0 L190.0,69.5 L192.1,67.0 L193.2,59.6 L195.0,61.6 L198.3,57.1 L201.5,61.5 L203.5,53.6 L207.0,52.2 L210.3,56.3 L214.0,55.0 L219.8,59.6 L223.6,64.6 L229.7,68.3 L227.5,76.0 L232.8,69.9 L235.2,69.0 Z">
  <desc xmlns="http://www.highcharts.com/svg/namespace">
    <labelrank>2</labelrank>
    <hasc>AU.WA</hasc>
    <alt-name>NULL</alt-name>
    <woe-id>2344706</woe-id>
    <subregion>NULL</subregion>
    <fips>AS08</fips>
    <postal-code>WA</postal-code>
    <name>Western Australia</name>
    <country>Australia</country>
    <type-en>State</type-en>
    <region>NULL</region>
    <longitude>121.646</longitude>
    <woe-name>Western Australia</woe-name>
    <latitude>-25.8483</latitude>
    <woe-label>Western Australia, AU, Australia</woe-label>
    <type>State</type>
    <hc-middle-x>0.57</hc-middle-x>
    <hc-middle-y>0.55</hc-middle-y>
    <hc-key>au-wa</hc-key>
    <hc-a2>WA</hc-a2>
  </desc>
</path>

<path fill="#CEE3F5" stroke="#6E6E6E" stroke-width="0.4" id="AU.CT" d="M549.3,438.9 L546.4,439.1 L544.5,442.9 L544.3,446.7 L542.0,447.5 L540.1,444.1 L541.4,437.3 L545.7,434.9 Z">
  <desc xmlns="http://www.highcharts.com/svg/namespace">
    <labelrank>9</labelrank>
    <hasc>AU.CT</hasc>
    <alt-name>NULL</alt-name>
    <woe-id>1100968</woe-id>
    <subregion>NULL</subregion>
    <fips>AS01</fips>
    <postal-code>CT</postal-code>
    <name>Australian Capital Territory</name>
    <country>Australia</country>
    <type-en>Territory</type-en>
    <region>NULL</region>
    <longitude>148.983</longitude>
    <woe-name>Canberra</woe-name>
    <latitude>-35.4618</latitude>
    <woe-label>NULL</woe-label>
    <type>Territory</type>
    <hc-middle-x>0.37</hc-middle-x>
    <hc-middle-y>0.48</hc-middle-y>
    <hc-key>au-ct</hc-key>
    <hc-a2>CT</hc-a2>
  </desc>
</path>

<path fill="#CEE3F5" stroke="#6E6E6E" stroke-width="0.4" id="AU.SA" d="M381.0,430.2 L380.3,432.8 L387.2,433.6 L386.9,436.3 L382.8,435.4 L378.4,438.9 L374.9,437.1 L367.8,438.3 L365.3,435.6 L366.0,433.1 L377.1,430.2 Z M254.9,363.1 L254.7,357.0 L251.0,264.6 L391.7,264.0 L438.6,266.1 L435.7,317.9 L430.8,405.0 L430.4,404.4 L426.4,475.8 L422.9,475.8 L418.1,472.2 L416.6,468.3 L413.2,465.0 L410.0,459.4 L409.2,455.4 L412.1,452.2 L412.1,449.7 L408.4,439.9 L401.3,431.3 L402.7,429.5 L404.1,433.0 L406.2,429.1 L404.7,426.7 L400.3,427.9 L400.6,430.3 L397.1,430.0 L394.0,431.8 L389.2,432.1 L388.2,430.0 L392.7,426.6 L394.6,415.9 L390.8,410.5 L388.3,405.0 L381.9,423.2 L378.1,422.1 L374.7,424.1 L369.9,424.1 L372.8,418.1 L378.8,418.5 L379.9,413.3 L379.3,405.4 L381.6,400.4 L386.6,394.5 L384.9,389.8 L388.1,387.9 L385.4,377.7 L384.5,385.1 L379.7,387.5 L376.2,396.4 L367.1,400.5 L363.6,403.4 L361.5,407.5 L357.2,411.4 L356.3,415.5 L358.1,419.2 L352.3,417.3 L345.8,410.7 L349.5,413.2 L348.7,406.7 L346.5,400.0 L341.4,395.4 L341.1,390.6 L338.9,388.4 L333.2,387.2 L330.2,379.4 L333.5,378.8 L331.3,375.0 L327.0,376.2 L328.4,373.8 L324.0,368.8 L320.5,370.7 L316.6,370.5 L311.3,366.3 L303.0,367.8 L292.5,360.5 L287.2,358.4 L282.1,360.7 L272.0,360.5 Z">
  <desc xmlns="http://www.highcharts.com/svg/namespace">
    <labelrank>2</labelrank>
    <hasc>AU.SA</hasc>
    <alt-name>NULL</alt-name>
    <woe-id>2344703</woe-id>
    <subregion>NULL</subregion>
    <fips>AS05</fips>
    <postal-code>SA</postal-code>
    <name>South Australia</name>
    <country>Australia</country>
    <type-en>State</type-en>
    <region>NULL</region>
    <longitude>135.783</longitude>
    <woe-name>South Australia</woe-name>
    <latitude>-29.6504</latitude>
    <woe-label>South Australia, AU, Australia</woe-label>
    <type>State</type>
    <hc-middle-x>0.55</hc-middle-x>
    <hc-middle-y>0.34</hc-middle-y>
    <hc-key>au-sa</hc-key>
    <hc-a2>SA</hc-a2>
  </desc>
</path>

<path fill="#CEE3F5" stroke="#6E6E6E" stroke-width="0.4" id="AU.QL" d="M632.9,264.5 L633.5,269.5 L626.5,282.1 L625.5,277.7 L627.9,271.6 L631.7,268.2 L630.4,265.6 Z M600.7,237.4 L603.0,239.1 L602.7,243.4 L599.7,237.9 Z M620.8,325.9 L615.2,325.2 L611.5,323.0 L602.9,326.5 L602.9,332.5 L595.6,332.8 L592.1,336.0 L591.7,331.7 L584.9,325.8 L579.7,325.3 L577.6,323.1 L573.3,323.6 L565.2,322.3 L556.5,328.5 L435.7,317.9 L438.6,266.1 L391.7,264.0 L396.9,99.8 L396.9,99.6 L400.0,102.4 L407.9,104.1 L414.2,106.8 L417.9,114.5 L429.8,121.3 L438.4,120.5 L444.0,117.6 L448.9,106.4 L450.9,104.8 L455.5,93.8 L454.7,91.6 L457.1,83.6 L460.6,75.6 L458.7,66.1 L460.2,59.0 L458.6,56.6 L459.8,50.0 L463.0,44.3 L461.4,39.5 L465.9,34.0 L462.1,31.5 L466.2,23.3 L468.2,24.4 L472.8,10.9 L474.1,3.6 L479.2,0.1 L482.1,0.8 L485.8,12.7 L485.3,20.9 L490.9,23.7 L488.2,29.7 L494.1,35.2 L492.5,39.5 L494.7,40.8 L495.7,51.6 L494.2,55.5 L496.6,60.4 L497.7,67.3 L500.3,69.5 L504.3,67.4 L505.8,63.2 L506.8,66.5 L510.6,64.3 L512.9,71.3 L516.3,72.6 L518.5,76.2 L523.7,79.1 L521.8,81.7 L521.5,89.4 L523.9,98.9 L522.2,105.5 L527.9,113.9 L530.9,113.9 L529.4,116.7 L532.8,127.5 L529.7,138.3 L534.4,138.3 L534.9,141.4 L532.9,149.3 L535.4,152.8 L546.1,160.1 L551.3,159.4 L554.3,168.3 L555.7,166.0 L558.5,170.1 L563.8,171.7 L565.4,175.6 L568.2,173.8 L568.8,176.6 L573.8,178.5 L568.8,182.6 L571.4,187.8 L577.0,193.0 L579.7,204.3 L578.8,205.5 L580.7,213.6 L586.8,221.4 L585.6,215.2 L588.0,212.8 L590.1,217.5 L595.9,222.0 L595.1,215.0 L598.6,219.9 L599.1,224.0 L597.1,231.8 L597.3,236.2 L605.9,247.8 L611.1,248.8 L615.4,259.9 L619.1,262.7 L622.1,271.7 L625.6,273.1 L624.9,281.1 L628.5,284.8 L625.6,290.5 L625.6,303.8 L622.6,306.0 L626.3,316.1 L628.3,310.2 L628.2,309.7 L628.2,309.7 L628.2,309.7 L629.8,311.0 L626.6,319.6 L627.2,323.4 Z M417.4,102.5 L418.8,99.1 L424.2,98.1 L421.3,102.7 L417.4,102.5 L417.4,102.5 Z M628.2,309.4 L628.2,309.7 L628.2,309.7 L628.2,309.7 L628.2,309.6 L628.2,309.4 Z M628.2,309.4 L627.9,304.6 L629.4,303.9 L628.2,309.4 Z M417.4,102.5 L416.3,105.1 L416.8,102.4 L417.4,102.5 L417.4,102.5 Z">
  <desc xmlns="http://www.highcharts.com/svg/namespace">
    <labelrank>2</labelrank>
    <hasc>AU.QL</hasc>
    <alt-name>NULL</alt-name>
    <woe-id>2344702</woe-id>
    <subregion>NULL</subregion>
    <fips>AS04</fips>
    <postal-code>QL</postal-code>
    <name>Queensland</name>
    <country>Australia</country>
    <type-en>State</type-en>
    <region>NULL</region>
    <longitude>144.778</longitude>
    <woe-name>Queensland</woe-name>
    <latitude>-23.1364</latitude>
    <woe-label>Queensland, AU, Australia</woe-label>
    <type>State</type>
    <hc-middle-x>0.43</hc-middle-x>
    <hc-middle-y>0.67</hc-middle-y>
    <hc-key>au-ql</hc-key>
    <hc-a2>QL</hc-a2>
  </desc>
</path>

<path fill="#CEE3F5" stroke="#6E6E6E" stroke-width="0.4" id="AU.2557" d="M699.6,395.8 L700.0,396.7 L699.7,397.0 L699.6,396.1 Z">
  <desc xmlns="http://www.highcharts.com/svg/namespace">
    <labelrank>3</labelrank>
    <hasc>AU.CT</hasc>
    <alt-name>NULL</alt-name>
    <woe-id>23424905</woe-id>
    <subregion>NULL</subregion>
    <fips>AS02</fips>
    <postal-code>NULL</postal-code>
    <name>Norfolk Island</name>
    <country>Australia</country>
    <type-en>Territory</type-en>
    <region>NULL</region>
    <longitude>159.076</longitude>
    <woe-name>Norfolk Island</woe-name>
    <latitude>-31.586</latitude>
    <woe-label>NULL</woe-label>
    <type>Territory</type>
    <hc-middle-x>0.52</hc-middle-x>
    <hc-middle-y>0.49</hc-middle-y>
    <hc-key>au-2557</hc-key>
    <hc-a2>NI</hc-a2>
  </desc>
</path>

<path fill="#CEE3F5" stroke="#6E6E6E" stroke-width="0.4" id="AU.TS" d="M522.9,527.2 L519.9,524.9 L524.2,524.0 L526.2,526.5 Z M520.4,513.0 L524.6,517.9 L524.1,522.8 L521.6,523.1 L517.4,515.6 Z M466.8,513.9 L464.7,515.1 L464.5,507.5 L467.6,506.4 L467.8,512.9 Z M475.2,524.3 L474.8,525.4 L479.9,528.8 L487.7,531.5 L488.7,533.1 L496.9,536.6 L505.3,534.0 L511.0,535.2 L513.3,532.6 L516.2,533.7 L518.8,531.2 L522.9,536.4 L520.4,550.5 L521.1,556.2 L518.5,555.0 L515.9,559.3 L514.6,565.3 L513.5,575.5 L511.2,575.7 L509.4,571.5 L512.5,572.2 L512.6,569.6 L508.2,568.3 L508.7,570.6 L504.5,572.6 L505.4,577.7 L502.0,575.7 L498.2,581.5 L494.5,579.0 L490.0,578.0 L487.4,578.8 L486.7,572.3 L485.4,573.9 L483.9,569.4 L481.7,567.5 L479.0,560.8 L478.7,553.4 L481.5,556.8 L479.3,549.3 L475.9,544.4 L472.7,531.3 Z">
  <desc xmlns="http://www.highcharts.com/svg/namespace">
    <labelrank>2</labelrank>
    <hasc>AU.TS</hasc>
    <alt-name>NULL</alt-name>
    <woe-id>2344704</woe-id>
    <subregion>NULL</subregion>
    <fips>AS06</fips>
    <postal-code>TS</postal-code>
    <name>Tasmania</name>
    <country>Australia</country>
    <type-en>State</type-en>
    <region>NULL</region>
    <longitude>146.603</longitude>
    <woe-name>NULL</woe-name>
    <latitude>-42.1383</latitude>
    <woe-label>NULL</woe-label>
    <type>State</type>
    <hc-middle-x>0.61</hc-middle-x>
    <hc-middle-y>0.60</hc-middle-y>
    <hc-key>au-ts</hc-key>
    <hc-a2>TS</hc-a2>
  </desc>
</path>

<path fill="#CEE3F5" stroke="#6E6E6E" stroke-width="0.4" id="AU.JB" d="M568.6,437.3 L569.3,438.5 L567.2,438.3 L567.6,437.6 Z">
  <desc xmlns="http://www.highcharts.com/svg/namespace">
    <labelrank>2</labelrank>
    <hasc>AU.JB</hasc>
    <alt-name>NULL</alt-name>
    <woe-id>1102841</woe-id>
    <subregion>NULL</subregion>
    <fips>NULL</fips>
    <postal-code>JB</postal-code>
    <name>Jervis Bay Territory</name>
    <country>Australia</country>
    <type-en>Territory</type-en>
    <region>NULL</region>
    <longitude>150.692</longitude>
    <woe-name>Jervis Bay</woe-name>
    <latitude>-35.1532</latitude>
    <woe-label>NULL</woe-label>
    <type>Territory</type>
    <hc-middle-x>0.51</hc-middle-x>
    <hc-middle-y>0.47</hc-middle-y>
    <hc-key>au-jb</hc-key>
    <hc-a2>JB</hc-a2>
  </desc>
</path>

<path fill="#CEE3F5" stroke="#6E6E6E" stroke-width="0.4" id="AU.NS" d="M567.2,438.3 L559.0,449.7 L557.9,457.1 L553.2,467.3 L554.5,473.7 L552.8,477.6 L529.8,462.3 L530.0,459.6 L528.1,448.9 L524.4,446.4 L519.8,446.4 L518.8,448.2 L511.8,447.9 L508.8,445.7 L505.3,446.3 L496.4,444.0 L494.1,441.7 L486.1,441.4 L485.4,445.1 L481.9,445.7 L477.7,441.5 L476.5,438.6 L464.2,427.5 L464.0,420.9 L455.1,416.7 L452.5,419.5 L450.3,415.2 L450.8,412.1 L448.5,409.1 L441.6,407.1 L438.8,408.9 L430.8,405.0 L435.7,317.9 L556.5,328.5 L565.2,322.3 L573.3,323.6 L577.6,323.1 L579.7,325.3 L584.9,325.8 L591.7,331.7 L592.1,336.0 L595.6,332.8 L602.9,332.5 L602.9,326.5 L611.5,323.0 L615.2,325.2 L620.8,325.9 L627.2,323.4 L628.2,325.7 L626.8,335.9 L621.6,343.1 L620.3,349.5 L612.6,366.5 L613.6,369.5 L609.9,379.2 L601.9,389.9 L601.6,394.8 L594.4,400.0 L590.3,400.6 L581.3,412.6 L579.6,418.2 L573.6,424.1 L571.2,431.7 L571.0,435.8 L568.6,437.3 L567.6,437.6 Z M549.3,438.9 L545.7,434.9 L541.4,437.3 L540.1,444.1 L542.0,447.5 L544.3,446.7 L544.5,442.9 L546.4,439.1 Z">
  <desc xmlns="http://www.highcharts.com/svg/namespace">
    <labelrank>2</labelrank>
    <hasc>AU.NS</hasc>
    <alt-name>NULL</alt-name>
    <woe-id>2344700</woe-id>
    <subregion>NULL</subregion>
    <fips>AS02</fips>
    <postal-code>NS</postal-code>
    <name>New South Wales</name>
    <country>Australia</country>
    <type-en>State</type-en>
    <region>NULL</region>
    <longitude>146.781</longitude>
    <woe-name>New South Wales</woe-name>
    <latitude>-32.4751</latitude>
    <woe-label>New South Wales, AU, Australia</woe-label>
    <type>State</type>
    <hc-middle-x>0.44</hc-middle-x>
    <hc-middle-y>0.40</hc-middle-y>
    <hc-key>au-ns</hc-key>
    <hc-a2>NS</hc-a2>
  </desc>
</path>

<path fill="#CEE3F5" stroke="#6E6E6E" stroke-width="0.4" id="AU.VI" d="M426.4,475.8 L430.4,404.4 L430.8,405.0 L438.8,408.9 L441.6,407.1 L448.5,409.1 L450.8,412.1 L450.3,415.2 L452.5,419.5 L455.1,416.7 L464.0,420.9 L464.2,427.5 L476.5,438.6 L477.7,441.5 L481.9,445.7 L485.4,445.1 L486.1,441.4 L494.1,441.7 L496.4,444.0 L505.3,446.3 L508.8,445.7 L511.8,447.9 L518.8,448.2 L519.8,446.4 L524.4,446.4 L528.1,448.9 L530.0,459.6 L529.8,462.3 L552.8,477.6 L550.1,478.1 L545.4,481.6 L529.0,480.3 L523.4,481.3 L518.5,483.7 L507.6,492.6 L497.8,493.6 L499.0,496.4 L502.1,494.4 L500.5,500.6 L496.5,494.6 L494.0,495.9 L492.9,491.2 L483.4,488.2 L486.0,486.2 L486.4,483.2 L481.1,487.7 L479.4,485.2 L481.9,484.7 L484.1,481.7 L482.6,476.9 L480.4,476.7 L476.0,480.0 L478.6,481.3 L477.4,483.4 L473.9,483.3 L468.8,486.2 L465.6,489.6 L461.1,492.2 L454.8,487.8 L451.5,486.5 L446.0,482.4 L443.5,482.9 L437.3,480.0 L435.6,482.3 L431.7,481.9 L431.9,480.2 Z">
  <desc xmlns="http://www.highcharts.com/svg/namespace">
    <labelrank>2</labelrank>
    <hasc>AU.VI</hasc>
    <alt-name>NULL</alt-name>
    <woe-id>2344705</woe-id>
    <subregion>NULL</subregion>
    <fips>AS07</fips>
    <postal-code>VI</postal-code>
    <name>Victoria</name>
    <country>Australia</country>
    <type-en>State</type-en>
    <region>NULL</region>
    <longitude>144.75</longitude>
    <woe-name>Victoria</woe-name>
    <latitude>-37.0082</latitude>
    <woe-label>Victoria, AU, Australia</woe-label>
    <type>State</type>
    <hc-middle-x>0.35</hc-middle-x>
    <hc-middle-y>0.59</hc-middle-y>
    <hc-key>au-vi</hc-key>
    <hc-a2>VI</hc-a2>
  </desc>
</path>
</g>

<text x="350" y="714" text-anchor="middle" font-family="Verdana" font-size="8" stroke-opacity="0.6">Copyright (c) 2014 Highsoft AS, Based on data from Natural Earth</text>

</svg>