<?xml version="1.0" encoding="utf-8" standalone="no"?>
<!DOCTYPE svg PUBLIC "-//W3C//DTD SVG 1.1//EN" "http://www.w3.org/Graphics/SVG/1.1/DTD/svg11.dtd">

<svg version="1.1" height="700pt" width="700pt" xmlns="http://www.w3.org/2000/svg" xmlns:xlink="http://www.w3.org/1999/xlink">
<desc>
Map version: 1.1.1
Copyright (c) 2014 Highsoft AS, Based on data from Natural Earth
</desc>
<title>Honduras</title>
<g id="admin1">

<g id="HN">
  <desc xmlns="http://www.highcharts.com/svg/namespace">
    <name>Honduras</name>
    <labelrank>5</labelrank>
    <country-abbrev>Hond.</country-abbrev>
    <subregion>Central America</subregion>
    <woe-id>23424841</woe-id>
    <region-wb>Latin America &amp; Caribbean</region-wb>
    <iso-a3>HND</iso-a3>
    <iso-a2>HN</iso-a2>
    <region-un>Americas</region-un>
    <continent>North America</continent>
    <hc-key>hn</hc-key>
    <hc-a2>HO</hc-a2>
  </desc>
</g>

<path fill="#CEE3F5" stroke="#6E6E6E" stroke-width="0.4" id="HN.IB" d="M278.9,48.0 L269.7,52.4 L266.0,50.4 L271.9,46.6 L277.9,45.3 L279.9,46.1 Z M354.5,11.1 L352.1,12.3 L342.3,12.3 L336.7,14.4 L330.6,17.9 L326.6,19.4 L322.4,22.4 L316.0,23.9 L310.2,28.9 L310.3,24.3 L318.0,18.9 L328.0,14.2 L340.1,10.4 L343.4,10.0 L356.8,10.5 Z M388.7,9.3 L383.0,13.2 L382.5,12.2 L385.2,7.3 L386.9,6.4 L389.9,1.7 L393.6,0.0 L397.4,2.2 L394.4,3.9 L392.3,7.5 Z">
  <desc xmlns="http://www.highcharts.com/svg/namespace">
    <labelrank>7</labelrank>
    <hasc>HN.IB</hasc>
    <alt-name>Islas de Bahia</alt-name>
    <woe-id>2345633</woe-id>
    <subregion>NULL</subregion>
    <fips>HO01</fips>
    <postal-code>IB</postal-code>
    <name>Islas de la Bahía</name>
    <country>Honduras</country>
    <type-en>Department</type-en>
    <region>NULL</region>
    <longitude>-86.9319</longitude>
    <woe-name>Islas de la Bahía</woe-name>
    <latitude>16.1048</latitude>
    <woe-label>Islas de la Bahía, HN, Honduras</woe-label>
    <type>Departamento</type>
    <hc-middle-x>0.37</hc-middle-x>
    <hc-middle-y>0.45</hc-middle-y>
    <hc-key>hn-ib</hc-key>
    <hc-a2>IB</hc-a2>
  </desc>
</path>

<path fill="#CEE3F5" stroke="#6E6E6E" stroke-width="0.4" id="HN.VA" d="M195.1,377.0 L192.6,377.4 L189.5,373.4 L196.2,372.7 Z M195.4,363.6 L201.2,363.2 L199.2,364.9 L200.6,369.4 L198.8,371.0 L191.2,367.9 L194.0,363.1 Z M222.9,360.8 L220.4,358.8 L217.1,359.0 L215.1,357.7 L212.1,360.8 L211.2,364.8 L203.8,365.2 L204.3,363.2 L198.0,361.8 L195.8,363.2 L197.3,359.2 L195.7,358.6 L195.8,354.1 L193.8,352.6 L191.1,355.3 L192.1,358.5 L190.5,361.6 L187.4,363.8 L184.2,364.7 L177.4,362.0 L176.8,360.0 L173.4,359.2 L182.3,355.2 L184.2,352.9 L183.7,348.5 L181.2,346.9 L177.7,347.3 L176.5,344.6 L179.9,334.9 L180.5,326.5 L183.2,322.8 L182.4,320.9 L186.3,312.1 L181.2,308.5 L187.6,308.1 L192.7,309.9 L192.4,318.3 L197.9,322.8 L203.4,323.2 L211.6,329.0 L213.6,328.9 L218.1,332.6 L217.8,337.2 L220.5,343.3 L224.5,346.3 L224.2,348.7 L226.2,353.9 L225.1,359.1 Z">
  <desc xmlns="http://www.highcharts.com/svg/namespace">
    <labelrank>7</labelrank>
    <hasc>HN.VA</hasc>
    <alt-name>NULL</alt-name>
    <woe-id>2345639</woe-id>
    <subregion>NULL</subregion>
    <fips>HO17</fips>
    <postal-code>VA</postal-code>
    <name>Valle</name>
    <country>Honduras</country>
    <type-en>Department</type-en>
    <region>NULL</region>
    <longitude>-87.5992</longitude>
    <woe-name>Valle</woe-name>
    <latitude>13.5753</latitude>
    <woe-label>Valle, HN, Honduras</woe-label>
    <type>Departamento</type>
    <hc-middle-x>0.53</hc-middle-x>
    <hc-middle-y>0.50</hc-middle-y>
    <hc-key>hn-va</hc-key>
    <hc-a2>VA</hc-a2>
  </desc>
</path>

<path fill="#CEE3F5" stroke="#6E6E6E" stroke-width="0.4" id="HN.AT" d="M184.3,69.0 L188.9,69.7 L193.8,72.7 L194.6,71.1 L199.6,67.4 L196.7,72.1 L208.7,83.2 L212.1,84.7 L215.7,84.0 L218.0,80.9 L222.0,81.0 L223.2,78.5 L227.1,77.3 L238.7,80.0 L248.7,83.5 L259.1,84.6 L271.0,87.4 L279.2,87.3 L288.1,84.9 L291.3,82.4 L294.5,84.0 L299.3,84.4 L321.1,82.5 L324.8,82.6 L328.5,84.1 L328.1,88.8 L331.8,93.0 L333.4,96.4 L336.8,97.8 L337.1,103.1 L335.5,105.6 L330.4,108.1 L324.9,106.6 L319.6,107.5 L312.3,107.1 L306.4,105.7 L302.6,106.7 L295.6,110.3 L290.4,111.9 L283.1,111.6 L281.8,109.8 L273.8,111.9 L266.7,112.1 L260.7,117.9 L257.6,119.9 L250.3,122.5 L245.2,126.2 L240.6,126.2 L227.3,122.8 L223.6,124.5 L219.0,122.2 L217.5,119.9 L216.6,114.4 L213.1,113.2 L208.7,115.7 L197.4,117.2 L195.7,116.4 L190.5,110.2 L188.8,100.9 L187.6,98.7 L177.6,92.1 L180.2,91.1 L181.0,88.6 L176.9,83.7 L181.7,74.7 L184.7,71.8 Z">
  <desc xmlns="http://www.highcharts.com/svg/namespace">
    <labelrank>7</labelrank>
    <hasc>HN.AT</hasc>
    <alt-name>NULL</alt-name>
    <woe-id>2345623</woe-id>
    <subregion>NULL</subregion>
    <fips>HO01</fips>
    <postal-code>AT</postal-code>
    <name>Atlántida</name>
    <country>Honduras</country>
    <type-en>Department</type-en>
    <region>NULL</region>
    <longitude>-87.0783</longitude>
    <woe-name>Atlántida</woe-name>
    <latitude>15.6343</latitude>
    <woe-label>Atlántida, HN, Honduras</woe-label>
    <type>Departamento</type>
    <hc-middle-x>0.41</hc-middle-x>
    <hc-middle-y>0.63</hc-middle-y>
    <hc-key>hn-at</hc-key>
    <hc-a2>AT</hc-a2>
  </desc>
</path>

<path fill="#CEE3F5" stroke="#6E6E6E" stroke-width="0.4" id="HN.GD" d="M489.0,60.4 L494.5,62.2 L505.3,66.9 L525.3,72.9 L526.9,74.1 L524.8,77.7 L524.9,82.4 L527.2,84.6 L532.2,84.0 L532.8,80.6 L536.7,83.4 L539.5,83.0 L547.6,83.9 L550.4,81.9 L548.0,80.9 L536.3,79.0 L530.2,76.2 L529.2,74.4 L549.1,78.0 L565.8,79.2 L568.0,79.9 L582.5,91.4 L613.4,117.0 L624.1,123.2 L631.2,125.2 L632.0,127.2 L629.6,128.1 L623.4,124.1 L617.0,121.1 L612.1,120.8 L612.3,118.8 L607.5,113.3 L605.6,113.9 L601.0,111.1 L598.7,111.4 L595.3,114.2 L591.5,112.7 L593.2,109.7 L589.8,109.7 L590.3,112.9 L593.0,116.6 L591.5,117.5 L588.1,111.1 L585.5,109.5 L582.2,110.5 L577.6,109.8 L579.2,113.3 L581.3,114.0 L580.7,117.7 L584.1,114.8 L585.0,111.6 L587.1,111.8 L591.3,121.2 L587.7,123.7 L588.6,126.6 L592.5,131.7 L597.8,133.7 L598.8,132.6 L597.7,129.3 L600.6,132.0 L600.3,135.6 L601.8,137.5 L609.5,137.1 L606.4,138.7 L607.4,141.4 L610.7,144.4 L617.7,143.9 L621.9,141.6 L615.6,137.8 L613.9,135.6 L603.1,132.4 L597.7,126.9 L602.3,124.5 L612.3,128.7 L614.6,132.3 L621.3,134.8 L624.8,138.4 L622.5,140.0 L624.4,141.1 L627.1,139.8 L627.8,147.5 L628.9,149.4 L631.1,147.0 L632.2,149.2 L634.9,145.3 L643.0,143.0 L644.1,138.3 L652.9,140.0 L654.8,139.5 L654.4,148.0 L651.8,148.3 L649.8,145.3 L647.0,145.6 L644.4,149.9 L646.5,151.5 L647.3,148.3 L648.4,153.2 L652.0,153.0 L655.1,149.3 L660.1,147.4 L657.8,143.9 L656.0,138.9 L652.5,138.7 L645.5,134.9 L638.8,133.0 L632.5,129.3 L635.0,126.2 L638.3,128.7 L653.1,135.9 L668.3,141.4 L674.2,145.5 L675.5,147.7 L677.5,155.1 L679.5,159.7 L682.6,164.1 L686.0,166.7 L700.0,172.0 L694.7,172.1 L690.2,173.9 L684.8,173.9 L684.0,171.6 L674.8,170.9 L670.7,168.6 L668.0,172.6 L663.1,174.3 L660.0,171.1 L657.4,171.0 L657.0,176.0 L655.3,175.5 L655.5,178.4 L646.9,183.0 L645.7,187.3 L641.8,185.5 L637.1,185.7 L634.6,188.1 L635.7,191.4 L631.0,189.9 L629.0,192.6 L622.7,193.1 L625.0,195.5 L620.7,196.3 L617.3,198.7 L614.3,198.4 L611.1,195.7 L611.1,200.4 L600.0,201.1 L594.2,199.7 L590.9,197.1 L588.8,198.3 L592.0,202.9 L586.6,205.5 L582.2,206.5 L576.2,201.9 L573.2,201.5 L572.7,210.8 L570.5,212.0 L564.8,211.2 L561.9,206.5 L556.9,214.3 L548.6,217.8 L544.5,215.7 L542.8,216.2 L543.5,213.1 L535.3,213.0 L528.4,210.6 L524.2,211.7 L521.2,205.8 L518.9,204.3 L518.7,201.4 L516.1,196.7 L510.7,194.0 L501.0,195.5 L490.3,204.2 L490.3,204.1 L490.0,166.5 Z">
  <desc xmlns="http://www.highcharts.com/svg/namespace">
    <labelrank>7</labelrank>
    <hasc>HN.GD</hasc>
    <alt-name>NULL</alt-name>
    <woe-id>2345631</woe-id>
    <subregion>NULL</subregion>
    <fips>HO09</fips>
    <postal-code>GD</postal-code>
    <name>Gracias a Dios</name>
    <country>Honduras</country>
    <type-en>Department</type-en>
    <region>NULL</region>
    <longitude>-84.37009999999999</longitude>
    <woe-name>Gracias a Dios</woe-name>
    <latitude>15.1219</latitude>
    <woe-label>Gracias a Dios, HN, Honduras</woe-label>
    <type>Departamento</type>
    <hc-middle-x>0.31</hc-middle-x>
    <hc-middle-y>0.55</hc-middle-y>
    <hc-key>hn-gd</hc-key>
    <hc-a2>GD</hc-a2>
  </desc>
</path>

<path fill="#CEE3F5" stroke="#6E6E6E" stroke-width="0.4" id="HN.CL" d="M330.4,108.1 L335.5,105.6 L337.1,103.1 L336.8,97.8 L333.4,96.4 L331.8,93.0 L328.1,88.8 L328.5,84.1 L331.1,85.8 L335.5,86.4 L339.6,85.2 L350.2,78.5 L354.2,74.4 L362.0,71.9 L377.9,71.2 L384.8,67.1 L388.1,61.6 L386.3,59.3 L375.9,57.5 L379.3,56.0 L393.9,58.7 L398.1,59.2 L411.7,62.9 L412.3,67.0 L413.9,65.5 L421.1,70.3 L426.1,72.3 L434.5,74.5 L448.6,73.1 L460.7,72.6 L467.1,69.9 L475.2,63.9 L480.5,60.7 L489.0,60.4 L490.0,166.5 L483.2,158.7 L479.5,155.3 L463.7,148.5 L461.8,147.4 L455.3,139.5 L449.3,130.8 L445.3,127.6 L433.0,123.0 L421.5,113.2 L412.4,108.4 L407.1,109.0 L403.9,107.6 L401.4,108.8 L400.4,111.8 L395.8,115.1 L391.8,113.8 L387.8,119.3 L381.0,125.9 L374.6,129.5 L370.5,129.5 L361.0,132.2 L358.4,131.7 L351.5,128.0 L350.5,122.9 L350.7,115.2 L342.4,112.8 L335.3,112.8 Z">
  <desc xmlns="http://www.highcharts.com/svg/namespace">
    <labelrank>7</labelrank>
    <hasc>HN.CL</hasc>
    <alt-name>NULL</alt-name>
    <woe-id>2345625</woe-id>
    <subregion>NULL</subregion>
    <fips>HO03</fips>
    <postal-code>CL</postal-code>
    <name>Colón</name>
    <country>Honduras</country>
    <type-en>Department</type-en>
    <region>NULL</region>
    <longitude>-85.72360000000001</longitude>
    <woe-name>Colón</woe-name>
    <latitude>15.7786</latitude>
    <woe-label>Colón, HN, Honduras</woe-label>
    <type>Departamento</type>
    <hc-middle-x>0.70</hc-middle-x>
    <hc-middle-y>0.40</hc-middle-y>
    <hc-key>hn-cl</hc-key>
    <hc-a2>CL</hc-a2>
  </desc>
</path>

<path fill="#CEE3F5" stroke="#6E6E6E" stroke-width="0.4" id="HN.OL" d="M490.0,166.5 L490.3,204.1 L490.3,204.2 L487.6,207.7 L486.7,212.6 L484.3,213.4 L488.1,216.8 L485.0,220.0 L488.0,220.0 L483.2,226.0 L480.8,227.1 L477.1,223.8 L475.0,223.2 L473.7,228.1 L473.5,233.9 L470.5,237.5 L470.5,240.7 L467.5,243.1 L471.3,246.1 L472.9,251.0 L469.3,254.3 L463.7,255.8 L459.5,255.8 L454.6,257.7 L451.6,261.4 L449.9,261.3 L446.5,265.9 L445.7,268.9 L442.3,274.9 L437.5,278.4 L433.4,279.5 L431.5,284.5 L427.5,285.5 L426.1,281.7 L422.7,279.2 L421.6,273.4 L418.0,269.2 L415.2,270.0 L405.6,267.6 L403.1,270.8 L400.4,271.2 L395.7,269.5 L392.8,271.4 L392.1,274.1 L388.1,275.2 L384.5,271.3 L380.2,269.3 L376.0,261.2 L370.7,259.3 L369.2,261.4 L362.2,259.6 L357.4,252.2 L352.0,251.3 L344.6,254.2 L338.3,257.7 L330.0,257.2 L326.7,253.5 L322.0,251.2 L319.3,248.7 L309.8,246.8 L307.2,243.7 L302.6,243.9 L297.8,241.9 L295.9,233.1 L293.9,228.4 L294.5,224.4 L287.4,217.0 L282.7,214.0 L277.9,202.9 L275.5,193.0 L273.2,187.3 L276.2,182.4 L270.0,178.1 L267.1,173.6 L268.7,170.8 L274.5,169.2 L278.4,166.0 L281.9,155.6 L281.0,148.7 L281.5,146.2 L286.4,142.5 L291.6,141.4 L295.0,144.2 L300.1,144.4 L303.0,142.9 L306.8,136.1 L309.2,136.0 L318.7,130.8 L321.3,130.5 L327.0,133.1 L331.8,137.5 L336.0,137.3 L351.5,128.0 L358.4,131.7 L361.0,132.2 L370.5,129.5 L374.6,129.5 L381.0,125.9 L387.8,119.3 L391.8,113.8 L395.8,115.1 L400.4,111.8 L401.4,108.8 L403.9,107.6 L407.1,109.0 L412.4,108.4 L421.5,113.2 L433.0,123.0 L445.3,127.6 L449.3,130.8 L455.3,139.5 L461.8,147.4 L463.7,148.5 L479.5,155.3 L483.2,158.7 Z">
  <desc xmlns="http://www.highcharts.com/svg/namespace">
    <labelrank>7</labelrank>
    <hasc>HN.OL</hasc>
    <alt-name>NULL</alt-name>
    <woe-id>2345637</woe-id>
    <subregion>NULL</subregion>
    <fips>HO15</fips>
    <postal-code>OL</postal-code>
    <name>Olancho</name>
    <country>Honduras</country>
    <type-en>Department</type-en>
    <region>NULL</region>
    <longitude>-85.9937</longitude>
    <woe-name>Olancho</woe-name>
    <latitude>14.8052</latitude>
    <woe-label>Olancho, HN, Honduras</woe-label>
    <type>Departamento</type>
    <hc-middle-x>0.54</hc-middle-x>
    <hc-middle-y>0.49</hc-middle-y>
    <hc-key>hn-ol</hc-key>
    <hc-a2>OL</hc-a2>
  </desc>
</path>

<path fill="#CEE3F5" stroke="#6E6E6E" stroke-width="0.4" id="HN.FM" d="M267.1,173.6 L270.0,178.1 L276.2,182.4 L273.2,187.3 L275.5,193.0 L277.9,202.9 L282.7,214.0 L287.4,217.0 L294.5,224.4 L293.9,228.4 L295.9,233.1 L297.8,241.9 L289.4,248.3 L285.7,251.9 L284.9,255.7 L282.8,259.5 L277.3,264.3 L274.6,270.7 L276.7,272.3 L275.6,274.6 L269.8,274.6 L267.4,275.6 L271.0,281.6 L275.0,284.4 L275.1,290.9 L270.8,295.7 L266.9,294.9 L266.2,308.6 L264.1,313.9 L261.7,316.8 L256.2,315.8 L252.0,312.7 L250.8,315.0 L251.2,319.5 L253.1,322.7 L251.0,330.1 L245.1,327.6 L241.5,328.8 L235.9,326.8 L232.1,327.3 L229.6,326.0 L225.0,326.6 L221.4,323.0 L222.0,319.1 L214.4,318.9 L213.2,325.7 L213.6,328.9 L211.6,329.0 L203.4,323.2 L197.9,322.8 L192.4,318.3 L192.7,309.9 L195.8,305.9 L197.4,302.0 L198.4,295.7 L196.4,280.6 L196.5,278.2 L200.4,274.2 L204.7,273.8 L209.3,271.6 L211.3,267.6 L217.8,264.4 L214.3,260.1 L213.5,253.7 L214.0,251.8 L218.5,251.6 L222.6,245.2 L219.5,242.2 L219.4,238.7 L215.0,235.1 L213.3,230.5 L219.0,224.9 L220.9,218.5 L227.2,220.7 L228.9,217.7 L229.1,214.0 L235.8,209.7 L237.7,202.9 L236.8,195.4 L238.1,193.3 L242.3,191.7 L241.0,189.1 L238.1,187.2 L242.1,181.0 L244.3,179.0 L244.9,174.1 L246.9,172.5 L252.3,171.8 L257.3,173.0 L263.3,172.8 Z">
  <desc xmlns="http://www.highcharts.com/svg/namespace">
    <labelrank>7</labelrank>
    <hasc>HN.FM</hasc>
    <alt-name>Tegucigalpa</alt-name>
    <woe-id>2345630</woe-id>
    <subregion>NULL</subregion>
    <fips>HO08</fips>
    <postal-code>FM</postal-code>
    <name>Francisco Morazán</name>
    <country>Honduras</country>
    <type-en>Department</type-en>
    <region>NULL</region>
    <longitude>-87.1815</longitude>
    <woe-name>Francisco Morazán</woe-name>
    <latitude>14.3474</latitude>
    <woe-label>Francisco Morazán, HN, Honduras</woe-label>
    <type>Departamento</type>
    <hc-middle-x>0.52</hc-middle-x>
    <hc-middle-y>0.56</hc-middle-y>
    <hc-key>hn-fm</hc-key>
    <hc-a2>FM</hc-a2>
  </desc>
</path>

<path fill="#CEE3F5" stroke="#6E6E6E" stroke-width="0.4" id="HN.YO" d="M330.4,108.1 L335.3,112.8 L342.4,112.8 L350.7,115.2 L350.5,122.9 L351.5,128.0 L336.0,137.3 L331.8,137.5 L327.0,133.1 L321.3,130.5 L318.7,130.8 L309.2,136.0 L306.8,136.1 L303.0,142.9 L300.1,144.4 L295.0,144.2 L291.6,141.4 L286.4,142.5 L281.5,146.2 L281.0,148.7 L281.9,155.6 L278.4,166.0 L274.5,169.2 L268.7,170.8 L267.1,173.6 L263.3,172.8 L257.3,173.0 L252.3,171.8 L246.9,172.5 L244.9,174.1 L244.3,179.0 L242.1,181.0 L238.1,187.2 L235.1,184.5 L223.6,182.5 L218.7,186.0 L215.8,185.7 L213.6,178.6 L210.0,176.2 L208.9,172.8 L205.4,169.1 L203.5,169.0 L199.8,172.3 L194.9,173.4 L183.1,173.4 L182.5,168.2 L183.6,165.9 L182.9,162.5 L179.6,159.2 L176.7,159.2 L176.0,157.6 L171.2,156.8 L168.4,153.4 L162.2,153.2 L162.9,147.8 L160.9,147.0 L162.0,141.0 L163.4,137.9 L168.2,135.1 L173.8,127.2 L170.2,123.1 L174.3,123.2 L174.6,121.2 L172.7,116.6 L175.1,113.7 L176.9,108.6 L178.7,109.1 L180.4,104.9 L178.7,102.2 L174.0,97.8 L173.6,95.5 L177.6,92.1 L187.6,98.7 L188.8,100.9 L190.5,110.2 L195.7,116.4 L197.4,117.2 L208.7,115.7 L213.1,113.2 L216.6,114.4 L217.5,119.9 L219.0,122.2 L223.6,124.5 L227.3,122.8 L240.6,126.2 L245.2,126.2 L250.3,122.5 L257.6,119.9 L260.7,117.9 L266.7,112.1 L273.8,111.9 L281.8,109.8 L283.1,111.6 L290.4,111.9 L295.6,110.3 L302.6,106.7 L306.4,105.7 L312.3,107.1 L319.6,107.5 L324.9,106.6 Z">
  <desc xmlns="http://www.highcharts.com/svg/namespace">
    <labelrank>9</labelrank>
    <hasc>HN.YO</hasc>
    <alt-name>NULL</alt-name>
    <woe-id>2345640</woe-id>
    <subregion>NULL</subregion>
    <fips>HO18</fips>
    <postal-code>YO</postal-code>
    <name>Yoro</name>
    <country>Honduras</country>
    <type-en>Department</type-en>
    <region>NULL</region>
    <longitude>-87.206</longitude>
    <woe-name>Yoro</woe-name>
    <latitude>15.233</latitude>
    <woe-label>Yoro, HN, Honduras</woe-label>
    <type>Departamento</type>
    <hc-middle-x>0.28</hc-middle-x>
    <hc-middle-y>0.60</hc-middle-y>
    <hc-key>hn-yo</hc-key>
    <hc-a2>YO</hc-a2>
  </desc>
</path>

<path fill="#CEE3F5" stroke="#6E6E6E" stroke-width="0.4" id="HN.CM" d="M238.1,187.2 L241.0,189.1 L242.3,191.7 L238.1,193.3 L236.8,195.4 L237.7,202.9 L235.8,209.7 L229.1,214.0 L228.9,217.7 L227.2,220.7 L220.9,218.5 L219.0,224.9 L213.3,230.5 L215.0,235.1 L219.4,238.7 L219.5,242.2 L222.6,245.2 L218.5,251.6 L214.0,251.8 L213.5,253.7 L214.3,260.1 L217.8,264.4 L211.3,267.6 L209.3,271.6 L204.7,273.8 L200.4,274.2 L196.5,278.2 L196.4,280.6 L192.4,280.9 L188.0,284.9 L187.9,281.0 L186.4,278.7 L182.0,275.6 L177.7,274.2 L178.2,270.5 L172.7,267.0 L172.7,263.9 L183.8,262.6 L188.7,260.1 L193.7,259.2 L195.2,256.3 L194.6,251.9 L192.4,247.7 L187.4,249.7 L178.0,247.0 L172.4,244.5 L169.7,241.2 L169.4,238.1 L164.5,232.2 L164.6,230.0 L159.9,226.8 L156.8,219.9 L152.8,217.7 L146.4,216.0 L144.9,213.9 L146.3,211.5 L144.6,207.3 L145.5,204.3 L150.9,199.9 L154.8,199.2 L155.0,194.1 L157.6,197.9 L166.5,191.6 L171.0,186.7 L175.6,185.0 L182.6,179.7 L183.1,173.4 L194.9,173.4 L199.8,172.3 L203.5,169.0 L205.4,169.1 L208.9,172.8 L210.0,176.2 L213.6,178.6 L215.8,185.7 L218.7,186.0 L223.6,182.5 L235.1,184.5 Z">
  <desc xmlns="http://www.highcharts.com/svg/namespace">
    <labelrank>9</labelrank>
    <hasc>HN.CM</hasc>
    <alt-name>NULL</alt-name>
    <woe-id>2345626</woe-id>
    <subregion>NULL</subregion>
    <fips>HO04</fips>
    <postal-code>CM</postal-code>
    <name>Comayagua</name>
    <country>Honduras</country>
    <type-en>Department</type-en>
    <region>NULL</region>
    <longitude>-87.678</longitude>
    <woe-name>Comayagua</woe-name>
    <latitude>14.6577</latitude>
    <woe-label>Comayagua, HN, Honduras</woe-label>
    <type>Departamento</type>
    <hc-middle-x>0.48</hc-middle-x>
    <hc-middle-y>0.38</hc-middle-y>
    <hc-key>hn-cm</hc-key>
    <hc-a2>CM</hc-a2>
  </desc>
</path>

<path fill="#CEE3F5" stroke="#6E6E6E" stroke-width="0.4" id="HN.CR" d="M177.6,92.1 L173.6,95.5 L174.0,97.8 L178.7,102.2 L180.4,104.9 L178.7,109.1 L176.9,108.6 L175.1,113.7 L172.7,116.6 L174.6,121.2 L174.3,123.2 L170.2,123.1 L173.8,127.2 L168.2,135.1 L163.4,137.9 L162.0,141.0 L160.9,147.0 L162.9,147.8 L162.2,153.2 L168.4,153.4 L171.2,156.8 L176.0,157.6 L176.7,159.2 L179.6,159.2 L182.9,162.5 L183.6,165.9 L182.5,168.2 L183.1,173.4 L182.6,179.7 L175.6,185.0 L171.0,186.7 L166.5,191.6 L157.6,197.9 L155.0,194.1 L153.9,186.7 L150.4,183.4 L147.4,183.2 L147.9,176.5 L150.1,170.3 L151.5,168.8 L143.0,163.5 L140.8,160.0 L141.5,157.9 L146.1,153.0 L146.7,151.2 L142.2,148.8 L139.8,143.9 L139.0,132.7 L134.8,131.0 L128.3,126.5 L126.7,123.7 L126.8,118.4 L124.4,116.9 L113.9,113.5 L107.9,112.6 L101.5,114.8 L109.2,108.8 L114.4,103.8 L118.4,97.2 L120.8,97.1 L126.2,94.8 L127.9,91.8 L129.8,91.6 L134.9,95.2 L137.6,96.1 L140.6,94.8 L147.1,87.9 L149.9,86.2 L150.4,84.0 L154.8,84.7 L161.3,80.7 L162.4,78.0 L159.4,75.1 L164.2,75.1 L171.2,72.1 L180.8,71.5 L184.3,69.0 L184.7,71.8 L181.7,74.7 L176.9,83.7 L181.0,88.6 L180.2,91.1 Z">
  <desc xmlns="http://www.highcharts.com/svg/namespace">
    <labelrank>7</labelrank>
    <hasc>HN.CR</hasc>
    <alt-name>Cortez</alt-name>
    <woe-id>2345628</woe-id>
    <subregion>NULL</subregion>
    <fips>HO06</fips>
    <postal-code>CR</postal-code>
    <name>Cortés</name>
    <country>Honduras</country>
    <type-en>Department</type-en>
    <region>NULL</region>
    <longitude>-88.0359</longitude>
    <woe-name>Cortés</woe-name>
    <latitude>15.5336</latitude>
    <woe-label>Cortés, HN, Honduras</woe-label>
    <type>Departamento</type>
    <hc-middle-x>0.60</hc-middle-x>
    <hc-middle-y>0.34</hc-middle-y>
    <hc-key>hn-cr</hc-key>
    <hc-a2>CR</hc-a2>
  </desc>
</path>

<path fill="#CEE3F5" stroke="#6E6E6E" stroke-width="0.4" id="HN.IN" d="M144.9,213.9 L146.4,216.0 L152.8,217.7 L156.8,219.9 L159.9,226.8 L164.6,230.0 L164.5,232.2 L169.4,238.1 L169.7,241.2 L162.0,246.2 L158.6,245.7 L158.4,251.4 L156.6,254.8 L152.9,257.4 L151.6,261.3 L146.9,261.5 L141.2,266.5 L138.9,270.5 L135.7,272.1 L126.9,281.4 L129.3,285.5 L128.5,291.6 L125.4,291.7 L126.3,297.6 L123.2,298.2 L120.8,301.3 L116.9,302.3 L116.2,303.7 L112.9,303.0 L112.3,305.1 L108.6,304.3 L104.1,305.2 L99.9,307.4 L96.9,307.5 L97.8,304.0 L96.3,299.9 L97.0,293.9 L97.0,293.8 L98.9,291.2 L110.7,284.6 L115.2,281.6 L117.0,276.4 L116.2,265.5 L114.1,264.4 L109.4,263.9 L105.7,261.8 L106.8,255.9 L105.6,250.1 L102.1,248.4 L97.6,243.3 L96.8,238.5 L101.8,235.6 L109.6,235.4 L112.7,233.7 L117.0,224.3 L115.8,217.0 L114.7,214.9 L123.4,215.6 L135.0,214.5 L142.0,215.6 Z">
  <desc xmlns="http://www.highcharts.com/svg/namespace">
    <labelrank>7</labelrank>
    <hasc>HN.IN</hasc>
    <alt-name>NULL</alt-name>
    <woe-id>2345632</woe-id>
    <subregion>NULL</subregion>
    <fips>HO10</fips>
    <postal-code>IN</postal-code>
    <name>Intibucá</name>
    <country>Honduras</country>
    <type-en>Department</type-en>
    <region>NULL</region>
    <longitude>-88.1754</longitude>
    <woe-name>Intibucá</woe-name>
    <latitude>14.3981</latitude>
    <woe-label>Intibucá, HN, Honduras</woe-label>
    <type>Departamento</type>
    <hc-middle-x>0.51</hc-middle-x>
    <hc-middle-y>0.32</hc-middle-y>
    <hc-key>hn-in</hc-key>
    <hc-a2>IN</hc-a2>
  </desc>
</path>

<path fill="#CEE3F5" stroke="#6E6E6E" stroke-width="0.4" id="HN.LP" d="M196.4,280.6 L198.4,295.7 L197.4,302.0 L195.8,305.9 L192.7,309.9 L187.6,308.1 L181.2,308.5 L176.5,305.7 L174.5,301.2 L171.8,300.5 L168.6,303.4 L164.2,302.9 L161.4,304.5 L156.3,303.5 L151.2,306.0 L150.3,303.2 L144.7,297.1 L143.1,292.8 L138.9,291.6 L133.0,292.2 L128.5,291.6 L129.3,285.5 L126.9,281.4 L135.7,272.1 L138.9,270.5 L141.2,266.5 L146.9,261.5 L151.6,261.3 L152.9,257.4 L156.6,254.8 L158.4,251.4 L158.6,245.7 L162.0,246.2 L169.7,241.2 L172.4,244.5 L178.0,247.0 L187.4,249.7 L192.4,247.7 L194.6,251.9 L195.2,256.3 L193.7,259.2 L188.7,260.1 L183.8,262.6 L172.7,263.9 L172.7,267.0 L178.2,270.5 L177.7,274.2 L182.0,275.6 L186.4,278.7 L187.9,281.0 L188.0,284.9 L192.4,280.9 Z">
  <desc xmlns="http://www.highcharts.com/svg/namespace">
    <labelrank>9</labelrank>
    <hasc>HN.LP</hasc>
    <alt-name>NULL</alt-name>
    <woe-id>2345634</woe-id>
    <subregion>NULL</subregion>
    <fips>HO12</fips>
    <postal-code>LP</postal-code>
    <name>La Paz</name>
    <country>Honduras</country>
    <type-en>Department</type-en>
    <region>NULL</region>
    <longitude>-87.9144</longitude>
    <woe-name>La Paz</woe-name>
    <latitude>14.138</latitude>
    <woe-label>La Paz, HN, Honduras</woe-label>
    <type>Departamento</type>
    <hc-middle-x>0.47</hc-middle-x>
    <hc-middle-y>0.66</hc-middle-y>
    <hc-key>hn-lp</hc-key>
    <hc-a2>LP</hc-a2>
  </desc>
</path>

<path fill="#CEE3F5" stroke="#6E6E6E" stroke-width="0.4" id="HN.SB" d="M155.0,194.1 L154.8,199.2 L150.9,199.9 L145.5,204.3 L144.6,207.3 L146.3,211.5 L144.9,213.9 L142.0,215.6 L135.0,214.5 L123.4,215.6 L114.7,214.9 L117.1,210.9 L117.0,206.0 L112.1,205.1 L109.7,201.3 L112.9,195.9 L107.6,194.5 L103.8,191.8 L98.7,196.6 L93.6,188.9 L91.2,182.4 L85.9,181.5 L81.1,183.2 L77.1,183.9 L74.7,180.2 L78.5,168.2 L81.2,165.9 L81.2,163.5 L79.1,158.7 L80.2,156.0 L77.5,154.5 L73.1,149.6 L73.4,146.4 L68.4,140.0 L97.8,117.6 L101.5,114.8 L107.9,112.6 L113.9,113.5 L124.4,116.9 L126.8,118.4 L126.7,123.7 L128.3,126.5 L134.8,131.0 L139.0,132.7 L139.8,143.9 L142.2,148.8 L146.7,151.2 L146.1,153.0 L141.5,157.9 L140.8,160.0 L143.0,163.5 L151.5,168.8 L150.1,170.3 L147.9,176.5 L147.4,183.2 L150.4,183.4 L153.9,186.7 Z">
  <desc xmlns="http://www.highcharts.com/svg/namespace">
    <labelrank>9</labelrank>
    <hasc>HN.SB</hasc>
    <alt-name>NULL</alt-name>
    <woe-id>2345638</woe-id>
    <subregion>NULL</subregion>
    <fips>HO16</fips>
    <postal-code>SB</postal-code>
    <name>Santa Bárbara</name>
    <country>Honduras</country>
    <type-en>Department</type-en>
    <region>NULL</region>
    <longitude>-88.33</longitude>
    <woe-name>Santa Bárbara</woe-name>
    <latitude>15.0527</latitude>
    <woe-label>Santa Bárbara, HN, Honduras</woe-label>
    <type>Departamento</type>
    <hc-middle-x>0.56</hc-middle-x>
    <hc-middle-y>0.53</hc-middle-y>
    <hc-key>hn-sb</hc-key>
    <hc-a2>SB</hc-a2>
  </desc>
</path>

<path fill="#CEE3F5" stroke="#6E6E6E" stroke-width="0.4" id="HN.CP" d="M24.6,207.7 L21.9,204.4 L19.8,199.3 L15.6,193.3 L15.2,189.5 L18.9,185.8 L22.3,179.8 L22.3,176.8 L20.1,174.7 L22.0,169.4 L25.6,165.5 L29.1,163.8 L40.5,160.1 L44.4,158.3 L68.4,140.0 L73.4,146.4 L73.1,149.6 L77.5,154.5 L80.2,156.0 L79.1,158.7 L81.2,163.5 L81.2,165.9 L78.5,168.2 L74.7,180.2 L77.1,183.9 L81.1,183.2 L81.2,189.9 L77.5,196.1 L77.4,199.3 L79.3,203.2 L79.7,206.6 L71.5,207.9 L64.3,207.7 L65.3,212.9 L68.7,216.2 L70.8,219.8 L71.1,226.8 L65.4,226.6 L60.6,228.3 L60.6,231.8 L57.7,232.0 L52.9,229.6 L49.5,225.2 L48.7,219.7 L41.6,214.2 L38.1,206.7 L31.4,205.7 Z">
  <desc xmlns="http://www.highcharts.com/svg/namespace">
    <labelrank>9</labelrank>
    <hasc>HN.CP</hasc>
    <alt-name>NULL</alt-name>
    <woe-id>2345627</woe-id>
    <subregion>NULL</subregion>
    <fips>HO05</fips>
    <postal-code>CP</postal-code>
    <name>Copán</name>
    <country>Honduras</country>
    <type-en>Department</type-en>
    <region>NULL</region>
    <longitude>-88.9362</longitude>
    <woe-name>Copán</woe-name>
    <latitude>14.8909</latitude>
    <woe-label>Copán, HN, Honduras</woe-label>
    <type>Departamento</type>
    <hc-middle-x>0.50</hc-middle-x>
    <hc-middle-y>0.51</hc-middle-y>
    <hc-key>hn-cp</hc-key>
    <hc-a2>CP</hc-a2>
  </desc>
</path>

<path fill="#CEE3F5" stroke="#6E6E6E" stroke-width="0.4" id="HN.LE" d="M114.7,214.9 L115.8,217.0 L117.0,224.3 L112.7,233.7 L109.6,235.4 L101.8,235.6 L96.8,238.5 L97.6,243.3 L102.1,248.4 L105.6,250.1 L106.8,255.9 L105.7,261.8 L109.4,263.9 L116.2,265.5 L117.0,276.4 L115.2,281.6 L110.7,284.6 L98.9,291.2 L97.0,293.8 L97.0,293.8 L95.1,291.7 L90.1,291.3 L81.6,288.5 L75.1,289.0 L73.1,285.6 L68.9,284.1 L69.8,278.6 L69.0,277.3 L65.5,278.6 L58.6,278.5 L56.2,271.7 L53.8,268.7 L49.3,266.9 L45.3,268.6 L43.8,265.7 L43.8,258.8 L43.1,255.1 L47.4,250.2 L52.9,248.4 L54.7,243.2 L59.1,245.4 L62.0,245.4 L60.6,243.5 L61.3,240.8 L64.4,241.7 L69.6,239.1 L72.8,229.2 L71.1,226.8 L70.8,219.8 L68.7,216.2 L65.3,212.9 L64.3,207.7 L71.5,207.9 L79.7,206.6 L79.3,203.2 L77.4,199.3 L77.5,196.1 L81.2,189.9 L81.1,183.2 L85.9,181.5 L91.2,182.4 L93.6,188.9 L98.7,196.6 L103.8,191.8 L107.6,194.5 L112.9,195.9 L109.7,201.3 L112.1,205.1 L117.0,206.0 L117.1,210.9 Z">
  <desc xmlns="http://www.highcharts.com/svg/namespace">
    <labelrank>7</labelrank>
    <hasc>HN.LE</hasc>
    <alt-name>Gracias</alt-name>
    <woe-id>2345635</woe-id>
    <subregion>NULL</subregion>
    <fips>HO13</fips>
    <postal-code>LE</postal-code>
    <name>Lempira</name>
    <country>Honduras</country>
    <type-en>Department</type-en>
    <region>NULL</region>
    <longitude>-88.6478</longitude>
    <woe-name>Lempira</woe-name>
    <latitude>14.4408</latitude>
    <woe-label>Lempira, HN, Honduras</woe-label>
    <type>Departamento</type>
    <hc-middle-x>0.57</hc-middle-x>
    <hc-middle-y>0.46</hc-middle-y>
    <hc-key>hn-le</hc-key>
    <hc-a2>LE</hc-a2>
  </desc>
</path>

<path fill="#CEE3F5" stroke="#6E6E6E" stroke-width="0.4" id="HN.OC" d="M71.1,226.8 L72.8,229.2 L69.6,239.1 L64.4,241.7 L61.3,240.8 L60.6,243.5 L62.0,245.4 L59.1,245.4 L54.7,243.2 L52.9,248.4 L47.4,250.2 L43.1,255.1 L43.8,258.8 L43.8,265.7 L41.3,260.7 L38.5,258.5 L36.9,252.5 L31.3,251.1 L28.6,244.1 L26.9,244.2 L23.3,249.2 L18.1,247.6 L15.3,245.6 L9.6,244.3 L6.1,242.6 L0.0,241.5 L0.8,234.6 L4.4,233.3 L6.5,230.3 L13.2,223.5 L16.0,222.7 L20.2,224.0 L22.8,222.6 L23.4,218.7 L23.0,212.8 L24.9,209.9 L24.6,207.7 L31.4,205.7 L38.1,206.7 L41.6,214.2 L48.7,219.7 L49.5,225.2 L52.9,229.6 L57.7,232.0 L60.6,231.8 L60.6,228.3 L65.4,226.6 Z">
  <desc xmlns="http://www.highcharts.com/svg/namespace">
    <labelrank>9</labelrank>
    <hasc>HN.OC</hasc>
    <alt-name>NULL</alt-name>
    <woe-id>2345636</woe-id>
    <subregion>NULL</subregion>
    <fips>HO14</fips>
    <postal-code>OC</postal-code>
    <name>Ocotepeque</name>
    <country>Honduras</country>
    <type-en>Department</type-en>
    <region>NULL</region>
    <longitude>-89.0399</longitude>
    <woe-name>Ocotepeque</woe-name>
    <latitude>14.5248</latitude>
    <woe-label>Ocotepeque, HN, Honduras</woe-label>
    <type>Departamento</type>
    <hc-middle-x>0.54</hc-middle-x>
    <hc-middle-y>0.47</hc-middle-y>
    <hc-key>hn-oc</hc-key>
    <hc-a2>OC</hc-a2>
  </desc>
</path>

<path fill="#CEE3F5" stroke="#6E6E6E" stroke-width="0.4" id="HN.CH" d="M222.9,360.8 L225.1,359.1 L226.2,353.9 L224.2,348.7 L224.5,346.3 L220.5,343.3 L217.8,337.2 L218.1,332.6 L213.6,328.9 L213.2,325.7 L214.4,318.9 L222.0,319.1 L221.4,323.0 L225.0,326.6 L229.6,326.0 L232.1,327.3 L235.9,326.8 L241.5,328.8 L240.4,333.7 L244.1,337.3 L244.9,340.9 L251.7,342.1 L253.6,346.1 L257.8,347.6 L261.2,345.6 L263.8,342.7 L264.5,340.0 L269.5,336.8 L272.7,332.5 L273.2,330.0 L278.4,331.0 L282.7,328.2 L287.2,327.6 L291.5,324.5 L291.2,330.7 L293.7,334.2 L293.1,341.7 L296.8,355.5 L295.2,360.5 L295.4,363.3 L297.6,364.5 L299.4,370.0 L298.2,373.3 L295.1,375.8 L292.9,375.7 L286.4,372.5 L281.2,373.9 L275.8,378.6 L274.0,381.3 L273.2,385.5 L274.3,387.6 L273.3,393.7 L274.7,395.1 L271.5,398.2 L267.6,403.7 L262.3,406.7 L261.7,408.6 L256.1,406.7 L230.1,408.3 L235.2,402.8 L229.8,402.3 L225.8,397.8 L226.0,396.0 L231.3,394.9 L224.8,393.1 L218.2,393.4 L217.9,388.9 L216.4,384.3 L210.9,375.0 L207.8,373.1 L208.9,371.1 L212.8,368.7 L215.9,364.8 L217.4,365.1 L222.9,363.3 Z">
  <desc xmlns="http://www.highcharts.com/svg/namespace">
    <labelrank>9</labelrank>
    <hasc>HN.CH</hasc>
    <alt-name>NULL</alt-name>
    <woe-id>2345624</woe-id>
    <subregion>NULL</subregion>
    <fips>HO02</fips>
    <postal-code>CH</postal-code>
    <name>Choluteca</name>
    <country>Honduras</country>
    <type-en>Department</type-en>
    <region>NULL</region>
    <longitude>-87.1074</longitude>
    <woe-name>Choluteca</woe-name>
    <latitude>13.2587</latitude>
    <woe-label>Choluteca, HN, Honduras</woe-label>
    <type>Departamento</type>
    <hc-middle-x>0.48</hc-middle-x>
    <hc-middle-y>0.57</hc-middle-y>
    <hc-key>hn-ch</hc-key>
    <hc-a2>CH</hc-a2>
  </desc>
</path>

<path fill="#CEE3F5" stroke="#6E6E6E" stroke-width="0.4" id="HN.EP" d="M241.5,328.8 L245.1,327.6 L251.0,330.1 L253.1,322.7 L251.2,319.5 L250.8,315.0 L252.0,312.7 L256.2,315.8 L261.7,316.8 L264.1,313.9 L266.2,308.6 L266.9,294.9 L270.8,295.7 L275.1,290.9 L275.0,284.4 L271.0,281.6 L267.4,275.6 L269.8,274.6 L275.6,274.6 L276.7,272.3 L274.6,270.7 L277.3,264.3 L282.8,259.5 L284.9,255.7 L285.7,251.9 L289.4,248.3 L297.8,241.9 L302.6,243.9 L307.2,243.7 L309.8,246.8 L319.3,248.7 L322.0,251.2 L326.7,253.5 L330.0,257.2 L338.3,257.7 L344.6,254.2 L352.0,251.3 L357.4,252.2 L362.2,259.6 L369.2,261.4 L370.7,259.3 L376.0,261.2 L380.2,269.3 L384.5,271.3 L388.1,275.2 L392.1,274.1 L392.8,271.4 L395.7,269.5 L400.4,271.2 L403.1,270.8 L405.6,267.6 L415.2,270.0 L418.0,269.2 L421.6,273.4 L422.7,279.2 L426.1,281.7 L427.5,285.5 L424.1,286.5 L422.0,289.3 L418.0,290.5 L412.3,294.9 L409.1,294.5 L406.9,303.4 L409.0,304.9 L409.4,308.0 L407.5,310.8 L405.7,309.0 L398.2,308.1 L394.0,301.6 L391.5,300.5 L387.9,301.3 L383.1,296.8 L375.1,291.1 L374.8,288.0 L376.0,284.3 L367.4,285.6 L364.6,287.5 L361.5,292.5 L357.6,294.5 L353.7,300.6 L346.4,308.5 L344.6,311.4 L343.1,316.5 L338.0,319.3 L332.2,319.7 L327.9,317.0 L323.1,318.5 L317.4,315.9 L312.9,316.2 L303.7,318.0 L296.4,317.6 L292.0,320.2 L291.5,324.5 L287.2,327.6 L282.7,328.2 L278.4,331.0 L273.2,330.0 L272.7,332.5 L269.5,336.8 L264.5,340.0 L263.8,342.7 L261.2,345.6 L257.8,347.6 L253.6,346.1 L251.7,342.1 L244.9,340.9 L244.1,337.3 L240.4,333.7 Z">
  <desc xmlns="http://www.highcharts.com/svg/namespace">
    <labelrank>7</labelrank>
    <hasc>HN.EP</hasc>
    <alt-name>Paraiso</alt-name>
    <woe-id>2345629</woe-id>
    <subregion>NULL</subregion>
    <fips>HO07</fips>
    <postal-code>EP</postal-code>
    <name>El Paraíso</name>
    <country>Honduras</country>
    <type-en>Department</type-en>
    <region>NULL</region>
    <longitude>-86.5592</longitude>
    <woe-name>El Paraíso</woe-name>
    <latitude>14.037</latitude>
    <woe-label>El Paraíso, HN, Honduras</woe-label>
    <type>Departamento</type>
    <hc-middle-x>0.42</hc-middle-x>
    <hc-middle-y>0.38</hc-middle-y>
    <hc-key>hn-ep</hc-key>
    <hc-a2>EP</hc-a2>
  </desc>
</path>
</g>

<text x="350" y="714" text-anchor="middle" font-family="Verdana" font-size="8" stroke-opacity="0.6">Copyright (c) 2014 Highsoft AS, Based on data from Natural Earth</text>

</svg>