<?xml version="1.0" encoding="utf-8" standalone="no"?>
<!DOCTYPE svg PUBLIC "-//W3C//DTD SVG 1.1//EN" "http://www.w3.org/Graphics/SVG/1.1/DTD/svg11.dtd">

<svg version="1.1" height="700pt" width="700pt" xmlns="http://www.w3.org/2000/svg" xmlns:xlink="http://www.w3.org/1999/xlink">
<desc>
Map version: 1.1.1
Copyright (c) 2014 Highsoft AS, Based on data from GeoBasis-DE / BKG 2014
</desc>
<title>Berlin</title>
<g id="admin3">

<g id="DE">
  <desc xmlns="http://www.highcharts.com/svg/namespace">
    <name>Germany</name>
    <labelrank>2</labelrank>
    <country-abbrev>Ger.</country-abbrev>
    <subregion>Western Europe</subregion>
    <woe-id>23424829</woe-id>
    <region-wb>Europe &amp; Central Asia</region-wb>
    <iso-a3>DEU</iso-a3>
    <iso-a2>DE</iso-a2>
    <region-un>Europe</region-un>
    <continent>Europe</continent>
    <hc-key>de</hc-key>
    <hc-a2>GE</hc-a2>
  </desc>
</g>

<g id="DE.BE.11000000">
  <desc xmlns="http://www.highcharts.com/svg/namespace">
    <name>Berlin</name>
    <bundesland>DE.BE</bundesland>
    <hc-key>de-be-11000000</hc-key>
    <hc-a2>BE</hc-a2>
  </desc>
</g>

<g id="DE.BE">
  <desc xmlns="http://www.highcharts.com/svg/namespace">
    <labelrank>9</labelrank>
    <hasc>DE.BE</hasc>
    <alt-name>NULL</alt-name>
    <woe-id>2345496</woe-id>
    <subregion>NULL</subregion>
    <fips>GM16</fips>
    <postal-code>BE</postal-code>
    <name>Berlin</name>
    <country>Germany</country>
    <type-en>State</type-en>
    <region>NULL</region>
    <longitude>13.4213</longitude>
    <woe-name>Berlin</woe-name>
    <latitude>52.5131</latitude>
    <woe-label>Berlin, DE, Germany</woe-label>
    <type>Land</type>
    <hc-key>de-be</hc-key>
    <hc-a2>BE</hc-a2>
  </desc>
</g>

<path fill="#CEE3F5" stroke="#6E6E6E" stroke-width="0.4" id="DE.BE.11000000.11000000" d="M603.4,342.6 L615.7,350.8 L619.7,356.2 L634.5,359.6 L636.2,375.1 L642.5,376.5 L643.7,370.5 L642.1,359.5 L637.7,354.9 L639.2,352.8 L651.9,362.9 L655.0,363.0 L659.4,372.5 L668.2,382.7 L674.1,382.4 L678.4,385.4 L693.3,387.8 L694.3,395.4 L699.4,396.4 L698.0,402.8 L700.0,407.1 L692.4,405.8 L694.4,398.0 L690.5,398.3 L683.8,404.1 L682.8,411.0 L677.5,410.8 L679.0,417.8 L681.7,418.4 L680.2,424.1 L677.4,423.2 L670.6,433.7 L668.5,440.8 L673.3,450.6 L677.9,456.1 L674.6,458.8 L674.0,465.7 L670.3,469.1 L662.3,471.5 L655.1,469.9 L640.5,482.7 L635.2,485.8 L628.8,493.2 L623.9,496.6 L632.6,501.5 L636.5,500.5 L634.7,507.4 L638.5,506.7 L638.0,511.5 L629.2,524.2 L626.3,525.2 L616.0,521.8 L607.5,526.9 L603.0,535.0 L602.4,540.1 L598.2,546.9 L593.1,551.7 L592.0,558.2 L586.9,566.9 L587.6,572.4 L584.1,574.5 L578.1,571.4 L573.2,564.9 L573.7,538.2 L576.4,532.4 L581.5,528.4 L582.5,520.0 L577.1,518.7 L578.9,507.7 L568.4,509.6 L562.8,500.2 L540.9,511.8 L540.2,503.8 L536.5,497.7 L528.6,491.6 L526.0,479.1 L520.6,482.1 L497.0,489.1 L466.5,487.8 L465.9,480.1 L469.3,467.9 L458.8,471.8 L451.7,466.5 L445.1,466.6 L423.1,471.4 L408.3,475.8 L405.9,463.7 L396.3,435.8 L390.0,433.7 L358.1,447.4 L344.6,451.9 L344.2,456.6 L353.7,491.3 L346.7,509.3 L312.8,506.3 L311.5,488.2 L294.0,488.3 L295.8,479.2 L282.4,471.3 L265.5,455.4 L265.8,448.7 L233.1,469.2 L219.2,447.8 L216.7,440.3 L194.7,459.2 L185.4,460.2 L179.3,457.4 L173.5,457.1 L168.3,459.6 L167.4,447.7 L164.2,432.6 L139.7,433.2 L121.8,440.8 L111.8,442.0 L73.9,462.6 L72.2,473.7 L86.3,471.4 L86.5,474.7 L80.6,477.4 L73.3,477.9 L59.8,475.3 L56.3,473.3 L45.4,485.4 L46.8,489.7 L40.1,485.6 L40.5,481.7 L45.6,482.0 L51.6,475.3 L46.8,468.3 L40.2,473.2 L37.8,472.6 L30.2,463.7 L24.8,460.6 L20.3,451.0 L25.2,450.1 L24.2,444.8 L18.2,445.7 L15.4,449.7 L12.9,445.8 L9.2,445.9 L9.2,451.1 L2.3,446.9 L0.0,433.6 L7.5,429.9 L10.9,424.4 L17.0,426.1 L25.4,417.4 L24.8,412.1 L36.6,400.1 L32.3,392.2 L22.2,380.8 L25.0,374.9 L25.8,366.2 L24.0,364.0 L24.0,354.5 L27.1,350.6 L31.1,341.0 L31.4,332.6 L39.3,330.5 L63.0,300.4 L82.5,279.7 L62.8,267.5 L58.2,263.3 L41.3,266.8 L31.5,267.7 L34.1,243.7 L38.7,230.1 L39.8,222.0 L45.7,200.6 L51.6,206.8 L59.4,208.0 L62.9,203.5 L61.7,194.4 L63.8,185.8 L69.1,172.8 L69.2,163.3 L65.7,154.8 L55.5,159.4 L47.5,160.8 L45.8,155.0 L43.4,155.0 L44.4,147.6 L54.8,146.2 L65.1,140.9 L73.7,130.5 L81.1,128.3 L91.0,134.5 L101.5,137.5 L110.0,143.7 L118.0,145.6 L125.0,149.3 L125.8,146.4 L136.2,148.2 L136.7,138.3 L127.3,129.0 L120.5,119.0 L120.4,114.6 L125.5,111.2 L134.2,93.4 L136.1,92.4 L140.0,78.7 L150.1,80.1 L163.8,79.0 L166.8,80.4 L178.1,79.6 L185.3,81.1 L186.3,68.3 L183.2,57.5 L189.6,59.1 L204.2,56.7 L205.4,37.3 L203.3,37.1 L204.9,23.4 L217.0,26.2 L230.4,26.1 L233.0,29.4 L222.9,36.0 L231.0,52.2 L230.6,63.1 L225.6,64.7 L230.1,71.5 L231.0,76.6 L224.9,80.2 L236.0,78.8 L252.3,83.9 L260.2,88.7 L268.2,87.4 L268.6,85.1 L275.2,85.3 L276.7,87.6 L283.6,87.3 L298.5,79.5 L299.8,73.9 L308.7,65.6 L314.5,63.4 L316.2,55.5 L319.5,48.8 L324.7,45.4 L333.5,55.3 L339.5,53.3 L344.0,59.9 L351.5,66.9 L355.6,63.4 L361.3,62.9 L361.6,52.2 L367.6,50.4 L368.7,43.9 L374.9,42.2 L382.9,42.4 L382.2,44.8 L388.4,45.7 L402.6,35.6 L403.0,31.2 L391.0,29.7 L383.5,22.9 L379.1,20.7 L388.1,10.2 L394.8,13.2 L404.6,0.0 L408.1,2.5 L404.8,9.1 L404.8,14.7 L417.9,7.5 L414.8,26.9 L420.5,34.5 L435.6,43.8 L443.3,50.1 L449.6,46.9 L454.0,50.4 L452.9,61.4 L448.3,77.3 L436.0,83.8 L435.5,94.5 L433.3,95.8 L428.4,109.6 L426.5,119.2 L428.8,119.0 L438.3,141.2 L453.1,140.1 L458.2,141.2 L478.8,148.6 L492.0,159.0 L500.0,172.7 L508.3,172.7 L510.9,177.3 L514.5,177.6 L517.3,195.3 L520.3,202.0 L520.5,209.1 L518.5,215.8 L553.3,225.3 L570.5,227.5 L566.9,233.5 L561.5,234.1 L560.6,247.1 L566.3,246.1 L592.9,247.6 L594.6,254.5 L579.5,265.5 L568.4,278.4 L564.2,287.8 L559.4,306.8 L565.7,308.6 L549.3,331.2 L547.8,339.9 L550.7,341.4 L545.6,348.6 L555.6,349.0 L555.6,352.2 L560.2,352.5 L560.5,343.4 L563.7,343.7 L570.0,339.8 L576.0,333.5 L583.9,334.7 L590.8,338.0 L596.2,342.7 Z">
  <desc xmlns="http://www.highcharts.com/svg/namespace">
    <name>Berlin</name>
    <hc-middle-x>0.48</hc-middle-x>
    <hc-middle-y>0.50</hc-middle-y>
    <hc-key>de-be-11000000-11000000</hc-key>
    <hc-a2>BE</hc-a2>
  </desc>
</path>
</g>

<g id="__border_lines__">
<path fill="none" stroke="#551111" stroke-width="0.4" id="__de-be-all-all_border_lines__" d="M603.4,342.6 L615.7,350.8 L619.7,356.2 L634.5,359.6 L636.2,375.1 L642.5,376.5 L643.7,370.5 L642.1,359.5 L637.7,354.9 L639.2,352.8 L651.9,362.9 L655.0,363.0 L659.4,372.5 L668.2,382.7 L674.1,382.4 L678.4,385.4 L693.3,387.8 L694.3,395.4 L699.4,396.4 L698.0,402.8 L700.0,407.1 L692.4,405.8 L694.4,398.0 L690.5,398.3 L683.8,404.1 L682.8,411.0 L677.5,410.8 L679.0,417.8 L681.7,418.4 L680.2,424.1 L677.4,423.2 L670.6,433.7 L668.5,440.8 L673.3,450.6 L677.9,456.1 L674.6,458.8 L674.0,465.7 L670.3,469.1 L662.3,471.5 L655.1,469.9 L640.5,482.7 L635.2,485.8 L628.8,493.2 L623.9,496.6 L632.6,501.5 L636.5,500.5 L634.7,507.4 L638.5,506.7 L638.0,511.5 L629.2,524.2 L626.3,525.2 L616.0,521.8 L607.5,526.9 L603.0,535.0 L602.4,540.1 L598.2,546.9 L593.1,551.7 L592.0,558.2 L586.9,566.9 L587.6,572.4 L584.1,574.5 L578.1,571.4 L573.2,564.9 L573.7,538.2 L576.4,532.4 L581.5,528.4 L582.5,520.0 L577.1,518.7 L578.9,507.7 L568.4,509.6 L562.8,500.2 L540.9,511.8 L540.2,503.8 L536.5,497.7 L528.6,491.6 L526.0,479.1 L520.6,482.1 L497.0,489.1 L466.5,487.8 L465.9,480.1 L469.3,467.9 L458.8,471.8 L451.7,466.5 L445.1,466.6 L423.1,471.4 L408.3,475.8 L405.9,463.7 L396.3,435.8 L390.0,433.7 L358.1,447.4 L344.6,451.9 L344.2,456.6 L353.7,491.3 L346.7,509.3 L312.8,506.3 L311.5,488.2 L294.0,488.3 L295.8,479.2 L282.4,471.3 L265.5,455.4 L265.8,448.7 L233.1,469.2 L219.2,447.8 L216.7,440.3 L194.7,459.2 L185.4,460.2 L179.3,457.4 L173.5,457.1 L168.3,459.6 L167.4,447.7 L164.2,432.6 L139.7,433.2 L121.8,440.8 L111.8,442.0 L73.9,462.6 L72.2,473.7 L86.3,471.4 L86.5,474.7 L80.6,477.4 L73.3,477.9 L59.8,475.3 L56.3,473.3 L45.4,485.4 L46.8,489.7 L40.1,485.6 L40.5,481.7 L45.6,482.0 L51.6,475.3 L46.8,468.3 L40.2,473.2 L37.8,472.6 L30.2,463.7 L24.8,460.6 L20.3,451.0 L25.2,450.1 L24.2,444.8 L18.2,445.7 L15.4,449.7 L12.9,445.8 L9.2,445.9 L9.2,451.1 L2.3,446.9 L0.0,433.6 L7.5,429.9 L10.9,424.4 L17.0,426.1 L25.4,417.4 L24.8,412.1 L36.6,400.1 L32.3,392.2 L22.2,380.8 L25.0,374.9 L25.8,366.2 L24.0,364.0 L24.0,354.5 L27.1,350.6 L31.1,341.0 L31.4,332.6 L39.3,330.5 L63.0,300.4 L82.5,279.7 L62.8,267.5 L58.2,263.3 L41.3,266.8 L31.5,267.7 L34.1,243.7 L38.7,230.1 L39.8,222.0 L45.7,200.6 L51.6,206.8 L59.4,208.0 L62.9,203.5 L61.7,194.4 L63.8,185.8 L69.1,172.8 L69.2,163.3 L65.7,154.8 L55.5,159.4 L47.5,160.8 L45.8,155.0 L43.4,155.0 L44.4,147.6 L54.8,146.2 L65.1,140.9 L73.7,130.5 L81.1,128.3 L91.0,134.5 L101.5,137.5 L110.0,143.7 L118.0,145.6 L125.0,149.3 L125.8,146.4 L136.2,148.2 L136.7,138.3 L127.3,129.0 L120.5,119.0 L120.4,114.6 L125.5,111.2 L134.2,93.4 L136.1,92.4 L140.0,78.7 L150.1,80.1 L163.8,79.0 L166.8,80.4 L178.1,79.6 L185.3,81.1 L186.3,68.3 L183.2,57.5 L189.6,59.1 L204.2,56.7 L205.4,37.3 L203.3,37.1 L204.9,23.4 L217.0,26.2 L230.4,26.1 L233.0,29.4 L222.9,36.0 L231.0,52.2 L230.6,63.1 L225.6,64.7 L230.1,71.5 L231.0,76.6 L224.9,80.2 L236.0,78.8 L252.3,83.9 L260.2,88.7 L268.2,87.4 L268.6,85.1 L275.2,85.3 L276.7,87.6 L283.6,87.3 L298.5,79.5 L299.8,73.9 L308.7,65.6 L314.5,63.4 L316.2,55.5 L319.5,48.8 L324.7,45.4 L333.5,55.3 L339.5,53.3 L344.0,59.9 L351.5,66.9 L355.6,63.4 L361.3,62.9 L361.6,52.2 L367.6,50.4 L368.7,43.9 L374.9,42.2 L382.9,42.4 L382.2,44.8 L388.4,45.7 L402.6,35.6 L403.0,31.2 L391.0,29.7 L383.5,22.9 L379.1,20.7 L388.1,10.2 L394.8,13.2 L404.6,0.0 L408.1,2.5 L404.8,9.1 L404.8,14.7 L417.9,7.5 L414.8,26.9 L420.5,34.5 L435.6,43.8 L443.3,50.1 L449.6,46.9 L454.0,50.4 L452.9,61.4 L448.3,77.3 L436.0,83.8 L435.5,94.5 L433.3,95.8 L428.4,109.6 L426.5,119.2 L428.8,119.0 L438.3,141.2 L453.1,140.1 L458.2,141.2 L478.8,148.6 L492.0,159.0 L500.0,172.7 L508.3,172.7 L510.9,177.3 L514.5,177.6 L517.3,195.3 L520.3,202.0 L520.5,209.1 L518.5,215.8 L553.3,225.3 L570.5,227.5 L566.9,233.5 L561.5,234.1 L560.6,247.1 L566.3,246.1 L592.9,247.6 L594.6,254.5 L579.5,265.5 L568.4,278.4 L564.2,287.8 L559.4,306.8 L565.7,308.6 L549.3,331.2 L547.8,339.9 L550.7,341.4 L545.6,348.6 L555.6,349.0 L555.6,352.2 L560.2,352.5 L560.5,343.4 L563.7,343.7 L570.0,339.8 L576.0,333.5 L583.9,334.7 L590.8,338.0 L596.2,342.7 Z" />
</g>
<text x="350" y="714" text-anchor="middle" font-family="Verdana" font-size="8" stroke-opacity="0.6">Copyright (c) 2014 Highsoft AS, Based on data from GeoBasis-DE / BKG 2014</text>

</svg>