<?xml version="1.0" encoding="utf-8" standalone="no"?>
<!DOCTYPE svg PUBLIC "-//W3C//DTD SVG 1.1//EN" "http://www.w3.org/Graphics/SVG/1.1/DTD/svg11.dtd">

<svg version="1.1" height="700pt" width="700pt" xmlns="http://www.w3.org/2000/svg" xmlns:xlink="http://www.w3.org/1999/xlink">
<desc>
Map version: 1.1.1
Copyright (c) 2014 Highsoft AS, Based on data from GeoBasis-DE / BKG 2014
</desc>
<title>Brandenburg</title>
<g id="admin2">

<g id="DE.BB">
  <desc xmlns="http://www.highcharts.com/svg/namespace">
    <labelrank>3</labelrank>
    <hasc>DE.BB</hasc>
    <alt-name>NULL</alt-name>
    <woe-id>2345491</woe-id>
    <subregion>NULL</subregion>
    <fips>GM11</fips>
    <postal-code>BB</postal-code>
    <name>Brandenburg</name>
    <country>Germany</country>
    <type-en>State</type-en>
    <region>NULL</region>
    <longitude>12.9206</longitude>
    <woe-name>Brandenburg</woe-name>
    <latitude>52.8156</latitude>
    <woe-label>Brandenburg, DE, Germany</woe-label>
    <type>Land</type>
    <hc-key>de-bb</hc-key>
    <hc-a2>BR</hc-a2>
  </desc>
</g>

<g id="DE">
  <desc xmlns="http://www.highcharts.com/svg/namespace">
    <name>Germany</name>
    <labelrank>2</labelrank>
    <country-abbrev>Ger.</country-abbrev>
    <subregion>Western Europe</subregion>
    <woe-id>23424829</woe-id>
    <region-wb>Europe &amp; Central Asia</region-wb>
    <iso-a3>DEU</iso-a3>
    <iso-a2>DE</iso-a2>
    <region-un>Europe</region-un>
    <continent>Europe</continent>
    <hc-key>de</hc-key>
    <hc-a2>GE</hc-a2>
  </desc>
</g>

<path fill="#CEE3F5" stroke="#6E6E6E" stroke-width="0.4" id="DE.BB.12052000" d="M593.2,550.0 L593.4,554.6 L595.9,555.3 L598.8,561.6 L603.3,560.9 L606.8,557.0 L608.6,561.3 L616.1,559.9 L615.2,562.2 L617.6,568.8 L614.7,568.4 L609.8,572.6 L607.2,578.7 L600.7,576.3 L595.9,576.6 L596.5,580.2 L601.3,584.1 L607.4,586.9 L605.9,592.7 L598.1,592.8 L594.3,589.4 L592.5,594.7 L584.1,594.9 L578.0,592.8 L579.7,586.1 L574.8,584.6 L572.9,581.4 L574.8,577.2 L572.8,572.1 L575.3,570.9 L572.8,560.5 L577.8,558.7 L580.3,554.8 L577.4,546.8 L578.8,541.2 L582.3,541.7 L584.8,545.7 L593.3,544.3 L596.4,545.0 Z">
  <desc xmlns="http://www.highcharts.com/svg/namespace">
    <name>Cottbus</name>
    <bundesland>DE.BB</bundesland>
    <hc-middle-x>0.31</hc-middle-x>
    <hc-middle-y>0.52</hc-middle-y>
    <hc-key>de-bb-12052000</hc-key>
    <hc-a2>CO</hc-a2>
  </desc>
</path>

<path fill="#CEE3F5" stroke="#6E6E6E" stroke-width="0.4" id="DE.BB.12062000" d="M455.1,695.7 L453.4,697.8 L450.5,695.0 L449.1,697.2 L435.7,696.9 L434.9,692.1 L431.0,691.6 L425.4,696.7 L424.5,692.9 L421.6,692.9 L421.3,686.2 L409.9,682.8 L410.4,679.7 L406.5,676.5 L402.9,677.2 L398.0,669.1 L395.2,671.0 L392.7,678.4 L389.1,675.3 L383.1,677.5 L374.4,682.4 L374.5,686.0 L369.3,685.5 L370.8,690.6 L366.8,687.4 L360.7,687.0 L358.1,681.0 L358.2,676.0 L352.6,674.8 L356.0,673.6 L358.6,667.3 L354.7,663.3 L355.4,657.7 L359.5,652.0 L359.8,645.8 L356.4,640.8 L355.7,634.9 L350.7,634.5 L346.9,630.5 L351.2,623.9 L347.7,622.0 L343.3,615.2 L337.8,619.2 L329.7,605.7 L350.5,593.8 L352.1,592.2 L350.7,586.1 L352.9,584.0 L357.2,584.7 L355.9,579.9 L351.0,575.3 L352.3,572.1 L349.8,568.3 L352.5,565.1 L353.1,557.1 L346.0,541.3 L345.8,539.1 L351.2,538.6 L353.6,538.3 L353.7,531.0 L357.9,530.3 L361.5,533.5 L367.0,533.1 L365.0,539.8 L366.3,546.0 L370.1,551.0 L376.2,550.0 L381.0,552.4 L382.5,548.6 L388.8,549.6 L391.2,548.2 L398.3,553.3 L404.1,552.5 L404.5,555.2 L408.7,556.6 L412.5,561.2 L421.1,561.8 L423.5,565.0 L425.0,571.4 L429.2,576.7 L435.0,573.5 L440.9,578.5 L451.3,576.6 L451.9,581.2 L457.8,583.2 L458.0,578.7 L464.8,573.0 L469.6,574.8 L473.9,573.1 L475.2,581.0 L478.3,580.4 L480.3,593.8 L483.7,593.8 L485.5,602.5 L491.0,605.4 L495.4,609.6 L495.8,618.6 L491.1,627.2 L493.8,631.7 L492.8,635.0 L487.7,636.0 L477.0,644.0 L471.1,645.4 L470.2,642.4 L464.5,644.3 L463.1,648.3 L455.5,648.8 L454.8,646.4 L448.6,646.2 L449.3,653.5 L444.5,654.0 L453.6,659.3 L456.0,662.1 L456.0,667.6 L459.2,668.6 L461.6,677.2 L460.2,682.2 L456.9,679.3 L456.1,684.3 L457.2,693.0 Z">
  <desc xmlns="http://www.highcharts.com/svg/namespace">
    <name>Elbe-Elster</name>
    <bundesland>DE.BB</bundesland>
    <hc-middle-x>0.49</hc-middle-x>
    <hc-middle-y>0.60</hc-middle-y>
    <hc-key>de-bb-12062000</hc-key>
    <hc-a2>EE</hc-a2>
  </desc>
</path>

<path fill="#CEE3F5" stroke="#6E6E6E" stroke-width="0.4" id="DE.BB.12053000" d="M625.4,372.3 L628.6,378.2 L630.4,392.8 L633.1,395.3 L635.1,401.0 L633.3,406.3 L638.1,411.6 L631.7,410.2 L628.8,414.5 L618.8,414.4 L616.8,417.6 L612.0,410.1 L597.8,412.3 L599.7,404.3 L598.5,399.9 L606.2,388.8 L600.6,385.2 L603.8,378.8 L605.1,372.5 L614.2,371.3 L620.8,373.3 Z">
  <desc xmlns="http://www.highcharts.com/svg/namespace">
    <name>Frankfurt (Oder)</name>
    <bundesland>DE.BB</bundesland>
    <hc-middle-x>0.54</hc-middle-x>
    <hc-middle-y>0.46</hc-middle-y>
    <hc-key>de-bb-12053000</hc-key>
    <hc-a2>F(</hc-a2>
  </desc>
</path>

<path fill="#CEE3F5" stroke="#6E6E6E" stroke-width="0.4" id="DE.BB.12072000" d="M421.1,561.8 L412.5,561.2 L408.7,556.6 L404.5,555.2 L404.1,552.5 L398.3,553.3 L391.2,548.2 L388.8,549.6 L382.5,548.6 L381.0,552.4 L376.2,550.0 L370.1,551.0 L366.3,546.0 L365.0,539.8 L367.0,533.1 L361.5,533.5 L357.9,530.3 L353.7,531.0 L353.6,538.3 L351.2,538.6 L351.1,534.6 L347.7,531.2 L338.3,533.7 L337.4,535.8 L329.3,534.5 L327.4,531.2 L330.7,525.1 L318.9,523.6 L316.4,524.5 L317.3,518.5 L313.3,517.5 L314.3,513.6 L306.0,512.0 L305.8,514.1 L300.4,515.3 L300.0,513.3 L293.1,513.0 L291.7,502.5 L281.7,503.9 L278.2,502.9 L277.2,498.4 L292.0,493.0 L294.1,486.0 L298.5,486.2 L304.2,481.2 L311.4,482.0 L317.9,485.4 L314.7,479.4 L315.4,472.3 L320.9,463.2 L322.6,463.2 L318.8,456.9 L319.5,453.7 L314.4,447.3 L323.6,443.8 L340.8,430.7 L346.8,418.1 L345.4,416.0 L348.1,411.7 L355.3,408.0 L357.0,405.6 L354.4,399.8 L359.8,397.7 L357.7,392.6 L364.9,389.2 L369.0,391.0 L374.7,388.7 L374.8,382.7 L378.6,381.5 L385.7,373.0 L387.0,367.3 L393.1,364.8 L401.6,371.1 L401.8,374.5 L408.1,375.2 L408.1,378.8 L412.1,379.5 L412.0,382.8 L415.7,386.7 L423.1,388.1 L419.9,392.6 L422.6,397.5 L419.6,404.2 L424.4,405.7 L425.1,410.4 L413.2,413.7 L414.9,418.8 L421.2,421.0 L422.8,418.8 L430.0,418.8 L433.0,421.0 L437.3,428.6 L438.2,433.7 L431.3,434.1 L431.5,457.9 L429.7,464.6 L436.8,467.0 L446.8,473.2 L451.4,480.7 L448.2,484.8 L449.2,492.8 L445.2,492.6 L432.9,496.1 L426.1,499.6 L419.2,506.4 L407.3,502.5 L404.1,502.7 L404.6,513.8 L403.3,517.4 L406.9,519.1 L417.0,516.8 L418.9,518.5 L424.4,517.8 L430.6,520.8 L429.5,525.7 L436.4,530.4 L428.6,534.3 L429.9,548.0 L427.1,551.3 L430.8,552.7 L433.4,556.2 Z">
  <desc xmlns="http://www.highcharts.com/svg/namespace">
    <name>Teltow-Fläming</name>
    <bundesland>DE.BB</bundesland>
    <hc-middle-x>0.55</hc-middle-x>
    <hc-middle-y>0.63</hc-middle-y>
    <hc-key>de-bb-12072000</hc-key>
    <hc-a2>TF</hc-a2>
  </desc>
</path>

<path fill="#CEE3F5" stroke="#6E6E6E" stroke-width="0.4" id="DE.BB.12063000" d="M359.8,303.0 L352.9,306.5 L356.8,307.9 L357.4,311.3 L355.5,317.8 L352.9,316.4 L350.0,328.9 L355.0,328.2 L359.5,331.3 L357.0,333.9 L354.1,333.6 L350.6,337.2 L346.1,336.1 L345.4,343.7 L340.2,346.4 L335.6,343.9 L332.6,339.9 L327.9,329.0 L326.3,330.5 L314.4,333.4 L310.7,341.4 L306.4,343.3 L306.0,345.6 L305.5,349.0 L291.2,341.2 L290.4,343.6 L283.7,344.5 L280.6,343.4 L277.1,345.5 L276.7,339.4 L280.1,338.3 L275.4,332.8 L278.5,329.2 L272.1,324.1 L272.5,320.0 L272.5,320.0 L272.5,320.0 L272.5,320.0 L272.5,319.7 L273.7,319.4 L267.3,315.9 L263.7,320.0 L259.6,318.2 L251.6,319.7 L244.8,322.6 L239.3,321.1 L237.3,318.7 L230.3,318.8 L226.7,313.9 L216.5,313.0 L216.5,317.6 L212.1,317.7 L215.9,321.2 L215.8,326.6 L212.8,337.8 L219.7,337.0 L215.3,343.5 L211.0,343.7 L208.5,346.5 L202.1,347.9 L195.6,348.7 L193.7,344.0 L196.6,336.3 L193.8,337.4 L193.3,332.6 L190.5,330.5 L185.2,333.0 L183.5,330.4 L182.6,322.9 L178.7,321.2 L175.6,328.5 L168.4,329.7 L165.2,323.5 L169.6,318.1 L166.8,316.0 L160.5,319.1 L164.5,308.4 L168.7,304.4 L167.3,302.1 L167.5,288.2 L173.6,290.7 L179.0,287.4 L181.2,274.1 L177.2,265.6 L178.5,264.2 L173.8,258.1 L178.9,252.3 L175.8,245.4 L177.6,244.5 L179.5,237.0 L184.5,235.9 L188.6,233.1 L201.9,235.0 L209.5,232.5 L213.3,233.5 L214.6,238.9 L209.6,243.7 L212.5,243.2 L213.9,249.0 L225.0,248.7 L230.2,247.4 L239.0,250.8 L241.5,250.4 L242.9,244.5 L239.5,241.3 L239.5,237.6 L242.5,232.0 L249.1,232.9 L252.8,235.4 L254.4,239.0 L261.2,235.4 L261.2,238.3 L265.7,241.8 L266.1,245.8 L275.3,250.5 L275.5,254.5 L272.5,259.1 L276.3,261.2 L278.6,267.4 L283.5,270.3 L296.2,274.4 L295.6,270.6 L303.2,267.9 L304.1,266.3 L314.2,263.4 L315.3,261.6 L321.9,263.3 L324.5,266.4 L322.9,269.5 L327.1,272.3 L333.1,273.5 L331.2,279.3 L337.7,280.2 L345.5,277.0 L349.9,291.4 L358.5,293.6 L359.0,297.2 L356.7,300.0 Z">
  <desc xmlns="http://www.highcharts.com/svg/namespace">
    <name>Havelland</name>
    <bundesland>DE.BB</bundesland>
    <hc-middle-x>0.41</hc-middle-x>
    <hc-middle-y>0.47</hc-middle-y>
    <hc-key>de-bb-12063000</hc-key>
    <hc-a2>HA</hc-a2>
  </desc>
</path>

<path fill="#CEE3F5" stroke="#6E6E6E" stroke-width="0.4" id="DE.BB.12060000" d="M551.3,191.0 L550.4,194.0 L553.6,212.0 L548.4,213.9 L547.5,209.5 L541.9,209.6 L539.2,213.3 L538.7,210.2 L534.9,214.8 L535.1,220.2 L538.8,218.9 L542.0,220.5 L541.5,224.4 L532.5,224.8 L527.3,227.1 L523.1,224.6 L519.0,228.3 L518.3,234.0 L511.6,234.1 L511.5,239.6 L508.1,243.6 L504.3,245.1 L496.5,245.7 L499.0,248.3 L496.4,250.2 L496.0,254.8 L483.9,259.2 L482.6,257.6 L470.7,262.4 L474.5,265.5 L479.8,283.9 L493.4,275.6 L492.2,290.9 L489.0,297.6 L487.2,296.4 L479.9,297.7 L469.6,301.1 L469.3,304.5 L466.3,305.6 L466.6,309.0 L463.8,308.0 L460.8,314.3 L455.5,316.3 L455.6,314.4 L447.2,317.0 L446.2,322.4 L441.3,320.9 L440.6,313.8 L434.1,308.2 L426.5,306.7 L424.4,302.5 L426.3,296.0 L428.6,294.8 L429.8,289.8 L422.5,285.3 L423.2,281.6 L420.7,280.2 L415.9,284.0 L420.2,286.8 L413.9,288.3 L410.6,292.5 L405.6,288.4 L408.7,282.0 L406.9,280.1 L408.0,272.9 L407.2,268.8 L410.4,269.3 L407.8,264.9 L411.2,260.8 L407.8,259.6 L409.5,255.6 L408.1,246.2 L412.9,243.5 L411.3,238.8 L417.3,238.4 L420.3,236.2 L425.3,236.0 L426.6,230.6 L430.7,225.0 L423.8,223.5 L421.0,217.8 L422.0,215.4 L427.8,216.2 L419.5,213.1 L424.4,206.9 L421.8,206.3 L421.9,202.5 L413.6,204.1 L413.3,207.1 L410.1,205.1 L409.9,200.7 L415.0,197.4 L407.5,197.5 L408.9,196.3 L409.3,197.1 L409.6,196.2 L409.5,195.8 L419.2,187.4 L424.2,188.2 L430.1,184.7 L431.0,180.3 L438.2,180.5 L452.1,176.1 L460.8,177.0 L464.5,173.6 L459.6,172.8 L462.9,167.9 L462.9,163.6 L468.4,166.4 L472.9,163.4 L476.2,164.8 L484.0,162.0 L488.2,163.1 L488.6,159.6 L495.0,159.2 L502.0,161.3 L495.8,167.6 L495.5,172.4 L491.4,171.3 L489.9,181.6 L495.2,182.4 L497.1,186.3 L504.5,186.6 L505.5,183.5 L510.7,184.5 L515.9,192.5 L518.9,188.7 L522.1,190.6 L519.3,194.5 L521.6,199.5 L526.3,200.1 L528.9,192.3 L537.5,194.7 L537.7,191.4 L544.4,191.1 L544.9,189.5 Z">
  <desc xmlns="http://www.highcharts.com/svg/namespace">
    <name>Barnim</name>
    <bundesland>DE.BB</bundesland>
    <hc-middle-x>0.43</hc-middle-x>
    <hc-middle-y>0.45</hc-middle-y>
    <hc-key>de-bb-12060000</hc-key>
    <hc-a2>BA</hc-a2>
  </desc>
</path>

<path fill="#CEE3F5" stroke="#6E6E6E" stroke-width="0.4" id="DE.BB.12066000" d="M549.9,643.9 L544.6,643.1 L543.2,646.1 L545.6,649.6 L538.8,649.9 L536.3,657.4 L531.9,659.1 L534.8,663.4 L531.6,665.6 L524.9,663.1 L524.2,665.7 L528.1,669.2 L529.5,674.1 L524.4,677.5 L525.8,682.6 L520.0,686.8 L522.4,689.8 L518.6,689.1 L516.2,693.1 L516.8,697.2 L510.8,696.1 L511.3,690.3 L508.1,689.2 L498.7,694.8 L493.3,696.0 L489.4,693.9 L483.9,693.7 L480.6,697.6 L478.3,696.4 L472.9,697.7 L472.0,699.9 L468.3,696.8 L464.6,700.0 L459.5,699.2 L455.1,695.7 L457.2,693.0 L456.1,684.3 L456.9,679.3 L460.2,682.2 L461.6,677.2 L459.2,668.6 L456.0,667.6 L456.0,662.1 L453.6,659.3 L444.5,654.0 L449.3,653.5 L448.6,646.2 L454.8,646.4 L455.5,648.8 L463.1,648.3 L464.5,644.3 L470.2,642.4 L471.1,645.4 L477.0,644.0 L487.7,636.0 L492.8,635.0 L493.8,631.7 L491.1,627.2 L495.8,618.6 L495.4,609.6 L491.0,605.4 L485.5,602.5 L483.7,593.8 L480.3,593.8 L478.3,580.4 L482.2,578.7 L487.4,581.1 L489.7,575.8 L484.9,573.9 L483.2,568.7 L480.1,565.0 L486.5,563.8 L487.3,553.4 L489.7,548.8 L484.9,543.4 L488.8,536.1 L492.1,535.4 L492.1,531.1 L498.4,530.7 L506.6,528.3 L515.3,529.0 L524.7,534.0 L536.4,536.2 L534.5,539.0 L533.5,552.8 L538.5,552.7 L541.4,556.2 L543.1,561.5 L538.2,575.8 L540.3,580.5 L545.8,580.3 L546.7,584.7 L545.2,589.1 L541.2,589.8 L538.1,599.2 L536.2,601.2 L541.1,604.3 L541.8,608.8 L545.1,613.5 L553.6,613.5 L559.1,619.6 L552.5,628.2 L548.9,627.7 L546.7,633.2 L550.1,637.7 Z">
  <desc xmlns="http://www.highcharts.com/svg/namespace">
    <name>Oberspreewald-Lausitz</name>
    <bundesland>DE.BB</bundesland>
    <hc-middle-x>0.64</hc-middle-x>
    <hc-middle-y>0.49</hc-middle-y>
    <hc-key>de-bb-12066000</hc-key>
    <hc-a2>OL</hc-a2>
  </desc>
</path>

<path fill="#CEE3F5" stroke="#6E6E6E" stroke-width="0.4" id="DE.BB.12068000" d="M205.5,67.6 L212.9,72.7 L218.3,74.2 L219.0,81.3 L224.6,83.1 L227.6,91.2 L231.9,89.4 L237.7,89.9 L238.7,87.7 L247.8,88.1 L258.3,94.1 L260.5,91.9 L267.8,90.9 L271.6,93.8 L269.7,98.6 L280.4,102.0 L287.1,101.4 L283.4,109.2 L287.9,112.6 L297.7,112.0 L304.2,109.4 L306.0,113.4 L311.9,116.2 L314.5,112.2 L318.9,111.4 L317.8,114.4 L322.5,113.3 L323.1,110.5 L328.5,110.9 L329.2,113.4 L323.0,117.1 L325.7,117.4 L327.3,121.4 L330.0,121.6 L335.2,128.2 L330.9,132.9 L325.6,131.7 L320.5,140.7 L321.3,145.1 L325.3,146.5 L326.8,150.9 L337.0,151.6 L336.2,164.3 L338.0,166.8 L333.7,171.0 L332.7,174.6 L336.6,177.7 L341.2,177.6 L340.5,181.5 L342.0,188.6 L340.5,192.1 L339.8,200.9 L334.1,204.4 L335.1,213.2 L338.0,213.7 L337.8,220.8 L333.3,217.3 L325.5,218.1 L327.5,226.4 L320.8,227.0 L327.3,228.9 L326.0,232.3 L317.8,236.4 L317.7,239.7 L314.0,239.3 L312.1,246.4 L314.5,247.2 L314.0,255.3 L311.8,255.3 L302.9,262.0 L305.9,263.4 L299.2,267.3 L295.0,266.5 L295.6,270.6 L296.2,274.4 L283.5,270.3 L278.6,267.4 L276.3,261.2 L272.5,259.1 L275.5,254.5 L275.3,250.5 L266.1,245.8 L265.7,241.8 L261.2,238.3 L261.2,235.4 L254.4,239.0 L252.8,235.4 L249.1,232.9 L242.5,232.0 L239.5,237.6 L239.5,241.3 L242.9,244.5 L241.5,250.4 L239.0,250.8 L230.2,247.4 L225.0,248.7 L213.9,249.0 L212.5,243.2 L209.6,243.7 L214.6,238.9 L213.3,233.5 L209.5,232.5 L201.9,235.0 L188.6,233.1 L184.5,235.9 L186.3,231.8 L183.8,226.6 L182.1,213.7 L176.4,211.1 L175.5,208.0 L170.6,212.1 L161.1,215.2 L163.0,211.4 L160.7,208.2 L162.1,203.6 L174.5,200.3 L176.5,196.8 L185.4,197.2 L192.8,195.7 L189.8,186.1 L192.4,183.8 L197.5,184.7 L200.2,179.9 L201.5,172.9 L207.7,173.1 L211.9,170.8 L219.4,169.2 L217.8,161.0 L220.0,160.2 L218.4,153.8 L213.2,158.3 L211.5,163.1 L206.7,161.0 L209.0,164.3 L206.8,165.5 L204.9,162.0 L195.5,150.1 L199.9,142.0 L203.3,143.4 L203.9,137.6 L206.0,137.1 L197.0,131.2 L196.8,125.9 L205.1,118.1 L203.4,113.8 L204.7,109.6 L200.8,108.4 L199.0,104.3 L201.4,103.4 L208.9,94.4 L203.2,83.0 L203.2,76.9 L201.2,73.2 L204.3,71.7 Z">
  <desc xmlns="http://www.highcharts.com/svg/namespace">
    <name>Ostprignitz-Ruppin</name>
    <bundesland>DE.BB</bundesland>
    <hc-middle-x>0.62</hc-middle-x>
    <hc-middle-y>0.54</hc-middle-y>
    <hc-key>de-bb-12068000</hc-key>
    <hc-a2>OR</hc-a2>
  </desc>
</path>

<path fill="#CEE3F5" stroke="#6E6E6E" stroke-width="0.4" id="DE.BB.12054000" d="M357.0,333.9 L349.8,341.0 L347.9,350.0 L350.5,353.7 L346.8,358.5 L343.6,359.8 L348.1,364.9 L358.5,368.3 L354.8,372.0 L354.5,378.6 L352.4,381.9 L346.5,380.4 L336.0,379.3 L336.5,383.7 L328.5,381.3 L324.5,376.2 L320.3,373.8 L322.9,369.4 L318.5,369.9 L313.5,368.0 L313.5,359.6 L316.6,351.8 L315.8,348.7 L306.0,345.6 L306.4,343.3 L310.7,341.4 L314.4,333.4 L326.3,330.5 L327.9,329.0 L332.6,339.9 L335.6,343.9 L340.2,346.4 L345.4,343.7 L346.1,336.1 L350.6,337.2 L354.1,333.6 Z">
  <desc xmlns="http://www.highcharts.com/svg/namespace">
    <name>Potsdam</name>
    <bundesland>DE.BB</bundesland>
    <hc-middle-x>0.50</hc-middle-x>
    <hc-middle-y>0.50</hc-middle-y>
    <hc-key>de-bb-12054000</hc-key>
    <hc-a2>PO</hc-a2>
  </desc>
</path>

<path fill="#CEE3F5" stroke="#6E6E6E" stroke-width="0.4" id="DE.BB.12065000" d="M405.6,288.4 L403.7,291.7 L397.8,296.1 L393.4,296.3 L388.0,293.9 L386.6,286.3 L388.1,284.4 L383.3,283.9 L383.1,290.1 L379.1,290.1 L379.4,294.6 L371.0,294.0 L367.2,301.4 L370.2,305.1 L367.9,307.1 L359.8,303.0 L356.7,300.0 L359.0,297.2 L358.5,293.6 L349.9,291.4 L345.5,277.0 L337.7,280.2 L331.2,279.3 L333.1,273.5 L327.1,272.3 L322.9,269.5 L324.5,266.4 L321.9,263.3 L315.3,261.6 L314.2,263.4 L304.1,266.3 L303.2,267.9 L295.6,270.6 L295.0,266.5 L299.2,267.3 L305.9,263.4 L302.9,262.0 L311.8,255.3 L314.0,255.3 L314.5,247.2 L312.1,246.4 L314.0,239.3 L317.7,239.7 L317.8,236.4 L326.0,232.3 L327.3,228.9 L320.8,227.0 L327.5,226.4 L325.5,218.1 L333.3,217.3 L337.8,220.8 L338.0,213.7 L335.1,213.2 L334.1,204.4 L339.8,200.9 L340.5,192.1 L342.0,188.6 L340.5,181.5 L341.2,177.6 L336.6,177.7 L332.7,174.6 L333.7,171.0 L338.0,166.8 L336.2,164.3 L337.0,151.6 L326.8,150.9 L325.3,146.5 L321.3,145.1 L320.5,140.7 L325.6,131.7 L330.9,132.9 L335.2,128.2 L330.0,121.6 L336.9,118.4 L341.4,111.9 L348.3,109.7 L350.1,106.0 L353.8,106.2 L353.3,99.7 L359.0,99.3 L362.8,95.0 L368.2,95.2 L372.2,104.5 L377.3,106.4 L379.7,101.4 L381.8,105.5 L380.6,109.9 L385.8,111.0 L388.9,114.4 L387.6,116.3 L393.1,119.4 L389.2,125.1 L391.0,126.4 L387.9,131.1 L394.1,140.2 L394.1,143.0 L399.2,145.2 L403.4,151.6 L403.0,154.0 L411.6,158.3 L409.2,166.2 L414.1,169.0 L417.2,167.0 L420.1,173.8 L425.0,173.7 L427.8,177.5 L425.9,180.7 L431.0,180.3 L430.1,184.7 L424.2,188.2 L419.2,187.4 L409.5,195.8 L409.6,196.2 L409.3,197.1 L408.9,196.3 L407.5,197.5 L415.0,197.4 L409.9,200.7 L410.1,205.1 L413.3,207.1 L413.6,204.1 L421.9,202.5 L421.8,206.3 L424.4,206.9 L419.5,213.1 L427.8,216.2 L422.0,215.4 L421.0,217.8 L423.8,223.5 L430.7,225.0 L426.6,230.6 L425.3,236.0 L420.3,236.2 L417.3,238.4 L411.3,238.8 L412.9,243.5 L408.1,246.2 L409.5,255.6 L407.8,259.6 L411.2,260.8 L407.8,264.9 L410.4,269.3 L407.2,268.8 L408.0,272.9 L406.9,280.1 L408.7,282.0 Z">
  <desc xmlns="http://www.highcharts.com/svg/namespace">
    <name>Oberhavel</name>
    <bundesland>DE.BB</bundesland>
    <hc-middle-x>0.60</hc-middle-x>
    <hc-middle-y>0.54</hc-middle-y>
    <hc-key>de-bb-12065000</hc-key>
    <hc-a2>OB</hc-a2>
  </desc>
</path>

<path fill="#CEE3F5" stroke="#6E6E6E" stroke-width="0.4" id="DE.BB.12061000" d="M408.1,375.2 L409.5,371.8 L407.9,364.4 L417.6,361.6 L419.7,369.1 L426.6,367.5 L431.2,367.9 L430.6,371.6 L436.3,371.9 L441.7,370.2 L444.4,376.3 L448.5,374.2 L451.5,375.7 L450.2,386.4 L452.2,388.2 L456.8,379.4 L460.8,379.0 L462.5,375.7 L464.1,372.1 L468.3,373.3 L470.5,378.0 L468.0,379.5 L473.4,384.0 L469.1,393.2 L472.4,396.0 L477.6,393.5 L485.4,396.8 L489.5,396.6 L489.4,399.6 L485.8,404.8 L492.2,404.3 L493.7,408.9 L489.0,412.9 L486.2,419.1 L486.9,422.4 L491.7,425.8 L489.4,427.0 L491.9,432.8 L487.9,437.6 L492.1,436.4 L496.5,438.7 L499.5,438.1 L498.5,442.8 L492.8,441.8 L490.8,444.2 L492.9,448.7 L495.7,449.8 L489.6,457.9 L494.7,459.1 L506.0,456.6 L508.1,453.1 L513.8,453.7 L517.2,458.5 L521.3,459.7 L521.7,462.2 L528.6,460.7 L528.3,463.7 L541.8,469.6 L542.1,474.5 L544.4,476.1 L545.0,480.9 L551.0,479.3 L557.8,479.2 L560.1,470.0 L562.4,472.7 L566.1,470.8 L561.4,476.7 L562.8,484.3 L571.1,487.6 L577.8,483.7 L579.6,479.9 L584.7,476.0 L589.3,474.8 L598.5,481.0 L599.3,489.1 L607.3,489.7 L608.7,493.6 L604.1,495.3 L596.8,495.4 L592.2,497.9 L593.3,506.8 L596.6,518.6 L594.0,519.6 L582.1,518.5 L568.8,527.0 L563.0,528.2 L563.4,533.3 L561.3,539.3 L554.6,540.8 L553.1,543.1 L545.4,538.4 L536.4,536.2 L524.7,534.0 L515.3,529.0 L506.6,528.3 L498.4,530.7 L492.1,531.1 L492.1,535.4 L488.8,536.1 L484.9,543.4 L489.7,548.8 L487.3,553.4 L486.5,563.8 L480.1,565.0 L483.2,568.7 L484.9,573.9 L489.7,575.8 L487.4,581.1 L482.2,578.7 L478.3,580.4 L475.2,581.0 L473.9,573.1 L469.6,574.8 L464.8,573.0 L458.0,578.7 L457.8,583.2 L451.9,581.2 L451.3,576.6 L440.9,578.5 L435.0,573.5 L429.2,576.7 L425.0,571.4 L423.5,565.0 L421.1,561.8 L433.4,556.2 L430.8,552.7 L427.1,551.3 L429.9,548.0 L428.6,534.3 L436.4,530.4 L429.5,525.7 L430.6,520.8 L424.4,517.8 L418.9,518.5 L417.0,516.8 L406.9,519.1 L403.3,517.4 L404.6,513.8 L404.1,502.7 L407.3,502.5 L419.2,506.4 L426.1,499.6 L432.9,496.1 L445.2,492.6 L449.2,492.8 L448.2,484.8 L451.4,480.7 L446.8,473.2 L436.8,467.0 L429.7,464.6 L431.5,457.9 L431.3,434.1 L438.2,433.7 L437.3,428.6 L433.0,421.0 L430.0,418.8 L422.8,418.8 L421.2,421.0 L414.9,418.8 L413.2,413.7 L425.1,410.4 L424.4,405.7 L419.6,404.2 L422.6,397.5 L419.9,392.6 L423.1,388.1 L415.7,386.7 L412.0,382.8 L412.1,379.5 L408.1,378.8 Z">
  <desc xmlns="http://www.highcharts.com/svg/namespace">
    <name>Dahme-Spreewald</name>
    <bundesland>DE.BB</bundesland>
    <hc-middle-x>0.37</hc-middle-x>
    <hc-middle-y>0.66</hc-middle-y>
    <hc-key>de-bb-12061000</hc-key>
    <hc-a2>DS</hc-a2>
  </desc>
</path>

<path fill="#CEE3F5" stroke="#6E6E6E" stroke-width="0.4" id="DE.BB.12051000" d="M202.1,347.9 L208.5,346.5 L211.0,343.7 L215.3,343.5 L213.8,351.1 L218.8,354.2 L218.6,345.1 L222.9,346.4 L228.0,340.5 L231.1,340.8 L232.7,345.8 L241.0,347.8 L242.4,338.6 L247.3,337.9 L247.3,337.9 L245.3,339.0 L243.6,342.6 L243.5,348.5 L253.2,344.6 L256.3,347.3 L260.0,345.9 L262.5,348.4 L268.3,350.2 L262.4,351.3 L265.4,357.9 L258.1,364.8 L250.4,365.5 L246.4,379.8 L240.0,379.8 L235.2,377.6 L228.8,387.3 L224.3,385.9 L222.8,388.4 L211.9,390.2 L212.9,382.8 L207.9,373.8 L208.7,368.5 L206.9,360.6 L207.4,350.8 L202.8,352.6 Z M272.5,320.0 L272.5,319.7 L273.7,319.4 L272.5,320.0 L272.5,320.0 Z M272.5,320.0 L272.1,324.1 L271.5,320.4 L272.5,320.0 L272.5,320.0 Z M247.3,337.9 L248.3,337.2 L248.3,337.2 L248.3,337.2 L248.1,337.7 L247.3,337.9 Z M248.3,337.2 L250.3,333.6 L257.5,334.7 L269.7,328.0 L266.0,334.1 L263.2,332.8 L258.7,337.2 L250.0,336.2 L248.3,337.2 L248.3,337.2 Z">
  <desc xmlns="http://www.highcharts.com/svg/namespace">
    <name>Brandenburg an der Havel</name>
    <bundesland>DE.BB</bundesland>
    <hc-middle-x>0.40</hc-middle-x>
    <hc-middle-y>0.62</hc-middle-y>
    <hc-key>de-bb-12051000</hc-key>
    <hc-a2>BA</hc-a2>
  </desc>
</path>

<path fill="#CEE3F5" stroke="#6E6E6E" stroke-width="0.4" id="DE.BB.12067000" d="M638.1,411.6 L655.6,416.6 L660.3,422.8 L658.4,432.1 L655.2,435.0 L655.1,438.0 L658.5,443.1 L658.0,446.0 L653.3,453.1 L654.5,463.5 L657.4,467.1 L665.4,471.2 L668.7,476.9 L666.1,481.3 L666.7,488.1 L660.5,498.0 L657.1,496.2 L651.1,496.7 L647.2,489.7 L635.6,487.4 L630.2,492.3 L629.1,496.6 L622.5,494.9 L618.0,495.7 L614.6,486.2 L614.5,479.7 L607.2,485.4 L607.3,489.7 L599.3,489.1 L598.5,481.0 L589.3,474.8 L584.7,476.0 L579.6,479.9 L577.8,483.7 L571.1,487.6 L562.8,484.3 L561.4,476.7 L566.1,470.8 L562.4,472.7 L560.1,470.0 L557.8,479.2 L551.0,479.3 L545.0,480.9 L544.4,476.1 L542.1,474.5 L541.8,469.6 L528.3,463.7 L528.6,460.7 L521.7,462.2 L521.3,459.7 L517.2,458.5 L513.8,453.7 L508.1,453.1 L506.0,456.6 L494.7,459.1 L489.6,457.9 L495.7,449.8 L492.9,448.7 L490.8,444.2 L492.8,441.8 L498.5,442.8 L499.5,438.1 L496.5,438.7 L492.1,436.4 L487.9,437.6 L491.9,432.8 L489.4,427.0 L491.7,425.8 L486.9,422.4 L486.2,419.1 L489.0,412.9 L493.7,408.9 L492.2,404.3 L485.8,404.8 L489.4,399.6 L489.5,396.6 L485.4,396.8 L477.6,393.5 L472.4,396.0 L469.1,393.2 L473.4,384.0 L468.0,379.5 L470.5,378.0 L468.3,373.3 L464.1,372.1 L462.5,375.7 L460.0,373.8 L465.9,368.9 L469.4,368.2 L468.5,363.5 L470.3,357.9 L473.3,353.7 L468.6,352.7 L463.3,347.0 L459.7,347.5 L456.7,344.9 L459.0,338.6 L461.7,335.9 L465.4,336.0 L465.4,339.0 L471.3,341.4 L471.0,347.4 L477.6,347.9 L475.5,354.0 L487.3,356.3 L492.7,350.7 L497.9,351.0 L501.9,345.7 L511.8,345.0 L514.5,348.7 L517.4,347.8 L522.8,354.7 L526.9,347.1 L535.8,344.1 L537.5,348.8 L536.4,352.8 L538.7,353.7 L540.4,349.7 L543.3,350.8 L548.0,348.9 L554.1,348.8 L557.1,346.3 L558.3,338.6 L566.2,341.4 L570.1,347.3 L575.1,350.3 L574.5,353.9 L576.8,362.4 L576.1,367.3 L585.1,369.4 L582.5,376.0 L589.3,378.7 L593.4,374.4 L603.8,378.8 L600.6,385.2 L606.2,388.8 L598.5,399.9 L599.7,404.3 L597.8,412.3 L612.0,410.1 L616.8,417.6 L618.8,414.4 L628.8,414.5 L631.7,410.2 Z">
  <desc xmlns="http://www.highcharts.com/svg/namespace">
    <name>Oder-Spree</name>
    <bundesland>DE.BB</bundesland>
    <hc-middle-x>0.55</hc-middle-x>
    <hc-middle-y>0.52</hc-middle-y>
    <hc-key>de-bb-12067000</hc-key>
    <hc-a2>OS</hc-a2>
  </desc>
</path>

<path fill="#CEE3F5" stroke="#6E6E6E" stroke-width="0.4" id="DE.BB.12071000" d="M660.5,498.0 L661.4,499.6 L658.6,509.3 L661.2,513.4 L657.7,520.4 L656.0,529.6 L651.8,533.6 L649.8,533.3 L647.7,538.4 L641.8,543.7 L639.5,543.8 L638.4,549.0 L635.3,549.7 L635.4,555.7 L638.8,561.0 L646.3,563.9 L648.0,570.5 L647.1,574.4 L649.7,575.7 L648.3,581.1 L655.0,591.4 L663.9,597.6 L668.2,606.8 L667.4,617.4 L669.0,624.9 L662.6,631.7 L658.1,626.8 L656.0,627.0 L657.9,633.4 L654.3,638.9 L649.4,640.4 L638.7,641.7 L636.6,634.8 L630.7,631.8 L625.7,634.2 L626.3,637.4 L619.9,640.3 L616.8,638.6 L607.0,639.8 L605.2,643.3 L598.8,645.6 L594.4,644.1 L594.3,646.6 L585.6,651.5 L584.5,655.4 L581.9,655.0 L581.5,651.1 L571.8,646.9 L566.5,648.3 L559.8,644.4 L549.9,643.9 L550.1,637.7 L546.7,633.2 L548.9,627.7 L552.5,628.2 L559.1,619.6 L553.6,613.5 L545.1,613.5 L541.8,608.8 L541.1,604.3 L536.2,601.2 L538.1,599.2 L541.2,589.8 L545.2,589.1 L546.7,584.7 L545.8,580.3 L540.3,580.5 L538.2,575.8 L543.1,561.5 L541.4,556.2 L538.5,552.7 L533.5,552.8 L534.5,539.0 L536.4,536.2 L545.4,538.4 L553.1,543.1 L554.6,540.8 L561.3,539.3 L563.4,533.3 L563.0,528.2 L568.8,527.0 L582.1,518.5 L594.0,519.6 L596.6,518.6 L593.3,506.8 L592.2,497.9 L596.8,495.4 L604.1,495.3 L608.7,493.6 L607.3,489.7 L607.2,485.4 L614.5,479.7 L614.6,486.2 L618.0,495.7 L622.5,494.9 L629.1,496.6 L630.2,492.3 L635.6,487.4 L647.2,489.7 L651.1,496.7 L657.1,496.2 Z M593.2,550.0 L596.4,545.0 L593.3,544.3 L584.8,545.7 L582.3,541.7 L578.8,541.2 L577.4,546.8 L580.3,554.8 L577.8,558.7 L572.8,560.5 L575.3,570.9 L572.8,572.1 L574.8,577.2 L572.9,581.4 L574.8,584.6 L579.7,586.1 L578.0,592.8 L584.1,594.9 L592.5,594.7 L594.3,589.4 L598.1,592.8 L605.9,592.7 L607.4,586.9 L601.3,584.1 L596.5,580.2 L595.9,576.6 L600.7,576.3 L607.2,578.7 L609.8,572.6 L614.7,568.4 L617.6,568.8 L615.2,562.2 L616.1,559.9 L608.6,561.3 L606.8,557.0 L603.3,560.9 L598.8,561.6 L595.9,555.3 L593.4,554.6 Z">
  <desc xmlns="http://www.highcharts.com/svg/namespace">
    <name>Spree-Neiße</name>
    <bundesland>DE.BB</bundesland>
    <hc-middle-x>0.58</hc-middle-x>
    <hc-middle-y>0.73</hc-middle-y>
    <hc-key>de-bb-12071000</hc-key>
    <hc-a2>SN</hc-a2>
  </desc>
</path>

<path fill="#CEE3F5" stroke="#6E6E6E" stroke-width="0.4" id="DE.BB.12070000" d="M205.5,67.6 L204.3,71.7 L201.2,73.2 L203.2,76.9 L203.2,83.0 L208.9,94.4 L201.4,103.4 L199.0,104.3 L200.8,108.4 L204.7,109.6 L203.4,113.8 L205.1,118.1 L196.8,125.9 L197.0,131.2 L206.0,137.1 L203.9,137.6 L203.3,143.4 L199.9,142.0 L195.5,150.1 L204.9,162.0 L206.8,165.5 L209.0,164.3 L206.7,161.0 L211.5,163.1 L213.2,158.3 L218.4,153.8 L220.0,160.2 L217.8,161.0 L219.4,169.2 L211.9,170.8 L207.7,173.1 L201.5,172.9 L200.2,179.9 L197.5,184.7 L192.4,183.8 L189.8,186.1 L192.8,195.7 L185.4,197.2 L176.5,196.8 L174.5,200.3 L162.1,203.6 L159.2,208.1 L153.2,207.4 L152.2,204.4 L142.2,202.7 L133.9,207.0 L127.4,202.7 L117.9,200.7 L113.5,195.8 L107.5,195.2 L103.9,191.5 L108.9,185.5 L109.1,182.1 L105.7,179.8 L97.5,178.2 L94.0,172.0 L87.3,169.0 L81.6,172.1 L78.0,169.0 L77.0,162.1 L70.9,162.8 L67.3,159.7 L70.7,154.1 L68.8,151.2 L59.6,152.6 L53.8,147.3 L47.8,148.6 L43.5,146.8 L36.7,138.7 L32.4,137.8 L25.4,139.2 L15.7,144.4 L11.0,142.2 L8.1,137.1 L3.5,133.3 L0.1,127.8 L0.0,122.1 L4.6,123.9 L10.0,123.3 L13.6,125.4 L17.8,124.8 L24.4,127.1 L25.2,117.6 L33.4,119.1 L37.7,118.1 L39.9,122.4 L51.6,123.6 L55.9,119.5 L55.0,115.5 L58.9,109.7 L57.0,104.8 L57.8,99.2 L56.1,97.2 L62.9,95.6 L69.0,90.9 L71.4,87.2 L85.1,87.2 L86.3,90.5 L90.2,91.4 L90.2,96.1 L98.0,93.1 L109.5,93.3 L110.1,91.4 L103.5,85.2 L107.5,85.0 L116.0,87.3 L120.7,82.3 L122.4,77.8 L127.2,79.8 L134.1,79.9 L138.2,72.0 L142.5,73.9 L147.7,70.8 L146.4,61.1 L154.8,56.7 L152.8,49.7 L158.7,50.5 L159.4,57.8 L164.6,58.9 L169.5,57.6 L173.0,53.5 L175.9,60.8 L179.4,59.6 L180.3,56.2 L187.7,55.2 L190.4,63.3 L195.4,66.4 L202.8,65.6 Z">
  <desc xmlns="http://www.highcharts.com/svg/namespace">
    <name>Prignitz</name>
    <bundesland>DE.BB</bundesland>
    <hc-middle-x>0.58</hc-middle-x>
    <hc-middle-y>0.57</hc-middle-y>
    <hc-key>de-bb-12070000</hc-key>
    <hc-a2>PR</hc-a2>
  </desc>
</path>

<path fill="#CEE3F5" stroke="#6E6E6E" stroke-width="0.4" id="DE.BB.12069000" d="M215.3,343.5 L219.7,337.0 L212.8,337.8 L215.8,326.6 L215.9,321.2 L212.1,317.7 L216.5,317.6 L216.5,313.0 L226.7,313.9 L230.3,318.8 L237.3,318.7 L239.3,321.1 L244.8,322.6 L251.6,319.7 L259.6,318.2 L263.7,320.0 L267.3,315.9 L273.7,319.4 L272.5,320.0 L272.5,320.0 L272.5,320.0 L272.5,320.0 L271.5,320.4 L272.1,324.1 L278.5,329.2 L275.4,332.8 L280.1,338.3 L276.7,339.4 L277.1,345.5 L280.6,343.4 L283.7,344.5 L290.4,343.6 L291.2,341.2 L305.5,349.0 L306.0,345.6 L315.8,348.7 L316.6,351.8 L313.5,359.6 L313.5,368.0 L318.5,369.9 L322.9,369.4 L320.3,373.8 L324.5,376.2 L328.5,381.3 L336.5,383.7 L336.0,379.3 L346.5,380.4 L352.4,381.9 L354.5,378.6 L354.8,372.0 L358.5,368.3 L357.3,365.5 L364.4,361.8 L374.3,360.2 L374.9,365.3 L379.9,365.3 L384.0,361.8 L387.0,367.3 L385.7,373.0 L378.6,381.5 L374.8,382.7 L374.7,388.7 L369.0,391.0 L364.9,389.2 L357.7,392.6 L359.8,397.7 L354.4,399.8 L357.0,405.6 L355.3,408.0 L348.1,411.7 L345.4,416.0 L346.8,418.1 L340.8,430.7 L323.6,443.8 L314.4,447.3 L319.5,453.7 L318.8,456.9 L322.6,463.2 L320.9,463.2 L315.4,472.3 L314.7,479.4 L317.9,485.4 L311.4,482.0 L304.2,481.2 L298.5,486.2 L294.1,486.0 L292.0,493.0 L277.2,498.4 L269.7,495.3 L258.4,487.4 L254.7,487.2 L252.7,492.8 L246.7,493.4 L244.3,496.8 L231.9,495.1 L231.4,489.4 L224.1,487.2 L221.3,483.8 L220.8,479.3 L216.9,478.7 L214.6,484.5 L210.1,483.3 L203.1,475.4 L196.8,473.7 L191.5,466.7 L188.9,459.0 L181.5,455.1 L179.3,446.1 L176.3,444.4 L173.3,438.7 L173.9,436.3 L170.6,433.8 L173.1,428.8 L177.0,429.5 L176.7,422.1 L179.7,419.3 L183.4,419.3 L187.0,415.6 L180.2,409.9 L177.0,409.2 L179.2,404.8 L178.6,401.4 L181.2,394.3 L190.6,378.8 L186.1,372.4 L190.5,368.0 L187.9,365.5 L190.3,361.7 L189.7,358.2 L184.9,355.8 L189.4,353.3 L191.4,344.8 L193.7,344.0 L195.6,348.7 L202.1,347.9 L202.8,352.6 L207.4,350.8 L206.9,360.6 L208.7,368.5 L207.9,373.8 L212.9,382.8 L211.9,390.2 L222.8,388.4 L224.3,385.9 L228.8,387.3 L235.2,377.6 L240.0,379.8 L246.4,379.8 L250.4,365.5 L258.1,364.8 L265.4,357.9 L262.4,351.3 L268.3,350.2 L262.5,348.4 L260.0,345.9 L256.3,347.3 L253.2,344.6 L243.5,348.5 L243.6,342.6 L245.3,339.0 L247.3,337.9 L247.3,337.9 L247.3,337.9 L247.3,337.9 L248.1,337.7 L248.3,337.2 L248.3,337.2 L248.3,337.2 L250.0,336.2 L258.7,337.2 L263.2,332.8 L266.0,334.1 L269.7,328.0 L257.5,334.7 L250.3,333.6 L248.3,337.2 L248.3,337.2 L248.3,337.2 L247.3,337.9 L247.3,337.9 L247.3,337.9 L247.3,337.9 L242.4,338.6 L241.0,347.8 L232.7,345.8 L231.1,340.8 L228.0,340.5 L222.9,346.4 L218.6,345.1 L218.8,354.2 L213.8,351.1 Z">
  <desc xmlns="http://www.highcharts.com/svg/namespace">
    <name>Potsdam-Mittelmark</name>
    <bundesland>DE.BB</bundesland>
    <hc-middle-x>0.37</hc-middle-x>
    <hc-middle-y>0.63</hc-middle-y>
    <hc-key>de-bb-12069000</hc-key>
    <hc-a2>PM</hc-a2>
  </desc>
</path>

<path fill="#CEE3F5" stroke="#6E6E6E" stroke-width="0.4" id="DE.BB.12073000" d="M551.3,191.0 L544.9,189.5 L544.4,191.1 L537.7,191.4 L537.5,194.7 L528.9,192.3 L526.3,200.1 L521.6,199.5 L519.3,194.5 L522.1,190.6 L518.9,188.7 L515.9,192.5 L510.7,184.5 L505.5,183.5 L504.5,186.6 L497.1,186.3 L495.2,182.4 L489.9,181.6 L491.4,171.3 L495.5,172.4 L495.8,167.6 L502.0,161.3 L495.0,159.2 L488.6,159.6 L488.2,163.1 L484.0,162.0 L476.2,164.8 L472.9,163.4 L468.4,166.4 L462.9,163.6 L462.9,167.9 L459.6,172.8 L464.5,173.6 L460.8,177.0 L452.1,176.1 L438.2,180.5 L431.0,180.3 L425.9,180.7 L427.8,177.5 L425.0,173.7 L420.1,173.8 L417.2,167.0 L414.1,169.0 L409.2,166.2 L411.6,158.3 L403.0,154.0 L403.4,151.6 L399.2,145.2 L394.1,143.0 L394.1,140.2 L387.9,131.1 L391.0,126.4 L389.2,125.1 L393.1,119.4 L387.6,116.3 L388.9,114.4 L385.8,111.0 L380.6,109.9 L381.8,105.5 L379.7,101.4 L381.2,93.6 L386.5,91.2 L390.9,86.2 L398.3,88.8 L402.8,87.4 L408.0,98.8 L410.9,97.8 L412.1,92.3 L414.4,90.3 L417.9,80.8 L422.0,84.3 L426.7,83.4 L431.2,75.3 L434.3,74.7 L433.2,64.4 L435.1,59.9 L438.4,60.7 L441.0,56.8 L439.9,49.6 L443.8,47.2 L451.5,45.1 L454.3,46.6 L456.4,42.1 L455.1,39.4 L457.4,34.6 L459.4,35.7 L461.8,31.2 L471.9,23.7 L476.8,22.6 L483.9,26.4 L488.3,25.3 L493.2,18.8 L488.3,18.9 L486.7,14.8 L484.0,13.9 L483.7,8.2 L485.3,1.7 L488.1,0.0 L488.0,3.7 L492.3,12.6 L497.3,13.9 L503.1,17.2 L502.0,21.5 L504.1,23.2 L502.3,27.0 L510.3,32.7 L507.3,40.3 L510.1,43.6 L515.6,40.8 L526.0,39.6 L527.0,41.1 L534.4,41.5 L535.5,46.6 L541.4,46.0 L545.8,43.9 L549.0,37.8 L551.8,38.0 L559.4,43.9 L564.6,43.8 L568.6,40.4 L571.8,44.3 L570.8,46.7 L571.8,54.7 L568.1,64.5 L560.1,74.7 L546.9,87.4 L543.9,95.0 L548.9,95.6 L555.7,93.3 L563.3,95.3 L565.3,97.6 L575.9,96.1 L575.2,90.7 L582.8,87.7 L585.7,79.4 L591.9,80.2 L597.2,78.3 L601.5,74.0 L604.6,75.8 L602.9,80.7 L604.5,82.9 L605.6,91.2 L610.2,91.7 L611.0,96.5 L603.0,108.0 L602.5,112.0 L597.0,114.8 L594.8,124.3 L596.2,129.9 L598.8,133.5 L596.9,143.5 L595.3,145.8 L594.5,153.8 L589.0,164.2 L584.0,167.7 L580.0,172.6 L569.1,181.0 L564.1,182.6 Z">
  <desc xmlns="http://www.highcharts.com/svg/namespace">
    <name>Uckermark</name>
    <bundesland>DE.BB</bundesland>
    <hc-middle-x>0.53</hc-middle-x>
    <hc-middle-y>0.54</hc-middle-y>
    <hc-key>de-bb-12073000</hc-key>
    <hc-a2>UC</hc-a2>
  </desc>
</path>

<path fill="#CEE3F5" stroke="#6E6E6E" stroke-width="0.4" id="DE.BB.12064000" d="M553.6,212.0 L553.9,218.2 L546.9,228.4 L548.2,233.4 L565.0,237.2 L567.4,241.0 L577.1,251.1 L590.9,258.6 L604.6,276.1 L606.8,281.3 L610.2,282.2 L612.1,286.8 L620.3,293.0 L633.2,300.0 L637.8,303.6 L641.2,311.3 L646.2,316.9 L642.1,320.7 L639.4,327.6 L641.5,336.3 L644.5,338.3 L644.5,342.6 L640.6,347.0 L640.3,350.0 L633.9,357.7 L629.5,358.8 L627.6,361.5 L627.6,367.1 L625.4,372.3 L620.8,373.3 L614.2,371.3 L605.1,372.5 L603.8,378.8 L593.4,374.4 L589.3,378.7 L582.5,376.0 L585.1,369.4 L576.1,367.3 L576.8,362.4 L574.5,353.9 L575.1,350.3 L570.1,347.3 L566.2,341.4 L558.3,338.6 L557.1,346.3 L554.1,348.8 L548.0,348.9 L543.3,350.8 L540.4,349.7 L538.7,353.7 L536.4,352.8 L537.5,348.8 L535.8,344.1 L526.9,347.1 L522.8,354.7 L517.4,347.8 L514.5,348.7 L511.8,345.0 L501.9,345.7 L497.9,351.0 L492.7,350.7 L487.3,356.3 L475.5,354.0 L477.6,347.9 L471.0,347.4 L471.3,341.4 L465.4,339.0 L465.4,336.0 L461.7,335.9 L459.0,338.6 L456.7,344.9 L451.6,343.1 L445.9,345.9 L450.3,332.8 L455.3,328.4 L449.0,326.9 L450.9,323.3 L446.2,322.4 L447.2,317.0 L455.6,314.4 L455.5,316.3 L460.8,314.3 L463.8,308.0 L466.6,309.0 L466.3,305.6 L469.3,304.5 L469.6,301.1 L479.9,297.7 L487.2,296.4 L489.0,297.6 L492.2,290.9 L493.4,275.6 L479.8,283.9 L474.5,265.5 L470.7,262.4 L482.6,257.6 L483.9,259.2 L496.0,254.8 L496.4,250.2 L499.0,248.3 L496.5,245.7 L504.3,245.1 L508.1,243.6 L511.5,239.6 L511.6,234.1 L518.3,234.0 L519.0,228.3 L523.1,224.6 L527.3,227.1 L532.5,224.8 L541.5,224.4 L542.0,220.5 L538.8,218.9 L535.1,220.2 L534.9,214.8 L538.7,210.2 L539.2,213.3 L541.9,209.6 L547.5,209.5 L548.4,213.9 Z">
  <desc xmlns="http://www.highcharts.com/svg/namespace">
    <name>Märkisch-Oderland</name>
    <bundesland>DE.BB</bundesland>
    <hc-middle-x>0.52</hc-middle-x>
    <hc-middle-y>0.56</hc-middle-y>
    <hc-key>de-bb-12064000</hc-key>
    <hc-a2>MO</hc-a2>
  </desc>
</path>
</g>

<text x="350" y="714" text-anchor="middle" font-family="Verdana" font-size="8" stroke-opacity="0.6">Copyright (c) 2014 Highsoft AS, Based on data from GeoBasis-DE / BKG 2014</text>

</svg>