<?xml version="1.0" encoding="utf-8" standalone="no"?>
<!DOCTYPE svg PUBLIC "-//W3C//DTD SVG 1.1//EN" "http://www.w3.org/Graphics/SVG/1.1/DTD/svg11.dtd">

<svg version="1.1" height="700pt" width="700pt" xmlns="http://www.w3.org/2000/svg" xmlns:xlink="http://www.w3.org/1999/xlink">
<desc>
Map version: 1.1.1
Copyright (c) 2014 Highsoft AS, Based on data from GeoBasis-DE / BKG 2014
</desc>
<title>Baden-Württemberg</title>
<g id="admin2">

<g id="DE">
  <desc xmlns="http://www.highcharts.com/svg/namespace">
    <name>Germany</name>
    <labelrank>2</labelrank>
    <country-abbrev>Ger.</country-abbrev>
    <subregion>Western Europe</subregion>
    <woe-id>23424829</woe-id>
    <region-wb>Europe &amp; Central Asia</region-wb>
    <iso-a3>DEU</iso-a3>
    <iso-a2>DE</iso-a2>
    <region-un>Europe</region-un>
    <continent>Europe</continent>
    <hc-key>de</hc-key>
    <hc-a2>GE</hc-a2>
  </desc>
</g>

<g id="DE.BW">
  <desc xmlns="http://www.highcharts.com/svg/namespace">
    <labelrank>3</labelrank>
    <hasc>DE.BW</hasc>
    <alt-name>NULL</alt-name>
    <woe-id>2345481</woe-id>
    <subregion>NULL</subregion>
    <fips>GM01</fips>
    <postal-code>BW</postal-code>
    <name>Baden-Württemberg</name>
    <country>Germany</country>
    <type-en>State</type-en>
    <region>NULL</region>
    <longitude>9.00328</longitude>
    <woe-name>Baden-Württemberg</woe-name>
    <latitude>48.59</latitude>
    <woe-label>Baden-Wurttemberg, DE, Germany</woe-label>
    <type>Land</type>
    <hc-key>de-bw</hc-key>
    <hc-a2>BW</hc-a2>
  </desc>
</g>

<path fill="#CEE3F5" stroke="#6E6E6E" stroke-width="0.4" id="DE.BW.08136000" d="M471.0,330.9 L469.1,330.1 L471.5,328.5 L472.2,330.0 Z M453.5,257.0 L457.6,259.4 L459.9,253.4 L464.8,259.2 L471.1,260.6 L474.7,259.4 L474.7,263.1 L484.5,265.8 L481.2,268.5 L482.6,271.1 L488.5,269.1 L491.6,270.6 L496.0,263.1 L494.0,261.3 L499.4,255.1 L502.2,258.2 L504.5,253.6 L509.3,251.9 L518.0,251.3 L514.3,239.3 L510.8,239.1 L512.7,234.0 L515.3,234.9 L520.0,228.8 L525.7,232.2 L536.4,231.2 L540.0,233.2 L540.6,230.4 L545.9,231.6 L546.2,228.8 L553.2,225.9 L556.4,231.9 L563.8,230.0 L568.2,225.9 L567.6,232.3 L575.9,230.9 L581.4,236.2 L587.5,235.2 L588.0,242.2 L594.1,244.2 L596.8,246.9 L598.8,254.2 L601.8,253.5 L605.3,261.0 L608.8,263.1 L606.0,264.4 L610.0,269.4 L603.4,272.4 L608.7,276.9 L609.5,289.7 L604.7,291.9 L604.2,294.4 L608.6,295.9 L608.6,301.9 L603.3,306.1 L606.1,309.1 L602.6,316.8 L604.8,318.8 L604.2,323.1 L601.6,324.3 L596.4,322.1 L594.3,325.4 L591.9,323.6 L590.8,327.8 L582.8,327.0 L576.2,320.2 L568.6,318.1 L568.3,315.6 L563.6,315.5 L562.3,311.8 L553.9,313.9 L553.1,322.8 L550.7,320.6 L550.9,315.8 L547.8,315.5 L548.1,310.8 L544.3,317.6 L537.7,318.5 L531.7,323.5 L526.9,323.6 L524.8,318.0 L519.5,320.4 L520.4,328.1 L514.7,329.9 L511.0,330.6 L503.2,325.8 L497.5,324.0 L494.6,324.9 L495.1,329.8 L498.2,330.7 L493.8,334.1 L483.8,329.4 L474.4,332.5 L472.2,324.8 L466.3,322.9 L464.3,315.8 L462.2,317.7 L457.4,314.5 L446.7,317.2 L440.3,316.1 L438.9,311.8 L443.9,308.7 L445.0,305.1 L443.0,301.9 L446.8,300.2 L457.4,299.2 L459.3,303.5 L466.0,300.7 L469.3,297.6 L467.5,290.6 L463.6,284.9 L465.3,281.3 L463.4,276.4 L458.5,272.1 L456.3,274.0 L455.0,268.0 L452.2,268.7 L450.1,263.3 L454.0,262.5 Z">
  <desc xmlns="http://www.highcharts.com/svg/namespace">
    <name>Ostalbkreis</name>
    <bundesland>DE.BW</bundesland>
    <hc-middle-x>0.55</hc-middle-x>
    <hc-middle-y>0.51</hc-middle-y>
    <hc-key>de-bw-08136000</hc-key>
    <hc-a2>OS</hc-a2>
  </desc>
</path>

<path fill="#CEE3F5" stroke="#6E6E6E" stroke-width="0.4" id="DE.BW.08116000" d="M346.4,369.5 L347.0,371.2 L346.2,370.8 L345.5,369.4 Z M431.8,389.2 L421.0,393.1 L421.2,397.2 L416.5,394.1 L415.2,397.5 L408.0,396.3 L412.7,391.9 L404.7,387.2 L400.5,388.0 L392.7,392.0 L387.8,390.9 L381.7,386.3 L380.1,389.0 L376.5,387.3 L376.0,381.7 L378.2,378.4 L375.8,376.6 L372.5,381.4 L365.1,381.1 L360.6,377.4 L358.1,381.4 L354.3,379.2 L352.4,374.4 L353.4,369.4 L350.4,371.5 L348.7,369.1 L342.8,369.5 L341.3,365.2 L347.5,360.3 L343.5,352.8 L337.1,348.2 L337.9,346.9 L329.7,344.8 L334.6,342.5 L333.2,336.9 L340.3,337.1 L347.0,338.8 L352.2,342.5 L362.1,341.3 L355.7,329.9 L365.3,326.0 L368.3,317.8 L376.0,316.4 L380.6,319.2 L391.0,317.6 L391.9,312.1 L395.3,314.9 L397.6,320.8 L401.1,316.0 L408.7,316.1 L412.8,318.5 L415.0,322.6 L416.5,323.6 L411.7,331.0 L413.2,335.6 L412.1,343.4 L416.3,352.9 L423.0,351.6 L425.8,353.1 L426.1,357.7 L421.8,359.6 L430.6,362.5 L434.4,366.9 L432.8,368.9 L434.6,373.1 L433.2,379.2 L430.8,378.9 L427.3,385.2 Z">
  <desc xmlns="http://www.highcharts.com/svg/namespace">
    <name>Esslingen</name>
    <bundesland>DE.BW</bundesland>
    <hc-middle-x>0.55</hc-middle-x>
    <hc-middle-y>0.50</hc-middle-y>
    <hc-key>de-bw-08116000</hc-key>
    <hc-a2>ES</hc-a2>
  </desc>
</path>

<path fill="#CEE3F5" stroke="#6E6E6E" stroke-width="0.4" id="DE.BW.08211000" d="M131.7,325.6 L130.4,326.8 L130.6,326.4 L131.8,324.6 Z M132.3,321.5 L132.4,321.7 L131.1,320.9 L132.0,319.7 Z M133.5,323.6 L132.2,324.3 L133.3,322.4 L133.9,322.5 Z M140.4,312.5 L136.4,310.7 L140.0,307.2 L140.7,301.8 L146.0,296.9 L140.7,296.8 L138.4,293.0 L143.4,294.2 L148.2,298.7 L150.0,298.2 L157.7,305.1 L158.5,309.6 L161.7,308.6 L166.0,315.0 L164.0,318.1 L172.0,329.7 L171.9,336.5 L166.9,341.1 L167.4,343.6 L162.5,348.7 L154.1,348.6 L153.1,338.7 L150.6,340.1 L145.1,334.1 L136.9,334.1 L128.6,329.5 L133.9,330.1 L137.4,325.1 L142.4,326.0 L147.7,322.5 L147.5,319.6 Z M147.6,325.6 L148.3,327.6 L151.1,327.9 L148.9,324.9 Z M149.6,332.8 L150.9,333.4 L152.0,333.0 L150.7,331.7 Z M145.9,324.9 L146.6,324.5 L146.2,324.1 L145.6,324.6 Z">
  <desc xmlns="http://www.highcharts.com/svg/namespace">
    <name>Baden-Baden</name>
    <bundesland>DE.BW</bundesland>
    <hc-middle-x>0.63</hc-middle-x>
    <hc-middle-y>0.59</hc-middle-y>
    <hc-key>de-bw-08211000</hc-key>
    <hc-a2>BB</hc-a2>
  </desc>
</path>

<path fill="#CEE3F5" stroke="#6E6E6E" stroke-width="0.4" id="DE.BW.08317000" d="M122.4,347.4 L122.0,347.4 L122.0,346.7 L122.4,346.7 Z M110.9,340.9 L109.3,340.3 L109.5,339.7 L111.0,340.5 Z M119.3,334.6 L121.1,335.0 L115.8,340.9 L114.8,339.9 Z M38.0,474.9 L40.4,461.9 L48.8,456.5 L51.8,451.7 L49.2,438.1 L50.1,429.5 L55.7,415.8 L57.0,403.8 L62.1,399.9 L65.2,394.8 L65.3,371.1 L70.7,362.8 L74.5,354.4 L83.2,349.7 L97.8,332.5 L102.2,334.6 L104.0,338.0 L101.8,342.3 L106.3,342.3 L110.0,344.8 L120.9,347.3 L128.0,353.8 L131.8,352.6 L142.9,357.4 L146.8,361.1 L155.4,360.9 L153.6,366.5 L156.6,369.2 L151.3,368.9 L148.2,369.0 L154.1,376.1 L151.0,382.6 L149.3,394.2 L150.4,398.5 L155.0,403.5 L160.2,404.0 L160.5,417.0 L157.5,427.8 L153.0,431.7 L155.9,436.7 L159.3,438.6 L157.4,441.0 L167.5,448.1 L171.1,454.2 L172.6,462.6 L171.2,465.9 L162.1,466.3 L163.8,468.5 L164.0,479.3 L166.6,481.7 L164.9,484.4 L166.0,488.9 L168.8,490.2 L168.1,497.3 L162.6,503.1 L154.0,498.5 L153.4,503.8 L150.5,507.2 L141.4,499.1 L142.9,493.4 L139.6,490.5 L138.5,486.0 L125.6,491.4 L117.6,485.2 L114.7,487.1 L107.7,483.1 L102.5,487.1 L104.6,489.8 L100.0,492.9 L93.3,492.8 L90.4,490.1 L83.8,489.5 L85.8,487.7 L69.0,482.5 L65.8,485.5 L55.8,479.9 L49.0,481.4 L44.3,474.4 Z">
  <desc xmlns="http://www.highcharts.com/svg/namespace">
    <name>Ortenaukreis</name>
    <bundesland>DE.BW</bundesland>
    <hc-middle-x>0.55</hc-middle-x>
    <hc-middle-y>0.47</hc-middle-y>
    <hc-key>de-bw-08317000</hc-key>
    <hc-a2>OR</hc-a2>
  </desc>
</path>

<path fill="#CEE3F5" stroke="#6E6E6E" stroke-width="0.4" id="DE.BW.08216000" d="M147.6,325.6 L148.9,324.9 L151.1,327.9 L148.3,327.6 Z M149.6,332.8 L150.7,331.7 L152.0,333.0 L150.9,333.4 Z M145.9,324.9 L145.6,324.6 L146.2,324.1 L146.6,324.5 Z M184.8,297.7 L181.8,295.5 L184.3,298.5 L189.4,301.2 L188.4,307.3 L193.4,311.9 L195.3,317.4 L192.9,325.7 L201.8,319.3 L205.8,321.7 L203.0,333.2 L200.3,334.0 L202.0,339.2 L196.3,340.8 L198.2,343.9 L197.1,352.3 L194.3,356.5 L190.0,358.0 L185.2,360.3 L184.3,364.2 L177.6,367.2 L179.4,369.3 L171.2,373.7 L159.6,373.3 L151.3,368.9 L156.6,369.2 L153.6,366.5 L155.4,360.9 L146.8,361.1 L142.9,357.4 L131.8,352.6 L128.0,353.8 L120.9,347.3 L110.0,344.8 L106.3,342.3 L101.8,342.3 L104.0,338.0 L102.2,334.6 L97.8,332.5 L99.4,323.7 L102.2,319.4 L107.8,320.0 L111.1,316.8 L111.6,312.9 L114.9,310.3 L122.0,309.1 L127.8,301.3 L129.3,294.5 L134.4,280.4 L138.7,272.8 L148.6,258.1 L153.7,256.5 L160.6,251.7 L160.4,258.8 L170.6,261.6 L179.5,266.2 L178.2,269.7 L171.4,269.9 L167.3,272.9 L169.2,288.3 L174.6,290.3 L179.7,294.2 L183.8,290.9 L186.5,292.7 L189.4,290.0 L192.0,297.2 L189.4,298.7 Z M131.7,325.6 L131.8,324.6 L130.6,326.4 L130.4,326.8 Z M122.4,347.4 L122.4,346.7 L122.0,346.7 L122.0,347.4 Z M132.3,321.5 L132.0,319.7 L131.1,320.9 L132.4,321.7 Z M110.9,340.9 L111.0,340.5 L109.5,339.7 L109.3,340.3 Z M133.5,323.6 L133.9,322.5 L133.3,322.4 L132.2,324.3 Z M119.3,334.6 L114.8,339.9 L115.8,340.9 L121.1,335.0 Z M140.4,312.5 L147.5,319.6 L147.7,322.5 L142.4,326.0 L137.4,325.1 L133.9,330.1 L128.6,329.5 L136.9,334.1 L145.1,334.1 L150.6,340.1 L153.1,338.7 L154.1,348.6 L162.5,348.7 L167.4,343.6 L166.9,341.1 L171.9,336.5 L172.0,329.7 L164.0,318.1 L166.0,315.0 L161.7,308.6 L158.5,309.6 L157.7,305.1 L150.0,298.2 L148.2,298.7 L143.4,294.2 L138.4,293.0 L140.7,296.8 L146.0,296.9 L140.7,301.8 L140.0,307.2 L136.4,310.7 Z">
  <desc xmlns="http://www.highcharts.com/svg/namespace">
    <name>Rastatt</name>
    <bundesland>DE.BW</bundesland>
    <hc-middle-x>0.77</hc-middle-x>
    <hc-middle-y>0.54</hc-middle-y>
    <hc-key>de-bw-08216000</hc-key>
    <hc-a2>RA</hc-a2>
  </desc>
</path>

<path fill="#CEE3F5" stroke="#6E6E6E" stroke-width="0.4" id="DE.BW.08415000" d="M336.8,376.8 L335.9,376.4 L336.1,376.0 L337.1,376.0 Z M342.5,387.8 L341.8,388.1 L341.5,387.1 L342.3,387.0 Z M338.3,370.4 L339.9,370.3 L342.8,369.5 L348.7,369.1 L350.4,371.5 L353.4,369.4 L352.4,374.4 L354.3,379.2 L358.1,381.4 L360.6,377.4 L365.1,381.1 L372.5,381.4 L375.8,376.6 L378.2,378.4 L376.0,381.7 L376.5,387.3 L380.1,389.0 L381.7,386.3 L387.8,390.9 L392.7,392.0 L400.5,388.0 L404.7,387.2 L412.7,391.9 L408.0,396.3 L415.2,397.5 L416.5,394.1 L421.2,397.2 L421.0,393.1 L431.8,389.2 L431.9,389.3 L432.4,390.0 L433.7,397.6 L432.2,404.4 L434.3,408.9 L438.6,410.4 L442.3,419.1 L443.3,426.6 L441.1,426.8 L440.2,433.7 L431.8,434.1 L432.2,439.5 L436.6,440.3 L433.7,443.1 L434.1,447.9 L430.8,454.4 L427.1,453.4 L422.7,459.8 L426.7,461.5 L426.5,466.1 L416.5,470.3 L416.7,473.2 L420.5,473.3 L420.9,477.8 L413.3,481.6 L413.3,484.5 L415.1,490.8 L408.8,495.8 L408.1,491.9 L403.2,493.3 L402.6,496.4 L399.1,493.9 L392.0,495.3 L387.7,486.9 L383.8,482.6 L380.2,477.4 L376.0,476.6 L372.1,468.4 L368.5,468.6 L365.9,472.5 L357.4,473.7 L357.2,470.2 L353.3,467.6 L350.4,469.9 L345.1,460.0 L355.3,461.6 L355.7,453.6 L347.7,450.1 L346.2,447.4 L348.7,442.9 L338.4,441.3 L337.4,433.8 L341.7,428.9 L335.8,424.4 L336.4,418.9 L339.6,415.7 L340.3,411.8 L336.5,410.4 L337.5,407.4 L343.4,403.7 L339.8,400.1 L340.2,394.8 L347.5,393.2 L346.7,386.1 L342.9,386.9 L340.5,382.2 L337.5,381.1 Z M346.4,369.5 L345.5,369.4 L346.2,370.8 L347.0,371.2 Z">
  <desc xmlns="http://www.highcharts.com/svg/namespace">
    <name>Reutlingen</name>
    <bundesland>DE.BW</bundesland>
    <hc-middle-x>0.52</hc-middle-x>
    <hc-middle-y>0.49</hc-middle-y>
    <hc-key>de-bw-08415000</hc-key>
    <hc-a2>RE</hc-a2>
  </desc>
</path>

<path fill="#CEE3F5" stroke="#6E6E6E" stroke-width="0.4" id="DE.BW.08115000" d="M342.8,369.5 L339.9,370.3 L338.3,370.4 L334.4,369.1 L335.8,366.4 L331.3,364.0 L330.1,369.8 L326.0,372.8 L322.4,372.9 L318.8,378.0 L312.8,374.4 L307.1,373.6 L300.9,375.1 L297.7,381.8 L293.3,379.4 L288.9,381.8 L288.3,388.8 L280.9,390.2 L283.8,396.8 L279.6,399.0 L280.0,401.8 L269.6,398.6 L268.3,395.5 L263.9,395.0 L262.0,393.8 L263.2,386.8 L259.8,369.1 L269.4,372.5 L270.6,367.2 L268.6,358.8 L270.9,357.1 L270.2,352.5 L274.3,350.7 L278.0,344.9 L281.1,344.4 L283.5,340.5 L281.9,337.5 L286.7,332.0 L281.7,328.9 L276.5,328.3 L277.6,322.5 L270.4,316.8 L271.4,315.5 L277.0,309.4 L284.5,311.0 L290.0,309.1 L290.0,302.2 L286.4,302.2 L288.2,299.2 L285.5,296.9 L290.1,294.1 L292.2,289.3 L297.0,287.9 L303.4,292.4 L305.1,299.7 L310.7,298.6 L317.0,299.7 L321.2,304.0 L317.8,308.8 L320.5,312.0 L322.2,320.0 L325.0,322.4 L322.4,327.1 L328.9,335.0 L333.2,336.9 L334.6,342.5 L329.7,344.8 L337.9,346.9 L337.1,348.2 L343.5,352.8 L347.5,360.3 L341.3,365.2 Z">
  <desc xmlns="http://www.highcharts.com/svg/namespace">
    <name>Böblingen</name>
    <bundesland>DE.BW</bundesland>
    <hc-middle-x>0.44</hc-middle-x>
    <hc-middle-y>0.47</hc-middle-y>
    <hc-key>de-bw-08115000</hc-key>
    <hc-a2>BÖ</hc-a2>
  </desc>
</path>

<path fill="#CEE3F5" stroke="#6E6E6E" stroke-width="0.4" id="DE.BW.08117000" d="M432.4,390.0 L431.9,389.3 L431.8,389.2 L427.3,385.2 L430.8,378.9 L433.2,379.2 L434.6,373.1 L432.8,368.9 L434.4,366.9 L430.6,362.5 L421.8,359.6 L426.1,357.7 L425.8,353.1 L423.0,351.6 L416.3,352.9 L412.1,343.4 L413.2,335.6 L411.7,331.0 L416.5,323.6 L415.0,322.6 L417.7,320.0 L422.9,323.2 L424.2,326.7 L428.2,323.1 L431.0,323.7 L432.5,318.4 L428.9,317.0 L432.4,314.0 L437.8,317.7 L440.3,316.1 L446.7,317.2 L457.4,314.5 L462.2,317.7 L464.3,315.8 L466.3,322.9 L472.2,324.8 L474.4,332.5 L483.8,329.4 L493.8,334.1 L498.2,330.7 L495.1,329.8 L494.6,324.9 L497.5,324.0 L503.2,325.8 L511.0,330.6 L514.7,329.9 L515.7,336.7 L509.9,339.0 L510.9,347.2 L506.0,350.1 L503.4,348.6 L501.3,358.1 L506.0,359.7 L500.1,362.7 L495.3,362.7 L495.0,366.4 L490.9,372.9 L484.6,374.2 L484.0,377.6 L479.5,382.9 L462.2,381.4 L460.1,387.1 L455.7,388.6 L452.4,393.6 L447.7,395.2 L442.1,389.8 L437.7,388.5 Z M471.0,330.9 L472.2,330.0 L471.5,328.5 L469.1,330.1 Z">
  <desc xmlns="http://www.highcharts.com/svg/namespace">
    <name>Göppingen</name>
    <bundesland>DE.BW</bundesland>
    <hc-middle-x>0.41</hc-middle-x>
    <hc-middle-y>0.43</hc-middle-y>
    <hc-key>de-bw-08117000</hc-key>
    <hc-a2>GÖ</hc-a2>
  </desc>
</path>

<path fill="#CEE3F5" stroke="#6E6E6E" stroke-width="0.4" id="DE.BW.08425000" d="M565.7,396.5 L565.2,398.3 L566.5,398.1 L567.1,399.7 L568.0,402.3 L563.1,403.4 L556.3,407.3 L553.8,413.1 L546.0,414.1 L539.9,407.2 L536.3,411.6 L530.6,414.0 L525.0,413.7 L522.6,411.5 L514.5,412.0 L509.4,417.2 L506.1,415.8 L500.7,418.5 L499.4,423.7 L504.4,425.1 L506.4,429.3 L500.3,429.0 L498.0,433.2 L492.5,433.5 L492.4,437.8 L486.5,442.2 L487.3,446.4 L495.0,446.4 L496.1,450.1 L498.3,447.9 L503.5,450.0 L503.1,455.0 L499.5,456.8 L502.6,459.0 L509.2,458.3 L517.2,454.1 L513.6,450.5 L518.2,447.1 L521.3,453.1 L532.6,468.1 L533.4,476.8 L531.8,481.1 L536.7,490.5 L537.2,499.0 L539.3,504.6 L529.9,511.5 L521.3,508.7 L526.8,508.2 L529.3,504.3 L528.7,499.2 L533.6,496.7 L526.9,493.5 L526.1,488.1 L527.6,484.8 L523.6,484.3 L521.9,478.6 L517.2,480.2 L516.8,474.3 L510.4,472.1 L503.7,472.5 L503.5,468.5 L494.5,464.8 L493.0,470.3 L487.5,475.3 L486.9,479.7 L483.5,477.6 L476.2,480.1 L476.6,484.3 L470.3,485.9 L470.6,490.5 L465.9,492.9 L464.7,498.3 L466.3,501.7 L462.3,503.3 L454.6,500.8 L448.9,507.7 L448.7,503.9 L445.2,497.9 L442.1,498.3 L441.2,494.5 L435.4,492.4 L431.9,496.7 L425.0,497.6 L424.8,494.2 L421.1,492.1 L420.4,487.5 L413.3,484.5 L413.3,481.6 L420.9,477.8 L420.5,473.3 L416.7,473.2 L416.5,470.3 L426.5,466.1 L426.7,461.5 L422.7,459.8 L427.1,453.4 L430.8,454.4 L434.1,447.9 L433.7,443.1 L436.6,440.3 L432.2,439.5 L431.8,434.1 L440.2,433.7 L441.1,426.8 L443.3,426.6 L442.3,419.1 L438.6,410.4 L434.3,408.9 L432.2,404.4 L433.7,397.6 L432.4,390.0 L437.7,388.5 L442.1,389.8 L447.7,395.2 L452.4,393.6 L455.7,388.6 L460.1,387.1 L462.2,381.4 L479.5,382.9 L484.0,377.6 L484.6,374.2 L490.9,372.9 L495.0,366.4 L495.3,362.7 L500.1,362.7 L506.0,359.7 L511.3,364.8 L510.5,371.0 L516.2,370.5 L515.9,368.4 L525.9,367.2 L528.4,371.8 L538.1,376.0 L541.2,382.7 L555.1,383.9 L561.3,388.7 L562.1,394.5 Z">
  <desc xmlns="http://www.highcharts.com/svg/namespace">
    <name>Alb-Donau-Kreis</name>
    <bundesland>DE.BW</bundesland>
    <hc-middle-x>0.35</hc-middle-x>
    <hc-middle-y>0.48</hc-middle-y>
    <hc-key>de-bw-08425000</hc-key>
    <hc-a2>AD</hc-a2>
  </desc>
</path>

<path fill="#CEE3F5" stroke="#6E6E6E" stroke-width="0.4" id="DE.BW.08236000" d="M271.4,315.5 L263.7,315.5 L257.8,307.7 L256.1,309.1 L253.1,299.7 L249.6,297.0 L253.5,299.1 L254.6,302.7 L260.4,299.1 L257.3,296.5 L264.3,297.8 L264.4,293.8 L272.0,290.3 L269.7,287.9 L269.2,280.2 L261.9,277.6 L263.6,272.1 L259.8,268.7 L255.5,268.2 L249.0,270.4 L242.9,274.5 L239.5,271.1 L236.2,272.8 L238.6,279.8 L239.3,288.1 L235.7,291.6 L236.6,294.4 L241.7,297.6 L244.8,296.0 L248.3,297.5 L249.2,303.4 L240.5,304.7 L232.1,299.9 L231.3,305.2 L227.1,302.7 L221.3,305.2 L219.0,312.0 L215.2,313.0 L212.5,309.2 L215.8,307.1 L207.7,302.0 L202.4,294.2 L206.3,293.2 L212.7,287.9 L214.7,283.6 L212.9,277.4 L216.2,276.1 L220.3,268.7 L216.6,268.9 L217.6,260.8 L225.1,249.5 L229.0,250.7 L235.7,248.2 L239.6,249.2 L242.0,244.1 L244.6,248.4 L250.0,247.6 L252.9,249.9 L258.3,245.8 L257.0,237.9 L261.6,232.4 L262.5,233.7 L270.1,232.3 L273.3,236.1 L278.7,234.6 L278.1,227.1 L286.7,228.3 L285.4,230.9 L286.3,235.5 L291.7,239.4 L298.0,249.4 L295.4,250.3 L300.4,258.4 L300.6,264.0 L297.2,266.2 L291.8,265.4 L292.8,271.2 L296.6,271.4 L292.7,274.2 L297.0,287.9 L292.2,289.3 L290.1,294.1 L285.5,296.9 L288.2,299.2 L286.4,302.2 L290.0,302.2 L290.0,309.1 L284.5,311.0 L277.0,309.4 Z">
  <desc xmlns="http://www.highcharts.com/svg/namespace">
    <name>Enzkreis</name>
    <bundesland>DE.BW</bundesland>
    <hc-middle-x>0.77</hc-middle-x>
    <hc-middle-y>0.40</hc-middle-y>
    <hc-key>de-bw-08236000</hc-key>
    <hc-a2>EN</hc-a2>
  </desc>
</path>

<path fill="#CEE3F5" stroke="#6E6E6E" stroke-width="0.4" id="DE.BW.08235000" d="M249.6,297.0 L253.1,299.7 L256.1,309.1 L257.8,307.7 L263.7,315.5 L271.4,315.5 L270.4,316.8 L277.6,322.5 L276.5,328.3 L281.7,328.9 L286.7,332.0 L281.9,337.5 L283.5,340.5 L281.1,344.4 L278.0,344.9 L274.3,350.7 L270.2,352.5 L270.9,357.1 L268.6,358.8 L270.6,367.2 L269.4,372.5 L259.8,369.1 L263.2,386.8 L262.0,393.8 L263.9,395.0 L263.3,397.8 L261.2,400.5 L257.9,400.4 L256.7,405.7 L248.4,405.5 L244.3,398.5 L233.5,401.2 L228.8,397.8 L229.9,394.0 L235.2,389.8 L228.1,384.7 L226.4,387.7 L220.8,386.1 L224.2,382.5 L224.2,377.3 L221.4,380.1 L214.8,372.8 L208.8,372.3 L202.7,366.7 L202.0,368.6 L197.1,362.8 L190.0,358.0 L194.3,356.5 L197.1,352.3 L198.2,343.9 L196.3,340.8 L202.0,339.2 L200.3,334.0 L203.0,333.2 L205.8,321.7 L201.8,319.3 L192.9,325.7 L195.3,317.4 L193.4,311.9 L188.4,307.3 L189.4,301.2 L184.3,298.5 L184.6,297.9 L184.8,297.7 L189.4,298.7 L192.0,297.2 L197.3,303.7 L200.5,301.2 L207.7,302.0 L215.8,307.1 L212.5,309.2 L215.2,313.0 L219.0,312.0 L221.3,305.2 L227.1,302.7 L231.3,305.2 L232.1,299.9 L240.5,304.7 L249.2,303.4 L248.3,297.5 L248.1,296.5 Z">
  <desc xmlns="http://www.highcharts.com/svg/namespace">
    <name>Calw</name>
    <bundesland>DE.BW</bundesland>
    <hc-middle-x>0.49</hc-middle-x>
    <hc-middle-y>0.40</hc-middle-y>
    <hc-key>de-bw-08235000</hc-key>
    <hc-a2>CA</hc-a2>
  </desc>
</path>

<path fill="#CEE3F5" stroke="#6E6E6E" stroke-width="0.4" id="DE.BW.08416000" d="M261.2,400.5 L263.3,397.8 L263.9,395.0 L268.3,395.5 L269.6,398.6 L280.0,401.8 L279.6,399.0 L283.8,396.8 L280.9,390.2 L288.3,388.8 L288.9,381.8 L293.3,379.4 L297.7,381.8 L300.9,375.1 L307.1,373.6 L312.8,374.4 L318.8,378.0 L322.4,372.9 L326.0,372.8 L330.1,369.8 L331.3,364.0 L335.8,366.4 L334.4,369.1 L338.3,370.4 L337.5,381.1 L340.5,382.2 L342.9,386.9 L346.7,386.1 L347.5,393.2 L340.2,394.8 L339.8,400.1 L343.4,403.7 L337.5,407.4 L336.5,410.4 L340.3,411.8 L339.6,415.7 L336.4,418.9 L335.8,424.4 L341.7,428.9 L337.4,433.8 L338.4,441.3 L323.7,443.4 L323.2,441.5 L316.4,441.7 L311.3,438.1 L302.2,438.8 L301.1,436.3 L284.8,432.5 L284.3,428.1 L276.8,431.1 L270.5,430.5 L269.2,427.6 L264.9,427.8 L262.9,424.1 L266.2,418.1 L276.3,413.4 L269.4,406.5 L265.5,406.0 L263.9,401.2 Z M336.8,376.8 L337.1,376.0 L336.1,376.0 L335.9,376.4 Z M342.5,387.8 L342.3,387.0 L341.5,387.1 L341.8,388.1 Z">
  <desc xmlns="http://www.highcharts.com/svg/namespace">
    <name>Tübingen</name>
    <bundesland>DE.BW</bundesland>
    <hc-middle-x>0.61</hc-middle-x>
    <hc-middle-y>0.55</hc-middle-y>
    <hc-key>de-bw-08416000</hc-key>
    <hc-a2>TÜ</hc-a2>
  </desc>
</path>

<path fill="#CEE3F5" stroke="#6E6E6E" stroke-width="0.4" id="DE.BW.08231000" d="M249.6,297.0 L248.1,296.5 L248.3,297.5 L244.8,296.0 L241.7,297.6 L236.6,294.4 L235.7,291.6 L239.3,288.1 L238.6,279.8 L236.2,272.8 L239.5,271.1 L242.9,274.5 L249.0,270.4 L255.5,268.2 L259.8,268.7 L263.6,272.1 L261.9,277.6 L269.2,280.2 L269.7,287.9 L272.0,290.3 L264.4,293.8 L264.3,297.8 L257.3,296.5 L260.4,299.1 L254.6,302.7 L253.5,299.1 Z">
  <desc xmlns="http://www.highcharts.com/svg/namespace">
    <name>Pforzheim</name>
    <bundesland>DE.BW</bundesland>
    <hc-middle-x>0.47</hc-middle-x>
    <hc-middle-y>0.51</hc-middle-y>
    <hc-key>de-bw-08231000</hc-key>
    <hc-a2>PF</hc-a2>
  </desc>
</path>

<path fill="#CEE3F5" stroke="#6E6E6E" stroke-width="0.4" id="DE.BW.08125000" d="M286.3,235.5 L285.4,230.9 L286.7,228.3 L284.5,222.5 L289.9,220.2 L289.2,210.7 L285.1,205.5 L282.9,207.3 L276.7,207.5 L278.1,200.3 L274.2,196.2 L276.1,187.2 L274.6,186.0 L283.8,192.3 L290.5,189.9 L288.5,183.6 L302.9,180.3 L304.6,175.6 L307.0,175.4 L313.8,169.1 L315.5,164.0 L320.2,160.1 L315.9,154.9 L321.6,155.5 L326.2,160.0 L333.4,159.8 L336.2,162.0 L342.2,161.2 L342.7,157.9 L338.3,155.1 L343.2,154.7 L344.6,144.3 L346.9,145.9 L353.4,145.8 L356.5,150.8 L360.8,154.0 L364.9,151.3 L366.3,143.7 L370.0,143.9 L371.5,138.4 L375.6,135.4 L374.6,129.1 L379.1,126.0 L387.7,133.4 L392.6,132.4 L398.3,135.3 L401.6,133.0 L406.0,135.9 L407.3,145.5 L416.2,151.8 L408.6,152.9 L405.9,156.2 L402.2,155.6 L399.6,158.3 L395.9,169.8 L398.9,175.8 L401.9,178.5 L395.4,186.1 L388.2,185.8 L386.9,190.3 L381.6,193.4 L387.3,194.7 L390.0,199.7 L393.7,201.1 L399.6,199.3 L397.8,203.3 L403.0,209.6 L401.1,210.4 L400.7,216.2 L404.9,211.2 L409.3,212.3 L411.7,210.2 L410.1,205.7 L411.9,202.7 L415.2,204.6 L417.0,210.7 L419.2,212.4 L414.0,214.3 L413.9,221.6 L404.5,223.3 L400.5,227.5 L401.6,229.9 L396.6,231.5 L395.2,227.0 L391.7,228.2 L390.0,231.8 L393.2,232.6 L393.3,233.6 L393.2,234.4 L381.6,233.3 L371.9,236.5 L369.4,232.8 L366.3,237.0 L360.0,240.1 L356.9,235.9 L355.5,237.5 L349.6,237.0 L346.3,233.3 L347.2,230.6 L339.4,229.3 L335.8,226.4 L331.9,227.1 L333.4,230.5 L325.8,231.9 L323.9,238.6 L315.1,237.7 L313.2,239.8 L309.1,237.6 L309.5,234.8 L304.2,233.8 L297.0,235.0 L288.4,232.6 Z M337.9,193.5 L338.8,197.6 L344.4,199.9 L338.4,207.5 L342.6,211.8 L344.6,217.5 L347.5,213.9 L352.9,211.5 L363.4,214.2 L363.3,212.8 L372.2,209.2 L368.0,208.7 L368.4,203.7 L364.0,200.3 L364.1,195.7 L356.6,193.4 L355.0,188.1 L345.2,186.7 L342.2,181.7 L336.0,181.7 L333.9,185.1 L320.7,185.2 L331.0,193.5 Z">
  <desc xmlns="http://www.highcharts.com/svg/namespace">
    <name>Heilbronn</name>
    <bundesland>DE.BW</bundesland>
    <hc-middle-x>0.64</hc-middle-x>
    <hc-middle-y>0.36</hc-middle-y>
    <hc-key>de-bw-08125000</hc-key>
    <hc-a2>HE</hc-a2>
  </desc>
</path>

<path fill="#CEE3F5" stroke="#6E6E6E" stroke-width="0.4" id="DE.BW.08215000" d="M207.7,302.0 L200.5,301.2 L197.3,303.7 L192.0,297.2 L189.4,290.0 L186.5,292.7 L183.8,290.9 L179.7,294.2 L174.6,290.3 L169.2,288.3 L167.3,272.9 L171.4,269.9 L178.2,269.7 L179.5,266.2 L170.6,261.6 L160.4,258.8 L160.6,251.7 L162.3,250.2 L163.9,248.9 L168.3,248.6 L170.9,250.8 L174.7,249.2 L183.1,254.8 L186.4,259.5 L191.3,258.4 L197.0,255.1 L199.5,257.5 L196.8,262.8 L201.5,264.6 L211.1,264.1 L218.1,258.7 L211.2,256.3 L209.3,248.4 L213.8,241.6 L213.6,236.5 L205.8,227.2 L204.5,233.2 L201.9,232.8 L194.7,223.6 L196.5,217.6 L191.5,220.7 L190.9,226.6 L187.8,224.6 L179.9,223.8 L176.9,221.0 L181.1,213.9 L183.8,198.7 L182.8,194.9 L186.4,184.4 L189.2,181.5 L190.3,176.2 L186.4,177.7 L189.7,170.1 L196.0,166.0 L202.9,158.4 L207.4,156.0 L214.1,160.2 L215.2,163.7 L219.8,162.4 L225.2,164.8 L224.4,167.1 L238.9,173.2 L250.9,175.9 L255.8,172.6 L260.0,176.9 L261.4,182.3 L267.7,184.9 L274.6,186.0 L276.1,187.2 L274.2,196.2 L278.1,200.3 L276.7,207.5 L282.9,207.3 L285.1,205.5 L289.2,210.7 L289.9,220.2 L284.5,222.5 L286.7,228.3 L278.1,227.1 L278.7,234.6 L273.3,236.1 L270.1,232.3 L262.5,233.7 L261.6,232.4 L257.0,237.9 L258.3,245.8 L252.9,249.9 L250.0,247.6 L244.6,248.4 L242.0,244.1 L239.6,249.2 L235.7,248.2 L229.0,250.7 L225.1,249.5 L217.6,260.8 L216.6,268.9 L220.3,268.7 L216.2,276.1 L212.9,277.4 L214.7,283.6 L212.7,287.9 L206.3,293.2 L202.4,294.2 Z M184.8,297.7 L184.6,297.9 L184.3,298.5 L181.8,295.5 Z">
  <desc xmlns="http://www.highcharts.com/svg/namespace">
    <name>Karlsruhe</name>
    <bundesland>DE.BW</bundesland>
    <hc-middle-x>0.49</hc-middle-x>
    <hc-middle-y>0.35</hc-middle-y>
    <hc-key>de-bw-08215000</hc-key>
    <hc-a2>KA</hc-a2>
  </desc>
</path>

<path fill="#CEE3F5" stroke="#6E6E6E" stroke-width="0.4" id="DE.BW.08111000" d="M333.2,336.9 L328.9,335.0 L322.4,327.1 L325.0,322.4 L327.6,322.7 L329.4,313.9 L327.2,312.6 L329.4,306.0 L327.4,304.0 L330.9,296.8 L334.6,301.8 L340.0,299.9 L339.0,290.7 L343.1,289.6 L346.8,293.3 L354.2,292.2 L356.9,287.7 L359.5,293.2 L361.7,293.9 L361.2,300.4 L364.4,305.5 L364.9,309.6 L371.5,311.4 L376.0,316.4 L368.3,317.8 L365.3,326.0 L355.7,329.9 L362.1,341.3 L352.2,342.5 L347.0,338.8 L340.3,337.1 Z">
  <desc xmlns="http://www.highcharts.com/svg/namespace">
    <name>Stuttgart</name>
    <bundesland>DE.BW</bundesland>
    <hc-middle-x>0.39</hc-middle-x>
    <hc-middle-y>0.43</hc-middle-y>
    <hc-key>de-bw-08111000</hc-key>
    <hc-a2>ST</hc-a2>
  </desc>
</path>

<path fill="#CEE3F5" stroke="#6E6E6E" stroke-width="0.4" id="DE.BW.08222000" d="M227.1,113.8 L225.1,114.6 L225.2,117.0 L215.3,116.3 L209.7,118.3 L211.9,112.2 L210.1,108.6 L200.1,107.7 L198.5,104.8 L202.8,101.2 L199.4,94.0 L195.1,78.1 L193.2,73.3 L195.0,64.8 L203.4,62.9 L206.5,67.6 L209.6,68.1 L215.9,75.9 L221.1,84.5 L227.4,84.9 L228.2,90.4 L221.5,93.9 L219.7,97.9 L224.2,102.0 L228.6,103.5 L226.2,107.9 Z">
  <desc xmlns="http://www.highcharts.com/svg/namespace">
    <name>Mannheim</name>
    <bundesland>DE.BW</bundesland>
    <hc-middle-x>0.53</hc-middle-x>
    <hc-middle-y>0.49</hc-middle-y>
    <hc-key>de-bw-08222000</hc-key>
    <hc-a2>MA</hc-a2>
  </desc>
</path>

<path fill="#CEE3F5" stroke="#6E6E6E" stroke-width="0.4" id="DE.BW.08221000" d="M225.2,117.0 L225.1,114.6 L227.1,113.8 L232.6,114.3 L236.3,108.7 L240.0,110.5 L252.8,107.7 L253.4,106.2 L260.2,107.5 L262.0,103.6 L264.3,110.5 L268.5,112.0 L269.8,120.5 L266.6,121.4 L264.8,128.6 L259.0,129.9 L255.7,135.3 L242.2,133.9 L238.6,131.4 L237.3,136.8 L230.7,132.6 L232.0,129.2 L237.8,124.4 L236.8,117.8 L232.9,120.3 Z">
  <desc xmlns="http://www.highcharts.com/svg/namespace">
    <name>Heidelberg</name>
    <bundesland>DE.BW</bundesland>
    <hc-middle-x>0.52</hc-middle-x>
    <hc-middle-y>0.54</hc-middle-y>
    <hc-key>de-bw-08221000</hc-key>
    <hc-a2>HE</hc-a2>
  </desc>
</path>

<path fill="#CEE3F5" stroke="#6E6E6E" stroke-width="0.4" id="DE.BW.08212000" d="M163.9,248.9 L168.0,241.6 L169.5,233.2 L172.1,227.1 L176.9,221.0 L179.9,223.8 L187.8,224.6 L190.9,226.6 L191.5,220.7 L196.5,217.6 L194.7,223.6 L201.9,232.8 L204.5,233.2 L205.8,227.2 L213.6,236.5 L213.8,241.6 L209.3,248.4 L211.2,256.3 L218.1,258.7 L211.1,264.1 L201.5,264.6 L196.8,262.8 L199.5,257.5 L197.0,255.1 L191.3,258.4 L186.4,259.5 L183.1,254.8 L174.7,249.2 L170.9,250.8 L168.3,248.6 Z">
  <desc xmlns="http://www.highcharts.com/svg/namespace">
    <name>Karlsruhe</name>
    <bundesland>DE.BW</bundesland>
    <hc-middle-x>0.43</hc-middle-x>
    <hc-middle-y>0.56</hc-middle-y>
    <hc-key>de-bw-08212000</hc-key>
    <hc-a2>KA</hc-a2>
  </desc>
</path>

<path fill="#CEE3F5" stroke="#6E6E6E" stroke-width="0.4" id="DE.BW.08118000" d="M396.6,231.5 L395.9,232.4 L393.2,232.6 L390.0,231.8 L391.7,228.2 L395.2,227.0 Z M361.7,293.9 L359.5,293.2 L356.9,287.7 L354.2,292.2 L346.8,293.3 L343.1,289.6 L339.0,290.7 L340.0,299.9 L334.6,301.8 L330.9,296.8 L327.4,304.0 L329.4,306.0 L327.2,312.6 L329.4,313.9 L327.6,322.7 L325.0,322.4 L322.2,320.0 L320.5,312.0 L317.8,308.8 L321.2,304.0 L317.0,299.7 L310.7,298.6 L305.1,299.7 L303.4,292.4 L297.0,287.9 L292.7,274.2 L296.6,271.4 L292.8,271.2 L291.8,265.4 L297.2,266.2 L300.6,264.0 L300.4,258.4 L295.4,250.3 L298.0,249.4 L291.7,239.4 L286.3,235.5 L288.4,232.6 L297.0,235.0 L304.2,233.8 L309.5,234.8 L309.1,237.6 L313.2,239.8 L315.1,237.7 L323.9,238.6 L325.8,231.9 L333.4,230.5 L331.9,227.1 L335.8,226.4 L339.4,229.3 L347.2,230.6 L346.3,233.3 L349.6,237.0 L355.5,237.5 L356.9,235.9 L360.0,240.1 L366.3,237.0 L369.4,232.8 L371.9,236.5 L381.6,233.3 L393.2,234.4 L389.3,238.1 L390.3,240.0 L385.3,241.5 L378.2,246.3 L382.8,248.2 L386.8,252.8 L386.9,256.6 L382.6,257.1 L379.2,261.5 L374.0,261.7 L376.1,266.6 L381.0,268.8 L383.2,266.6 L386.5,274.0 L376.2,276.3 L372.5,282.0 L372.0,288.8 L364.0,289.5 Z">
  <desc xmlns="http://www.highcharts.com/svg/namespace">
    <name>Ludwigsburg</name>
    <bundesland>DE.BW</bundesland>
    <hc-middle-x>0.43</hc-middle-x>
    <hc-middle-y>0.46</hc-middle-y>
    <hc-key>de-bw-08118000</hc-key>
    <hc-a2>LU</hc-a2>
  </desc>
</path>

<path fill="#CEE3F5" stroke="#6E6E6E" stroke-width="0.4" id="DE.BW.08119000" d="M393.2,232.6 L395.9,232.4 L396.6,231.5 L401.6,229.9 L400.5,227.5 L404.5,223.3 L413.9,221.6 L417.4,222.1 L420.9,228.2 L427.9,230.0 L433.6,228.7 L436.9,231.0 L433.3,231.8 L437.0,234.8 L437.0,238.2 L433.9,243.9 L441.6,244.7 L443.6,247.7 L448.8,248.3 L447.3,250.2 L453.5,257.0 L454.0,262.5 L450.1,263.3 L452.2,268.7 L455.0,268.0 L456.3,274.0 L458.5,272.1 L463.4,276.4 L465.3,281.3 L463.6,284.9 L467.5,290.6 L469.3,297.6 L466.0,300.7 L459.3,303.5 L457.4,299.2 L446.8,300.2 L443.0,301.9 L445.0,305.1 L443.9,308.7 L438.9,311.8 L440.3,316.1 L437.8,317.7 L432.4,314.0 L428.9,317.0 L432.5,318.4 L431.0,323.7 L428.2,323.1 L424.2,326.7 L422.9,323.2 L417.7,320.0 L415.0,322.6 L412.8,318.5 L408.7,316.1 L401.1,316.0 L397.6,320.8 L395.3,314.9 L391.9,312.1 L391.0,317.6 L380.6,319.2 L376.0,316.4 L371.5,311.4 L364.9,309.6 L364.4,305.5 L361.2,300.4 L361.7,293.9 L364.0,289.5 L372.0,288.8 L372.5,282.0 L376.2,276.3 L386.5,274.0 L383.2,266.6 L381.0,268.8 L376.1,266.6 L374.0,261.7 L379.2,261.5 L382.6,257.1 L386.9,256.6 L386.8,252.8 L382.8,248.2 L378.2,246.3 L385.3,241.5 L390.3,240.0 L389.3,238.1 L393.2,234.4 L393.3,233.6 Z">
  <desc xmlns="http://www.highcharts.com/svg/namespace">
    <name>Rems-Murr-Kreis</name>
    <bundesland>DE.BW</bundesland>
    <hc-middle-x>0.49</hc-middle-x>
    <hc-middle-y>0.58</hc-middle-y>
    <hc-key>de-bw-08119000</hc-key>
    <hc-a2>RM</hc-a2>
  </desc>
</path>

<path fill="#CEE3F5" stroke="#6E6E6E" stroke-width="0.4" id="DE.BW.08311000" d="M67.0,533.6 L69.8,537.9 L72.2,539.2 L73.0,544.0 L77.3,545.7 L79.9,552.3 L87.9,551.3 L88.4,559.1 L85.0,562.0 L87.2,564.7 L85.3,567.1 L87.2,574.2 L83.3,579.0 L83.8,582.1 L76.3,585.5 L74.2,582.4 L77.7,571.4 L73.3,571.3 L71.5,567.6 L66.1,563.9 L62.0,566.5 L54.7,561.8 L46.0,561.9 L40.5,567.5 L32.6,565.4 L36.1,562.2 L36.3,555.8 L42.0,551.8 L42.5,544.0 L46.7,544.0 L52.8,549.3 L59.4,546.3 L60.9,538.7 L64.9,533.2 Z">
  <desc xmlns="http://www.highcharts.com/svg/namespace">
    <name>Freiburg im Breisgau</name>
    <bundesland>DE.BW</bundesland>
    <hc-middle-x>0.66</hc-middle-x>
    <hc-middle-y>0.47</hc-middle-y>
    <hc-key>de-bw-08311000</hc-key>
    <hc-a2>FI</hc-a2>
  </desc>
</path>

<path fill="#CEE3F5" stroke="#6E6E6E" stroke-width="0.4" id="DE.BW.08316000" d="M72.2,539.2 L69.8,537.9 L67.0,533.6 L58.6,528.5 L52.4,528.2 L54.2,523.9 L51.5,519.9 L47.9,521.7 L41.2,521.8 L38.8,518.6 L30.4,521.2 L29.4,519.9 L18.6,520.9 L15.7,518.5 L20.6,511.4 L21.0,505.1 L26.9,497.6 L30.1,490.3 L35.2,484.7 L38.0,474.9 L44.3,474.4 L49.0,481.4 L55.8,479.9 L65.8,485.5 L69.0,482.5 L85.8,487.7 L83.8,489.5 L90.4,490.1 L93.3,492.8 L100.0,492.9 L104.6,489.8 L102.5,487.1 L107.7,483.1 L114.7,487.1 L117.6,485.2 L125.6,491.4 L138.5,486.0 L139.6,490.5 L142.9,493.4 L141.4,499.1 L132.1,505.3 L133.3,512.5 L130.1,517.1 L135.5,525.2 L133.8,529.7 L138.0,532.7 L134.3,535.3 L130.1,533.4 L126.1,536.4 L130.1,543.4 L127.2,547.9 L131.7,553.3 L128.7,552.9 L122.6,542.8 L119.7,542.6 L118.6,538.0 L104.2,537.4 L94.2,535.9 L93.2,537.8 L87.1,535.3 L85.4,538.2 Z">
  <desc xmlns="http://www.highcharts.com/svg/namespace">
    <name>Emmendingen</name>
    <bundesland>DE.BW</bundesland>
    <hc-middle-x>0.47</hc-middle-x>
    <hc-middle-y>0.47</hc-middle-y>
    <hc-key>de-bw-08316000</hc-key>
    <hc-a2>EM</hc-a2>
  </desc>
</path>

<path fill="#CEE3F5" stroke="#6E6E6E" stroke-width="0.4" id="DE.BW.08135000" d="M566.5,398.1 L567.6,397.8 L567.1,399.7 Z M604.2,323.1 L608.3,327.8 L612.0,327.7 L615.9,338.4 L619.3,340.3 L609.9,347.7 L602.0,349.1 L605.1,344.8 L605.0,338.5 L601.4,337.4 L598.1,340.6 L597.6,347.3 L589.7,351.3 L588.8,343.6 L584.0,340.4 L582.7,342.7 L572.5,336.4 L573.5,341.9 L570.1,343.6 L569.8,348.7 L572.7,354.1 L575.3,354.0 L578.9,361.0 L584.2,365.6 L578.9,367.3 L578.1,371.7 L581.7,375.7 L582.7,382.0 L580.0,385.6 L582.4,392.4 L579.2,394.3 L570.4,394.0 L565.7,396.5 L562.1,394.5 L561.3,388.7 L555.1,383.9 L541.2,382.7 L538.1,376.0 L528.4,371.8 L525.9,367.2 L515.9,368.4 L516.2,370.5 L510.5,371.0 L511.3,364.8 L506.0,359.7 L501.3,358.1 L503.4,348.6 L506.0,350.1 L510.9,347.2 L509.9,339.0 L515.7,336.7 L514.7,329.9 L520.4,328.1 L519.5,320.4 L524.8,318.0 L526.9,323.6 L531.7,323.5 L537.7,318.5 L544.3,317.6 L548.1,310.8 L547.8,315.5 L550.9,315.8 L550.7,320.6 L553.1,322.8 L553.9,313.9 L562.3,311.8 L563.6,315.5 L568.3,315.6 L568.6,318.1 L576.2,320.2 L582.8,327.0 L590.8,327.8 L591.9,323.6 L594.3,325.4 L596.4,322.1 L601.6,324.3 Z">
  <desc xmlns="http://www.highcharts.com/svg/namespace">
    <name>Heidenheim</name>
    <bundesland>DE.BW</bundesland>
    <hc-middle-x>0.36</hc-middle-x>
    <hc-middle-y>0.36</hc-middle-y>
    <hc-key>de-bw-08135000</hc-key>
    <hc-a2>HE</hc-a2>
  </desc>
</path>

<path fill="#CEE3F5" stroke="#6E6E6E" stroke-width="0.4" id="DE.BW.08417000" d="M257.2,439.7 L261.7,438.2 L263.3,428.5 L264.9,427.8 L269.2,427.6 L270.5,430.5 L276.8,431.1 L284.3,428.1 L284.8,432.5 L301.1,436.3 L302.2,438.8 L311.3,438.1 L316.4,441.7 L323.2,441.5 L323.7,443.4 L338.4,441.3 L348.7,442.9 L346.2,447.4 L347.7,450.1 L355.7,453.6 L355.3,461.6 L345.1,460.0 L350.4,469.9 L350.5,472.5 L342.5,475.7 L339.1,475.5 L333.8,478.6 L334.8,483.7 L344.7,488.1 L350.4,492.2 L348.0,495.5 L349.5,504.1 L347.9,509.2 L344.0,512.8 L336.7,512.1 L334.8,508.4 L329.8,510.9 L324.8,510.0 L319.2,506.3 L313.8,507.6 L308.3,518.6 L302.3,519.9 L302.0,523.8 L299.0,525.0 L293.6,522.8 L287.7,524.4 L282.6,512.5 L276.7,510.7 L276.9,505.9 L273.0,500.4 L263.7,500.3 L262.6,506.4 L259.9,507.5 L254.3,503.5 L253.3,500.7 L257.3,498.2 L258.5,494.7 L252.2,492.1 L249.0,480.8 L251.1,478.4 L246.4,474.1 L242.8,473.6 L244.9,468.7 L238.6,467.2 L242.7,462.3 L246.4,462.6 L253.3,459.2 L253.5,457.3 L248.1,455.0 L258.5,448.3 L256.7,445.2 Z">
  <desc xmlns="http://www.highcharts.com/svg/namespace">
    <name>Zollernalbkreis</name>
    <bundesland>DE.BW</bundesland>
    <hc-middle-x>0.53</hc-middle-x>
    <hc-middle-y>0.47</hc-middle-y>
    <hc-key>de-bw-08417000</hc-key>
    <hc-a2>ZO</hc-a2>
  </desc>
</path>

<path fill="#CEE3F5" stroke="#6E6E6E" stroke-width="0.4" id="DE.BW.08237000" d="M264.9,427.8 L263.3,428.5 L261.7,438.2 L257.2,439.7 L253.2,439.7 L246.9,436.0 L244.6,432.5 L240.2,434.4 L237.2,432.0 L228.9,432.8 L228.1,429.3 L219.8,432.7 L217.1,431.0 L212.8,432.4 L212.0,436.8 L204.8,438.1 L205.2,442.4 L208.2,445.6 L202.0,449.0 L205.4,453.5 L208.5,454.1 L206.8,459.1 L199.4,459.6 L196.5,463.2 L193.3,456.2 L186.4,456.4 L179.0,451.5 L177.9,438.0 L172.7,436.3 L169.9,442.2 L171.0,444.9 L167.5,448.1 L157.4,441.0 L159.3,438.6 L155.9,436.7 L153.0,431.7 L157.5,427.8 L160.5,417.0 L160.2,404.0 L155.0,403.5 L150.4,398.5 L149.3,394.2 L151.0,382.6 L154.1,376.1 L148.2,369.0 L151.3,368.9 L159.6,373.3 L171.2,373.7 L179.4,369.3 L177.6,367.2 L184.3,364.2 L185.2,360.3 L190.0,358.0 L197.1,362.8 L202.0,368.6 L202.7,366.7 L208.8,372.3 L214.8,372.8 L221.4,380.1 L224.2,377.3 L224.2,382.5 L220.8,386.1 L226.4,387.7 L228.1,384.7 L235.2,389.8 L229.9,394.0 L228.8,397.8 L233.5,401.2 L244.3,398.5 L248.4,405.5 L256.7,405.7 L257.9,400.4 L261.2,400.5 L263.9,401.2 L265.5,406.0 L269.4,406.5 L276.3,413.4 L266.2,418.1 L262.9,424.1 Z">
  <desc xmlns="http://www.highcharts.com/svg/namespace">
    <name>Freudenstadt</name>
    <bundesland>DE.BW</bundesland>
    <hc-middle-x>0.35</hc-middle-x>
    <hc-middle-y>0.43</hc-middle-y>
    <hc-key>de-bw-08237000</hc-key>
    <hc-a2>FR</hc-a2>
  </desc>
</path>

<path fill="#CEE3F5" stroke="#6E6E6E" stroke-width="0.4" id="DE.BW.08128000" d="M394.5,40.1 L391.9,37.9 L396.3,31.8 L396.3,26.7 L392.2,19.8 L388.2,20.7 L388.7,26.5 L383.7,27.5 L382.0,22.1 L387.0,20.1 L380.5,18.2 L376.7,19.2 L371.3,16.8 L376.8,14.6 L375.5,7.5 L382.3,7.4 L386.6,4.3 L390.4,7.0 L396.2,1.3 L398.8,1.3 L404.1,7.0 L408.9,1.4 L413.2,1.3 L416.6,9.6 L421.9,8.2 L423.4,13.8 L426.2,12.8 L424.0,4.4 L436.4,2.4 L442.1,0.0 L442.3,8.2 L440.1,11.7 L441.6,13.9 L440.8,21.2 L437.7,27.3 L442.8,32.1 L447.9,30.4 L448.1,23.3 L452.7,23.1 L454.6,19.9 L456.6,27.7 L460.0,32.1 L463.4,25.1 L466.5,22.3 L472.1,21.7 L479.3,26.9 L477.8,39.5 L480.0,44.7 L484.2,46.2 L487.9,55.9 L481.5,60.6 L483.1,66.0 L475.4,72.4 L485.4,75.8 L486.4,69.0 L493.2,62.6 L496.6,64.5 L493.4,71.1 L497.7,70.3 L498.8,87.3 L496.6,92.1 L499.2,94.7 L504.9,95.9 L508.8,94.3 L518.3,94.0 L519.6,88.5 L523.3,87.5 L526.0,83.7 L521.4,80.5 L530.7,76.2 L532.4,79.5 L529.6,81.8 L530.9,86.0 L538.5,86.0 L534.3,92.4 L537.6,96.1 L537.6,101.5 L533.4,105.7 L541.4,108.9 L547.2,123.4 L543.9,125.3 L537.2,125.2 L535.9,122.1 L528.2,123.0 L521.1,125.5 L522.7,130.3 L509.1,128.3 L506.3,133.5 L501.2,135.8 L499.1,129.2 L494.3,131.3 L492.7,129.0 L485.2,131.1 L480.1,123.0 L476.2,124.9 L473.8,119.0 L468.7,123.4 L467.4,121.8 L456.1,121.9 L453.9,116.0 L447.8,119.4 L447.8,117.0 L441.0,117.5 L441.8,112.4 L434.0,113.5 L431.1,109.4 L421.4,106.5 L419.1,108.3 L414.4,106.4 L415.5,97.0 L411.1,94.6 L411.8,90.0 L414.0,90.4 L416.3,85.8 L419.2,86.3 L421.7,81.3 L417.2,79.4 L417.5,77.0 L413.4,68.3 L412.5,63.7 L415.0,59.0 L421.5,59.3 L420.5,53.8 L423.0,52.9 L420.4,47.3 L418.4,48.9 L407.8,46.6 L402.5,44.4 L402.7,42.4 Z">
  <desc xmlns="http://www.highcharts.com/svg/namespace">
    <name>Main-Tauber-Kreis</name>
    <bundesland>DE.BW</bundesland>
    <hc-middle-x>0.49</hc-middle-x>
    <hc-middle-y>0.58</hc-middle-y>
    <hc-key>de-bw-08128000</hc-key>
    <hc-a2>MT</hc-a2>
  </desc>
</path>

<path fill="#CEE3F5" stroke="#6E6E6E" stroke-width="0.4" id="DE.BW.08435000" d="M457.1,677.4 L455.3,679.4 L449.8,677.2 L440.7,686.8 L437.0,684.7 L432.0,686.0 L427.3,684.8 L422.8,679.9 L419.8,670.2 L415.6,665.5 L408.4,665.3 L400.2,660.9 L395.0,659.9 L384.9,662.3 L377.2,658.5 L366.9,651.9 L359.9,644.1 L358.7,637.8 L343.4,629.2 L326.4,617.0 L329.1,611.5 L326.3,607.0 L326.2,601.2 L329.4,601.4 L333.3,606.4 L338.5,604.7 L351.3,606.5 L358.3,600.8 L361.2,602.6 L363.8,598.8 L361.6,595.1 L367.3,593.8 L371.0,600.3 L375.6,601.2 L378.7,598.3 L396.0,613.7 L397.3,612.4 L405.5,611.1 L402.9,615.7 L408.5,616.6 L407.3,621.6 L403.1,624.6 L404.7,631.0 L409.1,630.0 L416.6,634.2 L414.9,638.4 L422.0,640.3 L430.1,640.0 L430.9,638.4 L437.0,641.8 L441.7,646.4 L442.4,649.6 L449.3,648.5 L448.4,652.5 L455.1,655.2 L457.5,653.4 L463.8,654.4 L464.9,659.9 L467.9,663.8 L465.0,669.0 L460.2,670.9 L456.2,669.7 L454.9,672.2 Z">
  <desc xmlns="http://www.highcharts.com/svg/namespace">
    <name>Bodenseekreis</name>
    <bundesland>DE.BW</bundesland>
    <hc-middle-x>0.39</hc-middle-x>
    <hc-middle-y>0.42</hc-middle-y>
    <hc-key>de-bw-08435000</hc-key>
    <hc-a2>BO</hc-a2>
  </desc>
</path>

<path fill="#CEE3F5" stroke="#6E6E6E" stroke-width="0.4" id="DE.BW.08127000" d="M537.2,125.2 L537.6,133.0 L536.0,139.7 L539.2,143.7 L543.2,143.6 L544.3,146.4 L541.6,150.0 L545.4,155.1 L544.9,161.3 L541.0,163.5 L539.7,159.9 L538.2,165.3 L541.9,165.7 L540.3,168.4 L540.8,174.2 L543.7,179.8 L540.8,179.3 L540.7,182.7 L547.2,184.8 L548.0,187.9 L553.8,190.4 L557.1,196.2 L561.1,194.2 L567.6,201.4 L566.8,205.3 L561.8,210.0 L559.5,209.3 L557.5,214.1 L562.4,216.6 L566.8,215.6 L563.9,221.5 L568.4,222.6 L568.2,225.9 L563.8,230.0 L556.4,231.9 L553.2,225.9 L546.2,228.8 L545.9,231.6 L540.6,230.4 L540.0,233.2 L536.4,231.2 L525.7,232.2 L520.0,228.8 L515.3,234.9 L512.7,234.0 L510.8,239.1 L514.3,239.3 L518.0,251.3 L509.3,251.9 L504.5,253.6 L502.2,258.2 L499.4,255.1 L494.0,261.3 L496.0,263.1 L491.6,270.6 L488.5,269.1 L482.6,271.1 L481.2,268.5 L484.5,265.8 L474.7,263.1 L474.7,259.4 L471.1,260.6 L464.8,259.2 L459.9,253.4 L457.6,259.4 L453.5,257.0 L447.3,250.2 L448.8,248.3 L443.6,247.7 L441.6,244.7 L433.9,243.9 L437.0,238.2 L437.0,234.8 L433.3,231.8 L436.9,231.0 L433.6,228.7 L427.9,230.0 L420.9,228.2 L417.4,222.1 L413.9,221.6 L414.0,214.3 L419.2,212.4 L423.0,204.9 L436.7,212.2 L436.7,208.9 L431.7,207.7 L429.8,204.6 L434.2,202.1 L440.2,202.8 L444.6,205.2 L448.8,199.6 L448.8,195.5 L452.3,193.6 L453.2,187.7 L456.1,184.8 L463.3,185.2 L465.1,180.0 L463.5,176.3 L467.3,175.9 L467.0,170.2 L471.9,166.3 L479.8,163.2 L481.8,156.1 L485.5,156.4 L485.0,151.6 L482.4,149.6 L485.4,147.3 L485.9,142.8 L482.8,138.1 L485.2,131.1 L492.7,129.0 L494.3,131.3 L499.1,129.2 L501.2,135.8 L506.3,133.5 L509.1,128.3 L522.7,130.3 L521.1,125.5 L528.2,123.0 L535.9,122.1 Z">
  <desc xmlns="http://www.highcharts.com/svg/namespace">
    <name>Schwäbisch Hall</name>
    <bundesland>DE.BW</bundesland>
    <hc-middle-x>0.46</hc-middle-x>
    <hc-middle-y>0.62</hc-middle-y>
    <hc-key>de-bw-08127000</hc-key>
    <hc-a2>SH</hc-a2>
  </desc>
</path>

<path fill="#CEE3F5" stroke="#6E6E6E" stroke-width="0.4" id="DE.BW.08335000" d="M241.3,646.0 L245.4,647.5 L249.0,645.5 L252.4,653.1 L247.1,651.7 L242.2,654.9 L240.0,652.9 L243.8,650.9 Z M326.4,617.0 L319.9,613.9 L318.0,617.3 L325.5,625.5 L336.4,632.2 L340.2,635.7 L342.9,635.2 L348.0,639.6 L349.3,648.7 L356.0,655.7 L357.3,660.8 L349.1,660.6 L348.5,664.6 L342.8,660.4 L338.5,660.7 L335.2,654.8 L328.7,655.5 L320.7,652.4 L321.7,648.1 L330.1,654.1 L334.5,653.3 L332.9,649.8 L310.5,637.0 L308.1,637.9 L314.9,643.6 L303.4,638.8 L299.1,640.4 L300.0,643.1 L310.0,648.2 L312.9,651.3 L311.3,654.4 L298.9,662.3 L289.3,665.2 L285.5,663.9 L285.1,659.5 L280.3,656.2 L285.3,652.1 L284.7,648.8 L279.8,649.3 L279.3,646.8 L273.7,646.3 L271.3,638.8 L266.6,641.9 L263.3,648.1 L269.2,649.4 L267.6,658.0 L259.7,653.2 L254.6,652.5 L256.4,645.2 L251.1,640.9 L253.7,636.1 L257.1,633.8 L251.8,629.9 L246.4,632.1 L244.7,623.8 L239.8,619.0 L237.4,623.1 L239.0,627.4 L234.5,632.1 L230.8,618.7 L233.3,614.7 L234.0,606.7 L236.4,602.1 L239.7,604.1 L247.2,602.8 L248.2,595.3 L250.4,594.4 L254.2,587.7 L256.4,592.6 L264.3,589.8 L269.9,591.2 L270.2,582.8 L273.3,579.8 L274.8,590.0 L273.5,592.2 L279.3,595.0 L283.2,590.7 L286.0,585.0 L295.7,581.4 L301.8,577.6 L304.3,580.7 L308.5,576.6 L314.1,576.8 L321.9,577.2 L326.4,575.1 L325.3,582.7 L331.9,583.8 L338.4,588.7 L341.9,588.6 L342.8,594.9 L336.3,601.0 L338.5,604.7 L333.3,606.4 L329.4,601.4 L326.2,601.2 L326.3,607.0 L329.1,611.5 Z">
  <desc xmlns="http://www.highcharts.com/svg/namespace">
    <name>Konstanz</name>
    <bundesland>DE.BW</bundesland>
    <hc-middle-x>0.44</hc-middle-x>
    <hc-middle-y>0.42</hc-middle-y>
    <hc-key>de-bw-08335000</hc-key>
    <hc-a2>KO</hc-a2>
  </desc>
</path>

<path fill="#CEE3F5" stroke="#6E6E6E" stroke-width="0.4" id="DE.BW.08327000" d="M314.1,576.8 L308.5,576.6 L304.3,580.7 L301.8,577.6 L295.7,581.4 L286.0,585.0 L283.2,590.7 L279.3,595.0 L273.5,592.2 L274.8,590.0 L273.3,579.8 L270.2,582.8 L269.9,591.2 L264.3,589.8 L256.4,592.6 L254.2,587.7 L250.4,594.4 L248.2,595.3 L247.2,602.8 L239.7,604.1 L236.4,602.1 L229.8,595.1 L232.5,592.0 L226.4,587.3 L225.7,574.0 L229.0,572.0 L235.7,572.5 L238.3,565.0 L241.3,566.0 L239.1,559.6 L240.3,557.1 L234.6,552.4 L237.5,546.5 L235.9,541.8 L229.3,533.7 L228.2,530.7 L240.3,519.9 L245.6,520.6 L250.5,513.5 L258.7,512.0 L259.9,507.5 L262.6,506.4 L263.7,500.3 L273.0,500.4 L276.9,505.9 L276.7,510.7 L282.6,512.5 L287.7,524.4 L293.6,522.8 L299.0,525.0 L302.0,523.8 L303.8,528.9 L307.5,530.6 L310.9,536.1 L306.4,539.8 L298.1,539.0 L298.2,542.7 L301.5,543.5 L301.6,547.9 L305.6,544.7 L306.9,547.1 L313.2,549.2 L315.7,560.7 L314.1,565.2 L316.0,573.5 Z">
  <desc xmlns="http://www.highcharts.com/svg/namespace">
    <name>Tuttlingen</name>
    <bundesland>DE.BW</bundesland>
    <hc-middle-x>0.57</hc-middle-x>
    <hc-middle-y>0.51</hc-middle-y>
    <hc-key>de-bw-08327000</hc-key>
    <hc-a2>TU</hc-a2>
  </desc>
</path>

<path fill="#CEE3F5" stroke="#6E6E6E" stroke-width="0.4" id="DE.BW.08336000" d="M79.2,684.0 L72.5,683.4 L68.0,685.1 L63.5,683.5 L58.6,692.5 L47.8,696.7 L42.2,697.3 L37.4,700.0 L31.4,698.8 L27.6,695.1 L27.4,691.4 L34.9,688.0 L31.6,681.5 L27.1,679.9 L21.4,686.0 L15.2,681.9 L16.0,678.5 L12.2,673.7 L10.8,668.8 L1.3,658.6 L0.0,646.5 L5.7,641.7 L7.0,634.0 L11.8,628.0 L13.0,624.1 L21.8,624.7 L22.5,630.0 L31.6,624.1 L33.6,625.8 L44.6,620.4 L55.4,620.3 L55.7,616.3 L60.8,615.7 L65.2,611.5 L70.3,609.0 L69.4,606.3 L76.9,602.2 L79.5,593.6 L88.5,594.6 L90.6,593.1 L99.3,597.6 L105.3,597.4 L106.3,605.1 L102.5,609.4 L102.6,627.3 L98.2,628.0 L95.8,632.8 L96.9,635.4 L93.2,639.7 L97.8,644.6 L97.3,650.5 L91.3,655.8 L86.4,656.9 L82.8,659.9 L82.7,664.3 L74.7,665.7 L76.0,674.4 L80.8,679.3 Z">
  <desc xmlns="http://www.highcharts.com/svg/namespace">
    <name>Lörrach</name>
    <bundesland>DE.BW</bundesland>
    <hc-middle-x>0.47</hc-middle-x>
    <hc-middle-y>0.56</hc-middle-y>
    <hc-key>de-bw-08336000</hc-key>
    <hc-a2>LÖ</hc-a2>
  </desc>
</path>

<path fill="#CEE3F5" stroke="#6E6E6E" stroke-width="0.4" id="DE.BW.08337000" d="M209.1,626.4 L201.6,629.8 L196.4,637.9 L195.7,642.8 L189.4,646.8 L186.7,650.5 L190.1,654.9 L186.9,657.8 L195.2,664.3 L199.8,663.6 L200.4,668.9 L202.6,665.8 L213.4,666.8 L212.4,662.4 L220.1,659.4 L223.1,662.0 L227.3,658.6 L233.5,664.5 L230.9,669.5 L229.0,664.9 L226.8,667.8 L228.5,677.4 L223.9,682.4 L219.5,680.8 L221.9,677.8 L218.7,673.5 L209.9,670.6 L208.4,675.7 L202.2,676.3 L197.5,680.3 L199.6,685.9 L205.3,686.5 L198.6,689.7 L191.5,691.3 L184.7,688.1 L182.5,691.3 L171.5,690.0 L164.1,684.1 L164.1,679.0 L156.0,675.9 L148.8,678.8 L144.5,674.1 L135.6,682.4 L132.3,682.1 L129.9,685.5 L125.0,685.5 L120.6,693.3 L116.2,691.3 L106.1,695.5 L101.2,693.5 L91.5,693.8 L90.4,697.0 L83.9,696.1 L82.7,688.8 L79.2,684.0 L80.8,679.3 L76.0,674.4 L74.7,665.7 L82.7,664.3 L82.8,659.9 L86.4,656.9 L91.3,655.8 L97.3,650.5 L97.8,644.6 L93.2,639.7 L96.9,635.4 L95.8,632.8 L98.2,628.0 L102.6,627.3 L102.5,609.4 L106.3,605.1 L108.4,602.4 L114.6,599.7 L118.2,601.3 L123.2,616.1 L128.4,617.6 L132.9,622.5 L134.6,626.8 L140.7,623.8 L143.0,630.1 L147.6,628.7 L145.7,623.0 L148.7,615.8 L146.7,612.4 L151.2,610.8 L150.1,608.0 L156.2,606.7 L157.9,602.4 L163.4,602.1 L169.8,605.6 L177.3,604.8 L183.9,606.0 L188.7,602.7 L194.3,602.2 L201.2,604.4 L200.9,609.2 L208.3,609.5 L209.8,615.5 L205.3,619.9 L208.9,619.5 L213.0,623.4 Z">
  <desc xmlns="http://www.highcharts.com/svg/namespace">
    <name>Waldshut</name>
    <bundesland>DE.BW</bundesland>
    <hc-middle-x>0.46</hc-middle-x>
    <hc-middle-y>0.49</hc-middle-y>
    <hc-key>de-bw-08337000</hc-key>
    <hc-a2>WA</hc-a2>
  </desc>
</path>

<path fill="#CEE3F5" stroke="#6E6E6E" stroke-width="0.4" id="DE.BW.08436000" d="M542.0,563.5 L538.5,565.4 L538.6,571.0 L543.4,575.0 L543.5,583.3 L541.7,584.8 L542.6,591.8 L539.8,596.7 L536.7,596.7 L538.0,600.4 L542.5,597.6 L543.5,604.9 L549.8,614.5 L545.9,613.7 L541.1,616.2 L534.5,622.1 L538.3,626.7 L545.4,629.6 L545.7,642.7 L550.6,647.6 L548.3,651.5 L548.6,656.0 L544.8,659.2 L541.1,658.0 L537.2,667.4 L537.3,661.7 L533.8,654.9 L527.8,656.9 L527.5,653.1 L521.8,654.6 L515.4,663.5 L497.6,659.8 L492.3,656.3 L486.7,657.7 L483.1,665.0 L479.6,664.9 L478.6,669.5 L467.2,679.3 L468.2,675.3 L460.0,680.2 L457.1,677.4 L454.9,672.2 L456.2,669.7 L460.2,670.9 L465.0,669.0 L467.9,663.8 L464.9,659.9 L463.8,654.4 L457.5,653.4 L455.1,655.2 L448.4,652.5 L449.3,648.5 L442.4,649.6 L441.7,646.4 L437.0,641.8 L430.9,638.4 L430.1,640.0 L422.0,640.3 L414.9,638.4 L416.6,634.2 L409.1,630.0 L404.7,631.0 L403.1,624.6 L407.3,621.6 L408.5,616.6 L402.9,615.7 L405.5,611.1 L397.3,612.4 L395.5,599.9 L391.7,599.2 L390.3,594.5 L395.4,587.5 L394.8,581.9 L397.8,581.4 L396.5,575.3 L400.2,575.5 L399.7,569.2 L404.9,570.3 L406.7,567.8 L411.2,570.1 L414.6,567.9 L419.7,559.9 L423.4,567.1 L429.0,567.0 L429.4,561.8 L427.2,561.2 L427.3,555.0 L430.0,558.4 L437.7,556.0 L441.7,567.4 L447.9,566.6 L450.0,563.9 L454.5,566.7 L458.1,561.8 L460.3,565.4 L463.4,563.7 L472.4,565.7 L471.6,569.8 L477.7,571.2 L479.3,568.4 L484.1,568.4 L486.8,570.8 L491.0,567.1 L493.9,561.6 L501.4,560.8 L504.7,566.6 L511.2,568.9 L516.4,563.7 L518.9,567.0 L521.9,565.0 L521.7,570.5 L528.6,572.2 L534.8,563.4 L538.7,561.3 Z">
  <desc xmlns="http://www.highcharts.com/svg/namespace">
    <name>Ravensburg</name>
    <bundesland>DE.BW</bundesland>
    <hc-middle-x>0.50</hc-middle-x>
    <hc-middle-y>0.44</hc-middle-y>
    <hc-key>de-bw-08436000</hc-key>
    <hc-a2>RA</hc-a2>
  </desc>
</path>

<path fill="#CEE3F5" stroke="#6E6E6E" stroke-width="0.4" id="DE.BW.08126000" d="M434.0,113.5 L441.8,112.4 L441.0,117.5 L447.8,117.0 L447.8,119.4 L453.9,116.0 L456.1,121.9 L467.4,121.8 L468.7,123.4 L473.8,119.0 L476.2,124.9 L480.1,123.0 L485.2,131.1 L482.8,138.1 L485.9,142.8 L485.4,147.3 L482.4,149.6 L485.0,151.6 L485.5,156.4 L481.8,156.1 L479.8,163.2 L471.9,166.3 L467.0,170.2 L467.3,175.9 L463.5,176.3 L465.1,180.0 L463.3,185.2 L456.1,184.8 L453.2,187.7 L452.3,193.6 L448.8,195.5 L448.8,199.6 L444.6,205.2 L440.2,202.8 L434.2,202.1 L429.8,204.6 L431.7,207.7 L436.7,208.9 L436.7,212.2 L423.0,204.9 L419.2,212.4 L417.0,210.7 L415.2,204.6 L411.9,202.7 L410.1,205.7 L411.7,210.2 L409.3,212.3 L404.9,211.2 L400.7,216.2 L401.1,210.4 L403.0,209.6 L397.8,203.3 L399.6,199.3 L393.7,201.1 L390.0,199.7 L387.3,194.7 L381.6,193.4 L386.9,190.3 L388.2,185.8 L395.4,186.1 L401.9,178.5 L398.9,175.8 L395.9,169.8 L399.6,158.3 L402.2,155.6 L405.9,156.2 L408.6,152.9 L416.2,151.8 L407.3,145.5 L406.0,135.9 L401.6,133.0 L402.2,124.8 L405.9,122.9 L408.1,126.5 L415.7,129.5 L417.1,127.7 L427.6,129.4 L432.1,124.3 L427.4,116.5 Z">
  <desc xmlns="http://www.highcharts.com/svg/namespace">
    <name>Hohenlohekreis</name>
    <bundesland>DE.BW</bundesland>
    <hc-middle-x>0.54</hc-middle-x>
    <hc-middle-y>0.45</hc-middle-y>
    <hc-key>de-bw-08126000</hc-key>
    <hc-a2>HO</hc-a2>
  </desc>
</path>

<path fill="#CEE3F5" stroke="#6E6E6E" stroke-width="0.4" id="DE.BW.08426000" d="M539.3,504.6 L541.9,514.5 L548.0,520.8 L548.0,531.5 L549.6,532.1 L549.4,540.9 L546.5,545.7 L548.0,550.0 L545.0,554.4 L544.2,562.9 L542.0,563.5 L538.7,561.3 L534.8,563.4 L528.6,572.2 L521.7,570.5 L521.9,565.0 L518.9,567.0 L516.4,563.7 L511.2,568.9 L504.7,566.6 L501.4,560.8 L493.9,561.6 L491.0,567.1 L486.8,570.8 L484.1,568.4 L479.3,568.4 L477.7,571.2 L471.6,569.8 L472.4,565.7 L463.4,563.7 L460.3,565.4 L458.1,561.8 L454.5,566.7 L450.0,563.9 L447.9,566.6 L441.7,567.4 L437.7,556.0 L435.0,549.9 L432.3,549.5 L430.1,542.9 L425.7,542.1 L421.5,536.4 L418.4,537.1 L416.1,533.2 L411.1,534.0 L394.0,526.2 L391.6,528.8 L385.3,527.7 L385.6,524.5 L379.7,522.2 L377.9,517.0 L372.4,514.3 L371.7,510.7 L366.5,511.4 L367.5,507.5 L371.8,507.7 L374.9,501.4 L378.2,498.2 L376.3,494.4 L375.5,487.3 L380.1,486.4 L383.8,482.6 L387.7,486.9 L392.0,495.3 L399.1,493.9 L402.6,496.4 L403.2,493.3 L408.1,491.9 L408.8,495.8 L415.1,490.8 L413.3,484.5 L420.4,487.5 L421.1,492.1 L424.8,494.2 L425.0,497.6 L431.9,496.7 L435.4,492.4 L441.2,494.5 L442.1,498.3 L445.2,497.9 L448.7,503.9 L448.9,507.7 L454.6,500.8 L462.3,503.3 L466.3,501.7 L464.7,498.3 L465.9,492.9 L470.6,490.5 L470.3,485.9 L476.6,484.3 L476.2,480.1 L483.5,477.6 L486.9,479.7 L487.5,475.3 L493.0,470.3 L494.5,464.8 L503.5,468.5 L503.7,472.5 L510.4,472.1 L516.8,474.3 L517.2,480.2 L521.9,478.6 L523.6,484.3 L527.6,484.8 L526.1,488.1 L526.9,493.5 L533.6,496.7 L528.7,499.2 L529.3,504.3 L526.8,508.2 L521.3,508.7 L529.9,511.5 Z">
  <desc xmlns="http://www.highcharts.com/svg/namespace">
    <name>Biberach</name>
    <bundesland>DE.BW</bundesland>
    <hc-middle-x>0.61</hc-middle-x>
    <hc-middle-y>0.61</hc-middle-y>
    <hc-key>de-bw-08426000</hc-key>
    <hc-a2>BI</hc-a2>
  </desc>
</path>

<path fill="#CEE3F5" stroke="#6E6E6E" stroke-width="0.4" id="DE.BW.08326000" d="M131.7,553.3 L127.2,547.9 L130.1,543.4 L126.1,536.4 L130.1,533.4 L134.3,535.3 L138.0,532.7 L133.8,529.7 L135.5,525.2 L130.1,517.1 L133.3,512.5 L132.1,505.3 L141.4,499.1 L150.5,507.2 L153.4,503.8 L154.0,498.5 L162.6,503.1 L167.6,502.8 L170.2,506.1 L174.6,506.1 L184.0,502.6 L191.9,504.5 L195.8,508.2 L194.5,500.3 L202.6,501.3 L203.8,504.4 L211.2,505.1 L215.3,514.5 L219.7,516.5 L216.5,521.7 L223.7,529.7 L221.6,532.1 L224.7,534.5 L229.3,533.7 L235.9,541.8 L237.5,546.5 L234.6,552.4 L240.3,557.1 L239.1,559.6 L241.3,566.0 L238.3,565.0 L235.7,572.5 L229.0,572.0 L225.7,574.0 L226.4,587.3 L232.5,592.0 L229.8,595.1 L236.4,602.1 L234.0,606.7 L233.3,614.7 L230.8,618.7 L222.7,619.1 L221.2,616.4 L219.9,621.3 L223.1,624.7 L218.0,623.8 L209.1,626.4 L213.0,623.4 L208.9,619.5 L205.3,619.9 L209.8,615.5 L208.3,609.5 L200.9,609.2 L201.2,604.4 L194.3,602.2 L194.2,594.9 L187.4,588.9 L188.7,586.7 L183.0,583.9 L177.8,578.7 L168.5,574.1 L168.5,571.5 L161.8,571.7 L160.3,569.3 L168.6,565.7 L168.6,558.9 L162.0,560.5 L159.5,558.5 L149.7,557.0 L144.1,561.3 L142.9,558.2 L137.4,558.5 Z">
  <desc xmlns="http://www.highcharts.com/svg/namespace">
    <name>Schwarzwald-Baar-Kreis</name>
    <bundesland>DE.BW</bundesland>
    <hc-middle-x>0.55</hc-middle-x>
    <hc-middle-y>0.37</hc-middle-y>
    <hc-key>de-bw-08326000</hc-key>
    <hc-a2>SB</hc-a2>
  </desc>
</path>

<path fill="#CEE3F5" stroke="#6E6E6E" stroke-width="0.4" id="DE.BW.08421000" d="M525.0,413.7 L526.2,417.6 L524.2,420.0 L527.2,422.2 L522.3,425.8 L520.8,431.0 L516.4,433.5 L511.8,439.6 L514.0,443.2 L516.1,440.7 L518.6,442.9 L518.2,447.1 L513.6,450.5 L517.2,454.1 L509.2,458.3 L502.6,459.0 L499.5,456.8 L503.1,455.0 L503.5,450.0 L498.3,447.9 L496.1,450.1 L495.0,446.4 L487.3,446.4 L486.5,442.2 L492.4,437.8 L492.5,433.5 L498.0,433.2 L500.3,429.0 L506.4,429.3 L504.4,425.1 L499.4,423.7 L500.7,418.5 L506.1,415.8 L509.4,417.2 L514.5,412.0 L522.6,411.5 Z">
  <desc xmlns="http://www.highcharts.com/svg/namespace">
    <name>Ulm</name>
    <bundesland>DE.BW</bundesland>
    <hc-middle-x>0.64</hc-middle-x>
    <hc-middle-y>0.67</hc-middle-y>
    <hc-key>de-bw-08421000</hc-key>
    <hc-a2>UL</hc-a2>
  </desc>
</path>

<path fill="#CEE3F5" stroke="#6E6E6E" stroke-width="0.4" id="DE.BW.08225000" d="M394.5,40.1 L402.7,42.4 L402.5,44.4 L407.8,46.6 L418.4,48.9 L420.4,47.3 L423.0,52.9 L420.5,53.8 L421.5,59.3 L415.0,59.0 L412.5,63.7 L413.4,68.3 L417.5,77.0 L417.2,79.4 L421.7,81.3 L419.2,86.3 L416.3,85.8 L414.0,90.4 L411.8,90.0 L411.1,94.6 L415.5,97.0 L414.4,106.4 L419.1,108.3 L421.4,106.5 L431.1,109.4 L434.0,113.5 L427.4,116.5 L432.1,124.3 L427.6,129.4 L417.1,127.7 L415.7,129.5 L408.1,126.5 L405.9,122.9 L402.2,124.8 L401.6,133.0 L398.3,135.3 L392.6,132.4 L387.7,133.4 L379.1,126.0 L374.6,129.1 L375.6,135.4 L371.5,138.4 L370.0,143.9 L366.3,143.7 L364.9,151.3 L360.8,154.0 L356.5,150.8 L353.4,145.8 L346.9,145.9 L344.6,144.3 L343.2,154.7 L338.3,155.1 L342.7,157.9 L342.2,161.2 L336.2,162.0 L333.4,159.8 L326.2,160.0 L321.6,155.5 L323.1,151.6 L321.2,145.7 L318.5,147.0 L314.0,142.2 L310.6,142.1 L304.7,138.6 L305.1,134.8 L300.0,130.9 L299.1,125.9 L304.4,122.9 L309.5,122.1 L308.5,116.1 L311.2,114.4 L314.9,117.7 L315.5,114.0 L321.5,108.1 L316.6,100.0 L320.4,98.9 L329.0,91.3 L325.8,88.4 L327.2,83.9 L331.8,83.0 L333.4,88.0 L337.2,84.4 L329.5,76.0 L332.4,67.1 L336.0,68.3 L343.7,66.4 L348.2,68.2 L354.8,67.3 L361.9,64.8 L365.8,57.2 L369.2,55.4 L366.3,49.4 L369.3,48.8 L373.0,42.9 L379.6,46.1 L385.8,42.5 L389.0,46.6 L393.6,45.8 L396.3,41.5 Z">
  <desc xmlns="http://www.highcharts.com/svg/namespace">
    <name>Neckar-Odenwald-Kreis</name>
    <bundesland>DE.BW</bundesland>
    <hc-middle-x>0.50</hc-middle-x>
    <hc-middle-y>0.47</hc-middle-y>
    <hc-key>de-bw-08225000</hc-key>
    <hc-a2>NO</hc-a2>
  </desc>
</path>

<path fill="#CEE3F5" stroke="#6E6E6E" stroke-width="0.4" id="DE.BW.08315000" d="M131.7,553.3 L137.4,558.5 L142.9,558.2 L144.1,561.3 L149.7,557.0 L159.5,558.5 L162.0,560.5 L168.6,558.9 L168.6,565.7 L160.3,569.3 L161.8,571.7 L168.5,571.5 L168.5,574.1 L177.8,578.7 L183.0,583.9 L188.7,586.7 L187.4,588.9 L194.2,594.9 L194.3,602.2 L188.7,602.7 L183.9,606.0 L177.3,604.8 L169.8,605.6 L163.4,602.1 L157.9,602.4 L156.2,606.7 L150.1,608.0 L151.2,610.8 L146.7,612.4 L148.7,615.8 L145.7,623.0 L147.6,628.7 L143.0,630.1 L140.7,623.8 L134.6,626.8 L132.9,622.5 L128.4,617.6 L123.2,616.1 L118.2,601.3 L114.6,599.7 L108.4,602.4 L106.3,605.1 L105.3,597.4 L99.3,597.6 L90.6,593.1 L88.5,594.6 L79.5,593.6 L76.9,602.2 L69.4,606.3 L70.3,609.0 L65.2,611.5 L60.8,615.7 L55.7,616.3 L55.4,620.3 L44.6,620.4 L33.6,625.8 L31.6,624.1 L22.5,630.0 L21.8,624.7 L13.0,624.1 L11.8,628.0 L7.0,634.0 L4.5,626.9 L4.4,620.2 L11.1,603.2 L9.8,595.7 L10.5,591.1 L14.9,587.1 L15.4,577.2 L23.9,564.2 L22.5,556.2 L14.0,545.0 L13.8,529.5 L15.9,523.4 L15.7,518.5 L18.6,520.9 L29.4,519.9 L30.4,521.2 L38.8,518.6 L41.2,521.8 L47.9,521.7 L51.5,519.9 L54.2,523.9 L52.4,528.2 L58.6,528.5 L67.0,533.6 L64.9,533.2 L60.9,538.7 L59.4,546.3 L52.8,549.3 L46.7,544.0 L42.5,544.0 L42.0,551.8 L36.3,555.8 L36.1,562.2 L32.6,565.4 L40.5,567.5 L46.0,561.9 L54.7,561.8 L62.0,566.5 L66.1,563.9 L71.5,567.6 L73.3,571.3 L77.7,571.4 L74.2,582.4 L76.3,585.5 L83.8,582.1 L83.3,579.0 L87.2,574.2 L85.3,567.1 L87.2,564.7 L85.0,562.0 L88.4,559.1 L87.9,551.3 L79.9,552.3 L77.3,545.7 L73.0,544.0 L72.2,539.2 L85.4,538.2 L87.1,535.3 L93.2,537.8 L94.2,535.9 L104.2,537.4 L118.6,538.0 L119.7,542.6 L122.6,542.8 L128.7,552.9 Z">
  <desc xmlns="http://www.highcharts.com/svg/namespace">
    <name>Breisgau-Hochschwarzwald</name>
    <bundesland>DE.BW</bundesland>
    <hc-middle-x>0.64</hc-middle-x>
    <hc-middle-y>0.54</hc-middle-y>
    <hc-key>de-bw-08315000</hc-key>
    <hc-a2>BH</hc-a2>
  </desc>
</path>

<path fill="#CEE3F5" stroke="#6E6E6E" stroke-width="0.4" id="DE.BW.08121000" d="M337.9,193.5 L331.0,193.5 L320.7,185.2 L333.9,185.1 L336.0,181.7 L342.2,181.7 L345.2,186.7 L355.0,188.1 L356.6,193.4 L364.1,195.7 L364.0,200.3 L368.4,203.7 L368.0,208.7 L372.2,209.2 L363.3,212.8 L363.4,214.2 L352.9,211.5 L347.5,213.9 L344.6,217.5 L342.6,211.8 L338.4,207.5 L344.4,199.9 L338.8,197.6 Z">
  <desc xmlns="http://www.highcharts.com/svg/namespace">
    <name>Heilbronn</name>
    <bundesland>DE.BW</bundesland>
    <hc-middle-x>0.59</hc-middle-x>
    <hc-middle-y>0.57</hc-middle-y>
    <hc-key>de-bw-08121000</hc-key>
    <hc-a2>HE</hc-a2>
  </desc>
</path>

<path fill="#CEE3F5" stroke="#6E6E6E" stroke-width="0.4" id="DE.BW.08325000" d="M257.2,439.7 L256.7,445.2 L258.5,448.3 L248.1,455.0 L253.5,457.3 L253.3,459.2 L246.4,462.6 L242.7,462.3 L238.6,467.2 L244.9,468.7 L242.8,473.6 L246.4,474.1 L251.1,478.4 L249.0,480.8 L252.2,492.1 L258.5,494.7 L257.3,498.2 L253.3,500.7 L254.3,503.5 L259.9,507.5 L258.7,512.0 L250.5,513.5 L245.6,520.6 L240.3,519.9 L228.2,530.7 L229.3,533.7 L224.7,534.5 L221.6,532.1 L223.7,529.7 L216.5,521.7 L219.7,516.5 L215.3,514.5 L211.2,505.1 L203.8,504.4 L202.6,501.3 L194.5,500.3 L195.8,508.2 L191.9,504.5 L184.0,502.6 L174.6,506.1 L170.2,506.1 L167.6,502.8 L162.6,503.1 L168.1,497.3 L168.8,490.2 L166.0,488.9 L164.9,484.4 L166.6,481.7 L164.0,479.3 L163.8,468.5 L162.1,466.3 L171.2,465.9 L172.6,462.6 L171.1,454.2 L167.5,448.1 L171.0,444.9 L169.9,442.2 L172.7,436.3 L177.9,438.0 L179.0,451.5 L186.4,456.4 L193.3,456.2 L196.5,463.2 L199.4,459.6 L206.8,459.1 L208.5,454.1 L205.4,453.5 L202.0,449.0 L208.2,445.6 L205.2,442.4 L204.8,438.1 L212.0,436.8 L212.8,432.4 L217.1,431.0 L219.8,432.7 L228.1,429.3 L228.9,432.8 L237.2,432.0 L240.2,434.4 L244.6,432.5 L246.9,436.0 L253.2,439.7 Z">
  <desc xmlns="http://www.highcharts.com/svg/namespace">
    <name>Rottweil</name>
    <bundesland>DE.BW</bundesland>
    <hc-middle-x>0.46</hc-middle-x>
    <hc-middle-y>0.48</hc-middle-y>
    <hc-key>de-bw-08325000</hc-key>
    <hc-a2>RO</hc-a2>
  </desc>
</path>

<path fill="#CEE3F5" stroke="#6E6E6E" stroke-width="0.4" id="DE.BW.08437000" d="M350.4,469.9 L353.3,467.6 L357.2,470.2 L357.4,473.7 L365.9,472.5 L368.5,468.6 L372.1,468.4 L376.0,476.6 L380.2,477.4 L383.8,482.6 L380.1,486.4 L375.5,487.3 L376.3,494.4 L378.2,498.2 L374.9,501.4 L371.8,507.7 L367.5,507.5 L366.5,511.4 L371.7,510.7 L372.4,514.3 L377.9,517.0 L379.7,522.2 L385.6,524.5 L385.3,527.7 L391.6,528.8 L394.0,526.2 L411.1,534.0 L416.1,533.2 L418.4,537.1 L421.5,536.4 L425.7,542.1 L430.1,542.9 L432.3,549.5 L435.0,549.9 L437.7,556.0 L430.0,558.4 L427.3,555.0 L427.2,561.2 L429.4,561.8 L429.0,567.0 L423.4,567.1 L419.7,559.9 L414.6,567.9 L411.2,570.1 L406.7,567.8 L404.9,570.3 L399.7,569.2 L400.2,575.5 L396.5,575.3 L397.8,581.4 L394.8,581.9 L395.4,587.5 L390.3,594.5 L391.7,599.2 L395.5,599.9 L397.3,612.4 L396.0,613.7 L378.7,598.3 L375.6,601.2 L371.0,600.3 L367.3,593.8 L361.6,595.1 L363.8,598.8 L361.2,602.6 L358.3,600.8 L351.3,606.5 L338.5,604.7 L336.3,601.0 L342.8,594.9 L341.9,588.6 L338.4,588.7 L331.9,583.8 L325.3,582.7 L326.4,575.1 L321.9,577.2 L314.1,576.8 L316.0,573.5 L314.1,565.2 L315.7,560.7 L313.2,549.2 L306.9,547.1 L305.6,544.7 L301.6,547.9 L301.5,543.5 L298.2,542.7 L298.1,539.0 L306.4,539.8 L310.9,536.1 L307.5,530.6 L303.8,528.9 L302.0,523.8 L302.3,519.9 L308.3,518.6 L313.8,507.6 L319.2,506.3 L324.8,510.0 L329.8,510.9 L334.8,508.4 L336.7,512.1 L344.0,512.8 L347.9,509.2 L349.5,504.1 L348.0,495.5 L350.4,492.2 L344.7,488.1 L334.8,483.7 L333.8,478.6 L339.1,475.5 L342.5,475.7 L350.5,472.5 Z">
  <desc xmlns="http://www.highcharts.com/svg/namespace">
    <name>Sigmaringen</name>
    <bundesland>DE.BW</bundesland>
    <hc-middle-x>0.40</hc-middle-x>
    <hc-middle-y>0.50</hc-middle-y>
    <hc-key>de-bw-08437000</hc-key>
    <hc-a2>SI</hc-a2>
  </desc>
</path>
</g>

<text x="350" y="714" text-anchor="middle" font-family="Verdana" font-size="8" stroke-opacity="0.6">Copyright (c) 2014 Highsoft AS, Based on data from GeoBasis-DE / BKG 2014</text>

</svg>