<?xml version="1.0" encoding="utf-8" standalone="no"?>
<!DOCTYPE svg PUBLIC "-//W3C//DTD SVG 1.1//EN" "http://www.w3.org/Graphics/SVG/1.1/DTD/svg11.dtd">

<svg version="1.1" height="700pt" width="700pt" xmlns="http://www.w3.org/2000/svg" xmlns:xlink="http://www.w3.org/1999/xlink">
<desc>
Map version: 1.1.1
Copyright (c) 2014 Highsoft AS, Based on data from GeoBasis-DE / BKG 2014
</desc>
<title>Bayern</title>
<g id="admin2">

<g id="DE.BY">
  <desc xmlns="http://www.highcharts.com/svg/namespace">
    <labelrank>3</labelrank>
    <hasc>DE.BY</hasc>
    <alt-name>Bavaria</alt-name>
    <woe-id>2345482</woe-id>
    <subregion>NULL</subregion>
    <fips>GM02</fips>
    <postal-code>BY</postal-code>
    <name>Bayern</name>
    <country>Germany</country>
    <type-en>State</type-en>
    <region>NULL</region>
    <longitude>11.3966</longitude>
    <woe-name>Bayern</woe-name>
    <latitude>49.0056</latitude>
    <woe-label>Bavaria, DE, Germany</woe-label>
    <type>Land</type>
    <hc-key>de-by</hc-key>
    <hc-a2>BA</hc-a2>
  </desc>
</g>

<g id="DE">
  <desc xmlns="http://www.highcharts.com/svg/namespace">
    <name>Germany</name>
    <labelrank>2</labelrank>
    <country-abbrev>Ger.</country-abbrev>
    <subregion>Western Europe</subregion>
    <woe-id>23424829</woe-id>
    <region-wb>Europe &amp; Central Asia</region-wb>
    <iso-a3>DEU</iso-a3>
    <iso-a2>DE</iso-a2>
    <region-un>Europe</region-un>
    <continent>Europe</continent>
    <hc-key>de</hc-key>
    <hc-a2>GE</hc-a2>
  </desc>
</g>

<path fill="#CEE3F5" stroke="#6E6E6E" stroke-width="0.4" id="DE.BY.09673000" d="M150.2,55.9 L149.7,56.3 L149.7,55.0 L150.2,55.0 Z M201.3,77.2 L198.6,71.8 L190.2,70.5 L186.8,67.3 L184.7,61.2 L186.3,59.1 L180.2,54.7 L176.6,58.0 L173.9,63.2 L166.3,62.6 L162.4,64.1 L160.5,61.5 L154.4,62.6 L156.8,57.6 L149.8,54.8 L148.2,57.0 L143.4,54.8 L141.5,49.9 L137.7,53.6 L129.5,45.6 L132.8,42.8 L133.3,38.7 L129.3,40.2 L131.5,33.5 L130.4,31.0 L133.4,30.2 L138.7,22.1 L141.5,20.9 L144.5,14.7 L144.3,10.4 L151.0,4.1 L153.2,0.0 L157.6,4.3 L162.6,4.3 L166.4,1.7 L170.3,6.7 L170.2,10.8 L173.6,10.5 L180.5,14.8 L183.8,14.3 L184.6,20.3 L189.5,27.4 L193.9,28.6 L191.9,34.6 L196.8,35.7 L200.8,33.7 L202.3,39.1 L209.5,44.4 L212.0,41.0 L215.8,47.1 L221.1,47.7 L220.1,51.2 L222.0,56.2 L220.5,61.4 L223.0,65.7 L222.9,70.1 L216.9,75.2 L214.7,71.4 L209.9,68.6 L207.8,73.8 Z">
  <desc xmlns="http://www.highcharts.com/svg/namespace">
    <name>Rhön-Grabfeld</name>
    <bundesland>DE.BY</bundesland>
    <hc-middle-x>0.40</hc-middle-x>
    <hc-middle-y>0.49</hc-middle-y>
    <hc-key>de-by-09673000</hc-key>
    <hc-a2>RG</hc-a2>
  </desc>
</path>

<path fill="#CEE3F5" stroke="#6E6E6E" stroke-width="0.4" id="DE.BY.09471000" d="M263.5,173.3 L261.5,172.7 L262.5,172.2 L264.2,172.9 Z M217.0,170.7 L214.6,162.6 L212.0,160.8 L208.3,164.4 L205.1,163.3 L207.7,160.8 L202.6,156.9 L204.3,153.9 L201.3,151.8 L203.8,144.8 L210.1,145.1 L216.7,145.4 L222.8,149.4 L227.2,147.4 L231.7,141.6 L234.0,143.2 L237.5,138.6 L235.5,137.0 L242.4,129.2 L240.2,127.3 L244.7,123.8 L241.9,120.0 L245.2,118.0 L243.5,113.3 L246.1,112.8 L247.4,108.2 L250.6,110.0 L255.1,107.3 L254.1,104.1 L257.7,102.2 L257.7,98.3 L258.8,97.9 L261.1,97.9 L260.3,103.5 L267.9,109.5 L271.0,107.1 L278.8,113.8 L280.2,111.0 L283.6,111.9 L286.2,109.3 L289.7,109.5 L294.1,106.6 L297.9,107.4 L302.5,104.4 L304.2,106.2 L297.5,112.2 L300.4,113.3 L304.1,111.2 L303.5,114.9 L307.0,113.1 L311.2,118.6 L312.2,120.8 L307.5,122.2 L304.3,127.6 L306.7,128.3 L305.7,135.1 L303.3,135.9 L304.5,141.9 L310.9,143.9 L310.2,151.0 L302.4,152.3 L301.6,149.7 L292.5,152.2 L292.3,158.2 L280.4,163.4 L276.2,163.0 L273.5,166.3 L269.7,164.5 L268.7,166.8 L267.1,163.5 L260.9,166.6 L252.0,173.7 L247.8,167.6 L239.4,163.4 L233.6,170.2 L238.6,172.0 L238.0,175.1 L231.3,177.8 L229.3,173.7 L226.3,174.1 Z M271.5,148.1 L271.4,140.6 L269.4,135.3 L266.4,133.1 L254.1,139.5 L255.1,143.2 L262.1,148.4 L268.2,151.1 L268.4,149.4 Z">
  <desc xmlns="http://www.highcharts.com/svg/namespace">
    <name>Bamberg</name>
    <bundesland>DE.BY</bundesland>
    <hc-middle-x>0.80</hc-middle-x>
    <hc-middle-y>0.43</hc-middle-y>
    <hc-key>de-by-09471000</hc-key>
    <hc-a2>BA</hc-a2>
  </desc>
</path>

<path fill="#CEE3F5" stroke="#6E6E6E" stroke-width="0.4" id="DE.BY.09675000" d="M202.6,156.9 L207.7,160.8 L205.1,163.3 L208.3,164.4 L212.0,160.8 L214.6,162.6 L217.0,170.7 L209.4,171.4 L208.8,173.6 L201.1,172.2 L192.9,178.3 L189.7,183.2 L191.5,190.6 L195.0,197.0 L189.6,199.6 L183.0,198.7 L180.5,200.5 L172.2,197.8 L169.1,199.2 L169.1,204.1 L163.3,206.1 L161.5,202.2 L156.7,200.4 L153.0,197.9 L152.7,194.9 L156.3,190.1 L159.7,190.4 L158.9,186.4 L154.6,179.7 L150.2,179.7 L147.4,172.8 L149.5,171.4 L148.7,162.5 L149.8,157.1 L152.7,154.5 L157.6,154.3 L159.8,151.8 L163.3,152.2 L163.0,146.2 L166.6,142.6 L172.0,137.5 L174.8,144.8 L180.5,142.5 L180.6,146.8 L184.7,150.3 L187.3,147.8 L191.1,149.2 L192.4,146.9 L195.9,151.0 L193.7,154.2 Z">
  <desc xmlns="http://www.highcharts.com/svg/namespace">
    <name>Kitzingen</name>
    <bundesland>DE.BY</bundesland>
    <hc-middle-x>0.40</hc-middle-x>
    <hc-middle-y>0.52</hc-middle-y>
    <hc-key>de-by-09675000</hc-key>
    <hc-a2>KI</hc-a2>
  </desc>
</path>

<path fill="#CEE3F5" stroke="#6E6E6E" stroke-width="0.4" id="DE.BY.09377000" d="M388.1,124.2 L388.1,123.7 L388.5,123.6 L388.9,124.0 Z M449.6,98.8 L457.4,99.6 L467.3,107.8 L474.1,111.5 L478.6,111.5 L483.1,115.7 L479.4,120.8 L480.6,123.6 L490.0,126.1 L490.6,130.8 L487.1,134.8 L484.2,144.3 L480.9,145.3 L480.5,155.6 L471.8,161.7 L467.8,159.2 L462.6,162.1 L455.7,159.7 L452.7,161.7 L449.0,160.0 L448.0,155.0 L441.3,149.7 L442.5,147.1 L438.9,142.5 L434.2,149.8 L428.9,151.8 L429.8,154.4 L427.0,158.2 L423.6,156.1 L419.0,157.4 L418.7,153.9 L414.9,150.4 L409.4,154.4 L407.1,153.0 L403.7,155.8 L401.0,155.0 L396.4,149.9 L395.8,146.0 L393.4,139.2 L391.2,127.3 L389.3,128.0 L388.9,122.1 L396.6,121.8 L401.4,117.7 L402.9,119.4 L411.5,116.4 L421.2,116.8 L424.0,113.3 L427.6,117.1 L440.3,111.6 L441.2,104.6 L447.2,103.8 Z">
  <desc xmlns="http://www.highcharts.com/svg/namespace">
    <name>Tirschenreuth</name>
    <bundesland>DE.BY</bundesland>
    <hc-middle-x>0.62</hc-middle-x>
    <hc-middle-y>0.48</hc-middle-y>
    <hc-key>de-by-09377000</hc-key>
    <hc-a2>TI</hc-a2>
  </desc>
</path>

<path fill="#CEE3F5" stroke="#6E6E6E" stroke-width="0.4" id="DE.BY.09187000" d="M491.8,563.6 L491.8,563.1 L492.2,563.0 L492.3,563.1 Z M493.2,562.7 L492.9,562.2 L493.2,561.6 L493.6,561.9 Z M490.7,564.7 L491.0,566.4 L488.3,566.6 L488.6,562.6 Z M404.2,554.7 L407.2,554.7 L410.0,549.7 L413.4,547.7 L421.8,552.7 L424.0,549.8 L420.9,541.7 L421.7,539.7 L426.9,541.6 L432.2,547.5 L435.4,543.8 L441.9,542.6 L445.2,534.9 L442.1,533.6 L441.1,519.1 L439.3,516.4 L442.4,511.4 L448.7,509.1 L451.6,512.5 L449.6,516.3 L453.7,519.3 L460.0,509.2 L459.8,506.2 L466.3,508.6 L471.1,513.5 L477.3,513.4 L480.0,509.0 L485.4,510.6 L484.7,513.5 L478.3,516.7 L479.2,521.0 L477.4,523.7 L481.8,527.2 L478.7,532.4 L479.9,535.4 L478.2,540.5 L481.6,544.4 L486.4,545.3 L487.5,547.7 L491.4,544.8 L494.7,546.5 L492.2,549.3 L495.3,551.8 L493.7,557.7 L490.5,562.1 L486.8,559.6 L484.4,563.3 L486.3,570.8 L493.8,570.4 L495.0,574.5 L488.5,575.0 L490.2,578.2 L487.3,582.1 L487.1,587.9 L483.2,590.1 L481.3,595.1 L482.2,600.2 L470.5,604.5 L468.4,601.5 L471.4,593.2 L469.2,591.4 L466.1,596.4 L460.1,600.5 L457.0,600.4 L457.8,604.1 L462.8,612.9 L464.1,620.0 L460.1,621.7 L460.2,618.8 L454.6,620.9 L446.3,620.3 L443.1,618.5 L443.3,616.5 L438.2,612.8 L439.5,606.9 L434.9,600.0 L436.6,593.8 L432.0,591.2 L432.9,586.8 L420.8,578.6 L425.9,575.9 L425.1,571.1 L418.4,570.0 L415.7,567.2 L411.7,567.7 L404.7,558.9 Z M443.9,571.8 L440.5,576.3 L448.5,577.5 L453.9,572.5 L451.4,564.4 L452.0,561.9 L446.6,561.9 L443.5,566.2 Z">
  <desc xmlns="http://www.highcharts.com/svg/namespace">
    <name>Rosenheim</name>
    <bundesland>DE.BY</bundesland>
    <hc-middle-x>0.58</hc-middle-x>
    <hc-middle-y>0.38</hc-middle-y>
    <hc-key>de-by-09187000</hc-key>
    <hc-a2>RO</hc-a2>
  </desc>
</path>

<path fill="#CEE3F5" stroke="#6E6E6E" stroke-width="0.4" id="DE.BY.09372000" d="M474.5,271.7 L474.5,272.1 L473.3,272.1 L473.3,271.8 Z M473.0,273.0 L472.5,273.1 L472.9,272.5 L473.3,272.5 Z M477.2,266.4 L478.1,266.5 L478.0,266.8 L477.0,266.7 Z M471.7,268.0 L472.5,268.0 L472.8,268.3 L471.8,268.3 Z M472.8,272.1 L472.5,271.5 L472.7,271.1 L473.1,271.0 Z M476.2,269.9 L475.7,269.8 L474.3,268.9 L475.0,269.1 Z M474.5,266.4 L474.9,266.3 L475.8,267.0 L474.9,267.0 Z M506.7,220.2 L510.3,225.5 L510.2,228.9 L517.6,230.7 L524.7,236.7 L524.9,240.8 L531.5,247.7 L537.8,246.8 L543.6,248.9 L542.2,245.2 L551.9,246.4 L560.8,253.9 L563.4,254.0 L564.5,262.5 L567.6,262.4 L571.2,265.7 L572.1,269.5 L576.2,271.6 L575.8,274.9 L584.6,280.7 L584.0,286.0 L580.1,290.8 L580.1,294.1 L570.8,290.8 L567.7,285.5 L556.9,283.7 L553.5,289.7 L549.6,287.7 L550.7,291.0 L547.2,292.5 L544.4,290.5 L539.0,291.3 L532.6,294.4 L531.4,291.7 L529.1,296.1 L524.6,295.3 L516.6,299.6 L504.1,300.7 L496.6,306.2 L495.9,310.0 L491.4,309.4 L489.6,315.6 L481.5,312.9 L483.8,310.1 L481.7,308.3 L481.5,303.1 L474.1,301.1 L473.8,304.5 L467.6,304.7 L469.9,302.6 L468.7,299.0 L464.6,297.2 L467.0,294.9 L465.0,291.1 L466.5,283.8 L469.9,279.2 L475.5,280.0 L477.5,274.7 L477.2,268.4 L479.7,264.2 L486.8,265.0 L488.3,261.6 L486.1,258.7 L491.1,255.1 L487.3,254.9 L486.7,245.9 L489.4,241.6 L486.9,238.7 L488.3,236.1 L496.5,232.9 L492.1,227.0 L494.3,224.0 L501.1,222.4 L503.9,217.8 Z">
  <desc xmlns="http://www.highcharts.com/svg/namespace">
    <name>Cham</name>
    <bundesland>DE.BY</bundesland>
    <hc-middle-x>0.41</hc-middle-x>
    <hc-middle-y>0.51</hc-middle-y>
    <hc-key>de-by-09372000</hc-key>
    <hc-a2>CH</hc-a2>
  </desc>
</path>

<path fill="#CEE3F5" stroke="#6E6E6E" stroke-width="0.4" id="DE.BY.09172000" d="M539.3,557.3 L539.1,556.6 L540.0,556.2 L539.6,556.7 Z M556.6,540.2 L562.0,541.2 L565.7,544.0 L576.2,564.3 L570.9,574.1 L566.3,580.8 L568.6,581.8 L563.3,590.8 L566.3,593.5 L575.3,593.6 L578.1,590.3 L583.3,591.8 L588.9,597.3 L588.6,601.0 L592.1,608.1 L587.3,615.4 L588.7,618.3 L584.7,619.6 L586.8,625.0 L583.5,630.6 L585.8,632.2 L586.3,638.9 L583.4,640.2 L580.7,645.2 L576.0,641.0 L574.4,643.1 L566.3,639.0 L561.9,633.8 L558.5,632.9 L556.9,628.9 L552.7,629.4 L549.2,627.1 L546.8,622.4 L548.3,618.4 L552.9,615.1 L543.1,607.3 L546.5,602.7 L542.7,604.7 L540.8,602.1 L533.7,601.1 L536.6,597.0 L536.6,589.8 L543.3,589.0 L545.8,585.2 L554.8,584.7 L552.2,578.6 L543.7,578.0 L539.5,574.4 L537.4,569.6 L537.7,562.4 L539.6,557.5 L546.8,556.2 L557.5,558.3 L558.8,556.2 L553.3,551.3 L553.1,545.7 L556.8,545.6 Z">
  <desc xmlns="http://www.highcharts.com/svg/namespace">
    <name>Berchtesgadener Land</name>
    <bundesland>DE.BY</bundesland>
    <hc-middle-x>0.51</hc-middle-x>
    <hc-middle-y>0.63</hc-middle-y>
    <hc-key>de-by-09172000</hc-key>
    <hc-a2>BL</hc-a2>
  </desc>
</path>

<path fill="#CEE3F5" stroke="#6E6E6E" stroke-width="0.4" id="DE.BY.09462000" d="M343.6,126.6 L343.7,125.9 L345.0,124.8 L345.4,125.0 Z M345.9,124.6 L351.0,123.5 L353.8,120.8 L358.7,120.6 L367.4,120.5 L365.1,123.8 L368.8,126.4 L363.4,131.2 L362.5,137.6 L354.2,137.8 L355.9,135.8 Z">
  <desc xmlns="http://www.highcharts.com/svg/namespace">
    <name>Bayreuth</name>
    <bundesland>DE.BY</bundesland>
    <hc-middle-x>0.55</hc-middle-x>
    <hc-middle-y>0.50</hc-middle-y>
    <hc-key>de-by-09462000</hc-key>
    <hc-a2>BA</hc-a2>
  </desc>
</path>

<path fill="#CEE3F5" stroke="#6E6E6E" stroke-width="0.4" id="DE.BY.09564000" d="M317.0,235.2 L319.6,240.3 L317.1,240.4 L315.0,235.2 Z M280.6,250.0 L280.1,249.7 L279.9,248.8 L284.2,245.9 L279.3,237.2 L282.0,230.5 L283.9,229.3 L282.2,224.8 L283.6,221.6 L280.1,220.9 L278.4,215.9 L278.5,215.1 L284.2,216.0 L289.6,218.9 L289.0,222.4 L293.7,223.0 L295.8,219.9 L297.3,225.0 L301.2,229.1 L305.1,228.5 L301.0,231.8 L299.2,237.2 L305.5,240.6 L305.6,238.1 L309.5,239.6 L305.3,241.5 L307.3,246.2 L304.3,246.7 L296.9,246.6 L295.1,250.6 L298.0,253.5 L292.2,257.5 L288.5,257.0 L285.4,250.7 Z">
  <desc xmlns="http://www.highcharts.com/svg/namespace">
    <name>Nürnberg</name>
    <bundesland>DE.BY</bundesland>
    <hc-middle-x>0.39</hc-middle-x>
    <hc-middle-y>0.49</hc-middle-y>
    <hc-key>de-by-09564000</hc-key>
    <hc-a2>NÜ</hc-a2>
  </desc>
</path>

<path fill="#CEE3F5" stroke="#6E6E6E" stroke-width="0.4" id="DE.BY.09179000" d="M344.7,497.7 L343.4,501.8 L340.5,503.2 L339.1,507.4 L343.1,509.5 L344.0,514.2 L346.6,513.8 L344.9,516.1 L342.8,517.1 L337.9,518.6 L331.9,516.4 L327.0,512.5 L323.7,512.7 L316.3,517.8 L314.6,521.2 L311.0,518.7 L307.6,521.2 L301.0,523.5 L296.0,520.3 L296.4,512.7 L286.6,505.1 L291.2,504.5 L292.4,501.3 L295.9,500.6 L295.9,497.0 L292.6,493.6 L295.4,491.0 L297.2,482.4 L300.8,486.8 L303.7,485.0 L308.3,484.6 L308.1,481.2 L312.1,478.7 L315.6,482.4 L319.2,481.7 L323.0,486.0 L328.9,486.0 L331.5,491.9 L341.1,490.9 L344.9,494.3 Z">
  <desc xmlns="http://www.highcharts.com/svg/namespace">
    <name>Fürstenfeldbruck</name>
    <bundesland>DE.BY</bundesland>
    <hc-middle-x>0.49</hc-middle-x>
    <hc-middle-y>0.47</hc-middle-y>
    <hc-key>de-by-09179000</hc-key>
    <hc-a2>FÜ</hc-a2>
  </desc>
</path>

<path fill="#CEE3F5" stroke="#6E6E6E" stroke-width="0.4" id="DE.BY.09162000" d="M346.6,513.8 L344.0,514.2 L343.1,509.5 L339.1,507.4 L340.5,503.2 L343.4,501.8 L344.7,497.7 L352.3,496.2 L356.8,493.1 L358.2,487.7 L365.0,491.7 L369.9,491.2 L370.6,494.6 L373.4,491.7 L379.8,493.5 L376.9,500.7 L378.8,502.9 L381.9,500.9 L386.6,502.4 L384.3,508.8 L388.6,507.8 L390.7,510.3 L389.0,517.7 L385.3,520.1 L385.8,523.0 L371.5,520.1 L367.2,522.1 L366.4,525.0 L360.0,525.7 L355.2,522.9 L354.0,513.1 L349.0,511.5 Z M367.4,523.4 L367.2,523.2 L367.4,522.9 L367.8,523.3 Z">
  <desc xmlns="http://www.highcharts.com/svg/namespace">
    <name>München</name>
    <bundesland>DE.BY</bundesland>
    <hc-middle-x>0.54</hc-middle-x>
    <hc-middle-y>0.53</hc-middle-y>
    <hc-key>de-by-09162000</hc-key>
    <hc-a2>MÜ</hc-a2>
  </desc>
</path>

<path fill="#CEE3F5" stroke="#6E6E6E" stroke-width="0.4" id="DE.BY.09678000" d="M201.7,78.0 L201.5,77.7 L201.8,77.4 L202.4,78.3 Z M204.1,79.1 L203.9,79.0 L203.9,78.6 L204.5,79.0 Z M190.2,70.5 L198.6,71.8 L201.3,77.2 L197.6,86.1 L194.6,89.1 L195.6,93.6 L192.1,99.5 L199.1,101.6 L194.6,110.0 L192.7,109.3 L189.9,114.1 L189.0,111.9 L185.3,114.7 L194.9,117.6 L194.2,120.7 L201.3,123.7 L202.0,128.0 L206.3,131.9 L211.1,133.3 L210.0,140.3 L204.5,142.7 L210.1,145.1 L203.8,144.8 L201.3,151.8 L204.3,153.9 L202.6,156.9 L193.7,154.2 L195.9,151.0 L192.4,146.9 L191.1,149.2 L187.3,147.8 L184.7,150.3 L180.6,146.8 L180.5,142.5 L174.8,144.8 L172.0,137.5 L166.6,142.6 L164.5,138.1 L161.5,140.5 L154.2,138.3 L155.1,135.1 L150.1,134.4 L144.7,130.2 L145.9,122.4 L140.6,123.1 L141.3,120.6 L146.2,119.4 L145.7,112.8 L138.4,112.1 L137.5,107.8 L135.3,108.5 L136.0,102.2 L141.8,97.0 L148.7,99.0 L159.0,95.4 L159.5,91.5 L164.5,87.0 L170.2,87.9 L174.3,86.2 L175.2,88.8 L181.6,85.3 L184.8,87.9 L183.4,82.8 L186.6,79.5 L183.7,74.8 L187.0,74.6 Z M174.6,116.0 L173.4,111.0 L177.4,107.6 L174.9,100.9 L171.5,101.1 L170.8,105.6 L168.3,104.2 L165.9,110.3 L163.1,113.7 L169.9,117.6 Z">
  <desc xmlns="http://www.highcharts.com/svg/namespace">
    <name>Schweinfurt</name>
    <bundesland>DE.BY</bundesland>
    <hc-middle-x>0.42</hc-middle-x>
    <hc-middle-y>0.63</hc-middle-y>
    <hc-key>de-by-09678000</hc-key>
    <hc-a2>SC</hc-a2>
  </desc>
</path>

<path fill="#CEE3F5" stroke="#6E6E6E" stroke-width="0.4" id="DE.BY.09478000" d="M312.6,116.3 L312.3,117.7 L311.2,118.6 L307.0,113.1 L303.5,114.9 L304.1,111.2 L300.4,113.3 L297.5,112.2 L304.2,106.2 L302.5,104.4 L297.9,107.4 L294.1,106.6 L289.7,109.5 L286.2,109.3 L283.6,111.9 L280.2,111.0 L278.8,113.8 L271.0,107.1 L267.9,109.5 L260.3,103.5 L261.1,97.9 L261.8,94.1 L265.8,92.3 L268.2,93.6 L269.5,90.3 L265.4,87.2 L269.4,84.4 L270.0,81.1 L277.5,79.6 L277.8,76.5 L274.2,72.4 L280.8,70.7 L285.1,73.4 L290.2,72.2 L291.1,75.2 L297.2,74.6 L300.9,77.3 L303.3,73.6 L308.1,73.8 L307.0,77.2 L310.4,77.2 L314.9,82.0 L323.2,81.9 L326.2,84.3 L321.2,92.0 L317.7,94.3 L321.3,98.3 L318.1,98.4 L319.4,103.6 L315.0,110.1 Z">
  <desc xmlns="http://www.highcharts.com/svg/namespace">
    <name>Lichtenfels</name>
    <bundesland>DE.BY</bundesland>
    <hc-middle-x>0.49</hc-middle-x>
    <hc-middle-y>0.47</hc-middle-y>
    <hc-key>de-by-09478000</hc-key>
    <hc-a2>LI</hc-a2>
  </desc>
</path>

<path fill="#CEE3F5" stroke="#6E6E6E" stroke-width="0.4" id="DE.BY.09472000" d="M311.2,118.6 L312.3,117.7 L312.6,116.3 L316.5,118.8 L315.6,123.0 L321.1,123.8 L327.8,129.0 L330.6,129.7 L332.0,124.0 L336.3,124.7 L334.9,117.8 L338.9,119.9 L351.0,115.2 L355.0,112.2 L359.8,111.1 L359.7,108.2 L365.7,105.6 L363.5,100.3 L371.0,95.4 L369.4,87.9 L372.2,85.9 L378.6,89.2 L382.6,87.0 L384.7,91.9 L388.7,95.7 L386.0,97.6 L391.3,99.7 L391.4,102.1 L395.9,104.5 L394.9,108.6 L400.5,113.5 L401.4,117.7 L396.6,121.8 L388.9,122.1 L389.3,128.0 L391.2,127.3 L393.4,139.2 L395.8,146.0 L388.8,145.9 L374.8,152.6 L373.9,156.2 L371.2,154.6 L366.0,156.3 L365.6,165.5 L360.6,167.2 L359.8,172.5 L355.1,171.7 L356.3,175.7 L357.2,186.2 L354.9,191.5 L350.3,189.6 L344.4,191.1 L338.5,197.7 L333.5,193.7 L332.9,189.3 L330.2,186.7 L327.1,184.8 L331.1,181.9 L328.0,174.8 L331.7,167.7 L331.0,162.9 L326.4,161.7 L329.0,157.7 L326.2,155.9 L321.5,158.6 L315.5,151.4 L314.0,143.1 L310.9,143.9 L304.5,141.9 L303.3,135.9 L305.7,135.1 L306.7,128.3 L304.3,127.6 L307.5,122.2 L312.2,120.8 Z M388.1,124.2 L388.9,124.0 L388.5,123.6 L388.1,123.7 Z M343.6,126.6 L345.4,125.0 L345.0,124.8 L343.7,125.9 Z M345.9,124.6 L355.9,135.8 L354.2,137.8 L362.5,137.6 L363.4,131.2 L368.8,126.4 L365.1,123.8 L367.4,120.5 L358.7,120.6 L353.8,120.8 L351.0,123.5 Z">
  <desc xmlns="http://www.highcharts.com/svg/namespace">
    <name>Bayreuth</name>
    <bundesland>DE.BY</bundesland>
    <hc-middle-x>0.37</hc-middle-x>
    <hc-middle-y>0.58</hc-middle-y>
    <hc-key>de-by-09472000</hc-key>
    <hc-a2>BA</hc-a2>
  </desc>
</path>

<path fill="#CEE3F5" stroke="#6E6E6E" stroke-width="0.4" id="DE.BY.09184000" d="M410.0,549.7 L407.2,554.7 L404.2,554.7 L399.9,551.2 L397.3,555.6 L391.5,557.0 L390.0,552.8 L386.2,553.0 L378.1,556.7 L369.5,549.0 L366.8,550.9 L361.7,550.5 L362.7,548.3 L357.2,545.9 L355.4,548.8 L349.9,545.3 L346.6,543.1 L350.2,537.3 L345.5,525.4 L348.5,520.2 L342.8,517.1 L344.9,516.1 L346.6,513.8 L349.0,511.5 L354.0,513.1 L355.2,522.9 L360.0,525.7 L366.4,525.0 L367.2,522.1 L371.5,520.1 L385.8,523.0 L385.3,520.1 L389.0,517.7 L390.7,510.3 L388.6,507.8 L384.3,508.8 L386.6,502.4 L381.9,500.9 L378.8,502.9 L376.9,500.7 L379.8,493.5 L373.4,491.7 L370.6,494.6 L369.9,491.2 L365.0,491.7 L358.2,487.7 L360.6,481.0 L369.0,476.4 L374.4,482.5 L386.2,482.1 L391.8,480.5 L395.0,484.9 L394.8,492.2 L395.6,500.4 L398.0,504.6 L394.5,508.6 L397.2,518.6 L399.4,519.6 L400.9,534.6 L397.8,534.3 L397.4,540.8 L403.6,542.4 Z M367.4,523.4 L367.8,523.3 L367.4,522.9 L367.2,523.2 Z">
  <desc xmlns="http://www.highcharts.com/svg/namespace">
    <name>München</name>
    <bundesland>DE.BY</bundesland>
    <hc-middle-x>0.52</hc-middle-x>
    <hc-middle-y>0.76</hc-middle-y>
    <hc-key>de-by-09184000</hc-key>
    <hc-a2>MÜ</hc-a2>
  </desc>
</path>

<path fill="#CEE3F5" stroke="#6E6E6E" stroke-width="0.4" id="DE.BY.09262000" d="M639.7,401.7 L638.6,405.7 L633.1,410.0 L631.1,408.0 L629.6,411.3 L625.5,413.2 L619.0,409.7 L610.6,399.8 L616.6,400.8 L616.6,399.1 L629.7,398.4 L633.8,401.2 L638.4,398.6 Z">
  <desc xmlns="http://www.highcharts.com/svg/namespace">
    <name>Passau</name>
    <bundesland>DE.BY</bundesland>
    <hc-middle-x>0.51</hc-middle-x>
    <hc-middle-y>0.51</hc-middle-y>
    <hc-key>de-by-09262000</hc-key>
    <hc-a2>PA</hc-a2>
  </desc>
</path>

<path fill="#CEE3F5" stroke="#6E6E6E" stroke-width="0.4" id="DE.BY.09778000" d="M165.2,539.9 L166.0,535.0 L165.1,521.9 L173.0,518.6 L176.1,514.4 L175.5,509.9 L182.0,501.0 L183.9,495.9 L188.1,499.7 L187.4,505.4 L194.9,507.5 L195.3,510.5 L200.9,505.9 L208.6,503.5 L208.3,500.1 L219.0,496.2 L221.1,500.3 L226.9,498.8 L228.9,504.2 L222.5,507.0 L226.3,508.4 L234.7,508.5 L240.9,506.7 L244.5,508.6 L245.3,512.7 L242.9,515.7 L245.6,522.7 L246.7,530.7 L244.3,533.2 L245.4,537.0 L239.9,540.3 L238.1,549.8 L234.9,554.8 L231.8,551.0 L220.9,547.8 L219.4,556.3 L213.2,557.1 L211.6,560.3 L201.4,564.6 L199.1,560.2 L197.4,561.7 L200.9,567.2 L193.1,574.7 L187.8,576.0 L183.1,574.7 L182.7,577.5 L178.0,578.9 L173.3,576.1 L173.9,578.7 L165.3,583.2 L162.0,578.8 L161.3,573.8 L158.2,575.8 L161.4,569.9 L161.9,558.4 L168.9,561.5 L174.3,554.1 L174.4,544.6 L178.6,542.4 L179.0,534.9 L176.0,535.4 L170.0,539.9 Z M162.4,550.1 L163.0,544.3 L164.8,541.7 L168.2,545.9 L165.3,547.7 L165.4,553.8 Z">
  <desc xmlns="http://www.highcharts.com/svg/namespace">
    <name>Unterallgäu</name>
    <bundesland>DE.BY</bundesland>
    <hc-middle-x>0.63</hc-middle-x>
    <hc-middle-y>0.39</hc-middle-y>
    <hc-key>de-by-09778000</hc-key>
    <hc-a2>UN</hc-a2>
  </desc>
</path>

<path fill="#CEE3F5" stroke="#6E6E6E" stroke-width="0.4" id="DE.BY.09771000" d="M273.6,492.5 L274.5,489.4 L274.5,487.9 L278.7,485.9 L280.8,471.2 L279.2,464.6 L280.5,462.0 L276.0,452.5 L269.7,445.5 L266.7,435.7 L267.5,430.0 L272.5,428.0 L277.3,429.1 L283.1,426.2 L281.9,421.8 L276.5,421.6 L274.6,418.0 L278.4,414.8 L282.0,415.4 L288.4,410.6 L292.4,414.5 L300.7,414.0 L308.8,418.7 L307.4,422.5 L303.4,424.4 L315.1,429.5 L315.5,435.3 L321.0,438.2 L324.0,442.9 L327.7,440.4 L328.2,443.2 L330.2,445.1 L327.5,447.1 L323.6,446.3 L320.1,450.0 L311.5,453.1 L314.5,457.7 L312.6,463.9 L310.1,463.4 L311.4,470.4 L309.2,473.2 L305.0,473.3 L303.5,476.2 L303.7,485.0 L300.8,486.8 L297.2,482.4 L295.4,491.0 L292.6,493.6 L295.9,497.0 L295.9,500.6 L292.4,501.3 L283.9,498.3 L282.0,500.3 L277.1,492.9 Z">
  <desc xmlns="http://www.highcharts.com/svg/namespace">
    <name>Aichach-Friedberg</name>
    <bundesland>DE.BY</bundesland>
    <hc-middle-x>0.49</hc-middle-x>
    <hc-middle-y>0.38</hc-middle-y>
    <hc-key>de-by-09771000</hc-key>
    <hc-a2>AF</hc-a2>
  </desc>
</path>

<path fill="#CEE3F5" stroke="#6E6E6E" stroke-width="0.4" id="DE.BY.09772000" d="M274.5,487.9 L274.5,489.4 L273.6,492.5 L272.0,502.2 L270.1,502.4 L267.9,509.5 L263.7,511.7 L257.3,511.4 L259.8,521.0 L253.9,523.9 L252.6,519.9 L245.6,522.7 L242.9,515.7 L245.3,512.7 L244.5,508.6 L240.9,506.7 L234.7,508.5 L226.3,508.4 L222.5,507.0 L228.9,504.2 L226.9,498.8 L224.5,494.0 L227.8,486.1 L230.1,484.8 L227.9,481.6 L227.6,476.6 L222.7,477.6 L215.2,476.7 L218.9,470.0 L219.3,461.2 L222.5,459.7 L216.4,456.7 L221.5,453.5 L219.3,443.8 L223.1,443.1 L231.2,437.9 L240.0,437.6 L246.8,440.5 L252.6,437.0 L249.6,436.0 L253.7,429.9 L252.1,426.4 L254.6,423.7 L252.1,416.1 L254.1,411.7 L260.4,410.3 L262.9,408.1 L268.7,407.5 L269.4,415.5 L274.6,418.0 L276.5,421.6 L281.9,421.8 L283.1,426.2 L277.3,429.1 L272.5,428.0 L267.5,430.0 L266.7,435.7 L269.7,445.5 L270.6,455.2 L264.8,456.5 L263.9,461.1 L266.7,464.5 L266.4,469.5 L261.2,470.4 L258.8,468.6 L255.1,472.2 L257.7,474.6 L254.5,476.2 L253.9,480.2 L259.2,481.3 L260.2,479.5 L267.8,481.0 L273.0,480.3 Z">
  <desc xmlns="http://www.highcharts.com/svg/namespace">
    <name>Augsburg</name>
    <bundesland>DE.BY</bundesland>
    <hc-middle-x>0.42</hc-middle-x>
    <hc-middle-y>0.57</hc-middle-y>
    <hc-key>de-by-09772000</hc-key>
    <hc-a2>AU</hc-a2>
  </desc>
</path>

<path fill="#CEE3F5" stroke="#6E6E6E" stroke-width="0.4" id="DE.BY.09671000" d="M18.0,135.7 L18.3,141.8 L16.3,147.5 L13.5,146.1 L10.2,149.4 L6.5,140.1 L7.7,137.0 L5.5,123.3 L10.0,122.6 L8.1,120.5 L7.6,112.6 L0.0,110.6 L3.2,106.2 L3.1,101.0 L5.8,97.3 L15.5,96.1 L19.9,94.2 L24.7,97.2 L23.7,101.7 L29.5,93.7 L28.3,91.6 L33.6,89.2 L45.4,92.5 L48.0,90.9 L53.8,92.9 L58.7,102.2 L56.1,109.2 L58.6,110.4 L59.9,116.9 L59.2,121.5 L62.3,122.7 L65.4,131.8 L68.6,132.4 L67.1,138.4 L65.6,136.1 L61.4,138.3 L63.1,144.0 L61.4,146.1 L53.8,152.0 L53.6,156.5 L46.4,154.2 L43.0,149.2 L39.0,148.5 L41.9,139.8 L39.8,136.3 L35.9,134.8 L32.3,130.5 L30.1,130.8 L29.3,125.2 L24.6,121.2 L14.3,119.3 L18.1,126.4 L14.8,127.3 L14.8,130.3 Z">
  <desc xmlns="http://www.highcharts.com/svg/namespace">
    <name>Aschaffenburg</name>
    <bundesland>DE.BY</bundesland>
    <hc-middle-x>0.66</hc-middle-x>
    <hc-middle-y>0.45</hc-middle-y>
    <hc-key>de-by-09671000</hc-key>
    <hc-a2>AS</hc-a2>
  </desc>
</path>

<path fill="#CEE3F5" stroke="#6E6E6E" stroke-width="0.4" id="DE.BY.09676000" d="M10.2,149.4 L13.5,146.1 L16.3,147.5 L18.3,141.8 L18.0,135.7 L19.1,134.1 L23.1,137.9 L26.4,135.5 L29.4,136.4 L35.9,134.8 L39.8,136.3 L41.9,139.8 L39.0,148.5 L43.0,149.2 L46.4,154.2 L53.6,156.5 L53.8,152.0 L61.4,146.1 L64.9,152.2 L63.1,153.8 L67.5,161.7 L68.2,167.6 L66.6,169.8 L61.2,165.8 L57.2,169.7 L54.6,167.9 L51.6,170.0 L47.0,170.1 L47.9,175.0 L44.1,176.5 L54.9,178.7 L51.5,180.1 L52.6,183.8 L56.0,183.1 L55.7,179.1 L58.4,178.5 L61.3,183.2 L61.2,186.7 L58.2,190.9 L61.2,193.4 L56.3,196.8 L54.0,194.0 L49.8,196.5 L45.3,194.3 L40.7,198.7 L42.7,202.8 L37.7,209.3 L28.3,211.6 L25.3,210.4 L17.5,210.8 L12.4,201.9 L17.4,197.1 L15.6,191.4 L16.3,185.6 L21.0,184.1 L24.1,175.6 L18.0,172.3 L21.8,167.2 L20.5,164.3 L15.8,165.5 L13.9,159.6 L14.9,153.4 L12.1,156.8 L9.0,155.0 Z">
  <desc xmlns="http://www.highcharts.com/svg/namespace">
    <name>Miltenberg</name>
    <bundesland>DE.BY</bundesland>
    <hc-middle-x>0.49</hc-middle-x>
    <hc-middle-y>0.54</hc-middle-y>
    <hc-key>de-by-09676000</hc-key>
    <hc-a2>MI</hc-a2>
  </desc>
</path>

<path fill="#CEE3F5" stroke="#6E6E6E" stroke-width="0.4" id="DE.BY.09677000" d="M68.2,167.6 L67.5,161.7 L63.1,153.8 L64.9,152.2 L61.4,146.1 L63.1,144.0 L61.4,138.3 L65.6,136.1 L67.1,138.4 L68.6,132.4 L65.4,131.8 L62.3,122.7 L59.2,121.5 L59.9,116.9 L58.6,110.4 L56.1,109.2 L58.7,102.2 L62.9,102.7 L71.7,100.1 L74.3,96.5 L72.7,89.8 L75.4,85.0 L71.4,83.5 L73.7,79.2 L70.8,72.6 L71.6,69.0 L77.2,73.0 L81.9,71.3 L82.8,73.6 L88.3,71.9 L96.0,72.3 L98.9,81.9 L105.7,88.3 L105.5,93.5 L108.8,92.5 L110.2,97.0 L113.0,96.0 L113.6,100.7 L117.1,102.4 L115.0,104.4 L114.2,110.5 L123.6,112.8 L126.6,108.8 L130.1,113.9 L133.2,113.2 L135.3,108.5 L137.5,107.8 L138.4,112.1 L145.7,112.8 L146.2,119.4 L141.3,120.6 L140.6,123.1 L145.9,122.4 L144.7,130.2 L143.4,132.8 L134.1,133.2 L132.2,131.1 L128.7,134.2 L130.9,142.9 L117.3,142.8 L118.4,146.6 L110.5,146.3 L106.8,149.2 L103.3,156.2 L95.8,155.9 L96.8,158.9 L92.6,164.9 L80.2,168.0 L81.7,173.7 L78.7,170.5 L75.1,171.5 L72.1,165.7 Z">
  <desc xmlns="http://www.highcharts.com/svg/namespace">
    <name>Main-Spessart</name>
    <bundesland>DE.BY</bundesland>
    <hc-middle-x>0.39</hc-middle-x>
    <hc-middle-y>0.49</hc-middle-y>
    <hc-key>de-by-09677000</hc-key>
    <hc-a2>MS</hc-a2>
  </desc>
</path>

<path fill="#CEE3F5" stroke="#6E6E6E" stroke-width="0.4" id="DE.BY.09780000" d="M215.0,632.0 L208.9,634.2 L212.6,638.6 L209.4,649.8 L210.8,653.4 L214.1,654.1 L216.1,664.9 L210.8,668.9 L209.6,673.7 L205.0,676.8 L203.5,681.2 L199.3,685.4 L198.2,689.6 L190.6,693.4 L181.6,699.8 L177.0,698.5 L173.1,700.0 L173.7,694.6 L179.0,691.3 L176.6,688.0 L181.9,677.9 L180.4,674.7 L172.1,675.5 L171.6,679.1 L164.9,677.7 L162.1,682.2 L158.2,669.6 L162.8,666.5 L160.3,659.8 L157.6,660.7 L153.8,654.1 L147.6,655.3 L146.7,650.9 L143.2,648.3 L142.6,641.8 L150.9,633.8 L156.0,634.3 L155.7,628.6 L158.0,621.8 L160.3,615.2 L165.4,613.8 L166.8,608.0 L163.4,604.7 L163.3,595.7 L155.8,590.6 L165.3,583.2 L173.9,578.7 L173.3,576.1 L178.0,578.9 L182.7,577.5 L183.1,574.7 L187.8,576.0 L193.1,574.7 L196.9,578.7 L200.1,585.4 L208.8,587.1 L210.3,595.6 L214.0,599.3 L212.6,609.8 L218.3,610.7 L217.5,614.0 L220.3,615.0 L219.2,620.7 L215.2,622.8 L212.6,628.8 Z M185.0,603.5 L182.8,605.9 L186.5,607.8 L192.6,609.3 L195.8,605.5 L199.6,605.7 L200.7,596.9 L199.6,594.8 L188.8,591.9 L180.8,593.5 L184.0,597.1 Z">
  <desc xmlns="http://www.highcharts.com/svg/namespace">
    <name>Oberallgäu</name>
    <bundesland>DE.BY</bundesland>
    <hc-middle-x>0.51</hc-middle-x>
    <hc-middle-y>0.61</hc-middle-y>
    <hc-key>de-by-09780000</hc-key>
    <hc-a2>OB</hc-a2>
  </desc>
</path>

<path fill="#CEE3F5" stroke="#6E6E6E" stroke-width="0.4" id="DE.BY.09776000" d="M158.0,621.8 L155.7,628.6 L156.0,634.3 L150.9,633.8 L142.6,641.8 L141.3,644.2 L136.2,645.3 L130.2,641.5 L129.0,645.3 L120.7,641.7 L121.7,633.3 L115.0,631.7 L108.3,644.4 L105.8,641.2 L100.5,642.5 L90.7,636.7 L97.8,628.3 L104.8,630.4 L110.5,627.0 L109.7,629.7 L120.6,620.0 L123.1,615.0 L126.9,614.0 L130.6,616.4 L142.7,618.9 L147.1,612.8 L151.0,611.8 L151.2,614.4 L155.3,613.0 Z">
  <desc xmlns="http://www.highcharts.com/svg/namespace">
    <name>Lindau (Bodensee)</name>
    <bundesland>DE.BY</bundesland>
    <hc-middle-x>0.60</hc-middle-x>
    <hc-middle-y>0.53</hc-middle-y>
    <hc-key>de-by-09776000</hc-key>
    <hc-a2>L(</hc-a2>
  </desc>
</path>

<path fill="#CEE3F5" stroke="#6E6E6E" stroke-width="0.4" id="DE.BY.09376000" d="M500.5,206.5 L501.7,208.5 L507.6,210.2 L508.0,218.4 L506.7,220.2 L503.9,217.8 L501.1,222.4 L494.3,224.0 L492.1,227.0 L496.5,232.9 L488.3,236.1 L486.9,238.7 L489.4,241.6 L486.7,245.9 L487.3,254.9 L491.1,255.1 L486.1,258.7 L488.3,261.6 L486.8,265.0 L479.7,264.2 L477.2,268.4 L477.5,274.7 L475.5,280.0 L469.9,279.2 L466.5,283.8 L465.0,291.1 L461.9,288.4 L461.1,291.0 L453.4,289.8 L453.1,286.5 L448.5,284.9 L446.2,277.0 L441.4,279.9 L443.2,285.4 L438.0,288.8 L435.0,294.3 L427.7,288.8 L422.2,291.3 L421.7,285.5 L419.3,287.3 L412.3,284.2 L413.2,282.3 L411.9,278.7 L414.4,273.7 L418.5,271.9 L412.7,266.7 L418.0,265.6 L415.7,260.8 L420.2,256.3 L419.7,254.4 L425.2,249.8 L426.2,251.7 L428.6,244.2 L417.3,236.9 L416.0,232.6 L424.0,233.8 L424.6,229.3 L423.3,220.2 L431.7,221.0 L428.8,214.8 L430.2,209.7 L434.3,208.2 L436.1,205.2 L442.2,203.8 L444.1,198.9 L452.0,201.7 L450.8,204.2 L457.5,209.5 L460.2,209.6 L459.3,213.6 L465.2,214.6 L473.3,212.5 L474.5,210.1 L479.6,211.8 L480.4,208.3 L484.9,204.8 L491.5,208.4 L496.5,204.6 Z M474.5,271.7 L473.3,271.8 L473.3,272.1 L474.5,272.1 Z M473.0,273.0 L473.3,272.5 L472.9,272.5 L472.5,273.1 Z M477.2,266.4 L477.0,266.7 L478.0,266.8 L478.1,266.5 Z M471.7,268.0 L471.8,268.3 L472.8,268.3 L472.5,268.0 Z M472.8,272.1 L473.1,271.0 L472.7,271.1 L472.5,271.5 Z M476.2,269.9 L475.0,269.1 L474.3,268.9 L475.7,269.8 Z M474.5,266.4 L474.9,267.0 L475.8,267.0 L474.9,266.3 Z">
  <desc xmlns="http://www.highcharts.com/svg/namespace">
    <name>Schwandorf</name>
    <bundesland>DE.BY</bundesland>
    <hc-middle-x>0.45</hc-middle-x>
    <hc-middle-y>0.45</hc-middle-y>
    <hc-key>de-by-09376000</hc-key>
    <hc-a2>SC</hc-a2>
  </desc>
</path>

<path fill="#CEE3F5" stroke="#6E6E6E" stroke-width="0.4" id="DE.BY.09573000" d="M254.5,216.7 L267.5,214.6 L270.7,215.7 L270.7,216.5 L270.9,216.5 L271.0,222.4 L266.4,224.9 L267.6,230.9 L277.9,233.7 L279.3,237.2 L284.2,245.9 L279.9,248.8 L271.8,250.6 L271.0,254.3 L262.7,254.7 L245.1,245.7 L246.1,240.9 L243.5,238.2 L238.6,238.2 L238.5,229.2 L236.0,225.9 L244.3,223.8 L246.6,220.0 L251.0,222.2 L250.7,219.0 Z">
  <desc xmlns="http://www.highcharts.com/svg/namespace">
    <name>Fürth</name>
    <bundesland>DE.BY</bundesland>
    <hc-middle-x>0.42</hc-middle-x>
    <hc-middle-y>0.40</hc-middle-y>
    <hc-key>de-by-09573000</hc-key>
    <hc-a2>FÜ</hc-a2>
  </desc>
</path>

<path fill="#CEE3F5" stroke="#6E6E6E" stroke-width="0.4" id="DE.BY.09572000" d="M270.7,215.7 L267.5,214.6 L254.5,216.7 L251.5,207.5 L246.1,207.1 L246.6,197.4 L249.7,195.8 L250.1,192.4 L241.9,185.1 L224.6,186.8 L223.2,180.5 L231.3,177.8 L238.0,175.1 L238.6,172.0 L233.6,170.2 L239.4,163.4 L247.8,167.6 L252.0,173.7 L260.9,166.6 L267.1,163.5 L268.7,166.8 L268.0,172.0 L272.9,178.8 L268.4,178.4 L270.6,181.7 L276.2,184.9 L280.5,184.2 L280.1,186.7 L286.9,185.2 L287.9,189.2 L286.2,193.3 L282.6,195.5 L284.6,197.0 L287.8,194.1 L290.6,196.4 L291.8,202.0 L294.8,204.4 L304.0,204.2 L318.4,200.4 L318.7,205.2 L306.2,210.1 L307.2,212.3 L303.5,224.9 L305.1,228.5 L301.2,229.1 L297.3,225.0 L295.8,219.9 L293.7,223.0 L289.0,222.4 L289.6,218.9 L284.2,216.0 L285.4,214.3 L285.0,198.9 L278.0,199.5 L269.5,192.9 L268.5,198.9 Z M263.5,173.3 L264.2,172.9 L262.5,172.2 L261.5,172.7 Z">
  <desc xmlns="http://www.highcharts.com/svg/namespace">
    <name>Erlangen-Höchstadt</name>
    <bundesland>DE.BY</bundesland>
    <hc-middle-x>0.40</hc-middle-x>
    <hc-middle-y>0.30</hc-middle-y>
    <hc-key>de-by-09572000</hc-key>
    <hc-a2>EH</hc-a2>
  </desc>
</path>

<path fill="#CEE3F5" stroke="#6E6E6E" stroke-width="0.4" id="DE.BY.09576000" d="M279.9,248.8 L280.1,249.7 L280.6,250.0 L276.9,254.2 L280.2,259.2 L282.8,266.9 L287.2,266.7 L287.9,263.0 L293.4,262.8 L292.2,257.5 L298.0,253.5 L295.1,250.6 L296.9,246.6 L304.3,246.7 L302.6,249.2 L307.6,248.3 L315.6,259.8 L315.2,263.8 L311.8,262.0 L307.5,264.5 L309.8,270.2 L319.7,270.6 L319.0,272.5 L323.8,276.9 L322.5,278.7 L326.8,285.6 L318.5,284.0 L319.5,288.7 L325.8,290.8 L327.6,295.6 L327.7,303.7 L332.0,303.7 L331.7,309.0 L336.5,311.6 L339.4,317.6 L336.3,324.8 L332.1,324.7 L328.8,329.1 L320.3,326.5 L317.2,318.9 L310.9,319.2 L308.0,316.9 L305.0,310.8 L299.7,311.2 L281.8,297.0 L273.6,298.6 L273.6,302.2 L267.5,298.1 L261.9,296.1 L264.6,290.4 L259.3,288.5 L262.9,286.3 L262.2,283.6 L269.6,277.8 L267.3,273.7 L268.6,269.4 L263.5,262.4 L262.7,254.7 L271.0,254.3 L271.8,250.6 Z">
  <desc xmlns="http://www.highcharts.com/svg/namespace">
    <name>Roth</name>
    <bundesland>DE.BY</bundesland>
    <hc-middle-x>0.45</hc-middle-x>
    <hc-middle-y>0.45</hc-middle-y>
    <hc-key>de-by-09576000</hc-key>
    <hc-a2>RO</hc-a2>
  </desc>
</path>

<path fill="#CEE3F5" stroke="#6E6E6E" stroke-width="0.4" id="DE.BY.09779000" d="M288.4,410.6 L282.0,415.4 L278.4,414.8 L274.6,418.0 L269.4,415.5 L268.7,407.5 L262.9,408.1 L260.4,410.3 L254.1,411.7 L253.2,406.1 L249.2,408.1 L243.7,403.1 L241.8,405.3 L237.5,403.9 L236.4,400.7 L231.4,397.8 L235.8,396.0 L236.5,388.0 L235.3,386.9 L218.6,384.2 L214.5,390.4 L212.6,396.0 L208.8,389.1 L206.3,389.2 L202.4,385.3 L204.8,376.4 L202.9,374.4 L206.5,371.5 L206.5,367.4 L203.4,366.4 L207.1,363.2 L206.6,354.4 L203.0,351.3 L207.4,349.3 L200.6,336.6 L205.6,330.2 L211.6,329.1 L219.5,329.5 L220.8,324.1 L226.3,323.9 L227.8,327.5 L232.9,327.6 L231.5,332.8 L237.4,335.0 L240.5,341.1 L238.8,349.4 L245.5,351.2 L246.9,346.7 L252.2,348.5 L251.3,346.3 L256.3,341.4 L259.7,348.3 L258.5,352.2 L264.2,352.7 L265.2,356.8 L270.5,355.2 L275.0,359.2 L283.7,363.2 L284.9,367.8 L281.1,370.6 L276.7,370.3 L282.3,374.6 L281.1,378.8 L284.1,380.0 L282.3,386.5 L282.5,395.3 L287.1,403.7 L290.4,404.8 L290.9,409.0 Z">
  <desc xmlns="http://www.highcharts.com/svg/namespace">
    <name>Donau-Ries</name>
    <bundesland>DE.BY</bundesland>
    <hc-middle-x>0.62</hc-middle-x>
    <hc-middle-y>0.60</hc-middle-y>
    <hc-key>de-by-09779000</hc-key>
    <hc-a2>DR</hc-a2>
  </desc>
</path>

<path fill="#CEE3F5" stroke="#6E6E6E" stroke-width="0.4" id="DE.BY.09777000" d="M212.6,638.6 L215.2,635.3 L215.0,632.0 L212.6,628.8 L215.2,622.8 L219.2,620.7 L220.3,615.0 L217.5,614.0 L218.3,610.7 L212.6,609.8 L214.0,599.3 L210.3,595.6 L208.8,587.1 L200.1,585.4 L196.9,578.7 L193.1,574.7 L200.9,567.2 L197.4,561.7 L199.1,560.2 L201.4,564.6 L211.6,560.3 L213.2,557.1 L219.4,556.3 L220.9,547.8 L231.8,551.0 L234.9,554.8 L238.1,549.8 L239.9,540.3 L245.4,537.0 L244.3,533.2 L246.7,530.7 L245.6,522.7 L252.6,519.9 L253.9,523.9 L259.8,521.0 L260.8,524.7 L257.4,527.0 L254.2,536.0 L259.2,534.7 L262.2,536.6 L261.7,542.4 L263.6,543.0 L260.3,556.6 L257.0,565.0 L258.4,569.9 L254.1,572.6 L256.1,576.5 L253.7,586.4 L258.4,589.8 L257.6,593.1 L252.7,592.7 L251.9,609.6 L259.8,605.7 L260.6,603.0 L265.6,600.9 L261.2,607.0 L258.6,615.0 L265.3,615.9 L268.6,613.7 L274.5,616.1 L278.3,614.9 L276.7,619.9 L281.4,624.1 L284.1,624.1 L282.7,628.3 L277.9,631.9 L272.7,633.8 L274.8,641.3 L270.1,641.9 L259.2,646.6 L255.2,641.7 L247.2,640.3 L246.6,637.4 L238.6,637.4 L233.2,635.3 L229.8,642.9 L217.6,641.9 Z M240.1,565.6 L236.1,560.3 L227.3,568.1 L227.2,573.0 L232.2,575.8 L235.2,574.7 L241.0,576.4 Z">
  <desc xmlns="http://www.highcharts.com/svg/namespace">
    <name>Ostallgäu</name>
    <bundesland>DE.BY</bundesland>
    <hc-middle-x>0.44</hc-middle-x>
    <hc-middle-y>0.69</hc-middle-y>
    <hc-key>de-by-09777000</hc-key>
    <hc-a2>OS</hc-a2>
  </desc>
</path>

<path fill="#CEE3F5" stroke="#6E6E6E" stroke-width="0.4" id="DE.BY.09563000" d="M270.9,216.5 L275.8,216.7 L278.4,215.9 L280.1,220.9 L283.6,221.6 L282.2,224.8 L283.9,229.3 L282.0,230.5 L279.3,237.2 L277.9,233.7 L267.6,230.9 L266.4,224.9 L271.0,222.4 Z">
  <desc xmlns="http://www.highcharts.com/svg/namespace">
    <name>Fürth</name>
    <bundesland>DE.BY</bundesland>
    <hc-middle-x>0.56</hc-middle-x>
    <hc-middle-y>0.44</hc-middle-y>
    <hc-key>de-by-09563000</hc-key>
    <hc-a2>FÜ</hc-a2>
  </desc>
</path>

<path fill="#CEE3F5" stroke="#6E6E6E" stroke-width="0.4" id="DE.BY.09562000" d="M278.4,215.9 L275.8,216.7 L270.9,216.5 L270.7,216.5 L270.7,215.7 L268.5,198.9 L269.5,192.9 L278.0,199.5 L285.0,198.9 L285.4,214.3 L284.2,216.0 L278.5,215.1 Z">
  <desc xmlns="http://www.highcharts.com/svg/namespace">
    <name>Erlangen</name>
    <bundesland>DE.BY</bundesland>
    <hc-middle-x>0.89</hc-middle-x>
    <hc-middle-y>0.48</hc-middle-y>
    <hc-key>de-by-09562000</hc-key>
    <hc-a2>ER</hc-a2>
  </desc>
</path>

<path fill="#CEE3F5" stroke="#6E6E6E" stroke-width="0.4" id="DE.BY.09575000" d="M217.0,170.7 L226.3,174.1 L229.3,173.7 L231.3,177.8 L223.2,180.5 L224.6,186.8 L241.9,185.1 L250.1,192.4 L249.7,195.8 L246.6,197.4 L246.1,207.1 L251.5,207.5 L254.5,216.7 L250.7,219.0 L251.0,222.2 L246.6,220.0 L244.3,223.8 L236.0,225.9 L238.5,229.2 L238.6,238.2 L231.1,241.3 L227.1,239.6 L226.6,235.8 L221.4,238.2 L216.5,238.3 L214.0,235.6 L212.8,238.9 L204.2,243.0 L197.8,239.9 L195.7,244.1 L190.5,244.7 L189.6,239.8 L183.0,244.3 L176.3,235.9 L179.1,232.8 L174.2,228.4 L166.5,228.5 L165.8,231.2 L158.2,231.9 L155.6,228.2 L158.5,223.8 L153.3,223.8 L153.2,217.1 L151.1,206.6 L156.7,200.4 L161.5,202.2 L163.3,206.1 L169.1,204.1 L169.1,199.2 L172.2,197.8 L180.5,200.5 L183.0,198.7 L189.6,199.6 L195.0,197.0 L191.5,190.6 L189.7,183.2 L192.9,178.3 L201.1,172.2 L208.8,173.6 L209.4,171.4 Z">
  <desc xmlns="http://www.highcharts.com/svg/namespace">
    <name>Neustadt a.d. Aisch-Bad Windsheim</name>
    <bundesland>DE.BY</bundesland>
    <hc-middle-x>0.62</hc-middle-x>
    <hc-middle-y>0.52</hc-middle-y>
    <hc-key>de-by-09575000</hc-key>
    <hc-a2>NA</hc-a2>
  </desc>
</path>

<path fill="#CEE3F5" stroke="#6E6E6E" stroke-width="0.4" id="DE.BY.09674000" d="M222.9,70.1 L233.4,70.4 L234.7,73.3 L238.6,74.4 L239.2,69.3 L243.8,71.0 L242.6,72.8 L246.3,76.8 L246.0,86.2 L255.0,87.2 L256.3,84.4 L260.0,87.6 L257.3,95.2 L257.7,98.3 L257.7,102.2 L254.1,104.1 L255.1,107.3 L250.6,110.0 L247.4,108.2 L246.1,112.8 L243.5,113.3 L245.2,118.0 L241.9,120.0 L244.7,123.8 L240.2,127.3 L242.4,129.2 L235.5,137.0 L237.5,138.6 L234.0,143.2 L231.7,141.6 L227.2,147.4 L222.8,149.4 L216.7,145.4 L210.1,145.1 L204.5,142.7 L210.0,140.3 L211.1,133.3 L206.3,131.9 L202.0,128.0 L201.3,123.7 L194.2,120.7 L194.9,117.6 L185.3,114.7 L189.0,111.9 L189.9,114.1 L192.7,109.3 L194.6,110.0 L199.1,101.6 L192.1,99.5 L195.6,93.6 L194.6,89.1 L197.6,86.1 L201.3,77.2 L207.8,73.8 L209.9,68.6 L214.7,71.4 L216.9,75.2 Z M201.7,78.0 L202.4,78.3 L201.8,77.4 L201.5,77.7 Z M204.1,79.1 L204.5,79.0 L203.9,78.6 L203.9,79.0 Z">
  <desc xmlns="http://www.highcharts.com/svg/namespace">
    <name>Haßberge</name>
    <bundesland>DE.BY</bundesland>
    <hc-middle-x>0.52</hc-middle-x>
    <hc-middle-y>0.38</hc-middle-y>
    <hc-key>de-by-09674000</hc-key>
    <hc-a2>HA</hc-a2>
  </desc>
</path>

<path fill="#CEE3F5" stroke="#6E6E6E" stroke-width="0.4" id="DE.BY.09373000" d="M411.9,278.7 L413.2,282.3 L412.3,284.2 L408.4,289.0 L402.1,289.9 L399.8,294.0 L395.1,289.3 L392.9,291.3 L390.7,298.7 L386.5,301.3 L387.3,304.1 L381.5,307.2 L376.8,311.5 L379.1,314.6 L377.1,316.2 L375.2,323.7 L373.4,326.2 L368.8,325.5 L368.9,331.4 L367.2,337.7 L358.7,325.5 L358.8,322.5 L355.0,321.0 L358.8,314.0 L352.3,311.8 L350.8,314.4 L343.6,314.3 L337.7,310.7 L336.5,311.6 L331.7,309.0 L332.0,303.7 L327.7,303.7 L327.6,295.6 L325.8,290.8 L319.5,288.7 L318.5,284.0 L326.8,285.6 L322.5,278.7 L323.8,276.9 L319.0,272.5 L319.7,270.6 L309.8,270.2 L307.5,264.5 L311.8,262.0 L315.2,263.8 L315.6,259.8 L319.3,262.3 L326.9,264.3 L334.3,259.0 L335.7,252.5 L339.4,248.3 L339.6,244.6 L345.1,238.4 L355.2,240.4 L358.0,238.5 L363.8,244.9 L365.9,242.9 L369.5,248.7 L367.7,250.9 L369.6,255.7 L373.2,259.2 L378.3,257.6 L380.5,254.5 L384.2,259.2 L389.3,261.1 L393.1,264.6 L401.0,265.5 L408.7,268.8 Z">
  <desc xmlns="http://www.highcharts.com/svg/namespace">
    <name>Neumarkt i.d. OPf.</name>
    <bundesland>DE.BY</bundesland>
    <hc-middle-x>0.53</hc-middle-x>
    <hc-middle-y>0.47</hc-middle-y>
    <hc-key>de-by-09373000</hc-key>
    <hc-a2>NI</hc-a2>
  </desc>
</path>

<path fill="#CEE3F5" stroke="#6E6E6E" stroke-width="0.4" id="DE.BY.09273000" d="M367.2,337.7 L368.9,331.4 L368.8,325.5 L373.4,326.2 L375.2,323.7 L384.3,324.5 L385.2,327.8 L392.8,328.8 L395.8,322.4 L404.5,321.7 L407.5,323.1 L412.6,331.9 L413.2,337.2 L418.5,333.0 L422.7,336.1 L427.7,333.5 L428.2,335.9 L434.8,338.2 L434.8,345.1 L439.1,344.6 L442.3,353.9 L438.3,356.4 L439.6,364.2 L438.5,373.2 L436.7,378.0 L432.3,376.6 L423.8,378.0 L420.9,382.9 L417.7,383.6 L409.6,392.0 L408.9,397.0 L413.0,409.0 L411.0,412.0 L413.7,414.0 L407.6,415.5 L397.8,408.4 L394.4,411.6 L384.8,408.3 L382.8,404.8 L385.4,401.6 L381.5,398.5 L382.7,394.1 L376.7,390.8 L378.6,385.6 L376.6,381.5 L384.9,378.7 L382.5,377.1 L382.1,372.3 L385.3,373.1 L387.9,369.0 L383.4,366.7 L382.8,361.8 L385.0,361.4 L385.1,354.5 L388.0,353.4 L384.1,348.3 L383.7,344.0 L372.3,341.5 L372.2,338.8 Z">
  <desc xmlns="http://www.highcharts.com/svg/namespace">
    <name>Kelheim</name>
    <bundesland>DE.BY</bundesland>
    <hc-middle-x>0.50</hc-middle-x>
    <hc-middle-y>0.42</hc-middle-y>
    <hc-key>de-by-09273000</hc-key>
    <hc-a2>KE</hc-a2>
  </desc>
</path>

<path fill="#CEE3F5" stroke="#6E6E6E" stroke-width="0.4" id="DE.BY.09277000" d="M562.5,401.7 L565.0,401.8 L566.4,403.8 L565.1,407.1 L569.4,407.4 L570.9,412.5 L567.9,415.1 L569.1,418.4 L573.9,414.2 L578.5,413.0 L582.0,415.1 L580.5,426.8 L584.4,427.0 L585.5,435.3 L593.5,440.0 L593.3,442.9 L581.6,449.2 L583.1,455.7 L591.7,458.1 L591.7,461.2 L595.7,467.5 L589.4,471.0 L581.9,472.0 L574.5,476.2 L566.1,486.6 L563.7,487.8 L555.9,481.9 L556.6,476.2 L553.9,476.1 L545.9,466.9 L539.5,463.3 L532.5,465.1 L525.1,460.3 L523.3,462.8 L514.3,459.0 L511.8,452.0 L508.0,448.6 L504.8,449.6 L504.4,444.8 L496.1,443.6 L493.7,431.7 L498.8,427.9 L501.5,432.6 L505.8,432.0 L507.6,428.6 L504.6,424.8 L509.1,423.4 L515.7,425.4 L515.5,431.6 L520.2,429.7 L522.1,425.3 L528.5,422.2 L528.1,417.0 L533.1,419.2 L536.6,417.3 L533.9,414.5 L535.0,407.6 L541.1,404.7 L551.7,405.0 L555.7,401.0 L558.5,403.1 Z">
  <desc xmlns="http://www.highcharts.com/svg/namespace">
    <name>Rottal-Inn</name>
    <bundesland>DE.BY</bundesland>
    <hc-middle-x>0.66</hc-middle-x>
    <hc-middle-y>0.46</hc-middle-y>
    <hc-key>de-by-09277000</hc-key>
    <hc-a2>RI</hc-a2>
  </desc>
</path>

<path fill="#CEE3F5" stroke="#6E6E6E" stroke-width="0.4" id="DE.BY.09271000" d="M566.4,403.8 L565.0,401.8 L562.5,401.7 L559.3,399.4 L558.9,393.0 L546.3,391.2 L542.8,388.6 L537.1,379.6 L538.7,375.6 L534.0,373.1 L534.3,367.2 L531.9,363.5 L529.6,359.2 L532.2,355.2 L537.6,357.9 L543.3,354.0 L541.1,343.4 L546.4,338.5 L543.5,335.2 L544.3,331.6 L548.1,329.3 L551.3,333.1 L558.0,330.3 L564.6,329.6 L566.9,331.0 L565.6,335.6 L572.9,343.5 L578.1,343.7 L581.2,341.7 L588.7,346.2 L591.7,346.5 L592.6,353.8 L588.3,356.3 L595.1,355.4 L599.4,358.8 L596.3,363.5 L601.3,367.5 L602.0,371.9 L601.0,378.0 L597.4,377.7 L594.5,381.5 L587.2,380.1 L582.3,384.0 L579.8,397.4 L570.5,398.1 L569.8,404.0 Z">
  <desc xmlns="http://www.highcharts.com/svg/namespace">
    <name>Deggendorf</name>
    <bundesland>DE.BY</bundesland>
    <hc-middle-x>0.49</hc-middle-x>
    <hc-middle-y>0.50</hc-middle-y>
    <hc-key>de-by-09271000</hc-key>
    <hc-a2>DE</hc-a2>
  </desc>
</path>

<path fill="#CEE3F5" stroke="#6E6E6E" stroke-width="0.4" id="DE.BY.09473000" d="M261.1,97.9 L258.8,97.9 L257.7,98.3 L257.3,95.2 L260.0,87.6 L256.3,84.4 L255.0,87.2 L246.0,86.2 L246.3,76.8 L242.6,72.8 L243.8,71.0 L239.2,69.3 L239.5,64.7 L244.6,66.9 L248.8,64.6 L252.1,67.4 L255.8,64.4 L254.9,59.4 L249.1,58.5 L247.7,55.2 L244.5,55.9 L240.5,51.0 L236.8,50.0 L238.5,44.1 L236.6,41.0 L241.3,42.1 L246.1,36.1 L248.6,37.4 L252.1,34.4 L256.4,35.4 L258.3,33.5 L260.5,36.8 L266.0,34.1 L273.5,43.5 L274.4,39.6 L280.3,40.7 L281.3,43.9 L291.0,38.9 L297.2,46.5 L294.0,50.0 L295.7,56.2 L297.3,55.2 L301.7,58.9 L303.4,62.1 L299.9,73.9 L303.3,73.6 L300.9,77.3 L297.2,74.6 L291.1,75.2 L290.2,72.2 L285.1,73.4 L280.8,70.7 L274.2,72.4 L277.8,76.5 L277.5,79.6 L270.0,81.1 L269.4,84.4 L265.4,87.2 L269.5,90.3 L268.2,93.6 L265.8,92.3 L261.8,94.1 Z M264.3,66.6 L270.6,65.6 L273.1,70.2 L277.3,64.7 L284.6,60.7 L281.8,58.7 L279.1,60.6 L273.1,57.6 L275.0,56.2 L270.3,54.2 L264.9,55.0 L260.4,57.6 L264.6,60.6 L264.3,63.7 L261.3,64.4 Z">
  <desc xmlns="http://www.highcharts.com/svg/namespace">
    <name>Coburg</name>
    <bundesland>DE.BY</bundesland>
    <hc-middle-x>0.33</hc-middle-x>
    <hc-middle-y>0.17</hc-middle-y>
    <hc-key>de-by-09473000</hc-key>
    <hc-a2>CO</hc-a2>
  </desc>
</path>

<path fill="#CEE3F5" stroke="#6E6E6E" stroke-width="0.4" id="DE.BY.09174000" d="M369.0,476.4 L360.6,481.0 L358.2,487.7 L356.8,493.1 L352.3,496.2 L344.7,497.7 L344.9,494.3 L341.1,490.9 L331.5,491.9 L328.9,486.0 L323.0,486.0 L319.2,481.7 L315.6,482.4 L312.1,478.7 L308.1,481.2 L308.3,484.6 L303.7,485.0 L303.5,476.2 L305.0,473.3 L309.2,473.2 L311.4,470.4 L310.1,463.4 L312.6,463.9 L314.5,457.7 L311.5,453.1 L320.1,450.0 L323.6,446.3 L327.5,447.1 L330.2,445.1 L333.5,444.4 L339.6,447.2 L340.1,450.8 L343.8,451.3 L344.8,454.5 L348.1,450.0 L355.9,446.8 L356.9,451.4 L361.0,457.2 L357.9,460.4 L360.9,463.1 L359.7,465.7 L368.0,468.6 Z">
  <desc xmlns="http://www.highcharts.com/svg/namespace">
    <name>Dachau</name>
    <bundesland>DE.BY</bundesland>
    <hc-middle-x>0.54</hc-middle-x>
    <hc-middle-y>0.46</hc-middle-y>
    <hc-key>de-by-09174000</hc-key>
    <hc-a2>DA</hc-a2>
  </desc>
</path>

<path fill="#CEE3F5" stroke="#6E6E6E" stroke-width="0.4" id="DE.BY.09176000" d="M284.9,367.8 L283.7,363.2 L275.0,359.2 L278.7,359.9 L280.1,355.8 L285.6,353.9 L293.9,347.8 L290.5,344.2 L295.3,337.7 L303.2,336.8 L303.1,331.2 L310.9,319.2 L317.2,318.9 L320.3,326.5 L328.8,329.1 L332.1,324.7 L336.3,324.8 L339.4,317.6 L336.5,311.6 L337.7,310.7 L343.6,314.3 L350.8,314.4 L352.3,311.8 L358.8,314.0 L355.0,321.0 L358.8,322.5 L358.7,325.5 L367.2,337.7 L372.2,338.8 L372.3,341.5 L383.7,344.0 L384.1,348.3 L388.0,353.4 L385.1,354.5 L385.0,361.4 L382.8,361.8 L383.4,366.7 L387.9,369.0 L385.3,373.1 L382.3,370.9 L378.4,374.9 L376.1,372.8 L374.6,367.1 L368.7,366.9 L368.5,370.1 L364.6,373.6 L362.5,378.7 L363.9,380.9 L355.3,384.3 L353.3,382.1 L355.1,378.7 L354.4,373.7 L347.3,371.9 L344.6,368.5 L339.0,366.8 L338.7,374.6 L334.5,375.8 L331.8,374.2 L327.1,375.1 L320.8,373.6 L320.2,375.8 L315.6,377.5 L312.8,374.0 L300.3,370.7 L294.4,370.6 L292.1,374.3 L289.7,372.4 L290.0,367.8 Z">
  <desc xmlns="http://www.highcharts.com/svg/namespace">
    <name>Eichstätt</name>
    <bundesland>DE.BY</bundesland>
    <hc-middle-x>0.56</hc-middle-x>
    <hc-middle-y>0.52</hc-middle-y>
    <hc-key>de-by-09176000</hc-key>
    <hc-a2>EI</hc-a2>
  </desc>
</path>

<path fill="#CEE3F5" stroke="#6E6E6E" stroke-width="0.4" id="DE.BY.09177000" d="M394.8,492.2 L395.0,484.9 L391.8,480.5 L391.8,476.3 L395.6,475.8 L397.4,462.8 L400.8,456.2 L405.3,454.7 L405.2,451.2 L410.2,450.8 L416.6,447.3 L421.8,441.4 L430.1,446.2 L430.7,449.3 L439.8,447.2 L451.1,447.6 L451.5,451.8 L455.8,455.7 L454.7,457.9 L461.2,462.4 L464.1,468.0 L464.9,474.5 L461.2,477.6 L462.4,483.5 L459.9,487.8 L462.2,491.1 L460.7,494.1 L455.9,490.6 L454.0,494.2 L444.0,500.8 L434.5,503.9 L436.2,507.5 L431.9,505.0 L430.7,501.1 L427.8,503.2 L423.8,501.4 L420.8,502.9 L419.1,498.0 L412.7,496.8 L412.7,494.5 L405.6,495.0 L400.6,492.2 Z">
  <desc xmlns="http://www.highcharts.com/svg/namespace">
    <name>Erding</name>
    <bundesland>DE.BY</bundesland>
    <hc-middle-x>0.52</hc-middle-x>
    <hc-middle-y>0.48</hc-middle-y>
    <hc-key>de-by-09177000</hc-key>
    <hc-a2>ER</hc-a2>
  </desc>
</path>

<path fill="#CEE3F5" stroke="#6E6E6E" stroke-width="0.4" id="DE.BY.09764000" d="M161.9,558.4 L158.6,555.7 L159.6,550.8 L162.4,550.1 L165.4,553.8 L165.3,547.7 L168.2,545.9 L164.8,541.7 L165.1,541.2 L165.2,539.9 L170.0,539.9 L176.0,535.4 L179.0,534.9 L178.6,542.4 L174.4,544.6 L174.3,554.1 L168.9,561.5 Z">
  <desc xmlns="http://www.highcharts.com/svg/namespace">
    <name>Memmingen</name>
    <bundesland>DE.BY</bundesland>
    <hc-middle-x>0.41</hc-middle-x>
    <hc-middle-y>0.66</hc-middle-y>
    <hc-key>de-by-09764000</hc-key>
    <hc-a2>ME</hc-a2>
  </desc>
</path>

<path fill="#CEE3F5" stroke="#6E6E6E" stroke-width="0.4" id="DE.BY.09274000" d="M438.5,373.2 L440.7,373.8 L443.9,374.3 L448.6,377.9 L456.4,380.0 L461.4,383.0 L467.3,377.4 L468.6,382.0 L471.6,382.6 L473.3,389.3 L480.5,391.9 L482.0,398.4 L478.0,399.2 L476.0,402.6 L478.7,408.0 L476.4,408.3 L475.7,414.4 L483.0,417.8 L483.2,420.7 L488.8,416.8 L493.6,415.6 L498.5,419.3 L495.1,421.5 L498.8,427.9 L493.7,431.7 L496.1,443.6 L490.0,449.2 L486.8,458.7 L484.7,458.1 L479.7,462.4 L479.0,465.6 L473.9,464.2 L474.5,468.0 L471.3,465.9 L464.1,468.0 L461.2,462.4 L454.7,457.9 L455.8,455.7 L451.5,451.8 L451.1,447.6 L439.8,447.2 L430.7,449.3 L430.1,446.2 L426.3,442.3 L428.2,432.3 L423.2,433.3 L421.4,424.9 L422.8,420.9 L420.6,415.1 L418.1,416.2 L413.7,414.0 L411.0,412.0 L413.0,409.0 L408.9,397.0 L409.6,392.0 L417.7,383.6 L420.9,382.9 L423.8,378.0 L432.3,376.6 L436.7,378.0 Z M466.5,410.7 L461.6,410.2 L457.5,412.6 L450.6,419.9 L449.0,418.6 L445.2,414.7 L443.2,421.1 L430.1,426.4 L430.1,429.7 L439.6,428.2 L444.9,426.0 L448.0,428.2 L458.8,423.8 L457.3,421.2 Z">
  <desc xmlns="http://www.highcharts.com/svg/namespace">
    <name>Landshut</name>
    <bundesland>DE.BY</bundesland>
    <hc-middle-x>0.39</hc-middle-x>
    <hc-middle-y>0.24</hc-middle-y>
    <hc-key>de-by-09274000</hc-key>
    <hc-a2>LA</hc-a2>
  </desc>
</path>

<path fill="#CEE3F5" stroke="#6E6E6E" stroke-width="0.4" id="DE.BY.09375000" d="M443.9,374.3 L440.7,373.8 L438.5,373.2 L439.6,364.2 L438.3,356.4 L442.3,353.9 L439.1,344.6 L434.8,345.1 L434.8,338.2 L428.2,335.9 L427.7,333.5 L422.7,336.1 L418.5,333.0 L413.2,337.2 L412.6,331.9 L407.5,323.1 L404.5,321.7 L395.8,322.4 L392.8,328.8 L385.2,327.8 L384.3,324.5 L375.2,323.7 L377.1,316.2 L379.1,314.6 L376.8,311.5 L381.5,307.2 L387.3,304.1 L386.5,301.3 L390.7,298.7 L392.9,291.3 L395.1,289.3 L399.8,294.0 L402.1,289.9 L408.4,289.0 L412.3,284.2 L419.3,287.3 L421.7,285.5 L422.2,291.3 L427.7,288.8 L435.0,294.3 L438.0,288.8 L443.2,285.4 L441.4,279.9 L446.2,277.0 L448.5,284.9 L453.1,286.5 L453.4,289.8 L461.1,291.0 L461.9,288.4 L465.0,291.1 L467.0,294.9 L464.6,297.2 L468.7,299.0 L469.9,302.6 L467.6,304.7 L473.8,304.5 L474.1,301.1 L481.5,303.1 L481.7,308.3 L483.8,310.1 L481.5,312.9 L489.6,315.6 L491.1,317.7 L489.9,327.9 L486.3,326.3 L484.4,328.8 L484.9,336.5 L487.7,339.8 L483.6,344.2 L483.1,349.1 L476.4,355.7 L469.7,352.7 L463.2,357.3 L460.7,353.3 L460.7,357.3 L457.8,358.5 L456.2,363.4 L448.6,366.9 L448.1,369.1 L443.0,371.4 Z M447.6,330.2 L449.5,322.4 L445.0,320.3 L445.5,314.1 L443.7,314.6 L441.8,309.8 L435.6,311.5 L436.1,316.1 L431.2,317.5 L429.8,314.2 L426.9,323.1 L432.2,325.3 L434.3,331.3 L439.5,329.8 L440.9,331.6 L445.2,329.0 Z">
  <desc xmlns="http://www.highcharts.com/svg/namespace">
    <name>Regensburg</name>
    <bundesland>DE.BY</bundesland>
    <hc-middle-x>0.76</hc-middle-x>
    <hc-middle-y>0.56</hc-middle-y>
    <hc-key>de-by-09375000</hc-key>
    <hc-a2>RE</hc-a2>
  </desc>
</path>

<path fill="#CEE3F5" stroke="#6E6E6E" stroke-width="0.4" id="DE.BY.09186000" d="M330.2,445.1 L328.2,443.2 L327.7,440.4 L330.3,438.4 L330.1,431.5 L337.0,426.0 L332.8,419.8 L339.5,417.8 L333.9,412.2 L338.5,410.2 L337.9,408.1 L341.9,404.2 L346.8,403.2 L348.9,392.2 L345.7,392.1 L348.4,386.1 L353.0,386.0 L353.3,382.1 L355.3,384.3 L363.9,380.9 L362.5,378.7 L364.6,373.6 L368.5,370.1 L368.7,366.9 L374.6,367.1 L376.1,372.8 L378.4,374.9 L382.3,370.9 L385.3,373.1 L382.1,372.3 L382.5,377.1 L384.9,378.7 L376.6,381.5 L378.6,385.6 L376.7,390.8 L382.7,394.1 L381.5,398.5 L385.4,401.6 L382.8,404.8 L384.8,408.3 L385.2,414.6 L378.3,420.1 L379.4,433.7 L376.8,433.9 L375.9,438.4 L371.7,441.0 L365.0,435.8 L361.7,442.4 L355.9,446.8 L348.1,450.0 L344.8,454.5 L343.8,451.3 L340.1,450.8 L339.6,447.2 L333.5,444.4 Z">
  <desc xmlns="http://www.highcharts.com/svg/namespace">
    <name>Pfaffenhofen a.d. Ilm</name>
    <bundesland>DE.BY</bundesland>
    <hc-middle-x>0.55</hc-middle-x>
    <hc-middle-y>0.58</hc-middle-y>
    <hc-key>de-by-09186000</hc-key>
    <hc-a2>PA</hc-a2>
  </desc>
</path>

<path fill="#CEE3F5" stroke="#6E6E6E" stroke-width="0.4" id="DE.BY.09183000" d="M442.4,511.4 L437.3,510.1 L436.2,507.5 L434.5,503.9 L444.0,500.8 L454.0,494.2 L455.9,490.6 L460.7,494.1 L462.2,491.1 L459.9,487.8 L462.4,483.5 L461.2,477.6 L464.9,474.5 L464.1,468.0 L471.3,465.9 L474.5,468.0 L473.9,464.2 L479.0,465.6 L479.7,462.4 L484.7,458.1 L486.8,458.7 L490.0,449.2 L496.1,443.6 L504.4,444.8 L504.8,449.6 L508.0,448.6 L511.8,452.0 L514.3,459.0 L513.2,462.9 L508.6,463.4 L508.4,468.5 L514.0,474.1 L514.2,477.0 L510.8,477.3 L508.8,482.0 L514.8,485.0 L511.5,486.4 L513.0,496.0 L510.4,500.6 L508.9,499.6 L505.3,503.9 L499.6,501.8 L497.7,508.3 L493.5,511.5 L490.1,507.5 L485.4,510.6 L480.0,509.0 L477.3,513.4 L471.1,513.5 L466.3,508.6 L459.8,506.2 L460.0,509.2 L453.7,519.3 L449.6,516.3 L451.6,512.5 L448.7,509.1 Z">
  <desc xmlns="http://www.highcharts.com/svg/namespace">
    <name>Mühldorf a. Inn</name>
    <bundesland>DE.BY</bundesland>
    <hc-middle-x>0.66</hc-middle-x>
    <hc-middle-y>0.55</hc-middle-y>
    <hc-key>de-by-09183000</hc-key>
    <hc-a2>MA</hc-a2>
  </desc>
</path>

<path fill="#CEE3F5" stroke="#6E6E6E" stroke-width="0.4" id="DE.BY.09175000" d="M436.2,507.5 L437.3,510.1 L442.4,511.4 L439.3,516.4 L441.1,519.1 L442.1,533.6 L445.2,534.9 L441.9,542.6 L435.4,543.8 L432.2,547.5 L426.9,541.6 L421.7,539.7 L420.9,541.7 L424.0,549.8 L421.8,552.7 L413.4,547.7 L410.0,549.7 L403.6,542.4 L397.4,540.8 L397.8,534.3 L400.9,534.6 L399.4,519.6 L397.2,518.6 L394.5,508.6 L398.0,504.6 L395.6,500.4 L394.8,492.2 L400.6,492.2 L405.6,495.0 L412.7,494.5 L412.7,496.8 L419.1,498.0 L420.8,502.9 L423.8,501.4 L427.8,503.2 L430.7,501.1 L431.9,505.0 Z">
  <desc xmlns="http://www.highcharts.com/svg/namespace">
    <name>Ebersberg</name>
    <bundesland>DE.BY</bundesland>
    <hc-middle-x>0.50</hc-middle-x>
    <hc-middle-y>0.48</hc-middle-y>
    <hc-key>de-by-09175000</hc-key>
    <hc-a2>EB</hc-a2>
  </desc>
</path>

<path fill="#CEE3F5" stroke="#6E6E6E" stroke-width="0.4" id="DE.BY.09476000" d="M303.3,73.6 L299.9,73.9 L303.4,62.1 L301.7,58.9 L302.7,54.5 L309.6,59.4 L311.2,57.9 L310.0,52.7 L312.5,51.1 L310.4,47.7 L313.2,44.8 L311.3,41.1 L314.0,39.6 L311.5,27.2 L308.3,14.6 L317.9,12.1 L318.1,7.9 L321.4,5.1 L332.0,5.9 L334.3,9.0 L331.5,10.5 L332.0,21.4 L336.2,23.8 L340.5,23.7 L340.2,30.1 L345.7,31.1 L345.9,35.6 L357.1,30.0 L358.2,32.1 L352.2,34.6 L354.1,37.4 L349.0,39.5 L347.5,45.2 L352.9,53.7 L348.9,56.5 L349.7,58.6 L342.2,62.3 L332.7,73.4 L335.7,76.6 L330.6,78.4 L327.7,74.8 L325.7,80.5 L323.2,81.9 L314.9,82.0 L310.4,77.2 L307.0,77.2 L308.1,73.8 Z">
  <desc xmlns="http://www.highcharts.com/svg/namespace">
    <name>Kronach</name>
    <bundesland>DE.BY</bundesland>
    <hc-middle-x>0.51</hc-middle-x>
    <hc-middle-y>0.52</hc-middle-y>
    <hc-key>de-by-09476000</hc-key>
    <hc-a2>KR</hc-a2>
  </desc>
</path>

<path fill="#CEE3F5" stroke="#6E6E6E" stroke-width="0.4" id="DE.BY.09261000" d="M466.5,410.7 L457.3,421.2 L458.8,423.8 L448.0,428.2 L444.9,426.0 L439.6,428.2 L430.1,429.7 L430.1,426.4 L443.2,421.1 L445.2,414.7 L449.0,418.6 L450.6,419.9 L457.5,412.6 L461.6,410.2 Z">
  <desc xmlns="http://www.highcharts.com/svg/namespace">
    <name>Landshut</name>
    <bundesland>DE.BY</bundesland>
    <hc-middle-x>0.68</hc-middle-x>
    <hc-middle-y>0.46</hc-middle-y>
    <hc-key>de-by-09261000</hc-key>
    <hc-a2>LA</hc-a2>
  </desc>
</path>

<path fill="#CEE3F5" stroke="#6E6E6E" stroke-width="0.4" id="DE.BY.09774000" d="M163.6,448.3 L169.0,447.6 L170.7,443.6 L178.7,440.2 L177.7,435.9 L183.8,435.0 L187.3,441.0 L190.4,442.6 L199.3,439.9 L200.7,434.1 L204.7,432.3 L205.3,442.2 L213.8,440.7 L219.3,443.8 L221.5,453.5 L216.4,456.7 L222.5,459.7 L219.3,461.2 L218.9,470.0 L215.2,476.7 L222.7,477.6 L227.6,476.6 L227.9,481.6 L230.1,484.8 L227.8,486.1 L224.5,494.0 L226.9,498.8 L221.1,500.3 L219.0,496.2 L208.3,500.1 L208.6,503.5 L200.9,505.9 L195.3,510.5 L194.9,507.5 L187.4,505.4 L188.1,499.7 L183.9,495.9 L186.7,488.0 L189.5,488.6 L185.7,483.6 L183.8,473.7 L177.3,468.7 L171.6,466.2 L168.9,462.0 L168.4,455.4 L170.0,450.0 L165.9,450.6 Z">
  <desc xmlns="http://www.highcharts.com/svg/namespace">
    <name>Günzburg</name>
    <bundesland>DE.BY</bundesland>
    <hc-middle-x>0.55</hc-middle-x>
    <hc-middle-y>0.46</hc-middle-y>
    <hc-key>de-by-09774000</hc-key>
    <hc-a2>GÜ</hc-a2>
  </desc>
</path>

<path fill="#CEE3F5" stroke="#6E6E6E" stroke-width="0.4" id="DE.BY.09571000" d="M200.6,336.6 L196.6,332.0 L192.4,330.6 L192.1,325.9 L187.9,326.5 L184.1,323.0 L178.4,323.9 L179.0,317.2 L175.9,316.5 L177.9,312.4 L171.5,311.4 L177.9,305.4 L178.4,302.7 L174.0,297.9 L171.3,299.2 L164.5,291.4 L160.0,290.0 L162.1,288.0 L158.3,278.0 L162.9,275.3 L163.2,271.1 L160.6,267.6 L162.5,265.1 L156.8,260.5 L159.4,257.9 L157.0,251.9 L164.4,249.4 L160.5,239.5 L155.0,237.3 L158.2,231.9 L165.8,231.2 L166.5,228.5 L174.2,228.4 L179.1,232.8 L176.3,235.9 L183.0,244.3 L189.6,239.8 L190.5,244.7 L195.7,244.1 L197.8,239.9 L204.2,243.0 L212.8,238.9 L214.0,235.6 L216.5,238.3 L221.4,238.2 L226.6,235.8 L227.1,239.6 L231.1,241.3 L238.6,238.2 L243.5,238.2 L246.1,240.9 L245.1,245.7 L262.7,254.7 L263.5,262.4 L268.6,269.4 L267.3,273.7 L269.6,277.8 L262.2,283.6 L262.9,286.3 L259.3,288.5 L251.1,287.1 L245.8,289.0 L241.4,293.0 L239.5,299.0 L234.2,302.9 L233.1,311.9 L237.1,313.2 L239.1,321.0 L236.4,327.4 L232.9,327.6 L227.8,327.5 L226.3,323.9 L220.8,324.1 L219.5,329.5 L211.6,329.1 L205.6,330.2 Z M224.5,260.5 L223.8,258.5 L218.2,259.1 L215.0,263.3 L208.1,262.3 L211.7,269.5 L205.6,271.0 L209.5,273.2 L208.3,275.0 L213.0,276.4 L219.3,276.0 L223.2,279.3 L231.6,281.3 L232.3,276.4 L229.5,275.0 L228.2,270.6 L233.3,263.1 Z">
  <desc xmlns="http://www.highcharts.com/svg/namespace">
    <name>Ansbach</name>
    <bundesland>DE.BY</bundesland>
    <hc-middle-x>0.43</hc-middle-x>
    <hc-middle-y>0.59</hc-middle-y>
    <hc-key>de-by-09571000</hc-key>
    <hc-a2>AN</hc-a2>
  </desc>
</path>

<path fill="#CEE3F5" stroke="#6E6E6E" stroke-width="0.4" id="DE.BY.09276000" d="M584.6,280.7 L584.9,287.0 L590.1,291.3 L594.4,292.9 L601.8,291.4 L609.8,297.3 L614.6,303.5 L616.9,304.3 L621.3,319.9 L614.9,319.5 L609.5,327.7 L602.9,325.6 L605.0,332.2 L603.0,335.5 L603.4,343.7 L599.5,342.9 L598.9,346.5 L591.7,346.5 L588.7,346.2 L581.2,341.7 L578.1,343.7 L572.9,343.5 L565.6,335.6 L566.9,331.0 L564.6,329.6 L558.0,330.3 L551.3,333.1 L548.1,329.3 L545.1,321.9 L537.7,315.1 L533.8,307.3 L533.5,303.2 L529.1,296.1 L531.4,291.7 L532.6,294.4 L539.0,291.3 L544.4,290.5 L547.2,292.5 L550.7,291.0 L549.6,287.7 L553.5,289.7 L556.9,283.7 L567.7,285.5 L570.8,290.8 L580.1,294.1 L580.1,290.8 L584.0,286.0 Z">
  <desc xmlns="http://www.highcharts.com/svg/namespace">
    <name>Regen</name>
    <bundesland>DE.BY</bundesland>
    <hc-middle-x>0.44</hc-middle-x>
    <hc-middle-y>0.53</hc-middle-y>
    <hc-key>de-by-09276000</hc-key>
    <hc-a2>RE</hc-a2>
  </desc>
</path>

<path fill="#CEE3F5" stroke="#6E6E6E" stroke-width="0.4" id="DE.BY.09773000" d="M183.8,435.0 L188.6,433.4 L186.9,428.8 L188.7,426.3 L185.7,419.3 L186.2,416.3 L189.8,415.1 L186.2,411.9 L179.9,403.6 L182.5,398.9 L181.8,395.1 L188.8,399.4 L192.9,400.1 L193.6,405.3 L198.9,402.6 L199.3,398.0 L204.0,396.6 L201.9,403.8 L207.4,402.8 L213.8,397.8 L212.6,396.0 L214.5,390.4 L218.6,384.2 L235.3,386.9 L236.5,388.0 L235.8,396.0 L231.4,397.8 L236.4,400.7 L237.5,403.9 L241.8,405.3 L243.7,403.1 L249.2,408.1 L253.2,406.1 L254.1,411.7 L252.1,416.1 L254.6,423.7 L252.1,426.4 L253.7,429.9 L249.6,436.0 L252.6,437.0 L246.8,440.5 L240.0,437.6 L231.2,437.9 L223.1,443.1 L219.3,443.8 L213.8,440.7 L205.3,442.2 L204.7,432.3 L200.7,434.1 L199.3,439.9 L190.4,442.6 L187.3,441.0 Z">
  <desc xmlns="http://www.highcharts.com/svg/namespace">
    <name>Dillingen a.d. Donau</name>
    <bundesland>DE.BY</bundesland>
    <hc-middle-x>0.44</hc-middle-x>
    <hc-middle-y>0.61</hc-middle-y>
    <hc-key>de-by-09773000</hc-key>
    <hc-a2>DA</hc-a2>
  </desc>
</path>

<path fill="#CEE3F5" stroke="#6E6E6E" stroke-width="0.4" id="DE.BY.09479000" d="M434.5,65.1 L436.6,66.5 L442.4,75.8 L439.9,81.2 L442.1,89.8 L447.1,90.8 L451.5,94.9 L449.6,98.8 L447.2,103.8 L441.2,104.6 L440.3,111.6 L427.6,117.1 L424.0,113.3 L421.2,116.8 L411.5,116.4 L402.9,119.4 L401.4,117.7 L400.5,113.5 L394.9,108.6 L395.9,104.5 L391.4,102.1 L391.3,99.7 L386.0,97.6 L388.7,95.7 L384.7,91.9 L392.7,88.2 L398.3,81.4 L404.5,76.1 L403.6,71.0 L407.5,69.9 L412.0,72.8 L411.5,76.8 L417.3,73.5 L420.0,67.4 L424.1,63.9 L430.2,66.9 Z">
  <desc xmlns="http://www.highcharts.com/svg/namespace">
    <name>Wunsiedel i. Fichtelgebirge</name>
    <bundesland>DE.BY</bundesland>
    <hc-middle-x>0.49</hc-middle-x>
    <hc-middle-y>0.53</hc-middle-y>
    <hc-key>de-by-09479000</hc-key>
    <hc-a2>WI</hc-a2>
  </desc>
</path>

<path fill="#CEE3F5" stroke="#6E6E6E" stroke-width="0.4" id="DE.BY.09374000" d="M471.8,161.7 L477.6,172.7 L484.0,176.2 L489.0,176.2 L490.4,180.5 L488.9,184.9 L490.6,190.7 L495.1,190.2 L497.7,197.2 L497.6,203.0 L500.5,206.5 L496.5,204.6 L491.5,208.4 L484.9,204.8 L480.4,208.3 L479.6,211.8 L474.5,210.1 L473.3,212.5 L465.2,214.6 L459.3,213.6 L460.2,209.6 L457.5,209.5 L450.8,204.2 L452.0,201.7 L444.1,198.9 L442.2,203.8 L436.1,205.2 L434.3,208.2 L434.7,205.9 L427.6,204.9 L427.8,202.2 L415.9,202.6 L416.9,197.1 L413.5,194.5 L414.0,189.4 L405.3,188.6 L400.4,191.0 L394.3,190.0 L391.2,187.6 L387.0,188.6 L382.0,193.5 L371.2,194.3 L367.9,192.9 L369.6,188.0 L368.7,181.6 L370.8,176.1 L368.8,175.5 L368.0,167.9 L365.6,165.5 L366.0,156.3 L371.2,154.6 L373.9,156.2 L374.8,152.6 L388.8,145.9 L395.8,146.0 L396.4,149.9 L401.0,155.0 L403.7,155.8 L407.1,153.0 L409.4,154.4 L414.9,150.4 L418.7,153.9 L419.0,157.4 L423.6,156.1 L427.0,158.2 L429.8,154.4 L428.9,151.8 L434.2,149.8 L438.9,142.5 L442.5,147.1 L441.3,149.7 L448.0,155.0 L449.0,160.0 L452.7,161.7 L455.7,159.7 L462.6,162.1 L467.8,159.2 Z M432.7,176.9 L427.9,175.7 L427.4,181.3 L430.7,188.4 L433.2,188.1 L433.6,191.9 L437.0,193.5 L437.6,188.9 L441.9,183.4 L446.2,183.3 L451.6,189.5 L453.8,184.7 L452.5,181.4 L448.2,180.4 L447.9,178.2 L443.4,178.4 L442.0,174.9 L434.9,173.2 Z">
  <desc xmlns="http://www.highcharts.com/svg/namespace">
    <name>Neustadt a.d. Waldnaab</name>
    <bundesland>DE.BY</bundesland>
    <hc-middle-x>0.33</hc-middle-x>
    <hc-middle-y>0.42</hc-middle-y>
    <hc-key>de-by-09374000</hc-key>
    <hc-a2>NA</hc-a2>
  </desc>
</path>

<path fill="#CEE3F5" stroke="#6E6E6E" stroke-width="0.4" id="DE.BY.09672000" d="M88.3,71.9 L94.4,69.7 L90.1,67.2 L92.4,63.0 L99.1,60.8 L105.1,53.6 L104.4,43.5 L106.6,30.2 L112.3,30.2 L115.3,34.2 L123.3,35.5 L130.4,31.0 L131.5,33.5 L129.3,40.2 L133.3,38.7 L132.8,42.8 L129.5,45.6 L137.7,53.6 L141.5,49.9 L143.4,54.8 L148.2,57.0 L149.8,54.8 L156.8,57.6 L154.4,62.6 L160.5,61.5 L162.4,64.1 L166.3,62.6 L173.9,63.2 L176.6,58.0 L180.2,54.7 L186.3,59.1 L184.7,61.2 L186.8,67.3 L190.2,70.5 L187.0,74.6 L183.7,74.8 L186.6,79.5 L183.4,82.8 L184.8,87.9 L181.6,85.3 L175.2,88.8 L174.3,86.2 L170.2,87.9 L164.5,87.0 L159.5,91.5 L159.0,95.4 L148.7,99.0 L141.8,97.0 L136.0,102.2 L135.3,108.5 L133.2,113.2 L130.1,113.9 L126.6,108.8 L123.6,112.8 L114.2,110.5 L115.0,104.4 L117.1,102.4 L113.6,100.7 L113.0,96.0 L110.2,97.0 L108.8,92.5 L105.5,93.5 L105.7,88.3 L98.9,81.9 L96.0,72.3 Z M150.2,55.9 L150.2,55.0 L149.7,55.0 L149.7,56.3 Z">
  <desc xmlns="http://www.highcharts.com/svg/namespace">
    <name>Bad Kissingen</name>
    <bundesland>DE.BY</bundesland>
    <hc-middle-x>0.40</hc-middle-x>
    <hc-middle-y>0.52</hc-middle-y>
    <hc-key>de-by-09672000</hc-key>
    <hc-a2>BK</hc-a2>
  </desc>
</path>

<path fill="#CEE3F5" stroke="#6E6E6E" stroke-width="0.4" id="DE.BY.09180000" d="M350.5,648.1 L346.8,653.1 L350.5,654.1 L352.4,658.8 L340.1,658.3 L333.7,663.1 L331.3,669.4 L324.0,669.7 L327.8,662.1 L320.3,663.4 L310.5,666.8 L306.3,670.8 L287.6,670.1 L289.4,663.7 L278.5,652.1 L272.9,653.1 L272.7,649.4 L279.5,646.1 L274.8,641.3 L272.7,633.8 L277.9,631.9 L282.7,628.3 L284.1,624.1 L285.6,618.2 L288.4,616.9 L289.1,611.8 L285.2,606.8 L287.1,603.3 L296.2,605.2 L297.5,601.0 L309.7,598.0 L316.9,601.7 L317.7,598.8 L336.2,604.0 L339.7,606.2 L340.3,610.2 L331.2,612.5 L329.9,615.2 L330.7,623.1 L329.0,630.9 L332.9,632.1 L333.0,636.3 L335.9,636.2 L338.1,640.7 L345.3,644.1 Z">
  <desc xmlns="http://www.highcharts.com/svg/namespace">
    <name>Garmisch-Partenkirchen</name>
    <bundesland>DE.BY</bundesland>
    <hc-middle-x>0.45</hc-middle-x>
    <hc-middle-y>0.62</hc-middle-y>
    <hc-key>de-by-09180000</hc-key>
    <hc-a2>GP</hc-a2>
  </desc>
</path>

<path fill="#CEE3F5" stroke="#6E6E6E" stroke-width="0.4" id="DE.BY.09275000" d="M677.9,373.2 L680.9,377.3 L681.4,386.8 L683.3,393.3 L680.2,398.4 L681.2,400.5 L676.1,407.4 L674.8,405.0 L673.2,413.1 L670.9,416.5 L661.5,412.4 L660.2,409.7 L652.1,405.6 L649.2,407.9 L639.7,401.7 L638.4,398.6 L633.8,401.2 L629.7,398.4 L616.6,399.1 L616.6,400.8 L610.6,399.8 L619.0,409.7 L625.5,413.2 L629.6,411.3 L632.8,419.3 L629.2,431.3 L631.1,436.8 L627.2,449.4 L622.1,453.4 L616.4,460.7 L606.1,467.2 L595.7,467.5 L591.7,461.2 L591.7,458.1 L583.1,455.7 L581.6,449.2 L593.3,442.9 L593.5,440.0 L585.5,435.3 L584.4,427.0 L580.5,426.8 L582.0,415.1 L578.5,413.0 L573.9,414.2 L569.1,418.4 L567.9,415.1 L570.9,412.5 L569.4,407.4 L565.1,407.1 L566.4,403.8 L569.8,404.0 L570.5,398.1 L579.8,397.4 L582.3,384.0 L587.2,380.1 L594.5,381.5 L597.4,377.7 L601.0,378.0 L602.0,371.9 L607.5,373.8 L610.9,370.8 L614.1,372.3 L615.2,368.0 L625.1,367.5 L627.9,373.6 L631.0,376.1 L637.3,372.4 L643.3,376.0 L649.3,381.4 L653.8,379.3 L660.1,380.8 L669.4,378.9 L667.5,375.0 L669.5,372.2 L673.4,373.6 L675.3,371.1 Z">
  <desc xmlns="http://www.highcharts.com/svg/namespace">
    <name>Passau</name>
    <bundesland>DE.BY</bundesland>
    <hc-middle-x>0.33</hc-middle-x>
    <hc-middle-y>0.51</hc-middle-y>
    <hc-key>de-by-09275000</hc-key>
    <hc-a2>PA</hc-a2>
  </desc>
</path>

<path fill="#CEE3F5" stroke="#6E6E6E" stroke-width="0.4" id="DE.BY.09679000" d="M153.2,217.1 L146.9,220.0 L150.0,222.2 L145.6,225.5 L144.7,229.3 L135.5,230.6 L129.8,228.0 L131.4,224.7 L130.6,213.1 L127.6,213.6 L129.9,209.0 L127.5,207.8 L122.8,212.2 L122.2,216.8 L115.4,214.5 L120.6,210.1 L119.5,206.4 L123.9,203.2 L121.4,196.5 L117.0,192.0 L118.0,183.3 L113.1,179.8 L109.2,180.2 L104.8,186.9 L101.1,178.6 L96.7,180.9 L96.6,185.8 L93.0,186.9 L89.5,183.6 L91.7,179.5 L92.6,164.9 L96.8,158.9 L95.8,155.9 L103.3,156.2 L106.8,149.2 L110.5,146.3 L118.4,146.6 L117.3,142.8 L130.9,142.9 L128.7,134.2 L132.2,131.1 L134.1,133.2 L143.4,132.8 L144.7,130.2 L150.1,134.4 L155.1,135.1 L154.2,138.3 L161.5,140.5 L164.5,138.1 L166.6,142.6 L163.0,146.2 L163.3,152.2 L159.8,151.8 L157.6,154.3 L152.7,154.5 L149.8,157.1 L148.7,162.5 L149.5,171.4 L147.4,172.8 L150.2,179.7 L154.6,179.7 L158.9,186.4 L159.7,190.4 L156.3,190.1 L152.7,194.9 L153.0,197.9 L156.7,200.4 L151.1,206.6 Z M123.3,158.1 L124.2,163.4 L127.2,166.8 L123.7,168.9 L126.7,169.7 L124.1,172.8 L132.2,176.5 L134.0,181.7 L138.7,181.0 L139.1,176.0 L137.1,170.8 L138.9,164.7 L142.2,163.5 L140.8,158.3 L139.1,154.3 L131.7,155.2 L128.4,153.4 L127.7,157.6 Z">
  <desc xmlns="http://www.highcharts.com/svg/namespace">
    <name>Würzburg</name>
    <bundesland>DE.BY</bundesland>
    <hc-middle-x>0.58</hc-middle-x>
    <hc-middle-y>0.69</hc-middle-y>
    <hc-key>de-by-09679000</hc-key>
    <hc-a2>WÜ</hc-a2>
  </desc>
</path>

<path fill="#CEE3F5" stroke="#6E6E6E" stroke-width="0.4" id="DE.BY.09272000" d="M621.3,319.9 L632.8,327.4 L634.5,327.2 L634.0,321.4 L645.0,320.9 L646.0,324.2 L652.8,329.5 L658.2,339.0 L664.5,339.0 L666.4,337.0 L673.2,348.6 L679.5,355.4 L678.1,358.8 L683.2,360.5 L681.1,363.9 L680.9,369.0 L677.9,373.2 L675.3,371.1 L673.4,373.6 L669.5,372.2 L667.5,375.0 L669.4,378.9 L660.1,380.8 L653.8,379.3 L649.3,381.4 L643.3,376.0 L637.3,372.4 L631.0,376.1 L627.9,373.6 L625.1,367.5 L615.2,368.0 L614.1,372.3 L610.9,370.8 L607.5,373.8 L602.0,371.9 L601.3,367.5 L596.3,363.5 L599.4,358.8 L595.1,355.4 L588.3,356.3 L592.6,353.8 L591.7,346.5 L598.9,346.5 L599.5,342.9 L603.4,343.7 L603.0,335.5 L605.0,332.2 L602.9,325.6 L609.5,327.7 L614.9,319.5 Z">
  <desc xmlns="http://www.highcharts.com/svg/namespace">
    <name>Freyung-Grafenau</name>
    <bundesland>DE.BY</bundesland>
    <hc-middle-x>0.52</hc-middle-x>
    <hc-middle-y>0.48</hc-middle-y>
    <hc-key>de-by-09272000</hc-key>
    <hc-a2>FG</hc-a2>
  </desc>
</path>

<path fill="#CEE3F5" stroke="#6E6E6E" stroke-width="0.4" id="DE.BY.09189000" d="M533.7,601.1 L527.0,603.9 L524.2,602.8 L519.7,605.1 L516.9,612.5 L511.3,611.9 L506.1,614.5 L497.2,604.5 L495.3,599.9 L486.1,602.9 L482.2,600.2 L481.3,595.1 L483.2,590.1 L487.1,587.9 L487.3,582.1 L490.2,578.2 L488.5,575.0 L495.0,574.5 L493.8,570.4 L486.3,570.8 L484.4,563.3 L486.8,559.6 L490.5,562.1 L493.7,557.7 L495.3,551.8 L492.2,549.3 L494.7,546.5 L491.4,544.8 L487.5,547.7 L486.4,545.3 L481.6,544.4 L478.2,540.5 L479.9,535.4 L478.7,532.4 L481.8,527.2 L477.4,523.7 L479.2,521.0 L478.3,516.7 L484.7,513.5 L485.4,510.6 L490.1,507.5 L493.5,511.5 L497.7,508.3 L499.6,501.8 L505.3,503.9 L508.9,499.6 L510.4,500.6 L507.2,504.9 L512.2,510.4 L510.9,513.4 L513.9,519.9 L518.5,520.4 L518.6,524.3 L527.9,524.0 L532.0,519.0 L530.0,511.3 L533.7,511.6 L537.3,509.2 L537.7,514.4 L540.1,518.7 L549.7,526.4 L553.4,530.8 L556.6,540.2 L556.8,545.6 L553.1,545.7 L553.3,551.3 L558.8,556.2 L557.5,558.3 L546.8,556.2 L539.6,557.5 L537.7,562.4 L537.4,569.6 L539.5,574.4 L543.7,578.0 L552.2,578.6 L554.8,584.7 L545.8,585.2 L543.3,589.0 L536.6,589.8 L536.6,597.0 Z M491.8,563.6 L492.3,563.1 L492.2,563.0 L491.8,563.1 Z M493.2,562.7 L493.6,561.9 L493.2,561.6 L492.9,562.2 Z M490.7,564.7 L488.6,562.6 L488.3,566.6 L491.0,566.4 Z M539.3,557.3 L539.6,556.7 L540.0,556.2 L539.1,556.6 Z">
  <desc xmlns="http://www.highcharts.com/svg/namespace">
    <name>Traunstein</name>
    <bundesland>DE.BY</bundesland>
    <hc-middle-x>0.46</hc-middle-x>
    <hc-middle-y>0.53</hc-middle-y>
    <hc-key>de-by-09189000</hc-key>
    <hc-a2>TR</hc-a2>
  </desc>
</path>

<path fill="#CEE3F5" stroke="#6E6E6E" stroke-width="0.4" id="DE.BY.09181000" d="M292.4,501.3 L291.2,504.5 L286.6,505.1 L296.4,512.7 L296.0,520.3 L301.0,523.5 L307.6,521.2 L308.0,528.1 L306.8,532.3 L307.9,538.9 L312.7,544.1 L310.1,547.6 L310.2,551.8 L308.9,555.7 L299.3,559.2 L301.2,561.9 L294.2,563.9 L292.9,562.1 L287.2,564.8 L286.9,570.4 L283.6,571.9 L281.0,568.4 L277.5,572.9 L270.5,569.7 L266.5,574.6 L259.9,574.3 L256.1,576.5 L254.1,572.6 L258.4,569.9 L257.0,565.0 L260.3,556.6 L263.6,543.0 L261.7,542.4 L262.2,536.6 L259.2,534.7 L254.2,536.0 L257.4,527.0 L260.8,524.7 L259.8,521.0 L257.3,511.4 L263.7,511.7 L267.9,509.5 L270.1,502.4 L272.0,502.2 L273.6,492.5 L277.1,492.9 L282.0,500.3 L283.9,498.3 Z">
  <desc xmlns="http://www.highcharts.com/svg/namespace">
    <name>Landsberg am Lech</name>
    <bundesland>DE.BY</bundesland>
    <hc-middle-x>0.50</hc-middle-x>
    <hc-middle-y>0.50</hc-middle-y>
    <hc-key>de-by-09181000</hc-key>
    <hc-a2>LA</hc-a2>
  </desc>
</path>

<path fill="#CEE3F5" stroke="#6E6E6E" stroke-width="0.4" id="DE.BY.09173000" d="M381.8,626.4 L378.1,628.8 L375.5,634.6 L375.9,640.8 L373.2,643.4 L365.1,645.2 L356.0,645.4 L354.9,643.2 L350.5,648.1 L345.3,644.1 L338.1,640.7 L335.9,636.2 L333.0,636.3 L332.9,632.1 L329.0,630.9 L330.7,623.1 L329.9,615.2 L331.2,612.5 L340.3,610.2 L339.7,606.2 L343.5,603.4 L344.6,597.8 L349.5,595.0 L345.9,585.5 L338.4,583.1 L336.7,579.2 L337.8,577.9 L336.7,555.3 L345.3,557.8 L345.5,553.6 L349.9,545.3 L355.4,548.8 L357.2,545.9 L362.7,548.3 L361.7,550.5 L366.8,550.9 L369.5,549.0 L378.1,556.7 L384.1,563.1 L379.7,572.1 L376.6,575.5 L383.6,578.1 L385.0,582.1 L381.5,586.9 L385.0,593.3 L379.8,597.1 L384.8,597.7 L386.5,605.8 L382.8,609.5 L386.8,612.8 L387.8,618.3 L378.2,622.6 L377.3,627.7 Z">
  <desc xmlns="http://www.highcharts.com/svg/namespace">
    <name>Bad Tölz-Wolfratshausen</name>
    <bundesland>DE.BY</bundesland>
    <hc-middle-x>0.51</hc-middle-x>
    <hc-middle-y>0.68</hc-middle-y>
    <hc-key>de-by-09173000</hc-key>
    <hc-a2>BT</hc-a2>
  </desc>
</path>

<path fill="#CEE3F5" stroke="#6E6E6E" stroke-width="0.4" id="DE.BY.09182000" d="M443.1,618.5 L437.2,620.2 L436.2,617.9 L413.7,623.1 L412.7,627.4 L403.1,625.9 L385.5,628.0 L381.8,626.4 L377.3,627.7 L378.2,622.6 L387.8,618.3 L386.8,612.8 L382.8,609.5 L386.5,605.8 L384.8,597.7 L379.8,597.1 L385.0,593.3 L381.5,586.9 L385.0,582.1 L383.6,578.1 L376.6,575.5 L379.7,572.1 L384.1,563.1 L378.1,556.7 L386.2,553.0 L390.0,552.8 L391.5,557.0 L397.3,555.6 L399.9,551.2 L404.2,554.7 L404.7,558.9 L411.7,567.7 L415.7,567.2 L418.4,570.0 L425.1,571.1 L425.9,575.9 L420.8,578.6 L432.9,586.8 L432.0,591.2 L436.6,593.8 L434.9,600.0 L439.5,606.9 L438.2,612.8 L443.3,616.5 Z">
  <desc xmlns="http://www.highcharts.com/svg/namespace">
    <name>Miesbach</name>
    <bundesland>DE.BY</bundesland>
    <hc-middle-x>0.47</hc-middle-x>
    <hc-middle-y>0.57</hc-middle-y>
    <hc-key>de-by-09182000</hc-key>
    <hc-a2>MI</hc-a2>
  </desc>
</path>

<path fill="#CEE3F5" stroke="#6E6E6E" stroke-width="0.4" id="DE.BY.09361000" d="M397.6,226.4 L401.3,220.9 L404.4,227.6 L407.0,227.4 L407.3,231.2 L399.6,236.7 L396.7,238.7 L393.8,235.7 L389.3,236.0 L388.2,232.4 L390.4,226.3 Z">
  <desc xmlns="http://www.highcharts.com/svg/namespace">
    <name>Amberg</name>
    <bundesland>DE.BY</bundesland>
    <hc-middle-x>0.46</hc-middle-x>
    <hc-middle-y>0.52</hc-middle-y>
    <hc-key>de-by-09361000</hc-key>
    <hc-a2>AM</hc-a2>
  </desc>
</path>

<path fill="#CEE3F5" stroke="#6E6E6E" stroke-width="0.4" id="DE.BY.09574000" d="M330.2,186.7 L332.9,189.3 L333.5,193.7 L338.5,197.7 L344.4,191.1 L350.3,189.6 L354.9,191.5 L357.2,186.2 L356.3,175.7 L358.7,186.3 L358.6,190.0 L362.6,194.9 L361.2,197.4 L355.6,199.3 L359.0,204.2 L351.3,211.3 L355.9,211.9 L354.6,220.2 L358.6,220.4 L362.4,224.4 L362.5,228.4 L357.7,236.5 L358.0,238.5 L355.2,240.4 L345.1,238.4 L339.6,244.6 L339.4,248.3 L335.7,252.5 L334.3,259.0 L326.9,264.3 L319.3,262.3 L315.6,259.8 L307.6,248.3 L302.6,249.2 L304.3,246.7 L307.3,246.2 L305.3,241.5 L309.5,239.6 L305.6,238.1 L305.5,240.6 L299.2,237.2 L301.0,231.8 L305.1,228.5 L303.5,224.9 L307.2,212.3 L306.2,210.1 L318.7,205.2 L318.4,200.4 L321.0,194.8 L325.3,193.2 L328.0,187.2 Z M317.0,235.2 L315.0,235.2 L317.1,240.4 L319.6,240.3 Z">
  <desc xmlns="http://www.highcharts.com/svg/namespace">
    <name>Nürnberger Land</name>
    <bundesland>DE.BY</bundesland>
    <hc-middle-x>0.51</hc-middle-x>
    <hc-middle-y>0.44</hc-middle-y>
    <hc-key>de-by-09574000</hc-key>
    <hc-a2>NL</hc-a2>
  </desc>
</path>

<path fill="#CEE3F5" stroke="#6E6E6E" stroke-width="0.4" id="DE.BY.09371000" d="M358.0,238.5 L357.7,236.5 L362.5,228.4 L362.4,224.4 L358.6,220.4 L354.6,220.2 L355.9,211.9 L351.3,211.3 L359.0,204.2 L355.6,199.3 L361.2,197.4 L362.6,194.9 L358.6,190.0 L358.7,186.3 L356.3,175.7 L355.1,171.7 L359.8,172.5 L360.6,167.2 L365.6,165.5 L368.0,167.9 L368.8,175.5 L370.8,176.1 L368.7,181.6 L369.6,188.0 L367.9,192.9 L371.2,194.3 L382.0,193.5 L387.0,188.6 L391.2,187.6 L394.3,190.0 L400.4,191.0 L405.3,188.6 L414.0,189.4 L413.5,194.5 L416.9,197.1 L415.9,202.6 L427.8,202.2 L427.6,204.9 L434.7,205.9 L434.3,208.2 L430.2,209.7 L428.8,214.8 L431.7,221.0 L423.3,220.2 L424.6,229.3 L424.0,233.8 L416.0,232.6 L417.3,236.9 L428.6,244.2 L426.2,251.7 L425.2,249.8 L419.7,254.4 L420.2,256.3 L415.7,260.8 L418.0,265.6 L412.7,266.7 L418.5,271.9 L414.4,273.7 L411.9,278.7 L408.7,268.8 L401.0,265.5 L393.1,264.6 L389.3,261.1 L384.2,259.2 L380.5,254.5 L378.3,257.6 L373.2,259.2 L369.6,255.7 L367.7,250.9 L369.5,248.7 L365.9,242.9 L363.8,244.9 Z M397.6,226.4 L390.4,226.3 L388.2,232.4 L389.3,236.0 L393.8,235.7 L396.7,238.7 L399.6,236.7 L407.3,231.2 L407.0,227.4 L404.4,227.6 L401.3,220.9 Z">
  <desc xmlns="http://www.highcharts.com/svg/namespace">
    <name>Amberg-Sulzbach</name>
    <bundesland>DE.BY</bundesland>
    <hc-middle-x>0.40</hc-middle-x>
    <hc-middle-y>0.43</hc-middle-y>
    <hc-key>de-by-09371000</hc-key>
    <hc-a2>AS</hc-a2>
  </desc>
</path>

<path fill="#CEE3F5" stroke="#6E6E6E" stroke-width="0.4" id="DE.BY.09475000" d="M434.5,65.1 L430.2,66.9 L424.1,63.9 L420.0,67.4 L417.3,73.5 L411.5,76.8 L412.0,72.8 L407.5,69.9 L403.6,71.0 L404.5,76.1 L398.3,81.4 L392.7,88.2 L384.7,91.9 L382.6,87.0 L378.6,89.2 L372.2,85.9 L369.4,87.9 L366.0,90.0 L365.2,84.8 L369.3,85.1 L370.6,80.8 L365.3,80.2 L369.1,76.4 L367.9,71.2 L365.5,71.2 L365.4,65.6 L357.7,67.0 L359.5,65.0 L358.4,57.8 L355.2,60.8 L349.7,58.6 L348.9,56.5 L352.9,53.7 L347.5,45.2 L349.0,39.5 L354.1,37.4 L352.2,34.6 L358.2,32.1 L357.1,30.0 L360.2,32.4 L372.3,29.9 L376.1,26.9 L383.1,24.9 L387.1,30.8 L392.8,28.3 L395.3,25.0 L401.9,23.0 L409.0,30.4 L408.2,38.0 L413.5,38.8 L416.0,42.4 L420.3,41.6 L429.0,46.7 L430.9,53.4 L425.5,56.4 L427.3,61.6 Z M403.3,52.5 L403.5,48.8 L407.9,45.8 L404.6,39.6 L400.4,38.3 L396.9,39.7 L395.0,37.9 L395.3,43.8 L385.6,47.1 L390.0,52.8 L393.4,52.8 L397.5,56.1 L399.8,56.3 Z">
  <desc xmlns="http://www.highcharts.com/svg/namespace">
    <name>Hof</name>
    <bundesland>DE.BY</bundesland>
    <hc-middle-x>0.34</hc-middle-x>
    <hc-middle-y>0.51</hc-middle-y>
    <hc-key>de-by-09475000</hc-key>
    <hc-a2>HO</hc-a2>
  </desc>
</path>

<path fill="#CEE3F5" stroke="#6E6E6E" stroke-width="0.4" id="DE.BY.09185000" d="M327.7,440.4 L324.0,442.9 L321.0,438.2 L315.5,435.3 L315.1,429.5 L303.4,424.4 L307.4,422.5 L308.8,418.7 L300.7,414.0 L292.4,414.5 L288.4,410.6 L290.9,409.0 L290.4,404.8 L287.1,403.7 L282.5,395.3 L282.3,386.5 L284.1,380.0 L281.1,378.8 L282.3,374.6 L276.7,370.3 L281.1,370.6 L284.9,367.8 L290.0,367.8 L289.7,372.4 L292.1,374.3 L294.4,370.6 L300.3,370.7 L312.8,374.0 L315.6,377.5 L320.2,375.8 L327.3,381.9 L330.6,387.8 L335.6,387.0 L334.5,389.8 L337.9,394.6 L345.7,392.1 L348.9,392.2 L346.8,403.2 L341.9,404.2 L337.9,408.1 L338.5,410.2 L333.9,412.2 L339.5,417.8 L332.8,419.8 L337.0,426.0 L330.1,431.5 L330.3,438.4 Z">
  <desc xmlns="http://www.highcharts.com/svg/namespace">
    <name>Neuburg-Schrobenhausen</name>
    <bundesland>DE.BY</bundesland>
    <hc-middle-x>0.45</hc-middle-x>
    <hc-middle-y>0.35</hc-middle-y>
    <hc-key>de-by-09185000</hc-key>
    <hc-a2>NS</hc-a2>
  </desc>
</path>

<path fill="#CEE3F5" stroke="#6E6E6E" stroke-width="0.4" id="DE.BY.09178000" d="M355.9,446.8 L361.7,442.4 L365.0,435.8 L371.7,441.0 L375.9,438.4 L376.8,433.9 L379.4,433.7 L378.3,420.1 L385.2,414.6 L384.8,408.3 L394.4,411.6 L397.8,408.4 L407.6,415.5 L413.7,414.0 L418.1,416.2 L420.6,415.1 L422.8,420.9 L421.4,424.9 L423.2,433.3 L428.2,432.3 L426.3,442.3 L430.1,446.2 L421.8,441.4 L416.6,447.3 L410.2,450.8 L405.2,451.2 L405.3,454.7 L400.8,456.2 L397.4,462.8 L395.6,475.8 L391.8,476.3 L391.8,480.5 L386.2,482.1 L374.4,482.5 L369.0,476.4 L368.0,468.6 L359.7,465.7 L360.9,463.1 L357.9,460.4 L361.0,457.2 L356.9,451.4 Z">
  <desc xmlns="http://www.highcharts.com/svg/namespace">
    <name>Freising</name>
    <bundesland>DE.BY</bundesland>
    <hc-middle-x>0.45</hc-middle-x>
    <hc-middle-y>0.47</hc-middle-y>
    <hc-key>de-by-09178000</hc-key>
    <hc-a2>FR</hc-a2>
  </desc>
</path>

<path fill="#CEE3F5" stroke="#6E6E6E" stroke-width="0.4" id="DE.BY.09171000" d="M563.7,487.8 L553.3,489.4 L550.4,496.9 L543.5,502.1 L542.2,506.6 L538.1,506.2 L537.3,509.2 L533.7,511.6 L530.0,511.3 L532.0,519.0 L527.9,524.0 L518.6,524.3 L518.5,520.4 L513.9,519.9 L510.9,513.4 L512.2,510.4 L507.2,504.9 L510.4,500.6 L513.0,496.0 L511.5,486.4 L514.8,485.0 L508.8,482.0 L510.8,477.3 L514.2,477.0 L514.0,474.1 L508.4,468.5 L508.6,463.4 L513.2,462.9 L514.3,459.0 L523.3,462.8 L525.1,460.3 L532.5,465.1 L539.5,463.3 L545.9,466.9 L553.9,476.1 L556.6,476.2 L555.9,481.9 Z">
  <desc xmlns="http://www.highcharts.com/svg/namespace">
    <name>Altötting</name>
    <bundesland>DE.BY</bundesland>
    <hc-middle-x>0.39</hc-middle-x>
    <hc-middle-y>0.51</hc-middle-y>
    <hc-key>de-by-09171000</hc-key>
    <hc-a2>AL</hc-a2>
  </desc>
</path>

<path fill="#CEE3F5" stroke="#6E6E6E" stroke-width="0.4" id="DE.BY.09775000" d="M165.1,521.9 L160.8,517.0 L157.6,506.4 L157.3,500.5 L153.9,494.1 L154.5,485.2 L144.7,471.4 L144.9,468.0 L140.3,465.7 L146.4,459.9 L150.8,453.8 L148.7,452.3 L150.2,447.4 L153.1,448.2 L159.5,443.6 L163.6,448.3 L165.9,450.6 L170.0,450.0 L168.4,455.4 L168.9,462.0 L171.6,466.2 L177.3,468.7 L183.8,473.7 L185.7,483.6 L189.5,488.6 L186.7,488.0 L183.9,495.9 L182.0,501.0 L175.5,509.9 L176.1,514.4 L173.0,518.6 Z">
  <desc xmlns="http://www.highcharts.com/svg/namespace">
    <name>Neu-Ulm</name>
    <bundesland>DE.BY</bundesland>
    <hc-middle-x>0.53</hc-middle-x>
    <hc-middle-y>0.48</hc-middle-y>
    <hc-key>de-by-09775000</hc-key>
    <hc-a2>NU</hc-a2>
  </desc>
</path>

<path fill="#CEE3F5" stroke="#6E6E6E" stroke-width="0.4" id="DE.BY.09763000" d="M185.0,603.5 L184.0,597.1 L180.8,593.5 L188.8,591.9 L199.6,594.8 L200.7,596.9 L199.6,605.7 L195.8,605.5 L192.6,609.3 L186.5,607.8 L182.8,605.9 Z">
  <desc xmlns="http://www.highcharts.com/svg/namespace">
    <name>Kempten (Allgäu)</name>
    <bundesland>DE.BY</bundesland>
    <hc-middle-x>0.46</hc-middle-x>
    <hc-middle-y>0.49</hc-middle-y>
    <hc-key>de-by-09763000</hc-key>
    <hc-a2>K(</hc-a2>
  </desc>
</path>

<path fill="#CEE3F5" stroke="#6E6E6E" stroke-width="0.4" id="DE.BY.09188000" d="M310.2,551.8 L310.1,547.6 L312.7,544.1 L307.9,538.9 L306.8,532.3 L308.0,528.1 L307.6,521.2 L311.0,518.7 L314.6,521.2 L316.3,517.8 L323.7,512.7 L327.0,512.5 L331.9,516.4 L337.9,518.6 L342.8,517.1 L348.5,520.2 L345.5,525.4 L350.2,537.3 L346.6,543.1 L349.9,545.3 L345.5,553.6 L345.3,557.8 L336.7,555.3 L337.8,577.9 L336.7,579.2 L331.0,576.6 L332.6,571.2 L330.1,565.4 L315.8,566.5 L316.8,562.3 L322.4,558.7 L319.8,555.4 L316.2,555.9 L314.8,552.4 Z">
  <desc xmlns="http://www.highcharts.com/svg/namespace">
    <name>Starnberg</name>
    <bundesland>DE.BY</bundesland>
    <hc-middle-x>0.51</hc-middle-x>
    <hc-middle-y>0.40</hc-middle-y>
    <hc-key>de-by-09188000</hc-key>
    <hc-a2>ST</hc-a2>
  </desc>
</path>

<path fill="#CEE3F5" stroke="#6E6E6E" stroke-width="0.4" id="DE.BY.09190000" d="M256.1,576.5 L259.9,574.3 L266.5,574.6 L270.5,569.7 L277.5,572.9 L281.0,568.4 L283.6,571.9 L286.9,570.4 L287.2,564.8 L292.9,562.1 L294.2,563.9 L301.2,561.9 L299.3,559.2 L308.9,555.7 L310.2,551.8 L314.8,552.4 L316.2,555.9 L319.8,555.4 L322.4,558.7 L316.8,562.3 L315.8,566.5 L330.1,565.4 L332.6,571.2 L331.0,576.6 L336.7,579.2 L338.4,583.1 L345.9,585.5 L349.5,595.0 L344.6,597.8 L343.5,603.4 L339.7,606.2 L336.2,604.0 L317.7,598.8 L316.9,601.7 L309.7,598.0 L297.5,601.0 L296.2,605.2 L287.1,603.3 L285.2,606.8 L289.1,611.8 L288.4,616.9 L285.6,618.2 L284.1,624.1 L281.4,624.1 L276.7,619.9 L278.3,614.9 L274.5,616.1 L268.6,613.7 L265.3,615.9 L258.6,615.0 L261.2,607.0 L265.6,600.9 L260.6,603.0 L259.8,605.7 L251.9,609.6 L252.7,592.7 L257.6,593.1 L258.4,589.8 L253.7,586.4 Z">
  <desc xmlns="http://www.highcharts.com/svg/namespace">
    <name>Weilheim-Schongau</name>
    <bundesland>DE.BY</bundesland>
    <hc-middle-x>0.39</hc-middle-x>
    <hc-middle-y>0.46</hc-middle-y>
    <hc-key>de-by-09190000</hc-key>
    <hc-a2>WS</hc-a2>
  </desc>
</path>

<path fill="#CEE3F5" stroke="#6E6E6E" stroke-width="0.4" id="DE.BY.09577000" d="M259.3,288.5 L264.6,290.4 L261.9,296.1 L267.5,298.1 L273.6,302.2 L273.6,298.6 L281.8,297.0 L299.7,311.2 L305.0,310.8 L308.0,316.9 L310.9,319.2 L303.1,331.2 L303.2,336.8 L295.3,337.7 L290.5,344.2 L293.9,347.8 L285.6,353.9 L280.1,355.8 L278.7,359.9 L275.0,359.2 L270.5,355.2 L265.2,356.8 L264.2,352.7 L258.5,352.2 L259.7,348.3 L256.3,341.4 L251.3,346.3 L252.2,348.5 L246.9,346.7 L245.5,351.2 L238.8,349.4 L240.5,341.1 L237.4,335.0 L231.5,332.8 L232.9,327.6 L236.4,327.4 L239.1,321.0 L237.1,313.2 L233.1,311.9 L234.2,302.9 L239.5,299.0 L241.4,293.0 L245.8,289.0 L251.1,287.1 Z">
  <desc xmlns="http://www.highcharts.com/svg/namespace">
    <name>Weißenburg-Gunzenhausen</name>
    <bundesland>DE.BY</bundesland>
    <hc-middle-x>0.45</hc-middle-x>
    <hc-middle-y>0.53</hc-middle-y>
    <hc-key>de-by-09577000</hc-key>
    <hc-a2>WG</hc-a2>
  </desc>
</path>

<path fill="#CEE3F5" stroke="#6E6E6E" stroke-width="0.4" id="DE.BY.09561000" d="M224.5,260.5 L233.3,263.1 L228.2,270.6 L229.5,275.0 L232.3,276.4 L231.6,281.3 L223.2,279.3 L219.3,276.0 L213.0,276.4 L208.3,275.0 L209.5,273.2 L205.6,271.0 L211.7,269.5 L208.1,262.3 L215.0,263.3 L218.2,259.1 L223.8,258.5 Z">
  <desc xmlns="http://www.highcharts.com/svg/namespace">
    <name>Ansbach</name>
    <bundesland>DE.BY</bundesland>
    <hc-middle-x>0.55</hc-middle-x>
    <hc-middle-y>0.43</hc-middle-y>
    <hc-key>de-by-09561000</hc-key>
    <hc-a2>AN</hc-a2>
  </desc>
</path>

<path fill="#CEE3F5" stroke="#6E6E6E" stroke-width="0.4" id="DE.BY.09163000" d="M443.9,571.8 L443.5,566.2 L446.6,561.9 L452.0,561.9 L451.4,564.4 L453.9,572.5 L448.5,577.5 L440.5,576.3 Z">
  <desc xmlns="http://www.highcharts.com/svg/namespace">
    <name>Rosenheim</name>
    <bundesland>DE.BY</bundesland>
    <hc-middle-x>0.60</hc-middle-x>
    <hc-middle-y>0.50</hc-middle-y>
    <hc-key>de-by-09163000</hc-key>
    <hc-a2>RO</hc-a2>
  </desc>
</path>

<path fill="#CEE3F5" stroke="#6E6E6E" stroke-width="0.4" id="DE.BY.09363000" d="M432.7,176.9 L434.9,173.2 L442.0,174.9 L443.4,178.4 L447.9,178.2 L448.2,180.4 L452.5,181.4 L453.8,184.7 L451.6,189.5 L446.2,183.3 L441.9,183.4 L437.6,188.9 L437.0,193.5 L433.6,191.9 L433.2,188.1 L430.7,188.4 L427.4,181.3 L427.9,175.7 Z">
  <desc xmlns="http://www.highcharts.com/svg/namespace">
    <name>Weiden i.d. OPf.</name>
    <bundesland>DE.BY</bundesland>
    <hc-middle-x>0.25</hc-middle-x>
    <hc-middle-y>0.53</hc-middle-y>
    <hc-key>de-by-09363000</hc-key>
    <hc-a2>WI</hc-a2>
  </desc>
</path>

<path fill="#CEE3F5" stroke="#6E6E6E" stroke-width="0.4" id="DE.BY.09761000" d="M269.7,445.5 L276.0,452.5 L280.5,462.0 L279.2,464.6 L280.8,471.2 L278.7,485.9 L274.5,487.9 L273.0,480.3 L267.8,481.0 L260.2,479.5 L259.2,481.3 L253.9,480.2 L254.5,476.2 L257.7,474.6 L255.1,472.2 L258.8,468.6 L261.2,470.4 L266.4,469.5 L266.7,464.5 L263.9,461.1 L264.8,456.5 L270.6,455.2 Z">
  <desc xmlns="http://www.highcharts.com/svg/namespace">
    <name>Augsburg</name>
    <bundesland>DE.BY</bundesland>
    <hc-middle-x>0.57</hc-middle-x>
    <hc-middle-y>0.64</hc-middle-y>
    <hc-key>de-by-09761000</hc-key>
    <hc-a2>AU</hc-a2>
  </desc>
</path>

<path fill="#CEE3F5" stroke="#6E6E6E" stroke-width="0.4" id="DE.BY.09762000" d="M240.1,565.6 L241.0,576.4 L235.2,574.7 L232.2,575.8 L227.2,573.0 L227.3,568.1 L236.1,560.3 Z">
  <desc xmlns="http://www.highcharts.com/svg/namespace">
    <name>Kaufbeuren</name>
    <bundesland>DE.BY</bundesland>
    <hc-middle-x>0.47</hc-middle-x>
    <hc-middle-y>0.52</hc-middle-y>
    <hc-key>de-by-09762000</hc-key>
    <hc-a2>KA</hc-a2>
  </desc>
</path>

<path fill="#CEE3F5" stroke="#6E6E6E" stroke-width="0.4" id="DE.BY.09661000" d="M18.0,135.7 L14.8,130.3 L14.8,127.3 L18.1,126.4 L14.3,119.3 L24.6,121.2 L29.3,125.2 L30.1,130.8 L32.3,130.5 L35.9,134.8 L29.4,136.4 L26.4,135.5 L23.1,137.9 L19.1,134.1 Z">
  <desc xmlns="http://www.highcharts.com/svg/namespace">
    <name>Aschaffenburg</name>
    <bundesland>DE.BY</bundesland>
    <hc-middle-x>0.38</hc-middle-x>
    <hc-middle-y>0.51</hc-middle-y>
    <hc-key>de-by-09661000</hc-key>
    <hc-a2>AS</hc-a2>
  </desc>
</path>

<path fill="#CEE3F5" stroke="#6E6E6E" stroke-width="0.4" id="DE.BY.09565000" d="M292.2,257.5 L293.4,262.8 L287.9,263.0 L287.2,266.7 L282.8,266.9 L280.2,259.2 L276.9,254.2 L280.6,250.0 L285.4,250.7 L288.5,257.0 Z">
  <desc xmlns="http://www.highcharts.com/svg/namespace">
    <name>Schwabach</name>
    <bundesland>DE.BY</bundesland>
    <hc-middle-x>0.52</hc-middle-x>
    <hc-middle-y>0.45</hc-middle-y>
    <hc-key>de-by-09565000</hc-key>
    <hc-a2>SC</hc-a2>
  </desc>
</path>

<path fill="#CEE3F5" stroke="#6E6E6E" stroke-width="0.4" id="DE.BY.09474000" d="M310.9,143.9 L314.0,143.1 L315.5,151.4 L321.5,158.6 L326.2,155.9 L329.0,157.7 L326.4,161.7 L331.0,162.9 L331.7,167.7 L328.0,174.8 L331.1,181.9 L327.1,184.8 L330.2,186.7 L328.0,187.2 L325.3,193.2 L321.0,194.8 L318.4,200.4 L304.0,204.2 L294.8,204.4 L291.8,202.0 L290.6,196.4 L287.8,194.1 L284.6,197.0 L282.6,195.5 L286.2,193.3 L287.9,189.2 L286.9,185.2 L280.1,186.7 L280.5,184.2 L276.2,184.9 L270.6,181.7 L268.4,178.4 L272.9,178.8 L268.0,172.0 L268.7,166.8 L269.7,164.5 L273.5,166.3 L276.2,163.0 L280.4,163.4 L292.3,158.2 L292.5,152.2 L301.6,149.7 L302.4,152.3 L310.2,151.0 Z">
  <desc xmlns="http://www.highcharts.com/svg/namespace">
    <name>Forchheim</name>
    <bundesland>DE.BY</bundesland>
    <hc-middle-x>0.56</hc-middle-x>
    <hc-middle-y>0.56</hc-middle-y>
    <hc-key>de-by-09474000</hc-key>
    <hc-a2>FO</hc-a2>
  </desc>
</path>

<path fill="#CEE3F5" stroke="#6E6E6E" stroke-width="0.4" id="DE.BY.09461000" d="M271.5,148.1 L268.4,149.4 L268.2,151.1 L262.1,148.4 L255.1,143.2 L254.1,139.5 L266.4,133.1 L269.4,135.3 L271.4,140.6 Z">
  <desc xmlns="http://www.highcharts.com/svg/namespace">
    <name>Bamberg</name>
    <bundesland>DE.BY</bundesland>
    <hc-middle-x>0.60</hc-middle-x>
    <hc-middle-y>0.58</hc-middle-y>
    <hc-key>de-by-09461000</hc-key>
    <hc-a2>BA</hc-a2>
  </desc>
</path>

<path fill="#CEE3F5" stroke="#6E6E6E" stroke-width="0.4" id="DE.BY.09463000" d="M264.3,66.6 L261.3,64.4 L264.3,63.7 L264.6,60.6 L260.4,57.6 L264.9,55.0 L270.3,54.2 L275.0,56.2 L273.1,57.6 L279.1,60.6 L281.8,58.7 L284.6,60.7 L277.3,64.7 L273.1,70.2 L270.6,65.6 Z">
  <desc xmlns="http://www.highcharts.com/svg/namespace">
    <name>Coburg</name>
    <bundesland>DE.BY</bundesland>
    <hc-middle-x>0.45</hc-middle-x>
    <hc-middle-y>0.49</hc-middle-y>
    <hc-key>de-by-09463000</hc-key>
    <hc-a2>CO</hc-a2>
  </desc>
</path>

<path fill="#CEE3F5" stroke="#6E6E6E" stroke-width="0.4" id="DE.BY.09663000" d="M123.3,158.1 L127.7,157.6 L128.4,153.4 L131.7,155.2 L139.1,154.3 L140.8,158.3 L142.2,163.5 L138.9,164.7 L137.1,170.8 L139.1,176.0 L138.7,181.0 L134.0,181.7 L132.2,176.5 L124.1,172.8 L126.7,169.7 L123.7,168.9 L127.2,166.8 L124.2,163.4 Z">
  <desc xmlns="http://www.highcharts.com/svg/namespace">
    <name>Würzburg</name>
    <bundesland>DE.BY</bundesland>
    <hc-middle-x>0.51</hc-middle-x>
    <hc-middle-y>0.50</hc-middle-y>
    <hc-key>de-by-09663000</hc-key>
    <hc-a2>WÜ</hc-a2>
  </desc>
</path>

<path fill="#CEE3F5" stroke="#6E6E6E" stroke-width="0.4" id="DE.BY.09278000" d="M489.6,315.6 L491.4,309.4 L495.9,310.0 L496.6,306.2 L504.1,300.7 L516.6,299.6 L524.6,295.3 L529.1,296.1 L533.5,303.2 L533.8,307.3 L537.7,315.1 L545.1,321.9 L548.1,329.3 L544.3,331.6 L543.5,335.2 L546.4,338.5 L541.1,343.4 L543.3,354.0 L537.6,357.9 L532.2,355.2 L529.6,359.2 L531.9,363.5 L527.5,365.4 L523.1,372.4 L517.4,372.7 L516.7,376.1 L513.4,376.0 L509.1,380.4 L501.2,380.4 L497.2,373.5 L488.8,374.1 L488.3,376.7 L485.1,372.4 L478.1,376.7 L480.0,379.4 L475.6,379.2 L471.6,382.6 L468.6,382.0 L467.3,377.4 L461.4,383.0 L456.4,380.0 L448.6,377.9 L443.9,374.3 L443.0,371.4 L448.1,369.1 L448.6,366.9 L456.2,363.4 L457.8,358.5 L460.7,357.3 L460.7,353.3 L463.2,357.3 L469.7,352.7 L476.4,355.7 L483.1,349.1 L483.6,344.2 L487.7,339.8 L484.9,336.5 L484.4,328.8 L486.3,326.3 L489.9,327.9 L491.1,317.7 Z M491.3,349.8 L492.7,353.1 L500.6,355.5 L506.7,353.8 L512.8,348.7 L516.9,348.2 L516.8,341.5 L511.4,341.3 L510.5,343.4 L500.9,339.0 L498.2,338.9 L496.1,345.6 L497.3,348.0 Z">
  <desc xmlns="http://www.highcharts.com/svg/namespace">
    <name>Straubing-Bogen</name>
    <bundesland>DE.BY</bundesland>
    <hc-middle-x>0.76</hc-middle-x>
    <hc-middle-y>0.34</hc-middle-y>
    <hc-key>de-by-09278000</hc-key>
    <hc-a2>SB</hc-a2>
  </desc>
</path>

<path fill="#CEE3F5" stroke="#6E6E6E" stroke-width="0.4" id="DE.BY.09477000" d="M369.4,87.9 L371.0,95.4 L363.5,100.3 L365.7,105.6 L359.7,108.2 L359.8,111.1 L355.0,112.2 L351.0,115.2 L338.9,119.9 L334.9,117.8 L336.3,124.7 L332.0,124.0 L330.6,129.7 L327.8,129.0 L321.1,123.8 L315.6,123.0 L316.5,118.8 L312.6,116.3 L315.0,110.1 L319.4,103.6 L318.1,98.4 L321.3,98.3 L317.7,94.3 L321.2,92.0 L326.2,84.3 L323.2,81.9 L325.7,80.5 L327.7,74.8 L330.6,78.4 L335.7,76.6 L332.7,73.4 L342.2,62.3 L349.7,58.6 L355.2,60.8 L358.4,57.8 L359.5,65.0 L357.7,67.0 L365.4,65.6 L365.5,71.2 L367.9,71.2 L369.1,76.4 L365.3,80.2 L370.6,80.8 L369.3,85.1 L365.2,84.8 L366.0,90.0 Z">
  <desc xmlns="http://www.highcharts.com/svg/namespace">
    <name>Kulmbach</name>
    <bundesland>DE.BY</bundesland>
    <hc-middle-x>0.49</hc-middle-x>
    <hc-middle-y>0.52</hc-middle-y>
    <hc-key>de-by-09477000</hc-key>
    <hc-a2>KU</hc-a2>
  </desc>
</path>

<path fill="#CEE3F5" stroke="#6E6E6E" stroke-width="0.4" id="DE.BY.09279000" d="M531.9,363.5 L534.3,367.2 L534.0,373.1 L538.7,375.6 L537.1,379.6 L542.8,388.6 L546.3,391.2 L558.9,393.0 L559.3,399.4 L562.5,401.7 L558.5,403.1 L555.7,401.0 L551.7,405.0 L541.1,404.7 L535.0,407.6 L533.9,414.5 L536.6,417.3 L533.1,419.2 L528.1,417.0 L528.5,422.2 L522.1,425.3 L520.2,429.7 L515.5,431.6 L515.7,425.4 L509.1,423.4 L504.6,424.8 L507.6,428.6 L505.8,432.0 L501.5,432.6 L498.8,427.9 L495.1,421.5 L498.5,419.3 L493.6,415.6 L488.8,416.8 L483.2,420.7 L483.0,417.8 L475.7,414.4 L476.4,408.3 L478.7,408.0 L476.0,402.6 L478.0,399.2 L482.0,398.4 L480.5,391.9 L473.3,389.3 L471.6,382.6 L475.6,379.2 L480.0,379.4 L478.1,376.7 L485.1,372.4 L488.3,376.7 L488.8,374.1 L497.2,373.5 L501.2,380.4 L509.1,380.4 L513.4,376.0 L516.7,376.1 L517.4,372.7 L523.1,372.4 L527.5,365.4 Z">
  <desc xmlns="http://www.highcharts.com/svg/namespace">
    <name>Dingolfing-Landau</name>
    <bundesland>DE.BY</bundesland>
    <hc-middle-x>0.48</hc-middle-x>
    <hc-middle-y>0.47</hc-middle-y>
    <hc-key>de-by-09279000</hc-key>
    <hc-a2>DL</hc-a2>
  </desc>
</path>

<path fill="#CEE3F5" stroke="#6E6E6E" stroke-width="0.4" id="DE.BY.09161000" d="M320.2,375.8 L320.8,373.6 L327.1,375.1 L331.8,374.2 L334.5,375.8 L338.7,374.6 L339.0,366.8 L344.6,368.5 L347.3,371.9 L354.4,373.7 L355.1,378.7 L353.3,382.1 L353.0,386.0 L348.4,386.1 L345.7,392.1 L337.9,394.6 L334.5,389.8 L335.6,387.0 L330.6,387.8 L327.3,381.9 Z">
  <desc xmlns="http://www.highcharts.com/svg/namespace">
    <name>Ingolstadt</name>
    <bundesland>DE.BY</bundesland>
    <hc-middle-x>0.56</hc-middle-x>
    <hc-middle-y>0.38</hc-middle-y>
    <hc-key>de-by-09161000</hc-key>
    <hc-a2>IN</hc-a2>
  </desc>
</path>

<path fill="#CEE3F5" stroke="#6E6E6E" stroke-width="0.4" id="DE.BY.09362000" d="M447.6,330.2 L445.2,329.0 L440.9,331.6 L439.5,329.8 L434.3,331.3 L432.2,325.3 L426.9,323.1 L429.8,314.2 L431.2,317.5 L436.1,316.1 L435.6,311.5 L441.8,309.8 L443.7,314.6 L445.5,314.1 L445.0,320.3 L449.5,322.4 Z">
  <desc xmlns="http://www.highcharts.com/svg/namespace">
    <name>Regensburg</name>
    <bundesland>DE.BY</bundesland>
    <hc-middle-x>0.50</hc-middle-x>
    <hc-middle-y>0.58</hc-middle-y>
    <hc-key>de-by-09362000</hc-key>
    <hc-a2>RE</hc-a2>
  </desc>
</path>

<path fill="#CEE3F5" stroke="#6E6E6E" stroke-width="0.4" id="DE.BY.09263000" d="M491.3,349.8 L497.3,348.0 L496.1,345.6 L498.2,338.9 L500.9,339.0 L510.5,343.4 L511.4,341.3 L516.8,341.5 L516.9,348.2 L512.8,348.7 L506.7,353.8 L500.6,355.5 L492.7,353.1 Z">
  <desc xmlns="http://www.highcharts.com/svg/namespace">
    <name>Straubing</name>
    <bundesland>DE.BY</bundesland>
    <hc-middle-x>0.51</hc-middle-x>
    <hc-middle-y>0.54</hc-middle-y>
    <hc-key>de-by-09263000</hc-key>
    <hc-a2>ST</hc-a2>
  </desc>
</path>

<path fill="#CEE3F5" stroke="#6E6E6E" stroke-width="0.4" id="DE.BY.09464000" d="M403.3,52.5 L399.8,56.3 L397.5,56.1 L393.4,52.8 L390.0,52.8 L385.6,47.1 L395.3,43.8 L395.0,37.9 L396.9,39.7 L400.4,38.3 L404.6,39.6 L407.9,45.8 L403.5,48.8 Z">
  <desc xmlns="http://www.highcharts.com/svg/namespace">
    <name>Hof</name>
    <bundesland>DE.BY</bundesland>
    <hc-middle-x>0.76</hc-middle-x>
    <hc-middle-y>0.22</hc-middle-y>
    <hc-key>de-by-09464000</hc-key>
    <hc-a2>HO</hc-a2>
  </desc>
</path>

<path fill="#CEE3F5" stroke="#6E6E6E" stroke-width="0.4" id="DE.BY.09662000" d="M174.6,116.0 L169.9,117.6 L163.1,113.7 L165.9,110.3 L168.3,104.2 L170.8,105.6 L171.5,101.1 L174.9,100.9 L177.4,107.6 L173.4,111.0 Z">
  <desc xmlns="http://www.highcharts.com/svg/namespace">
    <name>Schweinfurt</name>
    <bundesland>DE.BY</bundesland>
    <hc-middle-x>0.62</hc-middle-x>
    <hc-middle-y>0.49</hc-middle-y>
    <hc-key>de-by-09662000</hc-key>
    <hc-a2>SC</hc-a2>
  </desc>
</path>
</g>

<text x="350" y="714" text-anchor="middle" font-family="Verdana" font-size="8" stroke-opacity="0.6">Copyright (c) 2014 Highsoft AS, Based on data from GeoBasis-DE / BKG 2014</text>

</svg>