<?xml version="1.0" encoding="utf-8" standalone="no"?>
<!DOCTYPE svg PUBLIC "-//W3C//DTD SVG 1.1//EN" "http://www.w3.org/Graphics/SVG/1.1/DTD/svg11.dtd">

<svg version="1.1" height="700pt" width="700pt" xmlns="http://www.w3.org/2000/svg" xmlns:xlink="http://www.w3.org/1999/xlink">
<desc>
Map version: 1.1.1
Copyright (c) 2014 Highsoft AS, Based on data from GeoBasis-DE / BKG 2014
</desc>
<title>Hessen</title>
<g id="admin2">

<g id="DE">
  <desc xmlns="http://www.highcharts.com/svg/namespace">
    <name>Germany</name>
    <labelrank>2</labelrank>
    <country-abbrev>Ger.</country-abbrev>
    <subregion>Western Europe</subregion>
    <woe-id>23424829</woe-id>
    <region-wb>Europe &amp; Central Asia</region-wb>
    <iso-a3>DEU</iso-a3>
    <iso-a2>DE</iso-a2>
    <region-un>Europe</region-un>
    <continent>Europe</continent>
    <hc-key>de</hc-key>
    <hc-a2>GE</hc-a2>
  </desc>
</g>

<g id="DE.HE">
  <desc xmlns="http://www.highcharts.com/svg/namespace">
    <labelrank>3</labelrank>
    <hasc>DE.HE</hasc>
    <alt-name>Hesse</alt-name>
    <woe-id>2345485</woe-id>
    <subregion>NULL</subregion>
    <fips>GM05</fips>
    <postal-code>HE</postal-code>
    <name>Hessen</name>
    <country>Germany</country>
    <type-en>State</type-en>
    <region>NULL</region>
    <longitude>8.958729999999999</longitude>
    <woe-name>Hessen</woe-name>
    <latitude>50.6098</latitude>
    <woe-label>Hesse, DE, Germany</woe-label>
    <type>Land</type>
    <hc-key>de-he</hc-key>
    <hc-a2>HE</hc-a2>
  </desc>
</g>

<path fill="#CEE3F5" stroke="#6E6E6E" stroke-width="0.4" id="DE.HE.06633000" d="M396.8,122.4 L395.3,125.6 L394.5,125.7 L396.1,122.8 Z M360.0,94.0 L363.2,95.7 L364.7,97.1 L365.0,98.1 L362.6,98.8 L361.5,102.6 L356.0,101.3 L352.6,97.9 L350.3,100.0 L345.6,100.8 L338.0,97.4 L333.0,97.6 L327.4,99.2 L329.6,105.7 L329.0,109.2 L325.0,109.7 L326.0,117.1 L329.2,120.4 L334.4,120.9 L338.7,124.1 L350.3,126.9 L351.9,124.1 L351.8,119.9 L356.7,123.5 L359.7,121.5 L358.4,120.0 L362.1,119.3 L365.4,116.1 L364.6,111.0 L359.8,108.8 L363.3,105.5 L366.8,105.5 L367.2,101.7 L370.0,101.0 L374.6,106.3 L380.4,106.2 L380.9,109.0 L386.2,110.6 L388.8,109.3 L393.9,112.9 L400.4,115.8 L388.7,111.4 L384.7,112.4 L382.6,117.3 L382.9,121.2 L387.0,122.6 L392.6,126.4 L399.0,126.9 L405.0,126.2 L404.9,130.2 L399.3,133.9 L397.5,132.4 L391.5,132.2 L388.0,138.4 L389.4,140.2 L386.0,140.4 L379.8,145.6 L379.1,148.8 L381.3,151.9 L376.4,153.7 L374.9,155.9 L369.5,152.8 L369.4,151.0 L365.5,147.4 L366.6,143.9 L362.9,141.6 L360.1,142.9 L357.5,139.4 L355.6,141.7 L350.3,142.6 L348.5,138.7 L344.0,139.6 L344.1,137.7 L337.5,138.1 L335.7,140.4 L333.5,136.4 L325.3,135.4 L324.8,131.2 L322.8,129.3 L313.1,132.2 L310.4,129.6 L308.7,131.2 L310.3,135.9 L307.2,142.1 L306.6,147.7 L297.8,148.3 L299.3,153.8 L291.3,156.5 L288.8,155.2 L288.2,150.3 L283.9,144.6 L278.7,139.9 L279.2,132.9 L275.6,132.9 L273.1,130.8 L272.1,125.2 L278.6,122.4 L276.4,121.0 L274.2,113.8 L275.8,108.2 L273.3,105.3 L278.3,102.8 L279.0,100.6 L275.0,98.8 L273.5,94.3 L276.4,94.4 L281.9,91.8 L281.9,94.3 L284.6,96.9 L287.2,95.1 L285.2,92.8 L288.1,92.1 L286.3,88.3 L287.1,84.9 L281.3,78.8 L285.5,76.5 L284.3,69.2 L288.1,62.7 L290.2,61.6 L296.5,63.8 L296.5,56.8 L301.3,51.7 L306.0,51.4 L309.6,46.1 L314.8,46.7 L316.4,43.2 L315.1,40.8 L317.1,35.6 L316.5,33.9 L320.2,31.5 L326.5,20.5 L324.3,19.4 L320.4,13.9 L327.4,10.4 L332.8,10.1 L338.3,8.7 L341.9,4.4 L346.7,1.1 L351.5,0.0 L352.6,2.0 L351.3,5.7 L352.2,8.5 L357.5,10.0 L361.2,5.8 L363.9,6.7 L366.0,10.2 L374.8,8.8 L378.1,6.4 L380.2,10.7 L380.5,15.4 L382.8,16.2 L385.2,20.4 L388.9,22.0 L391.2,25.7 L389.8,28.9 L385.0,26.9 L382.0,23.9 L378.4,24.0 L378.1,26.7 L382.6,33.4 L377.6,34.7 L374.9,32.0 L377.5,37.1 L376.1,42.1 L371.1,43.2 L375.3,53.4 L381.9,61.2 L379.4,63.7 L378.9,68.2 L380.3,74.0 L382.2,76.5 L379.3,79.5 L375.9,80.1 L373.1,82.7 L369.1,82.2 L365.5,88.5 L365.7,90.5 L369.0,92.1 L367.5,94.5 L363.6,94.7 Z">
  <desc xmlns="http://www.highcharts.com/svg/namespace">
    <name>Kassel</name>
    <bundesland>DE.HE</bundesland>
    <hc-middle-x>0.38</hc-middle-x>
    <hc-middle-y>0.48</hc-middle-y>
    <hc-key>de-he-06633000</hc-key>
    <hc-a2>KA</hc-a2>
  </desc>
</path>

<path fill="#CEE3F5" stroke="#6E6E6E" stroke-width="0.4" id="DE.HE.06635000" d="M147.4,220.8 L146.5,218.8 L151.1,214.7 L152.2,211.4 L159.8,204.7 L157.1,198.4 L153.1,197.6 L156.2,194.8 L157.7,190.7 L153.4,187.6 L152.5,185.4 L157.8,179.8 L162.1,178.3 L172.7,178.3 L184.3,180.5 L190.7,176.1 L196.5,175.8 L192.9,173.7 L191.0,169.7 L191.5,167.4 L202.4,157.0 L204.4,154.3 L202.7,152.9 L202.9,147.2 L206.4,144.1 L201.1,141.1 L198.3,130.9 L200.1,127.0 L197.2,123.3 L191.2,122.4 L188.2,125.2 L178.3,127.5 L174.9,131.8 L171.3,131.6 L168.3,125.2 L163.9,121.9 L169.9,115.3 L176.3,106.1 L177.0,103.1 L180.4,100.8 L183.6,102.1 L184.0,98.9 L189.6,94.9 L188.2,92.2 L193.0,90.1 L198.5,91.7 L205.0,89.8 L207.1,87.7 L213.8,85.8 L223.8,90.2 L231.0,85.2 L241.0,86.3 L242.7,73.9 L236.8,73.2 L237.5,68.2 L235.8,63.9 L231.9,60.1 L231.2,56.6 L242.3,50.5 L254.1,46.9 L256.7,45.0 L261.0,50.2 L265.3,51.3 L268.4,49.7 L271.6,52.6 L268.6,62.1 L270.5,63.3 L270.4,67.2 L273.7,69.1 L279.5,68.1 L280.3,66.8 L284.3,69.2 L285.5,76.5 L281.3,78.8 L287.1,84.9 L286.3,88.3 L288.1,92.1 L285.2,92.8 L287.2,95.1 L284.6,96.9 L281.9,94.3 L281.9,91.8 L276.4,94.4 L273.5,94.3 L275.0,98.8 L279.0,100.6 L278.3,102.8 L273.3,105.3 L275.8,108.2 L274.2,113.8 L276.4,121.0 L278.6,122.4 L272.1,125.2 L273.1,130.8 L275.6,132.9 L279.2,132.9 L278.7,139.9 L283.9,144.6 L288.2,150.3 L288.8,155.2 L291.3,156.5 L291.6,163.3 L294.6,168.2 L297.8,170.0 L292.5,179.4 L285.5,184.1 L287.0,186.3 L284.5,187.3 L281.6,193.6 L272.8,196.5 L274.0,201.2 L267.9,209.6 L265.5,210.3 L260.2,215.0 L257.6,216.0 L255.0,220.2 L260.0,225.8 L259.7,230.9 L248.0,231.0 L242.6,226.7 L240.9,222.3 L234.7,221.0 L236.6,224.4 L234.1,226.8 L224.4,224.6 L222.7,222.6 L219.5,224.8 L209.7,225.1 L205.8,218.0 L198.8,222.5 L199.3,219.2 L193.8,216.5 L193.7,213.1 L190.3,214.3 L187.0,212.1 L183.3,217.7 L183.5,220.1 L178.6,223.8 L171.6,227.2 L166.9,227.4 L164.4,225.0 L159.0,225.7 L154.3,224.8 Z">
  <desc xmlns="http://www.highcharts.com/svg/namespace">
    <name>Waldeck-Frankenberg</name>
    <bundesland>DE.HE</bundesland>
    <hc-middle-x>0.65</hc-middle-x>
    <hc-middle-y>0.56</hc-middle-y>
    <hc-key>de-he-06635000</hc-key>
    <hc-a2>WF</hc-a2>
  </desc>
</path>

<path fill="#CEE3F5" stroke="#6E6E6E" stroke-width="0.4" id="DE.HE.06535000" d="M283.4,263.6 L290.4,265.2 L294.1,268.1 L302.0,267.7 L301.3,269.2 L306.8,270.4 L307.6,275.7 L316.9,273.4 L320.1,276.7 L327.0,275.2 L328.1,279.4 L332.6,283.8 L335.4,278.7 L339.0,278.8 L342.8,276.5 L344.4,280.9 L341.4,283.7 L344.7,284.8 L346.9,283.5 L345.8,287.2 L349.1,286.0 L353.8,289.8 L353.9,293.9 L356.2,295.9 L359.3,294.4 L363.9,288.8 L369.4,285.8 L376.1,288.5 L377.6,295.5 L376.7,300.2 L379.9,310.6 L383.2,313.2 L385.6,313.0 L379.5,322.7 L380.2,325.8 L384.0,330.0 L377.9,334.3 L377.0,337.2 L371.3,335.7 L365.5,331.4 L363.2,326.0 L356.4,327.5 L350.8,318.8 L348.1,319.7 L351.2,321.9 L349.6,330.0 L354.5,334.0 L355.3,336.7 L351.4,342.0 L350.9,347.5 L354.8,349.3 L354.1,352.0 L347.8,355.3 L344.6,364.4 L344.9,369.6 L342.4,371.8 L341.0,378.9 L347.2,378.6 L346.6,385.3 L349.3,386.4 L351.2,390.2 L350.1,389.6 L343.5,396.1 L342.9,400.2 L337.6,402.0 L334.6,406.6 L327.8,405.1 L327.9,407.8 L324.7,408.1 L325.3,405.8 L322.8,403.2 L325.5,398.7 L325.6,391.9 L321.9,386.8 L318.0,386.1 L314.0,383.1 L312.3,383.7 L311.8,391.5 L308.5,390.0 L306.2,383.2 L299.7,384.5 L292.1,389.5 L288.5,389.1 L284.2,392.5 L282.7,391.7 L275.2,392.5 L271.0,391.2 L272.5,389.7 L272.4,385.2 L267.5,385.6 L265.1,380.8 L265.7,376.3 L268.9,373.0 L264.9,371.5 L261.8,372.2 L263.8,369.1 L268.4,366.0 L272.3,366.1 L275.5,361.4 L275.3,359.7 L279.0,357.7 L280.5,353.2 L277.4,350.6 L268.9,350.3 L265.9,345.2 L266.9,343.3 L263.4,339.5 L253.6,338.8 L255.1,335.8 L252.0,330.1 L250.7,331.3 L245.4,329.1 L244.6,326.2 L241.0,322.4 L246.2,323.6 L247.3,319.9 L247.3,314.6 L244.5,312.2 L240.7,305.5 L236.5,305.6 L234.3,303.2 L234.4,300.0 L239.3,297.2 L245.7,289.2 L250.1,286.7 L252.1,287.3 L256.2,284.6 L256.2,279.2 L258.5,276.8 L264.8,276.0 L267.3,273.2 L272.0,273.0 L274.2,266.3 L277.8,265.1 L280.4,266.4 Z">
  <desc xmlns="http://www.highcharts.com/svg/namespace">
    <name>Vogelsbergkreis</name>
    <bundesland>DE.HE</bundesland>
    <hc-middle-x>0.49</hc-middle-x>
    <hc-middle-y>0.49</hc-middle-y>
    <hc-key>de-he-06535000</hc-key>
    <hc-a2>VO</hc-a2>
  </desc>
</path>

<path fill="#CEE3F5" stroke="#6E6E6E" stroke-width="0.4" id="DE.HE.06634000" d="M342.8,276.5 L339.0,278.8 L335.4,278.7 L332.6,283.8 L328.1,279.4 L327.0,275.2 L320.1,276.7 L316.9,273.4 L307.6,275.7 L306.8,270.4 L301.3,269.2 L302.0,267.7 L294.1,268.1 L290.4,265.2 L283.4,263.6 L283.9,260.1 L279.1,250.9 L275.3,247.6 L279.4,244.8 L275.4,237.2 L269.1,237.6 L267.8,239.6 L263.6,236.7 L260.2,237.9 L261.2,240.4 L258.6,242.4 L255.5,239.9 L255.2,234.9 L250.0,234.1 L248.0,231.0 L259.7,230.9 L260.0,225.8 L255.0,220.2 L257.6,216.0 L260.2,215.0 L265.5,210.3 L267.9,209.6 L274.0,201.2 L272.8,196.5 L281.6,193.6 L284.5,187.3 L287.0,186.3 L285.5,184.1 L292.5,179.4 L297.8,170.0 L294.6,168.2 L291.6,163.3 L291.3,156.5 L299.3,153.8 L297.8,148.3 L306.6,147.7 L307.2,142.1 L310.3,135.9 L308.7,131.2 L310.4,129.6 L313.1,132.2 L322.8,129.3 L324.8,131.2 L325.3,135.4 L333.5,136.4 L335.7,140.4 L337.5,138.1 L344.1,137.7 L344.0,139.6 L348.5,138.7 L350.3,142.6 L355.6,141.7 L357.5,139.4 L360.1,142.9 L362.9,141.6 L366.6,143.9 L365.5,147.4 L369.4,151.0 L369.5,152.8 L374.9,155.9 L376.4,153.7 L381.3,151.9 L391.2,151.2 L392.6,156.4 L400.4,163.4 L404.7,164.0 L406.3,162.2 L409.5,163.9 L410.5,170.9 L409.6,176.9 L410.2,183.7 L404.3,188.2 L397.8,184.8 L393.7,185.4 L389.2,190.6 L383.9,191.5 L382.0,194.3 L382.5,197.5 L379.6,200.4 L374.5,203.1 L370.1,203.3 L369.3,213.1 L367.5,213.5 L363.7,220.2 L367.8,225.5 L367.5,228.1 L362.1,228.3 L355.5,232.6 L356.5,236.4 L351.6,241.0 L350.9,244.0 L354.9,249.1 L353.5,250.8 L356.8,259.8 L358.5,262.2 L355.3,270.2 L352.6,270.3 L345.8,275.7 Z">
  <desc xmlns="http://www.highcharts.com/svg/namespace">
    <name>Schwalm-Eder-Kreis</name>
    <bundesland>DE.HE</bundesland>
    <hc-middle-x>0.49</hc-middle-x>
    <hc-middle-y>0.44</hc-middle-y>
    <hc-key>de-he-06634000</hc-key>
    <hc-a2>SE</hc-a2>
  </desc>
</path>

<path fill="#CEE3F5" stroke="#6E6E6E" stroke-width="0.4" id="DE.HE.06611000" d="M365.0,98.1 L365.3,99.1 L367.2,101.7 L366.8,105.5 L363.3,105.5 L359.8,108.8 L364.6,111.0 L365.4,116.1 L362.1,119.3 L358.4,120.0 L359.7,121.5 L356.7,123.5 L351.8,119.9 L351.9,124.1 L350.3,126.9 L338.7,124.1 L334.4,120.9 L329.2,120.4 L326.0,117.1 L325.0,109.7 L329.0,109.2 L329.6,105.7 L327.4,99.2 L333.0,97.6 L338.0,97.4 L345.6,100.8 L350.3,100.0 L352.6,97.9 L356.0,101.3 L361.5,102.6 L362.6,98.8 Z M363.6,94.7 L363.2,95.7 L360.0,94.0 L361.1,92.7 Z">
  <desc xmlns="http://www.highcharts.com/svg/namespace">
    <name>Kassel</name>
    <bundesland>DE.HE</bundesland>
    <hc-middle-x>0.49</hc-middle-x>
    <hc-middle-y>0.57</hc-middle-y>
    <hc-key>de-he-06611000</hc-key>
    <hc-a2>KA</hc-a2>
  </desc>
</path>

<path fill="#CEE3F5" stroke="#6E6E6E" stroke-width="0.4" id="DE.HE.06636000" d="M410.2,183.7 L409.6,176.9 L410.5,170.9 L409.5,163.9 L406.3,162.2 L404.7,164.0 L400.4,163.4 L392.6,156.4 L391.2,151.2 L381.3,151.9 L379.1,148.8 L379.8,145.6 L386.0,140.4 L389.4,140.2 L388.0,138.4 L391.5,132.2 L397.5,132.4 L399.3,133.9 L404.9,130.2 L405.0,126.2 L399.0,126.9 L392.6,126.4 L387.0,122.6 L382.9,121.2 L382.6,117.3 L384.7,112.4 L388.7,111.4 L400.4,115.8 L407.5,112.0 L408.9,106.1 L407.5,103.8 L402.9,108.2 L394.1,93.6 L398.9,91.6 L401.4,92.1 L406.8,86.6 L413.9,86.2 L412.4,79.8 L417.9,78.8 L421.8,81.1 L421.7,87.2 L424.4,90.8 L426.8,91.0 L424.9,86.4 L425.7,84.0 L423.7,81.5 L423.7,77.3 L426.6,77.2 L429.3,80.4 L430.2,77.1 L434.8,75.0 L435.6,80.1 L439.9,84.1 L440.3,88.0 L438.5,92.0 L439.9,101.0 L442.3,102.4 L443.8,108.3 L442.1,111.0 L446.3,112.3 L449.5,116.8 L448.6,118.5 L455.1,117.8 L460.3,120.6 L466.3,121.2 L463.7,124.9 L464.6,128.1 L467.1,128.8 L469.1,132.5 L468.0,136.6 L472.9,137.0 L477.3,140.5 L482.4,138.8 L484.7,143.3 L487.6,141.3 L490.3,142.1 L494.3,147.7 L502.2,149.9 L500.5,153.5 L496.6,156.3 L495.2,161.1 L497.2,171.3 L495.3,173.0 L491.1,168.4 L492.2,164.0 L488.8,160.2 L484.4,163.0 L480.2,162.5 L478.7,164.7 L486.0,171.4 L490.2,171.8 L490.4,175.0 L487.4,174.7 L488.5,177.4 L484.3,182.2 L486.2,186.2 L483.6,190.7 L492.0,193.9 L495.5,196.4 L498.9,200.7 L497.6,203.1 L494.9,202.5 L496.5,206.6 L494.1,209.6 L485.8,211.3 L483.1,210.9 L479.9,205.7 L476.4,208.5 L472.5,206.5 L467.0,205.6 L462.0,206.2 L459.9,212.0 L456.2,212.4 L451.7,209.3 L455.1,200.3 L448.5,197.6 L446.0,194.8 L439.8,193.5 L438.7,195.7 L428.2,194.6 L428.1,190.4 L420.2,187.1 L418.2,183.0 L414.3,184.4 Z M396.8,122.4 L396.1,122.8 L394.5,125.7 L395.3,125.6 Z">
  <desc xmlns="http://www.highcharts.com/svg/namespace">
    <name>Werra-Meißner-Kreis</name>
    <bundesland>DE.HE</bundesland>
    <hc-middle-x>0.45</hc-middle-x>
    <hc-middle-y>0.54</hc-middle-y>
    <hc-key>de-he-06636000</hc-key>
    <hc-a2>WM</hc-a2>
  </desc>
</path>

<path fill="#CEE3F5" stroke="#6E6E6E" stroke-width="0.4" id="DE.HE.06532000" d="M80.0,338.7 L74.8,335.2 L77.2,332.6 L77.8,328.3 L71.7,320.0 L71.8,315.6 L75.0,311.7 L76.2,307.4 L78.5,307.9 L83.6,295.0 L80.6,287.2 L77.4,284.8 L75.4,278.0 L83.6,273.3 L88.4,265.1 L97.1,258.3 L97.5,256.8 L105.0,248.6 L108.9,248.2 L112.2,255.1 L118.5,253.7 L122.3,254.9 L131.2,259.6 L130.0,271.9 L131.3,277.0 L137.6,277.6 L140.2,275.8 L143.2,279.7 L137.9,287.2 L140.8,293.2 L139.9,297.3 L142.2,299.9 L145.7,299.0 L151.1,294.9 L157.6,297.4 L159.5,294.4 L161.1,295.3 L159.6,299.3 L161.5,304.5 L167.2,304.9 L166.2,307.4 L162.0,312.3 L161.0,318.6 L156.8,322.9 L155.6,330.6 L160.7,332.7 L162.2,330.5 L164.4,334.0 L170.8,340.4 L173.0,345.3 L173.2,349.0 L175.3,350.5 L171.6,355.3 L166.6,358.5 L162.5,359.8 L169.3,362.6 L181.1,364.8 L181.6,367.2 L178.2,368.0 L177.9,371.4 L174.8,371.8 L170.6,370.0 L165.2,374.2 L160.6,381.2 L156.8,381.9 L160.0,392.5 L160.2,397.2 L163.5,395.3 L166.6,398.5 L158.7,397.9 L153.6,403.5 L149.8,404.6 L144.0,398.4 L143.8,396.6 L138.4,393.8 L135.1,386.4 L138.5,380.8 L135.7,380.0 L133.3,384.9 L128.9,384.9 L122.6,375.8 L121.7,368.0 L117.0,367.6 L112.9,365.5 L111.7,362.4 L106.5,359.5 L105.9,356.0 L102.4,351.4 L101.6,347.0 L97.6,345.6 L95.4,343.2 L91.0,350.2 L87.0,347.1 L82.6,346.1 Z">
  <desc xmlns="http://www.highcharts.com/svg/namespace">
    <name>Lahn-Dill-Kreis</name>
    <bundesland>DE.HE</bundesland>
    <hc-middle-x>0.43</hc-middle-x>
    <hc-middle-y>0.44</hc-middle-y>
    <hc-key>de-he-06532000</hc-key>
    <hc-a2>LD</hc-a2>
  </desc>
</path>

<path fill="#CEE3F5" stroke="#6E6E6E" stroke-width="0.4" id="DE.HE.06440000" d="M261.8,372.2 L264.9,371.5 L268.9,373.0 L265.7,376.3 L265.1,380.8 L267.5,385.6 L272.4,385.2 L272.5,389.7 L271.0,391.2 L275.2,392.5 L282.7,391.7 L284.2,392.5 L288.5,389.1 L292.1,389.5 L299.7,384.5 L306.2,383.2 L308.5,390.0 L311.8,391.5 L312.5,396.5 L307.7,400.0 L305.8,406.1 L307.5,407.2 L304.8,411.6 L309.1,412.6 L309.8,415.7 L306.1,416.0 L305.2,421.6 L308.2,423.2 L306.6,425.0 L299.1,425.5 L295.3,430.2 L297.6,432.9 L294.9,441.2 L290.6,441.1 L286.0,447.0 L286.8,450.0 L283.7,452.9 L278.0,451.3 L272.2,453.4 L266.9,453.9 L265.2,451.8 L261.1,452.3 L258.5,457.9 L258.0,455.5 L253.2,455.1 L254.7,453.5 L252.2,450.5 L250.6,453.0 L244.3,452.5 L245.3,450.8 L241.7,446.6 L238.1,447.5 L236.5,443.8 L233.5,443.0 L229.0,444.2 L225.9,441.7 L221.6,443.8 L223.3,451.8 L217.9,456.5 L214.1,455.7 L214.3,458.9 L217.4,467.2 L214.8,468.8 L210.1,468.8 L209.9,475.3 L204.3,474.3 L204.3,476.4 L199.3,479.6 L196.0,479.3 L191.8,473.8 L192.5,470.2 L197.4,466.9 L198.3,462.7 L193.8,459.2 L188.2,455.4 L189.4,450.6 L186.9,447.4 L183.5,446.0 L184.6,439.4 L181.4,441.4 L169.4,438.5 L174.3,436.6 L178.9,431.3 L179.1,427.9 L181.3,427.7 L176.3,422.3 L175.1,419.2 L171.0,416.5 L173.6,414.5 L168.1,411.8 L165.1,413.7 L163.3,411.2 L159.8,413.1 L158.0,406.0 L153.6,403.5 L158.7,397.9 L166.6,398.5 L170.6,397.6 L171.7,393.3 L166.0,388.8 L171.7,384.9 L173.9,382.3 L176.7,382.7 L177.9,378.8 L180.6,376.6 L189.1,376.1 L194.2,379.5 L199.9,378.3 L203.1,379.7 L204.9,382.8 L208.6,378.3 L210.9,378.2 L211.0,381.4 L213.4,384.9 L211.2,386.8 L212.0,389.9 L215.8,392.8 L223.0,393.3 L224.9,388.6 L230.0,394.7 L232.7,394.9 L234.1,391.4 L242.5,393.6 L245.6,390.6 L244.6,388.3 L250.3,386.5 L250.9,383.0 L249.0,382.7 L250.6,378.1 L249.7,375.1 L254.9,373.0 L254.3,374.9 Z">
  <desc xmlns="http://www.highcharts.com/svg/namespace">
    <name>Wetteraukreis</name>
    <bundesland>DE.HE</bundesland>
    <hc-middle-x>0.54</hc-middle-x>
    <hc-middle-y>0.42</hc-middle-y>
    <hc-key>de-he-06440000</hc-key>
    <hc-a2>WE</hc-a2>
  </desc>
</path>

<path fill="#CEE3F5" stroke="#6E6E6E" stroke-width="0.4" id="DE.HE.06531000" d="M236.5,305.6 L240.7,305.5 L244.5,312.2 L247.3,314.6 L247.3,319.9 L246.2,323.6 L241.0,322.4 L244.6,326.2 L245.4,329.1 L250.7,331.3 L252.0,330.1 L255.1,335.8 L253.6,338.8 L263.4,339.5 L266.9,343.3 L265.9,345.2 L268.9,350.3 L277.4,350.6 L280.5,353.2 L279.0,357.7 L275.3,359.7 L275.5,361.4 L272.3,366.1 L268.4,366.0 L263.8,369.1 L261.8,372.2 L254.3,374.9 L254.9,373.0 L249.7,375.1 L250.6,378.1 L249.0,382.7 L250.9,383.0 L250.3,386.5 L244.6,388.3 L245.6,390.6 L242.5,393.6 L234.1,391.4 L232.7,394.9 L230.0,394.7 L224.9,388.6 L223.0,393.3 L215.8,392.8 L212.0,389.9 L211.2,386.8 L213.4,384.9 L211.0,381.4 L210.9,378.2 L208.6,378.3 L204.9,382.8 L203.1,379.7 L199.9,378.3 L194.2,379.5 L189.1,376.1 L180.6,376.6 L177.9,378.8 L176.7,382.7 L173.9,382.3 L171.7,384.9 L166.0,388.8 L171.7,393.3 L170.6,397.6 L166.6,398.5 L163.5,395.3 L160.2,397.2 L160.0,392.5 L156.8,381.9 L160.6,381.2 L165.2,374.2 L170.6,370.0 L174.8,371.8 L177.9,371.4 L178.2,368.0 L181.6,367.2 L181.1,364.8 L169.3,362.6 L162.5,359.8 L166.6,358.5 L171.6,355.3 L175.3,350.5 L173.2,349.0 L173.0,345.3 L170.8,340.4 L164.4,334.0 L162.2,330.5 L160.7,332.7 L155.6,330.6 L156.8,322.9 L161.0,318.6 L162.0,312.3 L166.2,307.4 L170.2,312.8 L169.9,314.8 L176.4,315.1 L177.0,311.7 L178.9,311.9 L181.9,306.1 L186.0,307.5 L186.7,309.8 L192.3,312.5 L194.4,311.1 L197.5,313.4 L200.6,313.1 L205.5,308.5 L207.8,311.3 L213.3,310.0 L213.3,307.1 L218.7,305.3 L222.9,305.6 L225.5,308.7 L232.1,311.0 L235.9,308.6 Z">
  <desc xmlns="http://www.highcharts.com/svg/namespace">
    <name>Gießen</name>
    <bundesland>DE.HE</bundesland>
    <hc-middle-x>0.47</hc-middle-x>
    <hc-middle-y>0.43</hc-middle-y>
    <hc-key>de-he-06531000</hc-key>
    <hc-a2>GI</hc-a2>
  </desc>
</path>

<path fill="#CEE3F5" stroke="#6E6E6E" stroke-width="0.4" id="DE.HE.06632000" d="M410.2,183.7 L414.3,184.4 L418.2,183.0 L420.2,187.1 L428.1,190.4 L428.2,194.6 L438.7,195.7 L439.8,193.5 L446.0,194.8 L448.5,197.6 L455.1,200.3 L451.7,209.3 L456.2,212.4 L459.9,212.0 L460.5,217.4 L463.9,220.1 L464.2,223.4 L466.6,229.0 L461.7,229.6 L461.3,227.9 L458.1,230.7 L453.9,228.0 L445.6,228.5 L447.1,234.8 L453.8,230.6 L452.2,235.6 L449.4,238.3 L451.5,240.3 L456.6,235.0 L466.3,242.3 L464.4,243.9 L467.8,244.9 L467.9,247.2 L461.0,252.3 L460.6,258.6 L464.0,256.8 L460.9,263.8 L457.6,261.9 L455.1,265.7 L451.5,263.4 L446.6,267.2 L447.5,271.0 L445.0,276.0 L447.3,278.7 L441.5,284.6 L435.6,281.1 L433.4,281.3 L432.2,275.5 L424.4,277.4 L416.9,275.5 L416.2,273.3 L410.9,274.7 L410.0,271.4 L401.7,277.9 L397.4,284.9 L400.0,286.3 L401.2,289.7 L397.5,294.2 L394.6,295.4 L392.7,293.0 L389.4,300.7 L386.8,300.9 L385.5,297.9 L382.5,297.8 L379.2,293.9 L377.6,295.5 L376.1,288.5 L369.4,285.8 L363.9,288.8 L359.3,294.4 L356.2,295.9 L353.9,293.9 L353.8,289.8 L349.1,286.0 L345.8,287.2 L346.9,283.5 L344.7,284.8 L341.4,283.7 L344.4,280.9 L342.8,276.5 L345.8,275.7 L352.6,270.3 L355.3,270.2 L358.5,262.2 L356.8,259.8 L353.5,250.8 L354.9,249.1 L350.9,244.0 L351.6,241.0 L356.5,236.4 L355.5,232.6 L362.1,228.3 L367.5,228.1 L367.8,225.5 L363.7,220.2 L367.5,213.5 L369.3,213.1 L370.1,203.3 L374.5,203.1 L379.6,200.4 L382.5,197.5 L382.0,194.3 L383.9,191.5 L389.2,190.6 L393.7,185.4 L397.8,184.8 L404.3,188.2 Z">
  <desc xmlns="http://www.highcharts.com/svg/namespace">
    <name>Hersfeld-Rotenburg</name>
    <bundesland>DE.HE</bundesland>
    <hc-middle-x>0.44</hc-middle-x>
    <hc-middle-y>0.49</hc-middle-y>
    <hc-key>de-he-06632000</hc-key>
    <hc-a2>HR</hc-a2>
  </desc>
</path>

<path fill="#CEE3F5" stroke="#6E6E6E" stroke-width="0.4" id="DE.HE.06436000" d="M114.6,484.5 L118.7,479.7 L122.2,480.8 L121.5,477.0 L118.2,474.7 L121.3,472.3 L119.7,470.6 L120.2,466.8 L124.2,467.0 L120.4,471.3 L123.0,470.2 L130.5,473.3 L134.3,471.1 L140.6,479.0 L141.0,476.9 L145.1,476.1 L150.7,480.3 L152.3,478.0 L155.1,479.1 L159.9,475.5 L164.8,481.7 L168.7,480.5 L170.9,481.2 L168.7,486.6 L156.3,494.4 L152.9,492.4 L149.2,497.6 L145.8,496.1 L144.4,499.4 L150.3,505.4 L150.2,507.3 L154.2,511.8 L150.9,515.1 L146.0,517.6 L142.7,523.4 L129.6,532.5 L121.7,530.6 L114.8,531.1 L115.2,522.7 L122.9,518.9 L125.1,516.5 L121.3,514.9 L120.0,510.0 L123.6,510.0 L126.4,506.0 L124.7,500.2 L121.6,499.8 L118.0,492.1 L119.2,490.1 L114.3,489.4 L112.1,487.1 Z">
  <desc xmlns="http://www.highcharts.com/svg/namespace">
    <name>Main-Taunus-Kreis</name>
    <bundesland>DE.HE</bundesland>
    <hc-middle-x>0.36</hc-middle-x>
    <hc-middle-y>0.33</hc-middle-y>
    <hc-key>de-he-06436000</hc-key>
    <hc-a2>MT</hc-a2>
  </desc>
</path>

<path fill="#CEE3F5" stroke="#6E6E6E" stroke-width="0.4" id="DE.HE.06439000" d="M120.2,466.8 L119.7,470.6 L121.3,472.3 L118.2,474.7 L121.5,477.0 L122.2,480.8 L118.7,479.7 L114.6,484.5 L113.4,482.8 L105.5,483.9 L103.9,482.5 L97.2,483.8 L96.4,485.8 L90.2,488.7 L85.2,492.2 L84.5,490.6 L80.0,491.0 L74.1,497.7 L70.0,500.7 L75.3,502.7 L74.1,504.7 L69.6,503.9 L69.8,507.3 L72.1,506.8 L79.4,513.5 L82.8,519.9 L73.4,523.0 L65.8,527.3 L56.0,529.2 L39.6,537.5 L33.2,538.7 L22.9,539.1 L18.4,535.8 L17.0,527.4 L11.0,522.6 L6.6,517.3 L0.0,511.7 L6.3,502.8 L11.2,503.8 L13.7,501.9 L12.1,500.2 L13.0,494.7 L15.0,490.4 L18.1,489.1 L23.2,493.5 L26.5,491.0 L32.1,497.2 L31.1,487.1 L33.3,484.1 L25.0,478.3 L23.1,472.0 L29.3,467.6 L28.4,465.8 L31.1,463.6 L36.5,463.0 L37.8,459.7 L44.3,457.7 L45.1,454.0 L48.8,457.2 L49.8,460.6 L54.6,461.4 L54.2,459.8 L59.6,455.5 L56.6,452.8 L54.0,448.5 L52.0,447.7 L55.0,443.6 L62.5,443.1 L63.8,447.0 L66.5,445.7 L68.8,447.4 L72.7,441.9 L74.7,440.7 L81.7,441.9 L88.5,438.4 L93.2,437.5 L95.2,442.7 L96.6,441.8 L100.2,446.4 L104.7,442.6 L109.5,442.5 L112.5,444.0 L115.2,440.2 L118.6,440.2 L120.6,436.9 L124.1,436.5 L128.5,443.8 L131.6,445.3 L131.1,450.9 L125.2,453.1 L130.8,457.8 L131.2,459.9 L121.5,462.4 Z">
  <desc xmlns="http://www.highcharts.com/svg/namespace">
    <name>Rheingau-Taunus-Kreis</name>
    <bundesland>DE.HE</bundesland>
    <hc-middle-x>0.47</hc-middle-x>
    <hc-middle-y>0.38</hc-middle-y>
    <hc-key>de-he-06439000</hc-key>
    <hc-a2>RT</hc-a2>
  </desc>
</path>

<path fill="#CEE3F5" stroke="#6E6E6E" stroke-width="0.4" id="DE.HE.06435000" d="M209.9,475.3 L210.1,468.8 L214.8,468.8 L217.4,467.2 L214.3,458.9 L214.1,455.7 L217.9,456.5 L223.3,451.8 L221.6,443.8 L225.9,441.7 L229.0,444.2 L233.5,443.0 L236.5,443.8 L238.1,447.5 L241.7,446.6 L245.3,450.8 L244.3,452.5 L250.6,453.0 L252.2,450.5 L254.7,453.5 L253.2,455.1 L258.0,455.5 L258.5,457.9 L261.1,452.3 L265.2,451.8 L266.9,453.9 L272.2,453.4 L278.0,451.3 L283.7,452.9 L286.8,450.0 L286.0,447.0 L290.6,441.1 L294.9,441.2 L297.6,432.9 L295.3,430.2 L299.1,425.5 L306.6,425.0 L308.2,423.2 L305.2,421.6 L306.1,416.0 L309.8,415.7 L309.1,412.6 L304.8,411.6 L307.5,407.2 L305.8,406.1 L307.7,400.0 L312.5,396.5 L311.8,391.5 L312.3,383.7 L314.0,383.1 L318.0,386.1 L321.9,386.8 L325.6,391.9 L325.5,398.7 L322.8,403.2 L325.3,405.8 L324.7,408.1 L327.9,407.8 L327.8,405.1 L334.6,406.6 L337.6,402.0 L342.9,400.2 L343.5,396.1 L350.1,389.6 L351.2,390.2 L352.4,391.9 L353.2,399.3 L354.4,399.4 L364.2,407.2 L368.1,409.2 L378.8,405.1 L386.7,410.6 L392.7,411.4 L394.8,415.5 L401.3,415.7 L403.5,416.9 L406.5,421.7 L406.6,430.3 L403.1,436.1 L399.6,437.6 L397.7,441.2 L387.5,444.4 L384.1,450.7 L390.5,454.5 L387.6,456.8 L383.9,455.9 L377.5,460.2 L373.0,460.4 L371.7,456.9 L364.6,459.5 L362.8,456.3 L359.7,456.6 L356.2,453.4 L354.9,458.8 L359.2,468.9 L356.2,469.6 L355.8,475.3 L357.1,477.2 L361.9,477.6 L362.5,479.9 L360.6,483.4 L357.7,484.8 L360.2,494.9 L358.8,501.2 L356.2,500.3 L343.1,504.3 L338.4,504.7 L334.5,500.4 L332.0,493.4 L329.2,489.5 L323.5,489.6 L320.6,486.5 L316.5,488.9 L312.0,486.3 L306.8,487.3 L298.8,483.9 L296.4,486.0 L290.9,487.6 L292.6,490.7 L289.6,493.4 L283.9,502.8 L282.7,500.7 L285.4,495.9 L278.2,491.4 L273.4,491.3 L271.5,494.4 L262.8,494.7 L256.9,496.1 L252.8,501.7 L253.0,509.6 L251.2,510.3 L250.1,507.4 L243.8,506.5 L239.7,504.2 L235.3,504.4 L234.3,507.7 L229.4,506.2 L227.2,501.3 L229.7,491.8 L224.2,491.4 L215.6,489.0 L209.5,487.8 L207.9,487.9 L208.5,481.0 L212.0,477.4 Z">
  <desc xmlns="http://www.highcharts.com/svg/namespace">
    <name>Main-Kinzig-Kreis</name>
    <bundesland>DE.HE</bundesland>
    <hc-middle-x>0.61</hc-middle-x>
    <hc-middle-y>0.51</hc-middle-y>
    <hc-key>de-he-06435000</hc-key>
    <hc-a2>MK</hc-a2>
  </desc>
</path>

<path fill="#CEE3F5" stroke="#6E6E6E" stroke-width="0.4" id="DE.HE.06413000" d="M207.9,487.9 L209.5,487.8 L215.6,489.0 L215.7,492.3 L213.8,492.6 L215.8,500.9 L220.8,504.0 L219.4,509.1 L209.8,509.5 L207.6,514.9 L204.3,516.7 L201.8,514.5 L204.0,514.0 L201.4,511.6 L194.9,511.7 L198.4,504.1 L201.3,501.5 L199.9,498.4 L196.7,496.9 L200.5,494.9 L206.7,496.9 L208.0,495.5 L205.9,491.4 Z">
  <desc xmlns="http://www.highcharts.com/svg/namespace">
    <name>Offenbach am Main</name>
    <bundesland>DE.HE</bundesland>
    <hc-middle-x>0.44</hc-middle-x>
    <hc-middle-y>0.50</hc-middle-y>
    <hc-key>de-he-06413000</hc-key>
    <hc-a2>OA</hc-a2>
  </desc>
</path>

<path fill="#CEE3F5" stroke="#6E6E6E" stroke-width="0.4" id="DE.HE.06432000" d="M211.0,615.7 L207.2,619.5 L205.5,618.6 L201.0,620.7 L197.9,619.8 L195.7,615.0 L192.7,614.1 L191.1,610.4 L186.6,613.8 L187.9,618.1 L185.3,619.8 L182.5,618.7 L177.6,619.9 L171.7,617.0 L167.8,618.8 L161.9,619.7 L161.5,618.5 L160.6,608.4 L161.9,605.4 L159.1,606.3 L159.3,603.0 L156.9,602.5 L157.0,597.0 L159.3,595.4 L159.7,588.6 L156.9,583.4 L153.6,574.5 L154.2,572.4 L162.9,569.3 L162.0,563.7 L160.1,561.7 L160.0,557.0 L164.3,556.4 L163.3,549.9 L167.1,549.4 L166.8,545.8 L170.8,544.7 L170.9,542.8 L174.6,542.7 L182.5,547.0 L185.8,547.3 L184.0,549.1 L176.4,549.5 L175.5,558.3 L177.1,563.9 L170.1,569.4 L169.3,575.9 L166.7,578.3 L162.3,579.7 L163.1,585.7 L169.6,583.6 L172.6,584.7 L175.6,593.8 L180.4,597.1 L186.3,593.1 L185.0,591.8 L185.6,584.2 L192.1,579.4 L194.5,576.2 L197.0,575.7 L196.6,569.0 L201.2,563.3 L198.9,557.7 L199.4,555.0 L197.2,553.2 L198.2,547.9 L196.4,546.4 L199.7,545.2 L202.5,548.1 L207.8,544.9 L213.0,546.8 L214.1,548.5 L218.2,547.8 L226.6,543.0 L232.4,542.7 L241.6,532.6 L253.2,533.2 L256.5,534.6 L258.6,546.3 L259.8,556.0 L258.0,560.7 L260.5,564.1 L260.8,570.6 L262.6,573.6 L260.0,574.7 L262.2,578.2 L260.6,581.1 L259.1,578.1 L254.2,578.1 L255.7,584.8 L251.2,589.5 L247.7,589.7 L245.8,592.2 L246.8,596.6 L237.6,596.3 L236.0,600.1 L231.2,598.6 L227.1,599.7 L227.3,597.4 L223.0,599.1 L220.5,604.7 L220.5,607.4 L214.4,614.9 Z">
  <desc xmlns="http://www.highcharts.com/svg/namespace">
    <name>Darmstadt-Dieburg</name>
    <bundesland>DE.HE</bundesland>
    <hc-middle-x>0.63</hc-middle-x>
    <hc-middle-y>0.46</hc-middle-y>
    <hc-key>de-he-06432000</hc-key>
    <hc-a2>DD</hc-a2>
  </desc>
</path>

<path fill="#CEE3F5" stroke="#6E6E6E" stroke-width="0.4" id="DE.HE.06411000" d="M196.4,546.4 L198.2,547.9 L197.2,553.2 L199.4,555.0 L198.9,557.7 L201.2,563.3 L196.6,569.0 L197.0,575.7 L194.5,576.2 L192.1,579.4 L185.6,584.2 L185.0,591.8 L186.3,593.1 L180.4,597.1 L175.6,593.8 L172.6,584.7 L169.6,583.6 L163.1,585.7 L162.3,579.7 L166.7,578.3 L169.3,575.9 L170.1,569.4 L177.1,563.9 L175.5,558.3 L176.4,549.5 L184.0,549.1 L185.8,547.3 L188.4,548.3 Z">
  <desc xmlns="http://www.highcharts.com/svg/namespace">
    <name>Darmstadt</name>
    <bundesland>DE.HE</bundesland>
    <hc-middle-x>0.55</hc-middle-x>
    <hc-middle-y>0.45</hc-middle-y>
    <hc-key>de-he-06411000</hc-key>
    <hc-a2>DA</hc-a2>
  </desc>
</path>

<path fill="#CEE3F5" stroke="#6E6E6E" stroke-width="0.4" id="DE.HE.06438000" d="M185.8,547.3 L182.5,547.0 L174.6,542.7 L176.3,539.4 L172.1,532.8 L171.2,527.4 L168.7,525.9 L170.0,518.0 L171.7,519.0 L175.5,514.2 L179.2,514.6 L194.9,511.7 L201.4,511.6 L204.0,514.0 L201.8,514.5 L204.3,516.7 L207.6,514.9 L209.8,509.5 L219.4,509.1 L220.8,504.0 L215.8,500.9 L213.8,492.6 L215.7,492.3 L215.6,489.0 L224.2,491.4 L229.7,491.8 L227.2,501.3 L229.4,506.2 L234.3,507.7 L235.3,504.4 L239.7,504.2 L243.8,506.5 L250.1,507.4 L251.2,510.3 L248.2,516.2 L250.8,518.5 L254.4,517.2 L259.6,519.2 L259.5,525.4 L261.4,528.5 L260.4,531.2 L263.2,534.3 L256.5,534.6 L253.2,533.2 L241.6,532.6 L232.4,542.7 L226.6,543.0 L218.2,547.8 L214.1,548.5 L213.0,546.8 L207.8,544.9 L202.5,548.1 L199.7,545.2 L196.4,546.4 L188.4,548.3 Z">
  <desc xmlns="http://www.highcharts.com/svg/namespace">
    <name>Offenbach</name>
    <bundesland>DE.HE</bundesland>
    <hc-middle-x>0.57</hc-middle-x>
    <hc-middle-y>0.63</hc-middle-y>
    <hc-key>de-he-06438000</hc-key>
    <hc-a2>OF</hc-a2>
  </desc>
</path>

<path fill="#CEE3F5" stroke="#6E6E6E" stroke-width="0.4" id="DE.HE.06414000" d="M106.0,532.7 L102.8,527.8 L97.1,522.2 L94.0,521.0 L85.1,519.5 L82.8,519.9 L79.4,513.5 L72.1,506.8 L69.8,507.3 L69.6,503.9 L74.1,504.7 L75.3,502.7 L70.0,500.7 L74.1,497.7 L80.0,491.0 L84.5,490.6 L85.2,492.2 L90.2,488.7 L96.4,485.8 L97.2,483.8 L103.9,482.5 L105.5,483.9 L113.4,482.8 L114.6,484.5 L112.1,487.1 L114.3,489.4 L119.2,490.1 L118.0,492.1 L121.6,499.8 L124.7,500.2 L126.4,506.0 L123.6,510.0 L120.0,510.0 L121.3,514.9 L125.1,516.5 L122.9,518.9 L115.2,522.7 L114.8,531.1 L111.4,530.8 Z">
  <desc xmlns="http://www.highcharts.com/svg/namespace">
    <name>Wiesbaden</name>
    <bundesland>DE.HE</bundesland>
    <hc-middle-x>0.58</hc-middle-x>
    <hc-middle-y>0.46</hc-middle-y>
    <hc-key>de-he-06414000</hc-key>
    <hc-a2>WI</hc-a2>
  </desc>
</path>

<path fill="#CEE3F5" stroke="#6E6E6E" stroke-width="0.4" id="DE.HE.06437000" d="M211.0,615.7 L214.4,614.9 L220.5,607.4 L220.5,604.7 L223.0,599.1 L227.3,597.4 L227.1,599.7 L231.2,598.6 L236.0,600.1 L237.6,596.3 L246.8,596.6 L245.8,592.2 L247.7,589.7 L251.2,589.5 L255.7,584.8 L254.2,578.1 L259.1,578.1 L260.6,581.1 L261.7,583.1 L265.7,581.5 L266.4,585.8 L270.7,580.7 L271.8,582.8 L269.2,584.9 L271.1,587.5 L269.1,590.1 L272.0,599.0 L275.6,596.6 L279.1,597.1 L281.0,601.5 L276.7,604.4 L275.3,609.2 L279.0,610.1 L284.5,614.3 L281.2,622.3 L278.6,623.3 L279.8,627.1 L277.9,628.7 L272.7,629.3 L271.4,631.4 L271.6,638.0 L274.7,640.7 L274.4,646.5 L271.0,648.5 L266.8,653.8 L267.0,659.3 L270.4,659.4 L274.5,666.7 L273.8,672.7 L270.4,672.3 L269.4,668.2 L268.2,671.2 L271.4,675.8 L270.9,678.2 L277.1,681.3 L279.5,685.2 L275.6,689.0 L273.9,683.7 L269.6,684.2 L266.7,682.7 L263.8,685.9 L262.1,692.5 L255.9,692.7 L251.5,691.1 L250.2,688.8 L248.4,691.1 L243.1,690.3 L244.3,693.6 L238.5,700.0 L234.6,696.9 L232.1,697.1 L231.6,692.9 L234.5,684.7 L231.0,682.6 L228.1,670.2 L229.7,667.4 L228.8,660.6 L226.7,657.9 L230.0,658.0 L227.3,655.5 L229.1,653.0 L227.4,648.2 L224.8,646.6 L229.1,641.0 L224.4,642.3 L218.8,639.7 L218.1,636.6 L210.4,632.8 L208.3,630.1 L211.0,629.6 L213.0,625.6 L209.6,622.7 L208.7,619.9 Z">
  <desc xmlns="http://www.highcharts.com/svg/namespace">
    <name>Odenwaldkreis</name>
    <bundesland>DE.HE</bundesland>
    <hc-middle-x>0.59</hc-middle-x>
    <hc-middle-y>0.38</hc-middle-y>
    <hc-key>de-he-06437000</hc-key>
    <hc-a2>OD</hc-a2>
  </desc>
</path>

<path fill="#CEE3F5" stroke="#6E6E6E" stroke-width="0.4" id="DE.HE.06434000" d="M168.7,480.5 L164.8,481.7 L159.9,475.5 L155.1,479.1 L152.3,478.0 L150.7,480.3 L145.1,476.1 L141.0,476.9 L140.6,479.0 L134.3,471.1 L130.5,473.3 L123.0,470.2 L120.4,471.3 L124.2,467.0 L120.2,466.8 L121.5,462.4 L131.2,459.9 L130.8,457.8 L125.2,453.1 L131.1,450.9 L131.6,445.3 L128.5,443.8 L124.1,436.5 L120.6,436.9 L116.8,434.0 L122.1,432.3 L118.0,425.9 L114.9,425.7 L112.6,422.1 L117.5,419.0 L116.8,416.8 L120.7,415.6 L119.0,414.0 L122.2,409.5 L127.7,407.7 L128.5,401.6 L132.0,402.9 L144.0,398.4 L149.8,404.6 L153.6,403.5 L158.0,406.0 L159.8,413.1 L163.3,411.2 L165.1,413.7 L168.1,411.8 L173.6,414.5 L171.0,416.5 L175.1,419.2 L176.3,422.3 L181.3,427.7 L179.1,427.9 L178.9,431.3 L174.3,436.6 L169.4,438.5 L181.4,441.4 L184.6,439.4 L183.5,446.0 L186.9,447.4 L189.4,450.6 L188.2,455.4 L193.8,459.2 L191.7,462.1 L187.7,463.6 L185.0,462.1 L174.9,471.3 L171.6,473.6 L172.6,475.3 L168.4,477.6 Z">
  <desc xmlns="http://www.highcharts.com/svg/namespace">
    <name>Hochtaunuskreis</name>
    <bundesland>DE.HE</bundesland>
    <hc-middle-x>0.53</hc-middle-x>
    <hc-middle-y>0.56</hc-middle-y>
    <hc-key>de-he-06434000</hc-key>
    <hc-a2>HO</hc-a2>
  </desc>
</path>

<path fill="#CEE3F5" stroke="#6E6E6E" stroke-width="0.4" id="DE.HE.06631000" d="M377.6,295.5 L379.2,293.9 L382.5,297.8 L385.5,297.9 L386.8,300.9 L389.4,300.7 L392.7,293.0 L394.6,295.4 L397.5,294.2 L401.2,289.7 L400.0,286.3 L397.4,284.9 L401.7,277.9 L410.0,271.4 L410.9,274.7 L416.2,273.3 L416.9,275.5 L424.4,277.4 L432.2,275.5 L433.4,281.3 L435.6,281.1 L441.5,284.6 L440.3,287.1 L444.3,288.3 L444.7,293.6 L442.6,299.1 L438.8,303.5 L439.6,308.3 L437.7,311.3 L435.4,311.5 L432.7,314.9 L433.4,320.7 L431.9,325.0 L433.8,327.5 L437.9,325.4 L442.2,328.7 L449.1,328.7 L450.7,324.9 L446.3,318.3 L448.9,316.3 L451.5,317.0 L457.3,313.5 L460.9,314.6 L466.9,314.2 L471.1,319.8 L473.7,331.4 L468.8,329.6 L464.7,333.8 L466.9,337.7 L466.5,345.9 L467.7,349.7 L470.0,351.8 L467.1,355.4 L465.3,360.8 L466.1,371.6 L464.6,376.1 L461.5,380.9 L457.3,382.7 L454.9,388.3 L451.1,391.2 L449.3,394.9 L447.1,394.7 L437.8,401.3 L434.1,402.9 L431.4,399.6 L429.4,403.4 L424.9,400.9 L422.1,401.0 L417.5,395.0 L412.5,396.6 L408.9,395.0 L407.0,398.5 L408.7,402.0 L405.6,415.0 L403.5,416.9 L401.3,415.7 L394.8,415.5 L392.7,411.4 L386.7,410.6 L378.8,405.1 L368.1,409.2 L364.2,407.2 L354.4,399.4 L353.2,399.3 L352.4,391.9 L351.2,390.2 L349.3,386.4 L346.6,385.3 L347.2,378.6 L341.0,378.9 L342.4,371.8 L344.9,369.6 L344.6,364.4 L347.8,355.3 L354.1,352.0 L354.8,349.3 L350.9,347.5 L351.4,342.0 L355.3,336.7 L354.5,334.0 L349.6,330.0 L351.2,321.9 L348.1,319.7 L350.8,318.8 L356.4,327.5 L363.2,326.0 L365.5,331.4 L371.3,335.7 L377.0,337.2 L377.9,334.3 L384.0,330.0 L380.2,325.8 L379.5,322.7 L385.6,313.0 L383.2,313.2 L379.9,310.6 L376.7,300.2 Z">
  <desc xmlns="http://www.highcharts.com/svg/namespace">
    <name>Fulda</name>
    <bundesland>DE.HE</bundesland>
    <hc-middle-x>0.49</hc-middle-x>
    <hc-middle-y>0.66</hc-middle-y>
    <hc-key>de-he-06631000</hc-key>
    <hc-a2>FU</hc-a2>
  </desc>
</path>

<path fill="#CEE3F5" stroke="#6E6E6E" stroke-width="0.4" id="DE.HE.06412000" d="M194.9,511.7 L179.2,514.6 L175.5,514.2 L171.7,519.0 L170.0,518.0 L168.7,525.9 L165.6,526.6 L164.2,523.4 L153.7,524.9 L153.1,521.0 L162.1,515.9 L160.5,509.4 L155.3,504.7 L155.3,510.5 L154.2,511.8 L150.2,507.3 L150.3,505.4 L144.4,499.4 L145.8,496.1 L149.2,497.6 L152.9,492.4 L156.3,494.4 L168.7,486.6 L170.9,481.2 L168.7,480.5 L168.4,477.6 L172.6,475.3 L171.6,473.6 L174.9,471.3 L185.0,462.1 L187.7,463.6 L191.7,462.1 L193.8,459.2 L198.3,462.7 L197.4,466.9 L192.5,470.2 L191.8,473.8 L196.0,479.3 L199.3,479.6 L204.3,476.4 L204.3,474.3 L209.9,475.3 L212.0,477.4 L208.5,481.0 L207.9,487.9 L205.9,491.4 L208.0,495.5 L206.7,496.9 L200.5,494.9 L196.7,496.9 L199.9,498.4 L201.3,501.5 L198.4,504.1 Z">
  <desc xmlns="http://www.highcharts.com/svg/namespace">
    <name>Frankfurt am Main</name>
    <bundesland>DE.HE</bundesland>
    <hc-middle-x>0.58</hc-middle-x>
    <hc-middle-y>0.49</hc-middle-y>
    <hc-key>de-he-06412000</hc-key>
    <hc-a2>FA</hc-a2>
  </desc>
</path>

<path fill="#CEE3F5" stroke="#6E6E6E" stroke-width="0.4" id="DE.HE.06533000" d="M144.0,398.4 L132.0,402.9 L128.5,401.6 L127.7,407.7 L122.2,409.5 L119.0,414.0 L120.7,415.6 L116.8,416.8 L117.5,419.0 L112.6,422.1 L114.9,425.7 L118.0,425.9 L122.1,432.3 L116.8,434.0 L120.6,436.9 L118.6,440.2 L115.2,440.2 L112.5,444.0 L109.5,442.5 L104.7,442.6 L100.2,446.4 L96.6,441.8 L95.2,442.7 L93.2,437.5 L88.5,438.4 L81.7,441.9 L74.7,440.7 L72.7,441.9 L72.9,437.7 L71.5,433.7 L68.8,431.4 L68.9,425.9 L63.1,425.0 L63.7,419.0 L61.6,412.9 L57.3,410.1 L56.8,406.8 L52.7,408.0 L52.5,402.7 L45.0,402.5 L44.6,399.6 L42.4,400.1 L41.3,397.2 L44.4,396.4 L45.2,392.0 L43.3,390.1 L46.2,389.5 L50.6,385.4 L44.3,375.0 L44.3,371.6 L46.6,370.6 L45.2,366.4 L47.3,363.0 L50.6,360.7 L54.6,356.0 L54.6,354.0 L58.3,352.0 L62.4,354.6 L63.2,358.2 L72.8,359.4 L71.5,356.4 L77.0,354.2 L75.8,352.2 L79.0,344.2 L80.0,338.7 L82.6,346.1 L87.0,347.1 L91.0,350.2 L95.4,343.2 L97.6,345.6 L101.6,347.0 L102.4,351.4 L105.9,356.0 L106.5,359.5 L111.7,362.4 L112.9,365.5 L117.0,367.6 L121.7,368.0 L122.6,375.8 L128.9,384.9 L133.3,384.9 L135.7,380.0 L138.5,380.8 L135.1,386.4 L138.4,393.8 L143.8,396.6 Z">
  <desc xmlns="http://www.highcharts.com/svg/namespace">
    <name>Limburg-Weilburg</name>
    <bundesland>DE.HE</bundesland>
    <hc-middle-x>0.46</hc-middle-x>
    <hc-middle-y>0.51</hc-middle-y>
    <hc-key>de-he-06533000</hc-key>
    <hc-a2>LW</hc-a2>
  </desc>
</path>

<path fill="#CEE3F5" stroke="#6E6E6E" stroke-width="0.4" id="DE.HE.06534000" d="M283.4,263.6 L280.4,266.4 L277.8,265.1 L274.2,266.3 L272.0,273.0 L267.3,273.2 L264.8,276.0 L258.5,276.8 L256.2,279.2 L256.2,284.6 L252.1,287.3 L250.1,286.7 L245.7,289.2 L239.3,297.2 L234.4,300.0 L234.3,303.2 L236.5,305.6 L235.9,308.6 L232.1,311.0 L225.5,308.7 L222.9,305.6 L218.7,305.3 L213.3,307.1 L213.3,310.0 L207.8,311.3 L205.5,308.5 L200.6,313.1 L197.5,313.4 L194.4,311.1 L192.3,312.5 L186.7,309.8 L186.0,307.5 L181.9,306.1 L178.9,311.9 L177.0,311.7 L176.4,315.1 L169.9,314.8 L170.2,312.8 L166.2,307.4 L167.2,304.9 L161.5,304.5 L159.6,299.3 L161.1,295.3 L159.5,294.4 L157.6,297.4 L151.1,294.9 L145.7,299.0 L142.2,299.9 L139.9,297.3 L140.8,293.2 L137.9,287.2 L143.2,279.7 L140.2,275.8 L137.6,277.6 L131.3,277.0 L130.0,271.9 L131.2,259.6 L122.3,254.9 L125.1,254.1 L125.7,251.0 L128.5,250.5 L129.2,245.3 L138.3,237.0 L142.9,237.6 L141.6,229.7 L144.2,226.9 L143.7,221.5 L147.4,220.8 L154.3,224.8 L159.0,225.7 L164.4,225.0 L166.9,227.4 L171.6,227.2 L178.6,223.8 L183.5,220.1 L183.3,217.7 L187.0,212.1 L190.3,214.3 L193.7,213.1 L193.8,216.5 L199.3,219.2 L198.8,222.5 L205.8,218.0 L209.7,225.1 L219.5,224.8 L222.7,222.6 L224.4,224.6 L234.1,226.8 L236.6,224.4 L234.7,221.0 L240.9,222.3 L242.6,226.7 L248.0,231.0 L250.0,234.1 L255.2,234.9 L255.5,239.9 L258.6,242.4 L261.2,240.4 L260.2,237.9 L263.6,236.7 L267.8,239.6 L269.1,237.6 L275.4,237.2 L279.4,244.8 L275.3,247.6 L279.1,250.9 L283.9,260.1 Z">
  <desc xmlns="http://www.highcharts.com/svg/namespace">
    <name>Marburg-Biedenkopf</name>
    <bundesland>DE.HE</bundesland>
    <hc-middle-x>0.50</hc-middle-x>
    <hc-middle-y>0.49</hc-middle-y>
    <hc-key>de-he-06534000</hc-key>
    <hc-a2>MB</hc-a2>
  </desc>
</path>

<path fill="#CEE3F5" stroke="#6E6E6E" stroke-width="0.4" id="DE.HE.06433000" d="M106.0,532.7 L111.4,530.8 L114.8,531.1 L121.7,530.6 L129.6,532.5 L142.7,523.4 L146.0,517.6 L150.9,515.1 L154.2,511.8 L155.3,510.5 L155.3,504.7 L160.5,509.4 L162.1,515.9 L153.1,521.0 L153.7,524.9 L164.2,523.4 L165.6,526.6 L168.7,525.9 L171.2,527.4 L172.1,532.8 L176.3,539.4 L174.6,542.7 L170.9,542.8 L170.8,544.7 L166.8,545.8 L167.1,549.4 L163.3,549.9 L164.3,556.4 L160.0,557.0 L160.1,561.7 L162.0,563.7 L162.9,569.3 L154.2,572.4 L153.6,574.5 L156.9,583.4 L159.7,588.6 L159.3,595.4 L157.0,597.0 L156.9,602.5 L159.3,603.0 L159.1,606.3 L161.9,605.4 L160.6,608.4 L161.5,618.5 L158.9,622.3 L156.7,620.1 L148.2,620.3 L143.4,618.1 L140.5,619.2 L138.5,616.8 L144.6,609.3 L144.8,606.7 L142.4,605.5 L137.5,606.5 L133.5,605.8 L131.6,603.3 L129.3,595.5 L125.1,589.3 L124.2,584.8 L125.7,579.1 L124.6,576.5 L120.0,574.6 L117.7,571.4 L117.0,567.0 L119.0,561.4 L119.3,556.9 L117.0,547.6 L113.0,539.7 Z">
  <desc xmlns="http://www.highcharts.com/svg/namespace">
    <name>Groß-Gerau</name>
    <bundesland>DE.HE</bundesland>
    <hc-middle-x>0.49</hc-middle-x>
    <hc-middle-y>0.41</hc-middle-y>
    <hc-key>de-he-06433000</hc-key>
    <hc-a2>GG</hc-a2>
  </desc>
</path>
</g>

<text x="350" y="714" text-anchor="middle" font-family="Verdana" font-size="8" stroke-opacity="0.6">Copyright (c) 2014 Highsoft AS, Based on data from GeoBasis-DE / BKG 2014</text>

</svg>