<?xml version="1.0" encoding="utf-8" standalone="no"?>
<!DOCTYPE svg PUBLIC "-//W3C//DTD SVG 1.1//EN" "http://www.w3.org/Graphics/SVG/1.1/DTD/svg11.dtd">

<svg version="1.1" height="700pt" width="700pt" xmlns="http://www.w3.org/2000/svg" xmlns:xlink="http://www.w3.org/1999/xlink">
<desc>
Map version: 1.1.1
Copyright (c) 2014 Highsoft AS, Based on data from GeoBasis-DE / BKG 2014
</desc>
<title>Mecklenburg-Vorpommern</title>
<g id="admin2">

<g id="DE">
  <desc xmlns="http://www.highcharts.com/svg/namespace">
    <name>Germany</name>
    <labelrank>2</labelrank>
    <country-abbrev>Ger.</country-abbrev>
    <subregion>Western Europe</subregion>
    <woe-id>23424829</woe-id>
    <region-wb>Europe &amp; Central Asia</region-wb>
    <iso-a3>DEU</iso-a3>
    <iso-a2>DE</iso-a2>
    <region-un>Europe</region-un>
    <continent>Europe</continent>
    <hc-key>de</hc-key>
    <hc-a2>GE</hc-a2>
  </desc>
</g>

<g id="DE.MV">
  <desc xmlns="http://www.highcharts.com/svg/namespace">
    <labelrank>3</labelrank>
    <hasc>DE.MV</hasc>
    <alt-name>Mecklenburg-West Pomerania</alt-name>
    <woe-id>2345492</woe-id>
    <subregion>NULL</subregion>
    <fips>GM12</fips>
    <postal-code>MV</postal-code>
    <name>Mecklenburg-Vorpommern</name>
    <country>Germany</country>
    <type-en>State</type-en>
    <region>NULL</region>
    <longitude>12.5647</longitude>
    <woe-name>Mecklenburg-Vorpommern</woe-name>
    <latitude>53.7528</latitude>
    <woe-label>Mecklenburg-Vorpommern, DE, Germany</woe-label>
    <type>Land</type>
    <hc-key>de-mv</hc-key>
    <hc-a2>MV</hc-a2>
  </desc>
</g>

<path fill="#CEE3F5" stroke="#6E6E6E" stroke-width="0.4" id="DE.MV.13075000" d="M638.6,205.3 L653.0,219.6 L660.4,228.8 L667.8,234.7 L664.1,239.9 L665.7,248.9 L665.1,253.0 L661.2,251.4 L647.4,252.4 L642.0,250.6 L638.0,252.2 L634.1,250.6 L630.2,252.1 L624.9,258.4 L623.1,257.9 L615.4,259.8 L612.3,258.7 L617.9,257.4 L618.4,254.4 L613.6,250.8 L613.6,254.2 L610.8,259.8 L605.0,260.8 L600.9,259.7 L598.5,257.2 L595.0,257.6 L596.6,251.1 L601.1,251.0 L603.9,249.1 L607.0,249.5 L612.0,246.1 L615.6,238.3 L614.6,231.6 L613.0,226.9 L608.3,222.8 L609.1,216.9 L611.1,214.4 L617.2,213.5 L620.8,215.0 L620.5,220.3 L621.9,221.4 L618.0,224.3 L619.4,226.3 L618.3,231.8 L621.7,226.9 L620.4,225.2 L626.2,223.4 L630.8,223.5 L629.2,227.6 L634.0,230.3 L633.4,227.1 L635.9,218.0 L635.8,212.9 L632.6,206.5 L628.0,208.7 L626.7,198.6 L621.8,193.5 L612.5,193.0 L611.3,197.4 L613.4,201.0 L608.9,208.0 L604.7,208.6 L601.2,211.1 L600.8,207.3 L605.6,199.3 L601.3,196.7 L594.9,200.0 L591.4,205.7 L585.9,205.6 L584.6,203.2 L586.4,198.8 L589.6,196.5 L593.0,186.5 L593.9,180.9 L592.5,177.6 L587.1,174.5 L586.7,170.3 L584.2,170.0 L582.8,163.1 L584.0,160.5 L591.1,157.9 L594.1,159.5 L597.1,169.6 L599.0,173.3 L605.0,180.9 L616.4,188.9 L621.9,190.5 L630.8,196.0 Z M571.9,370.9 L567.8,366.9 L569.0,361.8 L564.7,361.5 L566.8,357.8 L566.5,353.4 L571.5,353.4 L574.8,351.3 L574.0,346.0 L575.2,342.5 L572.3,341.2 L571.0,336.6 L578.9,330.3 L582.1,329.4 L581.3,327.0 L576.7,322.2 L570.0,318.0 L575.3,312.8 L580.4,311.8 L583.0,309.8 L587.9,310.0 L588.7,307.9 L579.9,306.9 L574.7,303.9 L567.5,304.0 L560.5,301.7 L544.6,304.0 L541.8,302.3 L539.2,297.6 L539.7,294.3 L535.4,288.9 L521.3,286.0 L515.6,282.8 L511.9,287.1 L509.9,284.2 L512.6,281.2 L507.1,274.8 L507.2,270.0 L513.2,271.3 L516.3,266.6 L517.0,261.9 L512.7,256.7 L511.3,257.8 L506.4,256.0 L505.5,260.5 L499.9,263.7 L499.4,267.6 L495.8,267.5 L493.9,265.0 L487.4,268.2 L482.8,262.7 L479.4,260.6 L480.1,255.3 L478.3,251.5 L481.8,243.2 L481.5,239.4 L484.8,237.2 L482.5,232.7 L474.1,226.0 L470.0,229.7 L462.0,222.6 L462.2,225.2 L457.7,222.4 L456.3,218.6 L451.6,214.6 L446.6,215.7 L445.7,212.4 L449.2,210.3 L444.1,206.9 L446.0,203.0 L450.8,204.1 L454.1,200.6 L461.9,198.9 L462.6,197.1 L466.8,196.9 L466.3,199.1 L470.3,201.9 L475.1,202.3 L474.5,200.4 L482.0,197.7 L484.2,198.6 L485.3,195.4 L491.8,188.6 L497.1,190.0 L499.2,187.2 L493.6,183.5 L491.7,178.2 L487.4,176.2 L486.9,172.5 L491.8,172.5 L493.1,169.9 L500.0,168.6 L499.9,158.9 L502.0,154.3 L505.6,150.3 L508.5,155.5 L505.8,160.6 L516.2,155.6 L520.6,157.9 L519.9,157.2 L520.3,154.8 L523.8,157.6 L522.5,159.8 L520.7,158.0 L521.3,160.2 L516.2,163.4 L516.8,166.1 L521.0,165.0 L524.4,167.3 L526.8,172.5 L526.8,176.1 L529.8,182.3 L535.5,184.6 L537.6,184.3 L533.6,173.7 L536.3,172.0 L542.9,170.3 L551.2,170.3 L560.8,167.6 L564.7,164.0 L573.4,158.2 L577.1,161.2 L573.2,162.6 L573.3,165.4 L577.1,166.8 L579.8,169.8 L584.9,172.1 L583.2,173.7 L587.1,177.6 L590.1,178.5 L592.3,181.6 L590.6,184.1 L589.7,191.4 L586.7,192.8 L588.7,195.8 L583.9,200.5 L580.9,201.6 L583.8,203.7 L583.9,206.4 L590.5,212.9 L592.5,212.8 L597.3,216.6 L600.6,222.4 L600.2,225.8 L603.4,226.2 L607.7,229.2 L611.3,235.7 L608.7,239.3 L605.5,239.7 L600.7,244.0 L599.0,249.0 L594.9,249.1 L594.8,253.0 L591.5,254.5 L593.6,260.0 L599.1,259.6 L602.6,262.2 L603.7,267.0 L608.5,272.3 L611.1,271.2 L612.2,273.8 L620.5,281.5 L626.6,283.3 L635.1,287.9 L637.0,287.2 L639.9,289.7 L648.7,292.9 L656.5,291.5 L659.6,293.4 L667.9,285.8 L673.4,288.1 L675.4,292.6 L671.7,298.6 L666.3,301.4 L665.0,303.5 L670.5,306.5 L674.6,305.4 L677.5,310.0 L675.1,314.7 L677.6,317.3 L677.3,324.7 L683.3,329.8 L682.3,341.7 L682.6,346.0 L680.5,349.6 L682.9,354.7 L682.8,358.3 L684.8,364.9 L689.1,367.3 L690.4,379.2 L692.8,379.5 L692.2,386.8 L693.0,394.0 L695.9,400.5 L697.0,406.2 L696.0,411.0 L698.8,413.1 L700.0,418.4 L690.6,422.1 L688.3,424.3 L682.4,423.6 L679.6,431.6 L672.3,434.4 L672.9,439.6 L662.8,441.0 L660.8,438.9 L656.4,438.7 L653.5,436.9 L646.9,439.2 L642.2,438.6 L645.1,431.3 L657.7,419.0 L665.4,409.2 L669.0,399.8 L668.0,392.1 L669.0,389.8 L665.9,386.0 L662.1,389.3 L657.1,389.4 L649.8,383.8 L647.1,383.5 L644.0,389.4 L639.7,391.4 L634.1,392.0 L633.1,387.1 L625.9,386.7 L625.0,385.3 L614.9,386.4 L609.7,389.1 L606.9,385.9 L609.7,381.5 L609.9,378.6 L602.1,373.1 L603.8,369.5 L601.9,367.9 L603.0,363.7 L597.4,360.5 L592.5,359.3 L592.3,357.0 L588.4,350.8 L588.5,347.2 L585.8,348.8 L584.3,355.1 L584.5,360.6 L587.1,361.4 L588.7,365.3 L593.4,365.2 L588.7,371.5 L584.5,372.6 L580.1,371.4 L577.7,368.9 Z">
  <desc xmlns="http://www.highcharts.com/svg/namespace">
    <name>Vorpommern-Greifswald</name>
    <bundesland>DE.MV</bundesland>
    <hc-middle-x>0.42</hc-middle-x>
    <hc-middle-y>0.30</hc-middle-y>
    <hc-key>de-mv-13075000</hc-key>
    <hc-a2>VG</hc-a2>
  </desc>
</path>

<path fill="#CEE3F5" stroke="#6E6E6E" stroke-width="0.4" id="DE.MV.13004000" d="M143.9,295.0 L144.2,294.1 L145.0,294.2 L144.9,295.3 Z M134.2,302.2 L133.2,298.9 L137.1,299.0 L137.6,297.0 L142.0,295.2 L145.3,297.9 L148.0,294.6 L154.0,295.1 L154.7,292.8 L161.5,295.1 L163.3,294.7 L163.3,294.7 L163.3,294.7 L163.3,294.7 L165.5,294.2 L167.8,300.9 L167.1,309.6 L170.6,313.9 L170.5,318.4 L168.0,321.6 L166.9,326.3 L159.9,328.0 L165.3,331.6 L161.8,335.1 L154.8,336.3 L154.7,335.0 L147.5,336.2 L148.5,332.7 L144.6,332.4 L147.3,325.9 L143.5,320.7 L145.2,316.4 L144.5,313.1 L145.7,313.4 L145.8,313.2 L144.8,312.4 L144.5,312.9 L144.2,311.9 L142.0,308.5 Z">
  <desc xmlns="http://www.highcharts.com/svg/namespace">
    <name>Schwerin</name>
    <bundesland>DE.MV</bundesland>
    <hc-middle-x>0.58</hc-middle-x>
    <hc-middle-y>0.49</hc-middle-y>
    <hc-key>de-mv-13004000</hc-key>
    <hc-a2>SC</hc-a2>
  </desc>
</path>

<path fill="#CEE3F5" stroke="#6E6E6E" stroke-width="0.4" id="DE.MV.13074000" d="M157.6,206.4 L153.1,204.0 L153.2,197.6 L158.3,194.1 L167.8,190.1 L174.4,190.6 L174.3,196.5 L171.6,198.0 L171.7,203.0 L166.9,208.8 L164.7,209.2 L165.8,198.1 L162.3,201.2 L162.0,208.7 Z M187.1,189.6 L190.1,192.4 L191.4,197.3 L190.4,201.7 L195.9,202.9 L195.8,200.5 L203.8,203.5 L202.7,206.2 L207.1,210.9 L204.9,212.7 L206.1,218.7 L208.3,219.4 L210.5,213.6 L216.9,213.3 L219.9,212.0 L218.6,209.2 L222.8,206.9 L230.0,210.6 L227.2,219.6 L229.6,225.2 L226.7,226.6 L226.6,235.2 L222.8,236.1 L220.9,238.6 L223.6,243.3 L220.3,245.3 L221.7,247.2 L219.4,253.3 L227.5,256.1 L226.8,258.5 L228.7,263.1 L225.1,268.2 L226.0,270.4 L220.1,271.7 L217.9,266.2 L214.5,266.7 L213.8,262.8 L208.1,263.8 L208.1,267.1 L204.9,264.3 L202.7,265.2 L201.2,272.9 L197.5,267.1 L195.0,272.1 L187.6,271.7 L185.2,269.6 L181.4,270.8 L180.1,268.9 L177.2,270.0 L175.9,268.0 L171.4,267.6 L170.1,269.0 L171.9,278.7 L168.4,291.6 L165.7,293.1 L164.7,290.2 L161.7,291.5 L163.3,294.7 L163.3,294.7 L163.3,294.7 L163.3,294.7 L163.5,295.1 L161.5,295.1 L154.7,292.8 L154.0,295.1 L148.0,294.6 L145.3,297.9 L142.0,295.2 L137.6,297.0 L137.1,299.0 L133.2,298.9 L134.2,302.2 L130.3,303.2 L134.9,307.9 L132.0,311.6 L136.4,312.0 L134.2,315.1 L132.7,320.7 L129.8,322.0 L128.1,319.4 L124.5,318.7 L122.9,321.1 L122.2,317.3 L116.1,317.1 L114.4,323.1 L108.3,326.2 L103.6,326.8 L105.1,321.1 L102.6,318.7 L99.1,320.1 L97.0,314.7 L89.8,316.5 L84.5,316.6 L79.9,314.4 L80.8,309.3 L79.2,305.4 L75.1,302.0 L70.4,300.3 L71.1,297.0 L68.3,294.7 L69.2,288.9 L66.9,288.2 L65.9,284.1 L59.5,281.9 L52.7,283.0 L48.5,279.7 L45.4,274.9 L45.7,271.0 L39.4,267.2 L37.0,267.7 L37.5,262.1 L40.4,252.6 L39.2,250.7 L38.9,244.7 L36.6,241.2 L36.9,235.7 L41.5,229.2 L47.3,228.4 L48.4,225.7 L61.1,217.7 L63.3,214.7 L67.8,218.2 L65.9,221.5 L67.3,223.2 L77.9,220.4 L72.8,216.9 L64.8,214.6 L67.9,208.2 L67.1,205.1 L72.6,202.9 L82.2,196.2 L93.9,191.0 L103.0,189.5 L111.1,191.3 L118.0,190.0 L119.8,191.6 L121.4,197.4 L125.7,200.3 L130.7,199.1 L131.9,201.0 L129.2,203.5 L128.1,209.5 L128.6,212.8 L132.9,216.4 L136.5,216.5 L141.5,213.3 L143.5,209.2 L145.4,208.9 L147.7,213.9 L150.5,216.5 L154.6,215.3 L157.5,216.5 L156.5,219.6 L162.3,224.6 L163.7,228.1 L167.4,228.2 L164.5,226.3 L170.6,218.1 L171.5,213.5 L170.2,206.2 L174.0,206.4 L174.9,199.1 L177.2,194.4 L182.2,190.8 L179.0,189.8 L181.3,187.5 L182.8,190.1 Z M143.9,295.0 L144.9,295.3 L145.0,294.2 L144.2,294.1 Z M203.2,262.6 L205.1,263.6 L207.3,266.0 L206.6,262.7 Z">
  <desc xmlns="http://www.highcharts.com/svg/namespace">
    <name>Nordwestmecklenburg</name>
    <bundesland>DE.MV</bundesland>
    <hc-middle-x>0.42</hc-middle-x>
    <hc-middle-y>0.48</hc-middle-y>
    <hc-key>de-mv-13074000</hc-key>
    <hc-a2>NO</hc-a2>
  </desc>
</path>

<path fill="#CEE3F5" stroke="#6E6E6E" stroke-width="0.4" id="DE.MV.13073000" d="M459.5,67.3 L461.0,70.0 L457.8,72.7 L453.8,72.2 L447.6,74.4 L450.7,70.8 L456.2,71.3 Z M395.8,74.3 L400.8,76.2 L401.8,79.2 L392.0,78.1 Z M438.2,71.9 L441.8,72.2 L437.8,75.3 L436.7,74.4 Z M546.8,111.5 L545.6,111.6 L542.3,114.8 L546.3,108.7 Z M472.3,112.5 L471.6,115.6 L470.2,115.6 L469.4,112.7 Z M467.0,49.5 L463.9,55.0 L463.4,64.7 L462.2,68.1 L461.4,62.8 L462.5,57.5 L467.9,40.8 L469.8,31.6 L469.0,27.6 L472.9,23.8 L477.9,23.8 L479.2,31.0 L476.7,25.2 L473.8,29.8 L471.4,29.4 L472.5,32.2 L470.6,34.3 L472.2,39.7 L472.0,43.7 L467.6,46.8 Z M320.6,119.5 L329.8,113.4 L335.4,104.9 L343.9,88.9 L348.8,85.0 L354.8,76.1 L359.9,62.8 L363.2,57.4 L366.8,57.6 L365.4,60.5 L370.8,65.8 L381.5,67.9 L389.1,70.3 L423.8,72.3 L436.2,71.2 L435.5,74.3 L437.1,76.5 L434.3,78.9 L427.5,80.6 L426.1,79.1 L420.1,77.5 L414.7,81.7 L410.4,78.8 L407.9,80.3 L403.6,79.4 L400.0,74.1 L395.0,74.1 L390.8,77.3 L390.7,80.5 L388.0,80.3 L385.5,75.6 L381.7,77.8 L380.9,80.4 L375.9,80.9 L374.3,84.1 L377.8,85.7 L369.1,86.2 L363.4,91.1 L360.6,88.2 L351.7,88.1 L345.6,90.6 L345.8,97.3 L344.7,101.9 L342.1,99.4 L339.2,100.1 L341.2,102.7 L338.5,109.4 L335.3,109.2 L334.0,111.5 L335.4,115.9 L338.1,119.2 L334.5,122.5 L340.6,127.6 L344.2,129.2 L350.6,129.4 L349.9,126.9 L344.3,125.6 L342.6,119.8 L347.4,114.0 L355.7,111.8 L354.9,104.0 L358.9,103.9 L366.2,101.7 L366.9,97.4 L369.5,95.4 L366.6,93.1 L370.2,90.4 L374.9,91.4 L373.4,95.9 L377.8,94.9 L377.5,92.0 L382.1,91.9 L391.1,86.4 L389.1,84.0 L390.6,81.2 L393.7,81.8 L397.7,80.2 L398.9,82.7 L394.3,83.7 L395.0,88.1 L396.0,84.5 L398.9,84.2 L398.6,88.0 L400.3,92.4 L402.8,93.3 L404.4,90.3 L405.7,93.0 L408.3,92.9 L410.0,86.9 L411.8,85.6 L411.5,90.9 L414.6,93.5 L415.2,101.6 L416.8,99.5 L422.0,99.7 L428.8,94.4 L429.4,89.3 L431.7,84.4 L436.4,81.1 L442.1,79.9 L442.8,78.2 L447.7,77.7 L450.2,74.4 L455.3,74.3 L456.3,78.2 L453.7,81.8 L454.4,86.4 L458.5,91.8 L462.9,91.0 L466.4,96.9 L463.1,101.6 L465.0,110.4 L469.2,115.0 L467.5,119.7 L468.8,123.4 L472.7,126.3 L476.3,126.5 L478.8,123.4 L480.5,127.3 L477.6,126.9 L474.3,131.1 L482.6,127.7 L489.6,135.7 L495.4,135.5 L499.5,137.0 L501.9,140.7 L503.3,146.9 L505.6,150.3 L502.0,154.3 L499.9,158.9 L500.0,168.6 L493.1,169.9 L491.8,172.5 L486.9,172.5 L487.4,176.2 L491.7,178.2 L493.6,183.5 L499.2,187.2 L497.1,190.0 L491.8,188.6 L485.3,195.4 L484.2,198.6 L482.0,197.7 L474.5,200.4 L475.1,202.3 L470.3,201.9 L466.3,199.1 L466.8,196.9 L462.6,197.1 L461.9,198.9 L454.1,200.6 L450.8,204.1 L446.0,203.0 L444.1,206.9 L438.8,206.6 L434.9,209.6 L430.9,210.3 L429.9,212.7 L424.1,213.5 L423.6,215.5 L419.9,214.4 L417.7,210.8 L412.0,205.6 L410.0,204.9 L402.4,197.4 L400.2,196.7 L395.3,200.8 L391.1,197.3 L391.9,195.4 L385.4,192.1 L380.0,185.4 L375.8,181.9 L371.6,183.8 L367.4,177.0 L364.3,178.5 L360.7,176.2 L356.2,177.4 L354.1,175.3 L349.8,176.7 L350.2,172.2 L345.9,166.7 L345.4,168.2 L338.6,170.3 L336.6,169.5 L336.9,163.2 L333.8,154.9 L335.6,150.1 L331.6,147.4 L335.3,145.9 L334.9,140.1 L332.3,139.8 L331.5,136.2 L328.0,135.3 L325.1,132.2 L324.6,126.8 L319.2,123.7 Z M481.5,69.7 L484.8,69.4 L486.3,71.6 L487.7,67.8 L489.4,68.4 L493.9,64.3 L495.9,64.8 L496.4,60.2 L491.3,59.9 L492.2,52.6 L486.8,54.6 L481.4,53.2 L479.9,51.2 L479.6,44.7 L476.0,43.1 L476.9,41.1 L482.3,41.6 L494.8,38.9 L503.8,44.9 L502.5,49.5 L505.1,51.9 L506.0,44.1 L504.8,39.3 L514.8,31.6 L517.3,32.3 L514.3,40.7 L511.2,41.3 L515.5,42.8 L515.5,45.2 L512.4,49.1 L513.4,50.9 L519.6,47.9 L520.5,44.5 L514.4,41.1 L518.0,38.0 L518.9,42.0 L525.0,50.6 L523.4,54.9 L524.3,58.5 L529.3,60.5 L530.5,64.4 L537.1,61.9 L540.8,62.3 L540.1,59.3 L542.8,53.0 L542.3,48.2 L539.3,39.4 L542.3,39.3 L542.2,36.7 L539.0,37.7 L537.5,40.7 L530.8,41.0 L527.5,36.1 L522.4,34.5 L520.0,31.5 L520.1,27.2 L517.9,21.5 L510.0,27.7 L510.8,31.2 L501.3,36.2 L495.1,38.2 L497.9,27.3 L502.3,20.1 L503.3,16.7 L502.3,11.5 L499.1,12.1 L492.4,17.4 L494.0,25.6 L492.3,29.1 L489.7,30.0 L484.0,35.9 L480.5,37.8 L481.0,33.3 L484.0,32.0 L489.9,26.5 L492.0,21.4 L491.2,12.7 L496.0,7.5 L503.5,2.9 L512.1,2.6 L518.9,0.3 L524.6,0.8 L528.5,0.0 L530.4,2.3 L528.4,7.6 L521.1,10.7 L519.1,15.2 L520.1,22.2 L524.1,29.9 L529.0,33.9 L533.5,35.2 L535.5,33.8 L538.9,34.6 L553.0,32.1 L560.8,31.2 L565.3,31.7 L569.3,34.4 L572.5,38.5 L572.8,44.4 L570.3,51.4 L559.6,57.8 L552.9,65.1 L552.4,69.6 L553.7,76.0 L556.8,83.1 L561.4,88.4 L570.4,88.0 L576.0,94.4 L578.8,101.0 L582.4,104.6 L586.8,107.1 L581.1,109.6 L580.1,113.8 L578.2,115.6 L577.4,120.2 L578.9,127.1 L575.9,128.7 L571.7,124.1 L572.8,122.9 L576.2,125.3 L575.0,120.4 L573.0,121.9 L566.5,122.5 L564.9,119.5 L574.5,114.2 L575.5,111.1 L569.7,109.7 L563.5,112.9 L559.0,112.5 L565.3,110.7 L571.3,106.5 L571.6,103.7 L563.4,105.4 L563.6,107.1 L559.0,109.3 L557.2,104.6 L551.9,102.8 L548.1,106.4 L539.4,105.3 L533.0,110.1 L532.0,113.4 L529.6,113.7 L524.4,117.2 L523.1,121.1 L518.2,128.2 L519.2,124.8 L512.0,127.2 L513.1,131.2 L514.8,129.0 L516.7,132.2 L520.9,128.5 L523.9,132.0 L524.9,136.7 L519.1,142.2 L517.0,139.6 L506.5,136.7 L506.8,127.9 L508.8,124.1 L504.4,128.1 L504.9,130.8 L500.3,130.0 L496.8,131.6 L491.9,127.6 L487.7,125.8 L484.6,126.1 L483.7,118.0 L481.5,120.9 L479.4,120.2 L474.3,122.7 L474.2,117.8 L476.8,115.5 L481.8,118.1 L479.6,114.0 L473.5,111.5 L473.5,109.4 L470.1,107.2 L471.8,96.5 L474.1,94.3 L479.9,95.1 L485.0,93.8 L485.6,95.0 L491.7,96.0 L492.4,93.4 L496.4,92.7 L493.1,91.3 L491.1,86.1 L492.6,83.8 L489.5,82.3 L488.3,77.6 L484.0,79.3 L477.1,79.5 L480.9,70.0 L474.1,72.9 L471.9,72.6 L476.3,62.2 L478.9,59.2 L483.6,57.5 L485.8,59.8 L490.5,59.9 L490.9,64.9 L483.9,66.3 L482.9,69.2 Z M546.0,79.1 L549.9,76.1 L548.3,73.5 L544.0,73.1 L548.2,70.5 L548.5,64.9 L544.7,63.2 L538.3,63.9 L534.7,69.9 L535.0,71.7 L541.1,72.3 L542.1,74.8 L540.4,77.1 L535.3,77.6 L535.3,80.1 L540.3,79.9 L541.4,82.1 L546.9,81.9 Z">
  <desc xmlns="http://www.highcharts.com/svg/namespace">
    <name>Vorpommern-Rügen</name>
    <bundesland>DE.MV</bundesland>
    <hc-middle-x>0.38</hc-middle-x>
    <hc-middle-y>0.69</hc-middle-y>
    <hc-key>de-mv-13073000</hc-key>
    <hc-a2>VR</hc-a2>
  </desc>
</path>

<path fill="#CEE3F5" stroke="#6E6E6E" stroke-width="0.4" id="DE.MV.13076000" d="M203.2,262.6 L206.6,262.7 L207.3,266.0 L205.1,263.6 Z M317.9,413.3 L314.2,410.3 L307.0,411.0 L302.2,408.1 L299.6,400.3 L292.5,401.3 L291.6,404.5 L288.2,405.7 L285.4,398.7 L282.1,402.6 L277.3,402.0 L277.4,403.8 L272.4,402.8 L271.7,395.7 L266.0,395.0 L267.9,401.7 L259.9,405.9 L261.2,415.3 L256.1,418.2 L252.0,416.4 L248.0,424.1 L241.4,423.9 L236.8,422.0 L235.1,426.3 L230.7,431.2 L222.5,429.0 L218.6,429.1 L225.0,435.1 L224.4,436.9 L213.4,436.8 L205.8,439.6 L205.8,435.0 L202.1,434.2 L201.0,431.1 L193.8,431.0 L189.8,432.3 L187.8,431.0 L185.5,434.6 L182.9,435.4 L179.6,439.1 L173.0,440.7 L174.6,442.6 L173.9,448.0 L175.7,452.6 L171.9,458.3 L172.8,462.1 L168.7,466.1 L157.5,464.9 L155.3,460.7 L151.2,461.7 L143.3,460.3 L142.5,469.4 L136.2,467.2 L132.2,467.8 L128.7,465.7 L123.5,466.4 L119.1,464.6 L115.6,460.0 L110.0,457.2 L105.5,460.0 L102.3,453.0 L105.7,450.5 L107.0,447.1 L104.3,443.9 L96.5,441.8 L96.9,438.7 L92.8,437.8 L88.4,434.7 L83.5,427.8 L82.7,424.5 L77.7,413.9 L74.6,413.2 L73.3,400.9 L70.4,398.8 L71.5,397.0 L66.3,395.2 L65.6,396.7 L59.2,391.7 L57.2,394.9 L52.0,395.4 L53.2,398.0 L49.1,401.1 L46.0,401.4 L43.1,404.1 L41.4,401.8 L36.3,400.7 L29.3,394.7 L30.4,393.1 L25.8,391.6 L24.5,387.2 L20.3,383.2 L14.9,383.2 L6.7,381.7 L0.0,383.4 L1.0,379.2 L4.1,377.7 L5.1,374.0 L5.5,364.6 L9.0,355.6 L12.3,354.2 L19.6,356.6 L21.7,349.6 L25.1,350.4 L31.0,348.3 L35.9,345.2 L37.7,340.6 L42.3,339.1 L44.3,333.4 L46.5,331.4 L45.5,321.4 L48.9,321.3 L50.4,324.5 L53.0,324.8 L61.6,322.9 L64.1,319.5 L64.2,313.9 L66.0,305.9 L70.4,300.3 L75.1,302.0 L79.2,305.4 L80.8,309.3 L79.9,314.4 L84.5,316.6 L89.8,316.5 L97.0,314.7 L99.1,320.1 L102.6,318.7 L105.1,321.1 L103.6,326.8 L108.3,326.2 L114.4,323.1 L116.1,317.1 L122.2,317.3 L122.9,321.1 L124.5,318.7 L128.1,319.4 L129.8,322.0 L132.7,320.7 L134.2,315.1 L136.4,312.0 L132.0,311.6 L134.9,307.9 L130.3,303.2 L134.2,302.2 L142.0,308.5 L144.2,311.9 L144.5,312.9 L144.8,312.4 L145.8,313.2 L145.7,313.4 L144.5,313.1 L145.2,316.4 L143.5,320.7 L147.3,325.9 L144.6,332.4 L148.5,332.7 L147.5,336.2 L154.7,335.0 L154.8,336.3 L161.8,335.1 L165.3,331.6 L159.9,328.0 L166.9,326.3 L168.0,321.6 L170.5,318.4 L170.6,313.9 L167.1,309.6 L167.8,300.9 L165.5,294.2 L163.3,294.7 L163.3,294.7 L163.3,294.7 L161.7,291.5 L164.7,290.2 L165.7,293.1 L168.4,291.6 L171.9,278.7 L170.1,269.0 L171.4,267.6 L175.9,268.0 L177.2,270.0 L180.1,268.9 L181.4,270.8 L185.2,269.6 L187.6,271.7 L195.0,272.1 L197.5,267.1 L201.2,272.9 L202.7,265.2 L204.9,264.3 L208.1,267.1 L208.1,263.8 L213.8,262.8 L214.5,266.7 L217.9,266.2 L220.1,271.7 L226.0,270.4 L234.5,273.9 L233.1,276.8 L238.7,279.2 L245.1,283.1 L245.0,281.9 L250.8,280.2 L254.9,281.7 L258.6,280.2 L261.7,283.2 L263.6,289.4 L268.3,289.3 L267.0,295.8 L270.5,304.6 L274.1,306.1 L274.4,308.4 L278.6,312.0 L283.1,310.7 L286.5,314.5 L297.4,312.9 L297.8,318.8 L299.9,322.7 L298.8,325.0 L306.0,329.2 L306.1,331.3 L311.9,332.0 L313.2,335.7 L316.0,336.5 L315.7,340.8 L312.4,351.7 L314.3,357.7 L317.4,359.4 L319.5,364.2 L325.4,363.9 L321.6,369.5 L315.0,373.6 L315.1,378.4 L313.4,379.9 L313.6,386.3 L316.0,389.6 L308.2,394.2 L314.8,398.4 L310.6,401.8 L314.6,402.7 L315.9,401.2 L317.3,405.3 L320.5,408.5 Z M163.3,294.7 L163.5,295.1 L161.5,295.1 L163.3,294.7 L163.3,294.7 Z">
  <desc xmlns="http://www.highcharts.com/svg/namespace">
    <name>Ludwigslust-Parchim</name>
    <bundesland>DE.MV</bundesland>
    <hc-middle-x>0.53</hc-middle-x>
    <hc-middle-y>0.54</hc-middle-y>
    <hc-key>de-mv-13076000</hc-key>
    <hc-a2>LP</hc-a2>
  </desc>
</path>

<path fill="#CEE3F5" stroke="#6E6E6E" stroke-width="0.4" id="DE.MV.13072000" d="M305.1,128.2 L309.2,125.4 L320.6,119.5 L319.2,123.7 L324.6,126.8 L325.1,132.2 L328.0,135.3 L331.5,136.2 L332.3,139.8 L334.9,140.1 L335.3,145.9 L331.6,147.4 L335.6,150.1 L333.8,154.9 L336.9,163.2 L336.6,169.5 L338.6,170.3 L345.4,168.2 L345.9,166.7 L350.2,172.2 L349.8,176.7 L354.1,175.3 L356.2,177.4 L360.7,176.2 L364.3,178.5 L367.4,177.0 L371.6,183.8 L375.8,181.9 L380.0,185.4 L385.4,192.1 L391.9,195.4 L391.1,197.3 L395.3,200.8 L400.2,196.7 L402.4,197.4 L410.0,204.9 L412.0,205.6 L410.7,207.6 L413.1,210.8 L407.9,219.6 L411.2,224.8 L412.1,228.6 L406.8,230.5 L403.1,238.1 L405.9,239.3 L405.1,241.7 L409.4,246.3 L403.7,245.9 L400.5,249.6 L401.0,254.4 L399.7,260.9 L396.5,262.8 L391.1,263.4 L390.7,271.9 L389.1,276.8 L380.4,276.0 L380.1,281.5 L376.7,281.6 L376.4,290.1 L378.3,293.1 L375.3,300.8 L378.1,307.3 L381.2,309.8 L375.3,316.1 L372.6,315.6 L369.8,312.5 L364.1,312.1 L363.0,310.0 L355.7,311.6 L353.0,309.9 L353.0,304.1 L350.5,300.2 L347.0,302.1 L347.9,297.6 L345.5,299.0 L345.4,302.9 L342.9,303.9 L346.7,308.6 L345.2,309.2 L340.6,305.1 L333.6,306.9 L337.3,313.0 L335.7,316.4 L335.7,324.3 L333.4,326.4 L336.4,332.3 L333.0,337.3 L328.2,334.3 L329.1,331.7 L325.0,331.3 L324.2,328.8 L316.0,336.5 L313.2,335.7 L311.9,332.0 L306.1,331.3 L306.0,329.2 L298.8,325.0 L299.9,322.7 L297.8,318.8 L297.4,312.9 L286.5,314.5 L283.1,310.7 L278.6,312.0 L274.4,308.4 L274.1,306.1 L270.5,304.6 L267.0,295.8 L268.3,289.3 L263.6,289.4 L261.7,283.2 L258.6,280.2 L254.9,281.7 L250.8,280.2 L245.0,281.9 L245.1,283.1 L238.7,279.2 L233.1,276.8 L234.5,273.9 L226.0,270.4 L225.1,268.2 L228.7,263.1 L226.8,258.5 L227.5,256.1 L219.4,253.3 L221.7,247.2 L220.3,245.3 L223.6,243.3 L220.9,238.6 L222.8,236.1 L226.6,235.2 L226.7,226.6 L229.6,225.2 L227.2,219.6 L230.0,210.6 L222.8,206.9 L218.6,209.2 L219.9,212.0 L216.9,213.3 L210.5,213.6 L208.3,219.4 L206.1,218.7 L204.9,212.7 L207.1,210.9 L202.7,206.2 L203.8,203.5 L195.8,200.5 L195.9,202.9 L190.4,201.7 L191.4,197.3 L190.1,192.4 L187.1,189.6 L192.0,183.9 L191.4,178.8 L199.1,175.2 L199.7,171.2 L197.6,167.2 L192.6,169.9 L181.9,182.7 L183.0,180.6 L182.4,174.8 L188.0,168.6 L194.1,167.4 L199.1,163.7 L210.2,152.5 L224.9,152.5 L231.3,155.2 L241.3,156.1 L247.6,154.6 L267.8,148.1 L274.1,152.2 L271.1,154.9 L274.1,158.7 L273.2,163.1 L273.9,168.7 L277.0,170.6 L275.6,174.0 L277.3,175.0 L279.9,185.5 L282.4,186.7 L287.8,184.7 L293.1,184.9 L297.0,181.3 L301.2,181.9 L303.6,173.6 L298.3,167.1 L298.6,163.5 L301.9,157.9 L300.7,152.2 L303.4,151.9 L304.9,147.3 L314.6,147.6 L321.2,143.5 L316.1,137.7 L317.1,130.4 L316.2,129.0 L309.5,129.3 Z">
  <desc xmlns="http://www.highcharts.com/svg/namespace">
    <name>Rostock</name>
    <bundesland>DE.MV</bundesland>
    <hc-middle-x>0.56</hc-middle-x>
    <hc-middle-y>0.55</hc-middle-y>
    <hc-key>de-mv-13072000</hc-key>
    <hc-a2>RO</hc-a2>
  </desc>
</path>

<path fill="#CEE3F5" stroke="#6E6E6E" stroke-width="0.4" id="DE.MV.13071000" d="M444.1,206.9 L449.2,210.3 L445.7,212.4 L446.6,215.7 L451.6,214.6 L456.3,218.6 L457.7,222.4 L462.2,225.2 L462.0,222.6 L470.0,229.7 L474.1,226.0 L482.5,232.7 L484.8,237.2 L481.5,239.4 L481.8,243.2 L478.3,251.5 L480.1,255.3 L479.4,260.6 L482.8,262.7 L487.4,268.2 L493.9,265.0 L495.8,267.5 L499.4,267.6 L499.9,263.7 L505.5,260.5 L506.4,256.0 L511.3,257.8 L512.7,256.7 L517.0,261.9 L516.3,266.6 L513.2,271.3 L507.2,270.0 L507.1,274.8 L512.6,281.2 L509.9,284.2 L511.9,287.1 L515.6,282.8 L521.3,286.0 L535.4,288.9 L539.7,294.3 L539.2,297.6 L541.8,302.3 L544.6,304.0 L560.5,301.7 L567.5,304.0 L574.7,303.9 L579.9,306.9 L588.7,307.9 L587.9,310.0 L583.0,309.8 L580.4,311.8 L575.3,312.8 L570.0,318.0 L576.7,322.2 L581.3,327.0 L582.1,329.4 L578.9,330.3 L571.0,336.6 L572.3,341.2 L575.2,342.5 L574.0,346.0 L574.8,351.3 L571.5,353.4 L566.5,353.4 L566.8,357.8 L564.7,361.5 L569.0,361.8 L567.8,366.9 L571.9,370.9 L563.2,377.2 L560.9,381.6 L559.0,380.4 L556.7,385.1 L558.0,387.7 L556.0,392.0 L553.3,390.6 L545.9,392.6 L542.1,394.9 L543.2,401.8 L540.7,405.6 L537.5,404.8 L535.7,409.2 L536.8,419.0 L533.8,419.6 L529.5,427.4 L524.9,428.3 L524.4,425.7 L521.0,424.9 L517.6,434.0 L515.4,436.0 L514.3,441.3 L511.5,442.2 L506.5,431.2 L502.2,432.6 L495.0,430.1 L490.8,434.8 L485.7,437.2 L483.8,446.6 L482.0,449.5 L477.1,447.7 L473.2,438.7 L468.0,438.6 L464.4,442.7 L460.2,441.7 L458.9,443.1 L459.3,449.3 L455.8,449.2 L454.1,452.7 L447.4,454.8 L443.1,461.0 L434.9,464.7 L432.3,460.1 L429.7,459.8 L435.7,456.3 L435.0,453.9 L429.9,453.5 L429.2,456.2 L424.7,457.2 L425.8,454.3 L421.6,455.1 L419.1,458.9 L413.4,456.2 L411.6,452.4 L405.4,454.9 L395.9,455.5 L391.6,452.2 L395.2,444.7 L388.8,445.3 L378.4,442.0 L380.3,437.4 L376.6,434.6 L369.6,435.5 L367.5,437.6 L357.4,431.9 L353.7,430.9 L348.6,431.5 L347.7,433.6 L342.1,433.1 L338.0,434.9 L335.6,430.9 L335.1,427.1 L329.7,425.4 L329.0,418.5 L323.9,417.1 L317.9,413.3 L320.5,408.5 L317.3,405.3 L315.9,401.2 L314.6,402.7 L310.6,401.8 L314.8,398.4 L308.2,394.2 L316.0,389.6 L313.6,386.3 L313.4,379.9 L315.1,378.4 L315.0,373.6 L321.6,369.5 L325.4,363.9 L319.5,364.2 L317.4,359.4 L314.3,357.7 L312.4,351.7 L315.7,340.8 L316.0,336.5 L324.2,328.8 L325.0,331.3 L329.1,331.7 L328.2,334.3 L333.0,337.3 L336.4,332.3 L333.4,326.4 L335.7,324.3 L335.7,316.4 L337.3,313.0 L333.6,306.9 L340.6,305.1 L345.2,309.2 L346.7,308.6 L342.9,303.9 L345.4,302.9 L345.5,299.0 L347.9,297.6 L347.0,302.1 L350.5,300.2 L353.0,304.1 L353.0,309.9 L355.7,311.6 L363.0,310.0 L364.1,312.1 L369.8,312.5 L372.6,315.6 L375.3,316.1 L381.2,309.8 L378.1,307.3 L375.3,300.8 L378.3,293.1 L376.4,290.1 L376.7,281.6 L380.1,281.5 L380.4,276.0 L389.1,276.8 L390.7,271.9 L391.1,263.4 L396.5,262.8 L399.7,260.9 L401.0,254.4 L400.5,249.6 L403.7,245.9 L409.4,246.3 L405.1,241.7 L405.9,239.3 L403.1,238.1 L406.8,230.5 L412.1,228.6 L411.2,224.8 L407.9,219.6 L413.1,210.8 L410.7,207.6 L412.0,205.6 L417.7,210.8 L419.9,214.4 L423.6,215.5 L424.1,213.5 L429.9,212.7 L430.9,210.3 L434.9,209.6 L438.8,206.6 Z">
  <desc xmlns="http://www.highcharts.com/svg/namespace">
    <name>Mecklenburgische Seenplatte</name>
    <bundesland>DE.MV</bundesland>
    <hc-middle-x>0.47</hc-middle-x>
    <hc-middle-y>0.55</hc-middle-y>
    <hc-key>de-mv-13071000</hc-key>
    <hc-a2>MS</hc-a2>
  </desc>
</path>

<path fill="#CEE3F5" stroke="#6E6E6E" stroke-width="0.4" id="DE.MV.13003000" d="M267.8,148.1 L270.3,147.2 L275.2,148.0 L281.0,147.3 L283.8,145.7 L285.4,150.4 L283.0,158.5 L283.9,161.7 L283.3,168.1 L285.5,172.1 L289.3,174.3 L294.3,174.0 L293.7,172.8 L288.6,173.0 L285.1,166.7 L285.3,155.9 L287.3,154.2 L291.4,155.2 L293.8,149.4 L290.3,148.3 L286.2,150.6 L285.3,146.9 L287.6,147.9 L291.5,145.4 L295.7,140.4 L300.2,132.8 L305.1,128.2 L309.5,129.3 L316.2,129.0 L317.1,130.4 L316.1,137.7 L321.2,143.5 L314.6,147.6 L304.9,147.3 L303.4,151.9 L300.7,152.2 L301.9,157.9 L298.6,163.5 L298.3,167.1 L303.6,173.6 L301.2,181.9 L297.0,181.3 L293.1,184.9 L287.8,184.7 L282.4,186.7 L279.9,185.5 L277.3,175.0 L275.6,174.0 L277.0,170.6 L273.9,168.7 L273.2,163.1 L274.1,158.7 L271.1,154.9 L274.1,152.2 Z">
  <desc xmlns="http://www.highcharts.com/svg/namespace">
    <name>Rostock</name>
    <bundesland>DE.MV</bundesland>
    <hc-middle-x>0.72</hc-middle-x>
    <hc-middle-y>0.19</hc-middle-y>
    <hc-key>de-mv-13003000</hc-key>
    <hc-a2>RO</hc-a2>
  </desc>
</path>
</g>

<text x="350" y="714" text-anchor="middle" font-family="Verdana" font-size="8" stroke-opacity="0.6">Copyright (c) 2014 Highsoft AS, Based on data from GeoBasis-DE / BKG 2014</text>

</svg>