<?xml version="1.0" encoding="utf-8" standalone="no"?>
<!DOCTYPE svg PUBLIC "-//W3C//DTD SVG 1.1//EN" "http://www.w3.org/Graphics/SVG/1.1/DTD/svg11.dtd">

<svg version="1.1" height="700pt" width="700pt" xmlns="http://www.w3.org/2000/svg" xmlns:xlink="http://www.w3.org/1999/xlink">
<desc>
Map version: 1.1.1
Copyright (c) 2014 Highsoft AS, Based on data from GeoBasis-DE / BKG 2014
</desc>
<title>Niedersachsen</title>
<g id="admin2">

<g id="DE">
  <desc xmlns="http://www.highcharts.com/svg/namespace">
    <name>Germany</name>
    <labelrank>2</labelrank>
    <country-abbrev>Ger.</country-abbrev>
    <subregion>Western Europe</subregion>
    <woe-id>23424829</woe-id>
    <region-wb>Europe &amp; Central Asia</region-wb>
    <iso-a3>DEU</iso-a3>
    <iso-a2>DE</iso-a2>
    <region-un>Europe</region-un>
    <continent>Europe</continent>
    <hc-key>de</hc-key>
    <hc-a2>GE</hc-a2>
  </desc>
</g>

<g id="DE.NI">
  <desc xmlns="http://www.highcharts.com/svg/namespace">
    <labelrank>3</labelrank>
    <hasc>DE.NI</hasc>
    <alt-name>Lower Saxony</alt-name>
    <woe-id>2345486</woe-id>
    <subregion>NULL</subregion>
    <fips>GM06</fips>
    <postal-code>NI</postal-code>
    <name>Niedersachsen</name>
    <country>Germany</country>
    <type-en>State</type-en>
    <region>NULL</region>
    <longitude>8.861840000000001</longitude>
    <woe-name>Niedersachsen</woe-name>
    <latitude>52.775</latitude>
    <woe-label>Lower Saxony, DE, Germany</woe-label>
    <type>Land</type>
    <hc-key>de-ni</hc-key>
    <hc-a2>NI</hc-a2>
  </desc>
</g>

<path fill="#CEE3F5" stroke="#6E6E6E" stroke-width="0.4" id="DE.NI.03452000" d="M108.1,34.3 L114.1,35.9 L112.6,38.0 L107.3,37.9 L103.6,36.4 Z M38.9,53.1 L40.3,54.1 L35.7,57.6 L34.2,53.6 Z M50.9,121.2 L52.7,114.9 L53.2,103.8 L55.3,92.1 L58.7,87.0 L57.4,79.3 L61.2,84.3 L63.9,83.4 L65.8,86.0 L66.7,82.7 L71.5,80.5 L64.6,71.8 L68.3,66.4 L72.2,63.6 L74.0,59.5 L86.9,49.6 L93.4,47.2 L103.4,45.7 L105.7,46.9 L121.0,47.2 L125.1,49.6 L129.8,49.0 L124.2,51.4 L121.2,55.3 L124.5,60.0 L118.9,60.1 L111.5,62.1 L110.5,70.6 L112.2,82.1 L119.7,78.9 L139.4,75.8 L143.3,76.1 L144.9,82.0 L143.1,85.0 L146.9,89.9 L146.6,99.2 L155.0,97.1 L156.1,100.9 L154.7,104.6 L157.5,105.8 L161.3,104.1 L159.1,111.1 L164.2,114.3 L165.7,120.1 L148.8,125.6 L144.1,128.1 L142.7,126.4 L138.9,129.3 L134.8,129.7 L134.8,126.9 L130.0,126.5 L128.1,123.9 L123.2,124.4 L120.4,120.9 L117.3,120.2 L111.7,122.1 L108.6,125.3 L103.1,123.0 L100.2,123.8 L97.4,119.8 L96.0,124.7 L94.1,124.6 L94.9,120.7 L90.6,118.0 L90.0,111.3 L83.1,114.5 L80.7,112.1 L77.2,115.3 L74.1,115.5 L71.0,112.9 L64.8,115.8 L63.6,119.2 L59.1,123.0 L56.3,123.1 L52.9,116.9 Z M101.7,38.1 L90.9,41.4 L78.0,41.6 L74.5,42.6 L72.4,40.2 L76.6,37.6 L79.4,36.6 L99.7,36.1 Z M50.0,45.6 L63.5,44.6 L67.0,45.6 L37.2,49.3 L32.5,48.8 Z">
  <desc xmlns="http://www.highcharts.com/svg/namespace">
    <name>Aurich</name>
    <bundesland>DE.NI</bundesland>
    <hc-middle-x>0.58</hc-middle-x>
    <hc-middle-y>0.61</hc-middle-y>
    <hc-key>de-ni-03452000</hc-key>
    <hc-a2>AU</hc-a2>
  </desc>
</path>

<path fill="#CEE3F5" stroke="#6E6E6E" stroke-width="0.4" id="DE.NI.03461000" d="M215.3,40.0 L209.9,42.2 L212.4,37.4 L218.7,37.8 Z M261.0,98.4 L260.9,110.6 L261.9,123.3 L260.6,132.1 L260.7,139.7 L259.3,148.4 L259.6,156.1 L262.3,162.3 L272.7,168.6 L277.7,169.7 L279.6,176.0 L283.8,181.8 L283.4,184.0 L281.5,184.6 L280.6,186.3 L272.6,180.7 L270.5,181.7 L263.4,179.0 L262.2,181.2 L257.6,177.0 L247.6,181.0 L245.9,169.3 L236.5,171.3 L235.0,173.3 L232.3,166.9 L233.9,164.8 L235.4,163.2 L233.0,153.0 L229.7,146.8 L229.0,142.3 L225.8,136.7 L222.0,137.9 L216.6,133.8 L214.6,129.2 L216.0,125.8 L220.0,123.0 L220.8,116.0 L219.2,112.9 L226.2,115.7 L230.9,112.2 L233.6,108.0 L236.1,100.7 L236.4,88.4 L234.0,85.7 L229.2,87.3 L224.4,86.7 L226.3,72.3 L229.3,68.0 L233.1,65.2 L237.7,64.7 L241.2,66.8 L246.1,74.5 L257.0,79.5 L264.0,79.4 L269.4,83.6 L269.5,88.2 L264.2,91.6 Z">
  <desc xmlns="http://www.highcharts.com/svg/namespace">
    <name>Wesermarsch</name>
    <bundesland>DE.NI</bundesland>
    <hc-middle-x>0.46</hc-middle-x>
    <hc-middle-y>0.59</hc-middle-y>
    <hc-key>de-ni-03461000</hc-key>
    <hc-a2>WE</hc-a2>
  </desc>
</path>

<path fill="#CEE3F5" stroke="#6E6E6E" stroke-width="0.4" id="DE.NI.03353000" d="M508.0,138.4 L508.6,137.5 L508.9,137.7 L508.3,138.6 Z M439.9,90.4 L441.9,93.6 L444.6,93.2 L444.3,98.7 L452.9,106.4 L457.9,101.4 L461.5,106.3 L459.5,111.2 L464.4,109.9 L465.4,107.6 L470.4,111.1 L472.1,108.6 L476.6,106.4 L475.4,103.7 L478.9,103.7 L479.7,99.6 L483.5,102.0 L487.8,108.2 L491.3,109.0 L497.3,115.2 L506.8,114.5 L508.4,110.5 L515.2,106.4 L519.5,108.1 L525.2,108.2 L535.0,115.3 L538.6,116.9 L534.7,124.2 L524.8,120.8 L525.1,122.8 L518.2,123.5 L518.3,129.6 L516.0,130.4 L515.4,130.2 L515.2,130.5 L515.5,130.6 L514.3,131.0 L509.6,130.4 L509.0,134.2 L505.9,133.6 L502.8,139.3 L507.2,141.3 L506.9,144.4 L509.4,147.1 L505.3,150.0 L503.0,149.1 L500.9,155.7 L502.7,154.9 L506.3,158.9 L506.1,162.8 L502.4,165.7 L496.5,164.9 L489.2,168.5 L488.9,171.6 L484.2,178.3 L480.3,173.2 L472.9,171.3 L473.6,167.9 L467.2,166.3 L461.1,168.0 L457.5,163.1 L452.3,159.6 L445.0,165.2 L437.4,161.8 L434.6,158.9 L428.5,157.7 L420.1,155.9 L417.8,152.2 L415.2,140.9 L417.3,141.6 L411.3,130.1 L416.9,122.7 L419.1,123.1 L419.5,117.9 L422.4,117.0 L423.7,113.0 L427.1,113.1 L434.2,109.9 L436.1,106.3 L442.1,105.6 L440.3,101.5 L439.8,95.9 L435.6,93.8 L439.4,92.9 Z">
  <desc xmlns="http://www.highcharts.com/svg/namespace">
    <name>Harburg</name>
    <bundesland>DE.NI</bundesland>
    <hc-middle-x>0.36</hc-middle-x>
    <hc-middle-y>0.47</hc-middle-y>
    <hc-key>de-ni-03353000</hc-key>
    <hc-a2>HA</hc-a2>
  </desc>
</path>

<path fill="#CEE3F5" stroke="#6E6E6E" stroke-width="0.4" id="DE.NI.04011000" d="M271.0,80.4 L265.5,70.5 L267.5,69.1 L268.9,72.3 L273.1,73.6 Z M278.0,163.3 L277.9,163.5 L277.4,163.2 L277.6,162.9 Z M283.4,184.0 L283.8,181.8 L279.6,176.0 L277.7,169.7 L272.7,168.6 L262.3,162.3 L259.6,156.1 L264.6,156.3 L269.2,160.7 L272.7,158.5 L275.6,159.6 L273.2,162.5 L274.6,166.2 L279.7,163.0 L284.0,167.9 L290.7,168.4 L293.9,167.3 L295.5,170.8 L299.8,172.1 L306.1,171.2 L309.6,172.8 L312.8,178.7 L319.8,178.6 L324.4,174.0 L329.9,180.1 L324.7,182.4 L329.6,187.9 L327.3,188.6 L326.7,194.2 L329.4,198.7 L320.2,207.1 L317.7,206.6 L312.6,201.2 L313.3,204.5 L306.4,204.3 L300.8,200.4 L299.7,197.1 L294.6,201.5 L291.3,199.2 L291.0,191.7 L286.0,189.2 Z">
  <desc xmlns="http://www.highcharts.com/svg/namespace">
    <name>Bremen</name>
    <bundesland>DE.NI</bundesland>
    <hc-middle-x>0.62</hc-middle-x>
    <hc-middle-y>0.86</hc-middle-y>
    <hc-key>de-ni-04011000</hc-key>
    <hc-a2>BR</hc-a2>
  </desc>
</path>

<path fill="#CEE3F5" stroke="#6E6E6E" stroke-width="0.4" id="DE.NI.03459000" d="M159.9,281.0 L159.5,280.6 L159.7,280.0 L160.1,280.7 Z M233.0,327.0 L232.3,333.1 L231.3,337.0 L234.8,344.1 L233.5,348.9 L244.9,354.0 L252.1,359.2 L254.7,369.9 L254.1,383.8 L255.5,386.4 L251.7,394.1 L253.7,397.9 L262.5,401.0 L258.9,405.3 L253.2,407.9 L246.2,413.6 L246.9,417.3 L241.5,418.5 L234.4,414.7 L232.5,416.5 L226.1,413.1 L217.7,421.4 L215.6,426.7 L210.2,426.1 L201.4,430.4 L197.0,427.9 L191.8,427.8 L184.3,435.2 L175.3,431.4 L170.8,423.5 L181.4,418.9 L183.4,416.4 L188.6,416.7 L188.1,406.1 L191.3,405.4 L188.8,402.4 L184.0,403.5 L178.2,402.0 L174.5,398.9 L174.3,394.7 L177.3,390.3 L177.3,381.8 L181.7,379.6 L183.4,382.1 L181.8,384.6 L193.0,391.3 L193.7,389.1 L199.7,387.5 L203.5,392.1 L204.4,388.9 L207.0,389.5 L205.5,382.8 L209.1,382.4 L213.8,378.0 L209.8,373.5 L205.3,375.7 L202.2,371.7 L202.3,368.6 L198.8,369.7 L192.2,369.2 L189.7,364.2 L183.1,367.3 L180.8,364.9 L179.2,357.8 L172.8,354.1 L165.8,356.7 L160.6,356.0 L147.3,348.9 L145.8,341.0 L143.9,336.4 L132.4,331.4 L134.3,316.6 L133.6,296.5 L145.7,287.2 L145.0,283.5 L155.7,284.0 L160.2,281.7 L161.6,278.7 L168.8,276.7 L177.6,283.8 L186.1,280.1 L192.0,283.1 L196.1,289.9 L199.6,292.3 L200.7,298.9 L199.4,303.5 L195.0,305.3 L195.4,311.0 L194.2,318.7 L190.9,318.6 L192.1,321.1 L197.9,325.7 L197.3,339.6 L207.5,339.5 L211.4,342.3 L217.9,331.0 L223.4,331.3 Z">
  <desc xmlns="http://www.highcharts.com/svg/namespace">
    <name>Osnabrück</name>
    <bundesland>DE.NI</bundesland>
    <hc-middle-x>0.30</hc-middle-x>
    <hc-middle-y>0.25</hc-middle-y>
    <hc-key>de-ni-03459000</hc-key>
    <hc-a2>OS</hc-a2>
  </desc>
</path>

<path fill="#CEE3F5" stroke="#6E6E6E" stroke-width="0.4" id="DE.NI.03455000" d="M200.7,89.9 L200.7,96.2 L202.2,100.3 L206.9,104.2 L211.1,102.6 L213.2,103.7 L219.2,112.9 L220.8,116.0 L220.0,123.0 L216.0,125.8 L209.2,131.4 L204.2,130.9 L200.5,128.5 L196.0,133.3 L195.7,135.9 L187.2,137.1 L185.8,131.1 L183.2,130.9 L175.5,125.8 L174.8,123.8 L173.6,120.1 L171.8,114.7 L187.3,104.4 L187.6,100.3 L184.4,95.1 L182.2,95.8 L183.5,88.8 L176.3,87.1 L167.0,90.7 L166.3,86.3 L168.6,81.9 L169.4,74.5 L172.3,72.0 L170.6,69.2 L172.7,63.4 L167.4,59.9 L170.4,57.2 L169.5,51.1 L166.2,42.0 L180.7,39.9 L194.4,41.5 L197.2,43.0 L195.7,48.3 L198.4,58.1 L202.7,57.0 L205.2,58.9 L199.5,61.9 L198.4,60.9 L192.8,65.2 L193.9,70.6 L198.3,74.4 L195.4,78.0 L198.0,78.9 L196.5,82.3 Z M171.8,23.3 L177.1,21.8 L186.9,23.8 L180.3,25.0 L175.9,23.2 L174.4,26.6 Z">
  <desc xmlns="http://www.highcharts.com/svg/namespace">
    <name>Friesland</name>
    <bundesland>DE.NI</bundesland>
    <hc-middle-x>0.55</hc-middle-x>
    <hc-middle-y>0.83</hc-middle-y>
    <hc-key>de-ni-03455000</hc-key>
    <hc-a2>FR</hc-a2>
  </desc>
</path>

<path fill="#CEE3F5" stroke="#6E6E6E" stroke-width="0.4" id="DE.NI.03352000" d="M261.9,123.3 L260.9,110.6 L261.0,98.4 L262.9,98.7 L272.4,94.7 L276.9,95.8 L280.5,93.6 L283.2,89.6 L281.6,83.9 L282.7,79.0 L280.5,79.0 L278.6,74.6 L283.3,68.0 L279.8,67.2 L275.2,70.2 L267.0,66.7 L265.1,67.0 L260.1,55.1 L260.1,46.2 L268.0,24.1 L268.5,19.8 L271.9,10.7 L273.1,11.1 L278.7,2.3 L288.7,0.0 L297.9,10.9 L302.6,13.5 L318.7,15.0 L329.1,12.3 L335.4,13.9 L336.3,15.7 L337.8,18.7 L344.0,19.2 L351.9,21.5 L352.6,25.0 L356.5,24.8 L358.4,28.4 L363.1,32.2 L368.6,29.1 L370.6,35.1 L373.8,38.2 L363.0,46.8 L361.2,49.4 L366.6,52.8 L368.3,50.6 L371.2,52.5 L371.0,58.4 L367.5,59.3 L361.5,64.5 L358.4,63.6 L353.0,70.5 L347.2,79.4 L341.9,75.3 L339.5,75.5 L336.1,79.3 L329.3,78.8 L330.2,83.0 L327.1,85.2 L322.7,83.7 L317.7,88.2 L326.8,90.5 L326.1,98.7 L328.4,99.4 L319.2,106.6 L322.0,107.5 L325.7,113.0 L319.6,120.4 L313.6,116.7 L305.5,118.6 L303.3,118.1 L301.2,121.9 L295.1,124.7 L299.1,129.9 L297.3,134.9 L293.0,135.7 L293.9,138.9 L286.4,140.0 L284.5,143.1 L275.3,142.3 L270.8,139.5 L268.6,142.4 L262.2,140.5 L264.3,134.3 L263.6,126.5 Z">
  <desc xmlns="http://www.highcharts.com/svg/namespace">
    <name>Cuxhaven</name>
    <bundesland>DE.NI</bundesland>
    <hc-middle-x>0.50</hc-middle-x>
    <hc-middle-y>0.41</hc-middle-y>
    <hc-key>de-ni-03352000</hc-key>
    <hc-a2>CU</hc-a2>
  </desc>
</path>

<path fill="#CEE3F5" stroke="#6E6E6E" stroke-width="0.4" id="DE.NI.03356000" d="M342.3,174.2 L340.4,178.3 L337.4,180.3 L329.9,180.1 L324.4,174.0 L319.8,178.6 L312.8,178.7 L309.6,172.8 L306.1,171.2 L299.8,172.1 L295.5,170.8 L293.9,167.3 L290.7,168.4 L284.0,167.9 L279.7,163.0 L274.6,166.2 L273.2,162.5 L275.6,159.6 L272.7,158.5 L269.2,160.7 L264.6,156.3 L259.6,156.1 L259.3,148.4 L260.7,139.7 L260.6,132.1 L261.9,123.3 L263.6,126.5 L264.3,134.3 L262.2,140.5 L268.6,142.4 L270.8,139.5 L275.3,142.3 L284.5,143.1 L286.4,140.0 L293.9,138.9 L293.0,135.7 L297.3,134.9 L299.1,129.9 L295.1,124.7 L301.2,121.9 L303.3,118.1 L305.5,118.6 L313.6,116.7 L319.6,120.4 L324.0,123.8 L323.8,129.3 L328.8,130.6 L332.2,134.8 L330.6,137.4 L333.9,139.1 L331.0,146.3 L335.8,151.6 L336.3,163.6 L340.8,169.4 Z M278.0,163.3 L277.6,162.9 L277.4,163.2 L277.9,163.5 Z">
  <desc xmlns="http://www.highcharts.com/svg/namespace">
    <name>Osterholz</name>
    <bundesland>DE.NI</bundesland>
    <hc-middle-x>0.64</hc-middle-x>
    <hc-middle-y>0.58</hc-middle-y>
    <hc-key>de-ni-03356000</hc-key>
    <hc-a2>OS</hc-a2>
  </desc>
</path>

<path fill="#CEE3F5" stroke="#6E6E6E" stroke-width="0.4" id="DE.NI.03361000" d="M329.9,180.1 L337.4,180.3 L340.4,178.3 L342.3,174.2 L347.6,175.8 L350.9,170.3 L356.9,168.9 L359.8,169.8 L359.5,175.0 L356.6,179.9 L357.9,182.4 L356.3,186.2 L353.8,185.5 L354.3,189.3 L358.5,194.7 L361.1,201.2 L363.6,199.7 L373.6,203.3 L376.5,206.7 L380.7,206.4 L381.7,208.8 L379.9,212.6 L385.1,213.7 L387.9,211.0 L394.2,208.9 L397.1,212.1 L397.9,219.0 L395.3,222.2 L396.8,228.9 L390.9,233.5 L391.4,236.8 L385.6,244.9 L388.2,248.0 L384.3,251.8 L382.2,250.2 L379.2,252.7 L383.5,255.6 L381.9,261.8 L378.6,264.2 L375.6,262.6 L375.9,253.9 L370.6,253.2 L367.9,255.9 L363.6,253.1 L359.6,252.9 L361.2,246.9 L363.3,245.1 L358.3,242.0 L362.2,239.9 L357.8,236.7 L356.0,233.3 L353.9,234.8 L348.7,233.9 L343.5,232.7 L341.3,228.1 L332.4,227.5 L329.6,235.9 L327.3,233.7 L325.4,235.8 L318.6,217.3 L319.5,213.6 L322.7,212.0 L320.2,207.1 L329.4,198.7 L326.7,194.2 L327.3,188.6 L329.6,187.9 L324.7,182.4 Z">
  <desc xmlns="http://www.highcharts.com/svg/namespace">
    <name>Verden</name>
    <bundesland>DE.NI</bundesland>
    <hc-middle-x>0.47</hc-middle-x>
    <hc-middle-y>0.49</hc-middle-y>
    <hc-key>de-ni-03361000</hc-key>
    <hc-a2>VE</hc-a2>
  </desc>
</path>

<path fill="#CEE3F5" stroke="#6E6E6E" stroke-width="0.4" id="DE.NI.03404000" d="M181.7,379.6 L178.3,375.9 L178.0,372.6 L186.3,372.4 L183.1,367.3 L189.7,364.2 L192.2,369.2 L198.8,369.7 L202.3,368.6 L202.2,371.7 L205.3,375.7 L209.8,373.5 L213.8,378.0 L209.1,382.4 L205.5,382.8 L207.0,389.5 L204.4,388.9 L203.5,392.1 L199.7,387.5 L193.7,389.1 L193.0,391.3 L181.8,384.6 L183.4,382.1 Z">
  <desc xmlns="http://www.highcharts.com/svg/namespace">
    <name>Osnabrück</name>
    <bundesland>DE.NI</bundesland>
    <hc-middle-x>0.46</hc-middle-x>
    <hc-middle-y>0.50</hc-middle-y>
    <hc-key>de-ni-03404000</hc-key>
    <hc-a2>OS</hc-a2>
  </desc>
</path>

<path fill="#CEE3F5" stroke="#6E6E6E" stroke-width="0.4" id="DE.NI.03403000" d="M233.9,164.8 L232.3,166.9 L235.0,173.3 L231.6,178.6 L230.3,186.1 L222.2,189.8 L218.3,186.5 L219.1,182.3 L208.9,183.6 L212.6,173.7 L213.5,168.0 L218.1,164.6 L219.4,161.2 L225.2,162.0 L230.2,164.8 Z">
  <desc xmlns="http://www.highcharts.com/svg/namespace">
    <name>Oldenburg (Oldb)</name>
    <bundesland>DE.NI</bundesland>
    <hc-middle-x>0.53</hc-middle-x>
    <hc-middle-y>0.50</hc-middle-y>
    <hc-key>de-ni-03403000</hc-key>
    <hc-a2>O(</hc-a2>
  </desc>
</path>

<path fill="#CEE3F5" stroke="#6E6E6E" stroke-width="0.4" id="DE.NI.03155000" d="M427.1,549.5 L423.7,544.5 L426.6,542.5 L430.6,545.7 L429.1,548.1 Z M432.5,542.5 L425.5,536.2 L423.7,529.7 L421.3,531.4 L414.8,532.4 L411.4,529.2 L408.6,532.3 L404.8,531.2 L404.2,525.0 L398.4,527.8 L393.2,527.4 L396.1,526.0 L394.0,521.3 L396.4,520.3 L396.5,516.0 L405.6,508.5 L413.5,505.5 L414.0,500.2 L416.9,497.1 L416.6,493.8 L426.3,486.2 L425.8,484.5 L431.5,481.9 L432.1,477.1 L436.7,472.1 L443.3,475.7 L446.2,476.0 L449.0,471.1 L452.8,470.8 L462.1,466.0 L465.3,464.1 L466.7,466.6 L469.5,464.4 L473.1,468.0 L479.6,464.3 L477.4,459.6 L482.3,455.9 L487.0,460.7 L493.0,466.4 L492.0,472.0 L494.8,473.5 L493.9,482.3 L497.9,482.7 L498.0,489.1 L500.3,491.9 L498.7,500.4 L500.3,502.8 L495.1,507.6 L495.0,511.0 L498.4,512.1 L499.0,521.7 L501.8,526.5 L498.5,527.9 L496.4,533.7 L493.6,532.3 L488.8,535.4 L484.3,533.0 L478.6,534.8 L470.4,533.1 L471.4,536.5 L466.1,537.1 L459.5,534.9 L453.8,535.0 L451.8,538.2 L446.1,535.7 L438.8,535.3 L437.9,537.8 Z">
  <desc xmlns="http://www.highcharts.com/svg/namespace">
    <name>Northeim</name>
    <bundesland>DE.NI</bundesland>
    <hc-middle-x>0.59</hc-middle-x>
    <hc-middle-y>0.50</hc-middle-y>
    <hc-key>de-ni-03155000</hc-key>
    <hc-a2>NO</hc-a2>
  </desc>
</path>

<path fill="#CEE3F5" stroke="#6E6E6E" stroke-width="0.4" id="DE.NI.03457000" d="M173.6,120.1 L174.8,123.8 L175.5,125.8 L170.3,139.3 L157.5,151.5 L149.1,155.7 L148.6,159.1 L151.3,166.1 L143.1,165.8 L141.6,164.3 L139.4,181.1 L138.0,181.0 L135.6,194.3 L126.1,199.7 L117.5,187.2 L107.1,186.1 L103.8,182.3 L97.0,183.2 L95.6,180.6 L84.1,179.1 L78.0,179.9 L75.3,177.9 L74.8,173.9 L78.5,165.1 L81.9,164.3 L79.2,162.3 L80.6,159.8 L79.7,149.4 L83.7,142.0 L82.8,137.5 L85.7,131.4 L92.2,132.3 L93.3,130.8 L93.8,124.6 L94.1,124.6 L96.0,124.7 L97.4,119.8 L100.2,123.8 L103.1,123.0 L108.6,125.3 L111.7,122.1 L117.3,120.2 L120.4,120.9 L123.2,124.4 L128.1,123.9 L130.0,126.5 L134.8,126.9 L134.8,129.7 L138.9,129.3 L142.7,126.4 L144.1,128.1 L148.8,125.6 L165.7,120.1 L168.2,123.1 Z M26.2,63.0 L24.9,64.4 L18.2,64.6 L14.3,68.0 L18.6,72.5 L12.9,70.4 L12.4,73.1 L8.5,70.3 L5.6,68.6 L4.1,64.4 L7.8,62.6 L19.6,59.7 Z">
  <desc xmlns="http://www.highcharts.com/svg/namespace">
    <name>Leer</name>
    <bundesland>DE.NI</bundesland>
    <hc-middle-x>0.65</hc-middle-x>
    <hc-middle-y>0.67</hc-middle-y>
    <hc-key>de-ni-03457000</hc-key>
    <hc-a2>LE</hc-a2>
  </desc>
</path>

<path fill="#CEE3F5" stroke="#6E6E6E" stroke-width="0.4" id="DE.NI.03360000" d="M594.2,241.1 L588.3,241.7 L583.6,243.7 L582.3,249.1 L582.8,254.6 L577.7,257.6 L573.7,258.2 L570.2,262.2 L565.4,260.6 L553.7,247.1 L549.2,246.8 L540.0,252.5 L537.8,251.0 L534.0,253.4 L528.6,250.8 L526.4,245.5 L520.2,246.4 L519.7,240.5 L514.6,236.9 L512.8,230.5 L507.8,223.2 L505.8,219.0 L504.6,206.5 L503.1,204.9 L496.4,205.2 L496.1,202.0 L504.9,202.4 L503.7,192.4 L506.3,188.3 L512.7,185.6 L518.1,187.2 L520.1,181.2 L528.6,181.1 L529.6,172.5 L532.8,172.1 L542.9,163.0 L545.1,159.6 L548.8,163.0 L549.3,166.5 L555.5,167.2 L559.0,162.1 L564.5,163.2 L566.3,165.6 L562.2,166.3 L562.8,169.7 L574.4,172.7 L580.3,177.7 L580.4,180.6 L583.4,179.8 L582.3,183.8 L587.4,185.0 L591.6,188.3 L592.8,195.9 L597.2,197.7 L597.4,201.8 L600.1,202.0 L600.5,206.6 L596.6,207.9 L593.3,211.2 L596.2,216.7 L595.1,220.4 L588.6,230.6 L591.7,235.5 L588.7,237.8 Z M495.5,195.1 L497.1,198.6 L494.5,197.4 L495.0,196.2 Z M502.3,192.3 L502.4,193.1 L501.9,192.0 L502.3,192.0 Z">
  <desc xmlns="http://www.highcharts.com/svg/namespace">
    <name>Uelzen</name>
    <bundesland>DE.NI</bundesland>
    <hc-middle-x>0.53</hc-middle-x>
    <hc-middle-y>0.49</hc-middle-y>
    <hc-key>de-ni-03360000</hc-key>
    <hc-a2>UE</hc-a2>
  </desc>
</path>

<path fill="#CEE3F5" stroke="#6E6E6E" stroke-width="0.4" id="DE.NI.03152000" d="M427.1,549.5 L429.1,548.1 L430.6,545.7 L432.3,546.1 L432.5,542.5 L437.9,537.8 L438.8,535.3 L446.1,535.7 L451.8,538.2 L453.8,535.0 L459.5,534.9 L466.1,537.1 L471.4,536.5 L470.4,533.1 L478.6,534.8 L484.3,533.0 L488.8,535.4 L493.6,532.3 L496.4,533.7 L498.5,527.9 L501.8,526.5 L507.5,531.5 L510.1,529.6 L518.7,534.4 L524.4,535.0 L523.7,536.8 L523.1,536.7 L523.4,537.3 L523.5,537.3 L523.0,538.6 L525.3,540.0 L522.9,544.7 L532.2,547.2 L532.6,550.2 L528.9,555.8 L523.0,558.7 L522.8,562.0 L514.8,564.5 L510.8,567.8 L509.0,563.8 L505.1,568.3 L504.6,573.5 L499.9,573.9 L496.2,577.4 L490.7,576.6 L488.5,579.8 L487.6,576.3 L484.6,579.9 L480.5,579.9 L479.9,582.7 L474.2,585.8 L470.7,589.9 L465.9,583.6 L465.3,579.9 L461.3,583.9 L457.2,581.6 L459.4,591.6 L455.7,588.9 L455.7,584.4 L452.9,582.7 L448.9,583.4 L450.0,588.1 L444.8,588.4 L440.8,592.4 L435.5,593.5 L441.9,604.2 L445.3,601.0 L445.3,607.0 L440.1,609.8 L431.6,605.1 L425.8,604.8 L425.4,602.7 L421.2,602.8 L417.8,599.0 L415.8,599.5 L412.9,595.1 L417.1,592.4 L414.5,589.8 L417.1,585.2 L420.1,585.6 L426.7,581.0 L424.3,574.9 L426.5,569.8 L421.7,564.1 L418.6,556.6 L422.3,555.8 L423.4,550.4 Z">
  <desc xmlns="http://www.highcharts.com/svg/namespace">
    <name>Göttingen</name>
    <bundesland>DE.NI</bundesland>
    <hc-middle-x>0.53</hc-middle-x>
    <hc-middle-y>0.35</hc-middle-y>
    <hc-key>de-ni-03152000</hc-key>
    <hc-a2>GÖ</hc-a2>
  </desc>
</path>

<path fill="#CEE3F5" stroke="#6E6E6E" stroke-width="0.4" id="DE.NI.03153000" d="M506.9,441.6 L510.6,442.3 L514.8,440.1 L518.6,435.1 L525.2,437.9 L524.5,439.9 L533.9,435.6 L535.8,435.9 L540.6,429.6 L545.1,431.8 L547.3,436.8 L549.5,437.3 L546.6,441.4 L549.9,447.4 L554.7,449.3 L555.0,446.5 L558.6,441.3 L562.4,446.3 L565.3,447.5 L567.3,452.1 L571.4,452.9 L566.5,456.4 L566.6,460.6 L571.8,463.8 L572.0,468.1 L569.3,472.3 L561.7,479.1 L563.4,480.8 L561.5,486.6 L562.7,493.9 L564.4,496.8 L569.3,498.7 L571.8,506.6 L575.6,510.0 L575.0,514.5 L576.3,520.2 L580.5,526.6 L577.4,526.9 L573.6,526.0 L569.9,519.6 L561.2,517.5 L552.0,521.6 L550.0,514.4 L546.4,514.1 L550.3,506.2 L548.6,503.2 L550.8,498.1 L539.9,496.3 L535.4,492.4 L533.1,492.5 L530.2,497.3 L522.9,498.1 L518.8,495.7 L516.6,491.2 L517.3,486.9 L512.9,482.4 L508.7,486.4 L502.5,487.4 L500.3,491.9 L498.0,489.1 L497.9,482.7 L493.9,482.3 L494.8,473.5 L492.0,472.0 L493.0,466.4 L487.0,460.7 L490.1,452.9 L505.0,453.8 L507.2,451.1 L505.5,442.8 Z">
  <desc xmlns="http://www.highcharts.com/svg/namespace">
    <name>Goslar</name>
    <bundesland>DE.NI</bundesland>
    <hc-middle-x>0.48</hc-middle-x>
    <hc-middle-y>0.39</hc-middle-y>
    <hc-key>de-ni-03153000</hc-key>
    <hc-a2>GO</hc-a2>
  </desc>
</path>

<path fill="#CEE3F5" stroke="#6E6E6E" stroke-width="0.4" id="DE.NI.03158000" d="M518.6,435.1 L514.8,440.1 L510.6,442.3 L506.9,441.6 L505.0,432.8 L506.4,429.3 L506.0,424.7 L502.9,421.9 L502.2,417.7 L505.8,415.1 L502.9,410.0 L504.3,404.1 L507.2,401.0 L510.5,403.2 L512.6,410.1 L510.6,412.6 L513.5,417.9 L520.8,417.9 L524.5,422.5 L527.1,431.4 L526.0,432.9 L518.0,432.0 Z M568.9,372.6 L579.3,370.5 L581.7,372.8 L580.9,379.8 L589.6,393.1 L594.0,393.0 L599.2,400.4 L604.5,398.9 L605.2,402.9 L602.4,411.3 L597.7,413.8 L597.5,417.0 L592.0,424.1 L593.2,430.2 L579.0,430.1 L571.0,432.2 L572.1,436.2 L569.8,438.5 L558.6,441.3 L555.0,446.5 L554.7,449.3 L549.9,447.4 L546.6,441.4 L549.5,437.3 L547.3,436.8 L545.1,431.8 L547.5,428.1 L544.6,428.7 L540.6,418.1 L538.9,416.4 L540.8,410.2 L549.8,398.6 L554.3,396.8 L555.3,394.3 L559.9,394.1 L559.4,389.9 L562.7,389.9 L561.8,383.0 L564.7,381.8 L564.8,377.1 Z">
  <desc xmlns="http://www.highcharts.com/svg/namespace">
    <name>Wolfenbüttel</name>
    <bundesland>DE.NI</bundesland>
    <hc-middle-x>0.63</hc-middle-x>
    <hc-middle-y>0.51</hc-middle-y>
    <hc-key>de-ni-03158000</hc-key>
    <hc-a2>WO</hc-a2>
  </desc>
</path>

<path fill="#CEE3F5" stroke="#6E6E6E" stroke-width="0.4" id="DE.NI.03401000" d="M280.6,186.3 L281.5,184.6 L283.4,184.0 L286.0,189.2 L291.0,191.7 L291.3,199.2 L287.2,201.2 L286.7,205.3 L283.6,207.5 L281.6,208.3 L279.4,205.2 L277.2,207.7 L278.6,209.6 L274.2,212.8 L272.5,208.9 L276.6,202.3 L273.0,200.8 L275.1,194.9 L280.2,191.9 L278.9,189.3 Z">
  <desc xmlns="http://www.highcharts.com/svg/namespace">
    <name>Delmenhorst</name>
    <bundesland>DE.NI</bundesland>
    <hc-middle-x>0.47</hc-middle-x>
    <hc-middle-y>0.56</hc-middle-y>
    <hc-key>de-ni-03401000</hc-key>
    <hc-a2>DE</hc-a2>
  </desc>
</path>

<path fill="#CEE3F5" stroke="#6E6E6E" stroke-width="0.4" id="DE.NI.03358000" d="M494.5,197.4 L497.1,198.6 L495.5,195.1 L498.7,190.7 L501.9,192.0 L502.4,193.1 L502.3,192.3 L503.7,192.4 L504.9,202.4 L496.1,202.0 L496.4,205.2 L503.1,204.9 L504.6,206.5 L505.8,219.0 L507.8,223.2 L501.3,226.5 L497.3,223.2 L496.5,228.0 L490.9,229.1 L491.3,232.0 L484.2,230.7 L482.5,232.6 L471.7,239.2 L468.3,238.3 L466.5,234.3 L458.8,234.5 L455.5,232.0 L455.2,235.6 L451.6,238.8 L454.3,246.4 L449.8,251.5 L450.0,265.0 L450.8,268.7 L446.4,268.8 L439.4,272.1 L440.8,276.1 L435.8,278.2 L437.5,280.4 L436.3,285.3 L438.8,291.1 L437.2,294.2 L434.5,295.1 L433.0,302.6 L429.0,303.4 L424.6,301.3 L423.9,295.4 L417.9,292.2 L415.7,285.3 L409.3,286.7 L408.6,289.3 L404.2,284.9 L405.1,279.8 L400.9,278.8 L400.8,273.6 L392.6,274.3 L389.5,272.2 L384.7,272.9 L381.9,276.6 L378.1,275.2 L382.2,274.0 L379.4,270.5 L380.9,268.2 L377.4,266.2 L378.6,264.2 L381.9,261.8 L383.5,255.6 L379.2,252.7 L382.2,250.2 L384.3,251.8 L388.2,248.0 L385.6,244.9 L391.4,236.8 L390.9,233.5 L396.8,228.9 L398.7,225.9 L404.2,224.3 L404.4,222.0 L410.5,221.8 L411.9,227.1 L415.8,226.6 L417.9,219.9 L421.4,220.0 L427.2,215.4 L425.5,208.1 L427.8,204.3 L419.2,200.0 L418.3,196.6 L421.0,195.1 L423.0,190.8 L423.2,186.3 L420.6,182.3 L423.0,179.6 L423.4,175.4 L427.4,177.2 L427.1,171.4 L430.0,172.5 L439.3,170.2 L433.5,167.2 L432.7,163.0 L430.2,162.4 L428.5,157.7 L434.6,158.9 L437.4,161.8 L445.0,165.2 L452.3,159.6 L457.5,163.1 L461.1,168.0 L467.2,166.3 L473.6,167.9 L472.9,171.3 L480.3,173.2 L484.2,178.3 L490.2,183.7 L488.0,187.5 L480.2,192.3 L479.8,196.4 L483.6,198.5 Z">
  <desc xmlns="http://www.highcharts.com/svg/namespace">
    <name>Heidekreis</name>
    <bundesland>DE.NI</bundesland>
    <hc-middle-x>0.44</hc-middle-x>
    <hc-middle-y>0.50</hc-middle-y>
    <hc-key>de-ni-03358000</hc-key>
    <hc-a2>HE</hc-a2>
  </desc>
</path>

<path fill="#CEE3F5" stroke="#6E6E6E" stroke-width="0.4" id="DE.NI.03355000" d="M503.7,192.4 L502.3,192.3 L502.3,192.0 L501.9,192.0 L498.7,190.7 L495.5,195.1 L495.0,196.2 L494.5,197.4 L483.6,198.5 L479.8,196.4 L480.2,192.3 L488.0,187.5 L490.2,183.7 L484.2,178.3 L488.9,171.6 L489.2,168.5 L496.5,164.9 L502.4,165.7 L506.1,162.8 L506.3,158.9 L502.7,154.9 L500.9,155.7 L503.0,149.1 L505.3,150.0 L509.4,147.1 L506.9,144.4 L507.2,141.3 L502.8,139.3 L505.9,133.6 L509.0,134.2 L509.6,130.4 L514.3,131.0 L515.5,130.6 L515.2,130.5 L515.4,130.2 L516.0,130.4 L518.3,129.6 L518.2,123.5 L525.1,122.8 L524.8,120.8 L534.7,124.2 L538.6,116.9 L543.7,119.9 L550.8,120.6 L554.3,122.7 L559.2,120.3 L571.9,120.2 L576.6,126.3 L585.2,132.6 L590.6,134.7 L598.0,129.4 L596.9,127.5 L600.8,126.8 L602.1,124.2 L607.3,127.6 L611.9,127.5 L613.5,130.3 L615.2,139.7 L617.7,140.0 L623.0,150.2 L627.2,155.2 L633.9,157.6 L633.8,160.0 L639.9,161.2 L642.2,163.4 L639.0,168.3 L634.3,165.6 L629.9,171.7 L626.7,172.8 L618.7,166.4 L616.3,163.1 L606.2,156.3 L603.0,153.0 L594.7,147.5 L595.0,153.3 L597.1,157.6 L595.8,160.6 L599.5,160.0 L598.4,162.8 L600.9,163.9 L601.7,171.1 L598.4,170.5 L593.0,172.9 L586.5,172.1 L582.6,177.9 L580.3,177.7 L574.4,172.7 L562.8,169.7 L562.2,166.3 L566.3,165.6 L564.5,163.2 L559.0,162.1 L555.5,167.2 L549.3,166.5 L548.8,163.0 L545.1,159.6 L542.9,163.0 L532.8,172.1 L529.6,172.5 L528.6,181.1 L520.1,181.2 L518.1,187.2 L512.7,185.6 L506.3,188.3 Z M508.0,138.4 L508.3,138.6 L508.9,137.7 L508.6,137.5 Z">
  <desc xmlns="http://www.highcharts.com/svg/namespace">
    <name>Lüneburg</name>
    <bundesland>DE.NI</bundesland>
    <hc-middle-x>0.54</hc-middle-x>
    <hc-middle-y>0.35</hc-middle-y>
    <hc-key>de-ni-03355000</hc-key>
    <hc-a2>LÜ</hc-a2>
  </desc>
</path>

<path fill="#CEE3F5" stroke="#6E6E6E" stroke-width="0.4" id="DE.NI.03402000" d="M94.1,124.6 L93.8,124.6 L93.3,130.8 L84.3,128.7 L74.6,127.5 L59.2,127.4 L53.3,125.8 L50.9,121.2 L52.9,116.9 L56.3,123.1 L59.1,123.0 L63.6,119.2 L64.8,115.8 L71.0,112.9 L74.1,115.5 L77.2,115.3 L80.7,112.1 L83.1,114.5 L90.0,111.3 L90.6,118.0 L94.9,120.7 Z">
  <desc xmlns="http://www.highcharts.com/svg/namespace">
    <name>Emden</name>
    <bundesland>DE.NI</bundesland>
    <hc-middle-x>0.64</hc-middle-x>
    <hc-middle-y>0.43</hc-middle-y>
    <hc-key>de-ni-03402000</hc-key>
    <hc-a2>EM</hc-a2>
  </desc>
</path>

<path fill="#CEE3F5" stroke="#6E6E6E" stroke-width="0.4" id="DE.NI.03254000" d="M513.8,400.1 L513.8,402.1 L510.5,403.2 L507.2,401.0 L504.3,404.1 L502.9,410.0 L505.8,415.1 L502.2,417.7 L502.9,421.9 L506.0,424.7 L506.4,429.3 L505.0,432.8 L506.9,441.6 L505.5,442.8 L507.2,451.1 L505.0,453.8 L490.1,452.9 L487.0,460.7 L482.3,455.9 L477.4,459.6 L479.6,464.3 L473.1,468.0 L469.5,464.4 L466.7,466.6 L465.3,464.1 L462.1,466.0 L451.9,459.2 L451.9,457.4 L445.3,452.0 L443.2,448.5 L435.9,448.3 L435.2,452.0 L431.9,454.8 L428.3,451.7 L426.2,452.6 L424.2,448.3 L425.9,444.6 L426.6,426.8 L431.1,419.4 L425.5,417.1 L423.2,413.5 L432.5,412.3 L432.2,410.2 L436.2,407.2 L437.2,404.1 L431.2,399.7 L432.6,397.7 L438.8,397.6 L438.6,399.6 L442.5,404.3 L445.4,402.9 L445.1,399.3 L448.1,400.0 L448.2,395.5 L450.2,390.4 L447.6,388.9 L443.1,389.8 L446.3,385.0 L457.9,380.4 L461.9,382.5 L463.9,378.0 L472.2,376.7 L481.3,377.0 L480.5,381.7 L476.3,383.2 L476.3,389.6 L487.1,389.9 L497.1,388.1 L499.5,390.4 L502.9,388.2 L509.9,392.7 L512.4,393.0 L514.7,398.9 Z">
  <desc xmlns="http://www.highcharts.com/svg/namespace">
    <name>Hildesheim</name>
    <bundesland>DE.NI</bundesland>
    <hc-middle-x>0.39</hc-middle-x>
    <hc-middle-y>0.51</hc-middle-y>
    <hc-key>de-ni-03254000</hc-key>
    <hc-a2>HI</hc-a2>
  </desc>
</path>

<path fill="#CEE3F5" stroke="#6E6E6E" stroke-width="0.4" id="DE.NI.03102000" d="M510.5,403.2 L513.8,402.1 L513.8,400.1 L517.7,402.0 L522.5,398.5 L522.8,401.5 L526.7,401.6 L529.7,399.0 L530.6,395.2 L533.1,395.0 L535.2,390.4 L538.5,390.7 L540.0,394.9 L546.5,393.6 L549.8,398.6 L540.8,410.2 L538.9,416.4 L540.6,418.1 L544.6,428.7 L547.5,428.1 L545.1,431.8 L540.6,429.6 L535.8,435.9 L533.9,435.6 L524.5,439.9 L525.2,437.9 L518.6,435.1 L518.0,432.0 L526.0,432.9 L527.1,431.4 L524.5,422.5 L520.8,417.9 L513.5,417.9 L510.6,412.6 L512.6,410.1 Z">
  <desc xmlns="http://www.highcharts.com/svg/namespace">
    <name>Salzgitter</name>
    <bundesland>DE.NI</bundesland>
    <hc-middle-x>0.44</hc-middle-x>
    <hc-middle-y>0.52</hc-middle-y>
    <hc-key>de-ni-03102000</hc-key>
    <hc-a2>SA</hc-a2>
  </desc>
</path>

<path fill="#CEE3F5" stroke="#6E6E6E" stroke-width="0.4" id="DE.NI.03154000" d="M563.8,361.3 L565.1,358.2 L563.0,353.8 L564.4,351.8 L572.4,352.8 L575.0,352.6 L579.7,355.3 L580.2,358.5 L582.8,358.0 L587.6,361.9 L593.2,361.0 L593.4,364.6 L599.8,365.1 L603.8,360.0 L598.8,356.0 L602.8,352.9 L601.8,348.4 L604.8,347.8 L606.2,343.9 L601.9,343.7 L603.6,333.1 L606.4,331.4 L609.8,330.1 L614.0,338.7 L618.0,342.0 L623.0,348.4 L626.7,349.6 L629.9,356.4 L625.4,359.6 L617.7,360.5 L625.4,367.7 L625.9,369.7 L622.2,372.2 L624.7,377.2 L628.0,377.7 L629.2,384.0 L631.2,383.3 L633.2,386.7 L632.0,389.1 L625.1,390.9 L622.9,393.8 L623.1,397.9 L626.2,400.2 L629.8,400.0 L630.0,404.4 L628.1,408.4 L618.2,416.0 L613.2,416.7 L617.4,420.5 L616.7,427.6 L604.0,427.4 L601.5,429.0 L593.2,430.2 L592.0,424.1 L597.5,417.0 L597.7,413.8 L602.4,411.3 L605.2,402.9 L604.5,398.9 L599.2,400.4 L594.0,393.0 L589.6,393.1 L580.9,379.8 L581.7,372.8 L579.3,370.5 L568.9,372.6 L564.6,368.9 L566.8,366.0 Z">
  <desc xmlns="http://www.highcharts.com/svg/namespace">
    <name>Helmstedt</name>
    <bundesland>DE.NI</bundesland>
    <hc-middle-x>0.63</hc-middle-x>
    <hc-middle-y>0.56</hc-middle-y>
    <hc-key>de-ni-03154000</hc-key>
    <hc-a2>HE</hc-a2>
  </desc>
</path>

<path fill="#CEE3F5" stroke="#6E6E6E" stroke-width="0.4" id="DE.NI.03151000" d="M572.4,352.8 L564.4,351.8 L563.0,353.8 L565.1,358.2 L563.8,361.3 L557.9,359.6 L555.0,364.4 L552.2,365.3 L554.4,360.3 L551.0,358.4 L547.4,360.7 L544.5,360.1 L546.0,367.3 L537.2,365.1 L533.9,360.1 L537.2,359.2 L535.7,356.9 L537.1,353.7 L531.3,355.7 L528.9,346.2 L525.7,341.5 L523.7,342.1 L521.1,338.6 L517.7,337.8 L519.2,335.3 L514.8,329.6 L517.0,324.1 L514.8,323.1 L516.1,319.0 L519.4,320.2 L521.9,315.7 L525.0,314.7 L526.3,310.9 L529.7,313.3 L534.2,308.1 L530.5,309.2 L534.9,300.3 L529.5,294.2 L533.1,288.3 L527.8,277.8 L527.1,271.4 L532.3,264.4 L531.7,260.5 L537.8,251.0 L540.0,252.5 L549.2,246.8 L553.7,247.1 L565.4,260.6 L570.2,262.2 L573.7,258.2 L577.7,257.6 L582.8,254.6 L582.4,257.7 L587.7,265.9 L588.6,273.7 L592.5,272.7 L593.9,276.7 L600.5,285.2 L607.0,297.6 L613.1,293.8 L614.8,298.3 L609.8,302.6 L609.6,307.6 L611.3,312.3 L620.3,324.0 L615.5,323.0 L611.0,325.3 L609.8,330.1 L606.4,331.4 L603.6,333.1 L601.3,329.8 L592.8,326.8 L589.8,328.0 L587.7,325.2 L582.4,332.0 L581.6,335.9 L572.4,333.3 L568.6,337.8 Z">
  <desc xmlns="http://www.highcharts.com/svg/namespace">
    <name>Gifhorn</name>
    <bundesland>DE.NI</bundesland>
    <hc-middle-x>0.42</hc-middle-x>
    <hc-middle-y>0.50</hc-middle-y>
    <hc-key>de-ni-03151000</hc-key>
    <hc-a2>GI</hc-a2>
  </desc>
</path>

<path fill="#CEE3F5" stroke="#6E6E6E" stroke-width="0.4" id="DE.NI.03241000" d="M514.8,323.1 L517.0,324.1 L514.8,329.6 L519.2,335.3 L517.7,337.8 L512.0,340.6 L512.4,344.1 L507.2,342.3 L504.9,343.2 L504.3,347.8 L501.8,350.3 L494.7,350.9 L498.3,357.9 L494.1,360.2 L496.4,363.7 L492.7,365.6 L488.1,363.8 L487.6,371.5 L481.3,377.0 L472.2,376.7 L463.9,378.0 L461.9,382.5 L457.9,380.4 L446.3,385.0 L443.1,389.8 L447.6,388.9 L450.2,390.4 L448.2,395.5 L448.1,400.0 L445.1,399.3 L445.4,402.9 L442.5,404.3 L438.6,399.6 L438.8,397.6 L432.6,397.7 L431.2,399.7 L437.2,404.1 L436.2,407.2 L432.2,410.2 L432.5,412.3 L423.2,413.5 L421.0,412.6 L413.7,405.7 L405.1,406.6 L403.5,402.6 L404.2,397.4 L406.7,394.6 L402.5,386.8 L399.1,384.5 L400.1,382.2 L396.8,380.1 L393.7,378.9 L391.1,374.8 L389.5,366.2 L391.8,365.8 L394.2,361.4 L391.3,349.4 L389.7,349.0 L381.8,354.6 L377.9,352.6 L378.1,349.8 L385.1,342.2 L381.9,340.2 L373.1,341.6 L371.4,337.8 L372.0,336.1 L366.5,334.3 L370.5,332.7 L369.8,325.8 L366.3,320.2 L372.0,315.9 L385.0,312.8 L385.7,310.8 L381.2,307.9 L381.3,303.0 L394.5,298.4 L399.0,293.8 L405.2,297.7 L408.6,295.6 L408.6,289.3 L409.3,286.7 L415.7,285.3 L417.9,292.2 L423.9,295.4 L424.6,301.3 L429.0,303.4 L433.0,302.6 L434.5,295.1 L437.2,294.2 L446.9,299.7 L447.2,301.5 L459.2,302.2 L457.7,305.0 L462.0,303.6 L473.0,308.5 L473.2,311.6 L470.7,314.5 L474.6,315.8 L473.7,317.7 L480.3,316.6 L486.5,317.3 L489.0,322.1 L495.9,326.4 L501.1,322.8 L514.0,328.4 Z">
  <desc xmlns="http://www.highcharts.com/svg/namespace">
    <name>Region Hannover</name>
    <bundesland>DE.NI</bundesland>
    <hc-middle-x>0.46</hc-middle-x>
    <hc-middle-y>0.40</hc-middle-y>
    <hc-key>de-ni-03241000</hc-key>
    <hc-a2>RH</hc-a2>
  </desc>
</path>

<path fill="#CEE3F5" stroke="#6E6E6E" stroke-width="0.4" id="DE.NI.03101000" d="M563.8,361.3 L566.8,366.0 L564.6,368.9 L568.9,372.6 L564.8,377.1 L564.7,381.8 L561.8,383.0 L562.7,389.9 L559.4,389.9 L559.9,394.1 L555.3,394.3 L554.3,396.8 L549.8,398.6 L546.5,393.6 L540.0,394.9 L538.5,390.7 L538.9,385.6 L541.8,382.2 L537.9,379.5 L539.8,375.6 L537.8,375.2 L535.6,368.0 L537.2,365.1 L546.0,367.3 L544.5,360.1 L547.4,360.7 L551.0,358.4 L554.4,360.3 L552.2,365.3 L555.0,364.4 L557.9,359.6 Z">
  <desc xmlns="http://www.highcharts.com/svg/namespace">
    <name>Braunschweig</name>
    <bundesland>DE.NI</bundesland>
    <hc-middle-x>0.53</hc-middle-x>
    <hc-middle-y>0.49</hc-middle-y>
    <hc-key>de-ni-03101000</hc-key>
    <hc-a2>BR</hc-a2>
  </desc>
</path>

<path fill="#CEE3F5" stroke="#6E6E6E" stroke-width="0.4" id="DE.NI.03251000" d="M283.6,207.5 L286.7,205.3 L287.2,201.2 L291.3,199.2 L294.6,201.5 L299.7,197.1 L300.8,200.4 L306.4,204.3 L313.3,204.5 L312.6,201.2 L317.7,206.6 L320.2,207.1 L322.7,212.0 L319.5,213.6 L318.6,217.3 L325.4,235.8 L327.3,233.7 L329.6,235.9 L332.4,227.5 L341.3,228.1 L343.5,232.7 L348.7,233.9 L346.8,237.8 L347.8,241.9 L343.4,245.1 L340.3,244.3 L337.1,247.6 L340.7,250.4 L341.6,255.0 L338.8,259.4 L341.2,262.9 L340.5,270.9 L338.4,275.2 L333.2,277.9 L336.4,282.2 L332.8,291.5 L330.1,290.0 L328.1,293.4 L321.5,296.0 L315.3,296.5 L313.6,301.1 L318.0,304.3 L316.8,314.8 L311.5,315.8 L311.0,319.6 L309.2,316.4 L305.4,320.0 L300.0,319.4 L298.9,322.3 L295.3,322.9 L289.6,327.0 L282.4,319.7 L268.6,327.3 L261.8,323.5 L257.8,327.7 L254.6,328.9 L253.8,336.1 L248.6,340.0 L246.2,338.4 L240.2,340.0 L239.2,338.5 L231.3,337.0 L232.3,333.1 L233.0,327.0 L233.8,318.6 L238.1,317.1 L238.3,309.2 L233.7,307.1 L231.2,291.4 L233.5,287.3 L233.7,282.8 L237.7,281.6 L248.0,274.4 L253.1,274.5 L256.9,271.6 L255.7,263.1 L253.9,259.4 L255.2,256.2 L258.7,256.9 L267.7,252.0 L267.1,249.3 L279.2,244.7 L281.5,242.1 L281.3,233.6 L282.9,229.0 L285.7,230.1 L288.7,228.4 L287.6,223.5 L288.0,217.4 L282.9,217.9 L281.4,212.4 Z">
  <desc xmlns="http://www.highcharts.com/svg/namespace">
    <name>Diepholz</name>
    <bundesland>DE.NI</bundesland>
    <hc-middle-x>0.50</hc-middle-x>
    <hc-middle-y>0.60</hc-middle-y>
    <hc-key>de-ni-03251000</hc-key>
    <hc-a2>DI</hc-a2>
  </desc>
</path>

<path fill="#CEE3F5" stroke="#6E6E6E" stroke-width="0.4" id="DE.NI.03156000" d="M523.7,536.8 L524.4,535.0 L518.7,534.4 L510.1,529.6 L507.5,531.5 L501.8,526.5 L499.0,521.7 L498.4,512.1 L495.0,511.0 L495.1,507.6 L500.3,502.8 L498.7,500.4 L500.3,491.9 L502.5,487.4 L508.7,486.4 L512.9,482.4 L517.3,486.9 L516.6,491.2 L518.8,495.7 L522.9,498.1 L530.2,497.3 L533.1,492.5 L535.4,492.4 L539.9,496.3 L550.8,498.1 L548.6,503.2 L550.3,506.2 L546.4,514.1 L550.0,514.4 L552.0,521.6 L561.2,517.5 L569.9,519.6 L573.6,526.0 L577.4,526.9 L577.4,528.6 L572.3,530.7 L571.2,534.2 L572.0,539.8 L576.1,541.1 L574.8,545.8 L571.8,544.9 L568.2,541.0 L560.7,546.4 L553.4,546.7 L551.2,542.9 L543.6,539.1 L532.7,539.8 L534.1,545.6 L532.2,547.2 L522.9,544.7 L525.3,540.0 L523.0,538.6 L523.5,537.3 L523.4,537.3 L523.1,536.7 Z">
  <desc xmlns="http://www.highcharts.com/svg/namespace">
    <name>Osterode am Harz</name>
    <bundesland>DE.NI</bundesland>
    <hc-middle-x>0.38</hc-middle-x>
    <hc-middle-y>0.51</hc-middle-y>
    <hc-key>de-ni-03156000</hc-key>
    <hc-a2>OA</hc-a2>
  </desc>
</path>

<path fill="#CEE3F5" stroke="#6E6E6E" stroke-width="0.4" id="DE.NI.03359000" d="M336.3,15.7 L335.0,11.8 L343.5,7.7 L349.3,6.6 L362.7,6.9 L370.3,8.1 L375.6,13.0 L382.0,25.2 L388.5,36.3 L392.2,41.1 L401.1,50.0 L404.6,59.9 L407.7,65.4 L412.3,69.8 L423.1,75.9 L428.1,80.5 L433.9,79.8 L439.4,80.7 L441.1,86.6 L439.9,90.4 L439.4,92.9 L435.6,93.8 L439.8,95.9 L440.3,101.5 L442.1,105.6 L436.1,106.3 L434.2,109.9 L427.1,113.1 L423.7,113.0 L422.4,117.0 L419.5,117.9 L419.1,123.1 L416.9,122.7 L411.3,130.1 L410.3,127.6 L412.8,122.5 L406.8,121.7 L403.3,119.7 L399.2,127.2 L394.4,128.2 L387.7,123.5 L382.3,118.0 L384.3,113.4 L380.1,113.1 L380.8,106.7 L377.8,101.2 L375.4,103.1 L372.3,98.8 L370.2,101.6 L366.2,100.7 L363.9,92.9 L371.8,86.7 L366.8,82.8 L362.0,82.5 L358.1,84.7 L354.4,79.0 L354.7,74.5 L353.0,70.5 L358.4,63.6 L361.5,64.5 L367.5,59.3 L371.0,58.4 L371.2,52.5 L368.3,50.6 L366.6,52.8 L361.2,49.4 L363.0,46.8 L373.8,38.2 L370.6,35.1 L368.6,29.1 L363.1,32.2 L358.4,28.4 L356.5,24.8 L352.6,25.0 L351.9,21.5 L344.0,19.2 L337.8,18.7 Z">
  <desc xmlns="http://www.highcharts.com/svg/namespace">
    <name>Stade</name>
    <bundesland>DE.NI</bundesland>
    <hc-middle-x>0.56</hc-middle-x>
    <hc-middle-y>0.61</hc-middle-y>
    <hc-key>de-ni-03359000</hc-key>
    <hc-a2>ST</hc-a2>
  </desc>
</path>

<path fill="#CEE3F5" stroke="#6E6E6E" stroke-width="0.4" id="DE.NI.03256000" d="M350.2,347.9 L348.1,342.4 L345.8,340.7 L347.0,337.3 L351.8,333.0 L346.4,327.8 L339.7,327.2 L334.6,336.6 L329.1,338.8 L330.3,343.1 L323.7,346.9 L323.2,350.2 L316.6,349.5 L316.2,351.7 L311.3,353.2 L301.5,351.0 L295.7,353.5 L292.6,350.4 L290.1,351.7 L289.7,346.6 L291.5,344.7 L289.9,341.4 L290.4,332.4 L289.6,327.0 L295.3,322.9 L298.9,322.3 L300.0,319.4 L305.4,320.0 L309.2,316.4 L311.0,319.6 L311.5,315.8 L316.8,314.8 L318.0,304.3 L313.6,301.1 L315.3,296.5 L321.5,296.0 L328.1,293.4 L330.1,290.0 L332.8,291.5 L336.4,282.2 L333.2,277.9 L338.4,275.2 L340.5,270.9 L341.2,262.9 L338.8,259.4 L341.6,255.0 L340.7,250.4 L337.1,247.6 L340.3,244.3 L343.4,245.1 L347.8,241.9 L346.8,237.8 L348.7,233.9 L353.9,234.8 L356.0,233.3 L357.8,236.7 L362.2,239.9 L358.3,242.0 L363.3,245.1 L361.2,246.9 L359.6,252.9 L363.6,253.1 L367.9,255.9 L370.6,253.2 L375.9,253.9 L375.6,262.6 L378.6,264.2 L377.4,266.2 L380.9,268.2 L379.4,270.5 L382.2,274.0 L378.1,275.2 L381.9,276.6 L384.7,272.9 L389.5,272.2 L392.6,274.3 L400.8,273.6 L400.9,278.8 L405.1,279.8 L404.2,284.9 L408.6,289.3 L408.6,295.6 L405.2,297.7 L399.0,293.8 L394.5,298.4 L381.3,303.0 L381.2,307.9 L385.7,310.8 L385.0,312.8 L372.0,315.9 L366.3,320.2 L369.8,325.8 L370.5,332.7 L366.5,334.3 L372.0,336.1 L371.4,337.8 L372.2,341.2 L364.2,342.7 L362.2,346.3 L354.8,348.8 Z">
  <desc xmlns="http://www.highcharts.com/svg/namespace">
    <name>Nienburg (Weser)</name>
    <bundesland>DE.NI</bundesland>
    <hc-middle-x>0.54</hc-middle-x>
    <hc-middle-y>0.51</hc-middle-y>
    <hc-key>de-ni-03256000</hc-key>
    <hc-a2>N(</hc-a2>
  </desc>
</path>

<path fill="#CEE3F5" stroke="#6E6E6E" stroke-width="0.4" id="DE.NI.03451000" d="M216.0,125.8 L214.6,129.2 L216.6,133.8 L222.0,137.9 L225.8,136.7 L229.0,142.3 L229.7,146.8 L233.0,153.0 L235.4,163.2 L233.9,164.8 L230.2,164.8 L225.2,162.0 L219.4,161.2 L218.1,164.6 L213.5,168.0 L212.6,173.7 L208.9,183.6 L200.6,187.7 L197.8,194.8 L192.8,191.4 L185.8,190.9 L182.3,188.2 L183.5,186.1 L176.3,180.5 L174.5,182.7 L168.2,175.2 L170.3,170.0 L161.3,166.3 L159.1,167.9 L151.3,166.1 L148.6,159.1 L149.1,155.7 L157.5,151.5 L170.3,139.3 L175.5,125.8 L183.2,130.9 L185.8,131.1 L187.2,137.1 L195.7,135.9 L196.0,133.3 L200.5,128.5 L204.2,130.9 L209.2,131.4 Z">
  <desc xmlns="http://www.highcharts.com/svg/namespace">
    <name>Ammerland</name>
    <bundesland>DE.NI</bundesland>
    <hc-middle-x>0.51</hc-middle-x>
    <hc-middle-y>0.43</hc-middle-y>
    <hc-key>de-ni-03451000</hc-key>
    <hc-a2>AM</hc-a2>
  </desc>
</path>

<path fill="#CEE3F5" stroke="#6E6E6E" stroke-width="0.4" id="DE.NI.03454000" d="M47.2,290.7 L52.2,292.3 L54.1,289.5 L57.6,250.5 L60.8,244.2 L60.1,241.4 L74.0,220.3 L78.9,204.0 L77.3,187.5 L78.0,179.9 L84.1,179.1 L95.6,180.6 L97.0,183.2 L103.8,182.3 L107.1,186.1 L117.5,187.2 L126.1,199.7 L135.6,194.3 L149.7,204.4 L151.0,214.7 L150.0,215.6 L153.7,220.6 L165.1,225.4 L165.3,229.6 L158.2,238.9 L149.1,243.2 L148.2,247.5 L144.4,255.7 L148.9,262.6 L144.8,266.8 L139.4,269.3 L137.5,272.3 L143.4,279.5 L145.0,283.5 L145.7,287.2 L133.6,296.5 L134.3,316.6 L132.4,331.4 L127.9,337.7 L126.9,341.1 L131.4,343.9 L128.5,347.9 L126.6,353.7 L124.2,356.0 L120.7,355.7 L107.3,364.0 L105.7,368.5 L99.8,369.5 L96.1,374.3 L89.7,376.1 L84.7,366.3 L81.2,361.7 L78.4,346.8 L75.5,336.6 L84.6,331.5 L83.1,328.5 L85.4,325.2 L82.3,322.3 L86.3,320.2 L82.6,314.3 L73.4,315.1 L73.7,312.3 L68.9,310.6 L68.7,306.6 L61.7,299.6 L61.5,302.7 L50.9,295.6 L45.4,298.3 Z">
  <desc xmlns="http://www.highcharts.com/svg/namespace">
    <name>Emsland</name>
    <bundesland>DE.NI</bundesland>
    <hc-middle-x>0.48</hc-middle-x>
    <hc-middle-y>0.42</hc-middle-y>
    <hc-key>de-ni-03454000</hc-key>
    <hc-a2>EM</hc-a2>
  </desc>
</path>

<path fill="#CEE3F5" stroke="#6E6E6E" stroke-width="0.4" id="DE.NI.03462000" d="M129.8,49.0 L135.2,47.9 L151.7,42.8 L159.7,43.3 L166.2,42.0 L169.5,51.1 L170.4,57.2 L167.4,59.9 L172.7,63.4 L170.6,69.2 L172.3,72.0 L169.4,74.5 L168.6,81.9 L166.3,86.3 L167.0,90.7 L176.3,87.1 L183.5,88.8 L182.2,95.8 L184.4,95.1 L187.6,100.3 L187.3,104.4 L171.8,114.7 L173.6,120.1 L168.2,123.1 L165.7,120.1 L164.2,114.3 L159.1,111.1 L161.3,104.1 L157.5,105.8 L154.7,104.6 L156.1,100.9 L155.0,97.1 L146.6,99.2 L146.9,89.9 L143.1,85.0 L144.9,82.0 L143.3,76.1 L139.4,75.8 L119.7,78.9 L112.2,82.1 L110.5,70.6 L111.5,62.1 L118.9,60.1 L124.5,60.0 L121.2,55.3 L124.2,51.4 Z M139.0,32.5 L133.2,31.8 L125.2,32.7 L120.3,37.8 L117.7,37.2 L118.9,32.1 L122.0,29.7 L136.2,29.4 L141.1,30.7 Z M159.1,29.5 L150.6,28.1 L148.9,31.3 L146.7,30.6 L148.9,25.5 L152.5,24.4 L167.0,24.7 L167.1,26.2 Z">
  <desc xmlns="http://www.highcharts.com/svg/namespace">
    <name>Wittmund</name>
    <bundesland>DE.NI</bundesland>
    <hc-middle-x>0.47</hc-middle-x>
    <hc-middle-y>0.38</hc-middle-y>
    <hc-key>de-ni-03462000</hc-key>
    <hc-a2>WI</hc-a2>
  </desc>
</path>

<path fill="#CEE3F5" stroke="#6E6E6E" stroke-width="0.4" id="DE.NI.03354000" d="M639.0,168.3 L641.8,173.4 L645.1,171.0 L649.6,172.7 L652.8,176.6 L652.9,180.2 L661.8,190.1 L665.4,191.4 L672.2,187.0 L680.5,185.9 L685.9,191.5 L689.2,192.5 L693.5,191.2 L700.0,195.4 L692.8,203.5 L690.4,201.5 L687.5,203.6 L685.9,213.1 L687.8,217.4 L682.9,218.1 L674.5,226.3 L658.6,233.9 L658.3,231.0 L650.6,233.1 L647.8,228.9 L638.4,227.2 L632.5,229.8 L629.6,229.0 L630.3,225.8 L624.9,226.7 L616.4,226.6 L614.4,233.6 L608.1,240.5 L601.8,239.9 L601.5,241.9 L597.6,240.2 L594.2,241.1 L588.7,237.8 L591.7,235.5 L588.6,230.6 L595.1,220.4 L596.2,216.7 L593.3,211.2 L596.6,207.9 L600.5,206.6 L600.1,202.0 L597.4,201.8 L597.2,197.7 L592.8,195.9 L591.6,188.3 L587.4,185.0 L582.3,183.8 L583.4,179.8 L580.4,180.6 L580.3,177.7 L582.6,177.9 L586.5,172.1 L593.0,172.9 L598.4,170.5 L601.7,171.1 L600.9,163.9 L598.4,162.8 L599.5,160.0 L595.8,160.6 L597.1,157.6 L595.0,153.3 L594.7,147.5 L603.0,153.0 L606.2,156.3 L616.3,163.1 L618.7,166.4 L626.7,172.8 L629.9,171.7 L634.3,165.6 Z">
  <desc xmlns="http://www.highcharts.com/svg/namespace">
    <name>Lüchow-Dannenberg</name>
    <bundesland>DE.NI</bundesland>
    <hc-middle-x>0.47</hc-middle-x>
    <hc-middle-y>0.50</hc-middle-y>
    <hc-key>de-ni-03354000</hc-key>
    <hc-a2>LD</hc-a2>
  </desc>
</path>

<path fill="#CEE3F5" stroke="#6E6E6E" stroke-width="0.4" id="DE.NI.03257000" d="M354.7,421.7 L351.7,422.6 L354.7,417.8 L353.3,413.2 L347.7,413.6 L339.9,409.9 L334.8,413.6 L334.0,406.6 L335.3,404.4 L331.0,398.6 L335.2,401.5 L338.7,401.5 L339.6,393.0 L343.3,389.9 L336.9,386.1 L328.2,382.8 L326.9,379.2 L330.5,377.2 L332.0,368.1 L334.9,367.0 L336.1,363.5 L340.5,364.9 L346.3,357.4 L345.9,353.9 L349.1,351.4 L350.2,347.9 L354.8,348.8 L362.2,346.3 L364.2,342.7 L372.2,341.2 L371.4,337.8 L373.1,341.6 L381.9,340.2 L385.1,342.2 L378.1,349.8 L377.9,352.6 L381.8,354.6 L389.7,349.0 L391.3,349.4 L394.2,361.4 L391.8,365.8 L389.5,366.2 L391.1,374.8 L393.7,378.9 L396.8,380.1 L395.7,383.5 L388.9,385.9 L385.4,392.7 L383.4,390.7 L379.0,394.7 L372.8,393.1 L364.5,397.0 L358.6,401.3 L354.6,402.0 L360.3,411.3 L358.8,416.8 Z">
  <desc xmlns="http://www.highcharts.com/svg/namespace">
    <name>Schaumburg</name>
    <bundesland>DE.NI</bundesland>
    <hc-middle-x>0.54</hc-middle-x>
    <hc-middle-y>0.41</hc-middle-y>
    <hc-key>de-ni-03257000</hc-key>
    <hc-a2>SC</hc-a2>
  </desc>
</path>

<path fill="#CEE3F5" stroke="#6E6E6E" stroke-width="0.4" id="DE.NI.03405000" d="M205.2,58.9 L209.7,68.3 L213.2,67.6 L214.1,71.4 L212.2,72.8 L215.8,81.0 L213.8,88.1 L205.4,90.9 L200.7,89.9 L196.5,82.3 L198.0,78.9 L195.4,78.0 L198.3,74.4 L193.9,70.6 L192.8,65.2 L198.4,60.9 L199.5,61.9 Z">
  <desc xmlns="http://www.highcharts.com/svg/namespace">
    <name>Wilhelmshaven</name>
    <bundesland>DE.NI</bundesland>
    <hc-middle-x>0.83</hc-middle-x>
    <hc-middle-y>0.64</hc-middle-y>
    <hc-key>de-ni-03405000</hc-key>
    <hc-a2>WI</hc-a2>
  </desc>
</path>

<path fill="#CEE3F5" stroke="#6E6E6E" stroke-width="0.4" id="DE.NI.03351000" d="M514.8,323.1 L514.0,328.4 L501.1,322.8 L495.9,326.4 L489.0,322.1 L486.5,317.3 L480.3,316.6 L473.7,317.7 L474.6,315.8 L470.7,314.5 L473.2,311.6 L473.0,308.5 L462.0,303.6 L457.7,305.0 L459.2,302.2 L447.2,301.5 L446.9,299.7 L437.2,294.2 L438.8,291.1 L436.3,285.3 L437.5,280.4 L435.8,278.2 L440.8,276.1 L439.4,272.1 L446.4,268.8 L450.8,268.7 L450.0,265.0 L449.8,251.5 L454.3,246.4 L451.6,238.8 L455.2,235.6 L455.5,232.0 L458.8,234.5 L466.5,234.3 L468.3,238.3 L471.7,239.2 L482.5,232.6 L484.2,230.7 L491.3,232.0 L490.9,229.1 L496.5,228.0 L497.3,223.2 L501.3,226.5 L507.8,223.2 L512.8,230.5 L514.6,236.9 L519.7,240.5 L520.2,246.4 L526.4,245.5 L528.6,250.8 L534.0,253.4 L537.8,251.0 L531.7,260.5 L532.3,264.4 L527.1,271.4 L527.8,277.8 L533.1,288.3 L529.5,294.2 L534.9,300.3 L530.5,309.2 L534.2,308.1 L529.7,313.3 L526.3,310.9 L525.0,314.7 L521.9,315.7 L519.4,320.2 L516.1,319.0 Z">
  <desc xmlns="http://www.highcharts.com/svg/namespace">
    <name>Celle</name>
    <bundesland>DE.NI</bundesland>
    <hc-middle-x>0.51</hc-middle-x>
    <hc-middle-y>0.44</hc-middle-y>
    <hc-key>de-ni-03351000</hc-key>
    <hc-a2>CE</hc-a2>
  </desc>
</path>

<path fill="#CEE3F5" stroke="#6E6E6E" stroke-width="0.4" id="DE.NI.03456000" d="M89.7,376.1 L86.8,379.8 L66.3,378.7 L61.3,379.8 L58.9,383.7 L53.2,384.3 L49.9,380.7 L47.9,372.2 L54.8,358.3 L54.9,353.3 L53.2,347.1 L49.9,346.3 L46.5,340.0 L44.3,331.3 L41.9,331.3 L39.6,336.1 L36.6,338.2 L25.2,334.1 L24.2,332.2 L12.7,331.8 L9.7,330.7 L1.9,325.2 L3.3,317.2 L0.0,309.4 L5.0,310.6 L6.6,307.2 L12.4,307.4 L5.7,301.2 L7.1,295.0 L5.3,292.3 L9.6,287.9 L15.4,286.5 L21.0,287.8 L31.8,287.3 L37.7,290.6 L42.9,288.8 L47.2,290.7 L45.4,298.3 L50.9,295.6 L61.5,302.7 L61.7,299.6 L68.7,306.6 L68.9,310.6 L73.7,312.3 L73.4,315.1 L82.6,314.3 L86.3,320.2 L82.3,322.3 L85.4,325.2 L83.1,328.5 L84.6,331.5 L75.5,336.6 L78.4,346.8 L81.2,361.7 L84.7,366.3 Z">
  <desc xmlns="http://www.highcharts.com/svg/namespace">
    <name>Grafschaft Bentheim</name>
    <bundesland>DE.NI</bundesland>
    <hc-middle-x>0.54</hc-middle-x>
    <hc-middle-y>0.36</hc-middle-y>
    <hc-key>de-ni-03456000</hc-key>
    <hc-a2>GB</hc-a2>
  </desc>
</path>

<path fill="#CEE3F5" stroke="#6E6E6E" stroke-width="0.4" id="DE.NI.03252000" d="M377.1,462.8 L373.9,463.2 L371.1,457.2 L373.5,454.9 L372.0,450.9 L366.8,450.1 L359.2,452.6 L357.5,448.6 L360.7,445.4 L358.2,444.1 L360.8,442.0 L357.8,436.8 L357.4,430.5 L359.8,428.3 L354.7,421.7 L358.8,416.8 L360.3,411.3 L354.6,402.0 L358.6,401.3 L364.5,397.0 L372.8,393.1 L379.0,394.7 L383.4,390.7 L385.4,392.7 L388.9,385.9 L395.7,383.5 L396.8,380.1 L400.1,382.2 L399.1,384.5 L402.5,386.8 L406.7,394.6 L404.2,397.4 L403.5,402.6 L405.1,406.6 L413.7,405.7 L421.0,412.6 L423.2,413.5 L425.5,417.1 L431.1,419.4 L426.6,426.8 L425.9,444.6 L424.2,448.3 L426.2,452.6 L420.3,445.4 L415.5,435.0 L409.2,435.7 L410.3,439.0 L403.7,440.1 L396.6,448.3 L392.6,448.5 L385.1,451.1 L382.9,450.4 L382.0,454.0 L385.4,458.0 L382.8,460.3 L376.9,460.8 Z">
  <desc xmlns="http://www.highcharts.com/svg/namespace">
    <name>Hameln-Pyrmont</name>
    <bundesland>DE.NI</bundesland>
    <hc-middle-x>0.40</hc-middle-x>
    <hc-middle-y>0.49</hc-middle-y>
    <hc-key>de-ni-03252000</hc-key>
    <hc-a2>HP</hc-a2>
  </desc>
</path>

<path fill="#CEE3F5" stroke="#6E6E6E" stroke-width="0.4" id="DE.NI.03255000" d="M393.2,527.4 L386.9,526.9 L389.9,521.4 L388.8,517.3 L390.8,514.1 L389.8,508.0 L386.9,504.8 L388.2,501.5 L397.5,492.7 L394.5,488.2 L396.6,484.7 L395.5,481.7 L399.0,476.8 L391.3,478.5 L385.0,476.4 L380.9,479.0 L382.3,472.8 L381.7,466.2 L377.1,462.8 L376.9,460.8 L382.8,460.3 L385.4,458.0 L382.0,454.0 L382.9,450.4 L385.1,451.1 L392.6,448.5 L396.6,448.3 L403.7,440.1 L410.3,439.0 L409.2,435.7 L415.5,435.0 L420.3,445.4 L426.2,452.6 L428.3,451.7 L431.9,454.8 L435.2,452.0 L435.9,448.3 L443.2,448.5 L445.3,452.0 L451.9,457.4 L451.9,459.2 L462.1,466.0 L452.8,470.8 L449.0,471.1 L446.2,476.0 L443.3,475.7 L436.7,472.1 L432.1,477.1 L431.5,481.9 L425.8,484.5 L426.3,486.2 L416.6,493.8 L416.9,497.1 L414.0,500.2 L413.5,505.5 L405.6,508.5 L396.5,516.0 L396.4,520.3 L394.0,521.3 L396.1,526.0 Z">
  <desc xmlns="http://www.highcharts.com/svg/namespace">
    <name>Holzminden</name>
    <bundesland>DE.NI</bundesland>
    <hc-middle-x>0.43</hc-middle-x>
    <hc-middle-y>0.38</hc-middle-y>
    <hc-key>de-ni-03255000</hc-key>
    <hc-a2>HO</hc-a2>
  </desc>
</path>

<path fill="#CEE3F5" stroke="#6E6E6E" stroke-width="0.4" id="DE.NI.03357000" d="M428.5,157.7 L430.2,162.4 L432.7,163.0 L433.5,167.2 L439.3,170.2 L430.0,172.5 L427.1,171.4 L427.4,177.2 L423.4,175.4 L423.0,179.6 L420.6,182.3 L423.2,186.3 L423.0,190.8 L421.0,195.1 L418.3,196.6 L419.2,200.0 L427.8,204.3 L425.5,208.1 L427.2,215.4 L421.4,220.0 L417.9,219.9 L415.8,226.6 L411.9,227.1 L410.5,221.8 L404.4,222.0 L404.2,224.3 L398.7,225.9 L396.8,228.9 L395.3,222.2 L397.9,219.0 L397.1,212.1 L394.2,208.9 L387.9,211.0 L385.1,213.7 L379.9,212.6 L381.7,208.8 L380.7,206.4 L376.5,206.7 L373.6,203.3 L363.6,199.7 L361.1,201.2 L358.5,194.7 L354.3,189.3 L353.8,185.5 L356.3,186.2 L357.9,182.4 L356.6,179.9 L359.5,175.0 L359.8,169.8 L356.9,168.9 L350.9,170.3 L347.6,175.8 L342.3,174.2 L340.8,169.4 L336.3,163.6 L335.8,151.6 L331.0,146.3 L333.9,139.1 L330.6,137.4 L332.2,134.8 L328.8,130.6 L323.8,129.3 L324.0,123.8 L319.6,120.4 L325.7,113.0 L322.0,107.5 L319.2,106.6 L328.4,99.4 L326.1,98.7 L326.8,90.5 L317.7,88.2 L322.7,83.7 L327.1,85.2 L330.2,83.0 L329.3,78.8 L336.1,79.3 L339.5,75.5 L341.9,75.3 L347.2,79.4 L353.0,70.5 L354.7,74.5 L354.4,79.0 L358.1,84.7 L362.0,82.5 L366.8,82.8 L371.8,86.7 L363.9,92.9 L366.2,100.7 L370.2,101.6 L372.3,98.8 L375.4,103.1 L377.8,101.2 L380.8,106.7 L380.1,113.1 L384.3,113.4 L382.3,118.0 L387.7,123.5 L394.4,128.2 L399.2,127.2 L403.3,119.7 L406.8,121.7 L412.8,122.5 L410.3,127.6 L411.3,130.1 L417.3,141.6 L415.2,140.9 L417.8,152.2 L420.1,155.9 Z">
  <desc xmlns="http://www.highcharts.com/svg/namespace">
    <name>Rotenburg (Wümme)</name>
    <bundesland>DE.NI</bundesland>
    <hc-middle-x>0.55</hc-middle-x>
    <hc-middle-y>0.60</hc-middle-y>
    <hc-key>de-ni-03357000</hc-key>
    <hc-a2>R(</hc-a2>
  </desc>
</path>

<path fill="#CEE3F5" stroke="#6E6E6E" stroke-width="0.4" id="DE.NI.03453000" d="M145.0,283.5 L143.4,279.5 L137.5,272.3 L139.4,269.3 L144.8,266.8 L148.9,262.6 L144.4,255.7 L148.2,247.5 L149.1,243.2 L158.2,238.9 L165.3,229.6 L165.1,225.4 L153.7,220.6 L150.0,215.6 L151.0,214.7 L149.7,204.4 L135.6,194.3 L138.0,181.0 L139.4,181.1 L141.6,164.3 L143.1,165.8 L151.3,166.1 L159.1,167.9 L161.3,166.3 L170.3,170.0 L168.2,175.2 L174.5,182.7 L176.3,180.5 L183.5,186.1 L182.3,188.2 L185.8,190.9 L192.8,191.4 L197.8,194.8 L208.0,209.2 L206.6,216.7 L207.9,219.9 L207.4,225.9 L212.4,226.8 L212.3,231.3 L223.3,239.9 L226.8,238.8 L223.4,248.7 L224.6,254.1 L221.5,258.8 L219.3,258.2 L218.2,265.1 L205.5,262.6 L204.3,267.2 L198.3,266.1 L196.0,275.7 L200.1,276.8 L199.1,278.7 L193.2,278.6 L192.0,283.1 L186.1,280.1 L177.6,283.8 L168.8,276.7 L161.6,278.7 L160.2,281.7 L155.7,284.0 Z M159.9,281.0 L160.1,280.7 L159.7,280.0 L159.5,280.6 Z">
  <desc xmlns="http://www.highcharts.com/svg/namespace">
    <name>Cloppenburg</name>
    <bundesland>DE.NI</bundesland>
    <hc-middle-x>0.51</hc-middle-x>
    <hc-middle-y>0.48</hc-middle-y>
    <hc-key>de-ni-03453000</hc-key>
    <hc-a2>CL</hc-a2>
  </desc>
</path>

<path fill="#CEE3F5" stroke="#6E6E6E" stroke-width="0.4" id="DE.NI.03460000" d="M192.0,283.1 L193.2,278.6 L199.1,278.7 L200.1,276.8 L196.0,275.7 L198.3,266.1 L204.3,267.2 L205.5,262.6 L218.2,265.1 L219.3,258.2 L221.5,258.8 L224.6,254.1 L223.4,248.7 L226.8,238.8 L235.3,237.9 L237.2,236.5 L240.6,244.0 L243.7,243.3 L247.7,245.0 L246.3,250.4 L257.2,251.1 L255.2,256.2 L253.9,259.4 L255.7,263.1 L256.9,271.6 L253.1,274.5 L248.0,274.4 L237.7,281.6 L233.7,282.8 L233.5,287.3 L231.2,291.4 L233.7,307.1 L238.3,309.2 L238.1,317.1 L233.8,318.6 L233.0,327.0 L223.4,331.3 L217.9,331.0 L211.4,342.3 L207.5,339.5 L197.3,339.6 L197.9,325.7 L192.1,321.1 L190.9,318.6 L194.2,318.7 L195.4,311.0 L195.0,305.3 L199.4,303.5 L200.7,298.9 L199.6,292.3 L196.1,289.9 Z">
  <desc xmlns="http://www.highcharts.com/svg/namespace">
    <name>Vechta</name>
    <bundesland>DE.NI</bundesland>
    <hc-middle-x>0.54</hc-middle-x>
    <hc-middle-y>0.35</hc-middle-y>
    <hc-key>de-ni-03460000</hc-key>
    <hc-a2>VE</hc-a2>
  </desc>
</path>

<path fill="#CEE3F5" stroke="#6E6E6E" stroke-width="0.4" id="DE.NI.03458000" d="M280.6,186.3 L278.9,189.3 L280.2,191.9 L275.1,194.9 L273.0,200.8 L276.6,202.3 L272.5,208.9 L274.2,212.8 L278.6,209.6 L277.2,207.7 L279.4,205.2 L281.6,208.3 L283.6,207.5 L281.4,212.4 L282.9,217.9 L288.0,217.4 L287.6,223.5 L288.7,228.4 L285.7,230.1 L282.9,229.0 L281.3,233.6 L281.5,242.1 L279.2,244.7 L267.1,249.3 L267.7,252.0 L258.7,256.9 L255.2,256.2 L257.2,251.1 L246.3,250.4 L247.7,245.0 L243.7,243.3 L240.6,244.0 L237.2,236.5 L235.3,237.9 L226.8,238.8 L223.3,239.9 L212.3,231.3 L212.4,226.8 L207.4,225.9 L207.9,219.9 L206.6,216.7 L208.0,209.2 L197.8,194.8 L200.6,187.7 L208.9,183.6 L219.1,182.3 L218.3,186.5 L222.2,189.8 L230.3,186.1 L231.6,178.6 L235.0,173.3 L236.5,171.3 L245.9,169.3 L247.6,181.0 L257.6,177.0 L262.2,181.2 L263.4,179.0 L270.5,181.7 L272.6,180.7 Z">
  <desc xmlns="http://www.highcharts.com/svg/namespace">
    <name>Oldenburg</name>
    <bundesland>DE.NI</bundesland>
    <hc-middle-x>0.47</hc-middle-x>
    <hc-middle-y>0.46</hc-middle-y>
    <hc-key>de-ni-03458000</hc-key>
    <hc-a2>OL</hc-a2>
  </desc>
</path>

<path fill="#CEE3F5" stroke="#6E6E6E" stroke-width="0.4" id="DE.NI.03157000" d="M481.3,377.0 L487.6,371.5 L488.1,363.8 L492.7,365.6 L496.4,363.7 L494.1,360.2 L498.3,357.9 L494.7,350.9 L501.8,350.3 L504.3,347.8 L504.9,343.2 L507.2,342.3 L512.4,344.1 L512.0,340.6 L517.7,337.8 L521.1,338.6 L523.7,342.1 L525.7,341.5 L528.9,346.2 L531.3,355.7 L537.1,353.7 L535.7,356.9 L537.2,359.2 L533.9,360.1 L537.2,365.1 L535.6,368.0 L537.8,375.2 L539.8,375.6 L537.9,379.5 L541.8,382.2 L538.9,385.6 L538.5,390.7 L535.2,390.4 L533.1,395.0 L530.6,395.2 L529.7,399.0 L526.7,401.6 L522.8,401.5 L522.5,398.5 L517.7,402.0 L513.8,400.1 L514.7,398.9 L512.4,393.0 L509.9,392.7 L502.9,388.2 L499.5,390.4 L497.1,388.1 L487.1,389.9 L476.3,389.6 L476.3,383.2 L480.5,381.7 Z">
  <desc xmlns="http://www.highcharts.com/svg/namespace">
    <name>Peine</name>
    <bundesland>DE.NI</bundesland>
    <hc-middle-x>0.59</hc-middle-x>
    <hc-middle-y>0.55</hc-middle-y>
    <hc-key>de-ni-03157000</hc-key>
    <hc-a2>PE</hc-a2>
  </desc>
</path>

<path fill="#CEE3F5" stroke="#6E6E6E" stroke-width="0.4" id="DE.NI.03103000" d="M572.4,352.8 L568.6,337.8 L572.4,333.3 L581.6,335.9 L582.4,332.0 L587.7,325.2 L589.8,328.0 L592.8,326.8 L601.3,329.8 L603.6,333.1 L601.9,343.7 L606.2,343.9 L604.8,347.8 L601.8,348.4 L602.8,352.9 L598.8,356.0 L603.8,360.0 L599.8,365.1 L593.4,364.6 L593.2,361.0 L587.6,361.9 L582.8,358.0 L580.2,358.5 L579.7,355.3 L575.0,352.6 Z">
  <desc xmlns="http://www.highcharts.com/svg/namespace">
    <name>Wolfsburg</name>
    <bundesland>DE.NI</bundesland>
    <hc-middle-x>0.52</hc-middle-x>
    <hc-middle-y>0.47</hc-middle-y>
    <hc-key>de-ni-03103000</hc-key>
    <hc-a2>WO</hc-a2>
  </desc>
</path>
</g>

<text x="350" y="714" text-anchor="middle" font-family="Verdana" font-size="8" stroke-opacity="0.6">Copyright (c) 2014 Highsoft AS, Based on data from GeoBasis-DE / BKG 2014</text>

</svg>