<?xml version="1.0" encoding="utf-8" standalone="no"?>
<!DOCTYPE svg PUBLIC "-//W3C//DTD SVG 1.1//EN" "http://www.w3.org/Graphics/SVG/1.1/DTD/svg11.dtd">

<svg version="1.1" height="700pt" width="700pt" xmlns="http://www.w3.org/2000/svg" xmlns:xlink="http://www.w3.org/1999/xlink">
<desc>
Map version: 1.1.1
Copyright (c) 2014 Highsoft AS, Based on data from GeoBasis-DE / BKG 2014
</desc>
<title>Rheinland-Pfalz</title>
<g id="admin2">

<g id="DE.RP">
  <desc xmlns="http://www.highcharts.com/svg/namespace">
    <labelrank>3</labelrank>
    <hasc>DE.RP</hasc>
    <alt-name>Rhineland-Palatinate</alt-name>
    <woe-id>2345488</woe-id>
    <subregion>NULL</subregion>
    <fips>GM08</fips>
    <postal-code>RP</postal-code>
    <name>Rheinland-Pfalz</name>
    <country>Germany</country>
    <type-en>State</type-en>
    <region>NULL</region>
    <longitude>7.36974</longitude>
    <woe-name>Rheinland-Pfalz</woe-name>
    <latitude>49.8685</latitude>
    <woe-label>Rhineland-Palatinate, DE, Germany</woe-label>
    <type>Land</type>
    <hc-key>de-rp</hc-key>
    <hc-a2>RP</hc-a2>
  </desc>
</g>

<g id="DE">
  <desc xmlns="http://www.highcharts.com/svg/namespace">
    <name>Germany</name>
    <labelrank>2</labelrank>
    <country-abbrev>Ger.</country-abbrev>
    <subregion>Western Europe</subregion>
    <woe-id>23424829</woe-id>
    <region-wb>Europe &amp; Central Asia</region-wb>
    <iso-a3>DEU</iso-a3>
    <iso-a2>DE</iso-a2>
    <region-un>Europe</region-un>
    <continent>Europe</continent>
    <hc-key>de</hc-key>
    <hc-a2>GE</hc-a2>
  </desc>
</g>

<path fill="#CEE3F5" stroke="#6E6E6E" stroke-width="0.4" id="DE.RP.07138000" d="M364.5,120.8 L366.9,122.6 L363.9,127.8 L364.2,124.3 L362.0,122.0 Z M254.8,110.2 L255.6,108.6 L266.6,109.0 L274.0,107.6 L279.6,104.3 L282.2,105.5 L288.0,101.7 L287.4,96.1 L291.2,90.2 L289.2,83.5 L291.9,77.5 L297.1,79.0 L299.3,77.6 L302.9,80.6 L306.8,80.2 L309.3,86.8 L311.8,89.5 L312.7,94.2 L316.4,95.2 L315.1,99.1 L316.3,103.4 L313.8,107.3 L315.4,110.8 L311.3,110.7 L308.2,113.5 L311.8,117.1 L313.5,125.9 L316.7,126.8 L318.1,129.8 L322.7,130.1 L326.3,132.8 L326.7,130.2 L332.6,120.6 L329.0,116.4 L329.1,110.2 L334.2,115.5 L337.3,113.3 L335.8,104.2 L340.3,101.7 L345.2,105.1 L347.7,102.1 L354.1,102.3 L354.9,104.6 L359.9,105.0 L364.7,112.6 L359.0,115.6 L356.5,122.5 L359.9,122.9 L365.1,134.3 L362.2,138.2 L364.7,141.0 L362.9,146.2 L356.7,149.3 L356.6,154.1 L358.8,156.1 L356.8,159.4 L353.6,157.8 L352.1,161.0 L345.6,160.6 L339.9,164.4 L340.6,168.2 L335.6,168.9 L335.5,173.5 L330.5,177.7 L329.5,184.2 L326.0,183.1 L320.3,185.6 L312.9,186.1 L307.9,182.1 L305.5,176.8 L301.5,174.5 L294.8,174.7 L291.6,172.7 L284.7,165.7 L283.4,162.7 L275.2,151.7 L273.0,147.5 L268.7,131.7 L266.1,127.7 L256.2,123.9 L254.1,121.1 Z M359.7,133.6 L359.7,132.7 L356.6,131.6 L357.3,134.4 Z">
  <desc xmlns="http://www.highcharts.com/svg/namespace">
    <name>Neuwied</name>
    <bundesland>DE.RP</bundesland>
    <hc-middle-x>0.51</hc-middle-x>
    <hc-middle-y>0.66</hc-middle-y>
    <hc-key>de-rp-07138000</hc-key>
    <hc-a2>NE</hc-a2>
  </desc>
</path>

<path fill="#CEE3F5" stroke="#6E6E6E" stroke-width="0.4" id="DE.RP.07143000" d="M359.7,133.6 L357.3,134.4 L356.6,131.6 L359.7,132.7 Z M360.3,205.5 L362.0,203.4 L354.9,197.8 L350.5,195.1 L351.8,191.3 L357.3,191.1 L358.9,189.4 L356.3,186.6 L357.2,183.8 L350.8,178.9 L348.7,175.1 L351.9,171.6 L348.9,171.7 L346.5,176.0 L343.8,172.0 L344.7,169.9 L340.6,168.2 L339.9,164.4 L345.6,160.6 L352.1,161.0 L353.6,157.8 L356.8,159.4 L358.8,156.1 L356.6,154.1 L356.7,149.3 L362.9,146.2 L364.7,141.0 L362.2,138.2 L365.1,134.3 L359.9,122.9 L356.5,122.5 L359.0,115.6 L364.7,112.6 L365.6,101.4 L363.1,99.3 L363.9,94.9 L369.5,95.1 L370.7,89.4 L365.0,87.5 L364.3,83.0 L371.3,79.3 L373.1,76.3 L368.8,76.2 L370.9,73.8 L376.4,73.9 L374.8,71.3 L380.5,74.1 L388.7,74.7 L387.6,79.9 L390.7,83.2 L395.7,81.7 L400.9,87.1 L399.7,91.1 L407.4,93.6 L404.1,90.2 L407.9,80.5 L410.6,79.4 L420.4,83.0 L425.3,89.1 L424.1,94.0 L430.6,94.9 L433.5,90.6 L441.3,87.4 L445.7,88.3 L450.3,84.5 L454.6,85.4 L460.5,92.6 L457.0,97.0 L456.9,101.8 L463.6,110.9 L463.0,115.7 L460.3,118.6 L465.1,121.4 L466.1,124.4 L461.4,137.3 L462.7,139.5 L456.7,142.0 L458.1,145.3 L447.5,143.9 L446.6,140.0 L442.1,137.1 L438.0,139.3 L438.0,141.5 L427.6,153.0 L429.1,157.6 L426.6,158.7 L426.6,162.5 L433.6,173.9 L428.7,178.4 L425.5,179.1 L427.6,181.3 L426.8,186.1 L423.4,187.0 L424.5,190.2 L418.9,193.4 L416.9,187.1 L411.3,188.5 L408.0,191.8 L404.8,191.3 L405.1,197.9 L401.2,197.6 L398.2,194.9 L397.1,197.3 L400.4,200.2 L403.8,200.2 L403.1,205.4 L399.0,210.6 L397.5,208.2 L391.5,208.7 L390.8,206.2 L384.5,205.0 L379.8,207.3 L378.7,201.7 L383.2,197.4 L382.6,193.8 L378.5,193.6 L374.5,197.4 L375.8,191.4 L373.2,192.9 L371.0,198.0 L371.9,201.4 L362.7,206.3 Z M364.5,120.8 L362.0,122.0 L364.2,124.3 L363.9,127.8 L366.9,122.6 Z">
  <desc xmlns="http://www.highcharts.com/svg/namespace">
    <name>Westerwaldkreis</name>
    <bundesland>DE.RP</bundesland>
    <hc-middle-x>0.46</hc-middle-x>
    <hc-middle-y>0.47</hc-middle-y>
    <hc-key>de-rp-07143000</hc-key>
    <hc-a2>WE</hc-a2>
  </desc>
</path>

<path fill="#CEE3F5" stroke="#6E6E6E" stroke-width="0.4" id="DE.RP.08226000" d="M679.7,490.9 L677.1,494.2 L673.6,489.2 L674.9,485.8 L676.0,490.4 Z M633.8,511.0 L633.9,514.3 L633.8,517.7 L628.5,524.0 L625.4,524.0 L626.2,521.2 L622.9,518.1 L617.0,523.1 L618.8,529.8 L619.3,536.9 L617.9,539.4 L612.4,540.8 L611.6,546.3 L615.8,549.4 L618.2,544.7 L623.3,548.9 L627.4,543.4 L632.2,540.2 L634.1,532.3 L636.0,534.3 L639.6,533.0 L640.6,530.0 L645.5,528.2 L641.3,522.7 L644.0,517.3 L647.2,513.9 L645.9,510.3 L651.8,511.1 L653.7,508.6 L655.2,511.1 L660.0,512.9 L666.8,512.6 L668.7,505.4 L671.9,501.8 L675.1,503.5 L673.1,509.2 L676.7,512.5 L666.9,521.1 L662.7,522.4 L668.2,531.6 L661.4,538.3 L660.7,542.5 L657.4,541.7 L656.5,538.8 L653.4,540.7 L654.5,547.5 L650.5,550.1 L648.7,548.4 L642.7,551.8 L643.8,557.6 L649.6,562.0 L649.0,566.3 L655.8,570.3 L659.7,570.4 L664.8,575.9 L667.9,574.4 L667.7,579.6 L670.0,581.0 L668.3,585.5 L661.9,584.8 L663.3,588.3 L666.7,590.7 L661.4,595.2 L660.5,598.8 L656.4,595.3 L656.4,599.4 L659.4,601.0 L657.9,603.7 L651.7,608.2 L649.0,608.4 L647.1,613.7 L630.7,617.5 L632.9,624.7 L625.3,627.4 L617.2,620.9 L612.8,618.7 L606.9,619.0 L599.7,616.0 L598.3,609.8 L594.3,608.3 L593.4,605.0 L587.8,608.8 L574.1,605.7 L570.5,602.8 L567.7,603.3 L557.7,598.7 L558.6,596.1 L552.4,593.4 L551.2,595.9 L547.2,594.9 L546.0,590.8 L538.4,586.1 L538.4,582.0 L531.8,578.0 L530.0,574.9 L530.9,571.6 L534.7,568.2 L539.7,562.4 L541.7,555.6 L541.7,551.2 L536.3,556.0 L533.1,555.0 L533.6,551.7 L540.7,546.5 L541.0,543.2 L547.3,541.0 L550.9,543.1 L551.9,541.1 L556.6,541.0 L558.9,542.9 L567.3,545.5 L571.8,542.7 L572.9,550.2 L566.3,555.6 L564.9,559.4 L572.4,564.3 L573.9,558.1 L578.0,561.0 L576.3,563.8 L579.6,563.8 L581.7,561.0 L593.3,562.6 L597.1,556.4 L603.6,554.9 L605.7,546.7 L609.4,545.7 L607.8,536.0 L603.1,534.3 L600.5,526.5 L597.6,527.2 L598.4,530.9 L590.7,529.4 L590.1,531.1 L575.4,534.3 L571.3,532.2 L567.1,538.7 L562.9,537.0 L559.7,531.4 L562.5,526.3 L557.5,524.7 L552.4,520.0 L554.4,515.4 L559.0,514.2 L562.0,511.4 L560.6,505.0 L564.1,501.1 L566.6,502.0 L569.8,496.2 L566.8,487.2 L565.8,479.1 L563.7,479.2 L563.7,472.8 L583.0,467.6 L586.6,469.9 L583.2,471.9 L587.6,476.9 L584.2,480.4 L584.4,487.3 L586.1,492.5 L588.8,494.5 L590.3,500.8 L603.2,507.0 L604.5,505.8 L610.6,508.1 L613.6,502.8 L616.3,503.8 L614.8,509.8 L617.8,514.2 L622.1,511.5 L630.7,510.2 Z M584.3,469.6 L583.6,468.8 L582.3,469.3 L581.6,471.1 L584.8,470.3 L584.4,469.7 L584.3,470.0 L583.5,470.2 L583.5,469.6 Z">
  <desc xmlns="http://www.highcharts.com/svg/namespace">
    <name>Rhein-Neckar-Kreis</name>
    <bundesland>DE.RP</bundesland>
    <hc-middle-x>0.62</hc-middle-x>
    <hc-middle-y>0.73</hc-middle-y>
    <hc-key>de-rp-08226000</hc-key>
    <hc-a2>RN</hc-a2>
  </desc>
</path>

<path fill="#CEE3F5" stroke="#6E6E6E" stroke-width="0.4" id="DE.RP.07313000" d="M423.8,625.2 L422.3,627.2 L419.9,624.5 L421.3,623.3 Z M396.1,587.0 L395.2,586.3 L395.2,576.3 L401.1,577.0 L407.3,575.8 L411.1,578.1 L411.2,583.3 L417.4,583.1 L416.8,591.3 L419.1,594.1 L417.2,595.8 L413.0,594.8 L408.4,589.9 L413.4,586.1 L408.1,585.0 L397.8,589.9 Z M439.9,632.7 L437.7,629.6 L440.1,627.0 L441.6,621.9 L438.7,620.5 L430.0,619.7 L440.4,615.8 L438.6,610.5 L439.5,608.5 L450.0,605.2 L455.3,607.4 L461.5,607.5 L461.7,614.9 L466.7,614.1 L464.3,619.9 L466.4,619.8 L466.4,629.8 L461.5,628.0 L461.0,625.8 L455.4,627.6 L451.3,626.1 L448.2,628.2 L446.2,632.7 Z">
  <desc xmlns="http://www.highcharts.com/svg/namespace">
    <name>Landau in der Pfalz</name>
    <bundesland>DE.RP</bundesland>
    <hc-middle-x>0.75</hc-middle-x>
    <hc-middle-y>0.76</hc-middle-y>
    <hc-key>de-rp-07313000</hc-key>
    <hc-a2>LI</hc-a2>
  </desc>
</path>

<path fill="#CEE3F5" stroke="#6E6E6E" stroke-width="0.4" id="DE.RP.07314000" d="M524.2,497.0 L529.2,515.5 L533.2,521.4 L529.6,525.6 L528.5,529.4 L531.4,531.7 L535.4,531.8 L532.3,534.5 L529.3,533.4 L521.2,537.7 L515.7,536.2 L508.9,521.9 L498.3,525.7 L495.5,518.2 L497.9,516.8 L506.2,515.1 L511.7,511.9 L511.8,508.7 L514.8,504.7 L513.2,504.0 L514.2,497.9 L517.3,494.0 L518.7,496.0 Z">
  <desc xmlns="http://www.highcharts.com/svg/namespace">
    <name>Ludwigshafen am Rhein</name>
    <bundesland>DE.RP</bundesland>
    <hc-middle-x>0.68</hc-middle-x>
    <hc-middle-y>0.65</hc-middle-y>
    <hc-key>de-rp-07314000</hc-key>
    <hc-a2>LA</hc-a2>
  </desc>
</path>

<path fill="#CEE3F5" stroke="#6E6E6E" stroke-width="0.4" id="DE.RP.07335000" d="M288.0,555.2 L287.8,554.2 L286.6,553.6 L288.7,551.3 L285.9,549.6 L288.8,542.5 L292.6,537.1 L290.3,535.7 L296.8,535.4 L301.6,531.8 L302.3,528.9 L298.9,525.1 L308.6,510.4 L318.1,503.2 L325.0,502.9 L331.2,498.6 L336.2,501.6 L337.1,497.8 L343.5,495.3 L349.0,487.8 L348.4,483.9 L344.1,482.9 L347.0,478.4 L351.6,479.2 L353.6,477.1 L357.3,478.3 L362.6,477.8 L366.2,479.4 L368.5,475.5 L367.5,481.8 L370.1,484.8 L375.5,486.5 L377.0,489.1 L372.4,494.4 L374.4,498.5 L382.1,496.6 L388.8,499.4 L390.1,505.4 L394.4,502.4 L397.3,502.7 L407.4,498.3 L414.9,500.6 L416.8,507.3 L416.7,513.1 L418.3,514.2 L415.0,515.7 L416.4,523.3 L415.3,524.3 L418.6,531.3 L422.5,532.7 L426.7,532.0 L427.0,534.1 L422.0,534.5 L422.8,536.3 L415.0,539.9 L417.2,545.7 L412.9,550.2 L408.4,548.3 L404.4,550.0 L402.2,553.1 L393.1,555.0 L391.1,559.0 L385.5,554.4 L383.5,547.0 L387.1,547.0 L396.0,542.7 L396.5,538.1 L393.5,530.2 L393.9,527.6 L390.5,522.5 L383.5,523.6 L380.1,519.8 L380.6,515.5 L375.3,513.4 L370.6,514.0 L370.2,518.4 L366.1,519.4 L362.0,513.5 L358.3,511.4 L352.8,514.1 L352.5,523.4 L357.4,526.3 L357.9,530.1 L350.6,527.5 L342.2,528.3 L341.0,535.9 L345.5,534.3 L348.3,535.6 L351.8,542.0 L352.0,545.6 L355.1,546.9 L355.3,550.2 L359.1,547.3 L366.6,548.2 L372.9,547.1 L378.9,552.5 L383.7,558.3 L389.2,560.1 L387.7,561.2 L385.4,568.6 L387.0,572.5 L386.0,574.7 L382.2,574.4 L379.2,578.4 L377.4,576.0 L372.1,575.6 L371.6,566.4 L370.3,564.7 L358.7,565.6 L352.2,567.0 L349.5,568.8 L349.4,565.5 L340.0,565.3 L340.3,559.3 L336.3,558.8 L334.3,552.9 L327.3,554.4 L324.1,561.2 L319.0,565.9 L315.8,567.1 L311.8,561.3 L306.6,564.8 L300.3,562.4 L296.9,559.7 L291.4,558.4 Z">
  <desc xmlns="http://www.highcharts.com/svg/namespace">
    <name>Kaiserslautern</name>
    <bundesland>DE.RP</bundesland>
    <hc-middle-x>0.31</hc-middle-x>
    <hc-middle-y>0.47</hc-middle-y>
    <hc-key>de-rp-07335000</hc-key>
    <hc-a2>KA</hc-a2>
  </desc>
</path>

<path fill="#CEE3F5" stroke="#6E6E6E" stroke-width="0.4" id="DE.RP.07111000" d="M354.9,197.8 L362.0,203.4 L360.3,205.5 L355.3,210.6 L351.8,217.9 L346.8,218.3 L337.9,217.3 L338.0,222.5 L341.0,228.6 L336.8,227.2 L329.7,232.2 L322.0,228.2 L320.8,222.8 L325.2,218.1 L324.3,214.1 L319.8,213.2 L318.0,215.2 L314.4,203.8 L320.5,197.1 L326.0,196.2 L326.2,193.5 L334.1,187.3 L341.1,193.9 L345.0,201.2 Z">
  <desc xmlns="http://www.highcharts.com/svg/namespace">
    <name>Koblenz</name>
    <bundesland>DE.RP</bundesland>
    <hc-middle-x>0.42</hc-middle-x>
    <hc-middle-y>0.49</hc-middle-y>
    <hc-key>de-rp-07111000</hc-key>
    <hc-a2>KO</hc-a2>
  </desc>
</path>

<path fill="#CEE3F5" stroke="#6E6E6E" stroke-width="0.4" id="DE.RP.07340000" d="M285.8,573.3 L282.0,572.4 L285.5,569.1 L288.2,562.8 L285.3,560.2 L288.0,559.2 L288.0,555.2 L291.4,558.4 L296.9,559.7 L300.3,562.4 L306.6,564.8 L311.8,561.3 L315.8,567.1 L319.0,565.9 L324.1,561.2 L327.3,554.4 L334.3,552.9 L336.3,558.8 L340.3,559.3 L340.0,565.3 L349.4,565.5 L349.5,568.8 L352.2,567.0 L358.7,565.6 L370.3,564.7 L371.6,566.4 L372.1,575.6 L377.4,576.0 L379.2,578.4 L382.2,574.4 L386.0,574.7 L387.0,572.5 L392.5,569.4 L395.2,576.3 L395.2,586.3 L396.1,587.0 L392.3,590.8 L387.9,590.7 L385.9,592.9 L385.8,599.2 L390.6,596.0 L397.1,598.9 L398.3,600.7 L394.7,602.5 L395.1,605.2 L402.6,604.9 L404.5,609.8 L402.3,612.6 L405.9,615.6 L399.6,619.2 L403.0,620.1 L405.9,624.4 L404.5,629.5 L398.9,636.9 L395.1,632.6 L392.0,633.6 L390.9,640.6 L392.5,645.3 L395.0,646.8 L402.8,645.5 L404.9,651.2 L403.8,655.0 L398.9,654.8 L400.3,659.7 L396.8,667.6 L399.5,670.0 L402.0,667.2 L403.8,671.3 L398.8,669.9 L393.8,675.4 L389.6,671.5 L385.2,670.3 L380.6,665.3 L376.9,663.6 L370.9,669.9 L362.3,671.1 L356.2,666.7 L354.2,668.9 L348.6,670.4 L338.9,666.8 L338.9,660.5 L331.7,656.7 L324.7,657.8 L315.4,651.4 L312.5,642.9 L310.2,642.4 L306.7,635.3 L310.5,632.4 L308.2,630.8 L307.8,625.7 L299.4,627.8 L295.3,625.1 L294.4,621.8 L296.7,620.3 L278.0,624.2 L278.2,627.7 L274.4,627.3 L271.2,622.7 L271.9,619.6 L267.7,617.8 L270.7,612.2 L275.1,612.1 L277.6,607.8 L278.7,610.7 L286.1,609.3 L292.1,605.3 L287.0,602.4 L289.6,593.8 L297.0,587.2 L293.3,586.2 L288.4,582.5 L289.5,578.2 L288.5,573.4 Z M334.4,628.5 L340.5,628.7 L342.0,625.6 L340.0,623.3 L345.4,620.4 L345.1,617.1 L347.8,612.9 L347.4,610.2 L349.8,605.5 L345.0,605.4 L344.5,607.2 L336.3,609.1 L332.9,606.8 L333.1,603.6 L326.1,603.0 L322.2,608.0 L314.1,611.1 L313.2,615.9 L324.0,627.5 L331.1,624.9 L327.6,633.7 L329.8,634.3 Z">
  <desc xmlns="http://www.highcharts.com/svg/namespace">
    <name>Südwestpfalz</name>
    <bundesland>DE.RP</bundesland>
    <hc-middle-x>0.72</hc-middle-x>
    <hc-middle-y>0.38</hc-middle-y>
    <hc-key>de-rp-07340000</hc-key>
    <hc-a2>SÜ</hc-a2>
  </desc>
</path>

<path fill="#CEE3F5" stroke="#6E6E6E" stroke-width="0.4" id="DE.RP.07318000" d="M538.4,586.1 L537.2,587.4 L533.7,588.6 L519.1,580.6 L518.2,575.5 L519.9,572.3 L512.7,567.6 L520.0,557.1 L523.7,555.4 L526.2,562.8 L528.1,564.4 L529.7,559.0 L533.8,561.0 L538.1,559.1 L539.6,560.5 L534.4,561.6 L534.7,568.2 L530.9,571.6 L530.0,574.9 L531.8,578.0 L538.4,582.0 Z">
  <desc xmlns="http://www.highcharts.com/svg/namespace">
    <name>Speyer</name>
    <bundesland>DE.RP</bundesland>
    <hc-middle-x>0.24</hc-middle-x>
    <hc-middle-y>0.48</hc-middle-y>
    <hc-key>de-rp-07318000</hc-key>
    <hc-a2>SP</hc-a2>
  </desc>
</path>

<path fill="#CEE3F5" stroke="#6E6E6E" stroke-width="0.4" id="DE.RP.07134000" d="M204.1,457.0 L209.5,451.8 L208.1,445.8 L213.0,444.0 L208.3,439.5 L220.7,425.5 L224.2,419.6 L228.7,415.6 L228.3,408.8 L242.6,396.8 L248.5,390.7 L259.7,382.7 L259.0,379.8 L250.8,371.3 L255.2,367.9 L258.2,369.3 L264.3,366.5 L265.6,369.4 L264.1,372.7 L267.1,374.0 L271.0,372.2 L274.0,366.8 L277.3,368.2 L281.9,367.0 L290.2,369.3 L290.0,380.7 L290.9,382.5 L288.3,385.2 L291.9,399.9 L300.6,407.2 L299.4,412.7 L295.2,414.4 L293.8,418.6 L299.6,425.4 L305.1,420.9 L308.8,424.6 L312.3,432.0 L310.1,433.4 L311.0,437.1 L318.2,435.5 L317.3,439.4 L318.8,444.4 L316.4,446.2 L306.6,446.0 L302.1,447.1 L298.0,453.1 L295.5,454.2 L299.7,468.0 L299.2,473.8 L293.9,476.7 L285.7,472.8 L280.7,474.3 L270.4,485.9 L271.6,488.0 L260.5,490.6 L260.1,486.1 L257.4,482.2 L258.9,478.0 L255.2,481.5 L248.6,484.5 L245.3,483.3 L245.4,480.1 L240.9,480.0 L237.1,477.1 L237.2,472.2 L232.2,470.4 L228.5,472.8 L224.5,472.9 L218.7,470.1 L217.8,471.6 L211.2,460.4 Z">
  <desc xmlns="http://www.highcharts.com/svg/namespace">
    <name>Birkenfeld</name>
    <bundesland>DE.RP</bundesland>
    <hc-middle-x>0.50</hc-middle-x>
    <hc-middle-y>0.54</hc-middle-y>
    <hc-key>de-rp-07134000</hc-key>
    <hc-a2>BI</hc-a2>
  </desc>
</path>

<path fill="#CEE3F5" stroke="#6E6E6E" stroke-width="0.4" id="DE.RP.07235000" d="M208.3,439.5 L213.0,444.0 L208.1,445.8 L209.5,451.8 L204.1,457.0 L200.4,460.9 L198.3,459.7 L194.3,463.4 L195.7,458.2 L191.8,458.7 L186.4,461.6 L185.9,458.1 L182.2,459.4 L183.2,464.2 L175.9,465.2 L172.9,464.3 L169.7,469.6 L164.7,467.9 L159.3,475.8 L154.4,472.5 L150.8,474.3 L146.0,479.9 L138.8,484.1 L135.8,483.1 L129.9,485.4 L125.5,491.7 L124.0,487.0 L119.5,488.8 L116.9,485.8 L115.3,490.0 L111.8,489.1 L106.0,493.6 L105.5,497.4 L101.8,497.2 L96.4,488.9 L94.3,490.4 L90.6,489.1 L86.9,492.9 L85.1,490.4 L81.4,492.0 L76.4,487.8 L65.8,484.9 L62.0,486.8 L54.3,483.7 L54.4,480.8 L49.7,476.8 L49.9,475.0 L55.0,473.0 L53.5,469.5 L60.0,465.0 L64.8,459.3 L69.5,447.1 L66.3,445.2 L73.9,435.2 L78.8,433.1 L85.4,427.6 L83.0,423.8 L87.6,423.3 L84.4,419.8 L84.3,413.6 L88.5,410.4 L86.7,405.9 L88.5,402.9 L86.5,399.6 L91.9,394.9 L89.6,392.2 L88.0,395.8 L82.4,392.4 L79.3,389.0 L86.2,382.9 L92.8,383.1 L91.2,378.0 L95.2,374.8 L105.0,371.4 L105.2,366.9 L109.9,363.3 L108.6,368.7 L113.0,368.1 L116.8,370.9 L120.5,366.2 L126.4,363.9 L126.9,359.7 L130.5,356.5 L134.4,361.2 L138.7,370.3 L141.8,367.2 L145.9,366.2 L145.0,370.6 L150.7,371.3 L153.6,380.6 L157.3,376.9 L164.7,375.5 L169.6,376.2 L170.6,371.1 L174.0,383.8 L179.5,390.6 L186.7,391.6 L187.6,396.7 L181.8,398.5 L179.3,396.9 L176.9,402.3 L170.5,406.5 L175.2,409.8 L177.7,417.5 L186.4,422.6 L187.6,426.4 L190.9,427.0 L192.5,430.8 L190.1,437.3 L194.6,441.4 L193.7,443.0 L199.0,445.0 Z M139.3,404.3 L133.2,399.7 L131.1,400.6 L131.4,396.4 L140.1,393.4 L133.9,390.7 L131.7,381.2 L129.1,377.7 L125.1,379.1 L124.7,382.3 L120.9,393.1 L115.8,396.4 L115.0,403.0 L107.0,402.6 L105.7,407.2 L111.6,410.1 L106.1,413.4 L102.3,412.4 L96.5,418.4 L96.1,422.3 L98.0,427.8 L97.3,431.8 L109.1,426.1 L112.0,425.5 L109.0,429.9 L109.5,433.1 L113.9,431.8 L116.7,433.3 L119.6,429.6 L128.8,429.9 L132.6,427.5 L132.9,421.6 L135.2,420.6 L137.7,423.0 L139.6,420.0 L136.7,420.1 L131.8,415.4 L129.8,411.2 L127.0,410.3 L133.2,406.5 L134.2,408.1 L139.0,406.8 Z">
  <desc xmlns="http://www.highcharts.com/svg/namespace">
    <name>Trier-Saarburg</name>
    <bundesland>DE.RP</bundesland>
    <hc-middle-x>0.56</hc-middle-x>
    <hc-middle-y>0.65</hc-middle-y>
    <hc-key>de-rp-07235000</hc-key>
    <hc-a2>TS</hc-a2>
  </desc>
</path>

<path fill="#CEE3F5" stroke="#6E6E6E" stroke-width="0.4" id="DE.RP.07338000" d="M522.5,478.2 L524.2,482.3 L524.5,483.6 L524.2,485.5 L520.6,482.8 L513.6,488.5 L510.0,486.5 L509.0,490.0 L504.8,491.2 L504.6,493.8 L498.7,494.0 L501.0,497.6 L498.3,501.3 L498.9,509.2 L497.8,509.3 L497.9,516.8 L495.5,518.2 L498.3,525.7 L508.9,521.9 L515.7,536.2 L521.2,537.7 L529.3,533.4 L532.3,534.5 L535.4,531.8 L541.4,532.2 L543.5,536.3 L541.0,543.2 L540.7,546.5 L533.6,551.7 L533.1,555.0 L536.3,556.0 L541.7,551.2 L541.7,555.6 L539.7,562.4 L534.7,568.2 L534.4,561.6 L539.6,560.5 L538.1,559.1 L533.8,561.0 L529.7,559.0 L528.1,564.4 L526.2,562.8 L523.7,555.4 L520.0,557.1 L512.7,567.6 L519.9,572.3 L518.2,575.5 L519.1,580.6 L533.7,588.6 L525.4,597.5 L521.1,600.2 L516.3,599.9 L510.9,593.7 L510.7,588.9 L499.8,583.5 L500.7,582.1 L499.2,579.4 L499.2,578.4 L498.5,578.2 L499.2,576.9 L496.2,564.6 L493.7,559.0 L495.1,558.4 L492.0,552.3 L489.2,550.2 L485.8,539.4 L481.1,540.3 L480.8,532.7 L491.8,530.3 L489.1,519.0 L485.2,519.4 L483.8,516.4 L490.3,511.8 L488.0,501.4 L485.8,498.6 L491.7,496.4 L491.7,480.8 L501.3,478.1 L503.3,476.2 L506.0,478.0 L507.5,474.0 L510.5,475.5 L514.1,474.5 L520.4,478.8 Z">
  <desc xmlns="http://www.highcharts.com/svg/namespace">
    <name>Rhein-Pfalz-Kreis</name>
    <bundesland>DE.RP</bundesland>
    <hc-middle-x>0.47</hc-middle-x>
    <hc-middle-y>0.59</hc-middle-y>
    <hc-key>de-rp-07338000</hc-key>
    <hc-a2>RP</hc-a2>
  </desc>
</path>

<path fill="#CEE3F5" stroke="#6E6E6E" stroke-width="0.4" id="DE.RP.06431000" d="M524.2,482.3 L522.5,478.2 L514.8,466.0 L512.3,455.4 L509.3,448.7 L509.5,443.7 L513.6,439.4 L523.8,435.7 L528.2,433.2 L530.1,430.2 L530.4,429.5 L530.5,429.2 L532.7,431.8 L535.9,430.6 L541.2,433.0 L553.5,432.8 L562.8,431.4 L567.1,429.4 L573.6,432.6 L579.0,431.3 L582.1,432.5 L585.0,430.6 L583.6,425.8 L588.5,422.1 L590.3,426.2 L593.6,427.2 L596.0,432.5 L599.4,433.5 L604.5,431.2 L606.3,432.2 L610.5,428.0 L608.0,432.6 L612.7,438.9 L610.6,443.3 L607.5,443.8 L609.8,446.9 L618.3,451.0 L619.1,454.5 L625.3,457.3 L630.5,455.9 L625.8,462.0 L628.6,463.8 L630.5,469.1 L628.5,471.8 L631.4,474.6 L627.8,474.5 L630.1,477.5 L631.1,485.0 L629.4,488.1 L632.5,501.8 L636.5,504.1 L633.8,511.0 L630.7,510.2 L622.1,511.5 L617.8,514.2 L614.8,509.8 L616.3,503.8 L613.6,502.8 L610.6,508.1 L604.5,505.8 L603.2,507.0 L590.3,500.8 L588.8,494.5 L586.1,492.5 L584.4,487.3 L584.2,480.4 L587.6,476.9 L583.2,471.9 L586.6,469.9 L583.0,467.6 L563.7,472.8 L563.7,479.2 L565.8,479.1 L566.8,487.2 L569.8,496.2 L566.6,502.0 L564.1,501.1 L560.6,505.0 L554.0,504.7 L549.4,499.1 L548.0,495.0 L540.9,486.1 L537.4,485.5 L533.8,480.2 L528.3,480.2 Z M633.8,517.7 L636.5,517.5 L641.3,522.7 L645.5,528.2 L640.6,530.0 L639.6,533.0 L636.0,534.3 L634.1,532.3 L632.2,540.2 L627.4,543.4 L623.3,548.9 L618.2,544.7 L615.8,549.4 L611.6,546.3 L612.4,540.8 L617.9,539.4 L619.3,536.9 L618.8,529.8 L617.0,523.1 L622.9,518.1 L626.2,521.2 L625.4,524.0 L628.5,524.0 Z M584.4,469.7 L584.8,470.3 L581.6,471.1 L582.3,469.3 L583.6,468.8 L584.3,469.6 L583.5,469.6 L583.5,470.2 L584.3,470.0 Z">
  <desc xmlns="http://www.highcharts.com/svg/namespace">
    <name>Bergstraße</name>
    <bundesland>DE.RP</bundesland>
    <hc-middle-x>0.41</hc-middle-x>
    <hc-middle-y>0.23</hc-middle-y>
    <hc-key>de-rp-06431000</hc-key>
    <hc-a2>BE</hc-a2>
  </desc>
</path>

<path fill="#CEE3F5" stroke="#6E6E6E" stroke-width="0.4" id="DE.RP.07331000" d="M530.5,429.2 L530.4,429.5 L530.1,430.2 L524.8,431.7 L519.6,428.0 L512.5,430.2 L508.5,430.2 L507.8,442.5 L505.4,442.5 L506.1,447.0 L498.5,446.5 L493.6,443.3 L486.7,444.7 L487.5,450.8 L490.0,451.8 L491.4,456.7 L483.7,458.3 L482.0,466.5 L485.3,469.7 L486.0,479.2 L480.7,480.2 L479.8,475.8 L475.9,472.2 L474.4,468.3 L469.4,465.7 L462.7,467.7 L462.3,466.3 L463.7,459.1 L462.9,455.3 L457.9,449.8 L455.2,450.7 L453.0,448.0 L451.1,440.9 L441.2,441.9 L438.0,438.3 L431.9,436.2 L426.4,440.4 L418.5,439.3 L420.6,432.0 L414.3,428.8 L416.1,420.2 L409.2,424.9 L406.2,421.3 L409.7,417.2 L412.4,416.4 L412.7,404.3 L411.6,400.4 L415.4,398.1 L414.8,396.0 L419.9,392.9 L425.4,393.4 L431.9,386.2 L443.2,379.7 L439.6,375.0 L449.0,373.7 L455.7,369.9 L457.7,373.0 L465.1,372.0 L469.0,369.8 L472.4,375.6 L473.4,381.1 L475.3,381.5 L477.5,386.4 L471.6,389.9 L472.9,396.9 L481.6,397.2 L482.0,403.1 L479.7,405.8 L481.2,409.0 L481.5,416.5 L486.2,416.8 L492.5,423.6 L495.7,421.4 L495.0,419.0 L500.0,411.0 L509.2,412.0 L514.5,405.8 L519.7,404.4 L525.1,417.0 L529.4,417.9 L534.8,416.7 L537.2,420.9 Z">
  <desc xmlns="http://www.highcharts.com/svg/namespace">
    <name>Alzey-Worms</name>
    <bundesland>DE.RP</bundesland>
    <hc-middle-x>0.42</hc-middle-x>
    <hc-middle-y>0.50</hc-middle-y>
    <hc-key>de-rp-07331000</hc-key>
    <hc-a2>AW</hc-a2>
  </desc>
</path>

<path fill="#CEE3F5" stroke="#6E6E6E" stroke-width="0.4" id="DE.RP.07316000" d="M498.5,578.2 L499.2,578.4 L499.2,579.4 L484.2,583.5 L483.4,581.8 L477.3,583.4 L471.2,583.2 L472.2,578.4 L462.3,576.7 L457.3,577.9 L450.2,576.4 L444.9,573.4 L440.7,575.1 L434.5,573.1 L432.0,574.5 L428.6,572.8 L431.2,569.8 L425.8,566.0 L432.2,561.5 L437.6,562.9 L443.6,559.5 L447.0,560.5 L450.7,557.2 L448.6,556.2 L449.3,549.2 L454.5,553.1 L457.8,550.5 L456.9,546.2 L460.4,549.4 L468.1,550.1 L468.3,552.7 L472.0,551.8 L474.3,554.4 L477.7,553.9 L476.2,565.3 L478.5,565.5 L478.3,570.4 L484.8,574.0 Z">
  <desc xmlns="http://www.highcharts.com/svg/namespace">
    <name>Neustadt an der Weinstraße</name>
    <bundesland>DE.RP</bundesland>
    <hc-middle-x>0.52</hc-middle-x>
    <hc-middle-y>0.50</hc-middle-y>
    <hc-key>de-rp-07316000</hc-key>
    <hc-a2>NA</hc-a2>
  </desc>
</path>

<path fill="#CEE3F5" stroke="#6E6E6E" stroke-width="0.4" id="DE.RP.07337000" d="M499.2,579.4 L500.7,582.1 L499.8,583.5 L494.6,588.4 L482.9,590.8 L483.6,595.0 L479.2,596.2 L480.7,606.3 L480.3,613.8 L475.3,614.1 L475.3,627.7 L484.5,627.2 L486.3,634.1 L484.2,636.6 L486.1,643.7 L478.3,644.3 L473.6,646.9 L473.7,649.6 L466.4,645.3 L464.4,639.6 L456.1,643.2 L452.3,641.4 L452.0,652.4 L448.5,653.0 L448.5,657.7 L444.3,657.0 L442.3,662.2 L437.6,661.6 L437.9,666.4 L440.9,665.6 L442.3,676.0 L440.2,688.0 L436.0,682.8 L423.6,677.3 L418.5,677.9 L416.7,672.8 L408.7,666.8 L406.7,671.9 L403.8,671.3 L402.0,667.2 L399.5,670.0 L396.8,667.6 L400.3,659.7 L398.9,654.8 L403.8,655.0 L404.9,651.2 L402.8,645.5 L395.0,646.8 L392.5,645.3 L390.9,640.6 L392.0,633.6 L395.1,632.6 L398.9,636.9 L404.5,629.5 L405.9,624.4 L403.0,620.1 L399.6,619.2 L405.9,615.6 L402.3,612.6 L404.5,609.8 L402.6,604.9 L395.1,605.2 L394.7,602.5 L398.3,600.7 L397.1,598.9 L390.6,596.0 L385.8,599.2 L385.9,592.9 L387.9,590.7 L392.3,590.8 L396.1,587.0 L397.8,589.9 L408.1,585.0 L413.4,586.1 L408.4,589.9 L413.0,594.8 L417.2,595.8 L419.1,594.1 L416.8,591.3 L417.4,583.1 L411.2,583.3 L411.1,578.1 L411.8,574.2 L419.5,571.1 L422.3,566.4 L425.8,566.0 L431.2,569.8 L428.6,572.8 L432.0,574.5 L434.5,573.1 L440.7,575.1 L444.9,573.4 L450.2,576.4 L457.3,577.9 L462.3,576.7 L472.2,578.4 L471.2,583.2 L477.3,583.4 L483.4,581.8 L484.2,583.5 Z M423.8,625.2 L421.3,623.3 L419.9,624.5 L422.3,627.2 Z M439.9,632.7 L446.2,632.7 L448.2,628.2 L451.3,626.1 L455.4,627.6 L461.0,625.8 L461.5,628.0 L466.4,629.8 L466.4,619.8 L464.3,619.9 L466.7,614.1 L461.7,614.9 L461.5,607.5 L455.3,607.4 L450.0,605.2 L439.5,608.5 L438.6,610.5 L440.4,615.8 L430.0,619.7 L438.7,620.5 L441.6,621.9 L440.1,627.0 L437.7,629.6 Z">
  <desc xmlns="http://www.highcharts.com/svg/namespace">
    <name>Südliche Weinstraße</name>
    <bundesland>DE.RP</bundesland>
    <hc-middle-x>0.37</hc-middle-x>
    <hc-middle-y>0.57</hc-middle-y>
    <hc-key>de-rp-07337000</hc-key>
    <hc-a2>SW</hc-a2>
  </desc>
</path>

<path fill="#CEE3F5" stroke="#6E6E6E" stroke-width="0.4" id="DE.RP.07137000" d="M341.0,228.6 L349.0,236.8 L351.1,243.3 L347.6,245.8 L343.5,242.6 L342.2,239.4 L339.8,241.3 L328.4,241.0 L325.2,238.3 L320.4,242.4 L318.6,250.3 L315.0,252.1 L309.4,260.7 L307.1,261.5 L305.2,255.9 L298.4,260.7 L297.0,263.4 L300.4,269.4 L295.6,274.1 L289.4,274.6 L286.8,267.5 L281.1,266.4 L285.9,265.1 L290.1,257.5 L285.6,254.3 L281.4,260.3 L274.0,260.8 L273.0,258.1 L275.3,255.8 L272.6,253.1 L264.8,241.7 L259.6,240.5 L255.7,237.6 L252.3,239.2 L245.5,236.5 L245.9,231.6 L243.8,233.4 L240.8,231.0 L238.2,234.1 L231.8,237.1 L231.9,233.2 L221.1,234.2 L219.3,230.9 L213.4,227.4 L207.8,225.6 L208.0,228.4 L203.6,226.9 L198.1,220.9 L205.1,216.4 L208.3,212.7 L212.9,211.1 L207.2,208.9 L206.5,205.8 L200.9,205.9 L206.7,196.9 L207.7,192.0 L209.0,195.2 L213.2,193.6 L214.7,190.6 L222.1,188.3 L227.4,190.5 L228.0,187.4 L232.8,186.5 L234.0,192.5 L238.5,191.2 L245.6,184.9 L250.5,186.3 L255.4,186.0 L263.3,191.6 L267.1,190.0 L269.5,183.5 L263.0,180.5 L269.9,179.7 L271.0,172.5 L274.8,166.3 L280.7,166.0 L283.4,162.7 L284.7,165.7 L291.6,172.7 L294.8,174.7 L301.5,174.5 L305.5,176.8 L307.9,182.1 L312.9,186.1 L320.3,185.6 L326.0,183.1 L329.5,184.2 L330.5,177.7 L335.5,173.5 L335.6,168.9 L340.6,168.2 L344.7,169.9 L343.8,172.0 L346.5,176.0 L348.9,171.7 L351.9,171.6 L348.7,175.1 L350.8,178.9 L357.2,183.8 L356.3,186.6 L358.9,189.4 L357.3,191.1 L351.8,191.3 L350.5,195.1 L354.9,197.8 L345.0,201.2 L341.1,193.9 L334.1,187.3 L326.2,193.5 L326.0,196.2 L320.5,197.1 L314.4,203.8 L318.0,215.2 L319.8,213.2 L324.3,214.1 L325.2,218.1 L320.8,222.8 L322.0,228.2 L329.7,232.2 L336.8,227.2 Z">
  <desc xmlns="http://www.highcharts.com/svg/namespace">
    <name>Mayen-Koblenz</name>
    <bundesland>DE.RP</bundesland>
    <hc-middle-x>0.49</hc-middle-x>
    <hc-middle-y>0.45</hc-middle-y>
    <hc-key>de-rp-07137000</hc-key>
    <hc-a2>MK</hc-a2>
  </desc>
</path>

<path fill="#CEE3F5" stroke="#6E6E6E" stroke-width="0.4" id="DE.RP.07141000" d="M347.6,245.8 L351.1,243.3 L349.0,236.8 L341.0,228.6 L338.0,222.5 L337.9,217.3 L346.8,218.3 L351.8,217.9 L355.3,210.6 L360.3,205.5 L362.7,206.3 L371.9,201.4 L371.0,198.0 L373.2,192.9 L375.8,191.4 L374.5,197.4 L378.5,193.6 L382.6,193.8 L383.2,197.4 L378.7,201.7 L379.8,207.3 L384.5,205.0 L390.8,206.2 L391.5,208.7 L397.5,208.2 L399.0,210.6 L403.1,205.4 L403.8,200.2 L400.4,200.2 L397.1,197.3 L398.2,194.9 L401.2,197.6 L405.1,197.9 L404.8,191.3 L408.0,191.8 L411.3,188.5 L416.9,187.1 L418.9,193.4 L424.5,190.2 L427.4,192.8 L435.7,193.0 L435.9,198.9 L440.5,197.6 L440.9,201.2 L445.7,204.3 L448.1,211.0 L447.4,217.7 L453.8,218.6 L453.7,224.7 L456.6,227.2 L458.2,231.6 L458.0,236.3 L453.6,242.4 L451.1,240.4 L448.2,241.9 L446.7,237.6 L438.4,238.2 L435.2,242.7 L437.4,243.5 L443.5,251.2 L437.5,256.0 L438.0,257.8 L432.7,256.9 L431.6,253.1 L427.6,249.7 L426.6,253.7 L419.4,255.9 L418.1,259.5 L412.0,260.2 L410.1,264.6 L403.3,269.5 L405.3,276.4 L414.5,282.9 L412.1,286.1 L413.1,297.3 L407.0,290.4 L403.4,293.1 L397.8,288.4 L394.4,289.8 L392.1,294.5 L391.1,300.6 L392.9,302.5 L390.1,304.5 L384.7,303.4 L379.8,309.7 L377.9,309.7 L377.4,305.6 L375.9,303.9 L366.5,291.6 L370.2,287.2 L366.7,280.3 L362.2,275.0 L349.1,268.9 L348.4,260.2 L343.8,255.8 L340.3,250.2 L335.9,249.4 L334.5,247.2 L339.7,244.0 Z">
  <desc xmlns="http://www.highcharts.com/svg/namespace">
    <name>Rhein-Lahn-Kreis</name>
    <bundesland>DE.RP</bundesland>
    <hc-middle-x>0.35</hc-middle-x>
    <hc-middle-y>0.48</hc-middle-y>
    <hc-key>de-rp-07141000</hc-key>
    <hc-a2>RL</hc-a2>
  </desc>
</path>

<path fill="#CEE3F5" stroke="#6E6E6E" stroke-width="0.4" id="DE.RP.07339000" d="M375.9,303.9 L377.4,305.6 L377.9,309.7 L377.8,313.3 L385.0,319.4 L389.9,325.3 L396.5,330.6 L398.1,339.8 L403.0,343.5 L414.4,343.0 L421.5,341.7 L439.5,332.6 L450.3,330.4 L458.7,325.7 L472.5,322.0 L475.8,324.5 L470.9,332.1 L464.5,333.2 L464.0,338.7 L461.7,340.4 L462.7,347.1 L469.7,345.9 L472.3,351.2 L478.3,349.7 L480.6,353.0 L484.3,353.2 L484.7,355.9 L480.8,362.5 L480.4,369.9 L485.4,371.6 L489.7,361.1 L492.7,359.0 L492.7,355.4 L503.2,354.1 L507.0,355.9 L509.3,363.1 L509.1,368.1 L506.8,374.2 L507.6,379.1 L510.1,382.6 L515.2,384.8 L516.4,387.6 L514.8,393.9 L515.7,398.9 L519.7,404.4 L514.5,405.8 L509.2,412.0 L500.0,411.0 L495.0,419.0 L495.7,421.4 L492.5,423.6 L486.2,416.8 L481.5,416.5 L481.2,409.0 L479.7,405.8 L482.0,403.1 L481.6,397.2 L472.9,396.9 L471.6,389.9 L477.5,386.4 L475.3,381.5 L473.4,381.1 L472.4,375.6 L469.0,369.8 L465.1,372.0 L457.7,373.0 L455.7,369.9 L449.0,373.7 L439.6,375.0 L443.2,379.7 L431.9,386.2 L425.4,393.4 L419.9,392.9 L417.9,388.2 L421.2,385.4 L416.5,376.0 L410.1,375.5 L408.1,364.7 L405.5,361.9 L405.5,358.2 L393.3,353.6 L386.4,356.8 L383.5,355.2 L384.3,351.7 L388.1,351.5 L387.2,348.6 L383.9,347.7 L377.2,342.6 L376.0,337.2 L368.5,333.5 L363.7,329.1 L360.7,328.4 L358.9,321.5 L353.4,321.8 L354.6,318.8 L362.4,310.5 Z">
  <desc xmlns="http://www.highcharts.com/svg/namespace">
    <name>Mainz-Bingen</name>
    <bundesland>DE.RP</bundesland>
    <hc-middle-x>0.53</hc-middle-x>
    <hc-middle-y>0.43</hc-middle-y>
    <hc-key>de-rp-07339000</hc-key>
    <hc-a2>MB</hc-a2>
  </desc>
</path>

<path fill="#CEE3F5" stroke="#6E6E6E" stroke-width="0.4" id="DE.RP.07311000" d="M524.2,485.5 L522.2,492.0 L524.2,497.0 L518.7,496.0 L517.3,494.0 L514.2,497.9 L513.2,504.0 L514.8,504.7 L511.8,508.7 L511.7,511.9 L506.2,515.1 L497.9,516.8 L497.8,509.3 L498.9,509.2 L498.3,501.3 L501.0,497.6 L498.7,494.0 L504.6,493.8 L504.8,491.2 L509.0,490.0 L510.0,486.5 L513.6,488.5 L520.6,482.8 Z">
  <desc xmlns="http://www.highcharts.com/svg/namespace">
    <name>Frankenthal (Pfalz)</name>
    <bundesland>DE.RP</bundesland>
    <hc-middle-x>0.89</hc-middle-x>
    <hc-middle-y>0.28</hc-middle-y>
    <hc-key>de-rp-07311000</hc-key>
    <hc-a2>F(</hc-a2>
  </desc>
</path>

<path fill="#CEE3F5" stroke="#6E6E6E" stroke-width="0.4" id="DE.RP.07332000" d="M411.1,578.1 L407.3,575.8 L401.1,577.0 L395.2,576.3 L392.5,569.4 L387.0,572.5 L385.4,568.6 L387.7,561.2 L389.2,560.1 L390.8,559.4 L391.1,559.0 L393.1,555.0 L402.2,553.1 L404.4,550.0 L408.4,548.3 L412.9,550.2 L417.2,545.7 L415.0,539.9 L422.8,536.3 L422.0,534.5 L427.0,534.1 L426.7,532.0 L422.5,532.7 L418.6,531.3 L415.3,524.3 L416.4,523.3 L415.0,515.7 L418.3,514.2 L428.5,511.5 L431.6,506.0 L437.0,502.6 L441.4,495.9 L450.2,492.0 L446.9,487.2 L447.6,484.0 L453.5,481.2 L452.8,478.5 L456.2,471.4 L462.3,466.3 L462.7,467.7 L469.4,465.7 L474.4,468.3 L475.9,472.2 L479.8,475.8 L480.7,480.2 L486.0,479.2 L486.2,480.2 L491.7,480.8 L491.7,496.4 L485.8,498.6 L488.0,501.4 L490.3,511.8 L483.8,516.4 L485.2,519.4 L489.1,519.0 L491.8,530.3 L480.8,532.7 L481.1,540.3 L485.8,539.4 L489.2,550.2 L492.0,552.3 L495.1,558.4 L493.7,559.0 L496.2,564.6 L499.2,576.9 L498.5,578.2 L484.8,574.0 L478.3,570.4 L478.5,565.5 L476.2,565.3 L477.7,553.9 L474.3,554.4 L472.0,551.8 L468.3,552.7 L468.1,550.1 L460.4,549.4 L456.9,546.2 L457.8,550.5 L454.5,553.1 L449.3,549.2 L448.6,556.2 L450.7,557.2 L447.0,560.5 L443.6,559.5 L437.6,562.9 L432.2,561.5 L425.8,566.0 L422.3,566.4 L419.5,571.1 L411.8,574.2 Z">
  <desc xmlns="http://www.highcharts.com/svg/namespace">
    <name>Bad Dürkheim</name>
    <bundesland>DE.RP</bundesland>
    <hc-middle-x>0.61</hc-middle-x>
    <hc-middle-y>0.56</hc-middle-y>
    <hc-key>de-rp-07332000</hc-key>
    <hc-a2>BD</hc-a2>
  </desc>
</path>

<path fill="#CEE3F5" stroke="#6E6E6E" stroke-width="0.4" id="DE.RP.07312000" d="M391.1,559.0 L390.8,559.4 L389.2,560.1 L383.7,558.3 L378.9,552.5 L372.9,547.1 L366.6,548.2 L359.1,547.3 L355.3,550.2 L355.1,546.9 L352.0,545.6 L351.8,542.0 L348.3,535.6 L345.5,534.3 L341.0,535.9 L342.2,528.3 L350.6,527.5 L357.9,530.1 L357.4,526.3 L352.5,523.4 L352.8,514.1 L358.3,511.4 L362.0,513.5 L366.1,519.4 L370.2,518.4 L370.6,514.0 L375.3,513.4 L380.6,515.5 L380.1,519.8 L383.5,523.6 L390.5,522.5 L393.9,527.6 L393.5,530.2 L396.5,538.1 L396.0,542.7 L387.1,547.0 L383.5,547.0 L385.5,554.4 Z">
  <desc xmlns="http://www.highcharts.com/svg/namespace">
    <name>Kaiserslautern</name>
    <bundesland>DE.RP</bundesland>
    <hc-middle-x>0.52</hc-middle-x>
    <hc-middle-y>0.45</hc-middle-y>
    <hc-key>de-rp-07312000</hc-key>
    <hc-a2>KA</hc-a2>
  </desc>
</path>

<path fill="#CEE3F5" stroke="#6E6E6E" stroke-width="0.4" id="DE.RP.07319000" d="M491.7,480.8 L486.2,480.2 L486.0,479.2 L485.3,469.7 L482.0,466.5 L483.7,458.3 L491.4,456.7 L490.0,451.8 L487.5,450.8 L486.7,444.7 L493.6,443.3 L498.5,446.5 L506.1,447.0 L505.4,442.5 L507.8,442.5 L508.5,430.2 L512.5,430.2 L519.6,428.0 L524.8,431.7 L530.1,430.2 L528.2,433.2 L523.8,435.7 L513.6,439.4 L509.5,443.7 L509.3,448.7 L512.3,455.4 L514.8,466.0 L522.5,478.2 L520.4,478.8 L514.1,474.5 L510.5,475.5 L507.5,474.0 L506.0,478.0 L503.3,476.2 L501.3,478.1 Z">
  <desc xmlns="http://www.highcharts.com/svg/namespace">
    <name>Worms</name>
    <bundesland>DE.RP</bundesland>
    <hc-middle-x>0.40</hc-middle-x>
    <hc-middle-y>0.63</hc-middle-y>
    <hc-key>de-rp-07319000</hc-key>
    <hc-a2>WO</hc-a2>
  </desc>
</path>

<path fill="#CEE3F5" stroke="#6E6E6E" stroke-width="0.4" id="DE.RP.07132000" d="M306.8,80.2 L307.8,78.6 L315.7,78.0 L320.7,73.9 L325.1,72.7 L332.0,68.3 L339.0,71.5 L341.4,70.2 L341.0,65.2 L343.2,61.5 L347.1,60.2 L355.4,61.2 L356.5,54.9 L360.1,57.2 L361.5,51.1 L361.1,46.4 L357.6,44.4 L365.8,41.0 L372.5,32.2 L378.9,34.8 L378.0,31.8 L380.7,30.1 L376.8,26.4 L379.2,22.0 L378.0,18.9 L379.7,14.7 L376.3,13.0 L374.3,9.2 L379.1,7.7 L383.4,4.6 L387.2,0.0 L391.8,0.9 L393.0,3.3 L400.2,6.0 L396.1,12.5 L395.0,21.3 L406.9,24.2 L412.0,33.7 L414.8,35.0 L419.3,33.7 L425.7,35.4 L428.1,39.2 L425.5,51.6 L425.7,60.2 L429.1,64.8 L432.7,66.9 L438.0,74.2 L441.5,77.4 L441.3,87.4 L433.5,90.6 L430.6,94.9 L424.1,94.0 L425.3,89.1 L420.4,83.0 L410.6,79.4 L407.9,80.5 L404.1,90.2 L407.4,93.6 L399.7,91.1 L400.9,87.1 L395.7,81.7 L390.7,83.2 L387.6,79.9 L388.7,74.7 L380.5,74.1 L374.8,71.3 L376.4,73.9 L370.9,73.8 L368.8,76.2 L373.1,76.3 L371.3,79.3 L364.3,83.0 L365.0,87.5 L370.7,89.4 L369.5,95.1 L363.9,94.9 L363.1,99.3 L365.6,101.4 L364.7,112.6 L359.9,105.0 L354.9,104.6 L354.1,102.3 L347.7,102.1 L345.2,105.1 L340.3,101.7 L335.8,104.2 L337.3,113.3 L334.2,115.5 L329.1,110.2 L329.0,116.4 L332.6,120.6 L326.7,130.2 L326.3,132.8 L322.7,130.1 L318.1,129.8 L316.7,126.8 L313.5,125.9 L311.8,117.1 L308.2,113.5 L311.3,110.7 L315.4,110.8 L313.8,107.3 L316.3,103.4 L315.1,99.1 L316.4,95.2 L312.7,94.2 L311.8,89.5 L309.3,86.8 Z">
  <desc xmlns="http://www.highcharts.com/svg/namespace">
    <name>Altenkirchen (Westerwald)</name>
    <bundesland>DE.RP</bundesland>
    <hc-middle-x>0.70</hc-middle-x>
    <hc-middle-y>0.41</hc-middle-y>
    <hc-key>de-rp-07132000</hc-key>
    <hc-a2>A(</hc-a2>
  </desc>
</path>

<path fill="#CEE3F5" stroke="#6E6E6E" stroke-width="0.4" id="DE.RP.07315000" d="M472.5,322.0 L484.9,324.8 L491.1,331.0 L495.2,337.0 L502.4,344.1 L506.9,352.8 L507.0,355.9 L503.2,354.1 L492.7,355.4 L492.7,359.0 L489.7,361.1 L485.4,371.6 L480.4,369.9 L480.8,362.5 L484.7,355.9 L484.3,353.2 L480.6,353.0 L478.3,349.7 L472.3,351.2 L469.7,345.9 L462.7,347.1 L461.7,340.4 L464.0,338.7 L464.5,333.2 L470.9,332.1 L475.8,324.5 Z">
  <desc xmlns="http://www.highcharts.com/svg/namespace">
    <name>Mainz</name>
    <bundesland>DE.RP</bundesland>
    <hc-middle-x>0.57</hc-middle-x>
    <hc-middle-y>0.38</hc-middle-y>
    <hc-key>de-rp-07315000</hc-key>
    <hc-a2>MA</hc-a2>
  </desc>
</path>

<path fill="#CEE3F5" stroke="#6E6E6E" stroke-width="0.4" id="DE.RP.07133000" d="M318.2,435.5 L311.0,437.1 L310.1,433.4 L312.3,432.0 L308.8,424.6 L305.1,420.9 L299.6,425.4 L293.8,418.6 L295.2,414.4 L299.4,412.7 L300.6,407.2 L291.9,399.9 L288.3,385.2 L290.9,382.5 L294.0,381.8 L297.0,384.5 L296.6,388.1 L306.9,379.1 L311.5,381.8 L314.6,380.1 L324.3,369.1 L330.9,367.8 L336.2,361.6 L341.3,359.0 L344.5,355.6 L348.6,357.4 L351.6,354.0 L350.9,349.2 L353.3,347.2 L352.6,344.2 L356.1,341.0 L362.1,340.1 L357.5,334.1 L368.5,333.5 L376.0,337.2 L377.2,342.6 L383.9,347.7 L387.2,348.6 L388.1,351.5 L384.3,351.7 L383.5,355.2 L386.4,356.8 L393.3,353.6 L405.5,358.2 L405.5,361.9 L408.1,364.7 L410.1,375.5 L416.5,376.0 L421.2,385.4 L417.9,388.2 L419.9,392.9 L414.8,396.0 L415.4,398.1 L411.6,400.4 L412.7,404.3 L412.4,416.4 L409.7,417.2 L406.2,421.3 L404.3,418.9 L398.1,419.8 L396.3,416.3 L392.1,417.5 L387.6,421.1 L381.8,418.7 L377.6,421.2 L375.8,416.5 L372.4,418.4 L374.3,423.5 L365.9,431.3 L364.1,434.1 L366.9,440.0 L363.3,445.0 L363.5,449.1 L359.3,455.8 L350.1,461.5 L347.6,458.1 L348.7,454.4 L352.7,449.7 L350.3,444.5 L352.7,443.9 L348.0,439.3 L345.6,443.4 L340.2,443.4 L335.7,445.7 L330.6,442.5 L327.1,443.2 L322.2,437.6 L322.0,433.5 Z">
  <desc xmlns="http://www.highcharts.com/svg/namespace">
    <name>Bad Kreuznach</name>
    <bundesland>DE.RP</bundesland>
    <hc-middle-x>0.55</hc-middle-x>
    <hc-middle-y>0.49</hc-middle-y>
    <hc-key>de-rp-07133000</hc-key>
    <hc-a2>BK</hc-a2>
  </desc>
</path>

<path fill="#CEE3F5" stroke="#6E6E6E" stroke-width="0.4" id="DE.RP.07320000" d="M267.7,617.8 L264.4,613.6 L262.8,609.0 L263.9,605.7 L260.8,603.1 L266.4,593.8 L268.7,597.2 L269.3,593.8 L272.6,591.5 L273.9,588.2 L271.7,586.4 L276.4,585.2 L278.8,586.7 L283.6,581.1 L282.6,576.6 L285.8,573.3 L288.5,573.4 L289.5,578.2 L288.4,582.5 L293.3,586.2 L297.0,587.2 L289.6,593.8 L287.0,602.4 L292.1,605.3 L286.1,609.3 L278.7,610.7 L277.6,607.8 L275.1,612.1 L270.7,612.2 Z">
  <desc xmlns="http://www.highcharts.com/svg/namespace">
    <name>Zweibrücken</name>
    <bundesland>DE.RP</bundesland>
    <hc-middle-x>0.40</hc-middle-x>
    <hc-middle-y>0.65</hc-middle-y>
    <hc-key>de-rp-07320000</hc-key>
    <hc-a2>ZW</hc-a2>
  </desc>
</path>

<path fill="#CEE3F5" stroke="#6E6E6E" stroke-width="0.4" id="DE.RP.07211000" d="M139.3,404.3 L139.0,406.8 L134.2,408.1 L133.2,406.5 L127.0,410.3 L129.8,411.2 L131.8,415.4 L136.7,420.1 L139.6,420.0 L137.7,423.0 L135.2,420.6 L132.9,421.6 L132.6,427.5 L128.8,429.9 L119.6,429.6 L116.7,433.3 L113.9,431.8 L109.5,433.1 L109.0,429.9 L112.0,425.5 L109.1,426.1 L97.3,431.8 L98.0,427.8 L96.1,422.3 L96.5,418.4 L102.3,412.4 L106.1,413.4 L111.6,410.1 L105.7,407.2 L107.0,402.6 L115.0,403.0 L115.8,396.4 L120.9,393.1 L124.7,382.3 L125.1,379.1 L129.1,377.7 L131.7,381.2 L133.9,390.7 L140.1,393.4 L131.4,396.4 L131.1,400.6 L133.2,399.7 Z">
  <desc xmlns="http://www.highcharts.com/svg/namespace">
    <name>Trier</name>
    <bundesland>DE.RP</bundesland>
    <hc-middle-x>0.61</hc-middle-x>
    <hc-middle-y>0.62</hc-middle-y>
    <hc-key>de-rp-07211000</hc-key>
    <hc-a2>TR</hc-a2>
  </desc>
</path>

<path fill="#CEE3F5" stroke="#6E6E6E" stroke-width="0.4" id="DE.RP.07231000" d="M197.3,294.6 L198.0,300.1 L202.6,299.2 L206.9,305.9 L214.5,305.0 L224.1,308.1 L225.0,317.2 L229.9,320.8 L232.1,330.2 L234.5,333.6 L238.1,332.7 L245.8,335.3 L244.4,338.7 L247.0,342.5 L249.4,343.9 L251.2,348.9 L258.5,351.6 L253.6,360.4 L250.5,361.9 L248.5,365.9 L250.8,371.3 L259.0,379.8 L259.7,382.7 L248.5,390.7 L242.6,396.8 L228.3,408.8 L228.7,415.6 L224.2,419.6 L220.7,425.5 L208.3,439.5 L199.0,445.0 L193.7,443.0 L194.6,441.4 L190.1,437.3 L192.5,430.8 L190.9,427.0 L187.6,426.4 L186.4,422.6 L177.7,417.5 L175.2,409.8 L170.5,406.5 L176.9,402.3 L179.3,396.9 L181.8,398.5 L187.6,396.7 L186.7,391.6 L179.5,390.6 L174.0,383.8 L170.6,371.1 L169.6,376.2 L164.7,375.5 L157.3,376.9 L153.6,380.6 L150.7,371.3 L145.0,370.6 L145.9,366.2 L141.8,367.2 L138.7,370.3 L134.4,361.2 L134.7,355.8 L133.2,352.7 L133.2,345.8 L130.5,344.8 L128.1,339.7 L135.7,332.8 L139.0,333.3 L136.9,326.7 L133.0,319.5 L132.8,314.0 L137.3,311.5 L133.0,306.4 L132.4,300.8 L133.8,297.6 L134.2,295.9 L140.6,295.6 L145.5,289.4 L146.5,286.1 L151.1,287.7 L151.1,289.7 L161.8,284.4 L169.8,282.0 L174.5,286.9 L174.3,290.4 L177.7,292.4 L181.6,302.6 L188.9,297.7 L190.7,300.7 L194.5,297.7 L194.6,294.5 Z">
  <desc xmlns="http://www.highcharts.com/svg/namespace">
    <name>Bernkastel-Wittlich</name>
    <bundesland>DE.RP</bundesland>
    <hc-middle-x>0.45</hc-middle-x>
    <hc-middle-y>0.38</hc-middle-y>
    <hc-key>de-rp-07231000</hc-key>
    <hc-a2>BW</hc-a2>
  </desc>
</path>

<path fill="#CEE3F5" stroke="#6E6E6E" stroke-width="0.4" id="DE.RP.07135000" d="M247.0,342.5 L244.4,338.7 L245.8,335.3 L238.1,332.7 L234.5,333.6 L232.1,330.2 L229.9,320.8 L225.0,317.2 L224.1,308.1 L214.5,305.0 L206.9,305.9 L202.6,299.2 L198.0,300.1 L197.3,294.6 L198.3,284.0 L201.0,281.1 L197.1,280.2 L192.5,273.3 L196.5,272.0 L192.9,258.6 L193.1,250.1 L198.0,245.6 L202.2,245.7 L204.8,251.9 L210.5,249.9 L212.6,245.1 L215.2,243.3 L219.7,231.9 L219.3,230.9 L221.1,234.2 L231.9,233.2 L231.8,237.1 L238.2,234.1 L240.8,231.0 L243.8,233.4 L245.9,231.6 L245.5,236.5 L252.3,239.2 L255.7,237.6 L259.6,240.5 L264.8,241.7 L272.6,253.1 L275.3,255.8 L273.0,258.1 L274.0,260.8 L281.4,260.3 L285.6,254.3 L290.1,257.5 L285.9,265.1 L281.1,266.4 L286.8,267.5 L289.4,274.6 L285.1,280.1 L287.6,283.9 L291.2,285.7 L294.1,291.7 L287.8,297.2 L283.8,302.5 L280.1,302.4 L279.2,308.9 L276.0,309.1 L279.9,321.4 L282.2,326.1 L277.5,327.3 L277.3,329.8 L270.6,333.6 L266.3,333.2 L267.2,337.6 L265.5,341.5 L260.3,339.3 L258.3,344.3 L256.1,345.1 L250.0,342.2 Z">
  <desc xmlns="http://www.highcharts.com/svg/namespace">
    <name>Cochem-Zell</name>
    <bundesland>DE.RP</bundesland>
    <hc-middle-x>0.48</hc-middle-x>
    <hc-middle-y>0.41</hc-middle-y>
    <hc-key>de-rp-07135000</hc-key>
    <hc-a2>CZ</hc-a2>
  </desc>
</path>

<path fill="#CEE3F5" stroke="#6E6E6E" stroke-width="0.4" id="DE.RP.07336000" d="M357.3,478.3 L353.6,477.1 L351.6,479.2 L347.0,478.4 L344.1,482.9 L348.4,483.9 L349.0,487.8 L343.5,495.3 L337.1,497.8 L336.2,501.6 L331.2,498.6 L325.0,502.9 L318.1,503.2 L308.6,510.4 L298.9,525.1 L302.3,528.9 L301.6,531.8 L296.8,535.4 L290.3,535.7 L292.6,537.1 L288.8,542.5 L285.9,549.6 L288.7,551.3 L286.6,553.6 L279.8,556.6 L280.4,552.8 L277.4,550.7 L268.6,549.9 L264.4,547.0 L262.3,538.8 L258.6,534.5 L255.9,534.7 L252.7,526.9 L265.5,519.7 L264.6,513.7 L261.2,512.7 L261.6,504.1 L265.0,499.8 L267.9,499.7 L266.2,495.6 L260.5,494.5 L260.5,490.6 L271.6,488.0 L270.4,485.9 L280.7,474.3 L285.7,472.8 L293.9,476.7 L299.2,473.8 L299.7,468.0 L295.5,454.2 L298.0,453.1 L302.1,447.1 L306.6,446.0 L316.4,446.2 L318.8,444.4 L317.3,439.4 L318.2,435.5 L322.0,433.5 L322.2,437.6 L327.1,443.2 L330.6,442.5 L335.7,445.7 L340.2,443.4 L345.6,443.4 L348.0,439.3 L352.7,443.9 L350.3,444.5 L352.7,449.7 L348.7,454.4 L347.6,458.1 L350.1,461.5 L359.3,455.8 L364.8,459.9 L362.8,460.5 L363.6,464.6 L357.6,467.3 L359.6,471.3 Z">
  <desc xmlns="http://www.highcharts.com/svg/namespace">
    <name>Kusel</name>
    <bundesland>DE.RP</bundesland>
    <hc-middle-x>0.43</hc-middle-x>
    <hc-middle-y>0.48</hc-middle-y>
    <hc-key>de-rp-07336000</hc-key>
    <hc-a2>KU</hc-a2>
  </desc>
</path>

<path fill="#CEE3F5" stroke="#6E6E6E" stroke-width="0.4" id="DE.RP.07334000" d="M440.2,688.0 L442.3,676.0 L440.9,665.6 L437.9,666.4 L437.6,661.6 L442.3,662.2 L444.3,657.0 L448.5,657.7 L448.5,653.0 L452.0,652.4 L452.3,641.4 L456.1,643.2 L464.4,639.6 L466.4,645.3 L473.7,649.6 L473.6,646.9 L478.3,644.3 L486.1,643.7 L484.2,636.6 L486.3,634.1 L484.5,627.2 L475.3,627.7 L475.3,614.1 L480.3,613.8 L480.7,606.3 L479.2,596.2 L483.6,595.0 L482.9,590.8 L494.6,588.4 L499.8,583.5 L510.7,588.9 L510.9,593.7 L516.3,599.9 L521.1,600.2 L515.2,606.8 L514.5,610.8 L518.8,609.1 L517.6,615.1 L514.5,618.4 L510.3,630.4 L511.5,634.7 L508.5,652.0 L505.1,658.5 L498.1,667.0 L495.2,674.0 L493.6,683.6 L488.8,691.8 L478.3,700.0 L476.0,696.7 L470.7,699.8 L469.5,696.2 L456.0,695.2 L447.8,691.4 L445.6,691.6 Z">
  <desc xmlns="http://www.highcharts.com/svg/namespace">
    <name>Germersheim</name>
    <bundesland>DE.RP</bundesland>
    <hc-middle-x>0.39</hc-middle-x>
    <hc-middle-y>0.74</hc-middle-y>
    <hc-key>de-rp-07334000</hc-key>
    <hc-a2>GE</hc-a2>
  </desc>
</path>

<path fill="#CEE3F5" stroke="#6E6E6E" stroke-width="0.4" id="DE.RP.07131000" d="M159.4,200.2 L160.0,197.5 L156.1,195.2 L153.0,187.3 L156.5,179.3 L153.6,177.8 L153.6,173.7 L151.1,175.3 L147.4,171.8 L152.2,168.5 L151.0,161.3 L153.4,156.6 L160.9,154.4 L163.2,161.2 L168.6,163.7 L172.7,167.9 L177.7,164.3 L183.3,162.9 L184.4,157.3 L182.7,154.7 L184.9,151.1 L180.8,149.4 L183.0,145.7 L179.5,142.3 L183.8,141.1 L185.6,143.0 L190.7,139.6 L188.8,132.9 L195.5,129.9 L196.6,132.1 L201.0,132.0 L202.8,129.2 L206.0,129.6 L214.7,119.4 L219.5,115.3 L222.3,120.2 L228.1,122.6 L233.8,113.6 L240.1,118.0 L241.7,112.9 L245.8,113.8 L249.7,109.9 L251.9,101.3 L254.7,100.9 L254.8,110.2 L254.1,121.1 L256.2,123.9 L266.1,127.7 L268.7,131.7 L273.0,147.5 L275.2,151.7 L283.4,162.7 L280.7,166.0 L274.8,166.3 L271.0,172.5 L269.9,179.7 L263.0,180.5 L269.5,183.5 L267.1,190.0 L263.3,191.6 L255.4,186.0 L250.5,186.3 L245.6,184.9 L238.5,191.2 L234.0,192.5 L232.8,186.5 L228.0,187.4 L227.4,190.5 L222.1,188.3 L214.7,190.6 L213.2,193.6 L209.0,195.2 L207.7,192.0 L206.7,196.9 L200.9,205.9 L196.9,210.1 L197.7,213.1 L193.4,212.6 L191.6,218.1 L185.1,219.9 L179.7,215.3 L175.0,215.7 L171.0,213.3 L167.0,215.9 L162.3,211.8 L157.3,212.6 L160.7,208.1 L158.8,203.8 Z">
  <desc xmlns="http://www.highcharts.com/svg/namespace">
    <name>Ahrweiler</name>
    <bundesland>DE.RP</bundesland>
    <hc-middle-x>0.39</hc-middle-x>
    <hc-middle-y>0.58</hc-middle-y>
    <hc-key>de-rp-07131000</hc-key>
    <hc-a2>AH</hc-a2>
  </desc>
</path>

<path fill="#CEE3F5" stroke="#6E6E6E" stroke-width="0.4" id="DE.RP.07232000" d="M79.3,389.0 L74.5,392.2 L69.3,392.4 L61.6,388.0 L54.3,377.7 L48.8,378.4 L45.7,382.5 L42.4,370.4 L38.9,371.4 L38.1,368.8 L31.4,366.1 L23.8,355.4 L24.5,351.7 L22.0,351.0 L24.2,346.2 L21.8,343.3 L23.6,341.4 L20.1,339.7 L17.5,341.7 L16.7,335.1 L13.7,340.0 L10.4,332.5 L11.6,328.9 L5.6,324.9 L7.3,320.9 L4.9,317.3 L6.7,315.0 L3.3,312.5 L4.3,309.0 L0.0,299.7 L3.6,297.1 L0.7,296.4 L3.2,287.1 L5.5,286.2 L4.0,281.8 L6.7,275.3 L10.3,273.0 L5.4,268.0 L9.0,266.3 L7.5,263.0 L9.1,260.2 L18.3,260.2 L19.1,257.1 L16.6,246.7 L14.1,245.1 L16.3,240.2 L22.0,238.7 L25.8,232.8 L35.6,229.3 L40.0,230.0 L43.3,225.7 L42.1,224.4 L46.9,212.1 L51.9,209.8 L53.5,212.8 L59.2,216.2 L64.4,211.2 L74.1,211.2 L72.9,214.4 L79.0,220.5 L83.4,214.7 L85.7,225.6 L93.1,225.0 L95.0,233.4 L97.8,237.7 L102.2,236.7 L105.3,240.0 L104.1,245.1 L110.5,247.0 L109.6,252.1 L111.5,253.5 L109.7,257.4 L105.3,260.6 L100.9,260.5 L104.0,264.8 L101.4,267.7 L103.3,270.7 L99.8,274.7 L108.2,278.9 L105.2,281.6 L109.3,284.9 L107.3,287.9 L114.8,289.4 L119.9,285.3 L122.5,287.7 L125.3,293.7 L129.8,295.0 L131.9,293.3 L133.8,297.6 L132.4,300.8 L133.0,306.4 L137.3,311.5 L132.8,314.0 L133.0,319.5 L136.9,326.7 L139.0,333.3 L135.7,332.8 L128.1,339.7 L130.5,344.8 L133.2,345.8 L133.2,352.7 L134.7,355.8 L134.4,361.2 L130.5,356.5 L126.9,359.7 L126.4,363.9 L120.5,366.2 L116.8,370.9 L113.0,368.1 L108.6,368.7 L109.9,363.3 L105.2,366.9 L105.0,371.4 L95.2,374.8 L91.2,378.0 L92.8,383.1 L86.2,382.9 Z">
  <desc xmlns="http://www.highcharts.com/svg/namespace">
    <name>Eifelkreis Bitburg-Prüm</name>
    <bundesland>DE.RP</bundesland>
    <hc-middle-x>0.47</hc-middle-x>
    <hc-middle-y>0.45</hc-middle-y>
    <hc-key>de-rp-07232000</hc-key>
    <hc-a2>EB</hc-a2>
  </desc>
</path>

<path fill="#CEE3F5" stroke="#6E6E6E" stroke-width="0.4" id="DE.RP.07140000" d="M247.0,342.5 L250.0,342.2 L256.1,345.1 L258.3,344.3 L260.3,339.3 L265.5,341.5 L267.2,337.6 L266.3,333.2 L270.6,333.6 L277.3,329.8 L277.5,327.3 L282.2,326.1 L279.9,321.4 L276.0,309.1 L279.2,308.9 L280.1,302.4 L283.8,302.5 L287.8,297.2 L294.1,291.7 L291.2,285.7 L287.6,283.9 L285.1,280.1 L289.4,274.6 L295.6,274.1 L300.4,269.4 L297.0,263.4 L298.4,260.7 L305.2,255.9 L307.1,261.5 L309.4,260.7 L315.0,252.1 L318.6,250.3 L320.4,242.4 L325.2,238.3 L328.4,241.0 L339.8,241.3 L342.2,239.4 L343.5,242.6 L347.6,245.8 L339.7,244.0 L334.5,247.2 L335.9,249.4 L340.3,250.2 L343.8,255.8 L348.4,260.2 L349.1,268.9 L362.2,275.0 L366.7,280.3 L370.2,287.2 L366.5,291.6 L375.9,303.9 L362.4,310.5 L354.6,318.8 L353.4,321.8 L358.9,321.5 L360.7,328.4 L363.7,329.1 L368.5,333.5 L357.5,334.1 L362.1,340.1 L356.1,341.0 L352.6,344.2 L353.3,347.2 L350.9,349.2 L351.6,354.0 L348.6,357.4 L344.5,355.6 L341.3,359.0 L336.2,361.6 L330.9,367.8 L324.3,369.1 L314.6,380.1 L311.5,381.8 L306.9,379.1 L296.6,388.1 L297.0,384.5 L294.0,381.8 L290.9,382.5 L290.0,380.7 L290.2,369.3 L281.9,367.0 L277.3,368.2 L274.0,366.8 L271.0,372.2 L267.1,374.0 L264.1,372.7 L265.6,369.4 L264.3,366.5 L258.2,369.3 L255.2,367.9 L250.8,371.3 L248.5,365.9 L250.5,361.9 L253.6,360.4 L258.5,351.6 L251.2,348.9 L249.4,343.9 Z">
  <desc xmlns="http://www.highcharts.com/svg/namespace">
    <name>Rhein-Hunsrück-Kreis</name>
    <bundesland>DE.RP</bundesland>
    <hc-middle-x>0.57</hc-middle-x>
    <hc-middle-y>0.46</hc-middle-y>
    <hc-key>de-rp-07140000</hc-key>
    <hc-a2>RH</hc-a2>
  </desc>
</path>

<path fill="#CEE3F5" stroke="#6E6E6E" stroke-width="0.4" id="DE.RP.07233000" d="M74.1,211.2 L73.9,207.3 L71.7,207.5 L66.4,193.7 L65.7,189.2 L72.1,187.6 L75.6,197.0 L77.8,194.1 L82.6,198.7 L81.9,204.0 L87.7,206.1 L98.4,195.6 L101.2,196.8 L115.0,189.4 L115.1,194.1 L119.9,194.3 L119.3,202.5 L122.1,204.8 L125.2,204.0 L126.8,197.2 L129.4,195.7 L133.6,200.6 L136.2,208.6 L137.8,206.2 L143.9,203.0 L148.7,202.6 L152.7,200.2 L159.4,200.2 L158.8,203.8 L160.7,208.1 L157.3,212.6 L162.3,211.8 L167.0,215.9 L171.0,213.3 L175.0,215.7 L179.7,215.3 L185.1,219.9 L191.6,218.1 L193.4,212.6 L197.7,213.1 L196.9,210.1 L200.9,205.9 L206.5,205.8 L207.2,208.9 L212.9,211.1 L208.3,212.7 L205.1,216.4 L198.1,220.9 L203.6,226.9 L208.0,228.4 L207.8,225.6 L213.4,227.4 L219.3,230.9 L219.7,231.9 L215.2,243.3 L212.6,245.1 L210.5,249.9 L204.8,251.9 L202.2,245.7 L198.0,245.6 L193.1,250.1 L192.9,258.6 L196.5,272.0 L192.5,273.3 L197.1,280.2 L201.0,281.1 L198.3,284.0 L197.3,294.6 L194.6,294.5 L194.5,297.7 L190.7,300.7 L188.9,297.7 L181.6,302.6 L177.7,292.4 L174.3,290.4 L174.5,286.9 L169.8,282.0 L161.8,284.4 L151.1,289.7 L151.1,287.7 L146.5,286.1 L145.5,289.4 L140.6,295.6 L134.2,295.9 L133.8,297.6 L131.9,293.3 L129.8,295.0 L125.3,293.7 L122.5,287.7 L119.9,285.3 L114.8,289.4 L107.3,287.9 L109.3,284.9 L105.2,281.6 L108.2,278.9 L99.8,274.7 L103.3,270.7 L101.4,267.7 L104.0,264.8 L100.9,260.5 L105.3,260.6 L109.7,257.4 L111.5,253.5 L109.6,252.1 L110.5,247.0 L104.1,245.1 L105.3,240.0 L102.2,236.7 L97.8,237.7 L95.0,233.4 L93.1,225.0 L85.7,225.6 L83.4,214.7 L79.0,220.5 L72.9,214.4 Z">
  <desc xmlns="http://www.highcharts.com/svg/namespace">
    <name>Vulkaneifel</name>
    <bundesland>DE.RP</bundesland>
    <hc-middle-x>0.55</hc-middle-x>
    <hc-middle-y>0.50</hc-middle-y>
    <hc-key>de-rp-07233000</hc-key>
    <hc-a2>VU</hc-a2>
  </desc>
</path>

<path fill="#CEE3F5" stroke="#6E6E6E" stroke-width="0.4" id="DE.RP.07317000" d="M334.4,628.5 L329.8,634.3 L327.6,633.7 L331.1,624.9 L324.0,627.5 L313.2,615.9 L314.1,611.1 L322.2,608.0 L326.1,603.0 L333.1,603.6 L332.9,606.8 L336.3,609.1 L344.5,607.2 L345.0,605.4 L349.8,605.5 L347.4,610.2 L347.8,612.9 L345.1,617.1 L345.4,620.4 L340.0,623.3 L342.0,625.6 L340.5,628.7 Z">
  <desc xmlns="http://www.highcharts.com/svg/namespace">
    <name>Pirmasens</name>
    <bundesland>DE.RP</bundesland>
    <hc-middle-x>0.43</hc-middle-x>
    <hc-middle-y>0.50</hc-middle-y>
    <hc-key>de-rp-07317000</hc-key>
    <hc-a2>PI</hc-a2>
  </desc>
</path>

<path fill="#CEE3F5" stroke="#6E6E6E" stroke-width="0.4" id="DE.RP.07333000" d="M418.3,514.2 L416.7,513.1 L416.8,507.3 L414.9,500.6 L407.4,498.3 L397.3,502.7 L394.4,502.4 L390.1,505.4 L388.8,499.4 L382.1,496.6 L374.4,498.5 L372.4,494.4 L377.0,489.1 L375.5,486.5 L370.1,484.8 L367.5,481.8 L368.5,475.5 L366.2,479.4 L362.6,477.8 L357.3,478.3 L359.6,471.3 L357.6,467.3 L363.6,464.6 L362.8,460.5 L364.8,459.9 L359.3,455.8 L363.5,449.1 L363.3,445.0 L366.9,440.0 L364.1,434.1 L365.9,431.3 L374.3,423.5 L372.4,418.4 L375.8,416.5 L377.6,421.2 L381.8,418.7 L387.6,421.1 L392.1,417.5 L396.3,416.3 L398.1,419.8 L404.3,418.9 L406.2,421.3 L409.2,424.9 L416.1,420.2 L414.3,428.8 L420.6,432.0 L418.5,439.3 L426.4,440.4 L431.9,436.2 L438.0,438.3 L441.2,441.9 L451.1,440.9 L453.0,448.0 L455.2,450.7 L457.9,449.8 L462.9,455.3 L463.7,459.1 L462.3,466.3 L456.2,471.4 L452.8,478.5 L453.5,481.2 L447.6,484.0 L446.9,487.2 L450.2,492.0 L441.4,495.9 L437.0,502.6 L431.6,506.0 L428.5,511.5 Z">
  <desc xmlns="http://www.highcharts.com/svg/namespace">
    <name>Donnersbergkreis</name>
    <bundesland>DE.RP</bundesland>
    <hc-middle-x>0.47</hc-middle-x>
    <hc-middle-y>0.48</hc-middle-y>
    <hc-key>de-rp-07333000</hc-key>
    <hc-a2>DO</hc-a2>
  </desc>
</path>
</g>

<text x="350" y="714" text-anchor="middle" font-family="Verdana" font-size="8" stroke-opacity="0.6">Copyright (c) 2014 Highsoft AS, Based on data from GeoBasis-DE / BKG 2014</text>

</svg>