<?xml version="1.0" encoding="utf-8" standalone="no"?>
<!DOCTYPE svg PUBLIC "-//W3C//DTD SVG 1.1//EN" "http://www.w3.org/Graphics/SVG/1.1/DTD/svg11.dtd">

<svg version="1.1" height="700pt" width="700pt" xmlns="http://www.w3.org/2000/svg" xmlns:xlink="http://www.w3.org/1999/xlink">
<desc>
Map version: 1.1.1
Copyright (c) 2014 Highsoft AS, Based on data from GeoBasis-DE / BKG 2014
</desc>
<title>Sachsen</title>
<g id="admin2">

<g id="DE">
  <desc xmlns="http://www.highcharts.com/svg/namespace">
    <name>Germany</name>
    <labelrank>2</labelrank>
    <country-abbrev>Ger.</country-abbrev>
    <subregion>Western Europe</subregion>
    <woe-id>23424829</woe-id>
    <region-wb>Europe &amp; Central Asia</region-wb>
    <iso-a3>DEU</iso-a3>
    <iso-a2>DE</iso-a2>
    <region-un>Europe</region-un>
    <continent>Europe</continent>
    <hc-key>de</hc-key>
    <hc-a2>GE</hc-a2>
  </desc>
</g>

<g id="DE.SN">
  <desc xmlns="http://www.highcharts.com/svg/namespace">
    <labelrank>3</labelrank>
    <hasc>DE.SN</hasc>
    <alt-name>Saxony</alt-name>
    <woe-id>2345493</woe-id>
    <subregion>NULL</subregion>
    <fips>GM13</fips>
    <postal-code>SN</postal-code>
    <name>Sachsen</name>
    <country>Germany</country>
    <type-en>State</type-en>
    <region>NULL</region>
    <longitude>13.4596</longitude>
    <woe-name>Sachsen</woe-name>
    <latitude>51.0053</latitude>
    <woe-label>Saxony, DE, Germany</woe-label>
    <type>Land</type>
    <hc-key>de-sn</hc-key>
    <hc-a2>SA</hc-a2>
  </desc>
</g>

<path fill="#CEE3F5" stroke="#6E6E6E" stroke-width="0.4" id="DE.SN.14522000" d="M394.9,298.3 L388.8,301.1 L389.2,303.2 L383.7,305.1 L374.4,303.3 L366.7,306.7 L369.7,311.3 L370.8,316.2 L369.8,319.4 L367.7,319.3 L363.9,323.5 L366.5,325.7 L366.1,329.3 L361.1,331.2 L356.6,327.2 L357.4,325.5 L351.3,322.4 L349.4,320.2 L345.6,320.0 L346.5,316.1 L340.4,313.2 L338.7,308.9 L333.1,302.9 L332.4,295.2 L334.6,295.5 L331.6,289.1 L327.1,289.8 L321.3,293.4 L318.5,291.4 L313.3,293.6 L310.7,289.9 L312.7,285.1 L306.5,280.3 L304.7,282.3 L301.5,279.2 L288.1,277.6 L282.3,282.2 L277.4,279.1 L278.4,276.3 L276.6,274.2 L273.1,275.4 L270.6,278.1 L267.1,274.6 L265.7,271.3 L262.7,268.9 L263.9,267.6 L260.8,264.3 L263.2,259.2 L263.0,256.8 L259.5,254.3 L257.4,254.9 L254.1,252.7 L249.5,252.6 L249.6,248.3 L252.3,245.2 L250.0,242.2 L250.3,239.4 L247.4,237.8 L242.5,238.3 L235.4,240.4 L230.3,238.2 L230.7,235.5 L228.5,234.2 L219.6,235.9 L214.9,240.2 L209.6,246.4 L207.2,244.5 L203.7,246.2 L203.6,243.5 L201.1,242.1 L196.0,236.2 L196.0,232.6 L194.1,231.6 L191.1,233.8 L187.1,231.6 L185.5,233.0 L181.7,229.4 L180.0,226.1 L177.0,225.7 L174.6,223.8 L172.2,219.0 L169.8,205.6 L173.4,206.4 L175.1,204.8 L179.7,205.2 L180.9,203.6 L185.0,204.6 L189.5,197.1 L195.0,200.5 L196.5,198.7 L194.7,193.1 L191.0,191.7 L191.2,189.6 L195.1,186.7 L195.1,182.0 L192.4,178.4 L194.8,173.1 L194.7,170.5 L198.9,167.1 L199.2,162.9 L208.8,165.0 L212.5,164.4 L211.7,166.5 L213.9,168.6 L220.3,168.0 L221.1,166.7 L228.0,168.2 L231.3,166.6 L232.7,162.7 L229.6,158.2 L232.0,155.2 L226.8,149.7 L223.9,149.7 L222.4,147.0 L225.3,142.2 L229.7,138.1 L230.3,133.1 L234.4,127.0 L239.1,128.0 L239.7,125.3 L247.6,123.1 L254.1,124.4 L254.2,127.3 L259.5,129.9 L259.7,132.1 L265.3,131.8 L266.0,127.5 L269.7,127.9 L273.1,125.9 L275.1,128.6 L279.6,128.2 L278.5,124.6 L288.0,125.6 L288.2,123.0 L293.6,123.3 L296.0,121.1 L299.3,122.6 L301.1,127.2 L297.7,129.1 L301.1,132.4 L302.2,139.3 L301.5,141.7 L304.5,141.8 L308.4,147.0 L310.7,146.5 L309.0,156.9 L310.1,159.4 L308.7,163.2 L304.4,163.4 L304.1,167.1 L309.7,164.4 L311.0,169.5 L310.5,180.7 L307.3,180.4 L308.1,184.1 L312.5,185.1 L310.2,187.1 L311.2,189.3 L307.2,192.9 L306.5,196.7 L304.0,198.4 L305.7,200.3 L314.6,192.2 L325.4,190.5 L329.6,187.2 L339.0,185.6 L341.8,189.2 L346.4,191.8 L350.6,193.8 L352.5,196.4 L348.8,201.0 L347.1,205.0 L349.3,210.3 L357.4,209.7 L357.3,211.9 L348.7,218.7 L347.1,223.3 L353.1,223.9 L350.9,228.6 L353.5,230.4 L352.9,233.4 L354.1,238.2 L359.9,241.3 L362.8,250.2 L365.6,254.1 L362.2,257.0 L362.9,259.6 L365.6,260.4 L367.3,264.2 L371.7,263.4 L374.8,269.1 L378.7,269.9 L374.8,270.7 L375.8,272.4 L373.0,277.6 L373.0,279.9 L378.2,283.5 L382.7,282.2 L384.6,284.3 L387.4,291.9 L391.5,294.4 Z">
  <desc xmlns="http://www.highcharts.com/svg/namespace">
    <name>Mittelsachsen</name>
    <bundesland>DE.SN</bundesland>
    <hc-middle-x>0.58</hc-middle-x>
    <hc-middle-y>0.49</hc-middle-y>
    <hc-key>de-sn-14522000</hc-key>
    <hc-a2>MI</hc-a2>
  </desc>
</path>

<path fill="#CEE3F5" stroke="#6E6E6E" stroke-width="0.4" id="DE.SN.14511000" d="M209.6,246.4 L214.9,240.2 L219.6,235.9 L228.5,234.2 L230.7,235.5 L230.3,238.2 L235.4,240.4 L242.5,238.3 L247.4,237.8 L250.3,239.4 L250.0,242.2 L252.3,245.2 L249.6,248.3 L249.5,252.6 L254.1,252.7 L257.4,254.9 L259.5,254.3 L263.0,256.8 L263.2,259.2 L260.8,264.3 L263.9,267.6 L262.7,268.9 L255.6,281.4 L249.9,277.9 L249.4,282.1 L243.8,286.7 L241.0,284.8 L237.4,286.6 L237.5,290.1 L231.9,289.7 L228.2,285.9 L227.7,283.0 L225.3,281.8 L229.1,279.5 L227.5,275.4 L223.1,276.8 L224.0,274.2 L216.9,269.2 L211.5,273.8 L206.8,274.9 L203.2,273.1 L201.2,265.4 L196.7,261.7 L192.1,263.0 L194.6,259.1 L197.4,260.8 L202.3,261.3 L204.6,256.8 L209.6,252.8 Z">
  <desc xmlns="http://www.highcharts.com/svg/namespace">
    <name>Chemnitz</name>
    <bundesland>DE.SN</bundesland>
    <hc-middle-x>0.62</hc-middle-x>
    <hc-middle-y>0.43</hc-middle-y>
    <hc-key>de-sn-14511000</hc-key>
    <hc-a2>CH</hc-a2>
  </desc>
</path>

<path fill="#CEE3F5" stroke="#6E6E6E" stroke-width="0.4" id="DE.SN.14626000" d="M572.2,18.8 L572.8,14.1 L583.5,12.9 L586.9,14.7 L593.8,11.5 L593.2,8.0 L596.7,8.1 L598.6,5.4 L605.0,8.8 L607.3,16.3 L613.4,14.9 L619.0,14.8 L621.1,16.2 L624.3,13.2 L625.9,7.9 L628.2,7.2 L626.1,0.2 L628.5,0.0 L633.3,5.4 L629.2,12.0 L633.0,16.3 L633.0,22.5 L634.5,24.8 L641.1,27.2 L647.7,27.7 L650.8,31.6 L655.4,32.5 L659.8,37.6 L663.9,39.2 L667.5,38.2 L669.5,40.1 L674.9,40.0 L675.9,43.2 L680.2,43.6 L682.1,48.3 L686.0,53.9 L684.4,59.5 L684.5,63.0 L682.7,65.2 L684.9,69.4 L685.0,75.9 L688.1,77.6 L684.1,81.9 L686.0,82.8 L686.8,88.8 L690.2,95.3 L693.6,97.5 L694.5,103.0 L699.0,105.4 L700.0,117.5 L697.1,119.3 L699.9,122.5 L695.3,128.3 L695.1,133.1 L693.3,136.4 L694.7,139.6 L692.7,141.2 L693.6,144.1 L690.3,150.8 L691.8,155.5 L689.7,158.4 L691.0,161.4 L689.3,166.9 L687.0,170.3 L688.2,175.9 L686.5,177.2 L687.1,180.7 L681.6,191.2 L679.8,198.2 L677.4,200.6 L678.1,203.4 L676.1,208.1 L673.5,209.3 L673.7,216.4 L670.4,217.2 L668.2,224.7 L669.0,228.0 L664.3,231.4 L662.5,236.1 L659.4,238.2 L657.3,241.8 L652.1,247.2 L653.3,252.7 L650.0,259.1 L647.7,268.8 L640.3,270.0 L634.3,266.7 L629.5,268.6 L630.2,265.5 L627.7,262.5 L623.6,263.5 L618.0,259.5 L614.4,259.7 L608.0,256.6 L611.9,242.8 L615.6,240.0 L615.0,231.0 L607.7,233.0 L600.3,236.9 L596.2,235.4 L595.3,233.0 L599.8,227.3 L603.2,220.1 L603.9,211.6 L600.0,209.4 L599.4,207.0 L595.6,204.7 L589.8,205.8 L591.0,203.5 L587.8,200.6 L581.9,199.4 L584.1,192.1 L580.4,191.9 L578.9,190.1 L580.2,185.8 L576.5,182.6 L579.7,180.2 L586.4,178.8 L595.2,178.9 L598.2,175.5 L597.0,172.2 L600.8,170.7 L598.3,167.4 L598.9,165.4 L608.3,166.3 L605.7,164.3 L606.6,162.0 L612.5,161.0 L613.1,156.8 L617.5,152.7 L620.5,155.8 L622.4,155.7 L622.0,149.6 L625.9,144.7 L619.9,140.5 L622.6,137.5 L622.5,134.0 L618.8,134.1 L615.1,131.6 L614.5,127.2 L612.9,130.2 L609.1,127.2 L612.5,120.8 L610.3,117.5 L607.4,117.0 L609.7,110.5 L604.7,107.1 L605.9,100.4 L601.8,98.9 L603.4,96.3 L599.8,94.7 L597.0,97.0 L590.4,86.2 L588.3,86.5 L587.8,93.0 L583.7,93.3 L578.4,95.6 L576.9,88.3 L573.9,86.9 L575.0,83.4 L579.9,75.6 L578.6,73.3 L580.9,68.1 L584.6,64.5 L588.1,57.0 L585.0,55.1 L584.6,51.6 L579.6,50.6 L582.2,46.9 L578.1,43.4 L577.2,38.7 L578.2,34.0 L576.2,29.6 L570.4,29.4 L573.1,22.8 Z">
  <desc xmlns="http://www.highcharts.com/svg/namespace">
    <name>Görlitz</name>
    <bundesland>DE.SN</bundesland>
    <hc-middle-x>0.61</hc-middle-x>
    <hc-middle-y>0.58</hc-middle-y>
    <hc-key>de-sn-14626000</hc-key>
    <hc-a2>GÖ</hc-a2>
  </desc>
</path>

<path fill="#CEE3F5" stroke="#6E6E6E" stroke-width="0.4" id="DE.SN.14521000" d="M361.1,331.2 L359.0,334.7 L355.6,337.4 L352.7,342.0 L347.5,338.7 L342.6,337.1 L339.8,330.4 L332.3,324.7 L333.6,332.8 L331.3,335.7 L322.0,339.1 L320.6,341.4 L321.2,348.5 L314.1,350.5 L312.3,344.8 L306.5,343.3 L301.5,348.8 L301.8,351.8 L299.0,355.8 L300.0,359.4 L295.6,365.9 L295.2,368.6 L292.3,370.7 L292.7,374.4 L288.5,374.9 L283.8,372.9 L279.4,373.5 L278.6,369.3 L271.6,374.5 L266.1,375.3 L261.5,374.8 L258.7,371.2 L256.1,372.2 L256.2,375.0 L254.2,379.1 L253.0,386.6 L254.0,391.0 L252.2,394.5 L247.5,398.0 L245.2,402.2 L240.1,404.4 L234.2,405.2 L225.1,398.6 L208.9,387.8 L208.1,391.1 L205.8,393.0 L206.5,397.7 L203.2,391.2 L189.7,396.8 L188.5,400.4 L183.4,405.0 L183.2,408.7 L175.9,401.6 L169.7,403.6 L163.4,401.7 L160.2,404.8 L156.0,404.4 L156.2,398.7 L146.1,391.5 L138.1,384.2 L136.7,382.2 L136.8,373.9 L133.6,376.3 L129.2,370.4 L132.3,369.1 L131.2,366.5 L134.1,363.0 L141.5,360.7 L145.2,355.6 L149.6,351.6 L154.7,352.1 L157.6,353.8 L162.3,352.1 L164.8,347.5 L158.1,346.0 L156.2,344.2 L157.7,340.0 L161.2,338.5 L159.6,333.9 L162.2,331.4 L168.7,331.0 L169.8,326.5 L172.6,324.0 L181.1,326.7 L186.7,323.6 L186.8,320.7 L183.6,319.3 L184.0,315.7 L186.3,315.4 L188.9,307.7 L185.6,307.0 L186.8,303.8 L180.2,302.8 L174.5,299.7 L171.8,297.2 L173.8,293.4 L177.5,295.2 L178.1,292.4 L174.4,284.6 L176.8,285.6 L182.4,284.5 L183.4,289.9 L188.2,290.3 L191.5,285.9 L188.4,279.5 L194.5,276.2 L197.5,279.1 L200.1,275.0 L203.2,273.1 L206.8,274.9 L211.5,273.8 L216.9,269.2 L224.0,274.2 L223.1,276.8 L227.5,275.4 L229.1,279.5 L225.3,281.8 L227.7,283.0 L228.2,285.9 L231.9,289.7 L237.5,290.1 L237.4,286.6 L241.0,284.8 L243.8,286.7 L249.4,282.1 L249.9,277.9 L255.6,281.4 L262.7,268.9 L265.7,271.3 L267.1,274.6 L270.6,278.1 L273.1,275.4 L276.6,274.2 L278.4,276.3 L277.4,279.1 L282.3,282.2 L288.1,277.6 L301.5,279.2 L304.7,282.3 L306.5,280.3 L312.7,285.1 L310.7,289.9 L313.3,293.6 L318.5,291.4 L321.3,293.4 L327.1,289.8 L331.6,289.1 L334.6,295.5 L332.4,295.2 L333.1,302.9 L338.7,308.9 L340.4,313.2 L346.5,316.1 L345.6,320.0 L349.4,320.2 L351.3,322.4 L357.4,325.5 L356.6,327.2 Z">
  <desc xmlns="http://www.highcharts.com/svg/namespace">
    <name>Erzgebirgskreis</name>
    <bundesland>DE.SN</bundesland>
    <hc-middle-x>0.51</hc-middle-x>
    <hc-middle-y>0.45</hc-middle-y>
    <hc-key>de-sn-14521000</hc-key>
    <hc-a2>ER</hc-a2>
  </desc>
</path>

<path fill="#CEE3F5" stroke="#6E6E6E" stroke-width="0.4" id="DE.SN.14523000" d="M156.0,404.4 L150.3,406.9 L147.5,406.3 L139.9,407.3 L133.9,416.6 L135.1,421.9 L132.6,424.5 L130.0,421.6 L123.7,426.2 L121.1,432.5 L115.0,431.9 L113.7,432.8 L114.6,440.0 L112.5,443.7 L107.3,445.1 L104.6,449.1 L102.3,455.9 L104.2,459.9 L101.8,461.8 L97.9,459.5 L95.7,471.7 L98.9,477.0 L96.8,479.2 L97.8,484.2 L89.0,482.8 L87.9,478.8 L84.8,474.9 L87.7,473.0 L87.0,468.8 L89.4,466.6 L85.2,462.3 L83.5,462.7 L77.5,457.2 L80.3,454.3 L83.2,455.6 L83.6,453.4 L81.0,449.0 L79.5,450.0 L69.5,448.0 L69.7,442.3 L68.4,440.9 L69.2,436.0 L66.7,434.4 L66.3,430.7 L58.9,430.5 L50.6,432.0 L45.5,429.2 L45.8,426.3 L43.2,428.2 L39.8,425.9 L32.6,426.7 L31.8,422.9 L29.0,420.5 L25.6,420.8 L25.1,418.1 L20.5,418.5 L22.6,414.3 L21.4,408.9 L22.8,406.3 L18.6,401.9 L15.6,403.6 L16.4,399.3 L12.3,393.4 L9.0,393.0 L9.6,390.2 L4.7,389.0 L2.4,386.0 L6.2,382.4 L9.3,382.6 L12.3,379.3 L14.6,380.8 L15.7,374.1 L18.5,374.5 L19.8,371.7 L15.5,365.0 L12.7,363.3 L13.3,359.5 L11.7,357.7 L10.1,360.8 L3.4,360.7 L0.0,352.5 L2.6,348.7 L11.1,347.5 L14.2,343.1 L12.2,337.0 L21.5,332.5 L26.9,329.0 L25.0,325.2 L29.4,323.4 L32.0,320.6 L34.4,323.7 L30.6,328.7 L33.9,333.5 L36.9,335.0 L36.9,339.6 L32.7,344.1 L35.9,349.1 L41.9,349.9 L44.7,349.0 L46.2,341.6 L51.4,341.0 L54.4,345.3 L57.1,342.9 L63.4,343.3 L64.5,340.9 L61.0,339.0 L59.4,340.2 L53.4,337.7 L54.8,334.7 L61.8,331.9 L62.7,324.1 L67.0,323.9 L68.2,329.5 L71.6,329.4 L71.1,326.4 L73.3,324.1 L73.6,320.2 L81.3,325.4 L83.8,323.2 L88.3,324.4 L88.2,320.0 L91.9,319.7 L95.9,317.4 L97.1,313.8 L100.2,313.4 L100.6,308.9 L104.7,309.9 L106.5,313.4 L109.3,310.0 L113.6,310.2 L113.8,316.0 L117.3,317.0 L122.9,324.8 L120.0,328.7 L127.0,331.8 L128.5,334.5 L126.2,335.7 L123.6,344.8 L125.8,349.8 L130.8,348.7 L132.7,352.0 L137.8,351.4 L140.3,349.4 L140.4,352.2 L145.2,355.6 L141.5,360.7 L134.1,363.0 L131.2,366.5 L132.3,369.1 L129.2,370.4 L133.6,376.3 L136.8,373.9 L136.7,382.2 L138.1,384.2 L146.1,391.5 L156.2,398.7 Z">
  <desc xmlns="http://www.highcharts.com/svg/namespace">
    <name>Vogtlandkreis</name>
    <bundesland>DE.SN</bundesland>
    <hc-middle-x>0.48</hc-middle-x>
    <hc-middle-y>0.46</hc-middle-y>
    <hc-key>de-sn-14523000</hc-key>
    <hc-a2>VO</hc-a2>
  </desc>
</path>

<path fill="#CEE3F5" stroke="#6E6E6E" stroke-width="0.4" id="DE.SN.14524000" d="M209.6,246.4 L209.6,252.8 L204.6,256.8 L202.3,261.3 L197.4,260.8 L194.6,259.1 L192.1,263.0 L196.7,261.7 L201.2,265.4 L203.2,273.1 L200.1,275.0 L197.5,279.1 L194.5,276.2 L188.4,279.5 L191.5,285.9 L188.2,290.3 L183.4,289.9 L182.4,284.5 L176.8,285.6 L174.4,284.6 L178.1,292.4 L177.5,295.2 L173.8,293.4 L171.8,297.2 L174.5,299.7 L180.2,302.8 L186.8,303.8 L185.6,307.0 L188.9,307.7 L186.3,315.4 L184.0,315.7 L183.6,319.3 L186.8,320.7 L186.7,323.6 L181.1,326.7 L172.6,324.0 L169.8,326.5 L168.7,331.0 L162.2,331.4 L159.6,333.9 L161.2,338.5 L157.7,340.0 L156.2,344.2 L158.1,346.0 L164.8,347.5 L162.3,352.1 L157.6,353.8 L154.7,352.1 L149.6,351.6 L145.2,355.6 L140.4,352.2 L140.3,349.4 L137.8,351.4 L132.7,352.0 L130.8,348.7 L125.8,349.8 L123.6,344.8 L126.2,335.7 L128.5,334.5 L127.0,331.8 L120.0,328.7 L122.9,324.8 L117.3,317.0 L113.8,316.0 L113.6,310.2 L109.3,310.0 L106.5,313.4 L104.7,309.9 L100.6,308.9 L101.4,307.3 L91.0,305.2 L88.5,302.0 L89.3,300.0 L86.7,294.8 L90.6,291.7 L89.5,287.3 L83.5,288.7 L81.1,285.6 L82.0,279.7 L84.8,276.6 L89.6,279.4 L94.2,275.0 L95.2,269.4 L87.6,269.4 L87.8,265.7 L85.6,262.3 L87.9,259.3 L89.3,261.6 L95.1,261.7 L96.7,257.6 L98.8,260.0 L108.8,258.1 L109.3,253.1 L112.9,250.3 L117.7,249.1 L122.0,249.3 L124.6,247.7 L123.3,250.8 L124.9,253.2 L129.9,251.8 L131.4,243.7 L134.9,242.9 L134.0,239.3 L139.1,236.6 L139.9,234.9 L145.2,235.1 L144.9,231.6 L147.9,230.3 L151.6,232.8 L156.4,231.1 L159.3,233.0 L167.8,231.5 L169.6,230.4 L173.9,232.7 L174.3,229.9 L177.0,225.7 L180.0,226.1 L181.7,229.4 L185.5,233.0 L187.1,231.6 L191.1,233.8 L194.1,231.6 L196.0,232.6 L196.0,236.2 L201.1,242.1 L203.6,243.5 L203.7,246.2 L207.2,244.5 Z">
  <desc xmlns="http://www.highcharts.com/svg/namespace">
    <name>Zwickau</name>
    <bundesland>DE.SN</bundesland>
    <hc-middle-x>0.51</hc-middle-x>
    <hc-middle-y>0.43</hc-middle-y>
    <hc-key>de-sn-14524000</hc-key>
    <hc-a2>ZW</hc-a2>
  </desc>
</path>

<path fill="#CEE3F5" stroke="#6E6E6E" stroke-width="0.4" id="DE.SN.14729000" d="M148.3,73.0 L156.2,68.7 L158.7,70.2 L165.3,66.8 L167.3,68.9 L168.3,65.8 L173.2,66.1 L175.1,62.8 L175.4,58.1 L179.6,56.6 L181.2,59.0 L182.4,56.3 L180.9,54.4 L181.4,46.0 L183.0,46.5 L185.5,43.4 L195.9,45.2 L197.3,42.0 L204.3,42.5 L212.4,37.5 L217.7,40.7 L218.3,43.4 L227.2,45.9 L231.9,46.1 L233.4,49.1 L237.0,50.2 L240.8,54.1 L241.3,56.6 L245.2,59.0 L243.6,60.8 L244.0,64.0 L240.2,64.5 L239.6,62.2 L236.9,62.3 L238.6,72.1 L240.0,70.8 L243.9,73.9 L241.6,79.0 L237.6,78.1 L235.4,81.2 L234.3,89.3 L231.0,91.9 L228.7,96.4 L234.6,100.9 L233.9,103.3 L237.3,104.7 L237.6,108.1 L240.2,107.3 L241.4,110.4 L239.7,111.4 L239.9,115.2 L236.8,119.1 L239.2,120.8 L235.7,121.3 L237.0,124.3 L239.7,125.3 L239.1,128.0 L234.4,127.0 L230.3,133.1 L229.7,138.1 L225.3,142.2 L222.4,147.0 L223.9,149.7 L226.8,149.7 L232.0,155.2 L229.6,158.2 L232.7,162.7 L231.3,166.6 L228.0,168.2 L221.1,166.7 L220.3,168.0 L213.9,168.6 L211.7,166.5 L212.5,164.4 L208.8,165.0 L199.2,162.9 L198.9,167.1 L194.7,170.5 L194.8,173.1 L192.4,178.4 L195.1,182.0 L195.1,186.7 L191.2,189.6 L191.0,191.7 L194.7,193.1 L196.5,198.7 L195.0,200.5 L189.5,197.1 L185.0,204.6 L180.9,203.6 L179.7,205.2 L175.1,204.8 L173.4,206.4 L169.8,205.6 L166.4,201.4 L162.0,202.4 L155.5,199.1 L152.8,199.7 L150.1,197.8 L153.2,196.4 L152.1,192.9 L153.1,190.0 L148.7,190.3 L145.4,186.0 L145.4,180.2 L146.8,179.8 L144.3,175.1 L138.4,175.6 L137.0,174.6 L136.2,168.5 L134.5,170.9 L128.0,170.4 L125.6,172.2 L122.2,168.2 L118.0,170.4 L113.4,167.6 L114.1,164.3 L108.8,160.8 L105.8,164.2 L102.9,162.8 L98.8,165.1 L97.1,162.0 L91.5,161.6 L86.7,160.1 L84.8,157.8 L89.4,151.1 L85.9,148.3 L79.7,146.5 L81.2,139.8 L83.9,132.2 L79.7,131.4 L75.6,132.6 L75.4,129.5 L78.4,129.2 L81.1,120.6 L79.8,106.3 L76.4,105.9 L74.8,103.2 L76.4,96.4 L75.8,93.6 L73.3,94.0 L72.9,87.8 L71.5,84.3 L75.3,84.2 L76.4,81.8 L81.8,81.1 L87.9,77.3 L92.7,75.2 L95.7,80.9 L91.0,82.9 L93.6,92.8 L96.2,92.7 L96.3,96.0 L99.9,98.9 L93.3,96.8 L93.2,104.2 L94.9,109.4 L93.1,111.8 L94.5,113.6 L100.0,112.2 L106.6,112.4 L106.1,110.4 L108.8,107.6 L109.2,103.2 L111.8,104.2 L115.7,98.7 L115.2,94.2 L119.0,97.6 L120.3,95.2 L121.9,99.1 L128.0,99.5 L132.9,98.6 L136.2,99.7 L136.3,104.6 L142.8,108.6 L144.2,107.3 L145.4,101.8 L147.8,100.2 L149.0,92.8 L156.3,92.3 L154.9,88.4 L157.4,86.0 L154.1,83.3 L156.8,81.6 L154.6,77.1 L150.4,77.8 Z">
  <desc xmlns="http://www.highcharts.com/svg/namespace">
    <name>Leipzig</name>
    <bundesland>DE.SN</bundesland>
    <hc-middle-x>0.65</hc-middle-x>
    <hc-middle-y>0.51</hc-middle-y>
    <hc-key>de-sn-14729000</hc-key>
    <hc-a2>LE</hc-a2>
  </desc>
</path>

<path fill="#CEE3F5" stroke="#6E6E6E" stroke-width="0.4" id="DE.SN.14612000" d="M381.3,182.0 L385.5,174.8 L384.2,171.7 L391.0,169.0 L398.6,172.5 L401.1,171.5 L404.9,174.2 L407.6,172.3 L405.5,170.2 L406.1,165.9 L409.5,166.1 L412.5,156.3 L417.1,158.8 L420.1,158.4 L422.9,155.0 L420.9,154.1 L421.4,151.1 L418.4,148.5 L419.4,146.5 L417.7,143.7 L422.6,144.3 L425.6,147.1 L430.3,146.9 L431.0,149.8 L438.4,154.9 L439.3,152.8 L443.0,150.5 L447.1,152.0 L448.9,156.8 L444.9,158.3 L450.4,169.5 L453.3,171.5 L452.1,176.6 L447.7,180.4 L453.5,181.9 L456.1,184.9 L460.3,184.0 L460.3,180.6 L465.5,184.4 L463.9,188.4 L465.2,189.5 L464.8,194.8 L460.7,196.9 L459.3,200.6 L452.4,202.2 L453.0,205.8 L449.7,208.9 L444.6,211.0 L441.7,207.9 L438.9,208.8 L436.0,212.6 L432.6,213.9 L428.6,212.2 L427.0,213.2 L426.6,209.7 L422.5,209.4 L421.4,204.7 L418.4,204.7 L413.4,201.5 L404.4,204.0 L403.2,199.5 L399.7,198.8 L400.4,192.4 L394.7,194.0 L388.8,192.6 L386.3,193.4 L386.4,189.6 L381.8,189.1 Z">
  <desc xmlns="http://www.highcharts.com/svg/namespace">
    <name>Dresden</name>
    <bundesland>DE.SN</bundesland>
    <hc-middle-x>0.60</hc-middle-x>
    <hc-middle-y>0.60</hc-middle-y>
    <hc-key>de-sn-14612000</hc-key>
    <hc-a2>DR</hc-a2>
  </desc>
</path>

<path fill="#CEE3F5" stroke="#6E6E6E" stroke-width="0.4" id="DE.SN.14627000" d="M422.6,144.3 L417.7,143.7 L419.4,146.5 L418.4,148.5 L421.4,151.1 L420.9,154.1 L422.9,155.0 L420.1,158.4 L417.1,158.8 L412.5,156.3 L409.5,166.1 L406.1,165.9 L405.5,170.2 L407.6,172.3 L404.9,174.2 L401.1,171.5 L398.6,172.5 L391.0,169.0 L384.2,171.7 L385.5,174.8 L381.3,182.0 L377.5,183.9 L365.9,183.4 L360.5,180.9 L353.3,185.0 L348.8,184.6 L346.4,191.8 L341.8,189.2 L339.0,185.6 L329.6,187.2 L325.4,190.5 L314.6,192.2 L305.7,200.3 L304.0,198.4 L306.5,196.7 L307.2,192.9 L311.2,189.3 L310.2,187.1 L312.5,185.1 L308.1,184.1 L307.3,180.4 L310.5,180.7 L311.0,169.5 L309.7,164.4 L304.1,167.1 L304.4,163.4 L308.7,163.2 L310.1,159.4 L309.0,156.9 L310.7,146.5 L308.4,147.0 L304.5,141.8 L301.5,141.7 L302.2,139.3 L301.1,132.4 L297.7,129.1 L301.1,127.2 L299.3,122.6 L301.1,119.2 L298.7,116.9 L299.1,112.8 L301.7,112.4 L303.5,109.3 L301.4,106.3 L303.2,100.8 L301.4,94.4 L300.9,88.2 L302.9,83.5 L298.9,78.1 L301.3,76.7 L300.1,73.1 L297.1,72.3 L298.9,65.6 L303.2,62.2 L304.7,65.6 L311.3,66.0 L315.7,69.4 L314.0,64.0 L319.7,64.5 L319.6,60.6 L329.0,55.2 L327.4,51.4 L330.2,51.5 L331.2,54.4 L335.6,52.8 L339.5,56.2 L342.2,48.2 L345.3,46.1 L346.0,48.9 L349.2,51.7 L350.7,54.9 L349.2,57.4 L354.6,54.1 L355.4,57.1 L358.8,57.6 L358.2,61.0 L370.7,64.6 L371.0,71.9 L374.2,72.0 L375.1,76.1 L377.0,72.7 L381.2,70.5 L385.5,71.1 L386.3,76.3 L391.3,75.8 L400.9,76.7 L402.5,74.3 L405.6,77.3 L407.4,75.1 L412.2,78.8 L417.8,79.7 L421.9,76.2 L425.9,79.6 L426.8,77.2 L432.7,75.8 L435.2,77.1 L438.7,74.6 L440.6,78.4 L442.9,88.7 L436.5,87.1 L434.8,94.4 L430.1,100.6 L434.3,107.5 L431.2,110.8 L435.2,112.9 L432.3,115.9 L433.4,119.3 L430.1,118.4 L430.6,123.3 L433.0,123.5 L429.2,127.4 L426.6,126.1 L425.8,129.6 L421.6,130.4 L425.8,132.2 L425.2,134.1 L428.9,136.6 L423.3,140.7 Z">
  <desc xmlns="http://www.highcharts.com/svg/namespace">
    <name>Meißen</name>
    <bundesland>DE.SN</bundesland>
    <hc-middle-x>0.40</hc-middle-x>
    <hc-middle-y>0.50</hc-middle-y>
    <hc-key>de-sn-14627000</hc-key>
    <hc-a2>ME</hc-a2>
  </desc>
</path>

<path fill="#CEE3F5" stroke="#6E6E6E" stroke-width="0.4" id="DE.SN.14628000" d="M542.5,187.7 L539.0,187.6 L535.6,193.3 L532.8,192.8 L535.3,195.5 L533.6,200.0 L534.5,201.2 L530.8,203.8 L531.6,206.6 L529.3,210.9 L534.4,214.4 L540.9,212.0 L544.9,212.8 L544.2,216.3 L541.2,216.3 L538.9,218.7 L542.0,220.3 L540.8,222.7 L548.6,224.8 L554.6,228.3 L557.4,227.1 L560.3,230.0 L560.5,233.3 L556.9,235.8 L557.3,241.9 L554.3,242.8 L548.8,241.3 L548.6,244.0 L539.3,246.8 L535.7,246.1 L530.9,242.9 L525.8,246.0 L523.4,245.5 L523.8,250.1 L521.1,255.3 L516.8,257.7 L507.5,259.3 L501.1,263.9 L491.8,266.5 L489.1,271.2 L480.9,271.7 L479.4,273.7 L469.8,268.3 L461.7,272.6 L462.1,275.0 L458.4,278.6 L453.8,278.8 L450.6,277.1 L446.9,285.0 L447.4,288.0 L450.2,291.3 L448.3,295.1 L445.1,296.5 L441.1,294.7 L440.1,299.8 L433.3,301.0 L429.1,297.8 L418.3,296.8 L414.3,299.7 L411.6,297.4 L407.1,303.1 L402.6,302.0 L398.1,297.8 L394.9,298.3 L391.5,294.4 L387.4,291.9 L384.6,284.3 L382.7,282.2 L378.2,283.5 L373.0,279.9 L373.0,277.6 L375.8,272.4 L374.8,270.7 L378.7,269.9 L374.8,269.1 L371.7,263.4 L367.3,264.2 L365.6,260.4 L362.9,259.6 L362.2,257.0 L365.6,254.1 L362.8,250.2 L359.9,241.3 L354.1,238.2 L352.9,233.4 L353.5,230.4 L350.9,228.6 L353.1,223.9 L347.1,223.3 L348.7,218.7 L357.3,211.9 L357.4,209.7 L349.3,210.3 L347.1,205.0 L348.8,201.0 L352.5,196.4 L350.6,193.8 L346.4,191.8 L348.8,184.6 L353.3,185.0 L360.5,180.9 L365.9,183.4 L377.5,183.9 L381.3,182.0 L381.8,189.1 L386.4,189.6 L386.3,193.4 L388.8,192.6 L394.7,194.0 L400.4,192.4 L399.7,198.8 L403.2,199.5 L404.4,204.0 L413.4,201.5 L418.4,204.7 L421.4,204.7 L422.5,209.4 L426.6,209.7 L427.0,213.2 L428.6,212.2 L432.6,213.9 L436.0,212.6 L438.9,208.8 L441.7,207.9 L444.6,211.0 L449.7,208.9 L453.0,205.8 L452.4,202.2 L459.3,200.6 L460.7,196.9 L464.8,194.8 L465.2,189.5 L463.9,188.4 L465.5,184.4 L469.0,182.0 L478.7,181.9 L481.1,182.8 L484.3,176.1 L486.6,180.3 L496.2,180.7 L502.2,175.1 L504.4,180.5 L508.5,183.2 L512.1,181.6 L513.9,176.0 L517.9,176.5 L525.0,179.4 L530.7,185.1 L534.0,181.0 L538.8,183.0 L543.1,183.2 Z">
  <desc xmlns="http://www.highcharts.com/svg/namespace">
    <name>Sächsische Schweiz-Osterzgebirge</name>
    <bundesland>DE.SN</bundesland>
    <hc-middle-x>0.51</hc-middle-x>
    <hc-middle-y>0.52</hc-middle-y>
    <hc-key>de-sn-14628000</hc-key>
    <hc-a2>SS</hc-a2>
  </desc>
</path>

<path fill="#CEE3F5" stroke="#6E6E6E" stroke-width="0.4" id="DE.SN.14625000" d="M580.4,191.9 L580.6,198.9 L576.7,198.1 L574.7,194.7 L572.2,194.5 L565.1,200.1 L562.2,200.4 L556.7,196.9 L556.6,193.4 L552.1,191.0 L546.2,193.0 L542.5,187.7 L543.1,183.2 L538.8,183.0 L534.0,181.0 L530.7,185.1 L525.0,179.4 L517.9,176.5 L513.9,176.0 L512.1,181.6 L508.5,183.2 L504.4,180.5 L502.2,175.1 L496.2,180.7 L486.6,180.3 L484.3,176.1 L481.1,182.8 L478.7,181.9 L469.0,182.0 L465.5,184.4 L460.3,180.6 L460.3,184.0 L456.1,184.9 L453.5,181.9 L447.7,180.4 L452.1,176.6 L453.3,171.5 L450.4,169.5 L444.9,158.3 L448.9,156.8 L447.1,152.0 L443.0,150.5 L439.3,152.8 L438.4,154.9 L431.0,149.8 L430.3,146.9 L425.6,147.1 L422.6,144.3 L423.3,140.7 L428.9,136.6 L425.2,134.1 L425.8,132.2 L421.6,130.4 L425.8,129.6 L426.6,126.1 L429.2,127.4 L433.0,123.5 L430.6,123.3 L430.1,118.4 L433.4,119.3 L432.3,115.9 L435.2,112.9 L431.2,110.8 L434.3,107.5 L430.1,100.6 L434.8,94.4 L436.5,87.1 L442.9,88.7 L440.6,78.4 L438.7,74.6 L438.8,72.8 L444.8,73.0 L449.0,75.4 L454.9,74.0 L454.6,72.6 L459.0,71.6 L465.1,68.0 L468.6,69.2 L468.0,75.4 L474.6,76.6 L474.0,72.2 L476.6,67.9 L480.7,68.6 L478.1,65.4 L484.4,60.7 L482.8,55.2 L488.5,51.5 L486.3,49.0 L486.9,46.1 L482.7,42.4 L483.4,39.5 L490.7,42.3 L494.2,39.8 L491.0,35.2 L495.9,33.4 L496.9,27.8 L498.5,25.2 L506.0,24.9 L503.3,21.0 L504.9,17.8 L513.9,19.3 L521.4,19.2 L528.7,23.4 L534.5,21.9 L538.7,24.4 L545.1,26.5 L545.5,30.7 L548.3,31.2 L549.5,26.9 L553.9,24.8 L556.6,21.8 L558.9,21.5 L559.1,18.8 L563.9,20.5 L570.8,18.0 L572.2,18.8 L573.1,22.8 L570.4,29.4 L576.2,29.6 L578.2,34.0 L577.2,38.7 L578.1,43.4 L582.2,46.9 L579.6,50.6 L584.6,51.6 L585.0,55.1 L588.1,57.0 L584.6,64.5 L580.9,68.1 L578.6,73.3 L579.9,75.6 L575.0,83.4 L573.9,86.9 L576.9,88.3 L578.4,95.6 L583.7,93.3 L587.8,93.0 L588.3,86.5 L590.4,86.2 L597.0,97.0 L599.8,94.7 L603.4,96.3 L601.8,98.9 L605.9,100.4 L604.7,107.1 L609.7,110.5 L607.4,117.0 L610.3,117.5 L612.5,120.8 L609.1,127.2 L612.9,130.2 L614.5,127.2 L615.1,131.6 L618.8,134.1 L622.5,134.0 L622.6,137.5 L619.9,140.5 L625.9,144.7 L622.0,149.6 L622.4,155.7 L620.5,155.8 L617.5,152.7 L613.1,156.8 L612.5,161.0 L606.6,162.0 L605.7,164.3 L608.3,166.3 L598.9,165.4 L598.3,167.4 L600.8,170.7 L597.0,172.2 L598.2,175.5 L595.2,178.9 L586.4,178.8 L579.7,180.2 L576.5,182.6 L580.2,185.8 L578.9,190.1 Z">
  <desc xmlns="http://www.highcharts.com/svg/namespace">
    <name>Bautzen</name>
    <bundesland>DE.SN</bundesland>
    <hc-middle-x>0.50</hc-middle-x>
    <hc-middle-y>0.55</hc-middle-y>
    <hc-key>de-sn-14625000</hc-key>
    <hc-a2>BA</hc-a2>
  </desc>
</path>

<path fill="#CEE3F5" stroke="#6E6E6E" stroke-width="0.4" id="DE.SN.14713000" d="M92.7,75.2 L93.0,67.4 L91.7,66.8 L96.3,64.3 L96.5,61.0 L98.7,58.6 L97.9,56.5 L99.0,50.7 L108.5,51.8 L118.5,52.1 L122.3,50.0 L126.9,52.4 L128.8,48.4 L132.8,49.5 L136.9,48.3 L136.9,42.2 L143.3,44.4 L143.5,47.9 L147.9,48.3 L146.9,53.1 L140.4,52.5 L139.9,55.5 L142.2,58.7 L141.0,62.0 L143.8,64.9 L141.5,70.2 L144.2,72.6 L148.3,73.0 L150.4,77.8 L154.6,77.1 L156.8,81.6 L154.1,83.3 L157.4,86.0 L154.9,88.4 L156.3,92.3 L149.0,92.8 L147.8,100.2 L145.4,101.8 L144.2,107.3 L142.8,108.6 L136.3,104.6 L136.2,99.7 L132.9,98.6 L128.0,99.5 L121.9,99.1 L120.3,95.2 L119.0,97.6 L115.2,94.2 L115.7,98.7 L111.8,104.2 L109.2,103.2 L108.8,107.6 L106.1,110.4 L106.6,112.4 L100.0,112.2 L94.5,113.6 L93.1,111.8 L94.9,109.4 L93.2,104.2 L93.3,96.8 L99.9,98.9 L96.3,96.0 L96.2,92.7 L93.6,92.8 L91.0,82.9 L95.7,80.9 Z">
  <desc xmlns="http://www.highcharts.com/svg/namespace">
    <name>Leipzig</name>
    <bundesland>DE.SN</bundesland>
    <hc-middle-x>0.44</hc-middle-x>
    <hc-middle-y>0.42</hc-middle-y>
    <hc-key>de-sn-14713000</hc-key>
    <hc-a2>LE</hc-a2>
  </desc>
</path>
</g>

<text x="350" y="714" text-anchor="middle" font-family="Verdana" font-size="8" stroke-opacity="0.6">Copyright (c) 2014 Highsoft AS, Based on data from GeoBasis-DE / BKG 2014</text>

</svg>