<?xml version="1.0" encoding="utf-8" standalone="no"?>
<!DOCTYPE svg PUBLIC "-//W3C//DTD SVG 1.1//EN" "http://www.w3.org/Graphics/SVG/1.1/DTD/svg11.dtd">

<svg version="1.1" height="700pt" width="700pt" xmlns="http://www.w3.org/2000/svg" xmlns:xlink="http://www.w3.org/1999/xlink">
<desc>
Map version: 1.1.1
Copyright (c) 2014 Highsoft AS, Based on data from GeoBasis-DE / BKG 2014
</desc>
<title>Schleswig-Holstein</title>
<g id="admin2">

<g id="DE.SH">
  <desc xmlns="http://www.highcharts.com/svg/namespace">
    <labelrank>3</labelrank>
    <hasc>DE.SH</hasc>
    <alt-name>NULL</alt-name>
    <woe-id>2345490</woe-id>
    <subregion>NULL</subregion>
    <fips>GM10</fips>
    <postal-code>SH</postal-code>
    <name>Schleswig-Holstein</name>
    <country>Germany</country>
    <type-en>State</type-en>
    <region>NULL</region>
    <longitude>9.84605</longitude>
    <woe-name>Schleswig-Holstein</woe-name>
    <latitude>54.1315</latitude>
    <woe-label>Schleswig-Holstein, DE, Germany</woe-label>
    <type>Land</type>
    <hc-key>de-sh</hc-key>
    <hc-a2>SH</hc-a2>
  </desc>
</g>

<g id="DE">
  <desc xmlns="http://www.highcharts.com/svg/namespace">
    <name>Germany</name>
    <labelrank>2</labelrank>
    <country-abbrev>Ger.</country-abbrev>
    <subregion>Western Europe</subregion>
    <woe-id>23424829</woe-id>
    <region-wb>Europe &amp; Central Asia</region-wb>
    <iso-a3>DEU</iso-a3>
    <iso-a2>DE</iso-a2>
    <region-un>Europe</region-un>
    <continent>Europe</continent>
    <hc-key>de</hc-key>
    <hc-a2>GE</hc-a2>
  </desc>
</g>

<path fill="#CEE3F5" stroke="#6E6E6E" stroke-width="0.4" id="DE.SH.01054000" d="M161.3,144.6 L159.3,146.1 L151.3,148.3 L146.7,147.9 L142.1,150.3 L139.0,153.4 L135.6,150.8 L137.5,147.3 L140.5,147.4 L150.4,145.2 L157.3,142.7 L160.3,139.8 L162.7,140.4 Z M133.2,167.1 L136.2,168.3 L141.1,167.2 L144.7,173.5 L139.1,174.7 L137.2,172.1 L133.0,170.1 L131.2,167.5 Z M177.6,144.8 L177.6,147.8 L173.9,150.4 L172.1,148.9 L174.0,146.2 Z M193.3,176.4 L195.8,177.4 L194.2,179.7 L188.0,176.8 L191.0,175.3 Z M169.9,131.7 L172.7,132.0 L172.0,134.6 L166.7,134.8 Z M196.1,158.5 L194.2,161.7 L192.9,161.1 L193.1,159.3 Z M109.7,116.6 L112.0,111.8 L115.3,108.7 L122.4,107.4 L126.8,107.6 L132.8,105.9 L133.5,107.1 L137.4,105.4 L141.6,106.2 L146.4,108.8 L147.8,110.7 L147.4,116.3 L149.3,118.7 L147.1,120.1 L143.1,132.0 L135.5,131.3 L126.7,131.7 L123.8,130.9 L120.4,127.6 L116.0,126.9 L109.0,123.2 Z M161.5,177.6 L167.1,174.8 L170.9,174.6 L172.1,176.2 L169.2,188.6 L166.4,193.7 L163.7,196.5 L157.3,198.3 L153.7,198.1 L148.0,191.5 L147.1,184.9 L149.2,182.6 L154.2,182.4 L157.9,178.8 Z M94.6,127.7 L96.7,124.6 L101.7,120.9 L97.5,126.3 L101.6,141.7 L105.6,145.8 L105.3,148.0 L109.8,150.4 L106.7,151.3 L109.4,153.7 L108.5,154.9 L102.4,156.2 L97.5,150.2 L89.6,139.4 L88.1,134.8 L91.3,130.0 Z M199.0,276.1 L198.3,271.8 L195.8,267.8 L193.9,267.5 L188.2,270.6 L183.7,270.2 L183.5,268.3 L178.9,267.6 L173.6,269.7 L169.9,269.3 L167.6,272.2 L160.8,269.8 L155.4,263.6 L151.1,261.4 L149.5,258.6 L150.4,255.1 L149.8,250.0 L153.6,249.2 L156.5,251.2 L161.3,247.9 L167.1,245.6 L168.3,244.0 L167.5,238.6 L160.6,238.2 L159.9,233.1 L164.1,229.3 L174.7,228.4 L174.6,227.5 L195.4,224.6 L200.6,227.4 L208.1,225.7 L216.1,217.7 L219.7,212.2 L222.7,209.6 L230.0,207.9 L229.3,206.3 L233.2,200.2 L232.7,195.9 L228.7,191.0 L228.7,186.7 L227.2,186.2 L219.6,190.3 L220.0,195.0 L216.5,197.8 L213.5,205.0 L215.3,205.9 L208.9,209.6 L201.9,209.1 L195.7,207.8 L191.5,205.2 L193.9,199.4 L191.3,196.2 L192.6,193.5 L197.1,192.1 L204.5,184.9 L205.5,176.9 L204.0,173.3 L208.8,160.7 L206.6,156.0 L203.2,154.5 L199.6,151.1 L196.4,141.9 L194.3,140.2 L185.9,137.2 L181.4,132.4 L180.5,125.7 L178.6,119.7 L174.1,116.1 L168.6,116.3 L171.5,111.4 L167.9,98.8 L165.4,94.8 L162.6,93.6 L160.0,87.0 L153.7,79.6 L150.6,74.1 L151.5,65.4 L148.4,61.3 L144.7,60.8 L133.0,61.5 L127.9,64.1 L121.0,69.2 L113.4,73.4 L110.5,72.9 L105.2,68.9 L103.0,63.4 L98.1,61.9 L96.1,68.1 L91.7,69.1 L89.2,74.9 L88.6,80.7 L90.0,83.4 L88.2,94.6 L89.9,97.1 L89.8,101.4 L88.4,104.4 L89.2,110.5 L85.4,106.3 L87.7,63.8 L89.8,51.2 L94.0,39.4 L99.7,26.7 L107.0,7.8 L110.2,1.8 L114.1,0.0 L123.3,4.6 L119.6,5.5 L117.2,3.3 L110.5,4.0 L111.5,8.4 L118.0,7.3 L116.1,9.6 L118.7,12.5 L118.4,15.0 L109.6,18.9 L104.6,23.9 L101.0,31.6 L102.7,34.9 L102.3,43.4 L102.7,51.5 L104.7,56.1 L114.2,62.5 L117.2,63.4 L127.7,62.4 L130.8,60.8 L144.2,60.0 L155.2,57.3 L157.4,54.4 L157.5,51.4 L167.8,52.4 L176.0,58.0 L181.4,56.6 L185.7,57.1 L192.7,53.5 L197.9,53.7 L200.2,56.5 L208.9,53.9 L221.9,55.1 L227.4,58.4 L233.5,60.3 L240.2,65.4 L248.9,66.0 L253.3,64.8 L254.1,69.2 L252.4,73.5 L251.7,80.2 L250.4,80.1 L246.2,84.6 L250.5,85.1 L254.7,94.5 L252.2,98.4 L252.9,101.5 L246.3,105.6 L246.7,109.4 L244.9,111.7 L246.5,113.7 L246.0,118.9 L247.2,120.7 L245.1,124.6 L243.1,124.9 L248.9,127.3 L255.7,128.4 L259.5,127.7 L260.3,125.2 L265.2,125.6 L264.3,129.9 L268.2,138.6 L275.5,143.2 L273.2,145.5 L272.4,149.0 L277.4,151.5 L279.5,157.2 L284.3,158.5 L282.1,160.4 L282.7,163.4 L281.1,167.4 L288.2,169.8 L289.6,173.6 L293.4,173.9 L293.5,176.1 L289.8,182.0 L292.1,183.9 L287.4,189.4 L288.6,195.7 L295.0,204.1 L294.0,206.7 L296.7,209.5 L296.9,212.8 L293.4,218.7 L291.5,218.7 L289.6,222.1 L287.3,222.5 L286.1,228.2 L283.0,232.8 L284.1,234.8 L282.8,239.6 L272.2,235.9 L272.9,242.3 L270.4,241.2 L268.2,244.8 L268.5,247.2 L265.7,247.3 L266.3,252.2 L263.7,255.4 L265.2,258.5 L260.4,257.4 L259.8,253.5 L261.5,251.5 L257.9,250.5 L257.6,246.9 L252.4,244.4 L249.2,240.0 L246.0,242.6 L238.1,240.6 L234.8,237.1 L232.4,236.9 L227.2,242.9 L227.1,247.4 L229.1,252.9 L224.0,258.7 L220.4,259.4 L215.1,266.6 L211.9,268.3 L210.3,271.1 L210.5,276.8 L206.2,277.6 Z">
  <desc xmlns="http://www.highcharts.com/svg/namespace">
    <name>Nordfriesland</name>
    <bundesland>DE.SH</bundesland>
    <hc-middle-x>0.72</hc-middle-x>
    <hc-middle-y>0.56</hc-middle-y>
    <hc-key>de-sh-01054000</hc-key>
    <hc-a2>NO</hc-a2>
  </desc>
</path>

<path fill="#CEE3F5" stroke="#6E6E6E" stroke-width="0.4" id="DE.SH.01051000" d="M167.6,347.6 L169.2,348.2 L166.7,352.8 L164.7,349.3 L165.2,346.4 L167.5,344.1 L169.2,345.1 Z M271.4,407.2 L249.8,407.6 L239.5,403.3 L236.5,403.1 L233.8,405.0 L224.4,406.3 L221.3,403.8 L217.5,398.2 L212.0,392.5 L205.5,378.1 L204.6,374.8 L196.3,360.4 L191.6,360.7 L197.0,358.9 L198.0,356.3 L201.7,353.8 L206.3,352.7 L215.6,354.3 L218.2,357.0 L222.0,356.9 L225.6,354.9 L227.6,347.8 L222.1,346.7 L225.8,344.0 L220.8,337.9 L216.1,323.8 L211.8,321.7 L208.7,322.4 L201.4,327.1 L200.9,324.1 L197.2,322.4 L195.2,318.8 L193.2,310.3 L191.2,307.6 L192.6,300.1 L196.7,294.1 L197.7,288.5 L196.3,285.4 L199.0,276.1 L206.2,277.6 L210.5,276.8 L210.3,271.1 L211.9,268.3 L215.1,266.6 L220.4,259.4 L224.0,258.7 L229.1,252.9 L227.1,247.4 L227.2,242.9 L232.4,236.9 L234.8,237.1 L238.1,240.6 L246.0,242.6 L249.2,240.0 L252.4,244.4 L257.6,246.9 L257.9,250.5 L261.5,251.5 L259.8,253.5 L260.4,257.4 L265.2,258.5 L263.7,255.4 L266.3,252.2 L270.6,254.6 L269.2,258.6 L273.7,255.0 L275.9,256.5 L277.2,250.4 L275.6,248.1 L280.8,250.3 L283.2,249.0 L285.0,250.5 L284.2,254.0 L287.1,255.6 L286.5,260.8 L283.6,262.8 L286.3,263.9 L285.1,265.7 L288.3,267.5 L289.2,272.9 L293.2,273.9 L296.6,270.8 L304.4,271.1 L304.8,266.7 L310.7,268.0 L312.8,270.7 L312.1,273.6 L314.1,277.6 L316.0,276.4 L318.6,278.5 L320.9,285.3 L318.9,286.0 L320.7,290.5 L318.0,295.6 L320.3,301.3 L317.7,302.8 L320.3,304.7 L321.0,308.0 L317.9,310.2 L310.7,313.2 L297.1,321.3 L292.9,325.2 L294.7,327.3 L295.4,336.5 L293.6,338.0 L294.9,343.1 L294.2,346.6 L292.8,353.7 L289.0,355.3 L292.2,357.8 L291.6,361.6 L292.9,364.6 L289.6,372.9 L289.6,375.6 L287.0,376.3 L273.5,391.8 L272.0,404.4 L274.7,406.3 Z">
  <desc xmlns="http://www.highcharts.com/svg/namespace">
    <name>Dithmarschen</name>
    <bundesland>DE.SH</bundesland>
    <hc-middle-x>0.59</hc-middle-x>
    <hc-middle-y>0.55</hc-middle-y>
    <hc-key>de-sh-01051000</hc-key>
    <hc-a2>DI</hc-a2>
  </desc>
</path>

<path fill="#CEE3F5" stroke="#6E6E6E" stroke-width="0.4" id="DE.SH.01055000" d="M694.0,220.4 L688.2,218.3 L682.3,218.2 L677.2,219.4 L679.1,217.7 L676.3,215.7 L671.8,215.8 L670.1,218.4 L673.3,221.3 L671.7,222.3 L661.1,222.4 L655.9,220.1 L655.6,215.4 L656.7,213.1 L655.8,208.2 L648.9,205.1 L646.2,206.9 L640.8,208.4 L644.0,213.2 L638.0,209.3 L636.9,206.8 L637.8,195.0 L641.8,184.7 L644.3,180.8 L649.0,176.1 L651.3,177.7 L658.9,178.6 L662.7,179.8 L668.8,180.2 L675.3,184.7 L681.2,185.9 L684.6,189.5 L687.2,197.5 L691.9,202.5 L692.8,206.1 L696.7,211.3 L700.0,221.1 Z M579.3,258.4 L584.5,256.7 L588.4,257.8 L594.6,255.5 L602.5,249.1 L611.4,238.7 L618.5,235.1 L622.8,230.5 L626.5,229.4 L636.2,230.9 L641.1,230.4 L641.5,231.8 L635.4,231.2 L632.8,232.3 L636.6,234.4 L638.2,233.2 L642.6,234.8 L653.0,231.0 L655.1,226.1 L659.0,224.3 L658.9,226.9 L662.8,226.6 L662.4,232.1 L653.7,239.7 L651.3,238.0 L648.8,240.0 L651.8,243.5 L653.1,257.2 L654.8,265.3 L654.7,274.9 L656.9,286.4 L657.7,293.2 L653.0,295.5 L649.2,300.5 L635.3,310.7 L630.4,313.8 L624.3,322.2 L616.7,331.4 L611.9,334.2 L610.0,332.8 L602.4,332.3 L598.8,329.7 L598.9,334.5 L595.6,339.9 L590.2,344.6 L589.3,351.4 L594.9,362.6 L600.4,366.8 L604.4,365.7 L608.0,366.7 L609.9,370.7 L606.4,373.8 L603.9,385.8 L600.5,388.5 L596.2,389.0 L590.1,391.5 L589.5,393.5 L582.6,395.0 L580.2,394.4 L578.0,398.6 L576.2,398.0 L570.9,401.6 L569.1,406.1 L566.2,406.3 L565.5,403.1 L560.2,403.3 L555.1,400.8 L555.0,397.8 L548.0,396.8 L545.6,393.6 L548.9,389.9 L549.5,387.3 L547.5,382.9 L544.0,381.6 L541.6,378.3 L544.4,371.1 L541.8,372.4 L538.2,370.8 L528.0,369.1 L530.1,366.9 L533.0,361.1 L538.1,356.0 L546.2,359.2 L549.4,354.5 L547.5,350.9 L549.4,347.7 L550.7,341.5 L546.2,342.5 L542.1,340.4 L536.7,341.1 L534.4,345.1 L528.2,344.8 L520.5,336.9 L522.6,331.8 L521.2,330.3 L521.3,325.4 L526.5,323.9 L529.1,327.0 L533.2,329.3 L533.3,324.3 L537.6,322.4 L543.3,324.1 L545.5,318.8 L540.3,316.8 L536.9,309.5 L534.7,310.3 L535.8,307.2 L533.1,304.0 L535.7,301.3 L540.7,301.4 L543.7,297.6 L544.8,293.5 L544.2,289.3 L546.5,289.0 L544.6,286.0 L551.3,283.3 L552.6,285.0 L559.5,284.3 L558.0,286.7 L561.5,286.2 L565.3,287.5 L571.2,292.7 L572.7,298.0 L576.6,294.7 L580.6,289.9 L577.1,288.6 L576.9,283.9 L581.3,278.5 L580.0,274.8 L582.7,270.5 L579.4,269.2 L578.4,263.3 L580.1,262.2 Z">
  <desc xmlns="http://www.highcharts.com/svg/namespace">
    <name>Ostholstein</name>
    <bundesland>DE.SH</bundesland>
    <hc-middle-x>0.36</hc-middle-x>
    <hc-middle-y>0.58</hc-middle-y>
    <hc-key>de-sh-01055000</hc-key>
    <hc-a2>OS</hc-a2>
  </desc>
</path>

<path fill="#CEE3F5" stroke="#6E6E6E" stroke-width="0.4" id="DE.SH.01056000" d="M345.6,498.6 L341.4,492.4 L342.8,485.1 L343.5,491.1 L347.3,496.3 Z M2.8,301.2 L4.9,306.1 L3.9,307.0 L0.0,301.3 Z M10.1,301.2 L9.5,303.8 L7.4,303.6 L6.4,301.8 Z M333.9,469.1 L336.2,470.5 L339.6,477.6 L339.4,485.2 L336.1,475.6 L333.0,469.4 Z M426.0,488.2 L420.2,487.8 L417.6,488.7 L417.6,492.2 L415.5,496.4 L408.9,504.3 L408.1,507.0 L404.3,508.6 L401.3,512.3 L396.9,509.4 L394.0,505.5 L395.0,503.5 L390.0,501.4 L388.5,497.5 L386.5,502.6 L386.9,506.2 L384.4,508.0 L385.2,510.0 L383.0,513.5 L382.7,519.2 L369.8,517.2 L363.3,510.7 L357.2,508.2 L345.5,500.3 L348.7,495.9 L345.2,490.8 L344.1,487.4 L344.9,483.1 L338.1,468.4 L337.4,467.9 L340.4,466.7 L345.6,467.6 L350.9,464.9 L347.5,454.1 L355.4,450.9 L363.0,446.9 L366.9,436.8 L369.4,422.9 L369.5,419.8 L365.5,417.8 L363.3,410.3 L368.3,406.6 L385.0,405.2 L387.6,412.1 L400.2,421.4 L401.4,424.1 L399.6,428.3 L404.5,431.4 L405.5,427.0 L411.9,433.4 L412.1,437.9 L409.3,443.6 L415.1,445.7 L416.3,450.4 L414.5,453.7 L418.8,455.2 L424.5,453.8 L430.8,447.4 L433.6,450.9 L431.5,455.8 L432.4,456.9 L425.4,470.4 L425.3,476.2 L423.7,479.2 Z">
  <desc xmlns="http://www.highcharts.com/svg/namespace">
    <name>Pinneberg</name>
    <bundesland>DE.SH</bundesland>
    <hc-middle-x>0.88</hc-middle-x>
    <hc-middle-y>0.79</hc-middle-y>
    <hc-key>de-sh-01056000</hc-key>
    <hc-a2>PI</hc-a2>
  </desc>
</path>

<path fill="#CEE3F5" stroke="#6E6E6E" stroke-width="0.4" id="DE.SH.01061000" d="M316.5,452.3 L314.0,448.0 L310.6,438.5 L314.8,446.5 Z M315.7,343.5 L315.3,342.6 L317.1,339.2 L318.4,340.8 Z M333.0,469.4 L333.1,468.9 L333.9,469.1 Z M407.7,363.5 L401.6,368.9 L402.4,371.1 L400.3,375.3 L401.9,375.0 L401.4,380.2 L399.4,381.9 L398.6,378.3 L395.3,374.1 L390.4,374.8 L389.9,376.8 L392.5,380.3 L396.1,380.9 L397.8,387.2 L396.3,390.3 L390.8,389.4 L389.4,393.3 L386.2,392.6 L386.6,399.7 L387.6,400.3 L385.0,405.2 L368.3,406.6 L363.3,410.3 L365.5,417.8 L369.5,419.8 L369.4,422.9 L366.9,436.8 L363.0,446.9 L355.4,450.9 L347.5,454.1 L350.9,464.9 L345.6,467.6 L340.4,466.7 L337.4,467.9 L331.2,463.9 L325.5,462.1 L321.8,458.7 L318.9,454.4 L315.1,441.0 L311.8,432.3 L313.3,429.7 L310.3,429.7 L308.2,426.9 L302.9,424.1 L299.4,418.9 L293.0,414.3 L285.3,411.7 L275.6,407.4 L271.4,407.2 L274.7,406.3 L272.0,404.4 L273.5,391.8 L287.0,376.3 L289.6,375.6 L289.6,372.9 L292.9,364.6 L291.6,361.6 L292.2,357.8 L289.0,355.3 L292.8,353.7 L294.2,346.6 L299.4,346.3 L301.9,343.9 L307.4,344.4 L308.0,346.4 L315.8,344.2 L316.4,346.9 L319.4,343.2 L320.4,344.2 L323.3,338.0 L327.5,336.8 L331.5,338.8 L336.3,334.7 L340.7,336.0 L347.3,336.1 L350.2,338.0 L349.4,340.1 L353.7,346.4 L354.4,351.3 L365.2,351.8 L367.6,350.3 L369.5,346.2 L370.1,350.1 L372.8,350.1 L377.7,353.3 L382.3,350.8 L382.6,352.5 L387.6,349.4 L390.9,350.9 L395.3,350.2 L398.5,353.6 L397.9,360.3 L406.0,360.9 Z">
  <desc xmlns="http://www.highcharts.com/svg/namespace">
    <name>Steinburg</name>
    <bundesland>DE.SH</bundesland>
    <hc-middle-x>0.46</hc-middle-x>
    <hc-middle-y>0.39</hc-middle-y>
    <hc-key>de-sh-01061000</hc-key>
    <hc-a2>ST</hc-a2>
  </desc>
</path>

<path fill="#CEE3F5" stroke="#6E6E6E" stroke-width="0.4" id="DE.SH.01053000" d="M569.6,438.5 L568.2,438.7 L568.1,438.1 L569.5,437.7 Z M487.1,541.8 L488.5,537.5 L493.6,537.8 L493.9,533.3 L495.5,530.9 L498.3,533.4 L501.4,528.8 L498.4,526.8 L502.3,521.4 L509.5,517.5 L510.8,515.2 L517.9,512.8 L520.1,508.8 L523.5,506.7 L524.1,504.2 L527.8,503.1 L529.2,504.5 L534.9,505.9 L542.7,501.5 L544.0,497.5 L539.3,493.0 L532.5,493.6 L526.9,488.3 L526.7,485.0 L520.8,481.0 L521.0,476.0 L522.6,472.8 L522.0,469.3 L528.5,469.9 L528.8,462.0 L524.4,461.4 L521.3,458.5 L519.4,460.3 L518.7,457.1 L524.6,455.7 L526.9,456.5 L527.8,452.4 L533.5,447.0 L536.8,447.2 L540.6,451.3 L542.0,448.6 L546.8,447.9 L546.5,443.4 L549.4,441.1 L547.8,438.0 L556.1,434.4 L556.4,433.1 L559.2,430.1 L561.0,432.5 L561.0,437.2 L557.4,438.3 L560.6,442.6 L568.6,445.5 L568.1,439.3 L570.3,438.9 L571.2,436.3 L574.0,438.0 L570.3,439.3 L569.4,441.3 L572.5,441.5 L574.0,438.6 L577.3,440.5 L583.4,438.3 L582.2,436.8 L588.9,432.0 L586.5,427.9 L583.9,427.6 L587.3,424.3 L591.3,431.8 L593.6,430.0 L595.6,434.8 L593.2,445.8 L593.2,452.1 L595.8,451.4 L603.3,455.0 L603.4,459.5 L607.3,464.6 L612.4,467.9 L620.0,466.0 L627.4,468.0 L628.9,472.4 L631.6,473.0 L631.1,479.6 L634.6,482.0 L633.7,486.6 L629.6,492.5 L628.3,501.8 L627.4,503.0 L628.8,508.1 L626.3,512.2 L622.9,512.3 L616.8,515.1 L613.7,515.0 L611.7,511.5 L607.9,512.0 L610.1,523.2 L607.8,525.7 L606.7,530.3 L608.8,533.1 L606.0,532.3 L601.0,534.4 L599.4,539.8 L594.1,543.7 L587.7,546.7 L583.7,546.1 L582.1,554.2 L573.5,552.2 L570.0,554.1 L566.9,564.6 L567.3,575.2 L566.6,579.6 L563.2,581.5 L562.5,586.4 L559.4,587.8 L554.2,584.8 L543.7,583.6 L530.8,577.0 L520.6,570.3 L516.3,566.4 L507.8,566.3 L502.3,562.9 L505.9,557.7 L502.8,557.0 L502.2,560.1 L500.3,557.5 L494.1,552.9 L493.0,549.0 L487.5,546.3 Z">
  <desc xmlns="http://www.highcharts.com/svg/namespace">
    <name>Herzogtum Lauenburg</name>
    <bundesland>DE.SH</bundesland>
    <hc-middle-x>0.52</hc-middle-x>
    <hc-middle-y>0.53</hc-middle-y>
    <hc-key>de-sh-01053000</hc-key>
    <hc-a2>HL</hc-a2>
  </desc>
</path>

<path fill="#CEE3F5" stroke="#6E6E6E" stroke-width="0.4" id="DE.SH.01002000" d="M467.6,216.2 L472.7,226.6 L472.7,231.0 L469.4,231.1 L466.3,233.0 L467.6,235.3 L463.8,239.6 L462.5,243.7 L465.9,248.7 L461.8,257.0 L468.6,252.3 L467.8,250.0 L469.2,246.5 L475.5,248.0 L475.3,254.0 L478.2,252.0 L478.3,254.8 L472.7,257.0 L472.7,263.1 L476.7,267.7 L475.5,272.9 L471.8,278.6 L465.7,277.0 L465.3,279.6 L461.7,277.2 L459.4,278.0 L457.4,276.2 L451.3,273.7 L453.5,267.2 L452.4,266.3 L447.8,268.0 L445.9,266.8 L446.2,263.8 L443.8,263.3 L442.7,255.0 L444.7,250.9 L448.0,253.8 L451.4,253.7 L455.3,249.9 L453.6,245.1 L448.2,247.5 L446.8,245.8 L444.1,246.9 L440.5,245.7 L441.0,241.9 L446.3,241.9 L448.0,238.0 L454.7,237.5 L457.9,238.4 L462.0,231.6 L460.2,224.9 L463.2,223.9 L465.4,217.5 Z">
  <desc xmlns="http://www.highcharts.com/svg/namespace">
    <name>Kiel</name>
    <bundesland>DE.SH</bundesland>
    <hc-middle-x>0.57</hc-middle-x>
    <hc-middle-y>0.75</hc-middle-y>
    <hc-key>de-sh-01002000</hc-key>
    <hc-a2>KI</hc-a2>
  </desc>
</path>

<path fill="#CEE3F5" stroke="#6E6E6E" stroke-width="0.4" id="DE.SH.01059000" d="M329.4,82.2 L333.3,77.5 L335.7,77.2 L340.9,72.0 L343.9,70.9 L345.7,67.8 L348.3,66.6 L348.8,63.3 L353.7,63.8 L351.3,66.1 L349.0,74.0 L351.9,79.1 L355.7,78.8 L361.9,82.6 L363.7,81.6 L373.3,86.6 L383.7,89.2 L386.4,91.1 L389.8,90.3 L391.8,94.9 L398.8,103.7 L406.1,106.0 L408.1,101.8 L413.0,99.9 L411.6,98.6 L412.7,90.2 L423.1,96.1 L427.2,104.1 L427.9,110.9 L429.9,117.7 L439.1,127.0 L434.8,126.4 L430.8,130.1 L430.3,123.9 L428.9,123.5 L426.7,127.4 L427.4,130.1 L421.3,131.8 L419.8,134.4 L418.0,149.3 L414.7,148.5 L411.5,150.2 L407.6,155.5 L404.2,158.2 L401.1,158.6 L394.0,166.5 L390.0,168.4 L385.7,166.4 L386.1,171.3 L382.9,173.9 L379.8,179.4 L379.3,182.8 L376.2,183.4 L374.8,187.0 L372.7,187.2 L371.7,184.5 L359.5,187.2 L358.9,189.7 L357.4,183.5 L353.0,184.9 L349.4,190.8 L346.7,190.1 L341.0,191.4 L344.0,193.7 L346.9,193.8 L357.0,190.1 L365.0,191.6 L367.3,195.5 L367.2,196.6 L361.0,200.7 L357.9,206.1 L360.6,207.9 L360.6,210.0 L350.1,217.1 L343.9,218.1 L342.6,220.6 L344.0,228.0 L341.6,229.2 L345.5,238.6 L343.6,243.8 L334.8,246.4 L331.1,249.9 L324.4,251.3 L320.2,248.7 L314.9,248.1 L310.1,255.8 L312.3,256.0 L310.7,268.0 L304.8,266.7 L304.4,271.1 L296.6,270.8 L293.2,273.9 L289.2,272.9 L288.3,267.5 L285.1,265.7 L286.3,263.9 L283.6,262.8 L286.5,260.8 L287.1,255.6 L284.2,254.0 L285.0,250.5 L283.2,249.0 L280.8,250.3 L275.6,248.1 L277.2,250.4 L275.9,256.5 L273.7,255.0 L269.2,258.6 L270.6,254.6 L266.3,252.2 L265.7,247.3 L268.5,247.2 L268.2,244.8 L270.4,241.2 L272.9,242.3 L272.2,235.9 L282.8,239.6 L284.1,234.8 L283.0,232.8 L286.1,228.2 L287.3,222.5 L289.6,222.1 L291.5,218.7 L293.4,218.7 L296.9,212.8 L296.7,209.5 L294.0,206.7 L295.0,204.1 L288.6,195.7 L287.4,189.4 L292.1,183.9 L289.8,182.0 L293.5,176.1 L293.4,173.9 L289.6,173.6 L288.2,169.8 L281.1,167.4 L282.7,163.4 L282.1,160.4 L284.3,158.5 L279.5,157.2 L277.4,151.5 L272.4,149.0 L273.2,145.5 L275.5,143.2 L268.2,138.6 L264.3,129.9 L265.2,125.6 L260.3,125.2 L259.5,127.7 L255.7,128.4 L248.9,127.3 L243.1,124.9 L245.1,124.6 L247.2,120.7 L246.0,118.9 L246.5,113.7 L244.9,111.7 L246.7,109.4 L246.3,105.6 L252.9,101.5 L252.2,98.4 L254.7,94.5 L250.5,85.1 L246.2,84.6 L250.4,80.1 L251.7,80.2 L252.4,73.5 L254.1,69.2 L253.3,64.8 L261.7,65.8 L278.8,72.9 L279.7,75.0 L277.9,79.5 L280.8,86.9 L284.8,86.1 L296.8,88.3 L299.6,90.1 L301.8,85.2 L305.7,82.8 L307.4,76.5 L313.1,75.4 L314.5,76.9 L315.5,82.1 L311.9,82.3 L313.3,84.6 L311.3,87.9 L312.1,91.7 L302.5,96.9 L306.8,106.5 L323.3,106.0 L323.2,103.9 L326.1,99.7 L329.8,100.8 L332.1,99.6 L332.4,93.1 L330.9,90.5 L332.1,86.5 L329.4,84.9 Z M421.3,145.9 L419.9,142.9 L419.8,137.6 L421.9,132.8 L427.6,133.0 L431.7,135.5 L433.1,133.0 L434.2,137.0 L438.8,137.5 L438.7,145.7 L436.7,143.2 L431.3,143.7 L429.2,145.3 L428.3,142.6 L426.0,143.0 L426.6,147.4 L425.3,149.7 Z">
  <desc xmlns="http://www.highcharts.com/svg/namespace">
    <name>Schleswig-Flensburg</name>
    <bundesland>DE.SH</bundesland>
    <hc-middle-x>0.49</hc-middle-x>
    <hc-middle-y>0.38</hc-middle-y>
    <hc-key>de-sh-01059000</hc-key>
    <hc-a2>SF</hc-a2>
  </desc>
</path>

<path fill="#CEE3F5" stroke="#6E6E6E" stroke-width="0.4" id="DE.SH.01001000" d="M315.5,82.1 L318.3,87.3 L316.7,90.1 L318.4,94.0 L319.0,88.5 L321.6,87.5 L324.5,81.9 L329.4,82.2 L329.4,84.9 L332.1,86.5 L330.9,90.5 L332.4,93.1 L332.1,99.6 L329.8,100.8 L326.1,99.7 L323.2,103.9 L323.3,106.0 L306.8,106.5 L302.5,96.9 L312.1,91.7 L311.3,87.9 L313.3,84.6 L311.9,82.3 Z">
  <desc xmlns="http://www.highcharts.com/svg/namespace">
    <name>Flensburg</name>
    <bundesland>DE.SH</bundesland>
    <hc-middle-x>0.69</hc-middle-x>
    <hc-middle-y>0.49</hc-middle-y>
    <hc-key>de-sh-01001000</hc-key>
    <hc-a2>FL</hc-a2>
  </desc>
</path>

<path fill="#CEE3F5" stroke="#6E6E6E" stroke-width="0.4" id="DE.SH.01062000" d="M451.4,469.3 L453.3,470.0 L451.8,472.5 L449.5,472.5 Z M487.1,541.8 L485.0,542.1 L481.6,533.6 L476.6,536.2 L471.7,533.5 L472.4,527.7 L470.0,528.1 L469.1,525.1 L470.8,521.7 L468.2,517.7 L471.1,510.9 L471.9,512.0 L479.3,511.4 L477.2,507.4 L478.2,505.7 L476.5,501.3 L483.2,494.0 L476.5,492.6 L478.3,489.6 L475.0,483.7 L473.1,483.5 L466.1,478.2 L470.0,474.4 L469.5,469.4 L472.8,466.7 L474.4,467.9 L476.4,463.4 L475.8,460.5 L472.2,458.1 L460.7,465.6 L453.8,464.3 L452.0,468.1 L442.5,462.7 L441.5,454.4 L444.5,452.9 L445.4,448.8 L454.4,448.2 L459.1,447.1 L459.2,455.6 L463.1,455.4 L464.0,452.0 L466.9,449.4 L464.0,446.4 L467.4,440.8 L473.2,439.1 L476.7,435.3 L481.1,440.2 L481.6,442.3 L490.9,441.7 L490.6,437.3 L487.8,435.6 L488.3,430.1 L486.1,429.7 L486.8,425.1 L494.7,420.2 L494.8,417.9 L501.8,417.0 L502.0,411.4 L507.0,411.6 L506.5,415.6 L509.8,417.2 L514.1,413.1 L517.5,413.9 L517.5,411.7 L520.5,411.6 L527.2,406.2 L527.3,403.9 L524.2,401.1 L529.0,399.6 L532.0,400.7 L540.0,399.6 L539.1,397.2 L545.6,393.6 L548.0,396.8 L555.0,397.8 L555.1,400.8 L551.9,405.4 L558.4,409.5 L557.0,413.3 L558.0,416.1 L564.2,418.1 L559.8,421.4 L552.7,422.7 L550.6,425.5 L552.6,427.3 L555.4,433.6 L556.4,433.1 L556.1,434.4 L547.8,438.0 L549.4,441.1 L546.5,443.4 L546.8,447.9 L542.0,448.6 L540.6,451.3 L536.8,447.2 L533.5,447.0 L527.8,452.4 L526.9,456.5 L524.6,455.7 L518.7,457.1 L519.4,460.3 L521.3,458.5 L524.4,461.4 L528.8,462.0 L528.5,469.9 L522.0,469.3 L522.6,472.8 L521.0,476.0 L520.8,481.0 L526.7,485.0 L526.9,488.3 L532.5,493.6 L539.3,493.0 L544.0,497.5 L542.7,501.5 L534.9,505.9 L529.2,504.5 L527.8,503.1 L524.1,504.2 L523.5,506.7 L520.1,508.8 L517.9,512.8 L510.8,515.2 L509.5,517.5 L502.3,521.4 L498.4,526.8 L501.4,528.8 L498.3,533.4 L495.5,530.9 L493.9,533.3 L493.6,537.8 L488.5,537.5 Z">
  <desc xmlns="http://www.highcharts.com/svg/namespace">
    <name>Stormarn</name>
    <bundesland>DE.SH</bundesland>
    <hc-middle-x>0.45</hc-middle-x>
    <hc-middle-y>0.54</hc-middle-y>
    <hc-key>de-sh-01062000</hc-key>
    <hc-a2>ST</hc-a2>
  </desc>
</path>

<path fill="#CEE3F5" stroke="#6E6E6E" stroke-width="0.4" id="DE.SH.01003000" d="M608.0,366.7 L613.6,366.6 L617.0,370.8 L616.9,378.0 L621.2,378.5 L622.5,381.9 L620.1,385.2 L619.6,389.5 L628.8,391.4 L631.0,393.6 L634.9,394.9 L623.2,399.0 L621.4,397.2 L623.2,393.3 L617.9,389.8 L615.6,393.4 L610.2,397.2 L610.3,399.5 L607.8,399.7 L602.0,403.7 L601.1,406.8 L594.6,408.2 L592.4,413.6 L590.1,416.0 L590.3,422.3 L593.2,426.0 L593.6,430.0 L591.3,431.8 L587.3,424.3 L583.9,427.6 L586.5,427.9 L588.9,432.0 L582.2,436.8 L583.4,438.3 L577.3,440.5 L574.0,438.6 L572.5,441.5 L569.4,441.3 L570.3,439.3 L574.0,438.0 L571.2,436.3 L570.3,438.9 L568.1,439.3 L568.6,445.5 L560.6,442.6 L557.4,438.3 L561.0,437.2 L561.0,432.5 L559.2,430.1 L556.4,433.1 L555.4,433.6 L552.6,427.3 L550.6,425.5 L552.7,422.7 L559.8,421.4 L564.2,418.1 L558.0,416.1 L557.0,413.3 L558.4,409.5 L551.9,405.4 L555.1,400.8 L560.2,403.3 L565.5,403.1 L566.2,406.3 L569.1,406.1 L570.9,401.6 L576.2,398.0 L578.0,398.6 L580.2,394.4 L582.6,395.0 L589.5,393.5 L590.1,391.5 L596.2,389.0 L600.5,388.5 L603.9,385.8 L606.4,373.8 L609.9,370.7 Z M569.6,438.5 L569.5,437.7 L568.1,438.1 L568.2,438.7 Z">
  <desc xmlns="http://www.highcharts.com/svg/namespace">
    <name>Lübeck</name>
    <bundesland>DE.SH</bundesland>
    <hc-middle-x>0.38</hc-middle-x>
    <hc-middle-y>0.62</hc-middle-y>
    <hc-key>de-sh-01003000</hc-key>
    <hc-a2>LÜ</hc-a2>
  </desc>
</path>

<path fill="#CEE3F5" stroke="#6E6E6E" stroke-width="0.4" id="DE.SH.01060000" d="M451.8,472.5 L449.6,475.5 L451.4,478.6 L447.5,479.6 L445.5,477.8 L436.8,478.1 L435.2,482.3 L435.2,488.9 L434.1,490.1 L426.0,488.2 L423.7,479.2 L425.3,476.2 L425.4,470.4 L432.4,456.9 L431.5,455.8 L433.6,450.9 L430.8,447.4 L424.5,453.8 L418.8,455.2 L414.5,453.7 L416.3,450.4 L415.1,445.7 L409.3,443.6 L412.1,437.9 L411.9,433.4 L405.5,427.0 L404.5,431.4 L399.6,428.3 L401.4,424.1 L400.2,421.4 L387.6,412.1 L385.0,405.2 L387.6,400.3 L386.6,399.7 L386.2,392.6 L389.4,393.3 L390.8,389.4 L396.3,390.3 L397.8,387.2 L396.1,380.9 L392.5,380.3 L389.9,376.8 L390.4,374.8 L395.3,374.1 L398.6,378.3 L399.4,381.9 L401.4,380.2 L401.9,375.0 L400.3,375.3 L402.4,371.1 L401.6,368.9 L407.7,363.5 L414.1,364.0 L416.8,361.6 L418.9,362.3 L424.0,359.9 L427.9,359.8 L430.5,357.5 L435.6,358.8 L438.4,352.8 L442.7,354.1 L444.3,349.9 L447.3,349.1 L446.7,347.3 L453.2,347.7 L463.6,346.0 L466.8,347.8 L471.0,346.1 L473.5,342.6 L480.3,339.1 L482.0,339.8 L485.9,337.6 L485.2,336.1 L489.4,335.2 L493.0,331.5 L502.7,330.0 L507.6,328.6 L508.3,337.4 L512.3,339.1 L511.7,340.7 L520.9,340.8 L520.5,336.9 L528.2,344.8 L534.4,345.1 L536.7,341.1 L542.1,340.4 L546.2,342.5 L550.7,341.5 L549.4,347.7 L547.5,350.9 L549.4,354.5 L546.2,359.2 L538.1,356.0 L533.0,361.1 L530.1,366.9 L528.0,369.1 L538.2,370.8 L541.8,372.4 L544.4,371.1 L541.6,378.3 L544.0,381.6 L547.5,382.9 L549.5,387.3 L548.9,389.9 L545.6,393.6 L539.1,397.2 L540.0,399.6 L532.0,400.7 L529.0,399.6 L524.2,401.1 L527.3,403.9 L527.2,406.2 L520.5,411.6 L517.5,411.7 L517.5,413.9 L514.1,413.1 L509.8,417.2 L506.5,415.6 L507.0,411.6 L502.0,411.4 L501.8,417.0 L494.8,417.9 L494.7,420.2 L486.8,425.1 L486.1,429.7 L488.3,430.1 L487.8,435.6 L490.6,437.3 L490.9,441.7 L481.6,442.3 L481.1,440.2 L476.7,435.3 L473.2,439.1 L467.4,440.8 L464.0,446.4 L466.9,449.4 L464.0,452.0 L463.1,455.4 L459.2,455.6 L459.1,447.1 L454.4,448.2 L445.4,448.8 L444.5,452.9 L441.5,454.4 L442.5,462.7 L452.0,468.1 L452.2,468.3 L451.4,469.3 L449.5,472.5 Z">
  <desc xmlns="http://www.highcharts.com/svg/namespace">
    <name>Segeberg</name>
    <bundesland>DE.SH</bundesland>
    <hc-middle-x>0.49</hc-middle-x>
    <hc-middle-y>0.41</hc-middle-y>
    <hc-key>de-sh-01060000</hc-key>
    <hc-a2>SE</hc-a2>
  </desc>
</path>

<path fill="#CEE3F5" stroke="#6E6E6E" stroke-width="0.4" id="DE.SH.01004000" d="M446.7,347.3 L447.3,349.1 L444.3,349.9 L442.7,354.1 L438.4,352.8 L435.6,358.8 L430.5,357.5 L427.9,359.8 L424.0,359.9 L426.1,349.0 L421.0,349.1 L421.9,343.0 L421.6,337.6 L419.9,334.5 L420.8,332.1 L423.5,331.1 L423.0,329.1 L425.0,324.3 L430.6,319.8 L431.0,316.0 L433.9,315.2 L436.5,317.8 L439.6,318.4 L438.2,320.8 L442.0,322.4 L440.2,323.5 L439.2,332.6 L440.3,335.3 L438.4,339.5 L442.2,340.7 L442.7,343.1 L440.0,346.5 Z">
  <desc xmlns="http://www.highcharts.com/svg/namespace">
    <name>Neumünster</name>
    <bundesland>DE.SH</bundesland>
    <hc-middle-x>0.48</hc-middle-x>
    <hc-middle-y>0.62</hc-middle-y>
    <hc-key>de-sh-01004000</hc-key>
    <hc-a2>NE</hc-a2>
  </desc>
</path>

<path fill="#CEE3F5" stroke="#6E6E6E" stroke-width="0.4" id="DE.SH.01058000" d="M424.0,359.9 L418.9,362.3 L416.8,361.6 L414.1,364.0 L407.7,363.5 L406.0,360.9 L397.9,360.3 L398.5,353.6 L395.3,350.2 L390.9,350.9 L387.6,349.4 L382.6,352.5 L382.3,350.8 L377.7,353.3 L372.8,350.1 L370.1,350.1 L369.5,346.2 L367.6,350.3 L365.2,351.8 L354.4,351.3 L353.7,346.4 L349.4,340.1 L350.2,338.0 L347.3,336.1 L340.7,336.0 L336.3,334.7 L331.5,338.8 L327.5,336.8 L323.3,338.0 L320.4,344.2 L319.4,343.2 L316.4,346.9 L315.8,344.2 L308.0,346.4 L307.4,344.4 L301.9,343.9 L299.4,346.3 L294.2,346.6 L294.9,343.1 L293.6,338.0 L295.4,336.5 L294.7,327.3 L292.9,325.2 L297.1,321.3 L310.7,313.2 L317.9,310.2 L321.0,308.0 L320.3,304.7 L317.7,302.8 L320.3,301.3 L318.0,295.6 L320.7,290.5 L318.9,286.0 L320.9,285.3 L318.6,278.5 L316.0,276.4 L314.1,277.6 L312.1,273.6 L312.8,270.7 L310.7,268.0 L312.3,256.0 L310.1,255.8 L314.9,248.1 L320.2,248.7 L324.4,251.3 L331.1,249.9 L334.8,246.4 L343.6,243.8 L345.5,238.6 L341.6,229.2 L344.0,228.0 L342.6,220.6 L343.9,218.1 L350.1,217.1 L360.6,210.0 L360.6,207.9 L357.9,206.1 L361.0,200.7 L367.2,196.6 L367.3,195.5 L371.8,197.5 L374.3,196.8 L374.2,191.5 L371.5,188.0 L374.9,188.2 L376.2,184.2 L379.9,185.3 L382.0,177.8 L385.4,174.6 L388.2,174.2 L392.8,170.7 L397.5,165.4 L400.0,164.5 L404.7,160.3 L407.9,159.4 L413.8,153.5 L419.0,150.4 L421.3,145.9 L425.3,149.7 L426.6,147.4 L426.0,143.0 L428.3,142.6 L429.2,145.3 L431.3,143.7 L436.7,143.2 L438.7,145.7 L439.3,151.2 L438.0,157.3 L438.1,176.0 L436.1,177.3 L432.6,185.8 L425.9,192.6 L416.2,197.5 L408.8,202.0 L405.2,203.2 L401.4,202.0 L401.6,207.3 L406.0,211.7 L415.8,210.2 L419.6,207.2 L427.4,204.6 L432.7,204.3 L437.5,201.8 L450.4,199.8 L455.9,198.4 L460.3,198.4 L467.8,203.5 L472.4,208.0 L467.6,216.2 L465.4,217.5 L463.2,223.9 L460.2,224.9 L462.0,231.6 L457.9,238.4 L454.7,237.5 L448.0,238.0 L446.3,241.9 L441.0,241.9 L440.5,245.7 L444.1,246.9 L446.8,245.8 L448.2,247.5 L453.6,245.1 L455.3,249.9 L451.4,253.7 L448.0,253.8 L444.7,250.9 L442.7,255.0 L443.8,263.3 L446.2,263.8 L445.9,266.8 L447.8,268.0 L452.4,266.3 L453.5,267.2 L451.3,273.7 L457.4,276.2 L459.4,278.0 L454.2,284.1 L460.9,286.5 L459.4,289.6 L460.5,294.0 L458.8,311.5 L461.5,316.6 L458.1,318.4 L459.1,320.9 L454.2,320.8 L449.6,323.5 L446.4,321.2 L442.0,322.4 L438.2,320.8 L439.6,318.4 L436.5,317.8 L433.9,315.2 L431.0,316.0 L430.6,319.8 L425.0,324.3 L423.0,329.1 L423.5,331.1 L420.8,332.1 L419.9,334.5 L421.6,337.6 L421.9,343.0 L421.0,349.1 L426.1,349.0 Z M315.7,343.5 L318.4,340.8 L317.1,339.2 L315.3,342.6 Z">
  <desc xmlns="http://www.highcharts.com/svg/namespace">
    <name>Rendsburg-Eckernförde</name>
    <bundesland>DE.SH</bundesland>
    <hc-middle-x>0.55</hc-middle-x>
    <hc-middle-y>0.57</hc-middle-y>
    <hc-key>de-sh-01058000</hc-key>
    <hc-a2>RE</hc-a2>
  </desc>
</path>

<path fill="#CEE3F5" stroke="#6E6E6E" stroke-width="0.4" id="DE.SH.01057000" d="M469.2,246.5 L470.0,241.1 L473.6,239.3 L473.2,234.6 L475.9,231.9 L476.1,228.6 L481.0,221.9 L492.3,220.4 L493.1,218.2 L489.5,219.8 L494.7,215.6 L499.9,214.6 L512.2,217.6 L519.0,222.6 L529.8,229.1 L535.1,231.1 L543.7,233.3 L555.4,238.5 L563.8,244.0 L566.3,249.3 L571.9,252.9 L573.2,256.6 L579.3,258.4 L580.1,262.2 L578.4,263.3 L579.4,269.2 L582.7,270.5 L580.0,274.8 L581.3,278.5 L576.9,283.9 L577.1,288.6 L580.6,289.9 L576.6,294.7 L572.7,298.0 L571.2,292.7 L565.3,287.5 L561.5,286.2 L558.0,286.7 L559.5,284.3 L552.6,285.0 L551.3,283.3 L544.6,286.0 L546.5,289.0 L544.2,289.3 L544.8,293.5 L543.7,297.6 L540.7,301.4 L535.7,301.3 L533.1,304.0 L535.8,307.2 L534.7,310.3 L536.9,309.5 L540.3,316.8 L545.5,318.8 L543.3,324.1 L537.6,322.4 L533.3,324.3 L533.2,329.3 L529.1,327.0 L526.5,323.9 L521.3,325.4 L521.2,330.3 L522.6,331.8 L520.5,336.9 L520.9,340.8 L511.7,340.7 L512.3,339.1 L508.3,337.4 L507.6,328.6 L502.7,330.0 L493.0,331.5 L489.4,335.2 L485.2,336.1 L485.9,337.6 L482.0,339.8 L480.3,339.1 L473.5,342.6 L471.0,346.1 L466.8,347.8 L463.6,346.0 L453.2,347.7 L446.7,347.3 L440.0,346.5 L442.7,343.1 L442.2,340.7 L438.4,339.5 L440.3,335.3 L439.2,332.6 L440.2,323.5 L442.0,322.4 L446.4,321.2 L449.6,323.5 L454.2,320.8 L459.1,320.9 L458.1,318.4 L461.5,316.6 L458.8,311.5 L460.5,294.0 L459.4,289.6 L460.9,286.5 L454.2,284.1 L459.4,278.0 L461.7,277.2 L465.3,279.6 L465.7,277.0 L471.8,278.6 L475.5,272.9 L476.7,267.7 L472.7,263.1 L472.7,257.0 L478.3,254.8 L478.2,252.0 L475.3,254.0 L475.5,248.0 Z">
  <desc xmlns="http://www.highcharts.com/svg/namespace">
    <name>Plön</name>
    <bundesland>DE.SH</bundesland>
    <hc-middle-x>0.50</hc-middle-x>
    <hc-middle-y>0.50</hc-middle-y>
    <hc-key>de-sh-01057000</hc-key>
    <hc-a2>PL</hc-a2>
  </desc>
</path>
</g>

<text x="350" y="714" text-anchor="middle" font-family="Verdana" font-size="8" stroke-opacity="0.6">Copyright (c) 2014 Highsoft AS, Based on data from GeoBasis-DE / BKG 2014</text>

</svg>