<?xml version="1.0" encoding="utf-8" standalone="no"?>
<!DOCTYPE svg PUBLIC "-//W3C//DTD SVG 1.1//EN" "http://www.w3.org/Graphics/SVG/1.1/DTD/svg11.dtd">

<svg version="1.1" height="700pt" width="700pt" xmlns="http://www.w3.org/2000/svg" xmlns:xlink="http://www.w3.org/1999/xlink">
<desc>
Map version: 1.1.1
Copyright (c) 2014 Highsoft AS, Based on data from GeoBasis-DE / BKG 2014
</desc>
<title>Sachsen-Anhalt</title>
<g id="admin2">

<g id="DE">
  <desc xmlns="http://www.highcharts.com/svg/namespace">
    <name>Germany</name>
    <labelrank>2</labelrank>
    <country-abbrev>Ger.</country-abbrev>
    <subregion>Western Europe</subregion>
    <woe-id>23424829</woe-id>
    <region-wb>Europe &amp; Central Asia</region-wb>
    <iso-a3>DEU</iso-a3>
    <iso-a2>DE</iso-a2>
    <region-un>Europe</region-un>
    <continent>Europe</continent>
    <hc-key>de</hc-key>
    <hc-a2>GE</hc-a2>
  </desc>
</g>

<g id="DE.ST">
  <desc xmlns="http://www.highcharts.com/svg/namespace">
    <labelrank>3</labelrank>
    <hasc>DE.ST</hasc>
    <alt-name>Saxony-Anhalt</alt-name>
    <woe-id>2345494</woe-id>
    <subregion>NULL</subregion>
    <fips>GM14</fips>
    <postal-code>ST</postal-code>
    <name>Sachsen-Anhalt</name>
    <country>Germany</country>
    <type-en>State</type-en>
    <region>NULL</region>
    <longitude>11.6796</longitude>
    <woe-name>Sachsen-Anhalt</woe-name>
    <latitude>51.9338</latitude>
    <woe-label>Saxony-Anhalt, DE, Germany</woe-label>
    <type>Land</type>
    <hc-key>de-st</hc-key>
    <hc-a2>SA</hc-a2>
  </desc>
</g>

<path fill="#CEE3F5" stroke="#6E6E6E" stroke-width="0.4" id="DE.ST.15002000" d="M285.6,504.9 L293.8,505.1 L294.3,501.9 L304.0,499.2 L307.6,500.0 L306.0,504.0 L309.4,504.6 L309.0,508.0 L311.8,514.3 L319.1,515.5 L321.7,513.6 L323.0,517.9 L319.9,517.5 L321.3,521.5 L315.9,521.2 L316.9,526.6 L313.8,527.3 L313.9,529.8 L310.6,534.5 L311.7,537.6 L307.5,542.7 L309.5,543.5 L303.8,545.4 L295.9,545.1 L295.1,536.2 L288.8,534.6 L287.5,532.3 L290.7,530.4 L286.1,526.3 L281.7,526.9 L281.1,523.8 L278.1,523.1 L276.0,517.2 L279.3,517.4 L274.5,509.9 L278.7,508.0 L278.9,503.0 Z">
  <desc xmlns="http://www.highcharts.com/svg/namespace">
    <name>Halle (Saale)</name>
    <bundesland>DE.ST</bundesland>
    <hc-middle-x>0.53</hc-middle-x>
    <hc-middle-y>0.42</hc-middle-y>
    <hc-key>de-st-15002000</hc-key>
    <hc-a2>H(</hc-a2>
  </desc>
</path>

<path fill="#CEE3F5" stroke="#6E6E6E" stroke-width="0.4" id="DE.ST.15001000" d="M323.2,378.7 L323.7,376.0 L324.3,376.1 L323.8,378.9 Z M371.2,432.3 L368.1,432.3 L364.8,429.5 L364.7,424.3 L360.9,418.2 L362.0,414.6 L359.2,413.5 L356.4,417.5 L355.5,415.7 L350.6,415.8 L348.4,425.6 L333.6,419.8 L325.8,418.1 L324.8,409.7 L328.9,407.1 L327.7,404.5 L329.3,395.5 L329.3,389.6 L323.0,388.2 L324.5,379.1 L327.5,377.2 L337.2,377.4 L330.9,369.3 L341.9,363.9 L341.2,357.1 L345.7,356.9 L345.6,354.6 L349.8,355.3 L356.3,353.5 L354.0,357.7 L358.6,362.4 L361.7,359.4 L364.9,363.3 L362.4,366.2 L363.2,371.9 L365.5,377.3 L365.4,381.8 L360.6,383.6 L358.5,390.0 L366.1,397.2 L367.3,401.9 L364.0,407.9 L366.9,412.5 L371.4,413.5 L371.0,416.8 L373.1,420.2 L372.5,427.1 L374.3,431.5 Z">
  <desc xmlns="http://www.highcharts.com/svg/namespace">
    <name>Dessau-Roßlau</name>
    <bundesland>DE.ST</bundesland>
    <hc-middle-x>0.44</hc-middle-x>
    <hc-middle-y>0.55</hc-middle-y>
    <hc-key>de-st-15001000</hc-key>
    <hc-a2>DR</hc-a2>
  </desc>
</path>

<path fill="#CEE3F5" stroke="#6E6E6E" stroke-width="0.4" id="DE.ST.15082000" d="M276.2,392.6 L275.6,392.9 L275.4,392.3 L276.0,391.9 Z M277.6,390.5 L276.6,391.5 L276.1,388.9 L277.0,388.8 Z M356.3,353.5 L349.8,355.3 L345.6,354.6 L345.7,356.9 L341.2,357.1 L341.9,363.9 L330.9,369.3 L337.2,377.4 L327.5,377.2 L324.5,379.1 L323.0,388.2 L329.3,389.6 L329.3,395.5 L327.7,404.5 L328.9,407.1 L324.8,409.7 L325.8,418.1 L333.6,419.8 L348.4,425.6 L350.6,415.8 L355.5,415.7 L356.4,417.5 L359.2,413.5 L362.0,414.6 L360.9,418.2 L364.7,424.3 L364.8,429.5 L368.1,432.3 L371.2,432.3 L368.8,434.8 L369.5,437.8 L374.0,436.8 L377.5,441.1 L373.5,442.4 L374.8,448.8 L382.1,443.7 L387.6,444.5 L391.8,441.1 L400.8,441.4 L400.8,448.2 L405.2,447.9 L405.8,452.0 L410.0,455.0 L421.8,452.1 L421.6,462.4 L419.7,463.1 L423.8,465.9 L422.8,469.6 L419.9,472.0 L406.8,473.9 L406.9,476.7 L402.8,477.2 L404.6,474.2 L399.5,474.8 L395.4,472.9 L392.3,476.4 L392.2,482.2 L376.1,481.4 L374.2,484.0 L370.1,484.8 L369.0,487.9 L364.9,490.7 L356.6,491.1 L355.1,489.2 L352.3,491.1 L352.2,495.7 L347.9,497.7 L345.7,501.4 L343.0,500.2 L339.2,495.4 L337.7,485.0 L328.5,485.8 L313.0,485.0 L309.7,481.3 L312.6,480.3 L312.2,475.8 L308.7,473.4 L308.6,470.4 L311.5,468.3 L310.8,465.2 L297.0,464.7 L293.3,466.3 L284.4,464.7 L274.1,456.0 L268.3,453.5 L269.7,444.5 L271.5,443.0 L271.1,434.6 L273.7,431.2 L276.8,431.0 L278.2,427.3 L272.7,422.6 L272.8,420.0 L269.3,421.2 L270.4,414.4 L272.1,415.9 L275.7,410.5 L275.8,407.6 L270.3,402.0 L272.5,397.1 L281.1,391.5 L280.7,389.7 L286.3,386.6 L292.6,390.9 L295.6,387.9 L299.6,386.9 L303.3,388.6 L301.3,382.8 L292.1,374.6 L291.7,371.6 L288.0,369.2 L274.0,354.2 L275.1,346.3 L285.1,345.1 L287.3,343.9 L290.3,338.2 L298.5,336.0 L302.2,329.5 L303.7,324.2 L308.6,326.4 L312.0,320.1 L316.9,320.0 L324.1,321.8 L333.4,318.9 L338.6,314.6 L340.4,309.9 L351.3,310.1 L353.3,308.8 L361.2,312.0 L364.6,319.8 L368.7,323.1 L371.3,327.3 L374.7,327.6 L374.6,333.6 L370.6,333.9 L367.6,336.7 L364.2,343.2 L355.2,345.4 L350.7,348.0 L355.9,350.5 Z M323.2,378.7 L323.8,378.9 L324.3,376.1 L323.7,376.0 Z">
  <desc xmlns="http://www.highcharts.com/svg/namespace">
    <name>Anhalt-Bitterfeld</name>
    <bundesland>DE.ST</bundesland>
    <hc-middle-x>0.35</hc-middle-x>
    <hc-middle-y>0.70</hc-middle-y>
    <hc-key>de-st-15082000</hc-key>
    <hc-a2>AB</hc-a2>
  </desc>
</path>

<path fill="#CEE3F5" stroke="#6E6E6E" stroke-width="0.4" id="DE.ST.15090000" d="M184.3,34.6 L181.5,28.4 L183.9,14.9 L188.0,12.0 L191.4,14.7 L194.4,10.1 L205.1,0.5 L208.5,0.0 L210.8,2.8 L207.8,9.1 L211.8,12.0 L218.2,10.7 L219.7,17.8 L223.9,20.8 L229.5,17.1 L236.8,19.6 L241.0,25.8 L249.7,26.7 L253.5,28.8 L253.5,32.4 L248.9,39.1 L253.0,42.7 L259.3,42.8 L264.4,47.6 L274.5,48.8 L277.2,51.6 L281.7,52.7 L286.5,48.7 L290.0,47.6 L300.6,48.4 L301.9,51.5 L308.3,51.7 L310.5,45.6 L309.8,51.7 L312.6,54.8 L310.9,58.9 L320.5,54.8 L325.3,50.2 L326.6,53.3 L332.8,55.6 L332.9,59.4 L335.7,68.9 L338.7,74.1 L336.1,80.3 L332.1,80.2 L330.7,88.2 L328.9,89.3 L332.7,96.2 L330.0,97.9 L328.0,102.8 L333.4,108.8 L332.2,110.4 L337.1,118.9 L335.9,125.0 L337.2,127.7 L336.0,133.0 L330.6,137.0 L324.0,134.8 L324.9,149.5 L326.6,151.8 L322.6,156.3 L319.4,167.8 L325.7,164.1 L328.8,166.0 L324.7,172.1 L325.7,174.9 L324.0,176.7 L320.2,174.8 L314.0,175.4 L311.6,173.8 L311.5,169.5 L306.0,164.5 L300.9,169.6 L294.7,170.1 L288.7,172.3 L287.8,167.9 L289.9,163.0 L288.8,155.4 L287.3,153.3 L285.9,166.9 L282.8,170.9 L282.5,173.9 L287.7,180.7 L288.6,187.4 L291.6,191.1 L289.7,202.9 L284.2,212.2 L278.3,214.7 L279.7,221.4 L274.3,222.7 L273.0,227.5 L262.6,236.2 L261.1,231.4 L263.5,230.9 L255.2,222.9 L258.4,219.6 L259.4,213.1 L254.4,208.6 L251.4,210.1 L249.8,206.5 L245.5,207.9 L248.6,209.4 L245.8,214.1 L234.1,210.8 L237.0,206.1 L233.7,205.1 L229.9,194.7 L224.3,193.2 L217.2,193.3 L218.1,191.5 L206.8,195.7 L210.0,183.8 L207.0,185.8 L206.1,182.5 L206.7,175.1 L202.3,173.7 L205.6,153.2 L205.2,143.0 L199.3,143.9 L194.9,142.8 L188.5,146.2 L177.2,145.3 L171.0,145.9 L169.7,143.3 L165.9,142.1 L170.8,137.1 L178.0,136.2 L184.9,131.2 L181.3,124.9 L181.1,119.7 L183.4,119.5 L189.3,114.4 L190.7,111.2 L190.3,100.9 L196.6,96.1 L198.1,92.8 L194.0,90.8 L187.5,92.2 L186.0,86.5 L193.2,82.2 L190.9,76.7 L185.7,77.5 L180.5,76.7 L178.1,68.2 L190.0,67.6 L191.5,64.1 L199.1,65.3 L203.1,62.2 L209.9,62.4 L211.1,60.2 L209.5,52.4 L211.6,48.4 L205.9,47.3 L199.4,42.6 L195.6,35.9 L192.3,36.4 L195.2,38.8 L193.8,40.8 L187.3,37.9 Z M255.7,235.6 L254.4,235.4 L253.0,235.6 L249.9,233.5 L250.7,229.1 L256.4,232.5 Z">
  <desc xmlns="http://www.highcharts.com/svg/namespace">
    <name>Stendal</name>
    <bundesland>DE.ST</bundesland>
    <hc-middle-x>0.57</hc-middle-x>
    <hc-middle-y>0.52</hc-middle-y>
    <hc-key>de-st-15090000</hc-key>
    <hc-a2>ST</hc-a2>
  </desc>
</path>

<path fill="#CEE3F5" stroke="#6E6E6E" stroke-width="0.4" id="DE.ST.15081000" d="M184.3,34.6 L187.3,37.9 L193.8,40.8 L195.2,38.8 L192.3,36.4 L195.6,35.9 L199.4,42.6 L205.9,47.3 L211.6,48.4 L209.5,52.4 L211.1,60.2 L209.9,62.4 L203.1,62.2 L199.1,65.3 L191.5,64.1 L190.0,67.6 L178.1,68.2 L180.5,76.7 L185.7,77.5 L190.9,76.7 L193.2,82.2 L186.0,86.5 L187.5,92.2 L194.0,90.8 L198.1,92.8 L196.6,96.1 L190.3,100.9 L190.7,111.2 L189.3,114.4 L183.4,119.5 L181.1,119.7 L181.3,124.9 L184.9,131.2 L178.0,136.2 L170.8,137.1 L165.9,142.1 L169.7,143.3 L171.0,145.9 L177.2,145.3 L188.5,146.2 L194.9,142.8 L199.3,143.9 L205.2,143.0 L205.6,153.2 L202.3,173.7 L206.7,175.1 L206.1,182.5 L207.0,185.8 L210.0,183.8 L206.8,195.7 L202.3,212.0 L178.9,220.7 L178.0,216.4 L179.6,213.7 L169.9,208.1 L166.5,209.4 L165.1,206.5 L158.1,209.5 L152.5,208.9 L150.2,203.8 L145.1,207.4 L136.1,205.2 L129.8,205.1 L118.0,207.0 L109.7,202.0 L102.4,195.3 L98.7,184.6 L96.7,182.6 L93.5,186.0 L91.6,184.3 L88.0,186.7 L82.6,180.6 L75.2,170.1 L72.8,163.2 L74.7,158.3 L73.0,156.2 L80.2,150.0 L80.3,144.2 L77.7,143.7 L73.6,147.4 L69.1,149.1 L65.6,143.6 L63.8,138.4 L61.0,135.7 L59.7,131.4 L55.9,127.8 L50.3,119.2 L48.4,113.5 L42.8,114.9 L40.9,108.4 L41.5,103.8 L34.0,92.1 L35.0,85.4 L33.8,79.9 L36.7,74.9 L35.6,72.2 L41.6,71.5 L42.4,69.3 L49.4,70.1 L55.7,67.1 L57.9,69.8 L61.2,69.6 L61.7,66.8 L70.6,67.5 L76.1,60.0 L79.7,57.7 L80.2,51.9 L82.4,47.8 L90.2,46.8 L94.7,48.0 L102.3,46.7 L101.3,51.2 L105.4,52.3 L113.8,50.0 L113.9,48.6 L127.2,51.0 L131.2,57.0 L136.8,56.6 L138.6,54.1 L142.2,54.1 L142.6,58.2 L154.4,52.6 L158.4,49.2 L165.3,47.3 L168.1,43.4 L177.3,35.6 Z">
  <desc xmlns="http://www.highcharts.com/svg/namespace">
    <name>Altmarkkreis Salzwedel</name>
    <bundesland>DE.ST</bundesland>
    <hc-middle-x>0.50</hc-middle-x>
    <hc-middle-y>0.51</hc-middle-y>
    <hc-key>de-st-15081000</hc-key>
    <hc-a2>AS</hc-a2>
  </desc>
</path>

<path fill="#CEE3F5" stroke="#6E6E6E" stroke-width="0.4" id="DE.ST.14730000" d="M521.6,453.6 L531.3,467.1 L536.7,462.4 L541.8,469.2 L545.7,470.9 L541.8,478.1 L546.1,482.0 L551.3,482.0 L552.6,488.1 L556.7,493.0 L556.8,499.5 L553.0,505.9 L552.8,511.8 L557.1,515.7 L555.0,522.5 L551.5,524.1 L554.4,526.1 L555.3,522.9 L559.4,533.1 L555.5,536.7 L554.3,543.3 L557.2,543.8 L558.7,547.2 L556.5,548.8 L560.8,553.6 L559.2,558.3 L562.5,570.3 L561.2,575.7 L563.4,578.4 L559.4,582.2 L559.4,586.1 L561.9,588.2 L560.2,591.8 L557.1,590.4 L555.0,592.7 L549.7,592.9 L549.8,595.4 L540.5,595.1 L541.9,598.6 L537.5,599.3 L535.4,596.8 L528.7,598.9 L528.4,603.1 L523.0,603.9 L522.7,601.8 L517.3,599.6 L517.0,596.8 L510.6,596.2 L503.2,598.9 L499.1,595.3 L502.6,589.1 L502.2,581.5 L499.8,582.5 L499.3,579.2 L495.8,578.1 L496.4,575.7 L490.4,571.9 L492.2,567.3 L495.2,564.6 L495.6,556.7 L497.5,553.6 L501.4,554.2 L503.1,549.0 L499.2,546.3 L497.9,547.7 L495.5,538.4 L498.9,540.3 L502.5,539.5 L503.3,534.6 L499.3,532.6 L494.7,526.7 L491.2,525.9 L489.4,523.2 L484.9,523.4 L476.2,521.7 L475.4,519.2 L470.0,516.5 L462.6,521.9 L455.8,521.9 L454.7,525.1 L444.5,524.2 L440.8,527.1 L441.7,539.6 L439.9,537.4 L436.0,539.2 L434.5,547.1 L429.7,547.2 L420.8,552.2 L418.4,550.9 L411.1,555.7 L407.0,555.7 L404.2,553.6 L406.1,548.3 L403.1,545.7 L404.0,542.4 L401.8,536.6 L408.1,536.7 L408.7,532.0 L404.4,531.9 L404.0,528.5 L397.6,527.0 L398.1,532.8 L394.3,534.3 L390.3,533.5 L388.8,537.5 L384.2,535.6 L380.7,538.0 L371.0,538.5 L361.8,538.1 L360.3,551.4 L357.3,554.7 L357.2,563.4 L347.5,568.0 L342.1,542.2 L344.2,541.9 L343.7,534.7 L338.4,534.8 L338.2,528.2 L336.1,524.7 L341.2,522.8 L341.5,518.0 L347.2,516.8 L348.0,510.9 L345.8,510.9 L344.2,505.2 L345.7,501.4 L347.9,497.7 L352.2,495.7 L352.3,491.1 L355.1,489.2 L356.6,491.1 L364.9,490.7 L369.0,487.9 L370.1,484.8 L374.2,484.0 L376.1,481.4 L392.2,482.2 L392.3,476.4 L395.4,472.9 L399.5,474.8 L404.6,474.2 L402.8,477.2 L406.9,476.7 L406.8,473.9 L419.9,472.0 L422.8,469.6 L423.8,465.9 L427.1,468.4 L429.3,465.4 L434.0,465.7 L432.8,469.0 L438.3,467.1 L441.6,463.2 L441.5,459.6 L445.9,452.6 L451.8,452.7 L461.9,457.1 L465.4,454.5 L467.4,450.5 L475.4,446.5 L477.7,443.4 L481.4,446.7 L483.4,453.1 L487.3,448.9 L488.1,453.3 L493.0,456.3 L496.7,454.7 L499.1,458.1 L500.4,454.1 L505.1,453.2 L503.8,449.1 L509.8,447.0 L513.1,448.3 L516.0,457.4 Z">
  <desc xmlns="http://www.highcharts.com/svg/namespace">
    <name>Nordsachsen</name>
    <bundesland>DE.ST</bundesland>
    <hc-middle-x>0.50</hc-middle-x>
    <hc-middle-y>0.32</hc-middle-y>
    <hc-key>de-st-14730000</hc-key>
    <hc-a2>NO</hc-a2>
  </desc>
</path>

<path fill="#CEE3F5" stroke="#6E6E6E" stroke-width="0.4" id="DE.ST.15085000" d="M76.8,482.3 L70.7,483.8 L64.8,477.1 L59.2,478.2 L57.0,480.2 L56.2,475.2 L49.3,474.4 L44.9,472.1 L41.8,475.1 L39.2,473.6 L33.4,475.2 L30.7,474.5 L27.8,468.6 L25.2,466.6 L23.5,458.5 L25.4,456.5 L24.3,452.0 L18.9,447.2 L17.0,443.5 L15.2,435.9 L8.3,433.2 L5.8,429.1 L6.1,422.6 L4.1,418.6 L4.7,413.7 L6.9,410.4 L4.4,408.0 L5.9,404.6 L9.4,404.1 L12.3,398.9 L15.2,398.2 L19.1,392.2 L18.9,386.2 L16.6,383.3 L11.4,381.5 L11.2,375.5 L13.1,372.7 L18.2,370.6 L17.0,367.6 L12.5,369.4 L12.4,366.3 L9.6,365.7 L9.5,362.8 L5.3,363.4 L5.4,361.1 L0.0,354.1 L2.4,351.9 L8.0,352.9 L16.0,349.9 L19.3,346.7 L17.6,341.1 L29.2,338.0 L40.2,338.3 L43.8,337.6 L55.0,338.1 L61.2,336.5 L64.7,334.1 L76.8,333.6 L82.9,334.4 L93.3,337.6 L95.7,339.7 L104.8,340.1 L105.0,344.9 L107.8,343.8 L108.2,348.8 L113.9,352.5 L122.7,352.5 L122.3,357.4 L124.5,358.4 L122.2,361.8 L123.4,363.8 L127.4,363.7 L128.5,366.9 L124.6,372.4 L127.8,379.9 L130.9,376.7 L137.5,379.0 L138.4,382.5 L145.5,385.6 L148.4,382.4 L156.3,384.9 L160.6,382.6 L162.4,384.2 L159.9,389.0 L163.2,392.7 L160.9,393.0 L161.7,397.3 L153.1,409.0 L147.9,407.1 L142.3,416.0 L149.5,420.3 L150.7,427.9 L154.8,432.1 L160.8,432.3 L162.9,426.7 L165.0,425.3 L175.9,427.9 L175.2,431.8 L178.1,434.3 L176.9,441.2 L174.6,446.6 L176.0,451.5 L172.8,454.2 L169.2,454.1 L164.7,457.2 L162.1,462.0 L157.8,465.6 L154.2,465.5 L155.4,468.5 L148.0,470.0 L146.3,472.8 L142.8,471.6 L143.2,476.7 L146.4,478.6 L143.2,483.6 L143.3,486.9 L139.2,489.3 L136.7,488.0 L130.5,489.7 L130.0,487.3 L127.4,490.9 L126.8,495.8 L121.3,497.8 L118.1,493.9 L120.6,489.3 L115.7,489.9 L112.5,485.3 L107.3,488.4 L103.2,489.2 L102.9,484.8 L99.6,489.3 L94.9,489.9 L101.2,486.2 L101.9,483.3 L98.2,481.6 L99.7,478.9 L93.7,477.6 L89.3,479.2 L87.8,476.4 L80.0,477.7 L80.6,479.6 Z">
  <desc xmlns="http://www.highcharts.com/svg/namespace">
    <name>Harz</name>
    <bundesland>DE.ST</bundesland>
    <hc-middle-x>0.42</hc-middle-x>
    <hc-middle-y>0.48</hc-middle-y>
    <hc-key>de-st-15085000</hc-key>
    <hc-a2>HA</hc-a2>
  </desc>
</path>

<path fill="#CEE3F5" stroke="#6E6E6E" stroke-width="0.4" id="DE.ST.15086000" d="M253.0,235.6 L254.4,235.4 L255.7,235.6 L258.7,236.7 L262.6,236.2 L273.0,227.5 L274.3,222.7 L279.7,221.4 L278.3,214.7 L284.2,212.2 L289.7,202.9 L291.6,191.1 L288.6,187.4 L287.7,180.7 L282.5,173.9 L282.8,170.9 L285.9,166.9 L287.3,153.3 L288.8,155.4 L289.9,163.0 L287.8,167.9 L288.7,172.3 L294.7,170.1 L300.9,169.6 L306.0,164.5 L311.5,169.5 L311.6,173.8 L314.0,175.4 L320.2,174.8 L324.0,176.7 L325.7,174.9 L328.5,178.3 L336.0,176.4 L338.6,168.5 L342.9,169.9 L344.4,177.7 L346.4,180.3 L351.8,177.2 L354.9,179.2 L355.8,184.1 L358.7,182.8 L357.8,187.4 L354.0,192.1 L352.6,201.2 L348.1,204.2 L353.3,206.3 L354.2,209.9 L352.1,214.1 L355.1,216.5 L350.8,221.5 L356.1,227.8 L351.5,235.9 L347.5,244.9 L345.4,252.5 L346.4,256.1 L344.5,260.8 L347.9,261.3 L355.5,266.7 L352.0,270.9 L348.2,271.2 L345.3,274.4 L346.2,282.2 L342.1,281.8 L340.0,287.2 L343.6,289.5 L343.2,292.1 L346.8,297.8 L350.1,299.3 L353.3,308.8 L351.3,310.1 L340.4,309.9 L338.6,314.6 L333.4,318.9 L324.1,321.8 L316.9,320.0 L312.0,320.1 L308.6,326.4 L303.7,324.2 L302.2,329.5 L298.5,336.0 L290.3,338.2 L287.3,343.9 L285.1,345.1 L275.1,346.3 L274.3,342.8 L271.0,338.4 L266.2,337.5 L263.5,335.0 L266.7,329.9 L262.5,326.3 L258.5,326.7 L255.6,324.8 L250.0,325.4 L247.7,323.6 L248.0,323.3 L247.8,322.5 L246.4,318.7 L244.5,316.9 L243.8,314.4 L238.8,314.8 L237.1,309.7 L238.9,300.9 L235.1,299.2 L235.7,291.4 L230.6,286.1 L234.0,281.7 L235.6,277.6 L233.8,274.7 L233.0,267.2 L238.0,263.9 L243.5,254.7 L245.3,249.1 L245.6,243.7 Z">
  <desc xmlns="http://www.highcharts.com/svg/namespace">
    <name>Jerichower Land</name>
    <bundesland>DE.ST</bundesland>
    <hc-middle-x>0.53</hc-middle-x>
    <hc-middle-y>0.59</hc-middle-y>
    <hc-key>de-st-15086000</hc-key>
    <hc-a2>JL</hc-a2>
  </desc>
</path>

<path fill="#CEE3F5" stroke="#6E6E6E" stroke-width="0.4" id="DE.ST.15088000" d="M345.7,501.4 L344.2,505.2 L345.8,510.9 L348.0,510.9 L347.2,516.8 L341.5,518.0 L341.2,522.8 L336.1,524.7 L338.2,528.2 L338.4,534.8 L343.7,534.7 L344.2,541.9 L342.1,542.2 L347.5,568.0 L342.5,569.9 L341.6,572.2 L338.0,572.7 L340.5,581.8 L342.9,581.2 L343.5,587.3 L338.6,586.4 L338.1,589.3 L331.6,590.2 L331.4,592.6 L324.0,594.2 L323.8,597.4 L318.8,595.6 L317.3,592.7 L320.2,590.7 L317.6,587.6 L320.5,584.3 L315.4,585.1 L308.8,588.3 L305.2,587.2 L301.2,591.1 L292.1,591.3 L292.9,599.3 L292.1,602.6 L287.0,603.8 L284.0,600.3 L275.8,603.0 L273.6,599.4 L271.2,602.8 L270.5,599.6 L263.4,599.9 L263.2,593.1 L256.5,588.6 L244.5,594.4 L242.1,590.9 L239.8,591.2 L229.3,581.6 L230.4,578.8 L227.9,577.0 L224.3,578.5 L222.7,583.0 L219.3,582.1 L216.5,585.6 L215.9,591.2 L213.1,592.5 L208.1,588.8 L206.4,592.4 L202.2,591.1 L196.8,586.4 L196.6,584.7 L183.7,574.1 L186.9,571.7 L184.9,570.9 L184.9,570.9 L184.9,570.9 L184.9,570.9 L184.3,570.6 L187.4,562.0 L194.1,559.8 L196.8,553.8 L199.5,553.7 L201.1,547.0 L206.7,545.4 L206.1,542.3 L213.5,536.0 L221.7,535.7 L222.5,532.6 L228.3,529.6 L232.2,533.7 L235.8,532.9 L236.9,537.9 L240.8,541.8 L251.5,538.9 L250.6,535.1 L256.2,534.2 L259.1,527.8 L255.2,526.2 L250.3,520.6 L243.4,516.5 L242.7,511.8 L246.5,506.8 L244.0,499.1 L239.3,496.7 L239.4,493.2 L242.7,487.2 L247.2,484.0 L247.8,480.0 L252.2,478.4 L250.4,475.1 L250.9,471.0 L249.5,467.0 L251.6,465.0 L260.7,467.5 L265.6,462.0 L268.6,464.5 L271.0,463.1 L274.1,456.0 L284.4,464.7 L293.3,466.3 L297.0,464.7 L310.8,465.2 L311.5,468.3 L308.6,470.4 L308.7,473.4 L312.2,475.8 L312.6,480.3 L309.7,481.3 L313.0,485.0 L328.5,485.8 L337.7,485.0 L339.2,495.4 L343.0,500.2 Z M285.6,504.9 L278.9,503.0 L278.7,508.0 L274.5,509.9 L279.3,517.4 L276.0,517.2 L278.1,523.1 L281.1,523.8 L281.7,526.9 L286.1,526.3 L290.7,530.4 L287.5,532.3 L288.8,534.6 L295.1,536.2 L295.9,545.1 L303.8,545.4 L309.5,543.5 L307.5,542.7 L311.7,537.6 L310.6,534.5 L313.9,529.8 L313.8,527.3 L316.9,526.6 L315.9,521.2 L321.3,521.5 L319.9,517.5 L323.0,517.9 L321.7,513.6 L319.1,515.5 L311.8,514.3 L309.0,508.0 L309.4,504.6 L306.0,504.0 L307.6,500.0 L304.0,499.2 L294.3,501.9 L293.8,505.1 Z M183.3,571.0 L182.7,571.8 L182.0,571.1 L182.4,570.3 Z M180.9,568.7 L179.2,567.2 L179.2,565.4 L180.7,564.8 Z">
  <desc xmlns="http://www.highcharts.com/svg/namespace">
    <name>Saalekreis</name>
    <bundesland>DE.ST</bundesland>
    <hc-middle-x>0.53</hc-middle-x>
    <hc-middle-y>0.72</hc-middle-y>
    <hc-key>de-st-15088000</hc-key>
    <hc-a2>SA</hc-a2>
  </desc>
</path>

<path fill="#CEE3F5" stroke="#6E6E6E" stroke-width="0.4" id="DE.ST.15089000" d="M244.5,316.9 L246.4,318.7 L247.8,322.5 L243.7,320.8 Z M274.1,456.0 L271.0,463.1 L268.6,464.5 L265.6,462.0 L260.7,467.5 L251.6,465.0 L249.5,467.0 L250.9,471.0 L249.7,472.6 L244.3,472.7 L241.1,467.6 L237.6,465.9 L232.4,465.9 L219.9,461.7 L221.4,457.5 L219.4,449.3 L215.1,449.7 L207.6,455.2 L201.7,454.3 L201.3,449.4 L197.0,445.0 L188.3,443.1 L186.4,446.6 L183.3,443.8 L176.9,441.2 L178.1,434.3 L175.2,431.8 L175.9,427.9 L165.0,425.3 L162.9,426.7 L160.8,432.3 L154.8,432.1 L150.7,427.9 L149.5,420.3 L142.3,416.0 L147.9,407.1 L153.1,409.0 L161.7,397.3 L160.9,393.0 L163.2,392.7 L159.9,389.0 L162.4,384.2 L163.4,380.0 L168.3,373.2 L166.0,371.4 L166.9,368.1 L164.1,367.6 L162.6,363.7 L166.5,357.8 L174.1,356.8 L176.8,349.0 L183.2,348.1 L183.4,353.3 L190.6,356.4 L196.5,362.5 L209.3,360.4 L214.8,360.7 L216.1,353.9 L215.0,342.8 L219.8,341.9 L218.7,339.2 L222.2,338.9 L224.4,340.4 L233.9,331.8 L239.6,335.1 L243.6,332.4 L247.7,323.6 L250.0,325.4 L255.6,324.8 L258.5,326.7 L262.5,326.3 L266.7,329.9 L263.5,335.0 L266.2,337.5 L271.0,338.4 L274.3,342.8 L275.1,346.3 L274.0,354.2 L288.0,369.2 L291.7,371.6 L292.1,374.6 L301.3,382.8 L303.3,388.6 L299.6,386.9 L295.6,387.9 L292.6,390.9 L286.3,386.6 L280.7,389.7 L281.1,391.5 L272.5,397.1 L270.3,402.0 L275.8,407.6 L275.7,410.5 L272.1,415.9 L270.4,414.4 L269.3,421.2 L272.8,420.0 L272.7,422.6 L278.2,427.3 L276.8,431.0 L273.7,431.2 L271.1,434.6 L271.5,443.0 L269.7,444.5 L268.3,453.5 Z M276.2,392.6 L276.0,391.9 L275.4,392.3 L275.6,392.9 Z M277.6,390.5 L277.0,388.8 L276.1,388.9 L276.6,391.5 Z">
  <desc xmlns="http://www.highcharts.com/svg/namespace">
    <name>Salzlandkreis</name>
    <bundesland>DE.ST</bundesland>
    <hc-middle-x>0.50</hc-middle-x>
    <hc-middle-y>0.51</hc-middle-y>
    <hc-key>de-st-15089000</hc-key>
    <hc-a2>SA</hc-a2>
  </desc>
</path>

<path fill="#CEE3F5" stroke="#6E6E6E" stroke-width="0.4" id="DE.ST.15087000" d="M182.0,571.1 L180.6,570.3 L180.9,568.7 L180.7,564.8 L179.2,565.4 L179.7,558.1 L175.7,556.2 L173.1,557.7 L165.8,555.5 L163.5,548.8 L156.0,551.8 L149.3,552.5 L144.5,551.0 L143.1,548.5 L128.4,552.8 L122.9,549.1 L111.0,544.3 L106.9,544.1 L101.1,548.0 L94.5,548.4 L98.2,546.2 L89.0,543.6 L90.1,536.5 L87.6,533.4 L89.4,527.2 L82.0,517.3 L81.5,510.0 L84.2,508.5 L73.0,502.0 L74.0,499.7 L70.0,494.5 L71.3,489.1 L80.2,490.5 L81.4,487.1 L76.4,484.0 L76.8,482.3 L80.6,479.6 L80.0,477.7 L87.8,476.4 L89.3,479.2 L93.7,477.6 L99.7,478.9 L98.2,481.6 L101.9,483.3 L101.2,486.2 L94.9,489.9 L99.6,489.3 L102.9,484.8 L103.2,489.2 L107.3,488.4 L112.5,485.3 L115.7,489.9 L120.6,489.3 L118.1,493.9 L121.3,497.8 L126.8,495.8 L127.4,490.9 L130.0,487.3 L130.5,489.7 L136.7,488.0 L139.2,489.3 L143.3,486.9 L143.2,483.6 L146.4,478.6 L143.2,476.7 L142.8,471.6 L146.3,472.8 L148.0,470.0 L155.4,468.5 L154.2,465.5 L157.8,465.6 L162.1,462.0 L164.7,457.2 L169.2,454.1 L172.8,454.2 L176.0,451.5 L174.6,446.6 L176.9,441.2 L183.3,443.8 L186.4,446.6 L188.3,443.1 L197.0,445.0 L201.3,449.4 L201.7,454.3 L207.6,455.2 L215.1,449.7 L219.4,449.3 L221.4,457.5 L219.9,461.7 L232.4,465.9 L237.6,465.9 L241.1,467.6 L244.3,472.7 L249.7,472.6 L250.9,471.0 L250.4,475.1 L252.2,478.4 L247.8,480.0 L247.2,484.0 L242.7,487.2 L239.4,493.2 L239.3,496.7 L244.0,499.1 L246.5,506.8 L242.7,511.8 L243.4,516.5 L250.3,520.6 L255.2,526.2 L259.1,527.8 L256.2,534.2 L250.6,535.1 L251.5,538.9 L240.8,541.8 L236.9,537.9 L235.8,532.9 L232.2,533.7 L228.3,529.6 L222.5,532.6 L221.7,535.7 L213.5,536.0 L206.1,542.3 L206.7,545.4 L201.1,547.0 L199.5,553.7 L196.8,553.8 L194.1,559.8 L187.4,562.0 L184.3,570.6 L184.9,570.9 L184.9,570.9 L183.3,571.0 L182.4,570.3 Z M186.9,571.7 L184.9,570.9 L184.9,570.9 L186.8,570.7 Z">
  <desc xmlns="http://www.highcharts.com/svg/namespace">
    <name>Mansfeld-Südharz</name>
    <bundesland>DE.ST</bundesland>
    <hc-middle-x>0.59</hc-middle-x>
    <hc-middle-y>0.48</hc-middle-y>
    <hc-key>de-st-15087000</hc-key>
    <hc-a2>MS</hc-a2>
  </desc>
</path>

<path fill="#CEE3F5" stroke="#6E6E6E" stroke-width="0.4" id="DE.ST.15083000" d="M88.0,186.7 L91.6,184.3 L93.5,186.0 L96.7,182.6 L98.7,184.6 L102.4,195.3 L109.7,202.0 L118.0,207.0 L129.8,205.1 L136.1,205.2 L145.1,207.4 L150.2,203.8 L152.5,208.9 L158.1,209.5 L165.1,206.5 L166.5,209.4 L169.9,208.1 L179.6,213.7 L178.0,216.4 L178.9,220.7 L202.3,212.0 L206.8,195.7 L218.1,191.5 L217.2,193.3 L224.3,193.2 L229.9,194.7 L233.7,205.1 L237.0,206.1 L234.1,210.8 L245.8,214.1 L248.6,209.4 L245.5,207.9 L249.8,206.5 L251.4,210.1 L254.4,208.6 L259.4,213.1 L258.4,219.6 L255.2,222.9 L263.5,230.9 L261.1,231.4 L262.6,236.2 L258.7,236.7 L255.7,235.6 L256.4,232.5 L250.7,229.1 L249.9,233.5 L253.0,235.6 L245.6,243.7 L245.3,249.1 L243.5,254.7 L238.0,263.9 L233.0,267.2 L233.8,274.7 L235.6,277.6 L234.0,281.7 L230.8,282.0 L227.4,272.4 L219.8,272.5 L222.3,282.4 L218.3,286.4 L206.4,290.9 L204.3,298.0 L205.1,301.8 L202.4,301.4 L201.2,310.8 L197.8,327.3 L206.6,327.5 L214.1,325.9 L214.9,329.1 L219.2,331.9 L222.2,338.9 L218.7,339.2 L219.8,341.9 L215.0,342.8 L216.1,353.9 L214.8,360.7 L209.3,360.4 L196.5,362.5 L190.6,356.4 L183.4,353.3 L183.2,348.1 L176.8,349.0 L174.1,356.8 L166.5,357.8 L162.6,363.7 L164.1,367.6 L166.9,368.1 L166.0,371.4 L168.3,373.2 L163.4,380.0 L162.4,384.2 L160.6,382.6 L156.3,384.9 L148.4,382.4 L145.5,385.6 L138.4,382.5 L137.5,379.0 L130.9,376.7 L127.8,379.9 L124.6,372.4 L128.5,366.9 L127.4,363.7 L123.4,363.8 L122.2,361.8 L124.5,358.4 L122.3,357.4 L122.7,352.5 L113.9,352.5 L108.2,348.8 L107.8,343.8 L105.0,344.9 L104.8,340.1 L95.7,339.7 L93.3,337.6 L82.9,334.4 L84.5,328.4 L83.9,324.3 L77.6,321.3 L77.9,319.0 L85.1,317.9 L92.1,312.4 L93.2,310.1 L99.1,307.1 L98.8,304.8 L101.8,301.3 L101.6,295.1 L96.4,295.4 L92.1,292.2 L91.8,286.3 L94.9,282.2 L104.7,279.5 L106.4,276.1 L103.6,271.3 L100.7,272.2 L99.1,263.3 L94.3,262.5 L90.7,255.5 L96.1,251.9 L95.3,249.0 L88.9,242.9 L88.1,240.4 L84.3,238.8 L92.3,236.6 L95.3,237.5 L101.7,232.9 L101.0,227.8 L97.2,223.2 L91.9,221.5 L84.7,212.4 L79.0,207.7 L75.9,201.4 L73.0,199.1 L74.7,188.5 L81.2,185.3 L82.3,186.7 Z">
  <desc xmlns="http://www.highcharts.com/svg/namespace">
    <name>Börde</name>
    <bundesland>DE.ST</bundesland>
    <hc-middle-x>0.43</hc-middle-x>
    <hc-middle-y>0.52</hc-middle-y>
    <hc-key>de-st-15083000</hc-key>
    <hc-a2>BÖ</hc-a2>
  </desc>
</path>

<path fill="#CEE3F5" stroke="#6E6E6E" stroke-width="0.4" id="DE.ST.15003000" d="M244.5,316.9 L243.7,320.8 L247.8,322.5 L248.0,323.3 L247.7,323.6 L243.6,332.4 L239.6,335.1 L233.9,331.8 L224.4,340.4 L222.2,338.9 L219.2,331.9 L214.9,329.1 L214.1,325.9 L206.6,327.5 L197.8,327.3 L201.2,310.8 L202.4,301.4 L205.1,301.8 L204.3,298.0 L206.4,290.9 L218.3,286.4 L222.3,282.4 L219.8,272.5 L227.4,272.4 L230.8,282.0 L234.0,281.7 L230.6,286.1 L235.7,291.4 L235.1,299.2 L238.9,300.9 L237.1,309.7 L238.8,314.8 L243.8,314.4 Z">
  <desc xmlns="http://www.highcharts.com/svg/namespace">
    <name>Magdeburg</name>
    <bundesland>DE.ST</bundesland>
    <hc-middle-x>0.53</hc-middle-x>
    <hc-middle-y>0.60</hc-middle-y>
    <hc-key>de-st-15003000</hc-key>
    <hc-a2>MA</hc-a2>
  </desc>
</path>

<path fill="#CEE3F5" stroke="#6E6E6E" stroke-width="0.4" id="DE.ST.15084000" d="M343.5,587.3 L344.4,593.1 L347.7,593.2 L350.1,606.8 L348.2,615.4 L345.4,615.9 L345.7,618.9 L353.7,617.8 L350.8,631.9 L356.9,633.1 L360.5,635.5 L356.5,642.4 L358.6,644.4 L368.8,645.4 L370.1,650.8 L367.0,652.5 L365.1,656.7 L366.1,662.2 L364.1,666.3 L368.5,665.1 L373.1,668.0 L372.8,672.3 L367.7,681.5 L362.5,687.2 L363.1,693.8 L357.6,700.0 L357.2,693.2 L353.9,693.9 L350.3,687.6 L346.4,690.9 L347.1,693.3 L330.2,688.3 L323.5,691.2 L319.7,689.9 L314.1,691.1 L315.3,688.9 L312.9,684.1 L306.1,684.6 L307.0,676.6 L302.7,674.7 L298.9,670.8 L292.4,672.5 L291.8,666.7 L288.8,666.9 L287.1,663.4 L284.3,662.9 L269.3,667.0 L263.1,665.2 L262.6,668.0 L256.9,665.1 L258.5,664.1 L251.6,659.7 L247.3,660.4 L247.3,655.3 L245.0,651.1 L239.6,647.9 L233.6,646.9 L229.8,649.2 L225.8,646.2 L219.4,644.6 L214.1,650.5 L207.0,648.8 L206.7,650.5 L201.4,650.9 L196.6,647.5 L196.9,642.7 L193.7,636.3 L198.1,635.7 L199.5,632.1 L197.6,628.4 L196.9,620.8 L192.7,619.7 L191.9,615.7 L188.7,614.4 L180.5,617.7 L180.3,613.3 L174.7,611.9 L178.2,604.0 L184.6,604.9 L187.2,600.0 L193.3,592.6 L193.9,586.9 L196.8,586.4 L202.2,591.1 L206.4,592.4 L208.1,588.8 L213.1,592.5 L215.9,591.2 L216.5,585.6 L219.3,582.1 L222.7,583.0 L224.3,578.5 L227.9,577.0 L230.4,578.8 L229.3,581.6 L239.8,591.2 L242.1,590.9 L244.5,594.4 L256.5,588.6 L263.2,593.1 L263.4,599.9 L270.5,599.6 L271.2,602.8 L273.6,599.4 L275.8,603.0 L284.0,600.3 L287.0,603.8 L292.1,602.6 L292.9,599.3 L292.1,591.3 L301.2,591.1 L305.2,587.2 L308.8,588.3 L315.4,585.1 L320.5,584.3 L317.6,587.6 L320.2,590.7 L317.3,592.7 L318.8,595.6 L323.8,597.4 L324.0,594.2 L331.4,592.6 L331.6,590.2 L338.1,589.3 L338.6,586.4 Z">
  <desc xmlns="http://www.highcharts.com/svg/namespace">
    <name>Burgenlandkreis</name>
    <bundesland>DE.ST</bundesland>
    <hc-middle-x>0.52</hc-middle-x>
    <hc-middle-y>0.45</hc-middle-y>
    <hc-key>de-st-15084000</hc-key>
    <hc-a2>BU</hc-a2>
  </desc>
</path>

<path fill="#CEE3F5" stroke="#6E6E6E" stroke-width="0.4" id="DE.ST.15091000" d="M423.8,465.9 L419.7,463.1 L421.6,462.4 L421.8,452.1 L410.0,455.0 L405.8,452.0 L405.2,447.9 L400.8,448.2 L400.8,441.4 L391.8,441.1 L387.6,444.5 L382.1,443.7 L374.8,448.8 L373.5,442.4 L377.5,441.1 L374.0,436.8 L369.5,437.8 L368.8,434.8 L371.2,432.3 L374.3,431.5 L372.5,427.1 L373.1,420.2 L371.0,416.8 L371.4,413.5 L366.9,412.5 L364.0,407.9 L367.3,401.9 L366.1,397.2 L358.5,390.0 L360.6,383.6 L365.4,381.8 L365.5,377.3 L363.2,371.9 L362.4,366.2 L364.9,363.3 L361.7,359.4 L358.6,362.4 L354.0,357.7 L356.3,353.5 L355.9,350.5 L350.7,348.0 L355.2,345.4 L364.2,343.2 L367.6,336.7 L370.6,333.9 L374.6,333.6 L374.7,327.6 L377.5,328.0 L385.6,335.6 L390.5,336.5 L392.4,330.2 L396.5,330.5 L397.4,335.2 L400.7,338.5 L408.5,340.1 L409.4,346.1 L422.7,346.8 L425.2,346.2 L424.8,343.1 L431.1,341.9 L432.7,335.8 L436.6,335.7 L438.7,338.5 L442.4,338.5 L449.1,343.0 L454.1,343.4 L458.6,346.5 L458.7,350.3 L462.4,351.0 L472.8,348.7 L474.2,351.6 L475.1,359.6 L482.5,359.2 L483.1,361.4 L488.6,359.6 L488.7,357.4 L497.5,358.4 L496.8,362.5 L501.1,363.2 L500.6,369.6 L503.1,368.4 L515.7,368.9 L512.7,375.6 L515.0,378.9 L523.6,379.6 L524.4,377.4 L531.3,376.0 L534.0,374.0 L537.8,377.2 L538.3,381.4 L532.7,382.3 L533.1,384.7 L541.9,400.6 L542.0,409.1 L539.4,412.6 L542.3,416.4 L541.2,419.9 L546.8,424.3 L548.6,429.2 L544.1,428.8 L545.2,431.9 L541.9,431.2 L543.9,437.5 L542.4,439.3 L521.6,453.6 L516.0,457.4 L513.1,448.3 L509.8,447.0 L503.8,449.1 L505.1,453.2 L500.4,454.1 L499.1,458.1 L496.7,454.7 L493.0,456.3 L488.1,453.3 L487.3,448.9 L483.4,453.1 L481.4,446.7 L477.7,443.4 L475.4,446.5 L467.4,450.5 L465.4,454.5 L461.9,457.1 L451.8,452.7 L445.9,452.6 L441.5,459.6 L441.6,463.2 L438.3,467.1 L432.8,469.0 L434.0,465.7 L429.3,465.4 L427.1,468.4 Z">
  <desc xmlns="http://www.highcharts.com/svg/namespace">
    <name>Wittenberg</name>
    <bundesland>DE.ST</bundesland>
    <hc-middle-x>0.43</hc-middle-x>
    <hc-middle-y>0.44</hc-middle-y>
    <hc-key>de-st-15091000</hc-key>
    <hc-a2>WI</hc-a2>
  </desc>
</path>
</g>

<text x="350" y="714" text-anchor="middle" font-family="Verdana" font-size="8" stroke-opacity="0.6">Copyright (c) 2014 Highsoft AS, Based on data from GeoBasis-DE / BKG 2014</text>

</svg>