<?xml version="1.0" encoding="utf-8" standalone="no"?>
<!DOCTYPE svg PUBLIC "-//W3C//DTD SVG 1.1//EN" "http://www.w3.org/Graphics/SVG/1.1/DTD/svg11.dtd">

<svg version="1.1" height="700pt" width="700pt" xmlns="http://www.w3.org/2000/svg" xmlns:xlink="http://www.w3.org/1999/xlink">
<desc>
Map version: 1.1.1
Copyright (c) 2014 Highsoft AS, Based on data from GeoBasis-DE / BKG 2014
</desc>
<title>Thüringen</title>
<g id="admin2">

<g id="DE">
  <desc xmlns="http://www.highcharts.com/svg/namespace">
    <name>Germany</name>
    <labelrank>2</labelrank>
    <country-abbrev>Ger.</country-abbrev>
    <subregion>Western Europe</subregion>
    <woe-id>23424829</woe-id>
    <region-wb>Europe &amp; Central Asia</region-wb>
    <iso-a3>DEU</iso-a3>
    <iso-a2>DE</iso-a2>
    <region-un>Europe</region-un>
    <continent>Europe</continent>
    <hc-key>de</hc-key>
    <hc-a2>GE</hc-a2>
  </desc>
</g>

<g id="DE.TH">
  <desc xmlns="http://www.highcharts.com/svg/namespace">
    <labelrank>3</labelrank>
    <hasc>DE.TH</hasc>
    <alt-name>Thuringia</alt-name>
    <woe-id>2345495</woe-id>
    <subregion>NULL</subregion>
    <fips>GM15</fips>
    <postal-code>TH</postal-code>
    <name>Thüringen</name>
    <country>Germany</country>
    <type-en>State</type-en>
    <region>NULL</region>
    <longitude>11.0976</longitude>
    <woe-name>Thüringen</woe-name>
    <latitude>50.9052</latitude>
    <woe-label>Thuringia, DE, Germany</woe-label>
    <type>Land</type>
    <hc-key>de-th</hc-key>
    <hc-a2>TH</hc-a2>
  </desc>
</g>

<path fill="#CEE3F5" stroke="#6E6E6E" stroke-width="0.4" id="DE.TH.16062000" d="M144.6,95.1 L144.9,94.3 L146.5,93.6 L146.6,95.3 Z M147.8,31.2 L149.6,31.9 L153.4,38.5 L155.6,39.4 L159.3,37.1 L165.8,37.9 L173.2,33.0 L175.4,29.1 L178.5,28.8 L182.6,31.5 L184.8,35.4 L189.9,36.9 L192.1,28.9 L185.1,26.7 L183.6,17.2 L187.3,17.0 L185.0,14.1 L185.6,11.3 L194.3,7.6 L193.8,5.4 L200.2,3.1 L209.1,1.7 L212.2,3.6 L215.8,0.0 L221.1,2.7 L229.3,3.7 L230.2,9.7 L232.9,7.2 L239.5,5.9 L246.6,14.0 L250.3,14.0 L255.3,11.2 L253.4,14.2 L259.3,17.9 L257.9,21.9 L247.3,20.2 L245.8,26.6 L248.5,28.2 L250.5,33.0 L249.3,35.7 L262.6,43.4 L259.5,45.2 L260.0,53.9 L268.8,65.7 L266.5,69.8 L266.7,73.0 L269.7,76.7 L268.4,85.3 L271.3,87.4 L269.3,90.8 L263.7,95.4 L255.3,98.3 L248.2,97.9 L247.4,96.0 L240.2,94.9 L236.1,91.3 L228.3,91.6 L228.0,93.4 L222.0,96.6 L219.6,102.9 L215.4,103.3 L214.8,100.5 L209.5,102.1 L205.9,99.8 L198.3,102.4 L188.4,103.9 L183.6,103.1 L184.2,107.6 L180.7,108.3 L175.5,106.7 L175.5,104.2 L166.1,101.5 L164.4,109.6 L160.0,115.0 L158.2,112.9 L154.2,109.0 L153.2,104.5 L150.8,104.8 L150.8,96.5 L147.2,95.4 L148.8,92.1 L151.5,93.1 L152.5,90.4 L148.9,90.0 L156.4,86.6 L156.7,85.3 L151.6,77.9 L153.8,76.7 L153.5,69.3 L156.9,64.2 L155.9,60.4 L157.9,58.3 L159.9,51.5 L154.1,50.8 L154.7,45.4 L146.5,42.7 L148.9,33.7 Z">
  <desc xmlns="http://www.highcharts.com/svg/namespace">
    <name>Nordhausen</name>
    <bundesland>DE.TH</bundesland>
    <hc-middle-x>0.50</hc-middle-x>
    <hc-middle-y>0.52</hc-middle-y>
    <hc-key>de-th-16062000</hc-key>
    <hc-a2>NO</hc-a2>
  </desc>
</path>

<path fill="#CEE3F5" stroke="#6E6E6E" stroke-width="0.4" id="DE.TH.16055000" d="M358.3,246.1 L363.2,245.2 L365.2,247.5 L375.3,247.0 L369.0,252.0 L371.4,256.2 L374.0,256.7 L374.4,260.9 L380.5,256.5 L381.6,261.2 L379.8,268.0 L383.3,269.1 L378.3,276.4 L374.9,278.8 L365.9,278.3 L364.6,280.2 L366.0,284.6 L363.1,287.8 L357.7,288.8 L352.6,285.1 L348.0,279.0 L353.7,278.2 L348.8,268.2 L347.4,261.0 L348.8,254.4 L343.4,253.0 L343.6,250.1 L340.4,248.4 L343.7,241.4 L350.5,245.4 L353.2,243.0 Z">
  <desc xmlns="http://www.highcharts.com/svg/namespace">
    <name>Weimar</name>
    <bundesland>DE.TH</bundesland>
    <hc-middle-x>0.56</hc-middle-x>
    <hc-middle-y>0.55</hc-middle-y>
    <hc-key>de-th-16055000</hc-key>
    <hc-a2>WE</hc-a2>
  </desc>
</path>

<path fill="#CEE3F5" stroke="#6E6E6E" stroke-width="0.4" id="DE.TH.16064000" d="M81.3,204.6 L78.9,202.3 L80.5,196.3 L85.4,192.8 L87.6,188.2 L80.2,186.0 L79.8,181.7 L77.5,180.2 L75.3,173.9 L79.0,170.7 L82.9,169.5 L87.1,171.2 L95.2,168.5 L98.8,169.5 L99.7,166.8 L104.4,164.8 L107.7,161.3 L108.1,157.8 L104.0,155.4 L106.0,148.9 L108.6,149.4 L116.0,147.8 L122.4,137.1 L121.2,129.5 L126.0,125.7 L125.5,124.1 L148.5,124.6 L148.5,123.7 L154.7,129.8 L151.9,136.4 L159.0,138.8 L161.8,136.1 L166.0,135.0 L168.1,130.1 L176.5,132.9 L178.9,132.4 L185.8,140.3 L186.7,144.7 L197.4,148.2 L199.7,157.2 L201.7,158.6 L203.9,169.2 L206.1,173.1 L212.2,174.8 L215.4,171.0 L219.5,172.2 L218.9,177.7 L224.9,172.1 L232.9,170.2 L246.1,170.6 L252.6,171.5 L252.9,176.3 L259.8,176.3 L258.2,184.1 L255.5,186.6 L257.1,192.0 L256.7,197.8 L259.2,199.5 L256.6,201.4 L257.6,205.0 L254.8,204.8 L249.0,208.1 L251.2,218.1 L250.3,219.3 L239.6,221.1 L232.5,219.9 L222.8,222.1 L220.8,216.9 L215.9,214.8 L212.5,215.2 L205.8,220.4 L206.3,224.9 L204.0,226.8 L208.1,238.7 L200.1,244.4 L193.4,243.3 L191.0,246.8 L186.5,247.3 L184.0,244.5 L181.3,240.9 L183.6,236.9 L178.7,238.6 L173.5,236.9 L160.9,235.7 L158.3,229.4 L151.5,230.6 L150.5,227.2 L145.2,230.4 L139.8,230.2 L142.7,235.8 L138.7,241.3 L129.5,230.9 L125.5,229.7 L127.9,226.6 L127.8,223.1 L122.9,221.8 L122.1,214.2 L120.0,211.2 L116.4,212.1 L113.1,205.2 L115.0,201.8 L108.2,200.5 L100.4,204.3 L100.0,207.8 L97.1,207.4 L99.2,202.7 L95.4,204.2 L95.5,201.6 L88.3,204.2 Z">
  <desc xmlns="http://www.highcharts.com/svg/namespace">
    <name>Unstrut-Hainich-Kreis</name>
    <bundesland>DE.TH</bundesland>
    <hc-middle-x>0.47</hc-middle-x>
    <hc-middle-y>0.48</hc-middle-y>
    <hc-key>de-th-16064000</hc-key>
    <hc-a2>UH</hc-a2>
  </desc>
</path>

<path fill="#CEE3F5" stroke="#6E6E6E" stroke-width="0.4" id="DE.TH.16054000" d="M217.5,394.0 L222.7,398.3 L227.4,398.2 L228.0,404.2 L231.4,406.9 L231.8,410.3 L227.8,411.3 L232.3,416.4 L236.0,418.4 L242.4,420.0 L242.0,426.4 L237.1,428.6 L229.4,423.3 L225.8,413.7 L220.4,413.2 L214.2,426.1 L211.9,429.0 L207.3,427.4 L206.9,432.1 L202.6,434.5 L197.6,434.4 L198.3,431.6 L191.9,427.9 L186.7,427.6 L185.8,425.1 L179.7,426.0 L174.0,422.7 L176.5,421.2 L171.9,420.4 L171.8,415.7 L175.2,414.1 L182.5,415.6 L183.7,410.8 L190.7,407.9 L190.6,404.0 L194.4,401.4 L205.6,409.7 L207.8,409.0 L207.5,398.8 L208.9,395.0 L212.2,392.8 Z">
  <desc xmlns="http://www.highcharts.com/svg/namespace">
    <name>Suhl</name>
    <bundesland>DE.TH</bundesland>
    <hc-middle-x>0.38</hc-middle-x>
    <hc-middle-y>0.61</hc-middle-y>
    <hc-key>de-th-16054000</hc-key>
    <hc-a2>SU</hc-a2>
  </desc>
</path>

<path fill="#CEE3F5" stroke="#6E6E6E" stroke-width="0.4" id="DE.TH.16070000" d="M242.0,426.4 L242.4,420.0 L236.0,418.4 L232.3,416.4 L227.8,411.3 L231.8,410.3 L231.4,406.9 L228.0,404.2 L227.4,398.2 L222.7,398.3 L217.5,394.0 L220.5,392.0 L222.0,384.5 L219.8,383.1 L219.9,377.7 L222.1,376.3 L221.8,371.9 L223.3,364.3 L222.5,361.8 L225.2,352.8 L227.4,351.2 L233.8,352.4 L239.5,346.7 L238.9,341.7 L242.1,337.8 L242.5,334.5 L238.2,333.4 L237.3,329.5 L245.8,329.5 L247.1,323.1 L237.8,322.2 L242.1,320.2 L244.6,315.1 L248.6,315.0 L250.4,308.1 L255.9,302.5 L258.3,298.3 L261.1,300.3 L266.4,300.2 L269.4,301.7 L277.0,298.7 L277.5,296.1 L283.0,294.6 L286.1,295.8 L310.2,291.7 L311.4,298.0 L314.9,295.3 L316.6,297.7 L314.1,301.7 L316.7,307.1 L324.4,307.7 L323.2,311.0 L328.0,315.4 L322.6,318.7 L324.5,321.4 L322.8,325.0 L329.2,329.0 L333.2,329.5 L334.3,333.4 L339.7,334.6 L340.3,336.1 L332.5,335.6 L333.8,338.4 L328.1,347.7 L331.7,354.2 L332.4,361.7 L329.1,364.5 L322.5,364.3 L319.3,366.5 L313.7,364.0 L309.3,365.2 L309.8,369.3 L307.8,372.4 L308.8,377.8 L303.0,379.3 L303.5,370.4 L298.0,374.1 L299.3,382.5 L293.3,381.0 L292.0,383.4 L287.7,382.4 L290.9,386.6 L291.2,389.9 L295.8,385.6 L301.7,391.1 L299.9,397.4 L302.0,408.5 L308.5,414.2 L304.4,421.8 L305.3,425.8 L304.0,431.0 L299.2,434.2 L298.7,437.0 L292.5,437.0 L289.5,434.4 L284.0,438.5 L278.3,436.7 L271.8,438.7 L268.5,434.3 L268.2,426.7 L264.5,425.1 L259.4,414.5 L254.8,420.1 L254.8,426.5 L250.3,431.0 L246.3,427.0 L244.8,432.7 L241.7,430.4 Z">
  <desc xmlns="http://www.highcharts.com/svg/namespace">
    <name>Ilm-Kreis</name>
    <bundesland>DE.TH</bundesland>
    <hc-middle-x>0.48</hc-middle-x>
    <hc-middle-y>0.46</hc-middle-y>
    <hc-key>de-th-16070000</hc-key>
    <hc-a2>IK</hc-a2>
  </desc>
</path>

<path fill="#CEE3F5" stroke="#6E6E6E" stroke-width="0.4" id="DE.TH.16051000" d="M310.2,291.7 L286.1,295.8 L283.0,294.6 L277.5,296.1 L277.0,298.7 L269.4,301.7 L266.4,300.2 L265.2,294.4 L273.1,290.1 L271.9,284.4 L266.5,279.4 L261.2,282.0 L257.0,281.8 L255.1,274.3 L248.0,272.7 L247.2,267.8 L254.2,262.5 L252.0,258.4 L247.1,258.4 L244.7,248.4 L246.6,248.1 L251.2,247.6 L258.6,250.0 L259.4,252.4 L263.6,251.2 L264.0,246.3 L269.6,243.2 L277.5,240.6 L274.7,232.0 L278.3,230.5 L278.8,234.3 L284.8,234.0 L286.7,230.7 L290.7,231.5 L291.1,225.6 L297.3,225.6 L301.1,227.8 L301.1,231.1 L303.8,231.1 L303.0,236.6 L305.7,236.6 L306.7,243.6 L308.0,243.4 L313.2,251.1 L312.4,253.3 L316.7,252.4 L318.0,249.8 L324.2,249.1 L322.7,252.8 L325.7,261.0 L324.0,263.8 L315.7,267.8 L316.3,277.2 L319.1,280.8 L321.0,286.8 L316.9,284.9 L309.0,286.4 Z">
  <desc xmlns="http://www.highcharts.com/svg/namespace">
    <name>Erfurt</name>
    <bundesland>DE.TH</bundesland>
    <hc-middle-x>0.53</hc-middle-x>
    <hc-middle-y>0.48</hc-middle-y>
    <hc-key>de-th-16051000</hc-key>
    <hc-a2>ER</hc-a2>
  </desc>
</path>

<path fill="#CEE3F5" stroke="#6E6E6E" stroke-width="0.4" id="DE.TH.16071000" d="M402.2,212.0 L408.8,212.7 L409.1,210.7 L417.6,212.6 L418.0,208.9 L420.7,209.9 L423.9,205.6 L431.5,207.6 L436.3,211.1 L440.7,208.3 L447.9,209.6 L454.4,213.4 L455.9,217.3 L452.1,218.9 L454.1,221.5 L454.0,227.6 L451.5,228.2 L453.6,232.0 L449.6,235.0 L451.1,237.6 L445.6,243.1 L437.5,241.9 L438.2,244.7 L432.9,247.3 L433.9,250.8 L426.5,252.6 L425.5,254.9 L419.6,257.9 L414.1,261.5 L413.4,265.6 L408.7,267.1 L408.7,276.0 L415.9,275.2 L416.7,278.2 L412.4,278.2 L409.3,280.7 L411.1,287.7 L410.0,291.4 L406.4,293.4 L408.3,297.7 L406.0,301.6 L399.3,303.1 L399.7,307.8 L393.9,308.6 L396.2,312.0 L399.2,322.3 L392.4,322.7 L393.4,324.9 L390.8,331.1 L384.8,333.8 L382.4,327.6 L375.0,328.8 L375.4,334.9 L369.6,337.8 L365.2,337.5 L364.3,334.2 L360.4,333.8 L359.5,330.9 L354.4,327.3 L352.9,328.0 L349.7,321.8 L346.6,323.1 L348.6,329.7 L339.7,334.6 L334.3,333.4 L333.2,329.5 L329.2,329.0 L322.8,325.0 L324.5,321.4 L322.6,318.7 L328.0,315.4 L323.2,311.0 L324.4,307.7 L316.7,307.1 L314.1,301.7 L316.6,297.7 L314.9,295.3 L311.4,298.0 L310.2,291.7 L309.0,286.4 L316.9,284.9 L321.0,286.8 L319.1,280.8 L316.3,277.2 L315.7,267.8 L324.0,263.8 L325.7,261.0 L322.7,252.8 L324.2,249.1 L325.1,246.2 L330.7,246.7 L332.7,244.1 L333.4,238.9 L330.9,235.6 L331.6,230.3 L329.1,224.6 L329.8,214.7 L343.6,213.4 L345.0,215.5 L358.4,215.5 L359.0,216.4 L375.8,214.8 L379.1,216.5 L382.2,215.0 L382.3,211.8 L388.3,213.3 L388.0,218.0 L389.7,218.7 L395.3,215.6 L401.1,214.2 Z M358.3,246.1 L353.2,243.0 L350.5,245.4 L343.7,241.4 L340.4,248.4 L343.6,250.1 L343.4,253.0 L348.8,254.4 L347.4,261.0 L348.8,268.2 L353.7,278.2 L348.0,279.0 L352.6,285.1 L357.7,288.8 L363.1,287.8 L366.0,284.6 L364.6,280.2 L365.9,278.3 L374.9,278.8 L378.3,276.4 L383.3,269.1 L379.8,268.0 L381.6,261.2 L380.5,256.5 L374.4,260.9 L374.0,256.7 L371.4,256.2 L369.0,252.0 L375.3,247.0 L365.2,247.5 L363.2,245.2 Z">
  <desc xmlns="http://www.highcharts.com/svg/namespace">
    <name>Weimarer Land</name>
    <bundesland>DE.TH</bundesland>
    <hc-middle-x>0.61</hc-middle-x>
    <hc-middle-y>0.23</hc-middle-y>
    <hc-key>de-th-16071000</hc-key>
    <hc-a2>WL</hc-a2>
  </desc>
</path>

<path fill="#CEE3F5" stroke="#6E6E6E" stroke-width="0.4" id="DE.TH.16074000" d="M390.8,331.1 L393.4,324.9 L392.4,322.7 L399.2,322.3 L396.2,312.0 L393.9,308.6 L399.7,307.8 L399.3,303.1 L406.0,301.6 L408.3,297.7 L406.4,293.4 L410.0,291.4 L414.3,291.4 L422.5,294.7 L424.6,298.6 L424.3,304.8 L417.8,305.5 L416.1,308.3 L425.3,310.9 L437.9,307.3 L436.5,302.7 L443.1,302.1 L446.5,299.4 L450.6,300.0 L449.4,295.8 L445.8,293.7 L450.8,287.7 L451.6,284.1 L450.3,276.2 L451.8,271.8 L444.8,265.0 L443.9,266.6 L437.4,262.2 L433.1,264.7 L431.2,263.2 L424.7,267.0 L419.6,257.9 L425.5,254.9 L426.5,252.6 L433.9,250.8 L432.9,247.3 L438.2,244.7 L437.5,241.9 L445.6,243.1 L451.1,237.6 L449.6,235.0 L453.6,232.0 L451.5,228.2 L454.0,227.6 L454.1,221.5 L452.1,218.9 L455.9,217.3 L457.1,224.4 L462.2,223.6 L470.5,228.9 L468.6,230.1 L475.4,233.5 L475.9,230.2 L483.4,232.3 L501.2,227.4 L504.6,228.1 L506.6,232.2 L510.2,232.0 L510.9,238.9 L513.3,239.5 L518.7,236.9 L523.2,241.6 L528.3,243.8 L527.2,253.4 L535.3,252.8 L539.3,261.4 L538.4,261.8 L539.7,269.8 L532.6,268.8 L531.9,267.2 L523.8,271.8 L526.2,275.8 L525.0,279.5 L522.0,280.1 L522.9,283.2 L515.4,284.3 L513.3,288.7 L514.4,292.6 L507.6,292.2 L503.3,297.8 L508.2,299.0 L509.9,305.0 L515.8,305.4 L514.1,309.3 L509.4,309.2 L508.7,316.3 L513.4,319.5 L511.7,326.9 L508.9,329.6 L503.6,328.4 L500.8,329.8 L503.2,335.3 L499.9,336.8 L494.0,336.7 L492.7,332.7 L488.8,335.6 L477.8,338.7 L474.2,338.5 L471.1,332.4 L466.9,333.0 L464.1,335.6 L466.9,339.3 L466.0,343.9 L463.5,346.5 L458.1,347.6 L448.3,347.9 L448.0,351.2 L445.5,349.0 L440.7,349.7 L437.1,354.2 L431.5,351.3 L422.2,353.1 L420.1,348.5 L415.7,346.2 L415.3,348.2 L407.5,346.8 L407.2,343.1 L400.9,339.2 L396.4,333.8 L393.9,336.6 L390.0,333.2 Z">
  <desc xmlns="http://www.highcharts.com/svg/namespace">
    <name>Saale-Holzland-Kreis</name>
    <bundesland>DE.TH</bundesland>
    <hc-middle-x>0.58</hc-middle-x>
    <hc-middle-y>0.54</hc-middle-y>
    <hc-key>de-th-16074000</hc-key>
    <hc-a2>SH</hc-a2>
  </desc>
</path>

<path fill="#CEE3F5" stroke="#6E6E6E" stroke-width="0.4" id="DE.TH.16052000" d="M539.7,269.8 L538.4,261.8 L539.3,261.4 L543.4,259.7 L548.0,261.2 L556.0,257.8 L560.5,258.7 L575.4,264.0 L577.4,273.3 L574.3,274.8 L568.1,274.8 L569.6,279.8 L568.0,284.0 L570.1,290.1 L574.8,296.9 L574.1,300.1 L570.0,304.0 L567.8,308.2 L570.9,312.4 L570.6,320.4 L575.9,325.1 L568.9,328.2 L566.7,326.7 L564.9,321.7 L557.7,318.1 L556.6,319.3 L547.7,321.2 L543.2,319.7 L535.5,309.2 L536.0,306.3 L539.6,304.1 L537.9,300.7 L535.2,300.3 L538.6,291.2 L542.0,288.4 L539.5,283.6 L544.9,276.7 L547.1,275.6 L545.0,272.7 Z">
  <desc xmlns="http://www.highcharts.com/svg/namespace">
    <name>Gera</name>
    <bundesland>DE.TH</bundesland>
    <hc-middle-x>0.46</hc-middle-x>
    <hc-middle-y>0.35</hc-middle-y>
    <hc-key>de-th-16052000</hc-key>
    <hc-a2>GE</hc-a2>
  </desc>
</path>

<path fill="#CEE3F5" stroke="#6E6E6E" stroke-width="0.4" id="DE.TH.16056000" d="M75.3,262.9 L77.4,262.6 L80.2,257.4 L83.8,258.3 L88.3,256.7 L98.6,263.0 L100.2,260.2 L99.0,254.9 L102.8,250.2 L108.1,250.3 L109.0,247.0 L107.3,243.7 L109.7,240.7 L112.8,241.7 L112.4,244.2 L116.8,246.6 L118.9,245.3 L123.8,246.3 L123.3,252.2 L126.0,256.1 L124.4,260.4 L127.8,260.6 L127.5,266.8 L124.2,268.3 L126.4,272.6 L124.5,274.1 L124.9,278.1 L122.0,277.7 L117.0,282.4 L117.7,279.5 L114.8,279.4 L110.3,289.6 L103.3,285.7 L102.4,283.0 L95.7,281.8 L91.9,279.4 L93.1,276.6 L88.0,275.4 L87.4,273.7 L80.8,274.2 L80.1,276.2 L77.6,270.4 L73.9,269.3 Z">
  <desc xmlns="http://www.highcharts.com/svg/namespace">
    <name>Eisenach</name>
    <bundesland>DE.TH</bundesland>
    <hc-middle-x>0.71</hc-middle-x>
    <hc-middle-y>0.51</hc-middle-y>
    <hc-key>de-th-16056000</hc-key>
    <hc-a2>EI</hc-a2>
  </desc>
</path>

<path fill="#CEE3F5" stroke="#6E6E6E" stroke-width="0.4" id="DE.TH.16075000" d="M526.0,413.1 L520.8,415.5 L523.7,422.3 L520.5,427.6 L510.9,429.8 L508.3,434.4 L512.9,443.4 L520.6,443.0 L522.2,439.2 L524.2,441.2 L523.9,445.7 L527.2,447.3 L532.7,454.6 L531.6,457.9 L528.3,457.8 L527.7,465.5 L524.8,464.0 L521.7,468.1 L518.1,468.2 L514.1,472.6 L517.1,475.9 L524.1,476.5 L523.1,479.5 L519.0,483.0 L513.7,483.8 L509.0,490.0 L505.1,490.0 L498.3,494.8 L496.5,490.5 L490.7,483.7 L486.5,483.7 L484.5,486.5 L479.9,485.1 L482.6,488.5 L477.6,487.3 L470.5,493.1 L468.7,490.2 L462.4,494.9 L453.5,495.5 L447.8,497.7 L439.5,491.8 L432.9,494.8 L432.3,498.2 L427.8,499.5 L421.0,503.8 L420.5,495.2 L416.4,493.8 L413.0,495.0 L410.1,493.3 L412.2,486.6 L410.5,481.2 L412.5,476.2 L409.6,473.7 L410.0,470.4 L412.7,469.2 L412.6,465.5 L410.1,463.1 L414.1,459.5 L409.5,448.9 L409.2,445.3 L411.9,439.9 L411.4,436.0 L417.6,437.2 L420.7,435.4 L421.3,431.0 L427.8,430.4 L429.1,433.8 L432.4,433.1 L432.9,430.0 L440.0,424.7 L440.9,420.5 L444.3,419.3 L446.9,415.7 L446.1,407.6 L437.8,413.6 L434.2,410.8 L432.7,413.1 L428.8,409.3 L422.4,411.1 L420.0,408.6 L422.6,405.3 L418.0,406.2 L415.7,401.4 L416.8,396.0 L412.4,393.3 L411.0,388.7 L414.0,386.3 L407.2,374.7 L402.1,376.0 L404.8,367.5 L408.4,363.3 L412.5,361.0 L417.1,361.8 L419.6,357.1 L423.4,356.2 L422.2,353.1 L431.5,351.3 L437.1,354.2 L440.7,349.7 L445.5,349.0 L448.0,351.2 L448.3,347.9 L458.1,347.6 L463.5,346.5 L466.0,343.9 L466.9,339.3 L464.1,335.6 L466.9,333.0 L471.1,332.4 L474.2,338.5 L477.8,338.7 L488.8,335.6 L492.7,332.7 L494.0,336.7 L499.9,336.8 L503.2,335.3 L510.6,336.7 L517.6,341.7 L519.9,340.4 L523.0,343.2 L522.0,346.3 L517.4,347.3 L517.5,350.9 L511.4,353.6 L512.7,359.4 L510.2,357.7 L507.0,360.2 L504.7,367.0 L506.6,372.3 L505.2,375.2 L507.3,378.5 L505.5,385.6 L510.4,384.7 L511.5,390.5 L509.4,392.5 L510.3,399.4 L514.4,405.9 L518.9,409.3 L523.6,408.1 Z">
  <desc xmlns="http://www.highcharts.com/svg/namespace">
    <name>Saale-Orla-Kreis</name>
    <bundesland>DE.TH</bundesland>
    <hc-middle-x>0.51</hc-middle-x>
    <hc-middle-y>0.43</hc-middle-y>
    <hc-key>de-th-16075000</hc-key>
    <hc-a2>SO</hc-a2>
  </desc>
</path>

<path fill="#CEE3F5" stroke="#6E6E6E" stroke-width="0.4" id="DE.TH.16069000" d="M179.7,426.0 L185.8,425.1 L186.7,427.6 L191.9,427.9 L198.3,431.6 L197.6,434.4 L202.6,434.5 L206.9,432.1 L207.3,427.4 L211.9,429.0 L214.2,426.1 L220.4,413.2 L225.8,413.7 L229.4,423.3 L237.1,428.6 L242.0,426.4 L241.7,430.4 L244.8,432.7 L246.3,427.0 L250.3,431.0 L254.8,426.5 L254.8,420.1 L259.4,414.5 L264.5,425.1 L268.2,426.7 L268.5,434.3 L271.8,438.7 L278.3,436.7 L278.2,441.9 L283.7,443.4 L284.7,446.2 L286.9,451.5 L281.0,456.6 L283.9,459.7 L284.0,465.7 L291.0,465.4 L296.4,467.9 L297.2,472.3 L291.9,475.6 L284.5,484.3 L277.9,489.3 L277.4,491.2 L272.3,492.1 L277.5,497.6 L277.5,501.2 L274.2,503.3 L270.8,501.0 L262.2,504.3 L260.4,506.0 L259.2,501.2 L256.3,499.7 L252.8,503.4 L244.7,501.6 L238.1,507.1 L233.4,504.7 L230.4,510.2 L227.7,511.1 L224.3,515.9 L221.5,514.0 L215.5,513.9 L215.5,520.8 L219.0,519.7 L219.1,524.0 L215.8,526.1 L216.0,530.8 L222.8,532.8 L230.4,541.9 L236.4,540.7 L238.5,542.0 L239.0,546.8 L249.9,548.4 L251.6,557.8 L249.8,561.2 L244.6,563.6 L240.3,562.6 L238.4,558.2 L234.3,559.4 L230.6,562.6 L225.5,562.1 L225.0,559.9 L220.9,558.4 L219.5,560.2 L221.0,574.1 L219.3,576.7 L211.9,574.6 L209.5,569.0 L206.0,570.8 L202.0,570.1 L202.3,567.3 L196.9,570.4 L190.4,570.2 L186.4,561.5 L190.0,560.2 L186.4,554.9 L188.5,551.0 L185.2,552.1 L188.1,542.5 L184.5,533.1 L186.5,526.5 L182.1,527.1 L176.5,525.3 L173.4,520.5 L174.6,518.3 L171.9,514.5 L169.2,513.9 L164.6,520.4 L163.8,516.5 L161.5,519.2 L157.0,515.4 L159.3,514.5 L157.2,510.5 L151.1,510.3 L147.6,500.0 L149.8,500.4 L154.9,494.2 L155.8,488.6 L154.0,487.8 L156.7,481.5 L163.0,479.6 L162.2,482.4 L168.4,486.3 L176.8,484.3 L178.8,486.0 L181.6,482.5 L177.9,477.3 L178.2,471.0 L175.0,467.9 L172.6,461.5 L175.7,460.5 L177.1,454.6 L180.1,454.0 L179.6,445.5 L174.4,442.3 L165.8,440.5 L171.8,434.2 L171.1,430.5 L175.6,431.3 L176.6,433.6 Z">
  <desc xmlns="http://www.highcharts.com/svg/namespace">
    <name>Hildburghausen</name>
    <bundesland>DE.TH</bundesland>
    <hc-middle-x>0.50</hc-middle-x>
    <hc-middle-y>0.32</hc-middle-y>
    <hc-key>de-th-16069000</hc-key>
    <hc-a2>HI</hc-a2>
  </desc>
</path>

<path fill="#CEE3F5" stroke="#6E6E6E" stroke-width="0.4" id="DE.TH.16068000" d="M250.3,219.3 L251.2,218.1 L249.0,208.1 L254.8,204.8 L257.6,205.0 L256.6,201.4 L259.2,199.5 L256.7,197.8 L257.1,192.0 L255.5,186.6 L258.2,184.1 L259.8,176.3 L269.5,175.9 L272.4,178.1 L272.8,171.5 L274.1,169.3 L279.4,169.3 L281.5,164.9 L280.7,159.7 L277.3,158.7 L277.4,154.2 L279.9,151.1 L285.4,149.4 L287.9,143.8 L286.1,141.7 L291.6,140.9 L295.3,138.6 L291.9,132.4 L295.2,128.4 L305.1,132.8 L303.4,136.9 L306.6,136.9 L308.4,141.8 L315.5,143.0 L318.8,147.0 L316.4,154.3 L332.5,160.0 L334.0,162.4 L337.1,157.6 L338.8,158.6 L342.6,153.2 L342.6,150.3 L352.6,158.0 L354.6,158.1 L360.6,150.2 L360.6,147.1 L357.0,146.1 L355.3,142.0 L358.8,138.8 L363.2,141.0 L359.7,143.7 L361.3,146.1 L366.8,146.2 L368.7,150.4 L366.7,152.1 L374.5,154.2 L375.4,156.7 L370.6,166.6 L377.2,168.4 L377.5,173.5 L387.3,169.7 L391.1,171.3 L392.0,176.0 L397.0,177.3 L397.9,186.4 L400.1,190.7 L398.4,195.0 L393.2,195.8 L397.1,203.4 L396.7,209.1 L402.2,212.0 L401.1,214.2 L395.3,215.6 L389.7,218.7 L388.0,218.0 L388.3,213.3 L382.3,211.8 L382.2,215.0 L379.1,216.5 L375.8,214.8 L359.0,216.4 L358.4,215.5 L345.0,215.5 L343.6,213.4 L329.8,214.7 L329.1,224.6 L331.6,230.3 L330.9,235.6 L333.4,238.9 L332.7,244.1 L330.7,246.7 L325.1,246.2 L324.2,249.1 L318.0,249.8 L316.7,252.4 L312.4,253.3 L313.2,251.1 L308.0,243.4 L306.7,243.6 L305.7,236.6 L303.0,236.6 L303.8,231.1 L301.1,231.1 L301.1,227.8 L297.3,225.6 L291.1,225.6 L290.7,231.5 L286.7,230.7 L284.8,234.0 L278.8,234.3 L278.3,230.5 L274.7,232.0 L277.5,240.6 L269.6,243.2 L264.0,246.3 L263.6,251.2 L259.4,252.4 L258.6,250.0 L251.2,247.6 L246.6,248.1 L248.4,246.8 L248.7,235.8 L247.6,233.4 L252.6,231.8 L253.3,229.9 Z">
  <desc xmlns="http://www.highcharts.com/svg/namespace">
    <name>Sömmerda</name>
    <bundesland>DE.TH</bundesland>
    <hc-middle-x>0.52</hc-middle-x>
    <hc-middle-y>0.47</hc-middle-y>
    <hc-key>de-th-16068000</hc-key>
    <hc-a2>SÖ</hc-a2>
  </desc>
</path>

<path fill="#CEE3F5" stroke="#6E6E6E" stroke-width="0.4" id="DE.TH.16067000" d="M250.3,219.3 L253.3,229.9 L252.6,231.8 L247.6,233.4 L248.7,235.8 L248.4,246.8 L246.6,248.1 L244.7,248.4 L247.1,258.4 L252.0,258.4 L254.2,262.5 L247.2,267.8 L248.0,272.7 L255.1,274.3 L257.0,281.8 L261.2,282.0 L266.5,279.4 L271.9,284.4 L273.1,290.1 L265.2,294.4 L266.4,300.2 L261.1,300.3 L258.3,298.3 L255.9,302.5 L250.4,308.1 L248.6,315.0 L244.6,315.1 L242.1,320.2 L237.8,322.2 L247.1,323.1 L245.8,329.5 L237.3,329.5 L238.2,333.4 L242.5,334.5 L242.1,337.8 L238.9,341.7 L239.5,346.7 L233.8,352.4 L227.4,351.2 L225.2,352.8 L222.5,361.8 L223.3,364.3 L221.8,371.9 L214.2,364.4 L211.8,366.2 L210.3,372.0 L207.9,373.4 L203.2,372.7 L200.4,370.2 L197.3,370.5 L195.7,373.6 L193.0,368.5 L186.2,364.9 L178.8,365.8 L176.6,363.7 L173.3,354.0 L174.2,351.5 L171.9,346.7 L166.8,347.4 L168.5,339.7 L166.4,329.7 L160.4,325.9 L157.2,327.5 L148.1,320.4 L145.2,322.7 L138.4,324.0 L134.2,321.1 L131.4,315.5 L136.1,306.4 L140.1,304.1 L139.6,299.3 L151.1,294.1 L151.0,301.7 L155.7,300.5 L152.7,296.3 L152.2,292.8 L156.1,287.7 L155.6,282.5 L156.9,278.7 L160.9,274.2 L152.1,272.9 L150.6,269.4 L150.6,263.3 L154.6,263.7 L157.1,261.1 L171.0,254.7 L171.5,252.0 L178.6,250.8 L184.0,244.5 L186.5,247.3 L191.0,246.8 L193.4,243.3 L200.1,244.4 L208.1,238.7 L204.0,226.8 L206.3,224.9 L205.8,220.4 L212.5,215.2 L215.9,214.8 L220.8,216.9 L222.8,222.1 L232.5,219.9 L239.6,221.1 Z">
  <desc xmlns="http://www.highcharts.com/svg/namespace">
    <name>Gotha</name>
    <bundesland>DE.TH</bundesland>
    <hc-middle-x>0.56</hc-middle-x>
    <hc-middle-y>0.51</hc-middle-y>
    <hc-key>de-th-16067000</hc-key>
    <hc-a2>GO</hc-a2>
  </desc>
</path>

<path fill="#CEE3F5" stroke="#6E6E6E" stroke-width="0.4" id="DE.TH.16053000" d="M419.6,257.9 L424.7,267.0 L431.2,263.2 L433.1,264.7 L437.4,262.2 L443.9,266.6 L444.8,265.0 L451.8,271.8 L450.3,276.2 L451.6,284.1 L450.8,287.7 L445.8,293.7 L449.4,295.8 L450.6,300.0 L446.5,299.4 L443.1,302.1 L436.5,302.7 L437.9,307.3 L425.3,310.9 L416.1,308.3 L417.8,305.5 L424.3,304.8 L424.6,298.6 L422.5,294.7 L414.3,291.4 L410.0,291.4 L411.1,287.7 L409.3,280.7 L412.4,278.2 L416.7,278.2 L415.9,275.2 L408.7,276.0 L408.7,267.1 L413.4,265.6 L414.1,261.5 Z">
  <desc xmlns="http://www.highcharts.com/svg/namespace">
    <name>Jena</name>
    <bundesland>DE.TH</bundesland>
    <hc-middle-x>0.50</hc-middle-x>
    <hc-middle-y>0.50</hc-middle-y>
    <hc-key>de-th-16053000</hc-key>
    <hc-a2>JE</hc-a2>
  </desc>
</path>

<path fill="#CEE3F5" stroke="#6E6E6E" stroke-width="0.4" id="DE.TH.16076000" d="M575.4,264.0 L575.2,260.9 L579.9,257.0 L584.2,264.4 L588.1,263.6 L588.7,271.7 L591.0,269.7 L594.7,275.6 L597.7,275.4 L597.1,278.4 L591.9,282.5 L592.6,290.0 L588.0,294.8 L590.6,296.6 L591.0,303.0 L597.2,301.8 L600.8,304.9 L598.5,308.7 L599.8,311.7 L599.9,319.1 L598.1,322.9 L601.0,326.6 L601.1,330.9 L609.8,330.2 L609.2,336.7 L604.3,342.1 L598.6,339.4 L595.7,343.2 L595.2,350.1 L598.2,353.4 L604.9,351.2 L606.6,356.1 L602.4,360.1 L605.8,365.8 L605.1,368.2 L608.3,371.7 L620.4,373.0 L618.6,377.3 L619.6,380.2 L616.1,380.9 L615.1,385.2 L610.7,388.2 L606.4,388.9 L607.0,393.9 L601.7,392.9 L599.1,395.7 L589.7,390.4 L589.8,395.0 L587.5,397.8 L588.3,401.2 L584.4,401.6 L582.5,395.3 L577.6,395.9 L577.3,405.0 L569.5,408.9 L568.2,412.4 L575.3,414.7 L577.1,413.2 L581.2,415.0 L580.1,418.0 L572.9,418.0 L570.0,421.0 L566.2,416.4 L560.3,417.6 L559.2,426.2 L556.1,427.5 L549.2,427.1 L545.0,421.7 L549.4,416.1 L549.0,410.8 L545.4,409.4 L541.2,404.2 L545.0,398.1 L542.1,394.8 L539.3,398.2 L534.4,400.7 L537.0,404.9 L526.0,413.1 L523.6,408.1 L518.9,409.3 L514.4,405.9 L510.3,399.4 L509.4,392.5 L511.5,390.5 L510.4,384.7 L505.5,385.6 L507.3,378.5 L505.2,375.2 L506.6,372.3 L504.7,367.0 L507.0,360.2 L510.2,357.7 L512.7,359.4 L511.4,353.6 L517.5,350.9 L517.4,347.3 L522.0,346.3 L523.0,343.2 L519.9,340.4 L517.6,341.7 L510.6,336.7 L503.2,335.3 L500.8,329.8 L503.6,328.4 L508.9,329.6 L511.7,326.9 L513.4,319.5 L508.7,316.3 L509.4,309.2 L514.1,309.3 L515.8,305.4 L509.9,305.0 L508.2,299.0 L503.3,297.8 L507.6,292.2 L514.4,292.6 L513.3,288.7 L515.4,284.3 L522.9,283.2 L522.0,280.1 L525.0,279.5 L526.2,275.8 L523.8,271.8 L531.9,267.2 L532.6,268.8 L539.7,269.8 L545.0,272.7 L547.1,275.6 L544.9,276.7 L539.5,283.6 L542.0,288.4 L538.6,291.2 L535.2,300.3 L537.9,300.7 L539.6,304.1 L536.0,306.3 L535.5,309.2 L543.2,319.7 L547.7,321.2 L556.6,319.3 L557.7,318.1 L564.9,321.7 L566.7,326.7 L568.9,328.2 L575.9,325.1 L570.6,320.4 L570.9,312.4 L567.8,308.2 L570.0,304.0 L574.1,300.1 L574.8,296.9 L570.1,290.1 L568.0,284.0 L569.6,279.8 L568.1,274.8 L574.3,274.8 L577.4,273.3 Z">
  <desc xmlns="http://www.highcharts.com/svg/namespace">
    <name>Greiz</name>
    <bundesland>DE.TH</bundesland>
    <hc-middle-x>0.44</hc-middle-x>
    <hc-middle-y>0.63</hc-middle-y>
    <hc-key>de-th-16076000</hc-key>
    <hc-a2>GR</hc-a2>
  </desc>
</path>

<path fill="#CEE3F5" stroke="#6E6E6E" stroke-width="0.4" id="DE.TH.16065000" d="M375.4,156.7 L374.5,154.2 L366.7,152.1 L368.7,150.4 L366.8,146.2 L361.3,146.1 L359.7,143.7 L363.2,141.0 L358.8,138.8 L355.3,142.0 L357.0,146.1 L360.6,147.1 L360.6,150.2 L354.6,158.1 L352.6,158.0 L342.6,150.3 L342.6,153.2 L338.8,158.6 L337.1,157.6 L334.0,162.4 L332.5,160.0 L316.4,154.3 L318.8,147.0 L315.5,143.0 L308.4,141.8 L306.6,136.9 L303.4,136.9 L305.1,132.8 L295.2,128.4 L291.9,132.4 L295.3,138.6 L291.6,140.9 L286.1,141.7 L287.9,143.8 L285.4,149.4 L279.9,151.1 L277.4,154.2 L277.3,158.7 L280.7,159.7 L281.5,164.9 L279.4,169.3 L274.1,169.3 L272.8,171.5 L272.4,178.1 L269.5,175.9 L259.8,176.3 L252.9,176.3 L252.6,171.5 L246.1,170.6 L232.9,170.2 L224.9,172.1 L218.9,177.7 L219.5,172.2 L215.4,171.0 L212.2,174.8 L206.1,173.1 L203.9,169.2 L201.7,158.6 L199.7,157.2 L197.4,148.2 L186.7,144.7 L185.8,140.3 L178.9,132.4 L176.5,132.9 L168.1,130.1 L166.0,135.0 L161.8,136.1 L159.0,138.8 L151.9,136.4 L154.7,129.8 L148.5,123.7 L148.4,122.5 L155.7,118.1 L158.2,112.9 L160.0,115.0 L164.4,109.6 L166.1,101.5 L175.5,104.2 L175.5,106.7 L180.7,108.3 L184.2,107.6 L183.6,103.1 L188.4,103.9 L198.3,102.4 L205.9,99.8 L209.5,102.1 L214.8,100.5 L215.4,103.3 L219.6,102.9 L222.0,96.6 L228.0,93.4 L228.3,91.6 L236.1,91.3 L240.2,94.9 L247.4,96.0 L248.2,97.9 L255.3,98.3 L263.7,95.4 L269.3,90.8 L271.3,87.4 L278.7,86.2 L279.4,88.3 L274.9,90.9 L282.8,90.5 L289.7,85.8 L294.6,86.0 L308.8,91.8 L312.1,95.8 L315.3,96.2 L332.9,91.1 L334.5,94.0 L339.0,94.0 L340.3,95.9 L348.3,95.0 L357.2,91.5 L359.9,99.4 L362.1,98.5 L364.1,101.6 L366.6,99.4 L368.6,102.0 L371.8,100.3 L376.5,102.5 L375.2,106.0 L375.9,113.4 L377.6,117.0 L385.0,117.6 L381.3,121.6 L396.7,134.3 L395.5,139.0 L393.4,136.8 L392.7,143.6 L385.4,152.5 L382.3,158.4 L378.6,160.2 L379.3,157.7 Z">
  <desc xmlns="http://www.highcharts.com/svg/namespace">
    <name>Kyffhäuserkreis</name>
    <bundesland>DE.TH</bundesland>
    <hc-middle-x>0.45</hc-middle-x>
    <hc-middle-y>0.42</hc-middle-y>
    <hc-key>de-th-16065000</hc-key>
    <hc-a2>KY</hc-a2>
  </desc>
</path>

<path fill="#CEE3F5" stroke="#6E6E6E" stroke-width="0.4" id="DE.TH.16073000" d="M284.7,446.2 L283.7,443.4 L278.2,441.9 L278.3,436.7 L284.0,438.5 L289.5,434.4 L292.5,437.0 L298.7,437.0 L299.2,434.2 L304.0,431.0 L305.3,425.8 L304.4,421.8 L308.5,414.2 L302.0,408.5 L299.9,397.4 L301.7,391.1 L295.8,385.6 L291.2,389.9 L290.9,386.6 L287.7,382.4 L292.0,383.4 L293.3,381.0 L299.3,382.5 L298.0,374.1 L303.5,370.4 L303.0,379.3 L308.8,377.8 L307.8,372.4 L309.8,369.3 L309.3,365.2 L313.7,364.0 L319.3,366.5 L322.5,364.3 L329.1,364.5 L332.4,361.7 L331.7,354.2 L328.1,347.7 L333.8,338.4 L332.5,335.6 L340.3,336.1 L339.7,334.6 L348.6,329.7 L346.6,323.1 L349.7,321.8 L352.9,328.0 L354.4,327.3 L359.5,330.9 L360.4,333.8 L364.3,334.2 L365.2,337.5 L369.6,337.8 L375.4,334.9 L375.0,328.8 L382.4,327.6 L384.8,333.8 L390.8,331.1 L390.0,333.2 L393.9,336.6 L396.4,333.8 L400.9,339.2 L407.2,343.1 L407.5,346.8 L415.3,348.2 L415.7,346.2 L420.1,348.5 L422.2,353.1 L423.4,356.2 L419.6,357.1 L417.1,361.8 L412.5,361.0 L408.4,363.3 L404.8,367.5 L402.1,376.0 L407.2,374.7 L414.0,386.3 L411.0,388.7 L412.4,393.3 L416.8,396.0 L415.7,401.4 L418.0,406.2 L422.6,405.3 L420.0,408.6 L422.4,411.1 L428.8,409.3 L432.7,413.1 L434.2,410.8 L437.8,413.6 L446.1,407.6 L446.9,415.7 L444.3,419.3 L440.9,420.5 L440.0,424.7 L432.9,430.0 L432.4,433.1 L429.1,433.8 L427.8,430.4 L421.3,431.0 L420.7,435.4 L417.6,437.2 L411.4,436.0 L411.9,439.9 L409.2,445.3 L409.5,448.9 L414.1,459.5 L410.1,463.1 L412.6,465.5 L412.7,469.2 L410.0,470.4 L409.6,473.7 L412.5,476.2 L410.5,481.2 L405.8,481.1 L400.8,484.8 L402.7,481.7 L399.9,478.7 L394.8,477.0 L395.2,470.0 L393.1,467.3 L394.3,464.5 L393.8,456.5 L398.0,457.4 L399.2,453.8 L394.8,448.0 L385.8,448.4 L380.8,445.5 L374.9,446.4 L375.1,450.3 L368.6,451.8 L369.6,455.8 L368.2,459.6 L364.7,459.6 L361.3,465.3 L360.7,461.2 L354.9,463.8 L357.8,461.8 L359.1,457.4 L356.0,459.2 L354.8,455.6 L346.6,452.8 L339.6,459.6 L339.2,456.2 L332.1,453.6 L327.7,458.4 L324.2,453.6 L326.3,447.1 L330.7,448.1 L326.2,438.9 L320.1,440.6 L320.7,444.3 L314.3,442.1 L310.3,444.6 L310.5,450.0 L308.1,452.8 L303.6,451.3 L303.9,447.2 L300.1,448.9 L290.4,445.6 L288.3,447.6 Z">
  <desc xmlns="http://www.highcharts.com/svg/namespace">
    <name>Saalfeld-Rudolstadt</name>
    <bundesland>DE.TH</bundesland>
    <hc-middle-x>0.46</hc-middle-x>
    <hc-middle-y>0.47</hc-middle-y>
    <hc-key>de-th-16073000</hc-key>
    <hc-a2>SR</hc-a2>
  </desc>
</path>

<path fill="#CEE3F5" stroke="#6E6E6E" stroke-width="0.4" id="DE.TH.16061000" d="M158.2,112.9 L155.7,118.1 L148.4,122.5 L148.5,123.7 L148.5,124.6 L125.5,124.1 L126.0,125.7 L121.2,129.5 L122.4,137.1 L116.0,147.8 L108.6,149.4 L106.0,148.9 L104.0,155.4 L108.1,157.8 L107.7,161.3 L104.4,164.8 L99.7,166.8 L98.8,169.5 L95.2,168.5 L87.1,171.2 L82.9,169.5 L79.0,170.7 L75.3,173.9 L77.5,180.2 L79.8,181.7 L80.2,186.0 L72.7,178.5 L69.4,177.6 L65.8,180.0 L62.9,174.4 L56.6,176.5 L51.0,172.2 L47.3,173.3 L44.9,171.7 L46.3,166.6 L43.8,162.0 L40.7,161.0 L39.6,157.1 L42.3,155.8 L42.8,152.5 L38.2,150.8 L35.3,151.8 L28.8,148.2 L20.8,149.2 L21.8,147.0 L17.9,141.4 L14.5,142.1 L12.6,139.8 L14.8,136.4 L12.9,129.0 L9.9,127.3 L8.1,116.1 L9.4,113.2 L12.8,111.9 L18.7,105.0 L24.0,104.0 L28.5,99.7 L29.4,94.8 L36.5,95.0 L39.5,91.2 L38.6,88.2 L41.5,88.8 L43.1,94.8 L45.8,95.0 L46.7,89.4 L49.6,88.5 L56.2,90.6 L59.9,88.4 L62.1,90.7 L65.6,89.9 L62.2,87.7 L62.4,84.7 L70.4,84.0 L73.2,77.6 L71.2,75.2 L74.2,70.2 L78.0,67.5 L81.2,70.9 L80.9,74.3 L85.6,73.7 L87.7,68.7 L94.7,66.8 L97.6,64.3 L101.4,64.4 L101.7,58.9 L111.8,54.0 L114.2,47.7 L118.0,44.5 L120.6,36.6 L119.8,28.3 L118.2,26.7 L127.3,26.9 L132.1,24.6 L136.7,25.5 L138.4,27.7 L142.4,27.9 L147.8,31.2 L148.9,33.7 L146.5,42.7 L154.7,45.4 L154.1,50.8 L159.9,51.5 L157.9,58.3 L155.9,60.4 L156.9,64.2 L153.5,69.3 L153.8,76.7 L151.6,77.9 L156.7,85.3 L156.4,86.6 L148.9,90.0 L152.5,90.4 L151.5,93.1 L148.8,92.1 L147.2,95.4 L150.8,96.5 L150.8,104.8 L153.2,104.5 L154.2,109.0 Z M144.6,95.1 L146.6,95.3 L146.5,93.6 L144.9,94.3 Z">
  <desc xmlns="http://www.highcharts.com/svg/namespace">
    <name>Eichsfeld</name>
    <bundesland>DE.TH</bundesland>
    <hc-middle-x>0.55</hc-middle-x>
    <hc-middle-y>0.57</hc-middle-y>
    <hc-key>de-th-16061000</hc-key>
    <hc-a2>EI</hc-a2>
  </desc>
</path>

<path fill="#CEE3F5" stroke="#6E6E6E" stroke-width="0.4" id="DE.TH.16077000" d="M599.9,319.1 L599.8,311.7 L598.5,308.7 L600.8,304.9 L597.2,301.8 L591.0,303.0 L590.6,296.6 L588.0,294.8 L592.6,290.0 L591.9,282.5 L597.1,278.4 L597.7,275.4 L594.7,275.6 L591.0,269.7 L595.2,264.3 L593.7,260.9 L594.4,256.4 L600.6,249.7 L606.7,238.6 L607.1,233.6 L601.6,230.1 L596.4,231.6 L595.9,228.8 L598.7,226.6 L597.5,220.1 L599.9,215.1 L603.6,213.1 L604.8,210.0 L608.6,207.0 L612.1,208.3 L615.2,204.2 L621.7,207.7 L621.1,211.6 L626.7,214.4 L631.4,211.5 L635.6,215.6 L638.2,213.4 L645.7,213.4 L647.5,210.4 L648.9,217.4 L650.6,218.4 L657.4,217.3 L660.7,222.4 L659.1,223.0 L659.6,229.7 L663.9,234.3 L668.9,233.5 L668.0,237.0 L669.6,240.9 L666.2,242.8 L669.4,244.7 L672.4,243.8 L680.2,247.0 L685.2,245.4 L689.2,248.2 L693.5,265.1 L700.0,274.1 L696.9,277.3 L696.8,280.7 L691.6,278.4 L689.6,279.8 L680.0,282.3 L676.5,280.5 L671.1,282.9 L666.7,280.3 L663.4,282.0 L664.0,286.1 L657.8,286.4 L657.2,288.4 L651.5,291.9 L652.9,296.0 L649.0,297.2 L648.0,306.7 L642.4,308.7 L640.3,306.1 L641.6,302.4 L638.7,304.5 L633.8,304.7 L628.3,306.6 L624.4,310.1 L624.3,315.9 L613.0,319.0 L610.4,316.5 L609.0,321.3 L602.3,321.8 Z">
  <desc xmlns="http://www.highcharts.com/svg/namespace">
    <name>Altenburger Land</name>
    <bundesland>DE.TH</bundesland>
    <hc-middle-x>0.40</hc-middle-x>
    <hc-middle-y>0.46</hc-middle-y>
    <hc-key>de-th-16077000</hc-key>
    <hc-a2>AL</hc-a2>
  </desc>
</path>

<path fill="#CEE3F5" stroke="#6E6E6E" stroke-width="0.4" id="DE.TH.16063000" d="M80.2,257.4 L78.4,253.8 L81.8,254.6 L83.4,251.6 L79.2,246.2 L74.8,243.1 L64.4,239.1 L67.6,233.4 L65.3,228.5 L70.5,222.6 L69.1,219.2 L72.9,219.6 L72.6,215.6 L67.4,215.0 L62.3,209.3 L58.3,206.7 L60.1,204.0 L65.4,204.6 L70.9,201.1 L73.2,205.7 L75.0,205.9 L73.7,211.3 L79.0,217.0 L81.3,214.9 L80.0,207.5 L81.3,204.6 L88.3,204.2 L95.5,201.6 L95.4,204.2 L99.2,202.7 L97.1,207.4 L100.0,207.8 L100.4,204.3 L108.2,200.5 L115.0,201.8 L113.1,205.2 L116.4,212.1 L120.0,211.2 L122.1,214.2 L122.9,221.8 L127.8,223.1 L127.9,226.6 L125.5,229.7 L129.5,230.9 L138.7,241.3 L142.7,235.8 L139.8,230.2 L145.2,230.4 L150.5,227.2 L151.5,230.6 L158.3,229.4 L160.9,235.7 L173.5,236.9 L178.7,238.6 L183.6,236.9 L181.3,240.9 L184.0,244.5 L178.6,250.8 L171.5,252.0 L171.0,254.7 L157.1,261.1 L154.6,263.7 L150.6,263.3 L150.6,269.4 L152.1,272.9 L160.9,274.2 L156.9,278.7 L155.6,282.5 L156.1,287.7 L152.2,292.8 L152.7,296.3 L155.7,300.5 L151.0,301.7 L151.1,294.1 L139.6,299.3 L140.1,304.1 L136.1,306.4 L131.4,315.5 L134.2,321.1 L133.0,326.7 L132.8,335.0 L126.4,338.6 L129.1,339.8 L125.4,342.9 L127.9,346.7 L121.0,350.1 L117.3,349.6 L113.3,346.2 L104.7,350.0 L102.2,353.8 L97.2,356.3 L91.5,355.4 L89.8,352.9 L81.9,351.4 L84.0,359.2 L86.6,361.5 L84.6,365.3 L87.1,367.0 L84.2,372.3 L77.5,375.0 L77.6,383.0 L78.9,387.5 L76.5,393.4 L84.0,400.2 L86.8,406.1 L83.1,409.6 L85.2,412.7 L83.4,415.4 L72.3,415.8 L64.3,414.2 L57.8,410.9 L57.3,407.3 L53.4,405.9 L51.0,407.5 L48.8,400.0 L43.5,393.0 L36.1,393.5 L31.6,392.1 L24.4,396.5 L21.1,395.5 L17.8,398.0 L18.4,400.6 L23.4,406.4 L21.3,411.1 L17.6,412.2 L12.8,411.1 L7.4,406.9 L2.4,409.6 L0.0,406.5 L1.9,401.1 L0.9,393.8 L4.3,389.7 L7.2,389.4 L9.5,385.6 L8.5,379.6 L13.2,374.1 L15.9,367.4 L15.3,360.7 L10.4,359.2 L12.6,355.2 L19.1,348.8 L16.3,345.3 L19.4,339.2 L18.2,334.5 L24.4,329.6 L28.9,332.6 L31.9,327.8 L36.1,330.1 L39.9,321.5 L35.7,323.7 L34.8,319.4 L36.2,315.9 L44.8,309.6 L44.7,306.6 L40.5,305.4 L42.8,303.3 L36.1,298.1 L33.7,294.6 L30.7,294.3 L24.3,300.8 L21.8,298.4 L25.2,295.0 L27.2,288.9 L21.1,291.5 L18.9,294.0 L17.0,292.5 L18.7,289.6 L17.0,286.2 L27.4,285.6 L32.6,288.9 L36.5,285.4 L37.1,287.6 L43.2,286.8 L45.0,283.5 L41.7,284.3 L40.2,279.9 L37.7,279.0 L39.8,275.8 L35.6,272.4 L34.7,265.3 L37.4,258.4 L43.6,257.6 L50.5,258.7 L55.4,261.2 L59.7,257.8 L62.8,260.5 L63.8,264.2 L67.1,264.8 L75.3,262.9 L73.9,269.3 L77.6,270.4 L80.1,276.2 L80.8,274.2 L87.4,273.7 L88.0,275.4 L93.1,276.6 L91.9,279.4 L95.7,281.8 L102.4,283.0 L103.3,285.7 L110.3,289.6 L114.8,279.4 L117.7,279.5 L117.0,282.4 L122.0,277.7 L124.9,278.1 L124.5,274.1 L126.4,272.6 L124.2,268.3 L127.5,266.8 L127.8,260.6 L124.4,260.4 L126.0,256.1 L123.3,252.2 L123.8,246.3 L118.9,245.3 L116.8,246.6 L112.4,244.2 L112.8,241.7 L109.7,240.7 L107.3,243.7 L109.0,247.0 L108.1,250.3 L102.8,250.2 L99.0,254.9 L100.2,260.2 L98.6,263.0 L88.3,256.7 L83.8,258.3 Z">
  <desc xmlns="http://www.highcharts.com/svg/namespace">
    <name>Wartburgkreis</name>
    <bundesland>DE.TH</bundesland>
    <hc-middle-x>0.40</hc-middle-x>
    <hc-middle-y>0.60</hc-middle-y>
    <hc-key>de-th-16063000</hc-key>
    <hc-a2>WA</hc-a2>
  </desc>
</path>

<path fill="#CEE3F5" stroke="#6E6E6E" stroke-width="0.4" id="DE.TH.16072000" d="M274.2,503.3 L277.5,501.2 L277.5,497.6 L272.3,492.1 L277.4,491.2 L277.9,489.3 L284.5,484.3 L291.9,475.6 L297.2,472.3 L296.4,467.9 L291.0,465.4 L284.0,465.7 L283.9,459.7 L281.0,456.6 L286.9,451.5 L284.7,446.2 L288.3,447.6 L290.4,445.6 L300.1,448.9 L303.9,447.2 L303.6,451.3 L308.1,452.8 L310.5,450.0 L310.3,444.6 L314.3,442.1 L320.7,444.3 L320.1,440.6 L326.2,438.9 L330.7,448.1 L326.3,447.1 L324.2,453.6 L327.7,458.4 L332.1,453.6 L339.2,456.2 L339.6,459.6 L346.6,452.8 L354.8,455.6 L356.0,459.2 L359.1,457.4 L357.8,461.8 L354.9,463.8 L350.2,464.4 L349.8,467.9 L352.3,473.1 L350.4,476.2 L354.6,478.5 L356.3,487.9 L353.8,495.6 L357.1,498.1 L355.6,500.8 L358.6,503.1 L361.0,511.3 L355.9,514.2 L359.5,521.1 L355.4,520.4 L355.9,525.4 L354.3,526.5 L358.1,532.8 L353.5,535.9 L355.4,539.5 L355.8,545.6 L352.7,548.5 L349.6,545.6 L339.7,539.3 L337.2,548.3 L333.9,547.8 L336.2,543.8 L331.5,543.3 L329.7,540.6 L326.5,542.4 L323.1,536.4 L323.3,530.9 L327.6,528.0 L329.4,524.2 L320.8,514.1 L317.6,515.7 L317.8,510.0 L311.2,510.5 L309.4,515.4 L299.5,519.3 L296.7,516.7 L297.6,513.3 L286.6,511.4 L287.6,518.8 L284.8,518.7 L278.5,510.7 L278.7,509.0 Z">
  <desc xmlns="http://www.highcharts.com/svg/namespace">
    <name>Sonneberg</name>
    <bundesland>DE.TH</bundesland>
    <hc-middle-x>0.56</hc-middle-x>
    <hc-middle-y>0.40</hc-middle-y>
    <hc-key>de-th-16072000</hc-key>
    <hc-a2>SO</hc-a2>
  </desc>
</path>

<path fill="#CEE3F5" stroke="#6E6E6E" stroke-width="0.4" id="DE.TH.16066000" d="M221.8,371.9 L222.1,376.3 L219.9,377.7 L219.8,383.1 L222.0,384.5 L220.5,392.0 L217.5,394.0 L212.2,392.8 L208.9,395.0 L207.5,398.8 L207.8,409.0 L205.6,409.7 L194.4,401.4 L190.6,404.0 L190.7,407.9 L183.7,410.8 L182.5,415.6 L175.2,414.1 L171.8,415.7 L171.9,420.4 L176.5,421.2 L174.0,422.7 L179.7,426.0 L176.6,433.6 L175.6,431.3 L171.1,430.5 L171.8,434.2 L165.8,440.5 L174.4,442.3 L179.6,445.5 L180.1,454.0 L177.1,454.6 L175.7,460.5 L172.6,461.5 L175.0,467.9 L178.2,471.0 L177.9,477.3 L181.6,482.5 L178.8,486.0 L176.8,484.3 L168.4,486.3 L162.2,482.4 L163.0,479.6 L156.7,481.5 L154.0,487.8 L155.8,488.6 L154.9,494.2 L149.8,500.4 L147.6,500.0 L140.8,503.9 L131.6,501.8 L130.7,497.5 L134.8,493.4 L135.2,490.5 L127.0,488.4 L123.3,479.2 L117.9,475.0 L119.1,468.1 L116.3,463.7 L110.2,464.7 L97.2,456.6 L90.8,457.1 L89.4,454.4 L90.9,449.4 L88.2,446.4 L84.8,445.7 L83.6,440.1 L77.0,441.4 L76.5,444.9 L70.1,441.4 L67.2,445.0 L62.4,440.0 L63.8,437.7 L58.9,436.9 L54.7,444.5 L51.2,446.1 L49.3,450.5 L42.5,456.0 L41.6,451.0 L43.8,444.4 L47.5,439.8 L44.5,437.3 L43.1,432.5 L44.2,428.7 L43.5,422.3 L40.9,417.5 L46.0,412.1 L52.0,414.5 L52.4,409.0 L51.0,407.5 L53.4,405.9 L57.3,407.3 L57.8,410.9 L64.3,414.2 L72.3,415.8 L83.4,415.4 L85.2,412.7 L83.1,409.6 L86.8,406.1 L84.0,400.2 L76.5,393.4 L78.9,387.5 L77.6,383.0 L77.5,375.0 L84.2,372.3 L87.1,367.0 L84.6,365.3 L86.6,361.5 L84.0,359.2 L81.9,351.4 L89.8,352.9 L91.5,355.4 L97.2,356.3 L102.2,353.8 L104.7,350.0 L113.3,346.2 L117.3,349.6 L121.0,350.1 L127.9,346.7 L125.4,342.9 L129.1,339.8 L126.4,338.6 L132.8,335.0 L133.0,326.7 L134.2,321.1 L138.4,324.0 L145.2,322.7 L148.1,320.4 L157.2,327.5 L160.4,325.9 L166.4,329.7 L168.5,339.7 L166.8,347.4 L171.9,346.7 L174.2,351.5 L173.3,354.0 L176.6,363.7 L178.8,365.8 L186.2,364.9 L193.0,368.5 L195.7,373.6 L197.3,370.5 L200.4,370.2 L203.2,372.7 L207.9,373.4 L210.3,372.0 L211.8,366.2 L214.2,364.4 Z">
  <desc xmlns="http://www.highcharts.com/svg/namespace">
    <name>Schmalkalden-Meiningen</name>
    <bundesland>DE.TH</bundesland>
    <hc-middle-x>0.51</hc-middle-x>
    <hc-middle-y>0.50</hc-middle-y>
    <hc-key>de-th-16066000</hc-key>
    <hc-a2>SM</hc-a2>
  </desc>
</path>
</g>

<text x="350" y="714" text-anchor="middle" font-family="Verdana" font-size="8" stroke-opacity="0.6">Copyright (c) 2014 Highsoft AS, Based on data from GeoBasis-DE / BKG 2014</text>

</svg>