<?xml version="1.0" encoding="utf-8" standalone="no"?>
<!DOCTYPE svg PUBLIC "-//W3C//DTD SVG 1.1//EN" "http://www.w3.org/Graphics/SVG/1.1/DTD/svg11.dtd">

<svg version="1.1" height="700pt" width="700pt" xmlns="http://www.w3.org/2000/svg" xmlns:xlink="http://www.w3.org/1999/xlink">
<desc>
Map version: 1.1.1
Copyright (c) 2014 Highsoft AS, Based on data from The United States Census Bureau
</desc>
<title>Alabama congressional districts</title>
<g id="special">

<g id="US.AL">
  <desc xmlns="http://www.highcharts.com/svg/namespace">
    <labelrank>0</labelrank>
    <hasc>US.AL</hasc>
    <alt-name>AL|Ala.</alt-name>
    <woe-id>2347559</woe-id>
    <subregion>East South Central</subregion>
    <fips>US01</fips>
    <postal-code>AL</postal-code>
    <name>Alabama</name>
    <country>United States of America</country>
    <type-en>State</type-en>
    <region>South</region>
    <longitude>-86.7184</longitude>
    <woe-name>Alabama</woe-name>
    <latitude>32.8551</latitude>
    <woe-label>Alabama, US, United States</woe-label>
    <type>State</type>
    <hc-key>us-al</hc-key>
    <hc-a2>AL</hc-a2>
  </desc>
</g>

<g id="US">
  <desc xmlns="http://www.highcharts.com/svg/namespace">
    <name>United States of America</name>
    <labelrank>2</labelrank>
    <country-abbrev>U.S.A.</country-abbrev>
    <subregion>Northern America</subregion>
    <woe-id>23424977</woe-id>
    <region-wb>North America</region-wb>
    <iso-a3>USA</iso-a3>
    <iso-a2>US</iso-a2>
    <region-un>Americas</region-un>
    <continent>North America</continent>
    <hc-key>us</hc-key>
    <hc-a2>US</hc-a2>
  </desc>
</g>

<path fill="#CEE3F5" stroke="#6E6E6E" stroke-width="0.4" id="US.AL.01" d="M121.0,688.5 L126.7,687.7 L126.4,689.3 L118.0,691.7 Z M45.3,696.9 L17.3,697.7 L19.2,696.6 L30.9,694.8 L39.8,694.6 L43.1,692.3 L47.9,695.0 Z M63.8,547.4 L61.3,547.1 L66.8,553.8 L64.8,558.4 L69.0,559.2 L74.5,555.1 L75.8,552.3 L78.8,552.9 L77.1,548.7 L85.1,545.4 L82.2,541.9 L86.9,543.8 L85.3,539.3 L89.1,533.8 L90.1,538.1 L93.1,536.6 L92.7,532.2 L95.3,528.2 L100.4,525.0 L108.2,527.0 L111.8,523.5 L112.9,516.5 L106.2,511.0 L113.0,506.0 L112.9,485.0 L119.3,484.9 L119.1,467.9 L121.3,465.7 L155.3,465.5 L157.1,465.9 L195.4,465.6 L195.6,477.0 L185.1,482.1 L177.3,482.3 L176.8,488.0 L172.4,491.7 L166.9,493.2 L165.6,501.2 L162.9,511.1 L157.7,520.2 L155.3,520.6 L146.6,528.4 L138.7,540.6 L134.4,543.0 L130.1,548.9 L203.5,548.8 L213.5,548.9 L212.4,557.5 L216.9,559.7 L221.5,558.9 L221.6,587.0 L223.1,587.9 L218.6,587.6 L166.1,587.2 L108.4,587.3 L109.6,591.9 L103.7,606.4 L108.0,613.0 L114.2,618.3 L116.6,624.5 L132.5,634.6 L134.1,641.5 L130.9,651.0 L128.8,652.9 L127.1,658.6 L133.0,668.9 L127.6,674.0 L123.8,680.7 L118.7,682.3 L116.1,685.8 L111.2,686.1 L106.2,680.4 L107.0,688.4 L112.2,687.3 L108.9,692.9 L100.7,696.2 L84.0,698.3 L68.3,698.2 L53.0,700.0 L65.1,694.1 L67.7,696.6 L72.7,697.6 L83.3,694.5 L86.8,692.1 L85.3,687.2 L78.5,679.7 L79.9,674.9 L78.1,672.6 L76.0,676.4 L72.6,675.9 L67.7,670.9 L64.7,662.2 L68.6,652.6 L68.4,647.5 L64.7,636.4 L60.5,633.0 L56.7,632.2 L56.3,626.5 L54.6,626.9 L50.8,637.0 L49.4,644.3 L46.6,648.4 L42.9,666.4 L43.1,672.5 L41.8,683.1 L33.6,683.7 L33.3,678.8 L21.8,675.5 L18.6,673.7 L16.8,676.7 L14.6,673.3 L6.9,675.3 L4.3,586.2 L1.9,515.5 L0.7,483.8 L47.7,484.2 L48.9,488.5 L53.0,483.8 L62.0,500.0 L65.2,495.4 L70.1,492.1 L76.2,491.6 L77.1,485.1 L67.6,479.2 L68.5,475.5 L77.7,474.4 L82.4,470.8 L85.0,472.1 L88.3,478.2 L89.5,474.2 L92.5,476.4 L89.8,483.7 L87.4,486.6 L89.7,490.7 L95.3,494.0 L93.5,499.7 L86.7,502.9 L84.9,500.3 L81.3,500.0 L78.2,504.5 L79.6,509.6 L73.6,506.9 L66.6,521.9 L69.6,524.6 L68.6,529.6 L72.2,529.9 L69.8,539.4 L63.3,540.3 L64.8,543.3 Z">
  <desc xmlns="http://www.highcharts.com/svg/namespace">
    <geoid>0101</geoid>
    <name>Congressional District 1</name>
    <hc-middle-x>0.34</hc-middle-x>
    <hc-middle-y>0.51</hc-middle-y>
    <hc-key>us-al-01</hc-key>
    <hc-a2>CD</hc-a2>
  </desc>
</path>

<path fill="#CEE3F5" stroke="#6E6E6E" stroke-width="0.4" id="US.AL.05" d="M57.2,15.1 L51.5,17.1 L51.5,17.1 L44.9,13.0 L39.0,0.0 L104.1,1.3 L132.1,1.5 L203.5,3.2 L247.9,3.3 L259.1,3.0 L325.4,3.0 L351.8,3.1 L354.7,21.3 L349.4,25.5 L348.6,30.3 L345.6,36.8 L341.7,38.4 L330.7,56.1 L312.3,70.8 L311.5,71.8 L309.0,74.8 L304.5,77.5 L298.8,73.8 L293.1,72.9 L286.8,67.5 L286.8,60.3 L266.5,60.3 L268.1,63.3 L264.7,64.2 L267.7,66.0 L264.0,73.5 L261.9,71.5 L257.4,72.3 L257.8,74.9 L253.6,78.0 L248.2,78.6 L240.3,74.7 L238.0,69.2 L234.6,94.0 L234.6,103.7 L201.4,103.2 L170.4,102.4 L171.1,48.0 L167.0,42.4 L156.1,36.5 L147.8,38.5 L142.3,31.8 L139.1,30.5 L132.9,31.3 L125.9,29.3 L120.6,26.4 L113.8,27.9 L109.7,31.2 L98.4,35.0 L95.2,39.0 L86.3,40.9 L82.9,39.5 L72.8,30.1 L70.8,23.9 L66.5,18.7 Z">
  <desc xmlns="http://www.highcharts.com/svg/namespace">
    <geoid>0105</geoid>
    <name>Congressional District 5</name>
    <hc-middle-x>0.60</hc-middle-x>
    <hc-middle-y>0.51</hc-middle-y>
    <hc-key>us-al-05</hc-key>
    <hc-a2>CD</hc-a2>
  </desc>
</path>

<path fill="#CEE3F5" stroke="#6E6E6E" stroke-width="0.4" id="US.AL.04" d="M354.7,21.3 L357.5,37.4 L369.0,96.6 L364.0,101.2 L360.2,98.2 L356.6,101.4 L352.8,96.6 L351.2,90.6 L332.7,109.5 L328.5,109.6 L328.6,112.5 L324.3,111.8 L324.8,131.3 L330.9,129.2 L330.2,132.8 L337.7,149.0 L337.3,156.9 L324.5,153.8 L318.0,156.0 L318.0,161.3 L313.8,161.4 L313.8,159.2 L309.5,160.2 L306.4,167.5 L303.3,169.5 L296.9,167.5 L294.1,168.1 L292.1,161.9 L288.4,162.6 L285.6,158.7 L285.2,153.0 L281.4,149.6 L275.0,153.0 L270.3,150.4 L266.0,156.8 L260.6,156.9 L265.1,150.1 L264.4,140.4 L254.7,139.5 L254.5,136.1 L257.4,130.6 L248.1,124.6 L241.1,123.6 L235.6,124.0 L232.3,130.8 L229.5,130.4 L225.6,134.9 L219.8,136.4 L222.1,139.6 L219.2,141.3 L217.6,145.4 L213.0,148.9 L212.6,152.1 L208.9,155.3 L205.7,154.5 L197.7,160.4 L193.0,161.6 L193.6,166.9 L190.2,168.5 L189.5,177.5 L187.4,179.6 L183.1,179.5 L181.0,181.6 L178.8,188.0 L178.9,194.4 L176.8,194.4 L176.7,198.6 L172.5,198.5 L172.5,202.8 L166.1,202.7 L166.1,204.9 L161.9,204.8 L158.8,209.9 L161.1,213.3 L155.3,215.7 L148.9,223.5 L143.3,222.7 L142.7,227.8 L148.9,230.1 L155.3,236.8 L155.3,241.1 L159.9,244.4 L152.8,254.2 L154.5,258.4 L141.8,264.6 L136.6,261.1 L137.4,257.6 L134.2,253.9 L130.7,257.4 L122.0,258.8 L119.2,261.6 L114.4,262.6 L115.0,259.8 L110.9,259.3 L109.8,255.6 L105.2,254.9 L105.3,260.1 L107.7,261.2 L105.3,265.4 L100.6,265.9 L101.3,269.0 L96.1,272.2 L93.7,269.7 L88.3,275.1 L80.7,274.2 L81.0,234.3 L80.8,217.4 L67.8,217.4 L27.7,215.6 L30.7,188.4 L36.3,143.2 L46.5,57.5 L48.7,41.6 L51.5,17.1 L57.2,15.1 L66.5,18.7 L70.8,23.9 L72.8,30.1 L82.9,39.5 L86.3,40.9 L95.2,39.0 L98.4,35.0 L109.7,31.2 L113.8,27.9 L120.6,26.4 L125.9,29.3 L132.9,31.3 L139.1,30.5 L142.3,31.8 L147.8,38.5 L156.1,36.5 L167.0,42.4 L171.1,48.0 L170.4,102.4 L201.4,103.2 L234.6,103.7 L234.6,94.0 L238.0,69.2 L240.3,74.7 L248.2,78.6 L253.6,78.0 L257.8,74.9 L257.4,72.3 L261.9,71.5 L264.0,73.5 L267.7,66.0 L264.7,64.2 L268.1,63.3 L266.5,60.3 L286.8,60.3 L286.8,67.5 L293.1,72.9 L298.8,73.8 L304.5,77.5 L311.5,71.8 L330.7,56.1 L341.7,38.4 L345.6,36.8 L348.6,30.3 L349.4,25.5 Z">
  <desc xmlns="http://www.highcharts.com/svg/namespace">
    <geoid>0104</geoid>
    <name>Congressional District 4</name>
    <hc-middle-x>0.22</hc-middle-x>
    <hc-middle-y>0.51</hc-middle-y>
    <hc-key>us-al-04</hc-key>
    <hc-a2>CD</hc-a2>
  </desc>
</path>

<path fill="#CEE3F5" stroke="#6E6E6E" stroke-width="0.4" id="US.AL.07" d="M27.7,215.6 L67.8,217.4 L80.8,217.4 L81.0,234.3 L80.7,274.2 L88.3,275.1 L93.7,269.7 L96.1,272.2 L101.3,269.0 L100.6,265.9 L105.3,265.4 L107.7,261.2 L105.3,260.1 L105.2,254.9 L109.8,255.6 L110.9,259.3 L115.0,259.8 L114.4,262.6 L119.2,261.6 L122.0,258.8 L130.7,257.4 L134.2,253.9 L137.4,257.6 L136.6,261.1 L141.8,264.6 L154.5,258.4 L152.8,254.2 L159.9,244.4 L161.7,246.6 L168.6,243.4 L170.8,245.9 L180.3,237.4 L183.7,241.1 L187.8,234.4 L189.7,227.6 L185.2,226.3 L191.8,222.2 L185.6,215.9 L187.9,213.6 L194.8,216.2 L195.9,211.0 L192.1,208.3 L196.4,207.8 L196.4,205.1 L200.8,202.5 L202.4,208.7 L206.7,207.6 L208.3,210.4 L212.0,208.4 L219.6,200.4 L220.3,197.4 L224.8,197.1 L224.9,201.4 L228.1,203.8 L226.4,206.6 L221.9,206.0 L223.5,208.8 L218.0,217.0 L213.9,216.3 L210.4,219.2 L212.0,221.1 L205.4,226.7 L200.2,234.5 L201.4,239.7 L198.7,244.0 L196.8,241.1 L192.0,242.1 L188.3,249.7 L191.1,249.7 L189.4,253.7 L184.6,256.9 L185.9,258.6 L174.4,258.5 L171.0,262.2 L165.1,260.6 L159.3,265.8 L159.3,275.5 L149.1,275.1 L145.5,280.8 L144.6,293.7 L131.8,294.0 L131.8,312.9 L144.4,312.8 L144.4,319.2 L156.2,318.7 L181.4,318.5 L181.6,343.9 L194.0,343.7 L194.0,343.7 L194.0,343.7 L196.4,357.8 L195.4,361.4 L197.4,367.3 L202.4,376.8 L205.6,378.9 L203.2,382.3 L207.7,389.0 L206.2,391.6 L207.3,395.9 L212.0,391.0 L210.9,383.4 L214.8,383.9 L218.8,381.9 L219.6,388.1 L223.1,389.1 L226.6,385.8 L226.8,382.7 L231.2,381.5 L231.6,386.1 L240.6,387.6 L241.9,391.2 L246.3,390.4 L249.2,393.3 L247.8,399.1 L253.0,396.8 L253.8,392.2 L265.8,386.8 L269.9,388.1 L270.8,392.8 L278.1,392.7 L278.2,397.7 L272.9,399.1 L269.8,395.7 L270.7,408.5 L265.3,405.4 L264.8,409.8 L259.7,407.5 L257.4,410.1 L258.0,446.0 L232.0,446.1 L195.2,446.5 L195.4,465.6 L157.1,465.9 L155.3,465.5 L121.3,465.7 L119.1,467.9 L119.3,484.9 L112.9,485.0 L113.0,506.0 L106.2,511.0 L112.9,516.5 L111.8,523.5 L108.2,527.0 L100.4,525.0 L95.3,528.2 L92.7,532.2 L93.1,536.6 L90.1,538.1 L89.1,533.8 L85.3,539.3 L86.9,543.8 L82.2,541.9 L85.1,545.4 L77.1,548.7 L78.8,552.9 L75.8,552.3 L74.5,555.1 L69.0,559.2 L64.8,558.4 L66.8,553.8 L61.3,547.1 L63.8,547.4 L63.3,540.3 L69.8,539.4 L72.2,529.9 L68.6,529.6 L69.6,524.6 L66.6,521.9 L73.6,506.9 L79.6,509.6 L78.2,504.5 L81.3,500.0 L86.7,502.9 L93.5,499.7 L95.3,494.0 L89.7,490.7 L87.4,486.6 L89.8,483.7 L92.5,476.4 L89.5,474.2 L88.3,478.2 L85.0,472.1 L82.4,470.8 L77.7,474.4 L68.5,475.5 L67.6,479.2 L77.1,485.1 L76.2,491.6 L70.1,492.1 L65.2,495.4 L62.0,500.0 L53.0,483.8 L48.9,488.5 L47.7,484.2 L0.7,483.8 L0.0,455.1 L11.4,359.5 L16.7,311.8 Z">
  <desc xmlns="http://www.highcharts.com/svg/namespace">
    <geoid>0107</geoid>
    <name>Congressional District 7</name>
    <hc-middle-x>0.37</hc-middle-x>
    <hc-middle-y>0.54</hc-middle-y>
    <hc-key>us-al-07</hc-key>
    <hc-a2>CD</hc-a2>
  </desc>
</path>

<path fill="#CEE3F5" stroke="#6E6E6E" stroke-width="0.4" id="US.AL.06" d="M171.0,262.2 L174.4,258.5 L185.9,258.6 L184.6,256.9 L189.4,253.7 L191.1,249.7 L188.3,249.7 L192.0,242.1 L196.8,241.1 L198.7,244.0 L201.4,239.7 L200.2,234.5 L205.4,226.7 L209.9,224.2 L212.0,221.1 L210.4,219.2 L213.9,216.3 L218.0,217.0 L223.5,208.8 L221.9,206.0 L226.4,206.6 L228.1,203.8 L224.9,201.4 L224.8,197.1 L220.3,197.4 L219.6,200.4 L212.0,208.4 L208.3,210.4 L206.7,207.6 L202.4,208.7 L200.8,202.5 L196.4,205.1 L196.4,207.8 L192.1,208.3 L195.9,211.0 L194.8,216.2 L187.9,213.6 L185.6,215.9 L191.8,222.2 L185.2,226.3 L189.7,227.6 L187.7,230.0 L187.8,234.4 L183.7,241.1 L180.3,237.4 L170.8,245.9 L168.6,243.4 L161.7,246.6 L159.9,244.4 L155.3,241.1 L155.3,236.8 L148.9,230.1 L142.7,227.8 L143.3,222.7 L148.9,223.5 L155.3,215.7 L161.1,213.3 L158.8,209.9 L161.9,204.8 L166.1,204.9 L166.1,202.7 L172.5,202.8 L172.5,198.5 L176.7,198.6 L176.8,194.4 L178.9,194.4 L178.8,188.0 L181.0,181.6 L183.1,179.5 L187.4,179.6 L189.5,177.5 L190.2,168.5 L193.6,166.9 L193.0,161.6 L197.7,160.4 L205.7,154.5 L208.9,155.3 L212.6,152.1 L213.0,148.9 L217.6,145.4 L219.2,141.3 L222.1,139.6 L219.8,136.4 L225.6,134.9 L229.5,130.4 L232.3,130.8 L235.6,124.0 L241.1,123.6 L248.1,124.6 L257.4,130.6 L254.5,136.1 L254.7,139.5 L264.4,140.4 L265.1,150.1 L260.6,156.9 L266.0,156.8 L263.2,161.7 L264.4,163.5 L256.3,172.1 L243.3,175.9 L242.2,177.2 L235.4,177.2 L235.4,182.6 L239.7,182.6 L239.7,186.9 L241.9,189.0 L241.9,198.5 L238.7,203.8 L238.7,212.5 L247.3,214.6 L247.3,221.0 L260.0,220.9 L260.1,237.2 L264.4,243.3 L261.4,244.4 L262.8,250.9 L258.4,254.1 L253.4,253.1 L254.6,256.3 L250.4,259.1 L250.1,264.8 L247.0,264.9 L244.9,268.3 L250.3,276.1 L246.5,279.4 L305.8,278.7 L306.5,329.9 L265.8,330.4 L256.3,330.9 L256.4,337.2 L219.2,337.6 L219.3,344.0 L206.5,344.3 L194.0,343.7 L181.6,343.9 L181.4,318.5 L156.2,318.7 L144.4,319.2 L144.4,312.8 L131.8,312.9 L131.8,294.0 L144.6,293.7 L145.5,280.8 L149.1,275.1 L159.3,275.5 L159.3,265.8 L165.1,260.6 L168.8,260.1 Z">
  <desc xmlns="http://www.highcharts.com/svg/namespace">
    <geoid>0106</geoid>
    <name>Congressional District 6</name>
    <hc-middle-x>0.50</hc-middle-x>
    <hc-middle-y>0.73</hc-middle-y>
    <hc-key>us-al-06</hc-key>
    <hc-a2>CD</hc-a2>
  </desc>
</path>

<path fill="#CEE3F5" stroke="#6E6E6E" stroke-width="0.4" id="US.AL.02" d="M206.5,344.3 L219.3,344.0 L219.2,337.6 L256.4,337.2 L256.3,330.9 L265.8,330.4 L306.5,329.9 L322.3,329.8 L318.4,341.1 L321.4,345.4 L320.7,352.0 L321.9,360.1 L321.5,367.6 L323.6,370.8 L320.9,374.7 L316.3,373.9 L312.9,375.7 L311.1,373.9 L309.0,376.9 L302.1,380.9 L297.2,378.7 L293.4,379.4 L292.3,377.0 L289.1,378.4 L285.9,376.1 L283.2,384.6 L287.9,384.6 L290.7,386.7 L286.7,387.8 L287.8,390.9 L286.2,397.4 L284.4,397.8 L293.5,407.7 L294.2,417.6 L299.9,415.7 L303.8,419.3 L308.5,419.6 L308.2,403.7 L309.7,400.5 L320.7,400.0 L320.6,395.5 L323.2,397.5 L323.5,404.1 L326.0,406.2 L378.5,405.1 L379.5,418.0 L400.6,417.4 L404.3,424.0 L409.9,429.9 L425.9,429.5 L426.9,435.3 L422.4,444.9 L423.4,447.5 L419.2,451.7 L415.9,459.7 L418.9,478.2 L418.1,483.3 L423.2,491.3 L426.9,494.5 L427.0,501.5 L429.1,506.1 L425.5,516.5 L426.3,522.2 L423.2,531.7 L424.4,537.2 L423.6,542.1 L421.1,543.9 L423.0,552.1 L421.8,555.4 L422.7,560.8 L425.5,561.9 L430.8,568.9 L434.2,577.0 L435.4,584.7 L405.0,585.2 L362.7,586.5 L294.5,587.7 L223.1,587.9 L221.6,587.0 L221.5,558.9 L216.9,559.7 L212.4,557.5 L213.5,548.9 L203.5,548.8 L130.1,548.9 L134.4,543.0 L138.7,540.6 L146.6,528.4 L155.3,520.6 L157.7,520.2 L162.9,511.1 L165.6,501.2 L166.9,493.2 L172.4,491.7 L176.8,488.0 L177.3,482.3 L185.1,482.1 L195.6,477.0 L195.4,465.6 L195.2,446.5 L232.0,446.1 L258.0,446.0 L257.4,410.1 L259.7,407.5 L264.8,409.8 L265.3,405.4 L270.7,408.5 L269.8,395.7 L272.9,399.1 L278.2,397.7 L278.1,392.7 L270.8,392.8 L269.9,388.1 L265.8,386.8 L253.8,392.2 L253.0,396.8 L247.8,399.1 L249.2,393.3 L246.3,390.4 L241.9,391.2 L240.6,387.6 L231.6,386.1 L231.2,381.5 L226.8,382.7 L226.6,385.8 L223.1,389.1 L219.6,388.1 L218.8,381.9 L214.8,383.9 L210.9,383.4 L212.0,391.0 L207.3,395.9 L206.2,391.6 L207.7,389.0 L203.2,382.3 L205.6,378.9 L202.4,376.8 L197.4,367.3 L195.4,361.4 L196.4,357.8 L194.0,343.7 L194.0,343.7 Z">
  <desc xmlns="http://www.highcharts.com/svg/namespace">
    <geoid>0102</geoid>
    <name>Congressional District 2</name>
    <hc-middle-x>0.56</hc-middle-x>
    <hc-middle-y>0.70</hc-middle-y>
    <hc-key>us-al-02</hc-key>
    <hc-a2>CD</hc-a2>
  </desc>
</path>

<path fill="#CEE3F5" stroke="#6E6E6E" stroke-width="0.4" id="US.AL.03" d="M306.5,329.9 L305.8,278.7 L246.5,279.4 L250.3,276.1 L244.9,268.3 L247.0,264.9 L250.1,264.8 L250.4,259.1 L254.6,256.3 L253.4,253.1 L258.4,254.1 L262.8,250.9 L261.4,244.4 L264.4,243.3 L260.1,237.2 L260.0,220.9 L247.3,221.0 L247.3,214.6 L238.7,212.5 L238.7,203.8 L241.9,198.5 L241.9,189.0 L239.7,186.9 L239.7,182.6 L235.4,182.6 L235.4,177.2 L242.2,177.2 L243.3,175.9 L256.3,172.1 L264.4,163.5 L263.2,161.7 L266.0,156.8 L270.3,150.4 L275.0,153.0 L281.4,149.6 L285.2,153.0 L285.6,158.7 L288.4,162.6 L292.1,161.9 L294.1,168.1 L296.9,167.5 L303.3,169.5 L306.4,167.5 L309.5,160.2 L313.8,159.2 L313.8,161.4 L318.0,161.3 L318.0,156.0 L324.5,153.8 L337.3,156.9 L337.7,149.0 L330.2,132.8 L330.9,129.2 L324.8,131.3 L324.3,111.8 L328.6,112.5 L328.5,109.6 L332.7,109.5 L351.2,90.6 L352.8,96.6 L356.6,101.4 L360.2,98.2 L364.0,101.2 L369.0,96.6 L374.0,123.8 L395.1,241.7 L401.3,276.4 L407.9,311.6 L411.7,316.1 L410.1,320.2 L415.8,325.6 L413.3,327.5 L417.1,331.6 L417.3,338.9 L420.3,342.5 L423.2,354.0 L429.0,359.2 L431.8,364.4 L432.7,372.6 L436.5,376.7 L434.5,378.2 L434.1,385.5 L431.9,391.4 L440.5,394.8 L446.2,400.1 L441.2,406.3 L435.8,406.7 L437.3,409.4 L431.4,412.0 L425.0,419.3 L427.2,425.8 L425.9,429.5 L409.9,429.9 L404.3,424.0 L400.6,417.4 L379.5,418.0 L378.5,405.1 L326.0,406.2 L323.5,404.1 L323.2,397.5 L320.6,395.5 L320.7,400.0 L309.7,400.5 L308.2,403.7 L308.5,419.6 L303.8,419.3 L299.9,415.7 L294.2,417.6 L293.5,407.7 L284.4,397.8 L286.2,397.4 L287.8,390.9 L286.7,387.8 L290.7,386.7 L287.9,384.6 L283.2,384.6 L285.9,376.1 L289.1,378.4 L292.3,377.0 L293.4,379.4 L297.2,378.7 L302.1,380.9 L309.0,376.9 L311.1,373.9 L312.9,375.7 L316.3,373.9 L320.9,374.7 L323.6,370.8 L321.5,367.6 L321.9,360.1 L320.7,352.0 L321.4,345.4 L318.4,341.1 L322.3,329.8 Z">
  <desc xmlns="http://www.highcharts.com/svg/namespace">
    <geoid>0103</geoid>
    <name>Congressional District 3</name>
    <hc-middle-x>0.52</hc-middle-x>
    <hc-middle-y>0.55</hc-middle-y>
    <hc-key>us-al-03</hc-key>
    <hc-a2>CD</hc-a2>
  </desc>
</path>
</g>

<text x="350" y="714" text-anchor="middle" font-family="Verdana" font-size="8" stroke-opacity="0.6">Copyright (c) 2014 Highsoft AS, Based on data from The United States Census Bureau</text>

</svg>