<?xml version="1.0" encoding="utf-8" standalone="no"?>
<!DOCTYPE svg PUBLIC "-//W3C//DTD SVG 1.1//EN" "http://www.w3.org/Graphics/SVG/1.1/DTD/svg11.dtd">

<svg version="1.1" height="700pt" width="700pt" xmlns="http://www.w3.org/2000/svg" xmlns:xlink="http://www.w3.org/1999/xlink">
<desc>
Map version: 1.1.1
Copyright (c) 2014 Highsoft AS, Based on data from The United States Census Bureau
</desc>
<title>Michigan congressional districts</title>
<g id="special">

<g id="US.MI">
  <desc xmlns="http://www.highcharts.com/svg/namespace">
    <labelrank>0</labelrank>
    <hasc>US.MI</hasc>
    <alt-name>MI|Mich.</alt-name>
    <woe-id>2347581</woe-id>
    <subregion>East North Central</subregion>
    <fips>US26</fips>
    <postal-code>MI</postal-code>
    <name>Michigan</name>
    <country>United States of America</country>
    <type-en>State</type-en>
    <region>Midwest</region>
    <longitude>-84.9479</longitude>
    <woe-name>Michigan</woe-name>
    <latitude>43.4343</latitude>
    <woe-label>Michigan, US, United States</woe-label>
    <type>State</type>
    <hc-key>us-mi</hc-key>
    <hc-a2>MI</hc-a2>
  </desc>
</g>

<g id="US">
  <desc xmlns="http://www.highcharts.com/svg/namespace">
    <name>United States of America</name>
    <labelrank>2</labelrank>
    <country-abbrev>U.S.A.</country-abbrev>
    <subregion>Northern America</subregion>
    <woe-id>23424977</woe-id>
    <region-wb>North America</region-wb>
    <iso-a3>USA</iso-a3>
    <iso-a2>US</iso-a2>
    <region-un>Americas</region-un>
    <continent>North America</continent>
    <hc-key>us</hc-key>
    <hc-a2>US</hc-a2>
  </desc>
</g>

<path fill="#CEE3F5" stroke="#6E6E6E" stroke-width="0.4" id="US.MI.01" d="M209.1,333.8 L204.6,332.8 L202.9,328.9 L199.0,325.4 L202.7,312.3 L205.8,307.7 L205.1,304.5 L202.3,302.3 L197.7,306.6 L190.4,306.8 L187.5,306.0 L190.5,300.0 L189.6,297.3 L193.4,294.1 L194.9,289.8 L192.0,282.9 L194.6,283.6 L196.0,277.9 L192.7,274.3 L196.0,271.5 L193.7,267.4 L191.6,266.7 L188.6,262.6 L182.3,262.2 L180.0,258.1 L175.1,259.7 L172.4,259.1 L169.6,254.9 L174.3,249.5 L172.0,248.5 L172.5,245.0 L164.9,240.8 L161.2,239.7 L157.7,241.0 L151.1,236.4 L148.3,238.2 L145.5,235.7 L142.2,235.9 L141.7,233.5 L134.8,233.4 L133.3,236.6 L130.1,236.3 L128.6,233.7 L124.1,232.1 L120.9,233.2 L115.7,230.5 L97.9,219.4 L21.3,195.4 L21.5,192.9 L19.1,188.3 L18.5,184.6 L13.8,176.5 L11.4,177.0 L7.4,175.3 L6.4,171.3 L1.7,173.4 L0.0,169.6 L1.4,166.8 L4.4,165.2 L9.9,164.5 L13.9,162.2 L27.3,158.4 L30.5,156.6 L44.6,144.4 L47.6,142.9 L77.2,140.2 L84.0,137.2 L90.1,132.7 L97.4,125.4 L102.6,126.3 L109.5,124.3 L115.8,114.0 L118.4,112.6 L131.1,102.1 L134.6,101.3 L135.3,103.7 L134.5,110.6 L136.1,112.3 L141.8,113.5 L143.8,116.2 L142.5,121.5 L147.1,125.0 L148.5,129.2 L145.1,143.6 L146.8,149.2 L145.6,151.7 L152.3,143.0 L152.1,141.1 L155.8,140.2 L163.7,133.5 L168.3,130.6 L170.5,130.8 L167.5,134.8 L163.3,136.9 L158.9,145.3 L160.7,144.7 L166.3,137.1 L176.4,135.1 L188.3,136.3 L196.2,138.6 L199.7,140.7 L201.0,143.6 L205.0,144.1 L206.2,147.5 L208.5,146.5 L210.8,153.4 L215.9,159.7 L217.6,163.4 L220.4,166.0 L221.0,168.6 L225.7,170.9 L226.3,177.2 L229.3,180.5 L238.4,182.1 L241.6,180.4 L247.0,181.0 L249.2,178.0 L254.7,176.5 L257.5,178.0 L260.5,183.6 L263.0,184.1 L264.1,186.7 L269.5,185.5 L273.2,182.2 L277.6,186.5 L281.3,186.9 L280.8,189.0 L285.6,186.0 L289.2,180.5 L293.5,176.4 L297.4,175.4 L300.3,172.8 L308.8,168.9 L318.9,161.3 L323.0,162.9 L335.3,160.2 L337.3,158.9 L365.4,161.4 L368.9,160.7 L382.3,153.4 L389.2,151.0 L394.9,150.4 L401.2,151.0 L407.6,149.3 L403.2,156.2 L402.2,168.9 L403.3,172.5 L400.6,177.0 L404.3,181.3 L408.8,179.6 L411.2,181.9 L417.3,184.5 L420.9,184.4 L430.5,179.5 L435.3,184.1 L434.7,186.4 L437.3,187.8 L444.2,184.4 L448.2,179.1 L454.0,178.1 L457.7,179.6 L460.6,178.7 L462.6,175.0 L469.8,175.2 L471.3,177.9 L469.0,187.3 L471.1,196.6 L466.9,194.6 L463.4,194.3 L464.3,200.7 L467.2,205.4 L465.4,205.7 L461.4,209.9 L464.6,213.9 L466.3,212.2 L472.1,212.7 L473.2,214.9 L478.9,216.1 L477.1,219.8 L477.5,222.2 L481.6,227.0 L485.6,227.9 L489.8,230.6 L489.0,235.1 L480.1,236.1 L464.8,233.5 L459.9,233.9 L456.5,232.5 L454.8,234.1 L451.6,232.3 L447.4,231.9 L446.5,235.1 L444.4,232.9 L441.7,234.5 L440.7,230.7 L438.0,228.5 L436.5,229.5 L431.9,227.8 L430.4,229.2 L429.7,234.9 L426.7,239.1 L427.4,246.7 L426.7,249.5 L419.8,247.2 L417.6,243.3 L412.8,241.3 L410.3,237.5 L404.5,231.9 L397.2,229.8 L393.2,227.4 L386.3,226.9 L380.3,223.3 L378.0,224.9 L375.4,222.8 L372.4,224.3 L366.3,223.9 L364.8,224.8 L356.3,237.3 L346.6,237.2 L338.5,238.5 L336.6,241.0 L336.9,243.5 L332.4,240.8 L324.7,238.9 L311.8,241.1 L308.3,244.2 L305.8,248.9 L302.7,257.2 L298.7,258.0 L297.1,260.3 L291.3,262.1 L290.4,265.9 L288.0,266.8 L285.4,272.2 L283.9,272.5 L284.8,278.3 L283.3,278.6 L278.8,274.9 L277.1,271.8 L279.8,268.1 L283.4,259.7 L288.1,260.3 L287.9,257.8 L290.4,250.6 L287.8,248.0 L283.5,250.0 L279.7,253.5 L275.1,250.7 L272.0,251.0 L271.7,254.4 L266.1,265.5 L258.9,268.2 L257.9,270.0 L256.2,266.7 L256.7,259.7 L255.1,255.6 L257.7,248.5 L257.5,244.8 L255.3,246.3 L253.9,251.8 L251.0,256.1 L249.4,265.2 L248.1,268.9 L242.1,272.3 L239.1,278.6 L233.8,286.3 L232.5,291.5 L230.3,294.1 L229.0,298.9 L212.4,323.9 L209.1,325.8 Z M471.9,201.8 L472.1,205.6 L470.0,206.9 L465.5,201.0 L466.4,196.6 L468.4,196.5 Z M323.9,343.0 L322.6,344.2 L320.5,341.7 L322.1,338.4 L326.1,339.3 Z M333.9,334.8 L331.7,336.2 L329.7,334.5 L327.1,328.9 L330.2,326.0 L333.9,329.7 L332.9,333.7 Z M344.7,299.0 L343.6,300.3 L340.2,294.6 L341.4,294.3 Z M366.5,278.9 L361.4,279.2 L359.7,277.2 L361.9,268.6 L364.6,262.8 L364.7,259.4 L369.9,260.8 L368.6,262.2 L370.1,274.9 Z M452.1,254.9 L455.5,256.4 L453.5,260.7 L451.3,262.2 L445.7,261.2 L438.3,253.9 L440.0,252.7 L449.7,255.0 L450.6,252.1 Z M371.3,255.5 L370.0,257.5 L367.4,254.9 L367.7,252.6 Z M453.2,234.1 L456.0,237.8 L449.7,236.5 L450.6,232.7 Z M514.3,222.6 L515.8,227.6 L520.9,230.0 L518.4,237.2 L514.9,238.7 L506.0,236.1 L503.7,238.1 L501.2,236.8 L496.8,237.7 L492.6,232.8 L490.2,232.8 L491.7,229.0 L496.4,231.8 L498.3,229.3 L504.4,226.4 L505.5,222.9 L502.6,219.9 L509.5,219.4 Z M282.3,182.4 L285.1,182.6 L284.9,185.2 L279.5,185.0 L277.8,176.5 L281.8,175.1 L283.8,178.7 Z M201.8,81.1 L202.7,82.8 L198.4,84.6 L189.2,83.6 L185.1,84.8 L180.5,84.9 L179.5,86.2 L185.5,89.3 L180.8,93.1 L177.2,94.8 L175.9,97.3 L172.5,99.1 L168.5,103.6 L165.6,103.9 L163.6,107.1 L164.1,111.3 L160.4,112.2 L159.3,115.1 L156.5,116.5 L153.4,123.3 L149.8,128.0 L145.7,121.2 L147.1,117.7 L150.0,115.2 L152.0,105.9 L148.0,110.0 L150.0,113.7 L145.7,115.4 L143.3,112.4 L136.6,111.8 L135.7,110.4 L136.9,101.1 L142.8,96.4 L150.0,86.9 L158.4,82.2 L161.0,80.1 L163.5,80.9 L166.4,78.4 L171.8,76.3 L178.0,75.2 L195.1,75.5 L199.3,77.6 Z M146.3,0.2 L149.3,0.0 L146.4,3.0 L141.0,6.2 L139.3,8.4 L139.8,11.7 L132.7,17.2 L113.5,24.8 L109.4,28.4 L115.9,28.6 L112.0,29.9 L99.4,35.6 L96.1,35.2 L93.8,32.1 L94.9,29.6 L98.5,26.7 L94.7,27.8 L94.0,26.6 L100.8,21.6 L111.2,16.3 L125.6,10.0 L131.4,5.2 L131.4,6.8 L136.9,2.4 L141.4,2.5 Z M296.1,453.7 L293.2,447.6 L294.1,444.8 L299.7,439.9 L302.9,433.4 L306.8,422.9 L312.1,412.2 L313.1,407.5 L312.0,404.0 L312.3,399.1 L314.5,389.3 L313.9,384.0 L311.7,378.2 L312.8,375.5 L319.6,371.3 L324.5,371.7 L325.4,367.9 L326.3,353.4 L333.0,352.6 L337.0,346.0 L343.9,349.6 L346.0,347.8 L350.3,337.2 L355.4,331.5 L359.2,323.7 L367.0,320.6 L365.3,325.8 L362.3,328.2 L362.3,331.4 L364.3,337.1 L361.0,341.2 L359.4,345.6 L362.6,346.2 L362.4,349.3 L358.5,359.6 L361.0,366.0 L362.4,366.9 L365.1,356.8 L367.4,354.4 L365.3,353.6 L367.6,350.8 L368.8,343.9 L370.8,343.5 L371.9,346.9 L370.0,356.7 L367.3,360.6 L365.7,366.9 L368.3,368.1 L373.2,358.9 L376.5,351.1 L378.7,342.4 L379.6,332.5 L377.7,318.9 L378.2,314.8 L382.5,309.2 L394.6,302.3 L397.9,301.6 L408.9,301.4 L412.7,299.9 L414.5,296.9 L406.1,295.3 L402.3,292.0 L399.5,286.0 L399.4,278.0 L400.9,274.6 L407.5,268.9 L411.0,262.9 L407.2,259.2 L420.2,259.6 L423.8,255.8 L426.5,255.7 L429.0,257.9 L439.1,262.9 L445.1,268.0 L448.2,269.1 L458.8,268.4 L466.1,271.5 L472.0,278.2 L472.8,281.8 L476.3,286.1 L488.0,286.0 L491.5,287.8 L495.8,292.2 L501.7,294.0 L505.4,293.9 L509.0,297.6 L514.5,299.5 L521.6,300.1 L525.1,302.1 L531.7,308.3 L529.9,312.8 L534.2,319.9 L537.0,320.8 L538.6,327.8 L538.0,330.7 L541.8,333.9 L536.5,333.3 L532.9,329.9 L528.8,331.6 L527.2,339.0 L529.3,343.7 L536.7,350.0 L539.6,356.3 L541.9,370.3 L540.2,379.0 L540.5,391.2 L533.4,391.5 L496.4,393.3 L458.6,394.8 L451.2,394.7 L407.7,395.9 L385.1,396.2 L346.8,396.8 L347.1,434.5 L329.9,434.4 L330.3,453.6 L299.1,453.6 L299.0,450.5 Z">
  <desc xmlns="http://www.highcharts.com/svg/namespace">
    <geoid>2601</geoid>
    <name>Congressional District 1</name>
    <hc-middle-x>0.33</hc-middle-x>
    <hc-middle-y>0.44</hc-middle-y>
    <hc-key>us-mi-01</hc-key>
    <hc-a2>CD</hc-a2>
  </desc>
</path>

<path fill="#CEE3F5" stroke="#6E6E6E" stroke-width="0.4" id="US.MI.12" d="M565.9,650.7 L563.9,651.4 L565.0,642.0 L565.6,641.3 Z M532.4,626.0 L533.1,635.4 L542.5,634.7 L543.1,643.9 L552.6,643.3 L551.9,633.9 L553.8,632.4 L553.4,627.5 L560.7,626.2 L560.6,624.6 L564.5,624.3 L565.3,630.0 L561.8,630.6 L560.6,632.8 L563.3,633.9 L565.3,636.8 L561.7,655.5 L563.2,659.4 L563.1,659.4 L562.0,658.7 L561.8,658.5 L561.8,658.6 L555.4,654.6 L553.8,652.7 L543.7,653.2 L543.8,653.8 L534.2,654.5 L533.6,644.9 L516.6,646.0 L514.6,644.1 L514.2,636.8 L509.5,637.1 L509.0,627.8 Z">
  <desc xmlns="http://www.highcharts.com/svg/namespace">
    <geoid>2612</geoid>
    <name>Congressional District 12</name>
    <hc-middle-x>0.18</hc-middle-x>
    <hc-middle-y>0.29</hc-middle-y>
    <hc-key>us-mi-12</hc-key>
    <hc-a2>CD</hc-a2>
  </desc>
</path>

<path fill="#CEE3F5" stroke="#6E6E6E" stroke-width="0.4" id="US.MI.14" d="M572.0,626.2 L571.5,626.7 L568.4,630.9 L566.8,629.4 L568.2,626.4 Z M586.1,612.5 L584.9,617.8 L581.2,622.0 L573.1,625.1 L574.1,623.1 L579.2,620.1 L577.3,617.5 L572.7,619.0 L571.8,621.0 L568.8,616.9 L564.7,617.2 L564.9,619.6 L560.2,619.9 L559.5,614.5 L550.5,615.2 L546.4,615.5 L547.1,612.2 L544.8,613.2 L545.8,615.5 L541.1,615.9 L540.1,602.8 L544.4,598.2 L546.2,598.5 L548.9,594.9 L548.4,589.0 L554.5,588.6 L555.1,595.7 L551.5,597.0 L549.0,596.1 L549.9,608.1 L559.2,606.6 L559.4,609.7 L563.2,611.0 L563.7,614.1 Z">
  <desc xmlns="http://www.highcharts.com/svg/namespace">
    <geoid>2614</geoid>
    <name>Congressional District 14</name>
    <hc-middle-x>0.08</hc-middle-x>
    <hc-middle-y>0.46</hc-middle-y>
    <hc-key>us-mi-14</hc-key>
    <hc-a2>CD</hc-a2>
  </desc>
</path>

<path fill="#CEE3F5" stroke="#6E6E6E" stroke-width="0.4" id="US.MI.13" d="M550.5,615.2 L559.5,614.5 L560.2,619.9 L564.9,619.6 L564.7,617.2 L568.8,616.9 L571.8,621.0 L572.7,619.0 L577.3,617.5 L579.2,620.1 L574.1,623.1 L573.1,625.1 L573.0,625.1 L572.0,626.2 L568.2,626.4 L566.8,629.4 L568.4,630.9 L566.7,633.3 L565.3,636.8 L563.3,633.9 L560.6,632.8 L561.8,630.6 L565.3,630.0 L564.5,624.3 L560.6,624.6 L560.7,626.2 L553.4,627.5 L553.8,632.4 L551.9,633.9 L552.6,643.3 L543.1,643.9 L542.5,634.7 L541.8,625.2 L551.2,624.5 Z">
  <desc xmlns="http://www.highcharts.com/svg/namespace">
    <geoid>2613</geoid>
    <name>Congressional District 13</name>
    <hc-middle-x>0.68</hc-middle-x>
    <hc-middle-y>0.23</hc-middle-y>
    <hc-key>us-mi-13</hc-key>
    <hc-a2>CD</hc-a2>
  </desc>
</path>

<path fill="#CEE3F5" stroke="#6E6E6E" stroke-width="0.4" id="US.MI.10" d="M514.8,489.9 L519.5,488.3 L525.8,479.8 L528.3,477.8 L530.9,479.3 L533.5,472.5 L537.1,467.0 L538.1,462.5 L542.0,457.3 L536.5,455.3 L543.4,454.0 L549.1,447.5 L554.7,447.0 L561.0,444.2 L564.9,439.9 L569.9,437.7 L573.4,437.5 L582.4,441.8 L588.0,446.4 L592.5,452.7 L594.1,458.1 L597.2,464.3 L603.4,494.8 L606.4,503.0 L609.0,521.8 L614.0,540.4 L618.6,548.7 L619.7,553.7 L616.6,559.5 L615.2,572.2 L616.7,577.2 L613.8,587.9 L613.0,594.4 L606.8,600.9 L603.9,600.4 L606.4,597.6 L604.1,595.5 L603.3,591.1 L604.1,586.6 L598.1,584.7 L593.4,588.9 L589.6,590.6 L589.7,592.8 L593.2,596.1 L592.3,598.0 L586.2,601.0 L586.4,593.1 L577.1,593.8 L575.7,598.8 L572.6,597.6 L573.0,602.3 L571.5,602.4 L571.0,597.7 L567.9,598.0 L567.7,595.8 L567.6,594.6 L565.4,566.1 L537.6,568.6 L537.5,568.2 L536.3,549.9 L534.9,521.9 L530.3,522.1 L530.1,519.0 L527.2,519.1 L528.2,512.9 L525.2,513.1 L524.2,494.5 L515.0,494.8 Z">
  <desc xmlns="http://www.highcharts.com/svg/namespace">
    <geoid>2610</geoid>
    <name>Congressional District 10</name>
    <hc-middle-x>0.52</hc-middle-x>
    <hc-middle-y>0.48</hc-middle-y>
    <hc-key>us-mi-10</hc-key>
    <hc-a2>CD</hc-a2>
  </desc>
</path>

<path fill="#CEE3F5" stroke="#6E6E6E" stroke-width="0.4" id="US.MI.05" d="M496.4,393.3 L533.4,391.5 L540.5,391.2 L540.4,406.8 L538.6,411.0 L535.7,411.5 L530.2,419.1 L531.1,416.1 L527.9,416.2 L525.0,418.5 L523.5,422.4 L522.6,436.1 L521.2,440.7 L514.6,442.8 L513.4,447.3 L510.2,446.7 L507.3,448.3 L503.6,447.7 L500.4,449.4 L498.5,452.9 L496.0,461.4 L497.4,462.7 L495.6,465.8 L495.8,471.1 L494.6,474.9 L495.2,478.0 L498.4,482.8 L505.8,486.6 L514.8,489.9 L515.0,494.8 L524.2,494.5 L525.2,513.1 L528.2,512.9 L527.2,519.1 L530.1,519.0 L530.3,522.1 L534.9,521.9 L536.3,549.9 L537.5,568.2 L537.6,568.6 L518.8,569.9 L519.4,579.4 L500.6,580.4 L499.3,562.2 L498.1,532.9 L516.8,532.1 L515.8,513.5 L506.4,513.9 L507.0,523.2 L488.3,523.8 L488.0,518.2 L493.9,515.3 L488.2,512.6 L488.2,509.7 L490.6,508.4 L490.5,505.0 L496.8,504.8 L498.2,500.1 L487.5,500.4 L487.4,495.7 L478.1,495.8 L476.1,431.6 L498.1,430.9 L497.5,413.2 Z">
  <desc xmlns="http://www.highcharts.com/svg/namespace">
    <geoid>2605</geoid>
    <name>Congressional District 5</name>
    <hc-middle-x>0.64</hc-middle-x>
    <hc-middle-y>0.82</hc-middle-y>
    <hc-key>us-mi-05</hc-key>
    <hc-a2>CD</hc-a2>
  </desc>
</path>

<path fill="#CEE3F5" stroke="#6E6E6E" stroke-width="0.4" id="US.MI.11" d="M567.6,594.6 L567.7,595.8 L567.9,598.0 L568.4,604.3 L555.5,605.3 L556.0,602.3 L554.1,602.3 L553.8,598.3 L556.9,598.1 L557.2,602.1 L558.8,602.2 L558.2,595.4 L555.1,595.7 L554.5,588.6 L548.4,589.0 L548.9,594.9 L546.2,598.5 L544.4,598.2 L540.1,602.8 L541.1,615.9 L545.8,615.5 L544.8,613.2 L547.1,612.2 L546.4,615.5 L550.5,615.2 L551.2,624.5 L541.8,625.2 L542.5,634.7 L533.1,635.4 L532.4,626.0 L531.7,616.7 L522.6,617.5 L520.1,588.9 L557.4,585.8 L558.0,592.9 L561.2,592.7 L562.1,595.1 Z">
  <desc xmlns="http://www.highcharts.com/svg/namespace">
    <geoid>2611</geoid>
    <name>Congressional District 11</name>
    <hc-middle-x>0.31</hc-middle-x>
    <hc-middle-y>0.24</hc-middle-y>
    <hc-key>us-mi-11</hc-key>
    <hc-a2>CD</hc-a2>
  </desc>
</path>

<path fill="#CEE3F5" stroke="#6E6E6E" stroke-width="0.4" id="US.MI.09" d="M555.1,595.7 L558.2,595.4 L558.8,602.2 L557.2,602.1 L556.9,598.1 L553.8,598.3 L554.1,602.3 L556.0,602.3 L555.5,605.3 L568.4,604.3 L567.9,598.0 L571.0,597.7 L571.5,602.4 L573.0,602.3 L572.6,597.6 L575.7,598.8 L577.1,593.8 L586.4,593.1 L586.2,601.0 L584.9,607.7 L586.1,612.5 L563.7,614.1 L563.2,611.0 L559.4,609.7 L559.2,606.6 L549.9,608.1 L549.0,596.1 L551.5,597.0 Z">
  <desc xmlns="http://www.highcharts.com/svg/namespace">
    <geoid>2609</geoid>
    <name>Congressional District 9</name>
    <hc-middle-x>0.88</hc-middle-x>
    <hc-middle-y>0.48</hc-middle-y>
    <hc-key>us-mi-09</hc-key>
    <hc-a2>CD</hc-a2>
  </desc>
</path>

<path fill="#CEE3F5" stroke="#6E6E6E" stroke-width="0.4" id="US.MI.07" d="M393.3,678.3 L392.8,660.3 L392.8,660.3 L430.5,659.3 L439.9,659.3 L438.8,640.2 L438.2,621.3 L409.9,622.0 L408.9,593.7 L408.8,584.2 L427.7,583.8 L437.1,583.6 L446.4,583.4 L447.7,621.0 L466.5,620.2 L500.2,619.1 L522.6,617.5 L531.7,616.7 L532.4,626.0 L509.0,627.8 L509.5,637.1 L514.2,636.8 L514.6,644.1 L516.6,646.0 L533.6,644.9 L534.2,654.5 L543.8,653.8 L543.7,653.2 L553.8,652.7 L555.4,654.6 L561.8,658.6 L560.3,663.2 L556.7,664.7 L557.4,669.9 L553.4,670.0 L551.5,675.3 L548.8,676.4 L545.0,683.9 L544.9,688.9 L541.9,689.5 L541.8,692.4 L482.9,696.9 L433.2,700.0 L433.0,693.1 L393.6,694.0 Z M563.2,659.4 L563.7,660.7 L562.0,658.7 L563.1,659.4 Z">
  <desc xmlns="http://www.highcharts.com/svg/namespace">
    <geoid>2607</geoid>
    <name>Congressional District 7</name>
    <hc-middle-x>0.49</hc-middle-x>
    <hc-middle-y>0.70</hc-middle-y>
    <hc-key>us-mi-07</hc-key>
    <hc-a2>CD</hc-a2>
  </desc>
</path>

<path fill="#CEE3F5" stroke="#6E6E6E" stroke-width="0.4" id="US.MI.08" d="M567.6,594.6 L562.1,595.1 L561.2,592.7 L558.0,592.9 L557.4,585.8 L520.1,588.9 L522.6,617.5 L500.2,619.1 L466.5,620.2 L447.7,621.0 L446.4,583.4 L465.5,582.8 L465.4,582.2 L481.8,581.5 L500.6,580.4 L519.4,579.4 L518.8,569.9 L537.6,568.6 L565.4,566.1 Z">
  <desc xmlns="http://www.highcharts.com/svg/namespace">
    <geoid>2608</geoid>
    <name>Congressional District 8</name>
    <hc-middle-x>0.31</hc-middle-x>
    <hc-middle-y>0.63</hc-middle-y>
    <hc-key>us-mi-08</hc-key>
    <hc-a2>CD</hc-a2>
  </desc>
</path>

<path fill="#CEE3F5" stroke="#6E6E6E" stroke-width="0.4" id="US.MI.02" d="M318.3,586.0 L317.5,586.1 L317.1,564.8 L313.7,554.1 L313.0,549.8 L308.5,536.9 L311.0,535.7 L314.2,531.7 L308.7,533.5 L306.2,533.1 L294.3,502.7 L291.2,493.2 L292.8,485.4 L297.1,479.8 L299.9,472.4 L298.1,457.4 L296.1,453.7 L299.0,450.5 L299.1,453.6 L330.3,453.6 L329.9,434.4 L347.1,434.5 L367.1,434.1 L367.8,461.0 L368.9,528.4 L350.9,528.8 L351.5,557.2 L361.6,557.2 L360.7,560.4 L355.1,559.6 L354.5,563.5 L357.2,564.3 L357.3,566.7 L362.9,570.2 L363.1,572.9 L366.2,572.8 L365.6,570.1 L369.1,569.7 L368.2,566.6 L370.5,566.6 L371.1,575.9 L352.2,576.0 L352.4,585.6 L324.9,585.9 L325.8,587.4 L329.3,586.5 L329.8,589.6 L325.4,589.8 L324.1,585.9 Z">
  <desc xmlns="http://www.highcharts.com/svg/namespace">
    <geoid>2602</geoid>
    <name>Congressional District 2</name>
    <hc-middle-x>0.57</hc-middle-x>
    <hc-middle-y>0.41</hc-middle-y>
    <hc-key>us-mi-02</hc-key>
    <hc-a2>CD</hc-a2>
  </desc>
</path>

<path fill="#CEE3F5" stroke="#6E6E6E" stroke-width="0.4" id="US.MI.03" d="M352.4,585.6 L352.2,576.0 L371.1,575.9 L370.5,566.6 L368.2,566.6 L369.1,569.7 L365.6,570.1 L366.2,572.8 L363.1,572.9 L362.9,570.2 L357.3,566.7 L357.2,564.3 L354.5,563.5 L355.1,559.6 L360.7,560.4 L361.6,557.2 L351.5,557.2 L350.9,528.8 L368.9,528.4 L388.7,528.0 L388.9,537.5 L391.9,538.3 L391.3,542.2 L395.2,542.1 L395.2,537.4 L398.3,537.3 L398.5,546.7 L426.8,546.1 L427.7,583.8 L408.8,584.2 L408.9,593.7 L409.9,622.0 L438.2,621.3 L438.8,640.2 L439.9,659.3 L430.5,659.3 L392.8,660.3 L391.6,622.6 L372.1,622.8 L371.2,585.3 Z">
  <desc xmlns="http://www.highcharts.com/svg/namespace">
    <geoid>2603</geoid>
    <name>Congressional District 3</name>
    <hc-middle-x>0.44</hc-middle-x>
    <hc-middle-y>0.42</hc-middle-y>
    <hc-key>us-mi-03</hc-key>
    <hc-a2>CD</hc-a2>
  </desc>
</path>

<path fill="#CEE3F5" stroke="#6E6E6E" stroke-width="0.4" id="US.MI.06" d="M352.4,585.6 L371.2,585.3 L372.1,622.8 L391.6,622.6 L392.8,660.3 L393.3,678.3 L393.6,694.0 L363.9,694.6 L327.5,694.9 L284.4,695.3 L268.2,695.3 L273.0,691.2 L277.9,688.3 L283.1,682.7 L287.4,675.8 L296.2,655.3 L305.2,641.6 L311.2,626.2 L313.5,623.8 L315.6,616.0 L317.2,605.2 L316.9,600.3 L318.5,594.2 L318.3,586.0 L324.1,585.9 L325.4,589.8 L329.8,589.6 L329.3,586.5 L325.8,587.4 L324.9,585.9 Z">
  <desc xmlns="http://www.highcharts.com/svg/namespace">
    <geoid>2606</geoid>
    <name>Congressional District 6</name>
    <hc-middle-x>0.64</hc-middle-x>
    <hc-middle-y>0.62</hc-middle-y>
    <hc-key>us-mi-06</hc-key>
    <hc-a2>CD</hc-a2>
  </desc>
</path>

<path fill="#CEE3F5" stroke="#6E6E6E" stroke-width="0.4" id="US.MI.04" d="M446.4,583.4 L437.1,583.6 L427.7,583.8 L426.8,546.1 L398.5,546.7 L398.3,537.3 L395.2,537.4 L395.2,542.1 L391.3,542.2 L391.9,538.3 L388.9,537.5 L388.7,528.0 L368.9,528.4 L367.8,461.0 L367.1,434.1 L347.1,434.5 L346.8,396.8 L385.1,396.2 L407.7,395.9 L451.2,394.7 L458.6,394.8 L496.4,393.3 L497.5,413.2 L498.1,430.9 L476.1,431.6 L478.1,495.8 L487.4,495.7 L487.5,500.4 L498.2,500.1 L496.8,504.8 L490.5,505.0 L490.6,508.4 L488.2,509.7 L488.2,512.6 L493.9,515.3 L488.0,518.2 L488.3,523.8 L507.0,523.2 L506.4,513.9 L515.8,513.5 L516.8,532.1 L498.1,532.9 L499.3,562.2 L500.6,580.4 L481.8,581.5 L465.4,582.2 L465.5,582.8 Z">
  <desc xmlns="http://www.highcharts.com/svg/namespace">
    <geoid>2604</geoid>
    <name>Congressional District 4</name>
    <hc-middle-x>0.45</hc-middle-x>
    <hc-middle-y>0.41</hc-middle-y>
    <hc-key>us-mi-04</hc-key>
    <hc-a2>CD</hc-a2>
  </desc>
</path>
</g>

<text x="350" y="714" text-anchor="middle" font-family="Verdana" font-size="8" stroke-opacity="0.6">Copyright (c) 2014 Highsoft AS, Based on data from The United States Census Bureau</text>

</svg>