<?xml version="1.0" encoding="utf-8" standalone="no"?>
<!DOCTYPE svg PUBLIC "-//W3C//DTD SVG 1.1//EN" "http://www.w3.org/Graphics/SVG/1.1/DTD/svg11.dtd">

<svg version="1.1" height="700pt" width="700pt" xmlns="http://www.w3.org/2000/svg" xmlns:xlink="http://www.w3.org/1999/xlink">
<desc>
Map version: 1.1.1
Copyright (c) 2014 Highsoft AS, Based on data from The United States Census Bureau
</desc>
<title>Oregon congressional districts</title>
<g id="special">

<g id="US.OR">
  <desc xmlns="http://www.highcharts.com/svg/namespace">
    <labelrank>0</labelrank>
    <hasc>US.OR</hasc>
    <alt-name>OR|Ore.</alt-name>
    <woe-id>2347596</woe-id>
    <subregion>Pacific</subregion>
    <fips>US41</fips>
    <postal-code>OR</postal-code>
    <name>Oregon</name>
    <country>United States of America</country>
    <type-en>State</type-en>
    <region>West</region>
    <longitude>-120.386</longitude>
    <woe-name>Oregon</woe-name>
    <latitude>43.8333</latitude>
    <woe-label>Oregon, US, United States</woe-label>
    <type>State</type>
    <hc-key>us-or</hc-key>
    <hc-a2>OR</hc-a2>
  </desc>
</g>

<g id="US">
  <desc xmlns="http://www.highcharts.com/svg/namespace">
    <name>United States of America</name>
    <labelrank>2</labelrank>
    <country-abbrev>U.S.A.</country-abbrev>
    <subregion>Northern America</subregion>
    <woe-id>23424977</woe-id>
    <region-wb>North America</region-wb>
    <iso-a3>USA</iso-a3>
    <iso-a2>US</iso-a2>
    <region-un>Americas</region-un>
    <continent>North America</continent>
    <hc-key>us</hc-key>
    <hc-a2>US</hc-a2>
  </desc>
</g>

<path fill="#CEE3F5" stroke="#6E6E6E" stroke-width="0.4" id="US.OR.04" d="M118.1,517.3 L107.5,517.9 L82.3,517.6 L79.3,518.2 L28.5,517.3 L21.4,511.3 L15.5,503.0 L13.9,489.9 L10.9,486.4 L11.3,480.6 L9.3,476.5 L10.7,456.8 L13.2,447.6 L11.6,435.8 L8.1,432.8 L6.5,427.4 L3.6,426.6 L0.0,413.2 L5.2,403.0 L9.6,390.9 L15.3,362.5 L14.1,356.7 L16.4,353.0 L22.5,351.3 L27.6,343.8 L30.3,342.9 L31.0,349.1 L37.5,349.1 L33.4,347.1 L32.5,339.6 L25.4,343.3 L21.0,350.4 L29.1,328.0 L31.8,314.6 L35.0,312.6 L39.2,303.4 L36.3,304.9 L32.5,311.7 L35.0,301.7 L37.4,287.2 L38.6,274.9 L40.4,272.0 L39.2,267.3 L41.8,238.9 L71.1,238.4 L71.1,234.4 L67.5,234.5 L67.5,230.9 L74.7,230.9 L76.5,229.1 L76.1,220.2 L86.9,220.3 L87.1,193.6 L86.7,185.1 L112.9,185.4 L123.2,195.7 L130.1,195.3 L132.8,193.1 L129.0,190.7 L126.1,184.9 L126.8,181.9 L135.5,183.2 L138.6,189.5 L143.0,185.3 L156.4,176.7 L163.1,176.4 L166.1,178.6 L172.2,176.9 L184.5,180.9 L201.2,181.1 L206.3,187.8 L214.2,184.4 L223.5,189.1 L244.4,189.0 L243.0,197.3 L244.4,200.5 L243.4,209.5 L240.2,212.6 L241.0,237.8 L245.6,242.3 L247.6,260.3 L240.4,276.8 L239.1,283.5 L234.6,283.3 L229.8,290.3 L231.2,301.7 L229.5,304.2 L229.1,314.2 L230.8,318.3 L216.4,327.1 L215.2,341.2 L219.9,342.7 L227.5,353.2 L227.6,359.3 L230.8,363.1 L225.2,368.6 L220.6,385.9 L222.2,386.9 L203.5,387.1 L203.6,395.8 L193.0,395.9 L187.7,402.8 L178.7,403.0 L178.7,404.8 L168.2,410.1 L162.9,417.2 L159.4,416.6 L157.7,422.6 L143.6,423.2 L138.3,425.9 L125.5,425.4 L118.4,431.0 L118.5,457.2 L112.3,455.5 L104.6,456.9 L102.4,460.0 L101.3,466.8 L98.3,471.6 L103.2,474.9 L111.1,475.6 L118.3,482.3 Z">
  <desc xmlns="http://www.highcharts.com/svg/namespace">
    <geoid>4104</geoid>
    <name>Congressional District 4</name>
    <hc-middle-x>0.48</hc-middle-x>
    <hc-middle-y>0.43</hc-middle-y>
    <hc-key>us-or-04</hc-key>
    <hc-a2>CD</hc-a2>
  </desc>
</path>

<path fill="#CEE3F5" stroke="#6E6E6E" stroke-width="0.4" id="US.OR.03" d="M159.6,70.9 L167.1,75.6 L184.3,80.3 L187.4,82.1 L192.4,80.6 L196.6,83.9 L202.2,84.4 L209.2,80.2 L216.4,79.3 L231.6,71.2 L233.1,86.9 L241.8,94.9 L244.7,101.1 L251.5,104.6 L250.8,108.7 L253.0,114.8 L253.0,122.3 L247.6,125.0 L248.9,129.5 L247.3,128.3 L225.5,128.6 L225.2,118.8 L220.8,119.1 L217.9,114.7 L214.5,114.4 L214.5,119.9 L202.9,122.5 L203.7,129.9 L199.8,131.8 L187.0,130.0 L182.6,131.6 L175.7,125.9 L176.9,114.4 L179.9,110.5 L175.5,105.0 L179.6,102.9 L178.9,98.2 L181.0,94.7 L168.3,95.1 L169.4,98.2 L161.6,96.9 L164.3,89.9 L161.2,88.0 L167.2,86.1 L159.4,79.6 L157.1,75.3 Z">
  <desc xmlns="http://www.highcharts.com/svg/namespace">
    <geoid>4103</geoid>
    <name>Congressional District 3</name>
    <hc-middle-x>0.53</hc-middle-x>
    <hc-middle-y>0.49</hc-middle-y>
    <hc-key>us-or-03</hc-key>
    <hc-a2>CD</hc-a2>
  </desc>
</path>

<path fill="#CEE3F5" stroke="#6E6E6E" stroke-width="0.4" id="US.OR.02" d="M118.1,517.3 L118.3,482.3 L111.1,475.6 L103.2,474.9 L98.3,471.6 L101.3,466.8 L102.4,460.0 L104.6,456.9 L112.3,455.5 L118.5,457.2 L118.4,431.0 L125.5,425.4 L138.3,425.9 L143.6,423.2 L157.7,422.6 L159.4,416.6 L162.9,417.2 L168.2,410.1 L178.7,404.8 L178.7,403.0 L187.7,402.8 L193.0,395.9 L203.6,395.8 L203.5,387.1 L222.2,386.9 L220.6,385.9 L225.2,368.6 L230.8,363.1 L227.6,359.3 L227.5,353.2 L219.9,342.7 L215.2,341.2 L216.4,327.1 L230.8,318.3 L229.1,314.2 L229.5,304.2 L231.2,301.7 L229.8,290.3 L234.6,283.3 L239.1,283.5 L240.4,276.8 L247.6,260.3 L245.6,242.3 L241.0,237.8 L240.2,212.6 L243.4,209.5 L244.4,200.5 L243.0,197.3 L244.4,189.0 L243.4,183.5 L247.2,179.4 L242.6,177.1 L242.6,173.5 L246.7,172.3 L250.9,162.4 L246.9,157.7 L244.0,158.4 L242.8,149.0 L244.8,146.2 L250.3,145.6 L255.3,142.1 L254.7,135.6 L252.4,135.9 L248.9,129.5 L247.6,125.0 L253.0,122.3 L253.0,114.8 L250.8,108.7 L251.5,104.6 L244.7,101.1 L241.8,94.9 L233.1,86.9 L231.6,71.2 L236.2,65.7 L241.0,64.0 L247.6,65.5 L256.4,64.0 L264.8,61.2 L276.1,65.1 L281.6,63.5 L292.1,67.4 L295.0,75.3 L299.5,74.8 L303.4,70.0 L315.5,68.7 L319.7,70.2 L323.0,66.6 L337.1,60.8 L341.6,57.0 L348.1,57.7 L352.9,62.3 L361.6,62.1 L378.0,58.3 L381.3,53.7 L389.8,50.6 L398.6,45.5 L412.4,42.1 L423.7,40.5 L427.4,34.3 L431.7,31.7 L435.8,33.6 L449.4,31.4 L458.5,28.8 L469.7,29.1 L479.4,22.9 L481.1,20.3 L566.0,15.4 L657.6,9.6 L662.6,18.9 L669.1,25.3 L672.4,30.5 L678.0,29.6 L681.1,34.0 L687.2,33.9 L692.6,39.0 L693.1,44.2 L700.0,53.0 L698.8,57.7 L693.1,66.9 L693.7,72.3 L691.0,75.0 L684.8,91.2 L681.8,112.4 L678.1,117.5 L676.6,123.2 L672.6,128.1 L672.1,133.1 L674.8,139.0 L672.5,146.8 L667.2,157.9 L658.1,163.3 L654.3,173.5 L651.1,188.3 L644.7,196.4 L645.9,203.3 L643.8,207.2 L648.9,214.4 L646.4,219.1 L651.3,223.6 L656.9,220.6 L662.5,226.2 L668.6,224.3 L669.7,230.1 L675.5,231.5 L676.4,234.6 L673.6,241.5 L670.0,243.8 L670.5,247.9 L674.2,251.1 L671.1,264.4 L671.3,270.0 L668.1,271.4 L668.0,277.8 L683.7,498.8 L612.1,503.7 L549.3,507.6 L531.5,509.0 L484.8,511.0 L423.0,513.0 L384.4,514.8 L318.3,516.6 L269.2,516.9 L195.8,516.5 L172.5,517.2 Z">
  <desc xmlns="http://www.highcharts.com/svg/namespace">
    <geoid>4102</geoid>
    <name>Congressional District 2</name>
    <hc-middle-x>0.59</hc-middle-x>
    <hc-middle-y>0.53</hc-middle-y>
    <hc-key>us-or-02</hc-key>
    <hc-a2>CD</hc-a2>
  </desc>
</path>

<path fill="#CEE3F5" stroke="#6E6E6E" stroke-width="0.4" id="US.OR.01" d="M159.6,70.9 L157.1,75.3 L159.4,79.6 L167.2,86.1 L161.2,88.0 L164.3,89.9 L161.6,96.9 L161.3,110.5 L152.4,108.8 L150.6,112.4 L150.6,119.4 L143.7,118.5 L139.1,119.5 L139.3,123.8 L135.6,124.2 L139.1,131.0 L136.7,133.9 L139.5,136.9 L133.2,142.0 L71.2,141.5 L71.4,124.4 L99.1,124.6 L99.2,98.0 L101.1,87.3 L108.2,83.9 L108.2,80.3 L111.7,80.4 L113.5,76.9 L102.9,73.3 L97.6,68.0 L97.7,64.4 L108.3,64.5 L108.3,55.8 L77.6,56.4 L77.6,55.1 L56.4,54.9 L57.5,43.9 L54.7,36.0 L59.6,30.9 L60.5,26.7 L59.5,18.4 L55.1,3.9 L58.4,3.4 L65.5,9.0 L68.2,8.7 L71.2,16.0 L70.6,8.1 L65.7,5.7 L74.1,3.6 L77.4,7.8 L87.0,5.9 L95.1,0.0 L102.1,4.6 L106.4,11.0 L119.3,12.1 L125.0,5.8 L129.3,6.3 L147.3,18.7 L149.6,25.1 L155.0,33.7 L155.3,39.6 L157.5,45.1 L156.7,52.1 L159.7,61.4 Z">
  <desc xmlns="http://www.highcharts.com/svg/namespace">
    <geoid>4101</geoid>
    <name>Congressional District 1</name>
    <hc-middle-x>0.66</hc-middle-x>
    <hc-middle-y>0.50</hc-middle-y>
    <hc-key>us-or-01</hc-key>
    <hc-a2>CD</hc-a2>
  </desc>
</path>

<path fill="#CEE3F5" stroke="#6E6E6E" stroke-width="0.4" id="US.OR.05" d="M161.6,96.9 L169.4,98.2 L168.3,95.1 L181.0,94.7 L178.9,98.2 L179.6,102.9 L175.5,105.0 L179.9,110.5 L176.9,114.4 L175.7,125.9 L182.6,131.6 L187.0,130.0 L199.8,131.8 L203.7,129.9 L202.9,122.5 L214.5,119.9 L214.5,114.4 L217.9,114.7 L220.8,119.1 L225.2,118.8 L225.5,128.6 L247.3,128.3 L248.9,129.5 L252.4,135.9 L254.7,135.6 L255.3,142.1 L250.3,145.6 L244.8,146.2 L242.8,149.0 L244.0,158.4 L246.9,157.7 L250.9,162.4 L246.7,172.3 L242.6,173.5 L242.6,177.1 L247.2,179.4 L243.4,183.5 L244.4,189.0 L223.5,189.1 L214.2,184.4 L206.3,187.8 L201.2,181.1 L184.5,180.9 L172.2,176.9 L166.1,178.6 L163.1,176.4 L156.4,176.7 L143.0,185.3 L138.6,189.5 L135.5,183.2 L126.8,181.9 L126.1,184.9 L129.0,190.7 L132.8,193.1 L130.1,195.3 L123.2,195.7 L112.9,185.4 L86.7,185.1 L87.1,193.6 L86.9,220.3 L76.1,220.2 L76.5,229.1 L74.7,230.9 L67.5,230.9 L67.5,234.5 L71.1,234.4 L71.1,238.4 L41.8,238.9 L44.2,222.5 L44.3,211.9 L46.3,198.3 L50.8,199.5 L47.7,195.5 L46.1,188.5 L46.5,172.2 L50.8,160.8 L52.1,145.3 L51.2,144.0 L55.2,131.9 L54.8,124.2 L56.3,114.0 L52.8,109.4 L60.1,99.7 L55.6,95.4 L57.7,82.6 L58.4,89.6 L62.3,91.8 L62.2,82.2 L56.9,80.2 L58.7,69.1 L58.5,61.8 L55.1,56.8 L56.4,54.9 L77.6,55.1 L77.6,56.4 L108.3,55.8 L108.3,64.5 L97.7,64.4 L97.6,68.0 L102.9,73.3 L113.5,76.9 L111.7,80.4 L108.2,80.3 L108.2,83.9 L101.1,87.3 L99.2,98.0 L99.1,124.6 L71.4,124.4 L71.2,141.5 L133.2,142.0 L139.5,136.9 L136.7,133.9 L139.1,131.0 L135.6,124.2 L139.3,123.8 L139.1,119.5 L143.7,118.5 L150.6,119.4 L150.6,112.4 L152.4,108.8 L161.3,110.5 Z">
  <desc xmlns="http://www.highcharts.com/svg/namespace">
    <geoid>4105</geoid>
    <name>Congressional District 5</name>
    <hc-middle-x>0.60</hc-middle-x>
    <hc-middle-y>0.52</hc-middle-y>
    <hc-key>us-or-05</hc-key>
    <hc-a2>CD</hc-a2>
  </desc>
</path>
</g>

<text x="350" y="714" text-anchor="middle" font-family="Verdana" font-size="8" stroke-opacity="0.6">Copyright (c) 2014 Highsoft AS, Based on data from The United States Census Bureau</text>

</svg>