<?xml version="1.0" encoding="utf-8" standalone="no"?>
<!DOCTYPE svg PUBLIC "-//W3C//DTD SVG 1.1//EN" "http://www.w3.org/Graphics/SVG/1.1/DTD/svg11.dtd">

<svg version="1.1" height="700pt" width="700pt" xmlns="http://www.w3.org/2000/svg" xmlns:xlink="http://www.w3.org/1999/xlink">
<desc>
Map version: 1.1.1
Copyright (c) 2014 Highsoft AS, Based on data from Natural Earth
</desc>
<title>Greece</title>
<g id="admin1">

<g id="GR">
  <desc xmlns="http://www.highcharts.com/svg/namespace">
    <name>Greece</name>
    <labelrank>3</labelrank>
    <country-abbrev>Greece</country-abbrev>
    <subregion>Southern Europe</subregion>
    <woe-id>23424833</woe-id>
    <region-wb>Europe &amp; Central Asia</region-wb>
    <iso-a3>GRC</iso-a3>
    <iso-a2>GR</iso-a2>
    <region-un>Europe</region-un>
    <continent>Europe</continent>
    <hc-key>gr</hc-key>
    <hc-a2>GR</hc-a2>
  </desc>
</g>

<path fill="#CEE3F5" stroke="#6E6E6E" stroke-width="0.4" id="GR.AS" d="M602.7,631.8 L603.4,634.4 L599.4,635.3 L593.8,639.2 L590.4,637.3 L594.5,632.0 L596.5,632.6 L603.7,630.4 Z M650.2,550.4 L647.6,551.2 L642.4,551.0 L642.9,548.6 L650.2,548.1 Z M658.6,544.8 L657.4,547.4 L657.1,545.5 L656.9,543.7 Z M507.1,540.0 L506.4,541.4 L504.0,540.1 L500.7,541.1 L498.0,540.7 L496.9,538.5 L499.9,536.3 Z M613.3,517.5 L610.5,517.3 L610.2,513.6 L614.0,511.9 L615.8,514.7 Z M434.6,517.1 L431.3,517.2 L425.4,512.8 L424.6,510.9 L426.8,510.9 L433.3,515.0 Z M447.9,511.2 L445.0,513.6 L442.9,513.5 L445.9,507.3 L449.2,505.2 L452.4,505.3 L452.2,506.5 Z M409.9,502.5 L408.8,502.9 L405.8,499.5 L408.2,498.1 L410.4,500.1 Z M403.5,493.7 L405.8,494.7 L402.9,499.4 L399.7,498.4 L399.2,494.7 L402.0,493.0 Z M474.2,494.4 L471.4,493.6 L475.2,489.8 L475.8,493.3 Z M491.5,488.6 L486.2,488.3 L489.5,485.4 L492.3,487.4 Z M611.1,477.8 L612.2,481.2 L609.1,481.3 L606.8,478.8 Z M442.9,480.8 L442.5,481.7 L439.6,478.4 L440.0,475.1 L444.1,473.0 L442.0,479.9 Z M409.5,472.6 L412.1,474.6 L413.4,474.0 L417.2,478.9 L418.3,481.8 L414.0,487.1 L410.6,479.7 L411.1,477.5 L408.4,474.8 Z M605.8,467.6 L606.2,468.2 L603.9,468.0 L604.4,467.3 Z M503.4,463.9 L504.6,465.2 L501.3,466.7 L499.6,464.0 L503.9,462.5 Z M582.6,454.8 L585.2,455.5 L584.8,458.1 L586.5,458.9 L588.4,463.6 L584.5,463.8 L585.6,461.8 L582.8,462.4 L582.7,459.7 L579.0,456.2 Z M395.7,457.0 L398.9,457.6 L399.5,464.6 L398.4,463.1 L396.8,466.6 L395.4,464.6 L391.6,464.2 L390.7,462.1 L391.8,459.1 Z M605.1,446.2 L603.5,445.8 L603.9,443.4 L604.3,444.9 Z M576.0,442.4 L579.6,443.5 L579.4,447.0 L577.6,444.7 L576.0,445.1 L573.6,443.1 Z M562.1,437.4 L565.2,440.8 L563.2,440.2 L560.7,442.3 L562.1,444.0 L562.3,447.4 L559.1,444.9 L559.6,437.7 Z M574.6,434.4 L577.4,436.8 L576.2,438.4 L573.4,434.3 Z M590.9,426.4 L594.6,426.3 L597.0,428.1 L592.4,429.2 Z M552.1,415.5 L552.2,418.5 L547.8,417.6 L551.0,414.9 Z M415.9,417.8 L409.4,416.7 L413.8,414.3 L415.8,414.8 Z M558.6,415.2 L556.1,417.4 L556.5,422.2 L554.1,418.1 L554.0,414.8 L555.5,416.3 L557.2,415.1 L555.7,411.2 L557.0,409.6 L559.1,412.7 Z M621.6,626.4 L619.5,625.9 L615.9,628.8 L615.7,632.2 L611.6,630.8 L610.3,628.8 L612.3,625.6 L611.2,617.7 L607.8,615.1 L608.4,612.4 L611.5,609.7 L612.3,604.5 L614.4,602.0 L614.9,599.0 L614.4,593.6 L616.6,593.5 L619.5,590.6 L620.2,592.6 L618.9,595.9 L619.7,601.0 L617.4,603.9 L615.2,608.6 L615.1,612.6 L617.3,614.1 L620.4,618.5 L619.1,620.9 L621.6,623.2 Z M686.9,559.3 L689.8,560.5 L688.2,563.3 L689.4,565.3 L685.2,564.2 L681.6,565.0 L676.8,568.9 L671.5,577.5 L664.9,582.9 L661.5,580.7 L659.1,576.8 L662.2,568.2 L662.3,563.5 L656.1,556.3 L663.0,552.1 L663.6,548.6 L665.6,544.3 L668.0,543.6 L672.8,537.4 L677.6,535.6 L690.2,527.9 L695.5,528.0 L697.8,524.8 L700.0,527.0 L698.9,528.5 L700.0,533.0 L698.0,534.6 L697.7,538.1 L695.4,541.5 L694.7,546.8 L692.2,552.1 L690.0,552.2 Z M471.5,529.9 L476.5,534.4 L477.4,539.1 L475.5,542.7 L474.0,543.3 L467.1,541.4 L471.0,540.6 L473.1,537.8 L471.8,531.8 L467.5,530.3 L468.6,529.0 Z M624.6,527.4 L628.3,525.1 L629.3,525.8 L631.0,530.9 L635.7,532.4 L634.4,534.4 L630.4,534.8 L627.0,530.3 L625.7,532.0 L623.7,530.5 L623.8,525.9 Z M546.0,518.6 L547.9,516.5 L551.0,516.4 L547.5,511.6 L550.0,511.7 L555.4,515.6 L552.0,517.8 L549.6,517.8 L546.6,521.4 L546.7,523.9 L542.8,524.2 L539.9,520.8 L539.8,516.0 L542.1,515.9 Z M665.1,508.2 L668.5,506.8 L665.4,509.2 L666.6,511.3 L669.3,509.0 L670.2,517.4 L666.3,518.8 L667.9,516.8 L660.6,514.2 Z M383.2,512.6 L383.2,505.7 L385.3,502.3 L388.7,504.1 L389.6,507.0 L393.9,507.7 L394.6,506.1 L392.0,504.9 L389.7,502.3 L390.7,500.6 L393.1,502.3 L395.0,502.9 L399.8,500.8 L400.8,508.8 L395.9,511.1 L386.2,511.4 Z M465.4,502.3 L469.6,504.1 L470.4,505.7 L467.6,511.6 L464.7,510.2 L459.4,505.1 L457.7,504.4 L458.5,500.3 L462.1,497.5 Z M592.1,502.6 L592.6,497.6 L595.2,495.9 L597.4,497.2 L600.1,493.0 L603.3,489.9 L611.4,484.4 L620.7,482.4 L621.6,484.0 L625.6,484.8 L626.9,486.7 L624.3,488.2 L615.6,491.0 L613.8,492.2 L609.1,497.5 L607.4,497.9 L602.4,496.3 L596.7,499.9 L597.6,502.0 L596.0,503.5 L596.7,506.2 L593.7,504.9 Z M499.7,495.7 L505.4,495.5 L506.2,491.2 L515.4,486.3 L513.7,484.3 L518.1,482.1 L520.5,484.7 L523.7,486.1 L518.2,486.9 L511.5,492.1 L508.2,496.8 L501.7,499.1 L498.3,499.5 Z M591.7,470.6 L588.4,466.6 L589.7,466.4 L596.6,469.1 L595.5,469.8 L598.2,472.3 L601.1,473.0 L601.3,477.1 L599.9,479.4 L597.4,478.7 L596.7,481.0 L593.6,481.5 L590.9,479.6 L593.8,471.9 Z M449.1,466.1 L453.8,462.7 L457.8,464.6 L458.3,461.8 L460.5,461.8 L459.4,464.6 L458.1,469.5 L459.5,471.5 L457.3,474.9 L453.6,478.2 L449.4,478.5 L445.4,475.9 L446.1,470.9 L449.6,468.2 Z M467.8,473.4 L464.5,469.3 L466.9,468.0 L469.8,464.5 L475.0,460.6 L476.6,457.8 L479.7,456.6 L483.0,458.8 L484.5,462.4 L484.8,466.7 L483.8,474.9 L481.6,479.8 L476.7,483.6 L473.4,485.0 L471.2,480.2 L468.4,478.2 Z M386.7,433.7 L391.6,428.9 L391.2,433.0 L394.3,434.8 L395.0,438.5 L393.0,439.2 L392.3,442.6 L389.7,445.2 L386.2,446.7 L387.6,441.5 L388.9,440.5 L388.5,437.4 L386.2,436.4 Z M462.7,430.6 L461.6,428.1 L464.4,426.0 L466.8,430.1 L468.2,427.4 L473.6,429.7 L473.2,432.1 L469.2,433.1 L468.9,435.0 L461.2,435.7 Z M432.1,433.7 L433.8,437.1 L427.3,441.0 L427.8,437.5 L425.6,437.5 L428.5,432.4 L428.2,426.2 L431.0,426.5 L433.3,431.3 Z M445.8,421.1 L440.2,415.4 L436.3,413.4 L435.2,409.3 L440.6,409.2 L443.1,412.1 L446.2,411.9 L448.4,413.9 L449.6,412.4 L456.0,414.5 L457.2,417.9 L453.8,423.7 L450.1,423.2 Z M383.8,408.9 L386.6,408.9 L388.8,412.0 L388.3,415.1 L381.8,423.8 L378.8,424.4 L378.9,415.3 L381.1,411.5 Z M433.5,408.6 L429.7,405.3 L427.7,400.4 L425.6,399.9 L421.7,394.9 L420.4,395.7 L419.9,392.9 L411.1,384.1 L412.5,380.1 L416.8,377.6 L419.7,377.9 L421.9,380.2 L424.1,385.8 L426.2,386.6 L432.5,386.6 L433.3,387.5 L431.7,392.9 L435.1,395.6 L433.0,399.1 L435.9,401.8 L433.0,406.5 Z">
  <desc xmlns="http://www.highcharts.com/svg/namespace">
    <labelrank>6</labelrank>
    <hasc>GR.AS</hasc>
    <alt-name>Aegean South</alt-name>
    <woe-id>12577886</woe-id>
    <subregion>NULL</subregion>
    <fips>GR47</fips>
    <postal-code>AS</postal-code>
    <name>Notio Aigaio</name>
    <country>Greece</country>
    <type-en>Region</type-en>
    <region>NULL</region>
    <longitude>25.4867</longitude>
    <woe-name>Notio Aigaio</woe-name>
    <latitude>37.0538</latitude>
    <woe-label>Notio Aigaio, GR, Greece</woe-label>
    <type>Diamerismata</type>
    <hc-middle-x>0.94</hc-middle-x>
    <hc-middle-y>0.67</hc-middle-y>
    <hc-key>gr-as</hc-key>
    <hc-a2>AS</hc-a2>
  </desc>
</path>

<path fill="#CEE3F5" stroke="#6E6E6E" stroke-width="0.4" id="GR.II" d="M113.5,318.4 L112.4,317.7 L115.6,313.1 L113.7,317.1 Z M111.3,314.8 L110.7,312.9 L113.5,309.0 L116.8,308.2 L117.3,309.6 L112.9,312.7 Z M104.5,305.9 L105.8,306.9 L101.5,310.3 L100.4,307.6 Z M63.2,256.4 L64.8,258.0 L63.9,258.3 L61.7,255.9 Z M59.7,250.8 L60.6,253.2 L58.0,252.7 L55.0,248.5 L56.0,246.7 Z M11.7,192.6 L10.5,192.6 L9.6,190.8 L9.9,190.1 Z M4.0,181.5 L2.1,183.9 L0.0,183.4 L0.2,181.7 Z M15.8,180.8 L14.4,179.6 L15.2,178.7 L16.7,179.7 Z M114.4,401.3 L109.7,400.1 L105.5,403.2 L105.6,408.0 L103.1,408.1 L100.2,404.6 L94.6,399.1 L94.5,397.5 L89.9,391.7 L88.1,390.4 L88.3,386.3 L93.8,379.9 L95.6,380.4 L98.8,387.6 L100.7,388.8 L103.3,388.3 L109.3,392.1 L111.7,397.0 L117.0,400.7 L117.7,403.8 Z M96.7,350.2 L99.9,353.3 L100.7,356.0 L103.4,360.0 L104.1,363.2 L102.9,366.5 L96.9,366.3 L94.1,363.0 L88.8,360.7 L86.1,361.0 L84.8,363.5 L80.5,361.2 L77.6,352.9 L80.7,355.1 L76.9,346.0 L75.2,344.2 L75.0,350.8 L74.1,354.5 L70.4,356.7 L67.3,351.8 L68.9,349.0 L68.7,346.5 L71.9,341.9 L72.8,335.5 L73.2,337.6 L74.9,335.7 L77.0,339.8 L79.6,340.9 L82.9,338.6 L84.8,333.9 L83.9,329.7 L84.1,324.9 L86.8,325.0 L90.6,337.4 L90.5,339.8 L88.3,342.3 L91.6,347.3 L94.7,344.6 Z M93.9,335.6 L92.5,332.1 L92.0,328.0 L90.1,325.8 L91.8,325.3 L93.4,322.5 L94.9,324.2 L93.8,326.6 L97.5,328.2 L94.5,335.0 L99.6,334.5 L99.8,338.5 L101.3,340.7 L97.8,341.3 Z M85.1,312.9 L86.8,303.2 L90.3,294.3 L92.9,290.9 L97.1,287.7 L99.5,290.5 L100.3,294.6 L100.0,299.8 L97.5,304.5 L99.5,302.1 L99.1,309.0 L95.9,312.3 L90.5,311.8 L88.4,310.6 L85.5,315.4 Z M39.8,211.7 L40.9,222.3 L47.8,226.3 L52.4,225.9 L54.8,233.7 L53.9,234.3 L48.3,231.0 L45.7,230.4 L42.4,227.6 L39.1,227.0 L40.4,225.4 L35.6,223.0 L34.1,214.6 L31.9,210.8 L27.3,207.4 L25.2,202.0 L23.0,201.8 L21.8,196.7 L20.3,197.6 L20.2,194.9 L18.4,194.1 L22.6,189.6 L32.0,189.3 L36.2,187.3 L42.0,190.8 L43.5,191.1 L42.2,196.0 L35.7,198.7 L34.4,200.5 L36.0,203.9 L34.9,204.5 L41.2,207.5 Z">
  <desc xmlns="http://www.highcharts.com/svg/namespace">
    <labelrank>6</labelrank>
    <hasc>GR.II</hasc>
    <alt-name>Ionian Islands</alt-name>
    <woe-id>12577882</woe-id>
    <subregion>NULL</subregion>
    <fips>GR25</fips>
    <postal-code>II</postal-code>
    <name>Ionioi Nisoi</name>
    <country>Greece</country>
    <type-en>Region</type-en>
    <region>NULL</region>
    <longitude>20.5554</longitude>
    <woe-name>Ionioi Nisoi</woe-name>
    <latitude>38.2419</latitude>
    <woe-label>Nisia Ionioy, GR, Greece</woe-label>
    <type>Diamerismata</type>
    <hc-middle-x>0.78</hc-middle-x>
    <hc-middle-y>0.76</hc-middle-y>
    <hc-key>gr-ii</hc-key>
    <hc-a2>II</hc-a2>
  </desc>
</path>

<path fill="#CEE3F5" stroke="#6E6E6E" stroke-width="0.4" id="GR.AT" d="M302.4,594.8 L299.4,591.7 L297.5,587.2 L302.2,591.2 Z M313.9,487.0 L313.2,487.0 L312.5,484.7 L313.1,484.8 Z M289.7,453.0 L287.2,453.0 L284.3,449.8 L287.0,448.5 L289.4,450.2 Z M352.2,431.3 L350.9,430.9 L348.7,428.2 L351.5,429.8 Z M317.4,426.2 L313.4,426.3 L311.8,424.7 L315.0,423.4 L318.9,425.4 Z M353.0,413.4 L351.7,413.0 L351.9,411.9 L353.1,411.9 Z M365.3,412.9 L364.7,411.7 L366.8,403.3 L368.8,404.2 Z M316.6,409.1 L313.6,408.2 L313.8,405.1 L311.8,404.1 L311.1,400.6 L320.7,400.1 L322.1,400.7 L319.6,405.0 L319.0,408.3 Z M283.6,371.2 L291.3,369.3 L294.8,366.9 L291.6,362.7 L294.6,361.2 L291.3,359.3 L298.5,359.8 L299.5,358.7 L300.1,354.1 L305.7,351.3 L307.7,353.9 L306.6,356.4 L311.9,358.2 L314.9,362.6 L321.4,365.2 L326.4,360.9 L327.1,351.4 L331.5,346.2 L338.4,343.3 L339.6,343.1 L349.9,347.7 L352.9,348.4 L356.1,352.1 L362.2,357.0 L363.2,360.9 L361.0,363.0 L355.9,365.3 L357.5,373.5 L359.4,376.8 L357.7,380.9 L357.7,385.0 L360.2,385.9 L357.7,388.4 L361.0,389.8 L362.9,396.5 L363.3,402.3 L361.5,404.2 L362.5,408.6 L359.4,412.5 L352.8,409.9 L352.3,404.9 L350.6,405.5 L349.0,399.4 L344.7,395.8 L341.9,394.6 L341.5,396.7 L338.1,396.0 L338.2,393.7 L336.3,389.9 L331.4,382.9 L327.3,384.2 L325.9,381.3 L321.3,379.4 L324.9,375.4 L323.6,372.8 L318.1,373.4 L313.2,375.3 L308.8,378.6 L309.9,380.0 L303.7,379.3 L295.5,379.9 L290.1,383.2 L286.3,374.9 Z M270.4,539.2 L272.3,539.0 L276.7,546.6 L281.9,550.4 L284.1,553.8 L281.0,554.8 L280.0,557.1 L279.8,563.0 L275.8,562.8 L271.5,560.9 L268.2,556.7 L268.9,548.8 L267.6,544.5 Z M313.9,441.8 L323.8,440.5 L320.6,442.6 L317.2,442.6 L316.5,445.6 L308.5,447.2 L306.7,446.5 Z M314.0,382.2 L311.0,381.4 L314.8,379.4 L315.4,377.5 L318.6,377.5 L319.7,379.4 L320.6,384.6 L318.6,387.6 L317.2,386.8 L314.5,389.0 L310.9,388.1 L309.3,386.2 L312.3,383.5 L314.6,384.2 L317.0,380.8 Z M292.0,416.5 L302.8,423.7 L305.8,422.7 L305.7,420.0 L302.0,415.7 L304.8,414.0 L308.9,413.7 L309.7,414.9 L308.2,420.3 L306.9,421.9 L310.7,423.9 L308.5,426.0 L315.2,428.5 L318.9,431.6 L318.9,433.6 L312.2,436.1 L311.3,432.3 L306.7,433.1 L301.3,432.3 L299.0,430.0 L291.3,426.6 L289.6,423.8 Z">
  <desc xmlns="http://www.highcharts.com/svg/namespace">
    <labelrank>6</labelrank>
    <hasc>GR.AT</hasc>
    <alt-name>Attica</alt-name>
    <woe-id>12577879</woe-id>
    <subregion>NULL</subregion>
    <fips>GR35</fips>
    <postal-code>AT</postal-code>
    <name>Attiki</name>
    <country>Greece</country>
    <type-en>Region</type-en>
    <region>Peloponnisos</region>
    <longitude>23.7997</longitude>
    <woe-name>Attiki</woe-name>
    <latitude>38.0626</latitude>
    <woe-label>Attiki, GR, Greece</woe-label>
    <type>Diamerismata</type>
    <hc-middle-x>0.74</hc-middle-x>
    <hc-middle-y>0.11</hc-middle-y>
    <hc-key>gr-at</hc-key>
    <hc-a2>AT</hc-a2>
  </desc>
</path>

<path fill="#CEE3F5" stroke="#6E6E6E" stroke-width="0.4" id="GR.PP" d="M274.7,529.7 L269.8,530.4 L270.2,528.9 L273.5,526.2 Z M177.6,503.6 L175.4,504.4 L176.2,500.4 L177.9,500.9 Z M173.0,495.9 L173.9,496.7 L171.0,501.5 L171.2,497.9 Z M160.3,471.1 L159.1,469.4 L160.3,468.7 L160.8,469.8 Z M283.6,371.2 L286.3,374.9 L290.1,383.2 L284.9,386.1 L278.6,384.6 L277.0,388.9 L278.4,392.4 L285.1,392.9 L286.4,392.2 L291.8,396.4 L291.8,399.9 L287.5,401.2 L286.9,403.2 L291.2,405.3 L290.2,409.1 L291.1,412.8 L290.5,415.9 L292.0,416.5 L289.6,423.8 L291.3,426.6 L299.0,430.0 L301.3,432.3 L306.7,433.1 L311.3,432.3 L312.2,436.1 L302.7,436.5 L301.8,437.6 L297.9,437.3 L295.3,438.9 L297.4,440.3 L297.8,443.0 L291.7,443.3 L293.1,447.1 L290.3,447.4 L289.7,445.7 L284.9,441.6 L282.7,441.8 L282.7,437.2 L284.5,438.3 L286.0,434.7 L288.2,436.1 L287.5,432.5 L284.7,431.1 L281.9,431.8 L280.6,428.5 L277.3,431.2 L276.3,427.6 L274.1,425.0 L267.8,423.8 L265.4,425.6 L262.6,423.5 L259.4,417.3 L256.2,418.9 L254.9,422.8 L255.8,428.6 L258.1,433.8 L257.5,437.2 L261.7,442.2 L262.3,445.4 L269.6,458.8 L268.2,463.8 L270.3,465.4 L273.1,464.8 L274.9,469.5 L273.6,469.0 L276.5,474.0 L277.4,478.6 L275.7,478.6 L277.7,481.8 L277.3,483.4 L281.1,492.2 L283.9,496.7 L282.7,498.5 L285.4,499.3 L283.3,504.1 L280.4,502.7 L278.2,505.8 L279.0,512.5 L282.5,519.5 L286.9,521.9 L288.2,528.8 L292.4,531.9 L291.7,534.3 L289.0,532.9 L287.1,534.1 L283.5,533.1 L281.3,530.1 L281.2,526.5 L278.8,524.6 L273.7,525.3 L270.9,518.7 L266.0,514.2 L266.8,511.8 L263.4,508.7 L261.5,510.7 L261.6,506.9 L260.2,499.6 L257.3,496.7 L250.9,496.1 L245.8,496.6 L242.2,498.6 L242.3,502.9 L239.6,504.7 L237.8,508.3 L239.8,509.0 L240.0,511.8 L237.8,509.7 L236.5,512.0 L238.2,513.6 L236.7,516.6 L236.1,514.4 L234.4,516.1 L234.2,522.0 L236.4,530.2 L234.9,533.4 L235.7,536.4 L233.7,536.6 L233.0,531.6 L228.1,528.0 L225.9,528.6 L223.8,525.5 L224.9,521.9 L226.2,522.3 L225.0,516.4 L225.1,511.0 L226.8,506.0 L224.4,506.4 L220.3,499.0 L219.2,494.5 L213.7,486.6 L212.0,485.7 L210.0,487.2 L207.0,484.5 L208.4,477.6 L208.5,474.2 L200.1,472.6 L192.5,475.6 L191.0,477.9 L189.5,489.6 L190.0,493.7 L193.3,496.5 L191.2,497.0 L190.5,499.4 L185.4,503.2 L181.4,494.9 L176.7,496.1 L172.2,493.7 L170.7,490.5 L170.8,486.4 L172.6,482.9 L172.1,479.8 L169.3,478.3 L168.4,475.9 L164.0,470.7 L162.5,467.6 L161.8,459.6 L163.9,453.2 L171.3,447.0 L172.4,443.8 L171.5,437.5 L172.8,436.9 L178.1,438.2 L183.6,438.4 L188.1,434.0 L188.0,431.2 L191.5,427.7 L193.2,429.1 L195.5,427.4 L193.2,424.5 L186.0,418.5 L180.7,417.5 L180.8,406.6 L179.3,401.6 L179.8,397.6 L184.5,390.2 L187.4,389.6 L188.0,392.5 L198.6,398.0 L202.1,395.6 L206.4,395.3 L209.4,396.7 L211.6,394.3 L216.1,392.7 L214.9,388.4 L216.6,379.9 L224.2,376.4 L227.9,367.4 L226.1,364.1 L226.9,360.1 L231.4,362.7 L232.8,362.1 L239.0,363.6 L247.6,368.4 L252.3,370.1 L259.9,376.8 L261.4,379.3 L266.9,383.1 L273.7,382.1 L275.5,379.2 L273.6,376.8 L268.6,373.6 L266.0,373.5 L270.6,371.0 L273.1,368.7 L279.1,370.6 Z">
  <desc xmlns="http://www.highcharts.com/svg/namespace">
    <labelrank>6</labelrank>
    <hasc>GR.PP</hasc>
    <alt-name>Peloponnese</alt-name>
    <woe-id>12577887</woe-id>
    <subregion>NULL</subregion>
    <fips>GR36</fips>
    <postal-code>PP</postal-code>
    <name>Peloponnisos</name>
    <country>Greece</country>
    <type-en>Region</type-en>
    <region>Peloponnisos</region>
    <longitude>22.3501</longitude>
    <woe-name>Peloponnisos</woe-name>
    <latitude>37.3319</latitude>
    <woe-label>Peloponnisos, GR, Greece</woe-label>
    <type>Diamerismata</type>
    <hc-middle-x>0.43</hc-middle-x>
    <hc-middle-y>0.46</hc-middle-y>
    <hc-key>gr-pp</hc-key>
    <hc-a2>PP</hc-a2>
  </desc>
</path>

<path fill="#CEE3F5" stroke="#6E6E6E" stroke-width="0.4" id="GR.TS" d="M365.7,269.6 L365.4,270.4 L364.5,268.1 L366.0,267.0 Z M318.8,259.4 L316.9,260.3 L314.7,264.0 L312.8,262.6 L309.6,262.6 L309.9,260.8 L312.3,259.6 L315.5,255.8 Z M348.7,261.1 L346.2,262.9 L343.8,262.7 L346.9,259.3 L348.2,255.6 L352.1,249.3 L354.6,250.1 Z M362.2,242.0 L364.2,242.7 L363.2,246.8 L361.7,247.6 L360.0,244.2 Z M382.5,241.9 L381.8,244.2 L381.1,243.8 L381.9,240.4 Z M370.6,238.9 L368.7,241.1 L367.9,240.2 L370.5,234.9 Z M331.0,266.2 L327.8,262.5 L324.6,256.5 L325.8,256.4 L330.7,260.3 L335.8,262.7 L335.5,264.2 L340.6,265.5 L336.6,269.3 L334.7,269.6 L330.7,268.0 Z M257.3,182.9 L259.6,189.0 L264.2,192.5 L268.5,199.3 L269.5,205.1 L273.5,216.8 L275.6,219.8 L283.5,224.1 L287.1,227.2 L288.9,231.5 L300.1,244.8 L301.7,250.2 L305.6,259.2 L302.3,262.0 L295.1,263.9 L296.7,265.3 L294.6,266.6 L290.1,266.9 L287.7,268.2 L282.8,267.2 L284.0,263.2 L287.7,261.1 L286.6,266.5 L294.3,261.9 L295.4,258.0 L292.5,253.6 L292.9,251.9 L290.7,248.5 L286.6,245.7 L280.6,245.1 L279.3,241.6 L274.0,240.7 L273.7,245.6 L274.5,246.5 L266.7,247.9 L265.4,249.5 L265.3,254.6 L267.4,260.9 L271.2,258.8 L272.5,264.3 L275.7,265.0 L278.5,269.9 L278.5,272.0 L276.0,273.4 L275.8,276.0 L279.8,273.6 L284.4,272.7 L280.4,276.1 L278.3,280.6 L275.9,279.5 L272.9,280.8 L268.3,281.1 L266.0,278.8 L256.3,277.2 L249.8,273.3 L240.8,273.5 L239.0,271.3 L239.2,264.4 L234.1,264.9 L232.9,263.8 L232.4,259.3 L228.5,256.4 L223.1,254.3 L219.3,252.0 L212.2,259.7 L209.8,265.3 L203.7,268.1 L201.5,270.4 L198.2,272.0 L193.9,272.3 L193.9,266.8 L192.8,265.2 L187.5,262.1 L181.6,265.1 L178.8,265.4 L177.0,262.9 L177.3,258.8 L174.8,257.2 L174.5,253.1 L172.7,250.5 L166.0,252.1 L162.5,255.6 L160.2,253.5 L155.8,255.7 L152.0,259.4 L151.0,258.9 L148.9,254.1 L153.1,246.4 L150.2,241.2 L144.8,240.7 L142.1,238.6 L141.1,235.1 L137.5,232.0 L137.3,228.6 L135.7,225.3 L137.0,222.8 L137.0,217.3 L133.8,213.6 L133.0,207.7 L135.6,205.7 L141.2,207.0 L140.1,198.3 L141.5,195.5 L145.3,192.9 L147.4,193.5 L149.8,194.5 L154.6,192.7 L156.4,190.2 L161.1,188.1 L172.4,189.9 L180.1,192.1 L182.9,192.3 L188.7,191.2 L192.7,192.0 L194.0,189.7 L193.1,184.0 L190.6,182.5 L196.0,177.9 L199.1,176.3 L201.5,171.0 L205.3,167.3 L210.3,158.8 L210.9,160.3 L213.2,158.2 L217.2,159.3 L216.1,164.8 L218.0,166.8 L222.6,161.9 L225.8,160.9 L228.9,163.9 L228.6,168.3 L229.4,171.2 L231.7,173.8 L236.9,177.5 L240.8,182.9 L243.7,184.0 L249.9,182.4 L252.4,183.7 Z">
  <desc xmlns="http://www.highcharts.com/svg/namespace">
    <labelrank>6</labelrank>
    <hasc>GR.TS</hasc>
    <alt-name>Thessaly</alt-name>
    <woe-id>12577889</woe-id>
    <subregion>NULL</subregion>
    <fips>GR21</fips>
    <postal-code>TS</postal-code>
    <name>Thessalia</name>
    <country>Greece</country>
    <type-en>Region</type-en>
    <region>NULL</region>
    <longitude>22.1914</longitude>
    <woe-name>Thessalia</woe-name>
    <latitude>39.5322</latitude>
    <woe-label>Thessalia, GR, Greece</woe-label>
    <type>Diamerismata</type>
    <hc-middle-x>0.32</hc-middle-x>
    <hc-middle-y>0.57</hc-middle-y>
    <hc-key>gr-ts</hc-key>
    <hc-a2>TS</hc-a2>
  </desc>
</path>

<path fill="#CEE3F5" stroke="#6E6E6E" stroke-width="0.4" id="GR.AN" d="M537.4,325.9 L536.2,325.5 L535.9,324.0 L537.0,324.5 Z M530.9,321.9 L535.5,323.9 L534.1,325.1 L530.1,323.8 L528.7,321.2 Z M476.7,323.2 L474.3,323.3 L475.4,321.2 L476.6,321.9 Z M481.7,315.2 L484.4,317.9 L483.1,322.8 L479.6,322.9 L479.6,320.1 L476.6,316.7 Z M433.8,230.1 L432.4,225.4 L432.6,223.1 L435.3,220.4 L438.0,222.2 L437.5,224.7 Z M514.7,421.1 L517.2,418.4 L519.5,414.1 L522.0,412.0 L531.9,412.3 L536.3,410.2 L538.4,407.8 L544.9,406.6 L541.6,411.9 L534.7,418.4 L526.5,420.1 L521.0,423.9 L514.5,424.4 Z M588.5,406.2 L584.7,409.8 L578.8,409.6 L575.8,404.7 L572.3,403.1 L568.3,404.1 L565.6,406.8 L563.0,406.0 L562.1,400.7 L563.2,398.6 L567.0,397.4 L568.1,395.3 L577.1,392.9 L582.7,393.2 L585.9,395.5 L591.9,398.2 L590.9,395.0 L600.8,396.1 L598.1,397.5 L600.4,402.9 L595.6,403.1 Z M526.4,341.2 L527.6,345.2 L523.7,347.2 L522.9,349.4 L523.7,353.3 L518.1,355.7 L515.8,360.1 L513.0,359.3 L509.7,356.4 L507.8,353.3 L506.2,353.9 L506.1,351.2 L504.3,350.0 L505.7,347.8 L509.5,345.6 L511.9,345.6 L514.0,341.4 L513.3,336.6 L510.6,335.3 L510.9,333.0 L509.0,329.5 L505.6,328.5 L501.9,324.5 L501.0,321.6 L502.2,317.9 L513.7,315.3 L519.3,317.3 L522.7,321.3 L523.2,319.2 L525.4,319.0 L527.0,321.2 L525.6,326.2 L523.9,326.8 L526.5,328.7 L525.4,333.6 Z M560.9,269.5 L559.8,273.3 L556.2,273.1 L553.7,271.0 L554.1,266.3 L552.4,263.7 L547.1,264.4 L551.5,268.4 L555.9,273.7 L556.0,275.8 L551.5,277.4 L546.4,278.1 L539.7,276.7 L534.7,274.1 L526.1,273.1 L522.0,268.8 L519.9,267.7 L521.5,266.2 L525.5,265.6 L527.8,262.5 L530.5,262.0 L535.7,257.3 L533.8,255.0 L528.6,254.6 L526.3,255.8 L520.5,264.9 L516.3,266.2 L509.7,263.9 L504.2,261.3 L499.9,257.9 L500.7,256.8 L501.6,249.9 L506.6,246.0 L507.6,248.0 L517.2,246.5 L519.8,244.4 L525.1,242.9 L525.8,241.7 L525.0,237.4 L539.0,236.6 L540.0,239.2 L544.9,241.7 L544.5,242.7 L542.1,246.6 L545.7,250.3 L549.4,252.2 L553.9,258.7 L555.9,262.6 L557.2,262.7 L558.3,267.0 Z M456.9,195.7 L456.5,193.4 L452.5,190.7 L455.6,187.6 L454.3,185.2 L452.4,184.6 L449.2,187.3 L451.4,188.0 L449.0,189.2 L448.8,191.4 L450.6,194.1 L450.7,196.2 L445.1,194.9 L446.8,190.7 L444.0,192.9 L443.5,190.8 L437.7,193.0 L439.2,190.9 L437.6,190.2 L439.2,184.6 L437.6,181.9 L436.4,177.2 L444.1,175.7 L445.9,177.1 L451.2,175.6 L452.9,176.2 L456.0,180.3 L460.7,178.2 L463.3,174.1 L467.5,174.0 L468.6,177.4 L464.9,179.9 L464.0,184.4 L460.8,185.7 L462.4,186.5 L460.4,188.0 L460.5,190.9 L462.5,193.9 L461.1,197.6 Z">
  <desc xmlns="http://www.highcharts.com/svg/namespace">
    <labelrank>6</labelrank>
    <hasc>GR.AN</hasc>
    <alt-name>Aegean North</alt-name>
    <woe-id>12577890</woe-id>
    <subregion>NULL</subregion>
    <fips>GR48</fips>
    <postal-code>AN</postal-code>
    <name>Voreio Aigaio</name>
    <country>Greece</country>
    <type-en>Region</type-en>
    <region>NULL</region>
    <longitude>25.2262</longitude>
    <woe-name>Voreio Aigaio</woe-name>
    <latitude>39.9531</latitude>
    <woe-label>Voreio Aigaio, GR, Greece</woe-label>
    <type>Diamerismata</type>
    <hc-middle-x>0.54</hc-middle-x>
    <hc-middle-y>0.30</hc-middle-y>
    <hc-key>gr-an</hc-key>
    <hc-a2>AN</hc-a2>
  </desc>
</path>

<path fill="#CEE3F5" stroke="#6E6E6E" stroke-width="0.4" id="GR.GC" d="M378.8,379.0 L375.8,379.8 L374.9,378.7 L377.7,375.6 Z M386.0,293.3 L384.8,294.6 L383.6,293.9 L384.7,292.3 Z M401.8,296.3 L400.4,292.7 L396.4,292.8 L392.4,288.8 L392.9,280.5 L395.2,279.2 L401.7,284.0 L401.7,288.7 L402.5,290.1 L407.1,293.0 L410.2,296.8 L410.3,298.8 L408.4,300.3 L404.9,299.9 L403.9,298.0 L401.2,301.0 L398.5,297.7 Z M337.5,305.5 L345.6,309.2 L354.2,310.4 L362.5,309.5 L369.0,312.1 L366.3,314.9 L366.7,317.6 L373.8,323.5 L375.0,325.2 L373.1,326.8 L371.3,333.5 L372.9,335.6 L371.4,336.7 L373.4,339.7 L373.7,343.8 L376.7,348.2 L377.2,351.6 L376.2,353.4 L377.8,355.8 L382.6,358.9 L384.0,361.5 L387.8,361.0 L390.1,362.7 L394.6,363.5 L403.3,361.4 L402.7,369.0 L403.9,371.1 L402.4,377.0 L400.6,379.6 L394.6,381.2 L392.3,376.4 L390.8,375.3 L387.4,377.8 L386.3,380.3 L381.7,374.6 L382.7,373.2 L378.1,368.0 L373.5,367.7 L373.5,365.1 L371.5,364.8 L373.3,359.6 L370.4,354.8 L367.2,353.9 L369.7,350.7 L368.9,349.4 L365.4,351.9 L364.8,350.0 L366.4,346.5 L363.1,344.9 L358.8,344.4 L362.1,342.4 L359.9,337.9 L355.3,337.6 L349.9,338.3 L344.5,336.9 L339.4,337.6 L333.9,336.2 L330.3,337.0 L328.3,335.9 L326.4,331.3 L324.8,332.0 L328.1,327.3 L328.1,324.5 L325.3,320.2 L320.6,319.1 L317.9,317.6 L317.3,314.2 L313.8,311.5 L313.3,309.6 L308.2,306.5 L304.8,303.3 L304.1,301.4 L294.3,294.1 L289.7,292.0 L285.0,292.5 L281.3,289.5 L276.1,288.0 L277.7,291.9 L275.7,292.8 L267.1,293.5 L265.3,294.5 L265.7,291.4 L268.7,289.3 L281.3,284.3 L282.1,282.3 L285.3,281.6 L286.0,278.2 L289.4,276.1 L294.2,276.2 L302.0,272.9 L308.4,277.0 L308.7,280.5 L311.9,281.8 L313.1,287.4 L316.1,293.5 L319.5,295.0 L324.7,299.9 L330.3,301.8 L333.5,300.9 L336.3,302.4 Z M278.3,280.6 L273.5,282.2 L274.1,283.6 L270.6,284.9 L266.5,284.2 L265.7,287.2 L262.2,289.0 L257.5,289.5 L256.4,287.7 L254.1,288.8 L248.9,285.1 L245.7,287.2 L241.3,287.9 L241.2,290.6 L245.0,290.1 L244.2,292.9 L250.3,293.6 L255.1,291.6 L260.3,298.3 L263.9,297.9 L267.9,301.3 L271.7,299.3 L274.1,301.1 L279.6,301.5 L283.0,304.3 L285.3,312.2 L288.7,313.1 L293.6,310.5 L291.5,309.2 L294.4,308.9 L296.9,310.5 L303.4,312.9 L304.4,316.8 L301.2,319.3 L304.9,322.7 L308.1,324.4 L304.9,325.0 L305.7,327.1 L311.0,326.9 L318.9,328.3 L320.8,326.2 L325.4,330.0 L323.2,331.3 L324.8,334.8 L327.2,336.0 L331.0,341.8 L333.9,343.8 L338.4,343.3 L331.5,346.2 L327.1,351.4 L326.4,360.9 L321.4,365.2 L314.9,362.6 L311.9,358.2 L306.6,356.4 L307.7,353.9 L305.7,351.3 L300.1,354.1 L299.5,358.7 L298.5,359.8 L291.3,359.3 L294.6,361.2 L287.9,360.0 L289.5,358.6 L286.4,356.2 L283.8,358.6 L278.6,355.1 L274.0,354.5 L275.3,357.8 L270.5,357.7 L269.5,352.9 L262.4,354.2 L259.2,352.0 L261.9,348.7 L257.5,347.1 L253.5,344.5 L253.0,340.6 L250.1,337.7 L245.3,343.6 L246.8,344.4 L244.4,347.6 L242.0,346.3 L240.4,340.7 L235.7,333.8 L230.9,331.0 L231.3,334.8 L228.6,337.1 L230.3,339.5 L229.2,342.1 L224.4,341.2 L221.5,341.5 L216.8,340.1 L213.9,343.8 L210.7,339.6 L203.0,336.0 L200.0,336.6 L198.2,334.7 L193.5,335.3 L190.3,337.6 L187.4,336.7 L187.7,333.1 L189.4,330.1 L192.7,327.4 L195.6,326.8 L198.0,324.8 L197.7,321.7 L199.1,319.0 L196.8,316.3 L197.9,313.8 L198.4,305.3 L199.7,301.4 L196.6,298.7 L188.9,302.5 L184.8,302.0 L184.3,306.1 L179.7,308.5 L179.1,305.7 L172.1,306.0 L165.3,301.8 L163.1,297.5 L163.7,294.6 L169.6,291.3 L169.6,289.9 L162.8,287.5 L159.1,285.2 L158.8,279.4 L151.1,274.4 L150.8,273.0 L153.4,266.5 L150.9,262.2 L151.0,258.9 L152.0,259.4 L155.8,255.7 L160.2,253.5 L162.5,255.6 L166.0,252.1 L172.7,250.5 L174.5,253.1 L174.8,257.2 L177.3,258.8 L177.0,262.9 L178.8,265.4 L181.6,265.1 L187.5,262.1 L192.8,265.2 L193.9,266.8 L193.9,272.3 L198.2,272.0 L201.5,270.4 L203.7,268.1 L209.8,265.3 L212.2,259.7 L219.3,252.0 L223.1,254.3 L228.5,256.4 L232.4,259.3 L232.9,263.8 L234.1,264.9 L239.2,264.4 L239.0,271.3 L240.8,273.5 L249.8,273.3 L256.3,277.2 L266.0,278.8 L268.3,281.1 L272.9,280.8 L275.9,279.5 Z">
  <desc xmlns="http://www.highcharts.com/svg/namespace">
    <labelrank>6</labelrank>
    <hasc>GR.GC</hasc>
    <alt-name>Greece Central</alt-name>
    <woe-id>12577888</woe-id>
    <subregion>NULL</subregion>
    <fips>GR33</fips>
    <postal-code>GC</postal-code>
    <name>Stere치 Ell치da</name>
    <country>Greece</country>
    <type-en>Region</type-en>
    <region>NULL</region>
    <longitude>22.6102</longitude>
    <woe-name>Stere치 Ell치da</woe-name>
    <latitude>38.6373</latitude>
    <woe-label>Sterea Ellada, GR, Greece</woe-label>
    <type>Diamerismata</type>
    <hc-middle-x>0.24</hc-middle-x>
    <hc-middle-y>0.36</hc-middle-y>
    <hc-key>gr-gc</hc-key>
    <hc-a2>GC</hc-a2>
  </desc>
</path>

<path fill="#CEE3F5" stroke="#6E6E6E" stroke-width="0.4" id="GR.CR" d="M368.0,695.8 L365.8,696.4 L360.6,693.1 L363.4,691.1 L367.4,691.7 Z M499.7,688.9 L497.9,690.2 L495.8,689.9 L496.1,688.7 Z M533.3,683.1 L531.8,682.6 L532.2,681.4 L533.9,681.8 Z M458.4,633.6 L458.3,634.5 L454.1,633.2 L457.0,630.9 Z M317.2,648.5 L320.1,645.7 L319.0,640.5 L321.8,634.4 L320.8,632.0 L322.3,627.8 L321.3,625.1 L322.5,620.3 L324.5,616.6 L324.7,622.7 L327.5,627.2 L330.9,627.9 L333.7,626.6 L334.7,622.5 L333.3,617.2 L333.2,613.0 L335.7,609.2 L338.7,610.7 L337.8,612.5 L338.7,620.3 L341.8,624.4 L356.8,625.9 L360.5,625.2 L361.5,622.6 L364.5,622.5 L363.5,618.9 L366.2,617.8 L371.8,619.3 L373.4,623.7 L371.8,626.6 L368.5,627.2 L363.4,626.4 L362.7,628.1 L372.1,632.7 L377.5,630.0 L378.4,634.6 L378.4,640.1 L379.2,641.4 L384.7,643.1 L391.9,640.9 L396.6,640.6 L405.5,638.7 L410.6,636.0 L415.9,635.0 L424.0,636.4 L425.7,637.3 L430.2,635.2 L435.3,637.2 L436.4,635.1 L443.3,637.7 L443.4,642.0 L447.6,643.2 L455.0,642.4 L456.2,643.6 L469.7,642.9 L473.8,647.2 L478.5,647.3 L491.3,642.3 L496.9,643.2 L501.7,643.1 L498.4,647.3 L498.8,650.3 L501.2,649.3 L498.1,655.6 L497.6,658.5 L499.0,663.4 L506.3,665.0 L508.8,661.5 L511.6,660.1 L512.7,658.0 L519.4,656.8 L523.9,653.7 L526.7,652.9 L531.0,654.6 L530.1,655.6 L533.9,656.3 L542.3,647.4 L546.6,646.1 L542.9,649.8 L545.8,657.2 L547.6,655.9 L544.7,660.8 L545.5,662.2 L541.4,672.0 L533.7,675.9 L530.3,676.2 L528.3,674.2 L523.2,674.2 L520.3,672.5 L515.3,673.1 L505.8,676.1 L488.7,675.6 L480.9,678.6 L473.4,677.8 L464.2,678.8 L456.4,682.3 L451.7,681.9 L447.3,683.7 L445.6,683.1 L440.8,684.4 L437.9,683.7 L417.7,684.6 L419.0,682.0 L419.3,673.6 L417.9,670.0 L415.0,668.2 L407.7,668.1 L403.3,667.2 L398.0,662.6 L395.0,662.9 L390.0,660.4 L389.8,658.8 L380.9,659.7 L371.8,658.2 L359.4,658.2 L355.8,654.6 L348.7,654.8 L345.3,654.3 L342.6,652.7 L338.9,654.5 L322.9,653.9 L322.7,652.5 Z">
  <desc xmlns="http://www.highcharts.com/svg/namespace">
    <labelrank>6</labelrank>
    <hasc>GR.CR</hasc>
    <alt-name>Crete</alt-name>
    <woe-id>12577885</woe-id>
    <subregion>NULL</subregion>
    <fips>GR43</fips>
    <postal-code>CR</postal-code>
    <name>Kriti</name>
    <country>Greece</country>
    <type-en>Region</type-en>
    <region>NULL</region>
    <longitude>25.0652</longitude>
    <woe-name>Kriti</woe-name>
    <latitude>35.1921</latitude>
    <woe-label>Kriti, GR, Greece</woe-label>
    <type>Diamerismata</type>
    <hc-middle-x>0.53</hc-middle-x>
    <hc-middle-y>0.58</hc-middle-y>
    <hc-key>gr-cr</hc-key>
    <hc-a2>CR</hc-a2>
  </desc>
</path>

<path fill="#CEE3F5" stroke="#6E6E6E" stroke-width="0.4" id="GR.MC" d="M350.7,144.8 L351.9,146.2 L348.2,144.4 L349.6,142.8 Z M357.1,138.3 L357.2,144.2 L356.9,145.1 L350.9,140.1 L344.0,139.9 L338.4,142.1 L336.1,141.2 L333.8,144.4 L333.4,147.8 L334.6,151.0 L338.2,153.9 L339.8,156.8 L346.6,159.8 L348.9,160.0 L356.1,165.3 L355.1,168.1 L356.9,169.6 L356.3,173.4 L357.7,172.8 L358.3,175.5 L355.9,178.2 L356.1,181.8 L350.6,181.5 L349.3,178.3 L343.8,174.5 L343.4,176.3 L340.3,170.4 L340.9,167.7 L331.9,155.3 L327.8,153.1 L321.5,152.5 L317.2,150.0 L310.6,149.2 L308.0,150.8 L305.9,156.1 L307.9,161.9 L310.7,162.6 L315.9,170.3 L318.2,172.8 L326.2,177.2 L331.4,178.5 L333.4,183.1 L337.3,184.1 L333.9,185.9 L327.2,184.8 L316.0,179.9 L314.1,179.6 L307.5,180.9 L308.9,175.9 L306.9,171.3 L303.4,166.5 L304.9,159.4 L304.4,155.9 L303.0,153.4 L299.9,151.6 L291.5,149.1 L287.5,146.1 L282.3,144.1 L281.0,141.5 L277.4,138.7 L271.6,137.9 L272.3,136.3 L269.5,131.7 L270.1,131.1 L266.6,126.2 L275.8,124.8 L279.1,121.3 L275.9,117.8 L276.6,116.0 L273.6,112.0 L269.3,112.5 L269.6,115.9 L268.2,118.0 L264.8,119.3 L263.4,118.6 L260.9,120.8 L261.2,124.1 L258.8,125.2 L255.3,123.6 L253.5,129.0 L249.9,128.1 L248.0,129.4 L250.0,134.9 L254.2,139.4 L251.0,145.2 L248.6,153.2 L245.5,159.6 L246.6,165.2 L246.8,170.8 L248.9,174.7 L252.9,178.2 L257.3,180.7 L257.3,182.9 L252.4,183.7 L249.9,182.4 L243.7,184.0 L240.8,182.9 L236.9,177.5 L231.7,173.8 L229.4,171.2 L228.6,168.3 L228.9,163.9 L225.8,160.9 L222.6,161.9 L218.0,166.8 L216.1,164.8 L217.2,159.3 L213.2,158.2 L210.9,160.3 L210.3,158.8 L210.7,155.3 L214.8,152.8 L216.4,147.5 L212.8,145.8 L211.7,141.4 L209.2,138.5 L208.7,134.2 L204.3,134.8 L203.1,132.7 L197.8,129.5 L193.9,123.8 L195.0,119.8 L193.0,117.0 L193.0,114.2 L194.9,109.9 L184.8,107.5 L186.7,101.8 L184.1,100.7 L181.6,92.0 L188.8,91.1 L190.4,88.6 L186.7,86.0 L186.3,82.5 L187.9,81.4 L188.4,78.4 L192.1,75.5 L197.0,69.6 L198.3,65.3 L202.6,62.7 L207.4,61.4 L208.9,60.1 L213.0,63.2 L219.2,59.5 L222.3,59.6 L228.2,61.1 L228.5,62.8 L234.0,62.6 L237.2,64.4 L249.9,63.5 L252.6,60.8 L253.0,58.4 L255.0,58.3 L258.7,62.2 L260.4,59.6 L261.2,55.8 L261.6,47.8 L262.4,44.7 L264.7,42.7 L268.1,42.2 L275.0,42.8 L289.9,45.3 L294.8,44.4 L296.3,43.3 L297.1,39.7 L299.9,37.6 L303.0,36.8 L305.9,39.7 L312.6,36.7 L320.0,37.0 L325.0,39.6 L328.5,39.1 L328.0,41.3 L329.1,45.7 L335.5,48.8 L334.2,54.1 L342.9,64.2 L346.8,67.2 L350.8,68.2 L353.1,70.6 L357.3,69.1 L360.4,73.3 L365.7,77.3 L366.0,81.5 L365.0,85.5 L359.6,90.0 L358.0,92.5 L352.4,96.7 L345.9,98.1 L345.7,98.9 L342.3,98.9 L338.1,100.7 L334.7,103.2 L333.3,107.4 L335.3,111.1 L338.1,112.4 L341.0,118.2 L344.1,120.6 L348.3,120.7 L350.3,123.1 L349.7,124.5 L344.4,125.2 L342.9,128.3 L343.5,130.9 L346.7,135.7 L350.3,138.1 L354.0,139.1 Z">
  <desc xmlns="http://www.highcharts.com/svg/namespace">
    <labelrank>6</labelrank>
    <hasc>GR.MC</hasc>
    <alt-name>Macedonia Central</alt-name>
    <woe-id>12577884</woe-id>
    <subregion>NULL</subregion>
    <fips>GR05</fips>
    <postal-code>MC</postal-code>
    <name>Kentriki Makedonia</name>
    <country>Greece</country>
    <type-en>Region</type-en>
    <region>NULL</region>
    <longitude>22.8519</longitude>
    <woe-name>Kentriki Makedonia</woe-name>
    <latitude>40.8836</latitude>
    <woe-label>Kentriki Makedonia, GR, Greece</woe-label>
    <type>Diamerismata</type>
    <hc-middle-x>0.56</hc-middle-x>
    <hc-middle-y>0.37</hc-middle-y>
    <hc-key>gr-mc</hc-key>
    <hc-a2>MC</hc-a2>
  </desc>
</path>

<path fill="#CEE3F5" stroke="#6E6E6E" stroke-width="0.4" id="GR.MA" d="M356.9,145.1 L357.2,144.2 L357.1,138.3 L357.7,137.8 L356.1,132.3 L357.7,132.1 L360.9,137.8 L365.1,141.3 L366.6,140.6 L370.6,141.9 L372.4,145.3 L374.7,145.4 L381.4,154.3 L386.3,159.1 L387.1,161.8 L384.6,163.8 L379.9,164.3 L378.8,161.0 L375.1,158.4 L369.8,149.6 L366.6,148.1 L360.5,147.0 Z">
  <desc xmlns="http://www.highcharts.com/svg/namespace">
    <labelrank>6</labelrank>
    <hasc>GR.MA</hasc>
    <alt-name>Mount Athos|Holy Mountain</alt-name>
    <woe-id>12577877</woe-id>
    <subregion>NULL</subregion>
    <fips>GR15</fips>
    <postal-code>MA</postal-code>
    <name>Ayion Oros</name>
    <country>Greece</country>
    <type-en>Autonomous Monastic State</type-en>
    <region>Macedonia</region>
    <longitude>24.1925</longitude>
    <woe-name>Ayion Oros</woe-name>
    <latitude>40.2922</latitude>
    <woe-label>Agio Oros, GR, Greece</woe-label>
    <type>Aftonomi Monastiki Politia</type>
    <hc-middle-x>0.29</hc-middle-x>
    <hc-middle-y>0.39</hc-middle-y>
    <hc-key>gr-ma</hc-key>
    <hc-a2>MA</hc-a2>
  </desc>
</path>

<path fill="#CEE3F5" stroke="#6E6E6E" stroke-width="0.4" id="GR.MT" d="M473.1,125.3 L477.3,124.5 L484.7,127.1 L486.7,129.7 L485.7,133.5 L478.6,136.2 L474.2,134.5 L469.0,130.6 L468.7,128.0 Z M397.5,105.1 L400.0,101.3 L405.7,96.4 L412.5,98.4 L413.5,100.8 L415.9,101.9 L415.3,105.6 L416.8,107.9 L415.2,109.8 L416.5,114.7 L408.9,117.3 L405.9,119.8 L401.1,114.4 L396.2,113.0 L395.9,110.2 Z M328.5,39.1 L330.6,37.0 L338.3,36.7 L340.0,33.9 L346.8,32.3 L348.9,30.4 L353.0,33.1 L356.8,30.4 L360.3,31.3 L360.4,24.2 L362.6,23.2 L367.8,24.1 L369.1,25.6 L370.5,23.1 L375.7,20.4 L378.4,22.7 L378.4,25.0 L389.8,24.0 L391.4,21.8 L395.2,20.5 L396.8,21.9 L398.2,28.1 L400.6,30.7 L401.7,33.7 L405.4,33.9 L411.0,37.0 L415.3,41.8 L416.8,41.8 L417.4,37.3 L423.7,36.4 L426.0,37.8 L438.4,42.9 L445.8,46.9 L449.1,51.3 L454.1,52.2 L466.7,47.9 L470.6,47.8 L474.0,44.2 L480.7,44.6 L484.6,45.8 L486.6,44.2 L490.1,43.6 L493.6,41.3 L499.0,44.9 L504.9,43.7 L509.5,40.9 L517.0,39.1 L520.8,30.2 L518.6,27.0 L519.9,23.0 L519.3,20.5 L517.1,18.9 L517.1,16.6 L515.2,12.4 L512.2,11.4 L510.7,6.0 L511.6,4.2 L515.1,2.0 L521.2,1.2 L524.5,0.0 L527.6,3.0 L534.0,2.8 L537.4,5.1 L542.9,6.5 L542.1,9.3 L550.7,14.8 L552.0,12.6 L554.0,27.0 L555.9,36.0 L554.9,39.8 L552.6,41.0 L548.7,38.9 L544.9,43.1 L538.0,48.5 L533.2,49.1 L533.6,51.6 L532.5,55.8 L533.8,59.3 L532.4,62.3 L534.1,63.1 L532.9,65.7 L535.0,70.4 L537.0,71.4 L536.0,74.3 L534.2,74.9 L536.0,78.1 L531.2,82.0 L531.0,84.1 L528.6,82.7 L527.1,86.2 L526.1,84.9 L525.2,90.1 L521.1,93.7 L519.4,98.3 L515.5,101.6 L512.6,101.3 L511.2,95.6 L509.5,94.2 L513.7,93.1 L512.0,91.9 L509.5,93.5 L505.3,90.8 L501.2,90.9 L494.0,89.9 L488.6,90.5 L478.9,88.2 L473.8,88.9 L469.9,86.3 L464.7,85.4 L458.7,82.0 L455.6,81.0 L453.0,83.6 L446.5,82.1 L443.0,80.1 L443.4,78.0 L445.6,76.8 L443.2,75.4 L435.7,75.9 L435.7,77.5 L432.1,79.7 L432.0,82.3 L429.3,82.4 L422.5,86.1 L417.8,91.3 L415.1,90.2 L412.2,91.5 L407.2,88.8 L405.1,90.9 L400.5,84.1 L399.9,81.6 L395.2,80.7 L392.1,82.7 L390.5,82.1 L386.6,83.2 L385.1,85.5 L380.6,89.0 L382.1,90.6 L380.4,91.9 L382.7,93.8 L365.2,104.2 L362.4,104.9 L355.8,103.8 L345.7,98.9 L345.9,98.1 L352.4,96.7 L358.0,92.5 L359.6,90.0 L365.0,85.5 L366.0,81.5 L365.7,77.3 L360.4,73.3 L357.3,69.1 L353.1,70.6 L350.8,68.2 L346.8,67.2 L342.9,64.2 L334.2,54.1 L335.5,48.8 L329.1,45.7 L328.0,41.3 Z">
  <desc xmlns="http://www.highcharts.com/svg/namespace">
    <labelrank>6</labelrank>
    <hasc>GR.MT</hasc>
    <alt-name>Macedonia East and Thrace</alt-name>
    <woe-id>12577878</woe-id>
    <subregion>NULL</subregion>
    <fips>GR01</fips>
    <postal-code>MT</postal-code>
    <name>Anatoliki Makedonia kai Thraki</name>
    <country>Greece</country>
    <type-en>Region</type-en>
    <region>NULL</region>
    <longitude>25.2076</longitude>
    <woe-name>Anatoliki Makedonia kai Thraki</woe-name>
    <latitude>41.1043</latitude>
    <woe-label>Anatoliki Makedonia, GR, Greece</woe-label>
    <type>Diamerismata</type>
    <hc-middle-x>0.34</hc-middle-x>
    <hc-middle-y>0.47</hc-middle-y>
    <hc-key>gr-mt</hc-key>
    <hc-a2>MT</hc-a2>
  </desc>
</path>

<path fill="#CEE3F5" stroke="#6E6E6E" stroke-width="0.4" id="GR.GW" d="M171.5,437.5 L165.8,425.3 L161.4,418.9 L153.0,413.0 L149.9,409.2 L145.2,407.7 L142.7,410.8 L141.7,407.2 L142.9,401.9 L141.7,397.3 L136.4,393.1 L128.1,390.3 L127.0,386.2 L129.4,379.4 L131.8,381.2 L135.3,379.6 L141.0,374.3 L144.9,372.4 L144.3,371.0 L141.5,372.9 L148.4,362.5 L149.3,352.5 L151.9,356.1 L151.7,353.8 L157.1,355.2 L160.9,358.3 L167.2,359.9 L172.9,357.2 L175.1,354.7 L180.3,345.8 L187.1,341.4 L192.3,342.6 L195.5,342.0 L200.5,344.5 L201.8,347.6 L205.9,349.8 L207.8,349.2 L210.1,351.1 L211.5,354.7 L216.6,357.6 L226.9,360.1 L226.1,364.1 L227.9,367.4 L224.2,376.4 L216.6,379.9 L214.9,388.4 L216.1,392.7 L211.6,394.3 L209.4,396.7 L206.4,395.3 L202.1,395.6 L198.6,398.0 L188.0,392.5 L187.4,389.6 L184.5,390.2 L179.8,397.6 L179.3,401.6 L180.8,406.6 L180.7,417.5 L186.0,418.5 L193.2,424.5 L195.5,427.4 L193.2,429.1 L191.5,427.7 L188.0,431.2 L188.1,434.0 L183.6,438.4 L178.1,438.2 L172.8,436.9 Z M187.4,336.7 L185.8,335.8 L181.9,339.0 L180.2,342.5 L176.6,339.5 L167.4,339.9 L162.2,343.5 L161.3,345.3 L157.5,344.2 L153.8,341.6 L155.2,341.3 L158.6,343.8 L157.7,337.6 L153.4,338.2 L153.1,335.2 L149.4,333.7 L148.8,327.7 L146.0,324.8 L145.1,325.7 L148.2,331.2 L146.8,334.9 L142.1,337.2 L138.4,341.3 L135.0,340.0 L135.8,341.8 L132.2,343.6 L131.1,340.3 L126.8,339.5 L131.3,334.1 L127.1,332.8 L127.1,329.8 L128.8,331.3 L128.9,325.7 L126.8,325.1 L127.5,320.2 L123.4,323.0 L122.1,319.0 L122.9,312.8 L121.3,310.9 L119.5,306.3 L116.4,306.1 L114.0,303.5 L112.3,295.3 L110.6,292.8 L103.6,296.8 L100.3,292.5 L102.1,287.1 L106.1,286.5 L103.4,283.7 L103.0,278.8 L107.6,280.9 L111.7,277.1 L111.5,280.5 L114.5,280.5 L115.9,277.9 L124.1,280.3 L123.9,283.8 L128.5,287.3 L129.1,283.3 L131.4,282.8 L135.3,286.6 L136.0,285.4 L133.1,280.8 L133.2,277.6 L134.7,274.1 L129.1,267.4 L127.1,269.7 L127.9,266.0 L130.7,264.3 L140.5,264.4 L145.0,262.8 L151.0,258.9 L150.9,262.2 L153.4,266.5 L150.8,273.0 L151.1,274.4 L158.8,279.4 L159.1,285.2 L162.8,287.5 L169.6,289.9 L169.6,291.3 L163.7,294.6 L163.1,297.5 L165.3,301.8 L172.1,306.0 L179.1,305.7 L179.7,308.5 L184.3,306.1 L184.8,302.0 L188.9,302.5 L196.6,298.7 L199.7,301.4 L198.4,305.3 L197.9,313.8 L196.8,316.3 L199.1,319.0 L197.7,321.7 L198.0,324.8 L195.6,326.8 L192.7,327.4 L189.4,330.1 L187.7,333.1 Z">
  <desc xmlns="http://www.highcharts.com/svg/namespace">
    <labelrank>6</labelrank>
    <hasc>GR.GW</hasc>
    <alt-name>Greece West</alt-name>
    <woe-id>12577880</woe-id>
    <subregion>NULL</subregion>
    <fips>GR38</fips>
    <postal-code>GW</postal-code>
    <name>Dytiki Ellada</name>
    <country>Greece</country>
    <type-en>Region</type-en>
    <region>Peloponnisos</region>
    <longitude>21.7273</longitude>
    <woe-name>Dytiki Ellada</woe-name>
    <latitude>38.0299</latitude>
    <woe-label>Dytiki Ellada, GR, Greece</woe-label>
    <type>Diamerismata</type>
    <hc-middle-x>0.61</hc-middle-x>
    <hc-middle-y>0.67</hc-middle-y>
    <hc-key>gr-gw</hc-key>
    <hc-a2>GW</hc-a2>
  </desc>
</path>

<path fill="#CEE3F5" stroke="#6E6E6E" stroke-width="0.4" id="GR.MW" d="M106.6,141.6 L109.2,136.3 L109.3,131.3 L112.4,129.0 L113.9,126.2 L117.0,125.6 L120.4,127.0 L122.3,125.7 L124.1,121.5 L128.5,118.3 L130.5,109.2 L129.5,104.4 L134.5,101.8 L138.1,97.2 L136.9,92.3 L134.8,92.5 L132.1,95.3 L134.6,97.8 L134.0,100.0 L129.1,103.7 L125.3,99.4 L123.9,96.4 L125.6,93.5 L129.0,91.4 L130.3,88.6 L133.2,89.4 L134.4,91.6 L137.5,87.8 L142.5,86.5 L151.0,87.7 L154.8,86.6 L157.6,83.9 L161.3,83.2 L167.4,84.2 L170.7,87.3 L172.8,87.8 L178.6,82.7 L180.8,81.8 L186.3,82.5 L186.7,86.0 L190.4,88.6 L188.8,91.1 L181.6,92.0 L184.1,100.7 L186.7,101.8 L184.8,107.5 L194.9,109.9 L193.0,114.2 L193.0,117.0 L195.0,119.8 L193.9,123.8 L197.8,129.5 L203.1,132.7 L204.3,134.8 L208.7,134.2 L209.2,138.5 L211.7,141.4 L212.8,145.8 L216.4,147.5 L214.8,152.8 L210.7,155.3 L210.3,158.8 L205.3,167.3 L201.5,171.0 L199.1,176.3 L196.0,177.9 L190.6,182.5 L193.1,184.0 L194.0,189.7 L192.7,192.0 L188.7,191.2 L182.9,192.3 L180.1,192.1 L172.4,189.9 L161.1,188.1 L156.4,190.2 L154.6,192.7 L149.8,194.5 L147.4,193.5 L147.4,192.2 L142.4,189.0 L139.7,188.8 L132.3,190.8 L129.6,187.2 L128.8,181.6 L126.4,179.2 L128.6,175.2 L127.7,171.2 L124.7,172.5 L122.7,169.7 L121.8,165.4 L120.6,164.4 L123.0,159.3 L122.2,155.0 L120.2,150.5 L117.1,146.3 L114.7,140.1 L111.8,140.7 L109.2,142.7 Z">
  <desc xmlns="http://www.highcharts.com/svg/namespace">
    <labelrank>6</labelrank>
    <hasc>GR.MW</hasc>
    <alt-name>Macedonia West</alt-name>
    <woe-id>12577881</woe-id>
    <subregion>NULL</subregion>
    <fips>GR08</fips>
    <postal-code>MW</postal-code>
    <name>Dytiki Makedonia</name>
    <country>Greece</country>
    <type-en>Region</type-en>
    <region>NULL</region>
    <longitude>21.4551</longitude>
    <woe-name>Dytiki Makedonia</woe-name>
    <latitude>40.3834</latitude>
    <woe-label>Dytiki Makedonia, GR, Greece</woe-label>
    <type>Diamerismata</type>
    <hc-middle-x>0.53</hc-middle-x>
    <hc-middle-y>0.51</hc-middle-y>
    <hc-key>gr-mw</hc-key>
    <hc-a2>MW</hc-a2>
  </desc>
</path>

<path fill="#CEE3F5" stroke="#6E6E6E" stroke-width="0.4" id="GR.EP" d="M127.1,269.7 L125.2,271.4 L126.8,272.7 L122.5,272.0 L119.7,269.5 L118.0,269.5 L117.1,266.8 L114.2,265.5 L111.4,268.9 L109.6,262.2 L107.4,261.8 L105.1,263.8 L106.2,264.8 L105.5,268.0 L103.3,271.3 L108.3,275.2 L108.0,276.8 L104.4,275.1 L101.3,277.8 L98.9,272.9 L100.1,271.2 L98.0,265.4 L91.1,260.0 L85.3,252.0 L82.3,249.5 L82.8,243.7 L77.9,243.4 L76.0,242.0 L73.8,242.8 L70.7,241.1 L68.3,238.0 L68.2,234.9 L62.7,227.1 L66.8,226.6 L62.9,221.6 L66.0,222.0 L66.8,220.4 L62.0,218.1 L56.7,217.8 L57.9,213.8 L60.1,213.2 L60.9,208.5 L53.9,203.3 L47.9,201.0 L48.4,200.2 L54.0,202.3 L59.6,206.4 L62.3,207.0 L62.8,205.0 L66.0,204.9 L66.3,202.7 L70.4,198.5 L68.7,195.2 L68.7,191.5 L70.7,190.7 L76.2,193.1 L77.6,191.8 L78.1,188.0 L74.8,182.0 L72.6,179.5 L71.7,173.3 L72.3,172.3 L77.5,172.1 L79.5,167.0 L82.1,165.3 L87.3,164.7 L93.3,165.3 L98.2,163.2 L100.5,158.5 L100.0,155.0 L103.0,150.9 L103.0,146.8 L104.0,143.6 L106.6,141.6 L109.2,142.7 L111.8,140.7 L114.7,140.1 L117.1,146.3 L120.2,150.5 L122.2,155.0 L123.0,159.3 L120.6,164.4 L121.8,165.4 L122.7,169.7 L124.7,172.5 L127.7,171.2 L128.6,175.2 L126.4,179.2 L128.8,181.6 L129.6,187.2 L132.3,190.8 L139.7,188.8 L142.4,189.0 L147.4,192.2 L147.4,193.5 L145.3,192.9 L141.5,195.5 L140.1,198.3 L141.2,207.0 L135.6,205.7 L133.0,207.7 L133.8,213.6 L137.0,217.3 L137.0,222.8 L135.7,225.3 L137.3,228.6 L137.5,232.0 L141.1,235.1 L142.1,238.6 L144.8,240.7 L150.2,241.2 L153.1,246.4 L148.9,254.1 L151.0,258.9 L145.0,262.8 L140.5,264.4 L130.7,264.3 L127.9,266.0 Z">
  <desc xmlns="http://www.highcharts.com/svg/namespace">
    <labelrank>6</labelrank>
    <hasc>GR.EP</hasc>
    <alt-name>Epirus</alt-name>
    <woe-id>12577883</woe-id>
    <subregion>NULL</subregion>
    <fips>GR17</fips>
    <postal-code>EP</postal-code>
    <name>Ipeiros</name>
    <country>Greece</country>
    <type-en>Region</type-en>
    <region>NULL</region>
    <longitude>20.6925</longitude>
    <woe-name>Ipeiros</woe-name>
    <latitude>39.6365</latitude>
    <woe-label>Ipiros, GR, Greece</woe-label>
    <type>Diamerismata</type>
    <hc-middle-x>0.51</hc-middle-x>
    <hc-middle-y>0.46</hc-middle-y>
    <hc-key>gr-ep</hc-key>
    <hc-a2>EP</hc-a2>
  </desc>
</path>
</g>

<text x="350" y="714" text-anchor="middle" font-family="Verdana" font-size="8" stroke-opacity="0.6">Copyright (c) 2014 Highsoft AS, Based on data from Natural Earth</text>

</svg>