<?xml version="1.0" encoding="utf-8" standalone="no"?>
<!DOCTYPE svg PUBLIC "-//W3C//DTD SVG 1.1//EN" "http://www.w3.org/Graphics/SVG/1.1/DTD/svg11.dtd">

<svg version="1.1" height="700pt" width="700pt" xmlns="http://www.w3.org/2000/svg" xmlns:xlink="http://www.w3.org/1999/xlink">
<desc>
Map version: 1.1.1
Copyright (c) 2014 Highsoft AS, Based on data from Natural Earth
</desc>
<title>Mexico</title>
<g id="admin1">

<g id="MX">
  <desc xmlns="http://www.highcharts.com/svg/namespace">
    <name>Mexico</name>
    <labelrank>2</labelrank>
    <country-abbrev>Mex.</country-abbrev>
    <subregion>Central America</subregion>
    <woe-id>23424900</woe-id>
    <region-wb>Latin America &amp; Caribbean</region-wb>
    <iso-a3>MEX</iso-a3>
    <iso-a2>MX</iso-a2>
    <region-un>Americas</region-un>
    <continent>North America</continent>
    <hc-key>mx</hc-key>
    <hc-a2>ME</hc-a2>
  </desc>
</g>

<path fill="#CEE3F5" stroke="#6E6E6E" stroke-width="0.4" id="MX.3622" d="M626.7,239.0 L628.8,241.4 L628.5,243.5 L627.8,241.2 Z">
  <desc xmlns="http://www.highcharts.com/svg/namespace">
    <labelrank>20</labelrank>
    <hasc>-99</hasc>
    <alt-name>NULL</alt-name>
    <woe-id>-99</woe-id>
    <subregion>NULL</subregion>
    <fips>NULL</fips>
    <postal-code>NULL</postal-code>
    <name>NULL</name>
    <country>Mexico</country>
    <type-en>NULL</type-en>
    <region>NULL</region>
    <longitude>-89.66330000000001</longitude>
    <woe-name>NULL</woe-name>
    <latitude>22.3858</latitude>
    <woe-label>NULL</woe-label>
    <type>NULL</type>
    <hc-middle-x>0.65</hc-middle-x>
    <hc-middle-y>0.45</hc-middle-y>
    <hc-key>mx-3622</hc-key>
    <hc-a2>NU</hc-a2>
  </desc>
</path>

<path fill="#CEE3F5" stroke="#6E6E6E" stroke-width="0.4" id="MX.BC" d="M65.5,112.1 L65.3,113.8 L61.7,112.1 L64.6,108.6 L65.4,105.2 L66.3,108.1 Z M2.1,85.3 L0.8,85.7 L0.0,79.2 L2.5,81.7 Z M86.3,116.2 L88.0,114.3 L87.6,116.3 Z M88.6,116.4 L88.5,115.7 L89.2,116.5 Z M83.3,6.0 L80.6,6.7 L78.2,11.0 L79.6,14.4 L79.5,20.1 L81.4,23.2 L82.1,26.5 L80.3,29.5 L78.7,38.3 L79.5,42.2 L81.7,44.0 L81.4,51.4 L82.4,56.7 L81.2,62.5 L83.4,67.9 L85.5,69.6 L86.0,72.7 L89.8,73.9 L92.9,77.8 L98.4,82.9 L101.2,86.9 L100.4,87.7 L102.7,91.9 L102.6,95.8 L104.7,94.3 L106.1,98.3 L108.1,97.5 L109.4,99.9 L110.9,105.9 L116.3,107.8 L115.4,111.6 L117.1,113.8 L117.3,118.6 L102.0,117.4 L89.4,116.5 L88.5,113.5 L89.9,111.5 L88.5,110.2 L90.7,105.4 L88.5,100.6 L86.2,100.1 L82.4,93.2 L80.0,92.1 L79.4,88.9 L77.6,88.2 L72.8,81.4 L68.4,79.7 L66.5,77.1 L62.2,74.7 L58.3,70.7 L58.6,67.3 L56.5,65.6 L57.3,62.4 L56.8,56.1 L52.7,52.4 L53.6,46.3 L53.1,44.3 L51.0,42.9 L49.7,40.4 L47.9,40.2 L49.0,35.6 L45.2,28.0 L42.4,24.9 L44.5,17.6 L40.2,13.9 L38.8,7.4 L37.3,6.4 L35.9,0.0 L85.7,1.1 Z M106.8,89.3 L102.2,83.2 L102.8,79.8 L104.2,79.9 L107.3,84.2 L106.7,85.9 L110.6,86.7 L111.5,94.2 Z">
  <desc xmlns="http://www.highcharts.com/svg/namespace">
    <labelrank>4</labelrank>
    <hasc>MX.BN</hasc>
    <alt-name>NULL</alt-name>
    <woe-id>2346265</woe-id>
    <subregion>NULL</subregion>
    <fips>MX02</fips>
    <postal-code>BC</postal-code>
    <name>Baja California</name>
    <country>Mexico</country>
    <type-en>State</type-en>
    <region>NULL</region>
    <longitude>-115.209</longitude>
    <woe-name>Baja California</woe-name>
    <latitude>30.3399</latitude>
    <woe-label>Baja California, MX, Mexico</woe-label>
    <type>Estado</type>
    <hc-middle-x>0.53</hc-middle-x>
    <hc-middle-y>0.21</hc-middle-y>
    <hc-key>mx-bc</hc-key>
    <hc-a2>BC</hc-a2>
  </desc>
</path>

<path fill="#CEE3F5" stroke="#6E6E6E" stroke-width="0.4" id="MX.BS" d="M176.9,214.9 L175.5,215.0 L174.7,213.7 L174.2,209.5 Z M129.3,203.8 L131.7,203.9 L135.3,207.7 L134.8,209.4 Z M164.9,204.9 L166.4,206.8 L165.5,208.5 L163.7,204.3 Z M160.3,192.9 L161.6,196.7 L158.9,195.0 L157.7,192.9 Z M125.7,192.2 L124.1,197.0 L122.3,196.8 L124.8,191.5 Z M151.4,167.4 L147.3,173.2 L147.8,170.7 L148.8,167.9 Z M86.3,116.2 L87.6,116.3 L88.3,118.2 L88.6,116.4 L89.2,116.5 L89.3,116.6 L89.4,116.5 L102.0,117.4 L117.3,118.6 L116.9,121.9 L120.3,127.2 L125.0,129.7 L127.9,138.5 L133.4,141.6 L131.8,144.3 L134.7,148.1 L133.8,150.4 L136.2,154.4 L138.6,154.3 L135.8,151.0 L136.0,146.6 L141.3,151.7 L140.9,154.6 L143.6,156.2 L143.0,159.0 L145.7,167.0 L144.6,169.6 L145.6,174.2 L147.5,176.2 L149.5,180.5 L151.3,182.5 L153.6,190.0 L156.7,193.3 L158.7,198.3 L156.6,204.3 L157.6,209.1 L160.1,212.8 L164.7,215.3 L165.9,212.9 L165.1,210.5 L167.5,209.9 L168.7,212.2 L172.3,214.6 L172.6,217.3 L176.2,217.1 L176.1,220.7 L178.8,223.5 L179.1,227.2 L183.5,229.5 L184.5,232.0 L184.4,235.8 L181.9,240.3 L177.8,242.0 L173.6,245.7 L172.3,245.7 L169.2,242.0 L167.9,234.6 L165.0,229.2 L159.2,225.6 L149.4,214.9 L140.2,208.8 L135.3,203.7 L133.1,203.4 L132.2,200.7 L129.8,197.6 L127.1,197.5 L126.0,195.0 L126.7,187.8 L128.0,185.8 L127.7,180.9 L128.1,174.4 L126.4,167.8 L124.4,166.4 L123.5,163.2 L121.4,161.1 L120.2,161.6 L115.4,158.0 L108.5,152.0 L106.6,147.3 L107.3,142.9 L103.9,148.0 L99.2,146.6 L98.2,148.4 L96.2,148.1 L92.7,142.4 L88.7,141.4 L86.5,138.1 L82.7,137.3 L78.7,134.2 L78.6,130.1 L73.9,126.9 L71.7,122.8 L70.7,123.1 L68.0,120.6 L67.7,118.1 L77.3,121.0 L79.5,121.2 L83.5,119.1 L84.1,122.5 L87.7,126.1 L91.9,123.5 L89.7,122.6 L87.9,123.5 L86.7,120.5 L87.0,117.5 L84.7,118.9 Z">
  <desc xmlns="http://www.highcharts.com/svg/namespace">
    <labelrank>4</labelrank>
    <hasc>MX.BS</hasc>
    <alt-name>NULL</alt-name>
    <woe-id>2346266</woe-id>
    <subregion>NULL</subregion>
    <fips>MX03</fips>
    <postal-code>BS</postal-code>
    <name>Baja California Sur</name>
    <country>Mexico</country>
    <type-en>State</type-en>
    <region>NULL</region>
    <longitude>-111.452</longitude>
    <woe-name>Baja California Sur</woe-name>
    <latitude>25.0656</latitude>
    <woe-label>Baja California Sur, MX, Mexico</woe-label>
    <type>Estado</type>
    <hc-middle-x>0.42</hc-middle-x>
    <hc-middle-y>0.19</hc-middle-y>
    <hc-key>mx-bs</hc-key>
    <hc-a2>BS</hc-a2>
  </desc>
</path>

<path fill="#CEE3F5" stroke="#6E6E6E" stroke-width="0.4" id="MX.SO" d="M128.6,101.7 L122.6,97.7 L124.9,95.5 L124.7,93.0 L126.2,90.0 L129.6,89.7 L131.1,94.7 Z M84.5,25.2 L83.5,25.7 L81.9,24.1 L82.9,23.2 Z M207.5,152.2 L193.4,163.0 L190.9,162.5 L191.0,158.9 L185.3,152.5 L185.2,154.2 L180.1,153.4 L178.3,151.1 L176.1,145.0 L169.4,142.3 L164.3,138.3 L166.6,138.4 L163.3,134.7 L162.6,130.8 L163.7,129.4 L163.1,125.9 L165.2,125.2 L159.1,122.9 L158.3,121.4 L157.3,124.9 L155.1,121.8 L153.8,122.4 L149.8,119.4 L145.5,111.2 L140.6,108.9 L139.7,105.9 L135.9,101.5 L136.5,100.4 L132.0,95.6 L130.7,90.6 L130.7,87.6 L128.6,87.9 L126.9,85.8 L128.0,83.8 L122.2,72.6 L120.9,72.1 L121.3,65.7 L119.2,63.6 L119.3,59.7 L115.4,53.5 L114.6,50.0 L116.9,41.8 L113.4,39.4 L106.8,37.6 L104.9,32.5 L99.4,29.5 L97.3,32.0 L94.6,31.7 L88.0,26.6 L86.4,24.4 L84.5,24.1 L79.5,20.1 L79.6,14.4 L78.2,11.0 L80.6,6.7 L83.3,6.0 L149.5,36.4 L159.6,40.6 L201.8,42.8 L199.7,54.8 L204.6,59.6 L209.0,62.9 L209.5,74.2 L209.1,75.2 L207.4,89.3 L205.4,89.4 L206.6,104.7 L206.0,108.6 L208.0,115.6 L205.8,117.5 L200.7,116.1 L196.7,116.2 L195.0,118.5 L197.4,125.1 L199.7,126.9 L202.7,130.9 L202.3,132.2 L204.9,135.0 L205.1,139.7 L204.1,142.8 L206.2,146.3 L208.3,147.6 L208.3,147.6 L208.5,147.9 L208.5,147.9 Z M190.0,165.1 L190.7,163.6 L190.2,165.1 L190.1,165.1 Z M191.3,164.6 L191.5,162.8 L193.0,163.5 L192.3,164.0 Z">
  <desc xmlns="http://www.highcharts.com/svg/namespace">
    <labelrank>4</labelrank>
    <hasc>MX.SO</hasc>
    <alt-name>NULL</alt-name>
    <woe-id>2346289</woe-id>
    <subregion>NULL</subregion>
    <fips>MX26</fips>
    <postal-code>SO</postal-code>
    <name>Sonora</name>
    <country>Mexico</country>
    <type-en>State</type-en>
    <region>NULL</region>
    <longitude>-110.485</longitude>
    <woe-name>Sonora</woe-name>
    <latitude>29.5293</latitude>
    <woe-label>Sonora, MX, Mexico</woe-label>
    <type>Estado</type>
    <hc-middle-x>0.66</hc-middle-x>
    <hc-middle-y>0.43</hc-middle-y>
    <hc-key>mx-so</hc-key>
    <hc-a2>SO</hc-a2>
  </desc>
</path>

<path fill="#CEE3F5" stroke="#6E6E6E" stroke-width="0.4" id="MX.CL" d="M146.5,344.8 L143.2,343.7 L144.9,341.3 L146.8,343.9 Z M311.0,348.4 L305.6,344.0 L297.6,340.5 L298.2,339.1 L291.6,337.4 L292.9,335.1 L294.3,335.5 L300.2,333.3 L302.3,329.7 L304.0,329.0 L308.9,331.5 L313.4,329.3 L316.6,333.4 L316.0,338.8 L317.1,341.8 L314.1,343.6 L313.7,345.7 Z">
  <desc xmlns="http://www.highcharts.com/svg/namespace">
    <labelrank>7</labelrank>
    <hasc>MX.CL</hasc>
    <alt-name>NULL</alt-name>
    <woe-id>2346271</woe-id>
    <subregion>NULL</subregion>
    <fips>MX08</fips>
    <postal-code>CL</postal-code>
    <name>Colima</name>
    <country>Mexico</country>
    <type-en>State</type-en>
    <region>NULL</region>
    <longitude>-103.915</longitude>
    <woe-name>Colima</woe-name>
    <latitude>19.1325</latitude>
    <woe-label>Colima, MX, Mexico</woe-label>
    <type>Estado</type>
    <hc-middle-x>0.93</hc-middle-x>
    <hc-middle-y>0.55</hc-middle-y>
    <hc-key>mx-cl</hc-key>
    <hc-a2>CL</hc-a2>
  </desc>
</path>

<path fill="#CEE3F5" stroke="#6E6E6E" stroke-width="0.4" id="MX.NA" d="M245.7,275.9 L248.1,276.9 L247.8,279.2 L245.9,278.2 Z M298.0,261.3 L297.8,262.0 L297.6,262.6 L296.1,266.9 L302.8,274.2 L300.3,280.5 L306.3,284.0 L305.4,286.5 L300.0,288.9 L300.2,293.7 L298.9,296.3 L298.6,300.0 L294.3,296.8 L287.1,292.6 L284.2,294.6 L280.3,294.9 L275.9,300.5 L274.3,298.6 L271.7,298.9 L272.2,296.1 L275.5,292.2 L277.2,291.5 L277.0,284.7 L278.0,281.1 L273.2,278.5 L268.4,269.9 L268.0,262.7 L266.5,256.6 L269.0,255.7 L272.2,257.0 L271.8,252.5 L269.9,249.9 L272.6,247.3 L272.2,245.2 L274.1,244.1 L279.8,244.5 L283.9,247.0 L285.2,250.0 L282.8,252.7 L283.3,256.0 L287.7,252.7 L290.1,254.0 L291.8,258.0 L294.3,259.0 L297.5,257.6 Z">
  <desc xmlns="http://www.highcharts.com/svg/namespace">
    <labelrank>4</labelrank>
    <hasc>MX.NA</hasc>
    <alt-name>NULL</alt-name>
    <woe-id>2346281</woe-id>
    <subregion>NULL</subregion>
    <fips>MX18</fips>
    <postal-code>NA</postal-code>
    <name>Nayarit</name>
    <country>Mexico</country>
    <type-en>State</type-en>
    <region>NULL</region>
    <longitude>-104.824</longitude>
    <woe-name>Nayarit</woe-name>
    <latitude>21.7934</latitude>
    <woe-label>Nayarit, MX, Mexico</woe-label>
    <type>Estado</type>
    <hc-middle-x>0.66</hc-middle-x>
    <hc-middle-y>0.50</hc-middle-y>
    <hc-key>mx-na</hc-key>
    <hc-a2>NA</hc-a2>
  </desc>
</path>

<path fill="#CEE3F5" stroke="#6E6E6E" stroke-width="0.4" id="MX.CM" d="M592.4,335.9 L589.4,338.0 L585.6,338.7 L591.6,335.3 Z M649.9,351.6 L649.8,355.0 L607.3,358.3 L606.6,358.7 L606.3,354.6 L603.6,354.7 L598.6,352.9 L592.6,352.2 L591.3,356.1 L586.0,356.4 L578.7,351.6 L578.4,344.4 L573.5,344.8 L570.4,340.3 L580.0,338.4 L582.7,338.5 L584.9,340.3 L581.4,340.5 L586.5,343.1 L591.4,343.9 L597.2,340.3 L598.5,336.2 L594.4,333.0 L600.4,329.2 L605.4,325.1 L609.8,319.5 L609.7,311.9 L610.5,309.5 L614.6,305.7 L613.8,302.1 L613.6,293.7 L613.0,290.6 L613.5,285.5 L614.9,283.3 L615.2,290.1 L618.9,290.7 L620.7,292.7 L624.1,291.3 L629.6,299.0 L634.1,301.6 L638.7,307.1 L639.9,310.2 L647.0,315.6 L650.3,320.0 L650.5,324.6 L649.2,326.5 L649.2,333.2 L651.9,345.1 L649.5,349.6 Z">
  <desc xmlns="http://www.highcharts.com/svg/namespace">
    <labelrank>6</labelrank>
    <hasc>MX.CM</hasc>
    <alt-name>NULL</alt-name>
    <woe-id>2346267</woe-id>
    <subregion>NULL</subregion>
    <fips>MX04</fips>
    <postal-code>CM</postal-code>
    <name>Campeche</name>
    <country>Mexico</country>
    <type-en>State</type-en>
    <region>NULL</region>
    <longitude>-90.2807</longitude>
    <woe-name>Campeche</woe-name>
    <latitude>18.6624</latitude>
    <woe-label>Campeche, MX, Mexico</woe-label>
    <type>Estado</type>
    <hc-middle-x>0.70</hc-middle-x>
    <hc-middle-y>0.60</hc-middle-y>
    <hc-key>mx-cm</hc-key>
    <hc-a2>CM</hc-a2>
  </desc>
</path>

<path fill="#CEE3F5" stroke="#6E6E6E" stroke-width="0.4" id="MX.QR" d="M700.0,281.2 L696.5,288.0 L695.1,289.5 L694.3,285.1 L695.7,282.2 Z M679.0,260.1 L680.2,260.8 L686.1,260.7 L688.2,257.6 L685.0,257.9 L688.1,256.1 L691.4,257.0 L693.4,259.8 L695.7,259.9 L696.7,265.5 L698.5,266.3 L696.2,274.4 L692.4,280.7 L688.8,284.3 L684.7,292.3 L684.8,300.2 L679.2,307.3 L681.1,309.9 L683.5,308.1 L686.4,308.2 L686.8,309.7 L681.8,313.1 L681.4,316.5 L686.1,314.1 L683.9,321.8 L683.1,328.2 L681.9,330.5 L681.4,337.4 L680.2,342.8 L679.4,339.6 L677.4,336.9 L673.9,335.8 L675.3,330.9 L674.0,326.4 L671.9,329.4 L669.1,336.4 L664.2,337.0 L661.8,343.5 L660.0,345.1 L659.3,348.3 L656.3,352.6 L652.0,350.2 L649.9,351.6 L649.5,349.6 L651.9,345.1 L649.2,333.2 L649.2,326.5 L650.5,324.6 L650.3,320.0 L647.0,315.6 L639.9,310.2 L640.6,305.9 L644.4,305.0 L647.7,302.5 L651.0,301.7 L655.4,298.0 L661.3,294.9 L662.7,291.8 L665.0,290.5 L667.3,287.4 L670.8,287.7 L678.1,281.6 L680.6,273.6 L679.0,269.9 L679.9,265.0 Z">
  <desc xmlns="http://www.highcharts.com/svg/namespace">
    <labelrank>4</labelrank>
    <hasc>MX.QR</hasc>
    <alt-name>NULL</alt-name>
    <woe-id>2346286</woe-id>
    <subregion>NULL</subregion>
    <fips>MX23</fips>
    <postal-code>QR</postal-code>
    <name>Quintana Roo</name>
    <country>Mexico</country>
    <type-en>State</type-en>
    <region>NULL</region>
    <longitude>-88.34399999999999</longitude>
    <woe-name>Quintana Roo</woe-name>
    <latitude>19.3861</latitude>
    <woe-label>Quintana Roo, MX, Mexico</woe-label>
    <type>Estado</type>
    <hc-middle-x>0.45</hc-middle-x>
    <hc-middle-y>0.64</hc-middle-y>
    <hc-key>mx-qr</hc-key>
    <hc-a2>QR</hc-a2>
  </desc>
</path>

<path fill="#CEE3F5" stroke="#6E6E6E" stroke-width="0.4" id="MX.MX" d="M427.6,338.4 L423.7,339.7 L423.1,338.0 L420.2,337.0 L419.4,331.1 L416.2,325.5 L411.7,333.7 L412.8,335.9 L411.8,338.7 L412.5,341.0 L408.8,344.3 L408.3,347.4 L404.5,345.3 L401.7,348.8 L400.2,347.8 L395.2,349.3 L393.5,352.1 L390.6,354.6 L388.5,353.1 L388.8,351.2 L386.8,348.5 L386.2,343.8 L382.4,343.3 L389.6,333.8 L388.8,332.2 L392.7,329.8 L391.3,326.3 L393.2,317.3 L397.0,311.6 L397.2,309.6 L399.3,308.2 L404.0,312.4 L406.1,311.7 L407.6,314.0 L406.9,316.6 L408.6,317.6 L410.1,321.2 L414.1,315.7 L418.3,314.1 L420.4,316.7 L419.6,319.4 L422.6,317.7 L425.7,318.5 L427.9,321.0 L426.8,324.8 L425.7,324.9 L427.3,327.8 L426.7,329.6 L427.7,334.4 Z">
  <desc xmlns="http://www.highcharts.com/svg/namespace">
    <labelrank>4</labelrank>
    <hasc>MX.MX</hasc>
    <alt-name>NULL</alt-name>
    <woe-id>2346278</woe-id>
    <subregion>NULL</subregion>
    <fips>MX15</fips>
    <postal-code>MX</postal-code>
    <name>México</name>
    <country>Mexico</country>
    <type-en>State</type-en>
    <region>NULL</region>
    <longitude>-99.74160000000001</longitude>
    <woe-name>México</woe-name>
    <latitude>19.3275</latitude>
    <woe-label>Mexico, MX, Mexico</woe-label>
    <type>Estado</type>
    <hc-middle-x>0.41</hc-middle-x>
    <hc-middle-y>0.53</hc-middle-y>
    <hc-key>mx-mx</hc-key>
    <hc-a2>MX</hc-a2>
  </desc>
</path>

<path fill="#CEE3F5" stroke="#6E6E6E" stroke-width="0.4" id="MX.MO" d="M420.2,337.0 L423.1,338.0 L423.7,339.7 L427.6,338.4 L427.4,341.6 L425.7,343.5 L427.2,346.5 L425.4,346.4 L427.3,352.8 L424.3,351.2 L418.8,354.9 L415.3,350.0 L414.2,352.5 L412.2,352.6 L408.3,347.4 L408.8,344.3 L412.5,341.0 L411.8,338.7 L412.8,335.9 L418.4,337.8 Z">
  <desc xmlns="http://www.highcharts.com/svg/namespace">
    <labelrank>4</labelrank>
    <hasc>MX.MR</hasc>
    <alt-name>NULL</alt-name>
    <woe-id>2346280</woe-id>
    <subregion>NULL</subregion>
    <fips>MX17</fips>
    <postal-code>MO</postal-code>
    <name>Morelos</name>
    <country>Mexico</country>
    <type-en>State</type-en>
    <region>NULL</region>
    <longitude>-99.07850000000001</longitude>
    <woe-name>Morelos</woe-name>
    <latitude>18.742</latitude>
    <woe-label>Morelos, MX, Mexico</woe-label>
    <type>Estado</type>
    <hc-middle-x>0.52</hc-middle-x>
    <hc-middle-y>0.52</hc-middle-y>
    <hc-key>mx-mo</hc-key>
    <hc-a2>MO</hc-a2>
  </desc>
</path>

<path fill="#CEE3F5" stroke="#6E6E6E" stroke-width="0.4" id="MX.DF" d="M420.2,337.0 L418.4,337.8 L412.8,335.9 L411.7,333.7 L416.2,325.5 L419.4,331.1 Z">
  <desc xmlns="http://www.highcharts.com/svg/namespace">
    <labelrank>4</labelrank>
    <hasc>MX.DF</hasc>
    <alt-name>NULL</alt-name>
    <woe-id>2346272</woe-id>
    <subregion>NULL</subregion>
    <fips>MX09</fips>
    <postal-code>DF</postal-code>
    <name>Distrito Federal</name>
    <country>Mexico</country>
    <type-en>Federal District</type-en>
    <region>NULL</region>
    <longitude>-99.1369</longitude>
    <woe-name>Distrito Federal</woe-name>
    <latitude>19.3266</latitude>
    <woe-label>Distrito Federal, MX, Mexico</woe-label>
    <type>Distrito Federal</type>
    <hc-middle-x>0.47</hc-middle-x>
    <hc-middle-y>0.59</hc-middle-y>
    <hc-key>mx-df</hc-key>
    <hc-a2>DF</hc-a2>
  </desc>
</path>

<path fill="#CEE3F5" stroke="#6E6E6E" stroke-width="0.4" id="MX.QT" d="M399.3,308.2 L397.2,309.6 L397.0,311.6 L393.2,317.3 L391.9,313.8 L389.3,310.8 L387.3,309.4 L384.7,305.5 L384.5,303.0 L382.7,298.3 L384.9,292.7 L388.1,294.4 L391.2,294.7 L393.0,293.8 L394.0,287.9 L396.1,286.8 L399.1,287.8 L401.8,285.6 L399.8,284.5 L399.8,281.5 L401.3,279.1 L404.7,282.0 L409.0,280.9 L412.9,275.6 L415.4,281.9 L415.2,284.1 L416.7,284.6 L416.8,286.8 L409.6,288.6 L409.9,290.6 L406.9,295.3 L407.1,299.5 L404.0,301.8 L399.7,303.3 Z">
  <desc xmlns="http://www.highcharts.com/svg/namespace">
    <labelrank>4</labelrank>
    <hasc>MX.QE</hasc>
    <alt-name>NULL</alt-name>
    <woe-id>2346285</woe-id>
    <subregion>NULL</subregion>
    <fips>MX22</fips>
    <postal-code>QT</postal-code>
    <name>Querétaro</name>
    <country>Mexico</country>
    <type-en>State</type-en>
    <region>NULL</region>
    <longitude>-99.9663</longitude>
    <woe-name>Querétaro</woe-name>
    <latitude>20.7392</latitude>
    <woe-label>Queretaro de Arteaga, MX, Mexico</woe-label>
    <type>Estado</type>
    <hc-middle-x>0.29</hc-middle-x>
    <hc-middle-y>0.59</hc-middle-y>
    <hc-key>mx-qt</hc-key>
    <hc-a2>QT</hc-a2>
  </desc>
</path>

<path fill="#CEE3F5" stroke="#6E6E6E" stroke-width="0.4" id="MX.TB" d="M606.6,358.7 L607.6,372.2 L597.2,372.8 L598.1,370.8 L595.4,367.9 L592.2,366.8 L590.2,362.0 L587.9,361.8 L587.1,358.0 L582.9,357.8 L579.5,360.9 L574.5,363.4 L573.0,365.7 L567.3,371.6 L563.8,371.0 L560.1,367.7 L559.4,358.6 L557.4,359.5 L554.7,357.8 L552.0,358.3 L550.1,366.4 L548.1,368.6 L546.4,373.0 L545.1,372.0 L545.6,368.9 L542.6,366.0 L537.7,364.1 L534.3,361.3 L534.8,358.6 L532.5,353.5 L538.7,350.7 L541.0,351.2 L542.8,349.3 L544.9,349.4 L545.1,347.6 L548.2,346.8 L556.2,346.3 L561.9,345.4 L565.4,341.5 L570.4,340.3 L573.5,344.8 L578.4,344.4 L578.7,351.6 L586.0,356.4 L591.3,356.1 L592.6,352.2 L598.6,352.9 L603.6,354.7 L606.3,354.6 Z">
  <desc xmlns="http://www.highcharts.com/svg/namespace">
    <labelrank>4</labelrank>
    <hasc>MX.TB</hasc>
    <alt-name>NULL</alt-name>
    <woe-id>2346290</woe-id>
    <subregion>NULL</subregion>
    <fips>MX32</fips>
    <postal-code>TB</postal-code>
    <name>Tabasco</name>
    <country>Mexico</country>
    <type-en>State</type-en>
    <region>NULL</region>
    <longitude>-92.8274</longitude>
    <woe-name>Tabasco</woe-name>
    <latitude>18.1252</latitude>
    <woe-label>Tabasco, MX, Mexico</woe-label>
    <type>Estado</type>
    <hc-middle-x>0.48</hc-middle-x>
    <hc-middle-y>0.44</hc-middle-y>
    <hc-key>mx-tb</hc-key>
    <hc-a2>TB</hc-a2>
  </desc>
</path>

<path fill="#CEE3F5" stroke="#6E6E6E" stroke-width="0.4" id="MX.CS" d="M536.2,404.7 L539.4,407.0 L535.8,405.8 Z M540.0,378.9 L545.4,374.9 L546.4,373.0 L548.1,368.6 L550.1,366.4 L552.0,358.3 L554.7,357.8 L557.4,359.5 L559.4,358.6 L560.1,367.7 L563.8,371.0 L567.3,371.6 L573.0,365.7 L574.5,363.4 L579.5,360.9 L582.9,357.8 L587.1,358.0 L587.9,361.8 L590.2,362.0 L592.2,366.8 L595.4,367.9 L598.1,370.8 L597.2,372.8 L600.7,374.2 L606.4,380.5 L614.5,384.1 L617.2,387.8 L617.4,390.5 L619.5,390.1 L623.6,392.9 L622.2,394.4 L622.9,398.0 L621.6,400.4 L592.2,402.3 L591.6,402.9 L581.9,422.1 L585.3,427.2 L583.5,429.2 L582.9,433.7 L583.7,436.4 L581.9,440.3 L570.5,429.8 L567.0,425.5 L563.5,423.7 L557.4,418.2 L546.8,410.5 L539.9,406.7 L540.8,404.7 L536.4,403.5 L537.3,400.4 L535.0,394.8 L536.9,390.9 L536.8,387.3 L539.5,385.5 Z">
  <desc xmlns="http://www.highcharts.com/svg/namespace">
    <labelrank>4</labelrank>
    <hasc>MX.CP</hasc>
    <alt-name>NULL</alt-name>
    <woe-id>2346268</woe-id>
    <subregion>NULL</subregion>
    <fips>MX05</fips>
    <postal-code>CS</postal-code>
    <name>Chiapas</name>
    <country>Mexico</country>
    <type-en>State</type-en>
    <region>NULL</region>
    <longitude>-92.581</longitude>
    <woe-name>Chiapas</woe-name>
    <latitude>16.527</latitude>
    <woe-label>Chiapas, MX, Mexico</woe-label>
    <type>Estado</type>
    <hc-middle-x>0.44</hc-middle-x>
    <hc-middle-y>0.40</hc-middle-y>
    <hc-key>mx-cs</hc-key>
    <hc-a2>CS</hc-a2>
  </desc>
</path>

<path fill="#CEE3F5" stroke="#6E6E6E" stroke-width="0.4" id="MX.NL" d="M394.4,128.5 L395.8,129.7 L396.5,130.9 L392.3,133.4 L392.5,135.2 L395.2,135.5 L397.6,143.8 L396.7,147.2 L397.4,149.5 L400.5,150.9 L398.6,154.6 L403.9,155.8 L404.6,162.1 L405.8,161.3 L407.6,163.6 L409.4,164.0 L410.5,169.3 L412.9,168.3 L415.9,171.1 L417.5,168.9 L423.2,170.8 L423.7,182.7 L426.1,183.9 L416.8,192.4 L413.6,191.8 L410.4,194.9 L411.0,200.2 L408.1,199.0 L404.1,201.3 L402.7,203.6 L398.6,205.6 L399.3,207.9 L401.5,206.9 L402.3,210.9 L401.6,215.9 L402.2,217.6 L405.1,220.1 L402.3,224.8 L397.0,225.6 L394.6,230.8 L395.8,234.5 L392.7,233.6 L390.9,235.1 L392.5,237.8 L386.5,237.6 L386.2,239.2 L384.0,238.3 L383.5,231.5 L382.5,227.9 L382.6,224.1 L380.4,221.5 L379.5,213.0 L374.6,206.4 L375.7,201.9 L375.1,198.5 L376.4,196.8 L374.1,194.9 L375.5,192.4 L380.7,190.2 L384.0,191.0 L386.6,190.6 L387.9,188.9 L385.6,187.3 L382.3,187.5 L379.6,185.8 L373.4,177.1 L373.3,172.9 L369.0,168.2 L367.4,165.2 L365.0,163.1 L374.8,154.2 L375.8,157.0 L378.4,153.3 L378.9,146.9 L376.3,145.4 L375.4,147.3 L373.6,146.4 L373.4,142.7 L377.1,139.8 L381.2,138.4 L382.1,133.0 L383.2,130.6 L386.3,128.3 L391.0,131.8 Z">
  <desc xmlns="http://www.highcharts.com/svg/namespace">
    <labelrank>4</labelrank>
    <hasc>MX.NL</hasc>
    <alt-name>NULL</alt-name>
    <woe-id>2346282</woe-id>
    <subregion>NULL</subregion>
    <fips>MX19</fips>
    <postal-code>NL</postal-code>
    <name>Nuevo León</name>
    <country>Mexico</country>
    <type-en>State</type-en>
    <region>NULL</region>
    <longitude>-99.83069999999999</longitude>
    <woe-name>Nuevo León</woe-name>
    <latitude>25.6178</latitude>
    <woe-label>Nuevo Leon, MX, Mexico</woe-label>
    <type>Estado</type>
    <hc-middle-x>0.46</hc-middle-x>
    <hc-middle-y>0.44</hc-middle-y>
    <hc-key>mx-nl</hc-key>
    <hc-a2>NL</hc-a2>
  </desc>
</path>

<path fill="#CEE3F5" stroke="#6E6E6E" stroke-width="0.4" id="MX.SI" d="M190.2,165.1 L190.2,167.0 L191.3,164.6 L192.3,164.0 L193.0,163.5 L193.9,165.8 L193.4,163.0 L207.5,152.2 L208.3,147.6 L208.3,147.6 L210.5,145.6 L214.3,148.3 L218.0,149.6 L218.4,152.2 L221.8,157.5 L222.6,166.0 L223.2,167.2 L230.7,169.0 L232.2,170.1 L233.9,175.3 L240.8,181.0 L237.2,186.2 L236.4,191.7 L238.3,198.3 L240.5,201.2 L244.3,203.6 L247.2,209.0 L247.7,211.7 L249.7,213.5 L251.9,213.7 L254.8,211.3 L256.5,211.3 L259.6,213.9 L261.9,219.0 L263.8,219.2 L262.6,222.2 L262.9,227.6 L264.5,231.2 L266.9,233.7 L267.5,237.7 L270.5,240.9 L274.0,241.3 L274.1,244.1 L272.2,245.2 L272.6,247.3 L269.9,249.9 L271.8,252.5 L272.2,257.0 L269.0,255.7 L266.5,256.6 L264.8,253.5 L259.7,248.8 L255.6,243.5 L251.0,239.1 L249.0,234.8 L247.0,233.3 L242.6,227.7 L240.7,224.1 L237.8,220.8 L230.4,215.3 L229.9,214.1 L221.8,208.5 L226.9,211.4 L228.3,210.6 L227.5,207.9 L225.1,209.1 L218.4,204.6 L217.1,204.3 L216.3,201.0 L217.7,201.2 L216.4,195.9 L216.0,200.1 L213.7,198.6 L211.0,193.1 L214.1,196.4 L214.2,194.3 L216.9,195.8 L214.9,193.0 L212.5,191.5 L208.8,191.7 L207.5,189.1 L202.4,185.8 L199.9,186.3 L193.2,182.2 L196.4,181.2 L198.0,178.4 L192.9,181.0 L192.1,179.4 L189.3,179.1 L189.6,177.7 L186.3,175.7 L186.7,170.2 L190.0,165.1 L190.1,165.1 Z">
  <desc xmlns="http://www.highcharts.com/svg/namespace">
    <labelrank>4</labelrank>
    <hasc>MX.SI</hasc>
    <alt-name>NULL</alt-name>
    <woe-id>2346288</woe-id>
    <subregion>NULL</subregion>
    <fips>MX25</fips>
    <postal-code>SI</postal-code>
    <name>Sinaloa</name>
    <country>Mexico</country>
    <type-en>State</type-en>
    <region>NULL</region>
    <longitude>-108.001</longitude>
    <woe-name>Sinaloa</woe-name>
    <latitude>25.6041</latitude>
    <woe-label>Sinaloa, MX, Mexico</woe-label>
    <type>Estado</type>
    <hc-middle-x>0.38</hc-middle-x>
    <hc-middle-y>0.32</hc-middle-y>
    <hc-key>mx-si</hc-key>
    <hc-a2>SI</hc-a2>
  </desc>
</path>

<path fill="#CEE3F5" stroke="#6E6E6E" stroke-width="0.4" id="MX.CH" d="M208.3,147.6 L208.3,147.6 L206.2,146.3 L204.1,142.8 L205.1,139.7 L204.9,135.0 L202.3,132.2 L202.7,130.9 L199.7,126.9 L197.4,125.1 L195.0,118.5 L196.7,116.2 L200.7,116.1 L205.8,117.5 L208.0,115.6 L206.0,108.6 L206.6,104.7 L205.4,89.4 L207.4,89.3 L209.1,75.2 L209.5,74.2 L209.0,62.9 L204.6,59.6 L199.7,54.8 L201.8,42.8 L217.4,43.4 L217.7,32.6 L252.6,33.6 L255.9,35.1 L257.3,38.4 L259.8,41.6 L263.0,42.9 L267.9,48.2 L271.5,50.8 L272.2,52.5 L276.1,56.2 L278.9,57.2 L283.5,60.4 L286.0,63.4 L286.7,66.8 L290.2,72.1 L290.3,78.1 L293.4,84.7 L297.2,87.9 L298.9,88.1 L303.3,92.6 L308.9,94.1 L311.5,96.6 L314.2,97.2 L317.8,100.1 L319.1,100.1 L305.4,126.8 L312.8,157.4 L306.0,154.6 L302.2,154.3 L299.7,155.5 L293.5,164.0 L291.8,164.5 L286.7,161.2 L283.4,160.8 L282.5,161.8 L280.6,159.6 L276.0,161.8 L271.1,159.0 L268.4,155.9 L265.7,156.1 L261.0,152.5 L259.6,155.0 L258.1,154.8 L256.6,159.1 L256.5,162.3 L252.1,163.8 L253.3,168.5 L252.7,170.9 L249.9,172.7 L249.4,177.8 L245.5,181.2 L240.8,181.0 L233.9,175.3 L232.2,170.1 L230.7,169.0 L223.2,167.2 L222.6,166.0 L221.8,157.5 L218.4,152.2 L218.0,149.6 L214.3,148.3 L210.5,145.6 L208.5,147.9 Z">
  <desc xmlns="http://www.highcharts.com/svg/namespace">
    <labelrank>6</labelrank>
    <hasc>MX.CH</hasc>
    <alt-name>NULL</alt-name>
    <woe-id>2346269</woe-id>
    <subregion>NULL</subregion>
    <fips>MX06</fips>
    <postal-code>CH</postal-code>
    <name>Chihuahua</name>
    <country>Mexico</country>
    <type-en>State</type-en>
    <region>NULL</region>
    <longitude>-106.232</longitude>
    <woe-name>Chihuahua</woe-name>
    <latitude>28.973</latitude>
    <woe-label>Chihuahua, MX, Mexico</woe-label>
    <type>Estado</type>
    <hc-middle-x>0.44</hc-middle-x>
    <hc-middle-y>0.50</hc-middle-y>
    <hc-key>mx-ch</hc-key>
    <hc-a2>CH</hc-a2>
  </desc>
</path>

<path fill="#CEE3F5" stroke="#6E6E6E" stroke-width="0.4" id="MX.VE" d="M532.5,353.5 L534.8,358.6 L534.3,361.3 L537.7,364.1 L542.6,366.0 L545.6,368.9 L545.1,372.0 L546.4,373.0 L545.4,374.9 L540.0,378.9 L515.1,378.5 L513.5,375.1 L511.7,374.5 L507.3,370.0 L508.2,366.3 L499.0,372.0 L494.7,371.7 L491.8,365.9 L494.7,360.6 L493.1,357.6 L490.3,356.7 L486.8,357.4 L484.0,356.1 L483.4,354.1 L480.3,350.7 L479.4,348.1 L473.4,345.2 L474.3,348.4 L472.2,351.5 L470.4,348.2 L463.3,349.7 L462.6,346.1 L458.5,345.4 L457.9,342.4 L460.2,339.8 L459.1,333.9 L462.7,333.3 L465.5,330.5 L459.8,329.6 L455.6,327.1 L457.5,326.2 L455.8,324.0 L457.2,321.1 L457.3,316.3 L460.7,311.6 L460.7,310.0 L454.9,307.5 L451.8,310.6 L448.4,309.5 L446.4,307.5 L446.3,303.5 L449.3,303.9 L451.1,301.7 L450.3,299.9 L447.6,299.5 L446.6,295.3 L443.8,294.3 L442.3,296.6 L442.1,301.0 L441.1,302.6 L440.4,298.4 L438.3,297.8 L433.5,304.1 L429.8,306.0 L428.1,303.4 L429.4,299.7 L431.0,298.3 L431.8,293.5 L435.4,294.5 L435.4,291.9 L437.6,288.5 L433.9,287.0 L434.2,284.7 L432.3,286.7 L429.2,284.2 L430.2,282.0 L428.5,281.0 L428.1,278.0 L425.5,276.0 L425.8,274.2 L429.3,271.9 L426.9,268.9 L429.4,266.9 L431.3,262.7 L430.9,260.0 L425.3,256.5 L432.5,256.5 L434.7,254.6 L437.1,257.1 L441.6,258.5 L442.4,260.6 L444.2,259.2 L444.9,263.5 L448.5,269.6 L455.5,276.0 L453.5,283.0 L452.1,279.1 L454.0,276.2 L451.5,274.3 L445.9,266.9 L447.7,274.5 L449.6,277.7 L451.6,278.1 L451.6,280.0 L455.5,288.2 L459.0,294.0 L460.2,297.9 L471.6,309.2 L476.9,316.0 L481.6,329.2 L484.5,331.2 L486.2,333.8 L488.8,335.1 L489.8,337.9 L492.2,340.4 L489.5,339.9 L493.1,342.3 L498.7,343.7 L494.9,342.1 L500.4,343.0 L507.0,342.6 L511.9,346.1 L516.5,346.7 L522.2,354.5 L524.9,355.4 Z">
  <desc xmlns="http://www.highcharts.com/svg/namespace">
    <labelrank>7</labelrank>
    <hasc>MX.VE</hasc>
    <alt-name>NULL</alt-name>
    <woe-id>2346293</woe-id>
    <subregion>NULL</subregion>
    <fips>MX30</fips>
    <postal-code>VE</postal-code>
    <name>Veracruz</name>
    <country>Mexico</country>
    <type-en>State</type-en>
    <region>NULL</region>
    <longitude>-96.5953</longitude>
    <woe-name>Veracruz</woe-name>
    <latitude>19.0926</latitude>
    <woe-label>Veracruz-Llave, MX, Mexico</woe-label>
    <type>Estado</type>
    <hc-middle-x>0.76</hc-middle-x>
    <hc-middle-y>0.87</hc-middle-y>
    <hc-key>mx-ve</hc-key>
    <hc-a2>VE</hc-a2>
  </desc>
</path>

<path fill="#CEE3F5" stroke="#6E6E6E" stroke-width="0.4" id="MX.ZA" d="M297.6,262.6 L297.8,262.0 L298.0,261.3 L300.3,253.5 L300.7,242.1 L301.9,240.5 L302.5,234.5 L306.2,231.3 L306.7,229.3 L309.2,228.3 L307.6,226.4 L308.3,219.2 L312.1,217.0 L315.5,212.7 L321.4,209.1 L331.2,210.9 L338.1,209.3 L337.9,200.9 L334.0,194.8 L335.8,193.7 L344.8,192.6 L351.6,194.6 L353.7,197.9 L357.6,199.1 L357.1,202.2 L360.5,202.3 L363.1,200.1 L366.3,201.0 L368.6,204.7 L374.6,206.4 L373.7,208.8 L371.0,211.1 L365.7,220.4 L353.0,230.5 L347.7,236.1 L345.0,234.9 L342.7,239.1 L344.3,242.2 L343.8,245.0 L346.9,250.4 L350.6,253.0 L353.4,256.9 L355.0,257.7 L357.9,256.5 L358.9,254.4 L364.0,254.2 L365.2,256.8 L363.5,259.7 L364.9,266.2 L360.6,272.2 L358.3,270.1 L353.3,268.1 L350.2,265.6 L349.7,262.0 L343.1,257.5 L338.3,261.4 L335.8,261.4 L335.2,263.7 L330.9,270.4 L330.6,272.4 L332.8,274.8 L332.5,278.2 L335.6,279.2 L334.6,283.2 L331.8,285.8 L326.5,286.0 L326.2,291.8 L322.4,291.0 L313.2,286.9 L311.0,287.5 L311.7,283.8 L311.0,280.4 L312.5,281.3 L315.8,278.5 L315.6,273.3 L320.9,269.3 L323.9,268.9 L325.4,267.1 L324.5,265.5 L326.1,261.5 L323.1,261.2 L323.2,259.8 L319.0,256.5 L317.8,259.1 L319.3,260.5 L316.4,265.7 L312.2,265.7 L312.1,261.2 L313.7,256.4 L312.6,254.8 L310.3,255.5 L308.3,264.7 L307.4,260.7 L308.3,255.3 L309.9,251.3 L305.3,250.5 L305.1,255.2 L306.6,257.2 L305.9,260.2 L302.0,260.7 Z">
  <desc xmlns="http://www.highcharts.com/svg/namespace">
    <labelrank>6</labelrank>
    <hasc>MX.ZA</hasc>
    <alt-name>NULL</alt-name>
    <woe-id>2346295</woe-id>
    <subregion>NULL</subregion>
    <fips>MX32</fips>
    <postal-code>ZA</postal-code>
    <name>Zacatecas</name>
    <country>Mexico</country>
    <type-en>State</type-en>
    <region>NULL</region>
    <longitude>-102.579</longitude>
    <woe-name>Zacatecas</woe-name>
    <latitude>23.3785</latitude>
    <woe-label>Zacatecas, MX, Mexico</woe-label>
    <type>Estado</type>
    <hc-middle-x>0.40</hc-middle-x>
    <hc-middle-y>0.41</hc-middle-y>
    <hc-key>mx-za</hc-key>
    <hc-a2>ZA</hc-a2>
  </desc>
</path>

<path fill="#CEE3F5" stroke="#6E6E6E" stroke-width="0.4" id="MX.AG" d="M353.3,268.1 L348.7,271.8 L348.1,274.2 L344.7,276.4 L338.4,275.8 L335.7,274.2 L332.8,274.8 L330.6,272.4 L330.9,270.4 L335.2,263.7 L335.8,261.4 L338.3,261.4 L343.1,257.5 L349.7,262.0 L350.2,265.6 Z">
  <desc xmlns="http://www.highcharts.com/svg/namespace">
    <labelrank>9</labelrank>
    <hasc>MX.AG</hasc>
    <alt-name>NULL</alt-name>
    <woe-id>2346264</woe-id>
    <subregion>NULL</subregion>
    <fips>MX01</fips>
    <postal-code>AG</postal-code>
    <name>Aguascalientes</name>
    <country>Mexico</country>
    <type-en>State</type-en>
    <region>NULL</region>
    <longitude>-102.351</longitude>
    <woe-name>Aguascalientes</woe-name>
    <latitude>22.0375</latitude>
    <woe-label>Aguascalientes, MX, Mexico</woe-label>
    <type>Estado</type>
    <hc-middle-x>0.48</hc-middle-x>
    <hc-middle-y>0.58</hc-middle-y>
    <hc-key>mx-ag</hc-key>
    <hc-a2>AG</hc-a2>
  </desc>
</path>

<path fill="#CEE3F5" stroke="#6E6E6E" stroke-width="0.4" id="MX.JA" d="M332.8,274.8 L335.7,274.2 L338.4,275.8 L344.7,276.4 L348.1,274.2 L348.7,271.8 L353.3,268.1 L358.3,270.1 L360.6,272.2 L359.3,273.8 L360.3,277.2 L358.1,280.1 L359.7,284.1 L357.1,286.8 L353.4,289.0 L349.2,295.7 L348.3,299.2 L350.8,301.5 L350.7,303.3 L348.1,307.4 L339.1,309.2 L335.1,311.6 L326.0,314.4 L326.1,317.0 L333.0,317.9 L334.5,320.2 L332.1,321.2 L333.8,326.9 L333.7,329.4 L336.7,329.1 L338.2,331.5 L335.7,335.3 L334.1,334.7 L330.6,336.0 L328.2,339.5 L324.2,341.8 L321.2,339.8 L320.0,341.5 L317.1,341.8 L316.0,338.8 L316.6,333.4 L313.4,329.3 L308.9,331.5 L304.0,329.0 L302.3,329.7 L300.2,333.3 L294.3,335.5 L292.9,335.1 L291.6,337.4 L286.7,335.5 L281.9,332.2 L280.3,327.5 L276.7,325.0 L270.5,316.2 L269.9,312.1 L266.6,307.1 L269.4,305.2 L275.0,304.6 L276.9,303.0 L275.9,300.5 L280.3,294.9 L284.2,294.6 L287.1,292.6 L294.3,296.8 L298.6,300.0 L298.9,296.3 L300.2,293.7 L300.0,288.9 L305.4,286.5 L306.3,284.0 L300.3,280.5 L302.8,274.2 L296.1,266.9 L297.6,262.6 L302.0,260.7 L305.9,260.2 L306.6,257.2 L305.1,255.2 L305.3,250.5 L309.9,251.3 L308.3,255.3 L307.4,260.7 L308.3,264.7 L310.3,255.5 L312.6,254.8 L313.7,256.4 L312.1,261.2 L312.2,265.7 L316.4,265.7 L319.3,260.5 L317.8,259.1 L319.0,256.5 L323.2,259.8 L323.1,261.2 L326.1,261.5 L324.5,265.5 L325.4,267.1 L323.9,268.9 L320.9,269.3 L315.6,273.3 L315.8,278.5 L312.5,281.3 L311.0,280.4 L311.7,283.8 L311.0,287.5 L313.2,286.9 L322.4,291.0 L326.2,291.8 L326.5,286.0 L331.8,285.8 L334.6,283.2 L335.6,279.2 L332.5,278.2 Z">
  <desc xmlns="http://www.highcharts.com/svg/namespace">
    <labelrank>4</labelrank>
    <hasc>MX.JA</hasc>
    <alt-name>NULL</alt-name>
    <woe-id>2346277</woe-id>
    <subregion>NULL</subregion>
    <fips>MX14</fips>
    <postal-code>JA</postal-code>
    <name>Jalisco</name>
    <country>Mexico</country>
    <type-en>State</type-en>
    <region>NULL</region>
    <longitude>-103.602</longitude>
    <woe-name>Jalisco</woe-name>
    <latitude>20.3026</latitude>
    <woe-label>Jalisco, MX, Mexico</woe-label>
    <type>Estado</type>
    <hc-middle-x>0.50</hc-middle-x>
    <hc-middle-y>0.61</hc-middle-y>
    <hc-key>mx-ja</hc-key>
    <hc-a2>JA</hc-a2>
  </desc>
</path>

<path fill="#CEE3F5" stroke="#6E6E6E" stroke-width="0.4" id="MX.MI" d="M389.3,310.8 L391.9,313.8 L393.2,317.3 L391.3,326.3 L392.7,329.8 L388.8,332.2 L389.6,333.8 L382.4,343.3 L378.6,345.5 L380.1,352.0 L382.9,354.1 L381.1,356.4 L381.0,354.4 L378.1,352.3 L373.3,351.4 L368.0,351.5 L362.6,353.1 L359.1,350.7 L354.6,350.8 L353.4,353.7 L353.9,357.6 L352.7,359.7 L347.4,360.9 L347.3,366.6 L337.4,363.7 L334.1,363.3 L327.6,360.5 L319.8,358.6 L316.7,357.0 L314.9,353.2 L311.8,350.6 L311.0,348.4 L313.7,345.7 L314.1,343.6 L317.1,341.8 L320.0,341.5 L321.2,339.8 L324.2,341.8 L328.2,339.5 L330.6,336.0 L334.1,334.7 L335.7,335.3 L338.2,331.5 L336.7,329.1 L333.7,329.4 L333.8,326.9 L332.1,321.2 L334.5,320.2 L333.0,317.9 L326.1,317.0 L326.0,314.4 L335.1,311.6 L339.1,309.2 L348.1,307.4 L351.5,307.8 L352.6,311.7 L357.5,311.7 L359.0,309.1 L362.6,308.4 L364.5,310.0 L363.7,315.2 L368.8,315.5 L369.5,313.9 L373.2,314.1 L372.8,317.5 L375.2,318.0 L377.1,316.8 L378.4,318.3 L387.0,316.8 L386.8,314.2 Z">
  <desc xmlns="http://www.highcharts.com/svg/namespace">
    <labelrank>4</labelrank>
    <hasc>MX.MC</hasc>
    <alt-name>NULL</alt-name>
    <woe-id>2346279</woe-id>
    <subregion>NULL</subregion>
    <fips>MX16</fips>
    <postal-code>MI</postal-code>
    <name>Michoacán</name>
    <country>Mexico</country>
    <type-en>State</type-en>
    <region>NULL</region>
    <longitude>-101.936</longitude>
    <woe-name>Michoacán</woe-name>
    <latitude>19.2458</latitude>
    <woe-label>Michoacan de Ocampo, MX, Mexico</woe-label>
    <type>Estado</type>
    <hc-middle-x>0.51</hc-middle-x>
    <hc-middle-y>0.47</hc-middle-y>
    <hc-key>mx-mi</hc-key>
    <hc-a2>MI</hc-a2>
  </desc>
</path>

<path fill="#CEE3F5" stroke="#6E6E6E" stroke-width="0.4" id="MX.OA" d="M536.4,403.5 L534.9,401.7 L533.0,402.3 L528.4,400.4 L528.0,402.1 L536.2,404.7 L535.8,405.8 L528.0,403.0 L521.8,403.1 L524.4,400.8 L522.7,398.9 L520.3,400.8 L518.0,397.6 L513.2,401.7 L519.3,402.2 L509.4,404.5 L504.9,409.2 L492.7,413.3 L486.3,417.0 L481.8,416.9 L478.9,417.9 L472.0,416.4 L462.0,411.8 L450.1,411.1 L440.6,405.9 L431.7,403.5 L437.0,400.5 L436.6,397.4 L438.9,397.0 L438.7,394.0 L442.5,392.1 L444.0,386.1 L440.4,381.6 L438.6,381.5 L436.1,378.8 L436.1,375.4 L434.6,371.5 L435.3,365.4 L437.7,364.8 L439.2,362.3 L444.9,361.6 L445.8,364.0 L449.4,362.2 L447.3,359.1 L449.3,355.0 L452.0,353.5 L451.3,357.4 L455.0,362.3 L456.5,362.3 L459.0,358.5 L461.8,357.6 L465.6,358.8 L470.9,354.6 L472.2,351.5 L474.3,348.4 L473.4,345.2 L479.4,348.1 L480.3,350.7 L483.4,354.1 L484.0,356.1 L486.8,357.4 L490.3,356.7 L493.1,357.6 L494.7,360.6 L491.8,365.9 L494.7,371.7 L499.0,372.0 L508.2,366.3 L507.3,370.0 L511.7,374.5 L513.5,375.1 L515.1,378.5 L540.0,378.9 L539.5,385.5 L536.8,387.3 L536.9,390.9 L535.0,394.8 L537.3,400.4 Z">
  <desc xmlns="http://www.highcharts.com/svg/namespace">
    <labelrank>6</labelrank>
    <hasc>MX.OA</hasc>
    <alt-name>NULL</alt-name>
    <woe-id>2346283</woe-id>
    <subregion>NULL</subregion>
    <fips>MX20</fips>
    <postal-code>OA</postal-code>
    <name>Oaxaca</name>
    <country>Mexico</country>
    <type-en>State</type-en>
    <region>NULL</region>
    <longitude>-96.20869999999999</longitude>
    <woe-name>Oaxaca</woe-name>
    <latitude>16.94</latitude>
    <woe-label>Oaxaca, MX, Mexico</woe-label>
    <type>Estado</type>
    <hc-middle-x>0.37</hc-middle-x>
    <hc-middle-y>0.52</hc-middle-y>
    <hc-key>mx-oa</hc-key>
    <hc-a2>OA</hc-a2>
  </desc>
</path>

<path fill="#CEE3F5" stroke="#6E6E6E" stroke-width="0.4" id="MX.PU" d="M427.6,338.4 L427.7,334.4 L426.7,329.6 L427.3,327.8 L431.4,328.2 L434.1,332.9 L437.9,336.0 L441.1,333.4 L443.9,334.5 L445.7,333.2 L446.1,330.8 L449.8,331.3 L450.8,329.3 L447.5,327.4 L445.6,327.8 L445.5,325.2 L438.5,322.3 L436.0,317.6 L439.1,312.3 L438.2,309.3 L435.7,309.6 L435.9,306.9 L437.6,306.5 L441.1,302.6 L442.1,301.0 L442.3,296.6 L443.8,294.3 L446.6,295.3 L447.6,299.5 L450.3,299.9 L451.1,301.7 L449.3,303.9 L446.3,303.5 L446.4,307.5 L448.4,309.5 L451.8,310.6 L454.9,307.5 L460.7,310.0 L460.7,311.6 L457.3,316.3 L457.2,321.1 L455.8,324.0 L457.5,326.2 L455.6,327.1 L459.8,329.6 L465.5,330.5 L462.7,333.3 L459.1,333.9 L460.2,339.8 L457.9,342.4 L458.5,345.4 L462.6,346.1 L463.3,349.7 L470.4,348.2 L472.2,351.5 L470.9,354.6 L465.6,358.8 L461.8,357.6 L459.0,358.5 L456.5,362.3 L455.0,362.3 L451.3,357.4 L452.0,353.5 L449.3,355.0 L447.3,359.1 L449.4,362.2 L445.8,364.0 L444.9,361.6 L439.2,362.3 L437.7,364.8 L435.3,365.4 L433.7,363.8 L430.5,364.1 L425.0,362.3 L424.0,360.4 L419.3,357.6 L418.8,354.9 L424.3,351.2 L427.3,352.8 L425.4,346.4 L427.2,346.5 L425.7,343.5 L427.4,341.6 Z">
  <desc xmlns="http://www.highcharts.com/svg/namespace">
    <labelrank>7</labelrank>
    <hasc>MX.PU</hasc>
    <alt-name>NULL</alt-name>
    <woe-id>2346284</woe-id>
    <subregion>NULL</subregion>
    <fips>MX21</fips>
    <postal-code>PU</postal-code>
    <name>Puebla</name>
    <country>Mexico</country>
    <type-en>State</type-en>
    <region>NULL</region>
    <longitude>-97.88890000000001</longitude>
    <woe-name>Puebla</woe-name>
    <latitude>18.549</latitude>
    <woe-label>Puebla, MX, Mexico</woe-label>
    <type>Estado</type>
    <hc-middle-x>0.50</hc-middle-x>
    <hc-middle-y>0.73</hc-middle-y>
    <hc-key>mx-pu</hc-key>
    <hc-a2>PU</hc-a2>
  </desc>
</path>

<path fill="#CEE3F5" stroke="#6E6E6E" stroke-width="0.4" id="MX.GR" d="M418.8,354.9 L419.3,357.6 L424.0,360.4 L425.0,362.3 L430.5,364.1 L433.7,363.8 L435.3,365.4 L434.6,371.5 L436.1,375.4 L436.1,378.8 L438.6,381.5 L440.4,381.6 L444.0,386.1 L442.5,392.1 L438.7,394.0 L438.9,397.0 L436.6,397.4 L437.0,400.5 L431.7,403.5 L426.3,397.9 L424.5,398.6 L412.4,395.6 L407.0,395.4 L403.8,394.3 L397.9,390.1 L373.1,382.1 L370.2,378.5 L363.8,375.9 L362.8,373.8 L359.4,372.6 L355.5,367.3 L350.3,364.9 L347.3,366.6 L347.4,360.9 L352.7,359.7 L353.9,357.6 L353.4,353.7 L354.6,350.8 L359.1,350.7 L362.6,353.1 L368.0,351.5 L373.3,351.4 L378.1,352.3 L381.0,354.4 L381.1,356.4 L382.9,354.1 L380.1,352.0 L378.6,345.5 L382.4,343.3 L386.2,343.8 L386.8,348.5 L388.8,351.2 L388.5,353.1 L390.6,354.6 L393.5,352.1 L395.2,349.3 L400.2,347.8 L401.7,348.8 L404.5,345.3 L408.3,347.4 L412.2,352.6 L414.2,352.5 L415.3,350.0 Z">
  <desc xmlns="http://www.highcharts.com/svg/namespace">
    <labelrank>4</labelrank>
    <hasc>MX.GR</hasc>
    <alt-name>NULL</alt-name>
    <woe-id>2346275</woe-id>
    <subregion>NULL</subregion>
    <fips>MX12</fips>
    <postal-code>GR</postal-code>
    <name>Guerrero</name>
    <country>Mexico</country>
    <type-en>State</type-en>
    <region>NULL</region>
    <longitude>-100.091</longitude>
    <woe-name>Guerrero</woe-name>
    <latitude>17.7608</latitude>
    <woe-label>Guerrero, MX, Mexico</woe-label>
    <type>Estado</type>
    <hc-middle-x>0.57</hc-middle-x>
    <hc-middle-y>0.43</hc-middle-y>
    <hc-key>mx-gr</hc-key>
    <hc-a2>GR</hc-a2>
  </desc>
</path>

<path fill="#CEE3F5" stroke="#6E6E6E" stroke-width="0.4" id="MX.TL" d="M427.3,327.8 L425.7,324.9 L426.8,324.8 L428.8,323.6 L434.0,324.4 L435.7,321.4 L438.5,322.3 L445.5,325.2 L445.6,327.8 L447.5,327.4 L450.8,329.3 L449.8,331.3 L446.1,330.8 L445.7,333.2 L443.9,334.5 L441.1,333.4 L437.9,336.0 L434.1,332.9 L431.4,328.2 Z">
  <desc xmlns="http://www.highcharts.com/svg/namespace">
    <labelrank>7</labelrank>
    <hasc>MX.TL</hasc>
    <alt-name>NULL</alt-name>
    <woe-id>2346292</woe-id>
    <subregion>NULL</subregion>
    <fips>MX29</fips>
    <postal-code>TL</postal-code>
    <name>Tlaxcala</name>
    <country>Mexico</country>
    <type-en>State</type-en>
    <region>NULL</region>
    <longitude>-98.161</longitude>
    <woe-name>Tlaxcala</woe-name>
    <latitude>19.3956</latitude>
    <woe-label>Tlaxcala, MX, Mexico</woe-label>
    <type>Estado</type>
    <hc-middle-x>0.49</hc-middle-x>
    <hc-middle-y>0.43</hc-middle-y>
    <hc-key>mx-tl</hc-key>
    <hc-a2>TL</hc-a2>
  </desc>
</path>

<path fill="#CEE3F5" stroke="#6E6E6E" stroke-width="0.4" id="MX.GJ" d="M399.8,281.5 L399.8,284.5 L401.8,285.6 L399.1,287.8 L396.1,286.8 L394.0,287.9 L393.0,293.8 L391.2,294.7 L388.1,294.4 L384.9,292.7 L382.7,298.3 L384.5,303.0 L384.7,305.5 L387.3,309.4 L389.3,310.8 L386.8,314.2 L387.0,316.8 L378.4,318.3 L377.1,316.8 L375.2,318.0 L372.8,317.5 L373.2,314.1 L369.5,313.9 L368.8,315.5 L363.7,315.2 L364.5,310.0 L362.6,308.4 L359.0,309.1 L357.5,311.7 L352.6,311.7 L351.5,307.8 L348.1,307.4 L350.7,303.3 L350.8,301.5 L348.3,299.2 L349.2,295.7 L353.4,289.0 L357.1,286.8 L359.7,284.1 L358.1,280.1 L360.3,277.2 L359.3,273.8 L360.6,272.2 L365.0,271.4 L366.5,273.8 L373.2,274.2 L380.9,280.2 L383.7,279.6 L385.8,275.6 L393.2,278.4 L395.9,280.6 Z">
  <desc xmlns="http://www.highcharts.com/svg/namespace">
    <labelrank>7</labelrank>
    <hasc>MX.GJ</hasc>
    <alt-name>NULL</alt-name>
    <woe-id>2346274</woe-id>
    <subregion>NULL</subregion>
    <fips>MX11</fips>
    <postal-code>GJ</postal-code>
    <name>Guanajuato</name>
    <country>Mexico</country>
    <type-en>State</type-en>
    <region>NULL</region>
    <longitude>-100.904</longitude>
    <woe-name>Guanajuato</woe-name>
    <latitude>20.8141</latitude>
    <woe-label>Guanajuato, MX, Mexico</woe-label>
    <type>Estado</type>
    <hc-middle-x>0.46</hc-middle-x>
    <hc-middle-y>0.42</hc-middle-y>
    <hc-key>mx-gj</hc-key>
    <hc-a2>GJ</hc-a2>
  </desc>
</path>

<path fill="#CEE3F5" stroke="#6E6E6E" stroke-width="0.4" id="MX.TM" d="M396.5,130.9 L401.0,133.1 L401.8,136.6 L400.9,139.4 L402.9,141.8 L402.3,145.7 L403.8,146.8 L405.1,150.6 L407.1,151.2 L407.6,156.8 L410.4,158.0 L411.2,160.8 L417.5,161.5 L421.0,164.4 L422.3,163.8 L427.0,165.3 L430.3,168.0 L439.5,167.8 L443.4,168.9 L447.9,172.4 L451.3,169.7 L454.0,169.4 L453.8,175.3 L450.9,183.5 L448.1,188.8 L444.6,205.0 L443.8,217.3 L443.9,223.8 L443.4,235.4 L444.3,242.3 L442.2,248.2 L442.4,253.0 L444.2,259.2 L442.4,260.6 L441.6,258.5 L437.1,257.1 L434.7,254.6 L432.5,256.5 L425.3,256.5 L421.0,258.0 L418.1,257.9 L411.1,256.0 L408.0,250.7 L407.2,251.8 L404.2,249.9 L404.8,252.2 L394.4,248.9 L393.2,246.7 L395.9,244.5 L395.8,243.1 L392.5,237.8 L390.9,235.1 L392.7,233.6 L395.8,234.5 L394.6,230.8 L397.0,225.6 L402.3,224.8 L405.1,220.1 L402.2,217.6 L401.6,215.9 L402.3,210.9 L401.5,206.9 L399.3,207.9 L398.6,205.6 L402.7,203.6 L404.1,201.3 L408.1,199.0 L411.0,200.2 L410.4,194.9 L413.6,191.8 L416.8,192.4 L426.1,183.9 L423.7,182.7 L423.2,170.8 L417.5,168.9 L415.9,171.1 L412.9,168.3 L410.5,169.3 L409.4,164.0 L407.6,163.6 L405.8,161.3 L404.6,162.1 L403.9,155.8 L398.6,154.6 L400.5,150.9 L397.4,149.5 L396.7,147.2 L397.6,143.8 L395.2,135.5 L392.5,135.2 L392.3,133.4 Z M441.7,204.0 L440.8,207.2 L442.9,206.5 L443.1,212.7 L442.5,218.5 L443.4,221.8 L443.7,211.5 L444.3,204.0 L446.4,191.8 L448.7,186.0 L448.8,182.8 L446.5,181.9 L446.7,183.6 L445.5,185.6 L442.7,184.5 L442.3,187.1 L443.1,189.5 L441.9,194.0 L444.6,194.9 L442.6,196.7 L443.9,202.4 L443.1,206.0 Z">
  <desc xmlns="http://www.highcharts.com/svg/namespace">
    <labelrank>4</labelrank>
    <hasc>MX.TM</hasc>
    <alt-name>NULL</alt-name>
    <woe-id>2346291</woe-id>
    <subregion>NULL</subregion>
    <fips>MX28</fips>
    <postal-code>TM</postal-code>
    <name>Tamaulipas</name>
    <country>Mexico</country>
    <type-en>State</type-en>
    <region>NULL</region>
    <longitude>-98.5197</longitude>
    <woe-name>Tamaulipas</woe-name>
    <latitude>24.0808</latitude>
    <woe-label>Tamaulipas, MX, Mexico</woe-label>
    <type>Estado</type>
    <hc-middle-x>0.50</hc-middle-x>
    <hc-middle-y>0.74</hc-middle-y>
    <hc-key>mx-tm</hc-key>
    <hc-a2>TM</hc-a2>
  </desc>
</path>

<path fill="#CEE3F5" stroke="#6E6E6E" stroke-width="0.4" id="MX.CO" d="M319.1,100.1 L322.6,101.0 L323.5,99.3 L328.6,95.1 L327.7,94.0 L330.2,86.3 L332.1,82.7 L337.9,81.8 L339.7,78.9 L344.2,81.1 L356.5,81.7 L359.0,81.3 L359.9,83.7 L362.5,85.1 L362.1,88.2 L366.9,88.7 L367.4,90.4 L371.7,93.2 L374.9,96.8 L376.0,101.4 L378.3,104.2 L381.1,109.2 L383.7,116.3 L388.3,119.5 L394.4,128.5 L391.0,131.8 L386.3,128.3 L383.2,130.6 L382.1,133.0 L381.2,138.4 L377.1,139.8 L373.4,142.7 L373.6,146.4 L375.4,147.3 L376.3,145.4 L378.9,146.9 L378.4,153.3 L375.8,157.0 L374.8,154.2 L365.0,163.1 L367.4,165.2 L369.0,168.2 L373.3,172.9 L373.4,177.1 L379.6,185.8 L382.3,187.5 L385.6,187.3 L387.9,188.9 L386.6,190.6 L384.0,191.0 L380.7,190.2 L375.5,192.4 L374.1,194.9 L376.4,196.8 L375.1,198.5 L375.7,201.9 L374.6,206.4 L368.6,204.7 L366.3,201.0 L363.1,200.1 L360.5,202.3 L357.1,202.2 L357.6,199.1 L353.7,197.9 L351.6,194.6 L344.8,192.6 L335.8,193.7 L334.0,194.8 L330.3,199.2 L330.2,203.3 L327.4,201.4 L323.7,200.5 L321.2,198.7 L320.7,195.1 L318.2,193.5 L315.5,189.7 L317.4,186.8 L316.0,183.9 L319.6,180.1 L319.0,169.8 L320.3,166.5 L320.2,164.1 L312.8,157.4 L305.4,126.8 Z">
  <desc xmlns="http://www.highcharts.com/svg/namespace">
    <labelrank>4</labelrank>
    <hasc>MX.CA</hasc>
    <alt-name>NULL</alt-name>
    <woe-id>2346270</woe-id>
    <subregion>NULL</subregion>
    <fips>MX07</fips>
    <postal-code>CO</postal-code>
    <name>Coahuila</name>
    <country>Mexico</country>
    <type-en>State</type-en>
    <region>NULL</region>
    <longitude>-101.885</longitude>
    <woe-name>Coahuila</woe-name>
    <latitude>27.4473</latitude>
    <woe-label>Coahuila de Zaragoza, MX, Mexico</woe-label>
    <type>Estado</type>
    <hc-middle-x>0.48</hc-middle-x>
    <hc-middle-y>0.38</hc-middle-y>
    <hc-key>mx-co</hc-key>
    <hc-a2>CO</hc-a2>
  </desc>
</path>

<path fill="#CEE3F5" stroke="#6E6E6E" stroke-width="0.4" id="MX.DG" d="M334.0,194.8 L337.9,200.9 L338.1,209.3 L331.2,210.9 L321.4,209.1 L315.5,212.7 L312.1,217.0 L308.3,219.2 L307.6,226.4 L309.2,228.3 L306.7,229.3 L306.2,231.3 L302.5,234.5 L301.9,240.5 L300.7,242.1 L300.3,253.5 L298.0,261.3 L297.5,257.6 L294.3,259.0 L291.8,258.0 L290.1,254.0 L287.7,252.7 L283.3,256.0 L282.8,252.7 L285.2,250.0 L283.9,247.0 L279.8,244.5 L274.1,244.1 L274.0,241.3 L270.5,240.9 L267.5,237.7 L266.9,233.7 L264.5,231.2 L262.9,227.6 L262.6,222.2 L263.8,219.2 L261.9,219.0 L259.6,213.9 L256.5,211.3 L254.8,211.3 L251.9,213.7 L249.7,213.5 L247.7,211.7 L247.2,209.0 L244.3,203.6 L240.5,201.2 L238.3,198.3 L236.4,191.7 L237.2,186.2 L240.8,181.0 L245.5,181.2 L249.4,177.8 L249.9,172.7 L252.7,170.9 L253.3,168.5 L252.1,163.8 L256.5,162.3 L256.6,159.1 L258.1,154.8 L259.6,155.0 L261.0,152.5 L265.7,156.1 L268.4,155.9 L271.1,159.0 L276.0,161.8 L280.6,159.6 L282.5,161.8 L283.4,160.8 L286.7,161.2 L291.8,164.5 L293.5,164.0 L299.7,155.5 L302.2,154.3 L306.0,154.6 L312.8,157.4 L320.2,164.1 L320.3,166.5 L319.0,169.8 L319.6,180.1 L316.0,183.9 L317.4,186.8 L315.5,189.7 L318.2,193.5 L320.7,195.1 L321.2,198.7 L323.7,200.5 L327.4,201.4 L330.2,203.3 L330.3,199.2 Z">
  <desc xmlns="http://www.highcharts.com/svg/namespace">
    <labelrank>6</labelrank>
    <hasc>MX.DU</hasc>
    <alt-name>NULL</alt-name>
    <woe-id>2346273</woe-id>
    <subregion>NULL</subregion>
    <fips>MX10</fips>
    <postal-code>DG</postal-code>
    <name>Durango</name>
    <country>Mexico</country>
    <type-en>State</type-en>
    <region>NULL</region>
    <longitude>-104.808</longitude>
    <woe-name>Durango</woe-name>
    <latitude>24.566</latitude>
    <woe-label>Durango, MX, Mexico</woe-label>
    <type>Estado</type>
    <hc-middle-x>0.47</hc-middle-x>
    <hc-middle-y>0.47</hc-middle-y>
    <hc-key>mx-dg</hc-key>
    <hc-a2>DG</hc-a2>
  </desc>
</path>

<path fill="#CEE3F5" stroke="#6E6E6E" stroke-width="0.4" id="MX.YU" d="M614.9,283.3 L614.0,283.5 L615.6,278.1 L620.6,274.4 L627.6,270.7 L642.7,267.3 L652.2,264.0 L654.2,261.9 L657.8,260.5 L661.6,260.6 L665.0,258.7 L668.9,258.7 L679.0,260.1 L679.9,265.0 L679.0,269.9 L680.6,273.6 L678.1,281.6 L670.8,287.7 L667.3,287.4 L665.0,290.5 L662.7,291.8 L661.3,294.9 L655.4,298.0 L651.0,301.7 L647.7,302.5 L644.4,305.0 L640.6,305.9 L639.9,310.2 L638.7,307.1 L634.1,301.6 L629.6,299.0 L624.1,291.3 L620.7,292.7 L618.9,290.7 L615.2,290.1 Z">
  <desc xmlns="http://www.highcharts.com/svg/namespace">
    <labelrank>4</labelrank>
    <hasc>MX.YU</hasc>
    <alt-name>NULL</alt-name>
    <woe-id>2346294</woe-id>
    <subregion>NULL</subregion>
    <fips>MX31</fips>
    <postal-code>YU</postal-code>
    <name>Yucatán</name>
    <country>Mexico</country>
    <type-en>State</type-en>
    <region>NULL</region>
    <longitude>-88.9836</longitude>
    <woe-name>Yucatán</woe-name>
    <latitude>20.663</latitude>
    <woe-label>Yucatan, MX, Mexico</woe-label>
    <type>Estado</type>
    <hc-middle-x>0.48</hc-middle-x>
    <hc-middle-y>0.44</hc-middle-y>
    <hc-key>mx-yu</hc-key>
    <hc-a2>YU</hc-a2>
  </desc>
</path>

<path fill="#CEE3F5" stroke="#6E6E6E" stroke-width="0.4" id="MX.SL" d="M392.5,237.8 L395.8,243.1 L395.9,244.5 L393.2,246.7 L394.4,248.9 L404.8,252.2 L404.2,249.9 L407.2,251.8 L408.0,250.7 L411.1,256.0 L418.1,257.9 L421.0,258.0 L425.3,256.5 L430.9,260.0 L431.3,262.7 L429.4,266.9 L426.9,268.9 L429.3,271.9 L425.8,274.2 L425.5,276.0 L428.1,278.0 L428.5,281.0 L427.0,281.6 L427.0,285.6 L421.8,286.6 L419.1,283.9 L416.7,284.6 L415.2,284.1 L415.4,281.9 L412.9,275.6 L409.0,280.9 L404.7,282.0 L401.3,279.1 L399.8,281.5 L395.9,280.6 L393.2,278.4 L385.8,275.6 L383.7,279.6 L380.9,280.2 L373.2,274.2 L366.5,273.8 L365.0,271.4 L360.6,272.2 L364.9,266.2 L363.5,259.7 L365.2,256.8 L364.0,254.2 L358.9,254.4 L357.9,256.5 L355.0,257.7 L353.4,256.9 L350.6,253.0 L346.9,250.4 L343.8,245.0 L344.3,242.2 L342.7,239.1 L345.0,234.9 L347.7,236.1 L353.0,230.5 L365.7,220.4 L371.0,211.1 L373.7,208.8 L374.6,206.4 L379.5,213.0 L380.4,221.5 L382.6,224.1 L382.5,227.9 L383.5,231.5 L384.0,238.3 L386.2,239.2 L386.5,237.6 Z">
  <desc xmlns="http://www.highcharts.com/svg/namespace">
    <labelrank>7</labelrank>
    <hasc>MX.SL</hasc>
    <alt-name>NULL</alt-name>
    <woe-id>2346287</woe-id>
    <subregion>NULL</subregion>
    <fips>MX24</fips>
    <postal-code>SL</postal-code>
    <name>San Luis Potosí</name>
    <country>Mexico</country>
    <type-en>State</type-en>
    <region>NULL</region>
    <longitude>-100.324</longitude>
    <woe-name>San Luis Potosí</woe-name>
    <latitude>22.4465</latitude>
    <woe-label>San Luis Potosi, MX, Mexico</woe-label>
    <type>Estado</type>
    <hc-middle-x>0.38</hc-middle-x>
    <hc-middle-y>0.57</hc-middle-y>
    <hc-key>mx-sl</hc-key>
    <hc-a2>SL</hc-a2>
  </desc>
</path>

<path fill="#CEE3F5" stroke="#6E6E6E" stroke-width="0.4" id="MX.HG" d="M441.1,302.6 L437.6,306.5 L435.9,306.9 L435.7,309.6 L438.2,309.3 L439.1,312.3 L436.0,317.6 L438.5,322.3 L435.7,321.4 L434.0,324.4 L428.8,323.6 L426.8,324.8 L427.9,321.0 L425.7,318.5 L422.6,317.7 L419.6,319.4 L420.4,316.7 L418.3,314.1 L414.1,315.7 L410.1,321.2 L408.6,317.6 L406.9,316.6 L407.6,314.0 L406.1,311.7 L404.0,312.4 L399.3,308.2 L399.7,303.3 L404.0,301.8 L407.1,299.5 L406.9,295.3 L409.9,290.6 L409.6,288.6 L416.8,286.8 L416.7,284.6 L419.1,283.9 L421.8,286.6 L427.0,285.6 L427.0,281.6 L428.5,281.0 L430.2,282.0 L429.2,284.2 L432.3,286.7 L434.2,284.7 L433.9,287.0 L437.6,288.5 L435.4,291.9 L435.4,294.5 L431.8,293.5 L431.0,298.3 L429.4,299.7 L428.1,303.4 L429.8,306.0 L433.5,304.1 L438.3,297.8 L440.4,298.4 Z">
  <desc xmlns="http://www.highcharts.com/svg/namespace">
    <labelrank>4</labelrank>
    <hasc>MX.HI</hasc>
    <alt-name>NULL</alt-name>
    <woe-id>2346276</woe-id>
    <subregion>NULL</subregion>
    <fips>MX13</fips>
    <postal-code>HG</postal-code>
    <name>Hidalgo</name>
    <country>Mexico</country>
    <type-en>State</type-en>
    <region>NULL</region>
    <longitude>-98.9221</longitude>
    <woe-name>Hidalgo</woe-name>
    <latitude>20.5354</latitude>
    <woe-label>Hidalgo, MX, Mexico</woe-label>
    <type>Estado</type>
    <hc-middle-x>0.49</hc-middle-x>
    <hc-middle-y>0.59</hc-middle-y>
    <hc-key>mx-hg</hc-key>
    <hc-a2>HG</hc-a2>
  </desc>
</path>
</g>

<text x="350" y="714" text-anchor="middle" font-family="Verdana" font-size="8" stroke-opacity="0.6">Copyright (c) 2014 Highsoft AS, Based on data from Natural Earth</text>

</svg>