<?xml version="1.0" encoding="utf-8" standalone="no"?>
<!DOCTYPE svg PUBLIC "-//W3C//DTD SVG 1.1//EN" "http://www.w3.org/Graphics/SVG/1.1/DTD/svg11.dtd">

<svg version="1.1" height="700pt" width="700pt" xmlns="http://www.w3.org/2000/svg" xmlns:xlink="http://www.w3.org/1999/xlink">
<desc>
Map version: 1.1.1
Copyright (c) 2014 Highsoft AS, Based on data from Natural Earth
</desc>
<title>Indonesia</title>
<g id="admin1">

<g id="ID">
  <desc xmlns="http://www.highcharts.com/svg/namespace">
    <name>Indonesia</name>
    <labelrank>2</labelrank>
    <country-abbrev>Indo.</country-abbrev>
    <subregion>South-Eastern Asia</subregion>
    <woe-id>23424846</woe-id>
    <region-wb>East Asia &amp; Pacific</region-wb>
    <iso-a3>IDN</iso-a3>
    <iso-a2>ID</iso-a2>
    <region-un>Asia</region-un>
    <continent>Asia</continent>
    <hc-key>id</hc-key>
    <hc-a2>IN</hc-a2>
  </desc>
</g>

<path fill="#CEE3F5" stroke="#6E6E6E" stroke-width="0.4" id="ID.3700" d="M588.9,123.9 L590.2,125.3 L588.4,124.6 L587.9,123.7 Z">
  <desc xmlns="http://www.highcharts.com/svg/namespace">
    <labelrank>20</labelrank>
    <hasc>-99</hasc>
    <alt-name>NULL</alt-name>
    <woe-id>-99</woe-id>
    <subregion>NULL</subregion>
    <fips>NULL</fips>
    <postal-code>NULL</postal-code>
    <name>NULL</name>
    <country>Indonesia</country>
    <type-en>NULL</type-en>
    <region>NULL</region>
    <longitude>104.223</longitude>
    <woe-name>NULL</woe-name>
    <latitude>-1.04563</latitude>
    <woe-label>NULL</woe-label>
    <type>NULL</type>
    <hc-middle-x>0.51</hc-middle-x>
    <hc-middle-y>0.46</hc-middle-y>
    <hc-key>id-3700</hc-key>
    <hc-a2>NU</hc-a2>
  </desc>
</path>

<path fill="#CEE3F5" stroke="#6E6E6E" stroke-width="0.4" id="ID.AC" d="M32.1,57.8 L32.9,57.4 L34.1,58.2 L34.2,60.4 Z M1.0,3.0 L2.1,2.6 L2.7,3.4 L2.1,4.4 Z M13.3,49.7 L15.0,50.1 L19.5,54.3 L20.5,54.0 L21.2,55.9 L18.9,56.1 L18.8,55.5 L14.7,52.9 L12.6,52.7 L8.9,50.0 L10.0,49.0 L10.3,47.5 L12.1,48.0 Z M45.9,57.5 L43.7,56.3 L40.5,56.3 L39.1,54.4 L38.7,50.5 L37.9,47.6 L35.2,46.8 L33.7,45.3 L32.7,42.5 L31.3,42.1 L28.7,38.0 L26.6,35.6 L24.7,34.7 L21.6,34.8 L19.6,33.7 L15.8,29.3 L13.0,27.8 L6.8,21.9 L6.0,21.8 L3.8,18.9 L1.6,13.4 L0.1,11.9 L0.9,10.3 L0.0,8.0 L3.3,6.4 L4.8,7.0 L6.3,6.6 L10.6,8.3 L11.3,9.8 L14.3,11.7 L17.9,12.5 L22.3,12.5 L25.0,11.5 L27.2,11.5 L31.7,13.2 L35.1,11.6 L37.8,14.2 L41.5,16.9 L43.1,20.7 L43.0,22.0 L46.2,22.7 L47.3,23.7 L47.2,25.8 L44.2,26.6 L43.4,30.6 L40.2,34.2 L42.2,38.9 L43.5,40.4 L41.7,41.5 L42.9,43.3 L42.3,44.2 L42.8,46.8 L44.9,48.1 L45.1,50.2 L44.5,51.7 L46.2,55.4 Z">
  <desc xmlns="http://www.highcharts.com/svg/namespace">
    <labelrank>6</labelrank>
    <hasc>ID.AC</hasc>
    <alt-name>Achin|Atjeh|Nanggroe Aceh Darussalam</alt-name>
    <woe-id>2345710</woe-id>
    <subregion>NULL</subregion>
    <fips>ID01</fips>
    <postal-code>AC</postal-code>
    <name>Aceh</name>
    <country>Indonesia</country>
    <type-en>Autonomous Province</type-en>
    <region>NULL</region>
    <longitude>96.9956</longitude>
    <woe-name>Aceh</woe-name>
    <latitude>4.41533</latitude>
    <woe-label>Aceh, ID, Indonesia</woe-label>
    <type>Propinsi</type>
    <hc-middle-x>0.64</hc-middle-x>
    <hc-middle-y>0.40</hc-middle-y>
    <hc-key>id-ac</hc-key>
    <hc-a2>AC</hc-a2>
  </desc>
</path>

<path fill="#CEE3F5" stroke="#6E6E6E" stroke-width="0.4" id="ID.KI" d="M334.4,27.6 L333.0,26.9 L332.5,25.2 L334.5,25.3 Z M337.7,24.3 L336.0,23.4 L335.9,22.8 L336.9,22.8 Z M331.9,24.2 L331.8,24.8 L328.2,24.3 L328.3,23.0 Z M334.4,16.9 L332.7,15.9 L333.6,14.6 L335.0,15.5 Z M337.2,14.2 L337.7,15.6 L336.3,16.0 L334.2,14.3 Z M279.4,70.1 L281.4,67.4 L281.7,65.6 L280.4,65.1 L280.4,64.0 L285.0,60.3 L285.1,57.0 L287.8,55.9 L289.4,56.8 L291.7,52.9 L291.6,51.0 L293.9,49.7 L294.0,47.9 L293.0,47.8 L292.9,44.7 L294.9,43.9 L297.8,41.1 L298.9,40.6 L298.2,39.4 L296.6,39.2 L296.6,36.0 L299.0,32.8 L300.1,33.5 L302.3,32.7 L303.0,30.8 L302.4,30.2 L302.8,27.9 L304.0,26.6 L303.1,24.3 L303.4,20.6 L302.7,20.0 L303.8,17.9 L304.0,16.0 L306.4,14.2 L306.7,12.6 L309.4,14.2 L310.9,12.5 L313.6,12.3 L314.8,13.5 L319.5,12.2 L320.9,12.6 L326.2,12.3 L326.9,12.0 L330.3,14.2 L332.2,14.5 L331.4,15.1 L329.4,14.5 L329.8,15.5 L331.6,16.1 L334.2,17.9 L333.3,18.2 L336.4,18.9 L335.0,20.3 L336.4,20.9 L335.3,22.0 L332.4,21.8 L332.1,22.3 L325.7,22.4 L327.6,22.9 L327.8,24.3 L329.3,25.3 L331.1,25.2 L330.1,27.2 L329.9,29.0 L331.4,29.0 L331.9,30.0 L333.9,30.2 L333.2,31.7 L335.0,31.8 L332.9,32.5 L335.8,32.8 L334.3,34.1 L336.6,34.8 L337.4,37.0 L339.7,38.9 L341.5,41.8 L339.4,43.4 L338.9,45.1 L336.6,45.3 L338.6,46.0 L338.5,47.5 L341.3,48.9 L342.6,50.7 L347.1,52.9 L346.7,53.4 L350.0,54.7 L351.8,56.1 L353.8,58.8 L356.0,59.0 L356.0,60.1 L353.1,62.6 L351.5,62.1 L349.7,62.8 L344.1,62.1 L342.3,61.4 L341.0,59.2 L339.7,59.3 L341.8,62.4 L341.3,63.5 L340.1,62.8 L338.6,63.3 L336.0,68.0 L334.1,73.8 L335.1,75.9 L333.9,79.3 L334.8,81.1 L334.2,83.1 L336.4,81.5 L336.5,83.0 L335.7,85.6 L336.9,86.8 L333.5,87.8 L332.9,88.7 L332.0,87.4 L331.6,88.9 L330.4,90.0 L328.5,93.4 L325.6,94.4 L324.8,96.0 L321.6,97.8 L322.0,99.6 L318.6,101.2 L317.2,102.6 L319.5,102.1 L320.8,104.1 L320.9,105.7 L318.4,108.1 L319.6,107.5 L320.2,108.5 L323.1,108.2 L322.7,110.7 L320.0,110.1 L314.2,109.8 L312.5,111.0 L311.4,108.6 L311.6,106.6 L310.4,106.0 L310.1,102.8 L308.3,99.1 L307.4,99.1 L308.9,97.6 L310.6,95.6 L310.5,92.6 L309.6,92.9 L307.8,91.1 L305.3,89.9 L303.9,85.5 L303.1,84.6 L302.1,80.3 L302.9,77.0 L300.6,77.1 L298.0,79.9 L297.4,78.8 L298.1,76.5 L296.9,73.2 L298.6,69.5 L298.2,68.0 L296.9,66.6 L293.4,67.7 L292.4,68.5 L288.2,69.2 L285.4,68.5 L283.2,68.6 Z">
  <desc xmlns="http://www.highcharts.com/svg/namespace">
    <labelrank>2</labelrank>
    <hasc>ID.KI</hasc>
    <alt-name>Kaltim</alt-name>
    <woe-id>2345723</woe-id>
    <subregion>NULL</subregion>
    <fips>ID14</fips>
    <postal-code>KI</postal-code>
    <name>Kalimantan Timur</name>
    <country>Indonesia</country>
    <type-en>Province</type-en>
    <region>NULL</region>
    <longitude>116.354</longitude>
    <woe-name>Kalimantan Timur</woe-name>
    <latitude>1.28915</latitude>
    <woe-label>East Kalimantan, ID, Indonesia</woe-label>
    <type>Propinsi</type>
    <hc-middle-x>0.47</hc-middle-x>
    <hc-middle-y>0.50</hc-middle-y>
    <hc-key>id-ki</hc-key>
    <hc-a2>KI</hc-a2>
  </desc>
</path>

<path fill="#CEE3F5" stroke="#6E6E6E" stroke-width="0.4" id="ID.JT" d="M215.5,194.8 L216.1,195.5 L213.1,194.9 L213.5,194.3 Z M244.8,200.5 L244.6,200.4 L243.3,200.2 L242.6,199.0 L242.2,195.4 L240.8,194.7 L238.1,194.4 L236.9,191.2 L234.4,193.6 L232.6,193.1 L231.4,196.3 L225.7,195.0 L222.4,195.1 L221.5,194.3 L217.5,194.2 L216.3,194.9 L214.5,194.2 L214.2,193.2 L213.1,194.1 L210.9,189.5 L209.2,189.1 L209.4,187.0 L211.1,186.5 L212.4,185.3 L212.5,183.4 L213.8,181.6 L215.3,181.1 L217.4,182.0 L220.5,182.1 L223.1,181.3 L225.9,181.6 L228.5,182.2 L232.8,181.6 L235.2,182.7 L236.9,182.2 L238.2,180.5 L239.2,178.3 L239.4,175.5 L243.0,173.9 L244.9,174.6 L246.7,177.9 L250.6,177.8 L251.5,176.6 L254.2,178.1 L253.3,181.5 L253.6,184.3 L251.3,186.7 L248.0,186.0 L247.7,190.1 L248.0,192.7 L249.7,193.7 L249.5,196.0 L246.9,197.2 L245.0,198.8 Z">
  <desc xmlns="http://www.highcharts.com/svg/namespace">
    <labelrank>2</labelrank>
    <hasc>ID.JT</hasc>
    <alt-name>Jateng</alt-name>
    <woe-id>2345716</woe-id>
    <subregion>NULL</subregion>
    <fips>ID07</fips>
    <postal-code>JT</postal-code>
    <name>Jawa Tengah</name>
    <country>Indonesia</country>
    <type-en>Province</type-en>
    <region>NULL</region>
    <longitude>109.896</longitude>
    <woe-name>Jawa Tengah</woe-name>
    <latitude>-7.2901</latitude>
    <woe-label>Central Java, ID, Indonesia</woe-label>
    <type>Propinsi</type>
    <hc-middle-x>0.27</hc-middle-x>
    <hc-middle-y>0.52</hc-middle-y>
    <hc-key>id-jt</hc-key>
    <hc-a2>JT</hc-a2>
  </desc>
</path>

<path fill="#CEE3F5" stroke="#6E6E6E" stroke-width="0.4" id="ID.BE" d="M116.8,168.0 L115.5,168.2 L112.4,166.4 L113.5,165.5 L116.8,166.7 Z M93.7,125.0 L95.7,123.2 L98.1,122.0 L99.6,121.1 L100.8,122.0 L101.7,124.1 L104.4,126.7 L107.0,128.1 L109.5,128.6 L112.0,131.0 L112.3,132.5 L115.2,132.8 L116.1,133.7 L115.8,135.2 L118.4,136.8 L120.3,135.3 L122.0,136.6 L123.5,136.8 L124.3,138.1 L124.0,139.6 L122.3,139.5 L122.6,140.4 L119.9,142.9 L118.8,143.3 L121.0,145.4 L124.2,146.3 L126.6,146.3 L127.5,149.1 L134.0,151.3 L134.2,152.6 L136.6,156.9 L136.2,157.4 L134.4,158.7 L131.5,158.2 L131.1,157.4 L127.6,154.7 L123.8,153.1 L123.0,152.1 L120.3,150.0 L114.3,146.3 L114.0,144.1 L112.6,141.2 L110.2,140.0 L103.5,135.9 L99.9,131.3 L98.4,128.6 L94.9,126.6 Z">
  <desc xmlns="http://www.highcharts.com/svg/namespace">
    <labelrank>7</labelrank>
    <hasc>ID.BE</hasc>
    <alt-name>Bencoolen|Benkoelen|Benkulen</alt-name>
    <woe-id>2345712</woe-id>
    <subregion>NULL</subregion>
    <fips>ID03</fips>
    <postal-code>BE</postal-code>
    <name>Bengkulu</name>
    <country>Indonesia</country>
    <type-en>Province</type-en>
    <region>NULL</region>
    <longitude>102.368</longitude>
    <woe-name>Bengkulu</woe-name>
    <latitude>-3.48606</latitude>
    <woe-label>Bengkulu, ID, Indonesia</woe-label>
    <type>Propinsi</type>
    <hc-middle-x>0.35</hc-middle-x>
    <hc-middle-y>0.28</hc-middle-y>
    <hc-key>id-be</hc-key>
    <hc-a2>BE</hc-a2>
  </desc>
</path>

<path fill="#CEE3F5" stroke="#6E6E6E" stroke-width="0.4" id="ID.BT" d="M160.4,180.8 L160.3,182.2 L159.3,183.0 L159.3,181.1 Z M181.4,172.5 L180.8,173.2 L182.1,176.0 L182.2,177.0 L180.3,177.3 L177.8,176.8 L177.2,177.3 L177.1,179.6 L177.6,182.1 L178.8,183.3 L178.1,184.1 L177.5,186.5 L175.7,186.5 L172.2,184.5 L170.8,184.3 L163.9,185.5 L160.5,184.3 L162.0,182.7 L163.4,184.7 L165.8,181.7 L166.4,179.6 L166.9,180.4 L168.5,178.9 L168.4,175.8 L169.1,173.5 L171.3,170.5 L173.2,172.3 L174.4,171.2 L178.0,172.4 L180.4,171.8 Z">
  <desc xmlns="http://www.highcharts.com/svg/namespace">
    <labelrank>2</labelrank>
    <hasc>ID.BT</hasc>
    <alt-name>NULL</alt-name>
    <woe-id>28350158</woe-id>
    <subregion>NULL</subregion>
    <fips>ID33</fips>
    <postal-code>BT</postal-code>
    <name>Banten</name>
    <country>Indonesia</country>
    <type-en>Province</type-en>
    <region>NULL</region>
    <longitude>106.167</longitude>
    <woe-name>Banten</woe-name>
    <latitude>-6.25794</latitude>
    <woe-label>Banten, ID, Indonesia</woe-label>
    <type>Propinsi</type>
    <hc-middle-x>0.20</hc-middle-x>
    <hc-middle-y>0.92</hc-middle-y>
    <hc-key>id-bt</hc-key>
    <hc-a2>BT</hc-a2>
  </desc>
</path>

<path fill="#CEE3F5" stroke="#6E6E6E" stroke-width="0.4" id="ID.KB" d="M210.4,105.0 L210.0,106.0 L208.5,106.4 L208.1,105.0 L209.5,104.4 Z M219.4,95.7 L221.7,96.4 L222.1,97.9 L217.8,100.6 L216.8,100.0 L217.2,96.3 Z M285.1,57.0 L285.0,60.3 L280.4,64.0 L280.4,65.1 L281.7,65.6 L281.4,67.4 L279.4,70.1 L277.7,72.4 L277.4,73.9 L276.1,74.7 L273.1,75.1 L275.1,77.6 L275.5,79.2 L274.9,81.3 L273.5,82.3 L272.4,84.0 L273.2,84.8 L272.7,86.7 L271.2,85.6 L268.9,86.4 L262.8,89.5 L259.9,90.4 L256.1,90.3 L249.5,94.7 L248.5,97.3 L246.2,98.6 L245.0,100.2 L242.3,102.6 L240.5,102.7 L239.2,104.0 L240.6,104.6 L241.0,105.8 L240.6,109.4 L240.9,111.4 L243.0,115.4 L243.2,120.2 L240.7,122.5 L238.4,123.5 L236.5,125.6 L235.7,123.2 L234.1,122.7 L230.6,124.8 L229.7,123.3 L230.2,121.7 L229.6,119.7 L228.8,119.3 L229.6,118.0 L228.7,116.6 L227.5,113.2 L227.9,111.3 L227.0,109.2 L224.4,107.9 L226.2,105.2 L226.5,102.0 L225.9,99.9 L224.3,99.1 L224.1,97.4 L222.8,97.2 L221.3,95.3 L220.4,95.8 L217.6,94.0 L216.4,95.0 L214.4,94.2 L214.1,91.5 L217.2,92.4 L215.2,90.2 L214.0,90.4 L211.9,89.2 L210.6,85.5 L212.6,84.4 L212.1,81.3 L214.1,81.6 L212.1,80.2 L211.0,78.3 L208.3,77.1 L208.6,75.5 L208.2,72.7 L207.0,69.9 L208.2,69.1 L208.7,67.4 L207.8,64.8 L208.6,64.2 L209.6,61.7 L210.0,59.1 L212.2,57.4 L213.5,55.3 L213.3,53.4 L217.4,51.8 L216.1,54.0 L216.4,55.1 L217.8,55.5 L217.9,57.6 L221.1,60.8 L222.4,61.1 L223.1,62.4 L226.0,63.9 L227.5,66.5 L228.8,66.5 L231.9,68.3 L235.2,67.3 L236.2,66.0 L241.2,64.6 L243.5,65.4 L246.3,65.5 L247.9,64.9 L250.4,65.1 L251.6,63.5 L254.4,62.7 L255.5,59.5 L255.3,58.4 L259.5,56.4 L263.9,56.4 L265.1,55.9 L267.6,56.5 L266.8,58.3 L268.7,57.9 L272.2,58.9 L273.3,59.7 L274.9,59.3 L277.1,60.4 L280.7,57.1 L282.8,56.7 Z">
  <desc xmlns="http://www.highcharts.com/svg/namespace">
    <labelrank>2</labelrank>
    <hasc>ID.KB</hasc>
    <alt-name>Kalbar</alt-name>
    <woe-id>2345720</woe-id>
    <subregion>NULL</subregion>
    <fips>ID11</fips>
    <postal-code>KB</postal-code>
    <name>Kalimantan Barat</name>
    <country>Indonesia</country>
    <type-en>Province</type-en>
    <region>NULL</region>
    <longitude>111.304</longitude>
    <woe-name>Kalimantan Barat</woe-name>
    <latitude>-0.063647</latitude>
    <woe-label>West Kalimantan, ID, Indonesia</woe-label>
    <type>Propinsi</type>
    <hc-middle-x>0.46</hc-middle-x>
    <hc-middle-y>0.42</hc-middle-y>
    <hc-key>id-kb</hc-key>
    <hc-a2>KB</hc-a2>
  </desc>
</path>

<path fill="#CEE3F5" stroke="#6E6E6E" stroke-width="0.4" id="ID.BB" d="M180.7,128.0 L178.6,127.2 L179.8,126.0 L181.3,126.5 Z M189.9,125.2 L188.7,126.3 L187.6,125.5 L189.3,124.5 Z M194.8,120.2 L198.0,120.6 L201.1,122.8 L201.5,124.4 L200.4,126.5 L200.6,128.4 L198.9,128.9 L197.5,130.2 L197.0,128.8 L195.5,127.5 L195.2,128.9 L192.2,130.4 L192.2,128.7 L191.2,127.1 L191.3,123.8 L191.9,123.2 L192.2,120.5 Z M178.5,129.1 L175.7,129.2 L174.5,127.6 L169.2,125.9 L167.6,125.7 L166.2,122.9 L166.7,121.0 L164.9,119.6 L164.2,116.3 L161.4,115.6 L160.8,115.0 L159.1,115.9 L157.0,116.2 L155.8,115.3 L154.6,115.5 L154.6,113.4 L157.7,111.5 L157.2,109.0 L158.8,107.7 L160.7,107.0 L162.4,108.8 L161.7,109.6 L164.2,110.7 L163.2,109.5 L162.6,106.9 L164.3,106.7 L165.4,106.3 L167.4,107.6 L167.4,108.9 L169.6,111.7 L169.5,113.6 L171.3,118.6 L172.7,120.1 L179.9,121.2 L177.6,123.3 L176.9,126.9 L178.8,127.7 Z">
  <desc xmlns="http://www.highcharts.com/svg/namespace">
    <labelrank>2</labelrank>
    <hasc>ID.BB</hasc>
    <alt-name>Babel|Kepulauan Bangka Belitung</alt-name>
    <woe-id>28350154</woe-id>
    <subregion>NULL</subregion>
    <fips>ID35</fips>
    <postal-code>BB</postal-code>
    <name>Bangka-Belitung</name>
    <country>Indonesia</country>
    <type-en>Province</type-en>
    <region>NULL</region>
    <longitude>106.819</longitude>
    <woe-name>Bangka-Belitung</woe-name>
    <latitude>-2.95817</latitude>
    <woe-label>Bangka-Belitung, ID, Indonesia</woe-label>
    <type>Propinsi</type>
    <hc-middle-x>0.23</hc-middle-x>
    <hc-middle-y>0.35</hc-middle-y>
    <hc-key>id-bb</hc-key>
    <hc-a2>BB</hc-a2>
  </desc>
</path>

<path fill="#CEE3F5" stroke="#6E6E6E" stroke-width="0.4" id="ID.BA" d="M312.4,203.6 L313.2,205.0 L312.7,205.5 L310.9,204.5 Z M299.2,196.3 L301.7,197.0 L304.1,196.6 L305.6,195.1 L306.8,194.9 L311.0,196.3 L314.3,199.1 L312.7,201.1 L308.7,203.0 L307.2,204.6 L307.6,205.9 L305.5,206.0 L306.8,204.6 L306.3,203.7 L302.9,201.0 L300.9,200.2 L298.6,200.2 L296.0,197.7 L295.7,195.9 Z">
  <desc xmlns="http://www.highcharts.com/svg/namespace">
    <labelrank>2</labelrank>
    <hasc>ID.BA</hasc>
    <alt-name>Penida|Lembongan|Ceningan|Menjangan</alt-name>
    <woe-id>2345711</woe-id>
    <subregion>NULL</subregion>
    <fips>ID02</fips>
    <postal-code>BA</postal-code>
    <name>Bali</name>
    <country>Indonesia</country>
    <type-en>Province</type-en>
    <region>NULL</region>
    <longitude>115.179</longitude>
    <woe-name>Bali</woe-name>
    <latitude>-8.341200000000001</latitude>
    <woe-label>Bali, ID, Indonesia</woe-label>
    <type>Propinsi</type>
    <hc-middle-x>0.48</hc-middle-x>
    <hc-middle-y>0.29</hc-middle-y>
    <hc-key>id-ba</hc-key>
    <hc-a2>BA</hc-a2>
  </desc>
</path>

<path fill="#CEE3F5" stroke="#6E6E6E" stroke-width="0.4" id="ID.JI" d="M294.2,181.9 L294.2,182.6 L292.7,182.1 L293.1,180.7 Z M308.3,176.9 L311.2,177.7 L311.0,178.3 L308.4,178.0 L307.2,179.4 L306.1,178.0 L306.8,176.9 Z M268.7,162.7 L269.0,164.1 L267.1,164.5 L266.8,163.7 Z M274.7,179.2 L281.4,179.1 L288.1,178.5 L290.2,179.9 L287.1,181.0 L286.0,182.3 L283.5,182.1 L281.9,184.0 L275.8,184.2 L269.9,183.5 L269.4,181.7 L271.4,179.8 Z M254.2,178.1 L257.3,179.0 L258.7,178.6 L260.1,180.1 L261.9,180.2 L264.4,179.6 L267.9,179.9 L267.7,181.1 L269.3,183.8 L268.1,184.1 L269.6,184.9 L270.8,184.1 L271.4,184.9 L270.7,188.9 L272.0,189.7 L274.8,190.5 L276.2,191.5 L278.7,192.2 L282.0,190.8 L286.0,190.9 L289.0,189.2 L290.9,190.4 L292.6,190.3 L295.7,192.0 L295.6,194.7 L294.6,200.5 L294.9,202.1 L295.5,201.3 L296.2,203.5 L298.1,204.1 L298.3,205.7 L294.9,205.4 L295.1,204.3 L293.9,203.5 L292.4,204.1 L289.2,203.9 L286.7,202.4 L285.4,202.7 L284.2,201.8 L280.8,200.9 L279.8,200.0 L277.6,199.4 L274.6,200.3 L273.4,201.5 L272.4,201.2 L270.1,202.3 L266.7,201.7 L265.2,200.9 L259.2,200.8 L257.2,200.2 L255.5,201.9 L254.9,201.3 L252.2,201.3 L252.1,200.8 L249.5,200.5 L248.2,201.1 L247.0,200.1 L246.5,200.8 L244.8,200.5 L245.0,198.8 L246.9,197.2 L249.5,196.0 L249.7,193.7 L248.0,192.7 L247.7,190.1 L248.0,186.0 L251.3,186.7 L253.6,184.3 L253.3,181.5 Z">
  <desc xmlns="http://www.highcharts.com/svg/namespace">
    <labelrank>2</labelrank>
    <hasc>ID.JI</hasc>
    <alt-name>Jatim</alt-name>
    <woe-id>2345717</woe-id>
    <subregion>NULL</subregion>
    <fips>ID08</fips>
    <postal-code>JI</postal-code>
    <name>Jawa Timur</name>
    <country>Indonesia</country>
    <type-en>Province</type-en>
    <region>NULL</region>
    <longitude>112.616</longitude>
    <woe-name>Jawa Timur</woe-name>
    <latitude>-7.88129</latitude>
    <woe-label>East Java, ID, Indonesia</woe-label>
    <type>Propinsi</type>
    <hc-middle-x>0.28</hc-middle-x>
    <hc-middle-y>0.66</hc-middle-y>
    <hc-key>id-ji</hc-key>
    <hc-a2>JI</hc-a2>
  </desc>
</path>

<path fill="#CEE3F5" stroke="#6E6E6E" stroke-width="0.4" id="ID.KS" d="M321.0,129.4 L319.9,128.0 L321.0,125.6 L321.4,126.1 Z M315.9,127.4 L316.9,125.0 L318.9,123.4 L318.9,126.1 L319.9,133.4 L317.3,135.4 L316.2,135.3 L316.7,133.9 L315.4,129.9 Z M322.7,110.7 L322.4,112.9 L319.0,113.1 L320.2,113.9 L320.1,117.6 L319.6,119.1 L318.4,120.4 L316.9,117.6 L316.4,120.4 L317.1,120.3 L318.8,122.2 L317.3,122.8 L315.2,127.0 L314.7,129.3 L312.8,129.8 L309.2,132.1 L301.7,135.5 L296.7,138.4 L295.4,138.5 L294.9,131.4 L293.7,129.7 L293.7,126.5 L292.9,128.6 L290.3,128.0 L292.7,119.8 L294.5,118.8 L296.7,116.7 L298.3,112.7 L298.1,110.4 L301.4,109.5 L304.2,106.8 L304.5,104.9 L304.1,102.9 L305.2,98.0 L308.9,96.7 L308.9,97.6 L307.4,99.1 L308.3,99.1 L310.1,102.8 L310.4,106.0 L311.6,106.6 L311.4,108.6 L312.5,111.0 L314.2,109.8 L320.0,110.1 Z">
  <desc xmlns="http://www.highcharts.com/svg/namespace">
    <labelrank>2</labelrank>
    <hasc>ID.KS</hasc>
    <alt-name>Kalsel</alt-name>
    <woe-id>2345721</woe-id>
    <subregion>NULL</subregion>
    <fips>ID12</fips>
    <postal-code>KS</postal-code>
    <name>Kalimantan Selatan</name>
    <country>Indonesia</country>
    <type-en>Province</type-en>
    <region>NULL</region>
    <longitude>115.451</longitude>
    <woe-name>Kalimantan Selatan</woe-name>
    <latitude>-3.00713</latitude>
    <woe-label>South Kalimantan, ID, Indonesia</woe-label>
    <type>Propinsi</type>
    <hc-middle-x>0.49</hc-middle-x>
    <hc-middle-y>0.56</hc-middle-y>
    <hc-key>id-ks</hc-key>
    <hc-a2>KS</hc-a2>
  </desc>
</path>

<path fill="#CEE3F5" stroke="#6E6E6E" stroke-width="0.4" id="ID.NT" d="M406.1,226.3 L406.9,227.6 L405.0,228.9 L402.5,228.3 Z M428.3,222.6 L427.4,222.8 L427.7,224.4 L426.3,223.4 L427.5,221.8 Z M372.2,201.1 L372.7,201.5 L372.6,203.1 L371.2,202.7 Z M369.1,198.5 L370.7,198.9 L367.9,202.1 L368.3,198.0 Z M423.5,196.2 L423.4,196.8 L421.1,197.4 L420.4,198.6 L419.3,198.6 L421.0,196.5 Z M425.2,193.4 L425.8,193.5 L425.7,195.5 L421.6,195.9 L421.5,194.8 L423.7,193.3 Z M439.2,195.1 L438.3,197.3 L436.6,197.5 L436.1,195.9 L434.4,196.3 L435.5,194.5 L436.6,194.0 L437.4,195.2 L439.5,192.1 L440.2,194.1 Z M419.5,233.3 L419.0,231.2 L422.4,230.1 L425.0,227.6 L427.3,225.9 L427.1,227.9 L427.7,229.5 L425.3,230.4 L424.8,231.6 Z M377.2,220.5 L373.1,218.6 L372.7,217.8 L369.8,217.2 L368.8,217.8 L365.4,217.2 L363.4,216.3 L361.9,214.8 L363.1,212.8 L365.2,212.0 L371.9,211.1 L374.7,211.6 L376.5,210.2 L377.5,211.2 L378.4,212.4 L380.9,213.3 L381.4,215.3 L384.4,215.1 L385.9,216.5 L387.3,218.7 L389.1,219.7 L389.7,221.6 L388.0,223.4 L385.9,223.8 L384.3,225.0 L383.4,224.4 L379.9,223.8 L378.1,222.3 Z M431.0,196.1 L430.7,195.6 L429.1,198.1 L428.4,197.4 L427.0,198.4 L424.4,197.6 L426.3,195.8 L427.9,195.1 L426.4,194.4 L427.1,193.7 L429.3,193.3 L428.6,194.7 L429.4,195.2 L430.4,192.9 L431.5,193.2 L432.7,192.2 L434.9,193.1 L432.4,194.1 Z M452.0,191.5 L452.7,192.6 L452.5,194.4 L447.2,195.3 L445.4,195.3 L442.0,196.3 L440.7,195.5 L441.9,193.9 L441.6,192.6 L442.4,191.5 L444.1,191.2 L444.7,192.4 L445.6,191.8 Z M430.0,219.6 L431.1,217.7 L431.6,213.6 L434.1,211.7 L436.0,209.6 L437.9,210.7 L439.0,209.9 L439.9,211.8 L442.4,208.7 L442.7,206.9 L444.4,206.8 L446.3,205.2 L449.6,203.5 L450.1,205.3 L452.1,203.9 L453.2,205.0 L453.0,206.9 L450.5,207.0 L450.2,207.7 L451.9,211.3 L451.0,212.1 L450.5,214.0 L448.7,215.3 L447.1,217.6 L444.3,219.7 L442.5,221.6 L438.1,221.8 L436.8,223.4 L433.8,224.7 L430.1,224.4 L428.5,224.7 L429.6,222.2 L432.6,220.8 L432.5,220.1 Z M421.2,194.8 L419.6,195.3 L419.5,196.7 L418.1,196.4 L418.8,198.1 L418.2,199.0 L414.7,199.9 L412.4,201.1 L408.0,201.1 L406.5,202.1 L403.4,203.4 L397.5,202.3 L396.7,204.1 L394.2,203.9 L392.7,204.6 L390.6,204.4 L389.2,202.8 L388.3,203.6 L385.7,202.6 L382.6,202.7 L380.6,203.2 L378.9,202.5 L376.7,203.2 L375.9,204.1 L374.2,202.2 L374.1,200.1 L375.0,198.5 L377.2,196.9 L378.4,196.9 L379.9,195.4 L385.5,195.1 L385.5,194.3 L387.7,195.7 L391.1,195.7 L392.0,196.5 L395.8,197.6 L397.2,199.0 L398.5,198.9 L399.1,199.4 L401.6,198.0 L404.7,197.6 L406.4,196.6 L406.9,197.9 L410.6,199.5 L413.7,198.6 L413.5,197.1 L415.0,195.9 L417.4,195.3 L420.2,192.9 L417.1,193.4 L417.9,191.6 L418.8,190.9 L420.6,192.0 Z">
  <desc xmlns="http://www.highcharts.com/svg/namespace">
    <labelrank>2</labelrank>
    <hasc>ID.NT</hasc>
    <alt-name>NTT</alt-name>
    <woe-id>2345727</woe-id>
    <subregion>NULL</subregion>
    <fips>ID18</fips>
    <postal-code>NT</postal-code>
    <name>Nusa Tenggara Timur</name>
    <country>Indonesia</country>
    <type-en>Province</type-en>
    <region>NULL</region>
    <longitude>120.689</longitude>
    <woe-name>Nusa Tenggara Timur</woe-name>
    <latitude>-8.584429999999999</latitude>
    <woe-label>East Nusa Tenggara, ID, Indonesia</woe-label>
    <type>Propinsi</type>
    <hc-middle-x>0.28</hc-middle-x>
    <hc-middle-y>0.20</hc-middle-y>
    <hc-key>id-nt</hc-key>
    <hc-a2>NT</hc-a2>
  </desc>
</path>

<path fill="#CEE3F5" stroke="#6E6E6E" stroke-width="0.4" id="ID.SE" d="M389.1,180.1 L391.7,180.2 L391.8,180.7 L388.3,180.5 Z M387.1,177.2 L387.5,178.0 L386.1,178.4 L385.3,176.1 Z M383.7,161.1 L383.5,166.4 L383.1,168.4 L382.3,163.6 L382.1,159.2 L382.6,158.1 Z M389.7,115.6 L388.9,114.2 L389.6,113.3 L388.4,111.9 L384.9,111.4 L382.1,112.5 L381.6,113.5 L376.7,116.9 L378.0,119.8 L379.6,120.5 L380.4,127.1 L380.8,128.0 L379.5,131.1 L380.1,134.5 L380.0,137.8 L381.3,141.3 L380.6,144.3 L379.5,145.0 L379.0,149.1 L380.8,151.8 L382.1,156.0 L380.1,154.4 L376.8,155.7 L374.1,155.5 L372.5,157.3 L369.0,156.9 L368.2,155.5 L367.0,155.1 L365.7,152.7 L366.3,149.1 L367.1,148.5 L367.9,145.6 L367.3,143.7 L368.7,140.9 L369.0,137.2 L368.4,133.0 L366.2,128.5 L366.9,126.0 L366.5,125.1 L365.3,120.8 L368.5,119.6 L366.9,116.6 L366.4,114.4 L368.5,114.3 L370.3,113.3 L368.9,108.3 L367.7,107.5 L367.9,105.7 L370.5,103.7 L371.1,102.3 L373.6,100.8 L377.3,101.2 L378.9,100.2 L382.4,104.0 L385.1,105.9 L393.3,107.1 L394.8,107.6 L400.0,111.6 L399.9,113.5 L397.4,116.2 L395.6,116.9 L392.6,115.0 Z">
  <desc xmlns="http://www.highcharts.com/svg/namespace">
    <labelrank>2</labelrank>
    <hasc>ID.SE</hasc>
    <alt-name>Sulsel</alt-name>
    <woe-id>2345729</woe-id>
    <subregion>NULL</subregion>
    <fips>ID38</fips>
    <postal-code>SE</postal-code>
    <name>Sulawesi Selatan</name>
    <country>Indonesia</country>
    <type-en>Province</type-en>
    <region>NULL</region>
    <longitude>119.99</longitude>
    <woe-name>Sulawesi Selatan</woe-name>
    <latitude>-3.7444</latitude>
    <woe-label>South Sulawesi, ID, Indonesia</woe-label>
    <type>Propinsi</type>
    <hc-middle-x>0.22</hc-middle-x>
    <hc-middle-y>0.38</hc-middle-y>
    <hc-key>id-se</hc-key>
    <hc-a2>SE</hc-a2>
  </desc>
</path>

<path fill="#CEE3F5" stroke="#6E6E6E" stroke-width="0.4" id="ID.KR" d="M144.3,91.3 L145.0,92.5 L144.0,94.5 L142.6,94.0 L141.7,95.3 L141.3,93.6 L140.1,92.6 L141.0,91.0 L141.9,91.4 L143.1,90.4 Z M143.3,82.0 L146.1,84.2 L146.0,84.8 L143.7,82.9 Z M139.0,75.4 L138.2,74.7 L139.4,74.0 L139.8,75.2 Z M126.6,73.4 L128.1,75.2 L128.0,77.0 L126.7,76.6 L125.6,75.1 L125.7,73.4 Z M132.9,74.6 L131.3,73.5 L131.4,72.8 L132.5,73.6 Z M137.8,72.7 L139.2,73.0 L138.1,73.9 L136.6,72.8 L136.8,71.7 Z M126.9,71.3 L125.6,71.5 L124.9,70.7 L126.0,69.6 Z M137.3,68.9 L137.1,70.3 L135.9,71.3 L134.4,70.9 L133.6,69.8 L135.6,68.4 Z M205.3,40.4 L204.3,39.9 L205.4,38.2 L206.0,38.5 Z M160.1,40.7 L160.6,41.8 L158.9,42.1 L159.3,40.8 Z M166.7,36.8 L167.4,37.4 L167.5,38.8 L166.4,38.2 Z M147.0,88.4 L144.1,89.4 L142.7,88.7 L143.7,85.5 L144.6,85.3 L147.4,88.0 L148.6,87.2 L151.1,89.2 L148.8,89.6 Z M138.5,69.5 L140.9,67.8 L143.8,67.7 L144.8,69.2 L144.8,71.8 L144.2,73.1 L142.4,72.8 L141.4,71.4 L141.8,69.9 L139.8,70.8 Z M193.7,28.6 L195.8,26.8 L193.1,26.3 L191.9,24.1 L195.2,20.5 L196.6,22.7 L197.9,24.0 L198.2,25.8 L197.0,28.6 L194.9,29.2 Z">
  <desc xmlns="http://www.highcharts.com/svg/namespace">
    <labelrank>2</labelrank>
    <hasc>ID.KR</hasc>
    <alt-name>Rhio|Riou|Riouw</alt-name>
    <woe-id>55949082</woe-id>
    <subregion>NULL</subregion>
    <fips>ID40</fips>
    <postal-code>KR</postal-code>
    <name>Kepulauan Riau</name>
    <country>Indonesia</country>
    <type-en>Province</type-en>
    <region>NULL</region>
    <longitude>104.601</longitude>
    <woe-name>Kepulauan Riau</woe-name>
    <latitude>-0.142639</latitude>
    <woe-label>Kepulauan Riau, ID, Indonesia</woe-label>
    <type>Propinsi</type>
    <hc-middle-x>0.87</hc-middle-x>
    <hc-middle-y>0.06</hc-middle-y>
    <hc-key>id-kr</hc-key>
    <hc-a2>KR</hc-a2>
  </desc>
</path>

<path fill="#CEE3F5" stroke="#6E6E6E" stroke-width="0.4" id="ID.IB" d="M580.0,128.9 L578.5,129.1 L576.5,127.9 L576.5,127.0 Z M592.0,95.8 L591.2,94.8 L592.0,93.5 L592.7,94.0 Z M588.9,92.3 L588.5,90.9 L589.3,89.5 L589.6,90.3 Z M522.4,83.6 L520.9,84.6 L519.1,84.1 L520.8,83.2 Z M535.7,76.7 L537.0,76.8 L535.5,78.3 L532.4,79.0 L529.6,78.9 L529.7,77.8 L534.1,77.7 Z M528.8,66.9 L534.9,65.0 L540.0,66.0 L542.3,67.0 L543.1,68.8 L541.6,70.6 L539.4,69.7 L537.1,70.1 L535.9,68.8 L534.6,68.6 L532.9,66.2 L532.0,67.2 L534.9,69.8 L536.1,69.4 L537.1,70.5 L535.8,71.5 L533.8,71.8 L533.0,69.5 L531.3,70.2 L531.1,71.7 L532.1,71.4 L533.1,72.1 L532.4,73.2 L529.7,73.3 L530.3,72.0 L531.1,71.7 L530.2,69.0 L529.2,69.6 L525.9,68.7 L528.5,68.6 L528.6,67.4 L527.0,68.0 L526.6,67.0 Z M527.6,96.7 L522.4,96.3 L519.1,94.6 L523.6,92.4 L526.8,92.0 L528.9,91.3 L530.2,93.6 Z M535.0,84.1 L532.9,80.2 L536.6,78.6 L537.3,79.1 L538.8,78.8 L539.5,79.7 L539.1,83.6 L538.3,85.5 L536.3,85.4 Z M600.8,128.8 L597.3,126.9 L598.0,123.9 L601.6,124.3 L601.2,123.5 L597.5,123.4 L595.2,125.3 L593.7,123.5 L592.1,122.9 L591.9,125.3 L589.1,123.0 L589.9,122.4 L588.8,121.0 L588.3,122.3 L586.2,122.5 L584.3,119.5 L584.1,120.8 L582.1,119.1 L581.0,116.8 L581.9,116.2 L581.6,113.2 L584.3,110.7 L584.2,108.2 L583.3,109.8 L581.3,111.5 L581.3,115.2 L579.7,116.4 L580.2,118.5 L577.5,121.0 L578.3,122.9 L575.4,126.2 L572.5,126.4 L570.8,127.2 L568.4,124.6 L566.9,120.6 L567.2,119.8 L569.2,120.0 L569.9,118.6 L568.3,117.2 L567.9,114.4 L566.1,115.3 L564.6,113.7 L563.8,111.8 L560.2,109.4 L558.0,109.0 L556.3,109.7 L554.7,109.1 L555.7,107.3 L554.5,107.2 L558.1,105.3 L564.1,105.7 L566.5,107.1 L568.0,105.9 L571.0,101.8 L573.1,100.8 L575.3,101.0 L577.0,102.9 L577.3,101.9 L578.7,103.2 L580.0,102.3 L581.0,102.7 L581.3,105.1 L581.7,101.9 L583.4,104.0 L583.3,101.3 L582.2,100.7 L585.9,100.1 L584.5,99.5 L585.3,98.3 L582.8,97.9 L585.2,96.4 L585.0,95.4 L581.4,96.6 L580.5,97.6 L577.3,97.7 L574.9,97.3 L569.5,98.8 L567.4,98.2 L565.6,99.2 L563.4,97.5 L560.1,98.9 L558.0,97.4 L555.8,96.5 L554.1,94.4 L553.3,92.0 L554.6,90.0 L553.1,90.4 L552.7,88.8 L551.3,89.0 L551.3,87.6 L550.0,88.5 L549.6,87.6 L547.6,87.2 L545.3,87.5 L544.4,86.0 L542.9,86.0 L543.7,87.2 L541.9,88.1 L540.6,87.1 L538.0,87.1 L539.0,84.4 L541.3,83.4 L542.3,81.2 L542.0,77.2 L546.6,75.7 L546.2,76.5 L551.8,74.6 L555.0,71.2 L557.6,69.7 L560.2,69.0 L564.5,69.0 L567.6,70.3 L568.7,70.1 L571.6,71.3 L575.5,74.1 L581.0,74.3 L584.7,73.7 L587.9,75.7 L585.8,77.3 L587.4,80.2 L589.9,83.3 L588.9,86.9 L587.1,88.7 L588.4,94.2 L588.4,96.4 L589.2,99.5 L591.4,101.7 L593.7,107.0 L594.8,106.5 L593.8,103.4 L593.9,101.9 L594.9,101.1 L594.4,99.8 L595.3,98.2 L595.4,100.2 L596.6,102.2 L597.0,106.5 L593.5,109.5 L593.6,110.4 L590.6,114.1 L590.7,115.5 L606.8,120.8 Z">
  <desc xmlns="http://www.highcharts.com/svg/namespace">
    <labelrank>2</labelrank>
    <hasc>ID.IB</hasc>
    <alt-name>New Guinea|Yos Sudarso or Frederick Hendrik|Waigeo|Supiori Biak|Yapen|Misool|Salawati|Batanta</alt-name>
    <woe-id>28350157</woe-id>
    <subregion>NULL</subregion>
    <fips>ID39</fips>
    <postal-code>IB</postal-code>
    <name>Irian Jaya Barat</name>
    <country>Indonesia</country>
    <type-en>Province</type-en>
    <region>NULL</region>
    <longitude>132.825</longitude>
    <woe-name>Irian Jaya Barat</woe-name>
    <latitude>-1.32525</latitude>
    <woe-label>West Papua, ID, Indonesia</woe-label>
    <type>Propinsi</type>
    <hc-middle-x>0.52</hc-middle-x>
    <hc-middle-y>0.30</hc-middle-y>
    <hc-key>id-ib</hc-key>
    <hc-a2>IB</hc-a2>
  </desc>
</path>

<path fill="#CEE3F5" stroke="#6E6E6E" stroke-width="0.4" id="ID.SU" d="M53.7,97.8 L52.8,99.0 L51.2,98.3 L51.8,95.5 L53.0,94.1 L53.9,95.6 Z M54.7,94.3 L54.5,95.8 L50.4,90.4 L52.1,90.3 Z M55.3,87.4 L58.5,87.8 L58.7,88.6 L54.0,88.8 L53.8,87.9 Z M52.4,65.1 L53.8,65.5 L51.4,65.4 L51.7,64.5 Z M79.1,50.6 L79.1,50.6 L79.1,50.6 L79.1,50.6 Z M79.1,50.6 L79.1,50.6 L79.1,50.6 Z M63.2,85.8 L62.0,80.4 L61.3,80.4 L61.1,78.1 L60.2,77.3 L59.0,73.1 L56.2,66.9 L57.1,64.6 L55.7,63.1 L54.6,63.5 L52.7,61.0 L48.6,59.7 L45.9,57.5 L46.2,55.4 L44.5,51.7 L45.1,50.2 L44.9,48.1 L42.8,46.8 L42.3,44.2 L42.9,43.3 L41.7,41.5 L43.5,40.4 L42.2,38.9 L40.2,34.2 L43.4,30.6 L44.2,26.6 L47.2,25.8 L47.9,28.9 L50.5,29.3 L53.6,31.2 L54.2,32.8 L55.5,34.0 L58.0,34.7 L61.4,36.4 L66.2,39.4 L67.8,41.0 L70.2,41.6 L71.8,43.5 L73.8,44.9 L74.2,47.1 L73.6,48.6 L75.1,48.2 L76.3,51.1 L76.2,48.8 L77.3,48.3 L79.1,50.6 L79.1,50.6 L79.1,50.6 L79.1,50.6 L78.7,53.6 L79.3,56.2 L79.4,60.7 L80.5,61.6 L81.6,64.8 L80.3,65.9 L76.7,67.7 L76.2,68.6 L78.6,71.3 L78.7,75.9 L78.2,77.5 L72.9,76.1 L71.1,75.9 L74.4,80.5 L73.0,82.1 L69.5,80.9 L65.9,82.4 Z M30.7,69.9 L33.3,69.7 L35.3,68.1 L37.1,68.7 L40.4,72.9 L41.9,73.5 L44.3,75.7 L43.8,77.0 L43.7,80.9 L42.9,82.2 L41.0,82.1 L39.5,78.4 L36.0,76.6 L35.9,75.6 L33.6,72.1 Z">
  <desc xmlns="http://www.highcharts.com/svg/namespace">
    <labelrank>2</labelrank>
    <hasc>ID.SU</hasc>
    <alt-name>Sumut</alt-name>
    <woe-id>2345735</woe-id>
    <subregion>NULL</subregion>
    <fips>ID26</fips>
    <postal-code>SU</postal-code>
    <name>Sumatera Utara</name>
    <country>Indonesia</country>
    <type-en>Province</type-en>
    <region>NULL</region>
    <longitude>99.2161</longitude>
    <woe-name>Sumatera Utara</woe-name>
    <latitude>2.36304</latitude>
    <woe-label>North Sumatra, ID, Indonesia</woe-label>
    <type>Propinsi</type>
    <hc-middle-x>0.61</hc-middle-x>
    <hc-middle-y>0.37</hc-middle-y>
    <hc-key>id-su</hc-key>
    <hc-a2>SU</hc-a2>
  </desc>
</path>

<path fill="#CEE3F5" stroke="#6E6E6E" stroke-width="0.4" id="ID.RI" d="M123.4,78.9 L122.7,78.5 L122.9,76.7 L123.6,76.0 L124.9,77.1 L124.8,78.4 Z M120.8,71.1 L123.0,73.4 L121.7,74.1 L117.1,71.5 L115.0,72.0 L115.9,69.7 L117.2,69.6 Z M112.3,72.8 L110.4,72.9 L108.8,70.9 L108.8,69.1 L108.2,68.0 L108.3,66.3 L109.4,66.4 L112.3,68.6 L112.0,70.7 Z M100.5,57.1 L101.4,58.7 L100.6,61.2 L98.6,62.3 L96.8,61.6 L95.7,59.2 L96.3,57.1 L97.6,57.2 L99.3,56.1 Z M105.0,63.4 L108.5,63.9 L112.3,64.9 L112.8,68.1 L111.6,67.8 L110.0,66.2 L107.1,65.7 Z M78.7,53.6 L79.1,50.6 L80.2,53.5 L83.0,56.4 L84.6,56.6 L87.6,58.5 L89.0,60.2 L86.7,56.1 L86.7,54.8 L88.1,54.0 L90.3,54.0 L90.6,55.1 L94.2,57.5 L95.5,61.5 L96.3,62.4 L98.8,63.1 L101.6,63.2 L105.4,66.0 L106.9,66.7 L108.2,69.7 L109.0,72.6 L112.5,75.6 L118.7,76.0 L121.4,78.3 L121.8,80.0 L116.6,83.0 L119.4,82.7 L124.0,79.2 L126.0,78.4 L128.7,79.8 L129.8,81.6 L130.4,81.0 L132.1,82.5 L132.8,86.2 L129.8,86.3 L129.8,87.6 L128.5,88.0 L127.4,89.5 L128.5,89.4 L127.8,91.3 L128.3,91.5 L129.0,89.8 L130.6,89.6 L132.5,90.5 L132.6,91.1 L130.4,91.9 L128.7,91.7 L130.1,92.4 L129.9,93.2 L127.7,93.9 L126.7,96.6 L128.1,97.3 L123.1,97.9 L120.4,98.0 L118.7,98.5 L117.0,100.2 L115.1,103.0 L112.2,102.1 L110.7,100.2 L109.6,99.9 L107.0,100.4 L105.2,102.3 L103.5,103.0 L102.0,102.0 L99.8,101.6 L95.3,98.4 L91.5,94.1 L89.3,93.1 L87.5,89.3 L88.9,88.7 L88.7,85.5 L83.5,81.9 L81.4,82.5 L79.8,82.0 L78.1,79.2 L78.2,77.5 L78.7,75.9 L78.6,71.3 L76.2,68.6 L76.7,67.7 L80.3,65.9 L81.6,64.8 L80.5,61.6 L79.4,60.7 L79.3,56.2 Z M118.2,74.9 L113.9,75.4 L111.5,74.1 L112.9,72.6 L112.6,70.2 L113.6,70.3 L115.0,72.1 L116.8,71.8 L120.7,74.1 L121.3,75.1 L120.6,76.3 Z">
  <desc xmlns="http://www.highcharts.com/svg/namespace">
    <labelrank>2</labelrank>
    <hasc>ID.RI</hasc>
    <alt-name>Rhio|Riou|Riouw</alt-name>
    <woe-id>2345728</woe-id>
    <subregion>NULL</subregion>
    <fips>ID37</fips>
    <postal-code>RI</postal-code>
    <name>Riau</name>
    <country>Indonesia</country>
    <type-en>Province</type-en>
    <region>NULL</region>
    <longitude>101.745</longitude>
    <woe-name>Riau</woe-name>
    <latitude>0.396892</latitude>
    <woe-label>Riau, ID, Indonesia</woe-label>
    <type>Propinsi</type>
    <hc-middle-x>0.39</hc-middle-x>
    <hc-middle-y>0.57</hc-middle-y>
    <hc-key>id-ri</hc-key>
    <hc-a2>RI</hc-a2>
  </desc>
</path>

<path fill="#CEE3F5" stroke="#6E6E6E" stroke-width="0.4" id="ID.SW" d="M450.2,29.8 L449.2,28.6 L449.5,27.4 L450.5,27.7 Z M452.4,16.4 L452.5,18.2 L450.6,17.1 L450.8,15.6 L449.5,14.8 L449.4,13.3 L450.5,13.7 Z M470.4,11.8 L469.3,11.4 L468.9,10.2 L469.9,10.6 Z M468.2,10.9 L467.6,9.2 L466.8,7.5 L468.4,9.3 Z M468.0,4.1 L468.0,0.0 L470.2,0.5 L470.1,2.4 L471.1,3.6 L469.6,5.6 L469.7,7.4 L469.0,8.1 L467.5,7.6 L469.4,4.6 Z M416.9,57.3 L420.9,57.1 L423.9,57.8 L424.6,57.5 L427.9,58.1 L429.6,57.9 L430.5,57.0 L435.0,54.7 L436.0,52.4 L439.0,52.1 L438.2,49.7 L440.3,48.9 L442.6,47.5 L442.3,46.0 L445.2,43.7 L445.4,44.4 L447.4,44.5 L447.3,45.8 L449.0,48.2 L447.1,48.2 L445.7,52.0 L443.8,55.1 L440.4,57.8 L438.2,62.0 L438.4,62.5 L435.6,64.2 L427.0,65.9 L425.4,66.7 L422.7,66.2 L423.3,64.4 L422.2,61.7 L419.3,60.1 L418.5,58.6 Z">
  <desc xmlns="http://www.highcharts.com/svg/namespace">
    <labelrank>2</labelrank>
    <hasc>ID.SW</hasc>
    <alt-name>Sulut</alt-name>
    <woe-id>28350156</woe-id>
    <subregion>NULL</subregion>
    <fips>ID31</fips>
    <postal-code>SW</postal-code>
    <name>Sulawesi Utara</name>
    <country>Indonesia</country>
    <type-en>Province</type-en>
    <region>NULL</region>
    <longitude>124.446</longitude>
    <woe-name>Sulawesi Utara</woe-name>
    <latitude>0.853039</latitude>
    <woe-label>North Sulawesi, ID, Indonesia</woe-label>
    <type>Propinsi</type>
    <hc-middle-x>0.41</hc-middle-x>
    <hc-middle-y>0.82</hc-middle-y>
    <hc-key>id-sw</hc-key>
    <hc-a2>SW</hc-a2>
  </desc>
</path>

<path fill="#CEE3F5" stroke="#6E6E6E" stroke-width="0.4" id="ID.LA" d="M464.1,105.7 L462.4,104.8 L462.0,102.9 L460.6,100.2 L461.6,98.3 L462.4,98.7 L462.4,101.5 L463.8,104.2 Z M487.8,86.0 L487.4,86.7 L484.2,86.3 L485.5,85.2 Z M481.7,79.5 L479.3,79.5 L480.0,77.1 L481.3,78.2 Z M479.7,71.6 L481.0,72.0 L480.7,74.7 L478.5,75.8 L478.2,72.2 Z M515.4,69.2 L513.9,67.8 L512.6,67.3 L511.5,65.4 L515.6,68.6 Z M482.4,65.4 L482.9,65.8 L483.3,68.2 L482.2,66.9 Z M482.2,56.3 L482.5,57.6 L481.6,58.3 L481.5,56.3 Z M481.0,56.3 L479.9,55.5 L480.5,54.7 L481.4,55.5 Z M458.0,96.3 L462.4,95.6 L467.7,95.8 L466.6,96.6 L462.3,97.3 L456.8,97.8 L454.0,98.4 L452.7,96.4 L453.8,96.1 L454.7,95.8 Z M441.8,94.2 L448.8,95.7 L449.2,94.6 L450.3,96.1 L451.7,95.2 L452.3,97.2 L448.2,97.7 L447.7,98.6 L445.3,98.0 L440.7,99.9 L438.6,99.9 L437.4,97.3 L438.1,94.9 L440.2,94.3 Z M493.5,93.1 L491.7,92.7 L488.2,93.0 L485.7,93.7 L483.3,92.3 L484.0,89.0 L484.7,89.5 L486.8,87.6 L489.0,88.1 L490.0,89.0 L491.0,88.9 L493.4,90.6 L494.7,90.9 L495.0,92.4 Z M486.0,77.0 L486.8,78.2 L488.8,77.8 L490.5,78.9 L488.4,80.8 L486.4,78.9 L483.9,79.9 L483.9,77.3 L482.8,77.0 L481.3,75.5 L481.4,72.9 L483.6,73.8 L484.4,72.1 L486.2,73.8 L487.0,74.4 Z M494.1,36.1 L492.5,32.7 L494.2,29.7 L496.3,27.5 L498.3,27.1 L499.9,29.6 L498.3,34.7 L497.2,35.6 Z M492.8,77.9 L489.5,72.8 L486.7,70.9 L486.9,66.7 L486.5,65.0 L486.9,63.2 L484.7,61.2 L483.9,59.1 L484.1,56.4 L485.1,54.9 L483.3,54.2 L482.6,51.5 L481.6,51.9 L481.4,49.1 L483.3,45.3 L482.9,44.5 L483.6,41.1 L485.1,38.4 L488.4,34.4 L490.3,33.8 L490.4,34.7 L488.9,37.3 L487.8,38.1 L487.7,39.7 L490.3,41.2 L490.7,43.9 L490.0,47.6 L488.9,49.8 L488.0,50.0 L485.2,52.4 L485.5,54.0 L487.7,55.3 L489.6,54.1 L489.7,52.0 L491.4,50.2 L493.0,49.9 L493.5,48.9 L491.9,48.1 L493.2,46.2 L497.2,43.4 L501.1,42.8 L500.8,44.7 L501.6,45.3 L501.3,50.4 L497.4,52.7 L495.6,53.3 L494.1,55.3 L495.7,56.8 L501.5,58.4 L501.8,61.4 L503.8,61.8 L504.5,62.8 L499.5,61.8 L498.4,60.9 L495.2,61.1 L492.0,60.2 L489.8,60.6 L489.5,62.7 L490.2,65.1 L489.9,67.5 L492.5,73.4 L495.5,77.8 L498.8,80.6 L496.5,80.3 L495.2,78.7 Z">
  <desc xmlns="http://www.highcharts.com/svg/namespace">
    <labelrank>2</labelrank>
    <hasc>ID.LA</hasc>
    <alt-name>Malut</alt-name>
    <woe-id>20069998</woe-id>
    <subregion>NULL</subregion>
    <fips>ID29</fips>
    <postal-code>LA</postal-code>
    <name>Maluku Utara</name>
    <country>Indonesia</country>
    <type-en>Province</type-en>
    <region>NULL</region>
    <longitude>125.976</longitude>
    <woe-name>Maluku Utara</woe-name>
    <latitude>-2.28945</latitude>
    <woe-label>North Maluku, ID, Indonesia</woe-label>
    <type>Propinsi</type>
    <hc-middle-x>0.63</hc-middle-x>
    <hc-middle-y>0.22</hc-middle-y>
    <hc-key>id-la</hc-key>
    <hc-a2>LA</hc-a2>
  </desc>
</path>

<path fill="#CEE3F5" stroke="#6E6E6E" stroke-width="0.4" id="ID.SB" d="M81.6,130.0 L80.7,130.9 L78.8,131.3 L78.0,126.1 L81.5,128.8 Z M73.6,121.0 L76.0,124.3 L72.1,123.2 L70.9,121.6 L71.7,119.4 Z M98.1,122.0 L95.7,123.2 L93.7,125.0 L92.0,123.0 L90.4,120.2 L91.2,118.6 L90.6,116.5 L89.4,115.4 L85.9,110.0 L85.8,108.3 L83.3,107.5 L82.7,104.0 L81.3,100.9 L79.1,98.8 L76.5,95.8 L73.6,93.5 L72.7,91.7 L72.4,89.6 L70.2,87.8 L67.1,87.0 L65.7,85.9 L63.2,85.8 L65.9,82.4 L69.5,80.9 L73.0,82.1 L74.4,80.5 L71.1,75.9 L72.9,76.1 L78.2,77.5 L78.1,79.2 L79.8,82.0 L81.4,82.5 L83.5,81.9 L88.7,85.5 L88.9,88.7 L87.5,89.3 L89.3,93.1 L91.5,94.1 L95.3,98.4 L99.8,101.6 L102.0,102.0 L103.5,103.0 L104.7,104.8 L104.1,105.9 L102.4,106.8 L102.5,109.9 L99.3,113.3 L96.0,113.7 L94.3,113.4 L94.9,116.6 L96.8,118.9 Z M81.3,131.0 L82.0,130.2 L85.8,133.5 L85.8,134.3 L84.6,135.7 L86.2,138.0 L84.7,137.5 L84.1,135.3 L81.6,133.1 Z M60.6,103.9 L60.5,104.7 L63.2,108.5 L64.3,111.4 L66.5,113.5 L66.4,116.1 L64.1,116.6 L60.8,115.0 L59.5,112.8 L55.9,108.1 L56.7,104.5 L60.1,103.5 Z">
  <desc xmlns="http://www.highcharts.com/svg/namespace">
    <labelrank>2</labelrank>
    <hasc>ID.SB</hasc>
    <alt-name>Sumbar</alt-name>
    <woe-id>2345733</woe-id>
    <subregion>NULL</subregion>
    <fips>ID24</fips>
    <postal-code>SB</postal-code>
    <name>Sumatera Barat</name>
    <country>Indonesia</country>
    <type-en>Province</type-en>
    <region>NULL</region>
    <longitude>100.611</longitude>
    <woe-name>Sumatera Barat</woe-name>
    <latitude>-0.642611</latitude>
    <woe-label>West Sumatra, ID, Indonesia</woe-label>
    <type>Propinsi</type>
    <hc-middle-x>0.45</hc-middle-x>
    <hc-middle-y>0.18</hc-middle-y>
    <hc-key>id-sb</hc-key>
    <hc-a2>SB</hc-a2>
  </desc>
</path>

<path fill="#CEE3F5" stroke="#6E6E6E" stroke-width="0.4" id="ID.MA" d="M498.9,191.5 L498.7,192.6 L497.1,192.5 L497.1,191.5 Z M511.2,191.5 L509.4,192.0 L508.2,191.2 L510.5,191.0 Z M490.9,192.0 L489.6,191.6 L490.8,190.8 L492.1,191.6 Z M493.0,189.9 L497.3,191.0 L496.2,192.2 L492.6,191.1 Z M542.4,190.1 L543.6,190.2 L539.5,191.8 L539.3,192.7 L537.6,193.3 L539.0,191.6 L541.7,189.2 Z M522.3,185.2 L523.5,185.5 L523.7,187.0 L522.5,188.9 L521.2,188.6 L519.7,186.9 L520.2,184.9 Z M543.2,182.1 L542.8,183.0 L540.7,183.3 L541.1,182.6 Z M486.2,183.2 L485.9,181.0 L487.6,181.4 L487.7,182.1 Z M543.9,178.9 L542.5,180.2 L541.2,180.0 L541.5,178.9 Z M555.2,174.0 L556.1,175.0 L555.9,176.3 L554.6,174.9 L553.0,174.9 L552.7,174.1 Z M505.6,175.7 L505.0,176.4 L503.4,175.4 L504.7,174.0 L505.9,174.7 Z M598.2,168.3 L597.3,168.1 L598.4,165.7 L599.0,165.9 Z M599.0,164.9 L597.9,165.2 L597.3,164.0 L598.9,164.0 Z M597.1,163.0 L595.6,164.5 L594.8,163.1 L593.2,162.4 L594.6,160.9 Z M600.7,163.6 L600.0,162.7 L600.7,160.9 L601.5,161.6 Z M567.1,150.7 L568.7,154.5 L567.8,155.9 L566.6,155.2 L566.7,152.2 L565.8,150.6 Z M568.4,149.7 L568.8,151.6 L568.1,151.7 L567.8,150.1 Z M482.5,126.8 L481.5,126.8 L480.9,125.9 L482.4,125.5 Z M500.5,121.9 L500.1,120.6 L501.9,120.4 L502.5,121.3 Z M498.8,121.1 L498.2,122.7 L496.4,123.7 L497.0,122.2 L493.8,124.3 L492.6,123.3 L494.4,121.5 L496.3,121.4 L498.2,120.1 Z M503.9,120.3 L504.6,119.9 L505.0,121.5 L503.5,121.6 L502.5,120.3 Z M486.6,116.7 L487.4,116.9 L488.1,118.3 L485.8,117.3 Z M490.3,116.4 L488.3,116.2 L489.2,115.2 L490.0,115.0 Z M493.3,111.9 L492.8,112.9 L491.1,113.2 L491.3,112.5 Z M596.5,147.3 L598.3,149.0 L597.5,149.7 L599.3,151.1 L598.5,153.7 L599.5,154.6 L597.3,155.3 L599.6,157.7 L598.6,161.4 L597.1,162.2 L593.5,160.3 L594.2,160.8 L592.8,161.6 L589.7,158.9 L589.9,156.5 L591.0,156.9 L591.2,158.5 L592.5,159.5 L592.1,158.9 L592.0,155.2 L593.1,152.9 L590.7,152.2 L591.5,151.4 L592.9,151.9 L595.1,147.7 Z M474.7,182.0 L476.2,183.6 L477.3,183.6 L478.0,184.7 L476.1,184.8 L473.8,186.0 L472.4,188.2 L471.8,187.7 L468.3,187.6 L466.5,187.1 L464.3,187.5 L462.6,189.0 L462.6,186.9 L464.6,184.0 L468.4,184.5 L470.3,184.2 L472.9,182.5 Z M549.2,175.0 L550.9,174.1 L551.1,175.0 L552.4,175.4 L551.0,176.3 L551.9,178.8 L551.0,181.7 L549.7,183.3 L547.1,185.5 L546.0,188.2 L545.5,186.9 L544.7,187.9 L542.9,187.9 L542.5,185.9 L543.6,185.0 L543.3,183.1 L544.3,183.5 L544.1,181.7 L545.0,179.7 L546.6,179.2 Z M592.5,169.9 L590.5,170.9 L588.4,168.6 L589.4,163.0 L589.1,160.0 L589.6,159.2 L592.1,161.1 L592.0,161.8 L594.4,163.4 L595.7,165.6 Z M571.8,151.1 L573.4,145.9 L574.5,145.8 L573.5,150.3 L572.5,151.2 L571.4,152.4 L571.0,154.7 L569.3,156.4 L570.6,152.0 Z M466.2,122.7 L464.3,120.5 L463.3,117.5 L464.7,115.4 L466.2,116.4 L469.7,114.6 L474.2,114.3 L476.5,114.9 L479.9,116.2 L479.5,118.2 L482.7,118.9 L482.4,122.2 L474.9,126.3 L472.6,125.7 Z M518.1,108.8 L521.4,110.3 L524.9,111.3 L529.5,111.0 L533.1,113.1 L534.7,117.3 L536.1,117.3 L537.9,119.8 L537.3,121.7 L537.6,124.3 L533.9,123.1 L530.9,121.0 L526.4,119.6 L524.2,118.5 L522.7,116.6 L517.3,116.3 L516.7,116.9 L517.7,118.4 L516.5,118.8 L510.8,117.3 L508.4,117.5 L508.7,115.9 L507.1,115.2 L504.3,117.5 L504.1,118.8 L501.2,119.4 L499.9,118.6 L498.0,115.8 L496.4,115.5 L496.7,114.2 L495.7,113.7 L494.6,117.1 L493.6,118.3 L492.7,121.0 L492.5,117.3 L491.3,115.3 L493.7,113.7 L495.2,113.6 L496.2,110.3 L501.3,109.8 L506.7,110.0 L509.5,109.0 L510.7,111.3 L514.2,109.7 L515.5,108.5 Z">
  <desc xmlns="http://www.highcharts.com/svg/namespace">
    <labelrank>2</labelrank>
    <hasc>ID.MA</hasc>
    <alt-name>Molucas||Moluccas|Molucche|Moluckerna|Moluqu</alt-name>
    <woe-id>20069997</woe-id>
    <subregion>NULL</subregion>
    <fips>ID28</fips>
    <postal-code>MA</postal-code>
    <name>Maluku</name>
    <country>Indonesia</country>
    <type-en>Province</type-en>
    <region>NULL</region>
    <longitude>128.161</longitude>
    <woe-name>Maluku</woe-name>
    <latitude>-8.248139999999999</latitude>
    <woe-label>Maluku, ID, Indonesia</woe-label>
    <type>Propinsi</type>
    <hc-middle-x>0.36</hc-middle-x>
    <hc-middle-y>0.07</hc-middle-y>
    <hc-key>id-ma</hc-key>
    <hc-a2>MA</hc-a2>
  </desc>
</path>

<path fill="#CEE3F5" stroke="#6E6E6E" stroke-width="0.4" id="ID.NB" d="M341.1,198.1 L340.0,197.6 L340.1,195.1 L342.5,194.6 Z M363.6,195.4 L362.4,195.1 L362.7,193.9 L364.0,194.1 Z M323.8,196.2 L327.6,197.1 L329.2,198.7 L328.4,201.2 L326.0,204.9 L327.0,206.2 L321.7,206.8 L320.9,206.2 L318.8,206.6 L316.2,205.2 L319.5,203.9 L319.6,201.9 L318.9,200.0 L322.3,196.9 Z M345.0,197.6 L343.2,195.8 L343.5,194.7 L345.9,193.6 L349.1,193.9 L351.1,196.9 L352.0,197.5 L354.0,195.8 L357.0,196.1 L357.7,197.3 L357.2,199.6 L358.2,198.5 L358.2,197.0 L359.4,196.2 L362.0,196.3 L363.0,198.6 L362.9,200.9 L365.3,200.6 L364.4,202.6 L362.3,202.8 L360.9,201.9 L358.9,202.3 L358.7,203.2 L361.3,203.5 L359.9,204.3 L358.9,203.6 L354.6,204.7 L353.4,203.7 L353.5,201.9 L350.1,204.9 L349.0,204.6 L346.3,206.1 L344.0,205.7 L341.5,207.2 L338.2,208.2 L335.9,207.9 L335.2,208.8 L333.6,209.1 L329.9,207.9 L329.4,205.8 L330.6,204.5 L329.5,202.8 L330.7,200.4 L332.8,200.1 L335.8,198.0 L339.4,199.6 L339.5,198.6 L341.1,198.5 L341.7,200.0 L343.7,200.7 L344.9,202.9 L347.3,203.3 L348.7,201.8 L351.8,201.5 L349.6,199.3 L347.7,199.2 Z">
  <desc xmlns="http://www.highcharts.com/svg/namespace">
    <labelrank>2</labelrank>
    <hasc>ID.NB</hasc>
    <alt-name>NTB</alt-name>
    <woe-id>2345726</woe-id>
    <subregion>NULL</subregion>
    <fips>ID17</fips>
    <postal-code>NB</postal-code>
    <name>Nusa Tenggara Barat</name>
    <country>Indonesia</country>
    <type-en>Province</type-en>
    <region>NULL</region>
    <longitude>116.294</longitude>
    <woe-name>Nusa Tenggara Barat</woe-name>
    <latitude>-8.571059999999999</latitude>
    <woe-label>West Nusa Tenggara, ID, Indonesia</woe-label>
    <type>Propinsi</type>
    <hc-middle-x>0.44</hc-middle-x>
    <hc-middle-y>0.52</hc-middle-y>
    <hc-key>id-nb</hc-key>
    <hc-a2>NB</hc-a2>
  </desc>
</path>

<path fill="#CEE3F5" stroke="#6E6E6E" stroke-width="0.4" id="ID.SG" d="M435.9,159.8 L435.5,160.0 L434.3,158.4 L435.3,158.4 Z M429.1,150.4 L427.9,150.3 L427.6,148.7 L428.9,149.0 Z M403.4,147.3 L404.2,146.9 L405.6,148.7 L405.6,152.2 L404.4,152.8 L401.9,149.8 L402.5,147.5 Z M420.1,130.5 L421.9,130.3 L422.7,131.7 L421.5,133.7 L420.3,133.9 L418.6,132.4 L418.2,131.2 L419.3,130.1 Z M397.4,116.2 L400.1,116.2 L404.3,117.6 L406.5,117.8 L408.6,119.6 L408.0,120.7 L409.1,121.6 L407.3,121.7 L408.0,122.8 L406.7,124.4 L407.5,125.8 L410.4,126.8 L411.8,128.8 L413.9,129.5 L412.2,130.4 L413.8,130.8 L414.1,132.5 L416.6,132.5 L417.6,133.5 L417.6,136.3 L416.8,137.1 L414.1,135.3 L415.7,137.7 L413.1,136.6 L410.6,137.0 L405.9,138.7 L405.0,141.5 L406.4,142.9 L404.4,143.7 L401.8,143.2 L400.1,143.6 L397.8,142.3 L396.7,141.1 L397.2,134.8 L398.0,134.8 L398.5,132.6 L397.4,131.7 L394.4,131.0 L393.0,129.1 L391.4,128.6 L387.3,125.0 L386.9,123.6 L388.4,120.9 L389.6,119.8 L389.3,117.9 L389.7,115.6 L392.6,115.0 L395.6,116.9 Z M415.3,140.2 L416.1,144.7 L414.2,146.7 L413.6,148.9 L414.5,150.3 L412.9,151.9 L412.3,149.8 L411.7,151.5 L410.8,150.9 L408.9,151.2 L409.7,147.3 L410.6,146.6 L409.3,143.3 L410.4,141.8 L411.8,141.5 L414.1,139.9 Z M415.6,149.2 L416.6,148.9 L415.9,147.9 L417.2,142.7 L417.0,140.2 L417.8,137.6 L419.4,136.3 L422.0,138.8 L422.4,140.4 L422.6,142.5 L421.1,141.0 L420.1,141.4 L419.6,144.3 L418.9,145.2 L418.7,147.9 L419.8,147.4 L422.4,148.9 L422.8,149.7 L420.6,151.5 L419.3,151.2 L417.8,152.2 L418.5,153.2 L417.2,155.5 L415.8,154.8 L414.4,155.3 L413.3,153.1 Z">
  <desc xmlns="http://www.highcharts.com/svg/namespace">
    <labelrank>2</labelrank>
    <hasc>ID.SG</hasc>
    <alt-name>Sultra</alt-name>
    <woe-id>2345731</woe-id>
    <subregion>NULL</subregion>
    <fips>ID22</fips>
    <postal-code>SG</postal-code>
    <name>Sulawesi Tenggara</name>
    <country>Indonesia</country>
    <type-en>Province</type-en>
    <region>NULL</region>
    <longitude>122.119</longitude>
    <woe-name>Sulawesi Tenggara</woe-name>
    <latitude>-4.0746</latitude>
    <woe-label>South East Sulawesi, ID, Indonesia</woe-label>
    <type>Propinsi</type>
    <hc-middle-x>0.29</hc-middle-x>
    <hc-middle-y>0.28</hc-middle-y>
    <hc-key>id-sg</hc-key>
    <hc-a2>SG</hc-a2>
  </desc>
</path>

<path fill="#CEE3F5" stroke="#6E6E6E" stroke-width="0.4" id="ID.ST" d="M430.6,100.3 L429.5,100.2 L429.3,98.4 L430.2,99.2 Z M419.0,99.2 L418.5,99.2 L419.0,97.0 L419.8,98.1 Z M425.8,94.5 L426.6,94.8 L426.0,96.3 L424.7,96.0 L424.4,94.0 L425.1,92.8 Z M399.4,78.0 L400.3,78.9 L399.8,79.6 L396.8,79.1 Z M402.4,76.7 L403.4,77.6 L399.7,77.9 L400.4,76.6 Z M408.6,119.6 L406.5,117.8 L404.3,117.6 L400.1,116.2 L397.4,116.2 L399.9,113.5 L400.0,111.6 L394.8,107.6 L393.3,107.1 L385.1,105.9 L382.4,104.0 L378.9,100.2 L377.3,101.2 L373.6,100.8 L371.1,102.3 L370.3,101.1 L370.6,99.9 L368.7,97.4 L368.1,95.2 L364.9,92.8 L366.5,90.7 L366.0,89.3 L365.8,86.1 L367.4,84.6 L368.1,83.0 L369.9,86.5 L369.9,84.1 L368.3,80.6 L368.6,75.2 L366.2,74.5 L366.7,73.3 L369.0,74.9 L369.8,72.5 L368.2,70.1 L369.4,69.4 L369.9,66.6 L371.6,65.9 L371.4,63.7 L371.9,62.5 L374.4,61.1 L374.9,58.6 L375.8,58.8 L376.0,60.6 L379.4,61.5 L381.0,58.3 L382.6,57.1 L382.7,53.5 L383.9,52.8 L387.7,53.4 L389.3,54.4 L392.0,53.2 L392.6,55.8 L394.9,56.5 L399.3,55.7 L400.0,56.7 L401.7,56.2 L403.4,56.6 L400.4,58.1 L398.1,57.7 L393.2,59.8 L391.3,59.7 L388.2,62.5 L389.7,63.9 L390.9,64.0 L391.0,65.6 L388.4,65.8 L387.8,66.5 L385.8,66.1 L384.4,66.5 L381.2,65.1 L378.6,65.3 L376.7,66.2 L373.3,70.7 L372.8,73.3 L371.9,74.5 L371.6,76.6 L373.4,83.1 L375.8,86.4 L377.1,87.0 L378.3,86.5 L381.0,89.3 L380.8,90.9 L382.6,93.5 L384.9,92.6 L385.8,93.4 L388.5,93.6 L389.8,92.1 L390.2,90.3 L391.2,89.4 L394.5,85.0 L396.8,84.2 L397.7,86.0 L400.9,86.1 L403.5,85.5 L404.9,83.1 L410.9,82.6 L412.5,83.1 L416.1,82.0 L412.7,81.0 L414.0,80.4 L417.0,80.0 L417.7,79.3 L420.2,79.4 L422.7,80.4 L423.5,82.1 L422.6,85.8 L421.6,86.5 L419.1,84.9 L418.2,83.5 L417.7,84.2 L414.0,85.0 L412.8,87.8 L411.8,88.6 L407.8,93.7 L405.2,95.7 L402.7,95.8 L399.5,97.5 L398.1,100.4 L395.8,100.7 L394.3,99.1 L392.3,98.8 L392.9,101.8 L393.7,100.6 L395.8,102.7 L396.5,104.2 L398.4,104.4 L400.3,105.9 L403.4,110.6 L403.4,111.7 L405.9,113.3 L406.1,114.2 L408.0,115.0 L407.6,116.7 L410.4,118.6 L410.0,119.6 Z M415.5,88.8 L420.0,88.1 L420.6,91.7 L423.1,88.9 L425.2,89.6 L425.1,92.0 L422.7,93.3 L422.1,92.0 L421.1,92.7 L421.1,95.0 L419.0,94.2 L420.0,93.1 L419.6,90.5 L418.6,91.0 L417.2,93.5 L415.4,94.7 L414.4,92.7 L414.6,90.2 Z">
  <desc xmlns="http://www.highcharts.com/svg/namespace">
    <labelrank>2</labelrank>
    <hasc>ID.ST</hasc>
    <alt-name>Sulteng</alt-name>
    <woe-id>2345730</woe-id>
    <subregion>NULL</subregion>
    <fips>ID21</fips>
    <postal-code>ST</postal-code>
    <name>Sulawesi Tengah</name>
    <country>Indonesia</country>
    <type-en>Province</type-en>
    <region>NULL</region>
    <longitude>120.153</longitude>
    <woe-name>Sulawesi Tengah</woe-name>
    <latitude>-1.30097</latitude>
    <woe-label>Central Sulawesi, ID, Indonesia</woe-label>
    <type>Propinsi</type>
    <hc-middle-x>0.44</hc-middle-x>
    <hc-middle-y>0.62</hc-middle-y>
    <hc-key>id-st</hc-key>
    <hc-a2>ST</hc-a2>
  </desc>
</path>

<path fill="#CEE3F5" stroke="#6E6E6E" stroke-width="0.4" id="ID.PA" d="M665.5,194.3 L665.4,195.2 L659.9,194.4 L660.1,193.5 L662.1,191.5 L664.4,191.6 Z M663.3,170.0 L662.3,169.8 L661.4,167.7 L663.3,168.5 Z M603.5,84.7 L606.7,84.7 L605.8,85.4 L603.1,85.4 Z M600.0,78.5 L601.1,77.6 L600.5,79.3 L598.8,79.1 L597.9,77.9 L599.1,76.4 L600.4,77.3 Z M651.6,182.0 L655.1,179.6 L661.2,178.2 L664.2,178.4 L666.3,181.1 L668.5,181.7 L667.1,184.3 L667.0,185.8 L665.3,187.5 L665.4,189.2 L663.0,191.0 L661.7,191.2 L660.7,192.6 L658.1,194.6 L655.6,195.2 L653.8,194.6 L648.5,194.4 L645.1,195.1 L647.1,189.5 L647.8,189.0 L649.4,185.4 Z M622.0,90.9 L613.0,87.9 L609.2,87.6 L609.1,86.3 L615.8,87.0 L620.6,86.9 L623.8,87.9 L628.9,87.8 L631.2,88.2 L631.6,89.1 L629.3,89.3 L628.0,90.1 L624.9,90.5 L623.0,90.1 Z M607.2,72.6 L607.6,71.5 L611.7,71.8 L613.3,72.7 L614.4,71.8 L618.0,74.5 L620.2,77.5 L623.1,77.8 L621.9,79.3 L619.5,80.0 L617.0,79.3 L615.7,79.6 L614.4,78.4 L613.4,74.7 L612.8,73.9 L611.5,75.0 L608.6,73.1 Z M597.0,106.5 L597.5,108.4 L598.7,108.6 L599.9,107.4 L599.5,111.1 L600.5,112.8 L601.8,112.7 L602.2,114.1 L607.6,114.9 L609.9,114.4 L614.2,109.8 L616.8,108.2 L617.6,104.9 L619.2,103.2 L622.3,101.3 L624.3,95.8 L630.0,96.0 L634.2,93.8 L637.5,93.0 L637.1,91.0 L635.4,90.0 L636.0,88.4 L639.2,87.0 L642.1,85.1 L646.3,83.1 L648.4,83.0 L651.0,85.0 L655.6,86.4 L660.7,87.5 L663.1,89.6 L668.1,90.9 L671.1,92.6 L680.8,96.4 L685.7,95.4 L686.5,96.7 L688.6,97.5 L689.5,96.5 L693.1,97.1 L695.4,98.0 L694.7,99.8 L699.3,99.6 L699.6,110.4 L700.0,161.6 L699.6,164.0 L698.0,166.1 L697.8,167.7 L698.9,170.4 L699.9,170.9 L699.1,207.6 L697.1,206.6 L693.4,202.4 L691.6,199.6 L687.5,195.7 L683.9,193.0 L682.4,190.7 L677.4,190.8 L672.9,192.0 L670.8,189.9 L668.6,190.8 L665.7,193.3 L664.5,190.8 L665.9,189.9 L665.8,187.3 L667.1,186.4 L667.4,184.6 L668.8,181.4 L666.6,180.6 L665.5,178.2 L662.3,175.4 L665.8,175.5 L669.9,176.3 L666.8,175.0 L663.5,174.1 L660.5,171.3 L660.6,170.5 L663.2,170.6 L666.3,169.7 L669.5,171.9 L667.4,169.9 L664.5,169.1 L662.1,167.3 L662.7,166.2 L658.8,162.5 L657.6,159.8 L657.1,157.5 L655.6,154.2 L657.3,153.7 L654.6,153.2 L653.8,152.3 L657.1,150.8 L652.4,151.6 L652.4,146.6 L651.0,147.4 L649.9,145.2 L648.3,145.7 L646.4,143.5 L641.5,141.5 L639.5,139.0 L638.5,140.2 L634.2,138.8 L634.1,138.0 L632.1,138.9 L624.5,135.0 L623.1,135.0 L619.4,133.6 L618.3,132.6 L614.4,132.3 L609.7,131.4 L606.5,131.9 L600.8,128.8 L606.8,120.8 L590.7,115.5 L590.6,114.1 L593.6,110.4 L593.5,109.5 Z">
  <desc xmlns="http://www.highcharts.com/svg/namespace">
    <labelrank>2</labelrank>
    <hasc>ID.PA</hasc>
    <alt-name>New Guinea|Yos Sudarso or Frederick Hendrik|Waigeo|Supiori Biak|Yapen|Misool|Salawati|Batanta</alt-name>
    <woe-id>2345718</woe-id>
    <subregion>NULL</subregion>
    <fips>ID36</fips>
    <postal-code>PA</postal-code>
    <name>Papua</name>
    <country>Indonesia</country>
    <type-en>Province</type-en>
    <region>NULL</region>
    <longitude>138.689</longitude>
    <woe-name>Papua</woe-name>
    <latitude>-4.10825</latitude>
    <woe-label>Papua, ID, Indonesia</woe-label>
    <type>Propinsi</type>
    <hc-middle-x>0.65</hc-middle-x>
    <hc-middle-y>0.40</hc-middle-y>
    <hc-key>id-pa</hc-key>
    <hc-a2>PA</hc-a2>
  </desc>
</path>

<path fill="#CEE3F5" stroke="#6E6E6E" stroke-width="0.4" id="ID.1024" d="M134.4,158.7 L136.2,157.4 L136.6,156.9 L138.5,158.7 L141.4,158.7 L144.5,157.7 L145.0,156.5 L143.9,155.0 L144.4,153.7 L144.3,151.0 L147.4,149.0 L149.5,148.5 L153.9,146.6 L155.8,144.7 L155.9,143.1 L157.9,142.0 L158.4,140.0 L161.5,141.5 L163.0,144.0 L164.7,145.4 L166.4,145.4 L166.4,147.5 L167.9,149.9 L167.7,155.5 L168.3,156.9 L167.8,158.4 L168.0,161.5 L167.6,163.4 L167.8,167.4 L167.3,170.0 L164.6,169.9 L163.6,167.7 L162.7,167.8 L160.0,165.1 L159.1,165.1 L159.1,166.7 L158.2,166.9 L158.9,169.5 L157.5,170.0 L152.5,167.7 L149.9,166.1 L148.7,167.3 L151.2,170.7 L151.7,172.4 L149.4,172.6 L149.1,171.4 L145.3,168.7 L144.6,167.2 L142.3,166.0 L139.0,162.8 L139.1,161.7 L137.2,160.2 L135.1,159.6 Z">
  <desc xmlns="http://www.highcharts.com/svg/namespace">
    <labelrank>2</labelrank>
    <hasc>ID.LA</hasc>
    <alt-name>NULL</alt-name>
    <woe-id>2345724</woe-id>
    <subregion>NULL</subregion>
    <fips>ID15</fips>
    <postal-code>NULL</postal-code>
    <name>Lampung</name>
    <country>Indonesia</country>
    <type-en>Province</type-en>
    <region>NULL</region>
    <longitude>105.059</longitude>
    <woe-name>Lampung</woe-name>
    <latitude>-4.919</latitude>
    <woe-label>Lampung, ID, Indonesia</woe-label>
    <type>Propinsi</type>
    <hc-middle-x>0.65</hc-middle-x>
    <hc-middle-y>0.61</hc-middle-y>
    <hc-key>id-1024</hc-key>
    <hc-a2>LA</hc-a2>
  </desc>
</path>

<path fill="#CEE3F5" stroke="#6E6E6E" stroke-width="0.4" id="ID.JK" d="M182.1,176.0 L180.8,173.2 L181.4,172.5 L181.8,173.0 L185.2,172.6 L185.3,174.8 L184.6,177.0 Z">
  <desc xmlns="http://www.highcharts.com/svg/namespace">
    <labelrank>9</labelrank>
    <hasc>ID.JK</hasc>
    <alt-name>Jawa|Djakarta</alt-name>
    <woe-id>2345713</woe-id>
    <subregion>NULL</subregion>
    <fips>ID04</fips>
    <postal-code>JK</postal-code>
    <name>Jakarta Raya</name>
    <country>Indonesia</country>
    <type-en>Special district</type-en>
    <region>NULL</region>
    <longitude>106.837</longitude>
    <woe-name>Jakarta Raya</woe-name>
    <latitude>-6.22462</latitude>
    <woe-label>DKI Jakarta, ID, Indonesia</woe-label>
    <type>Daerah Khusus Ibukota</type>
    <hc-middle-x>0.50</hc-middle-x>
    <hc-middle-y>0.50</hc-middle-y>
    <hc-key>id-jk</hc-key>
    <hc-a2>JK</hc-a2>
  </desc>
</path>

<path fill="#CEE3F5" stroke="#6E6E6E" stroke-width="0.4" id="ID.JR" d="M182.1,176.0 L184.6,177.0 L185.3,174.8 L185.2,172.6 L185.9,170.1 L187.5,170.8 L190.5,170.7 L192.3,173.1 L195.5,174.2 L197.4,173.4 L201.6,175.2 L203.1,173.6 L205.5,173.8 L205.7,175.1 L208.3,177.1 L209.5,181.1 L211.6,181.7 L213.8,181.6 L212.5,183.4 L212.4,185.3 L211.1,186.5 L209.4,187.0 L209.2,189.1 L210.9,189.5 L213.1,194.1 L211.3,195.0 L209.4,194.7 L208.2,196.6 L206.4,196.7 L200.9,196.0 L196.9,195.1 L195.4,193.8 L192.7,192.9 L188.2,192.6 L179.7,192.5 L177.8,192.1 L177.4,190.2 L179.6,187.3 L179.5,186.2 L177.5,186.5 L178.1,184.1 L178.8,183.3 L177.6,182.1 L177.1,179.6 L177.2,177.3 L177.8,176.8 L180.3,177.3 L182.2,177.0 Z">
  <desc xmlns="http://www.highcharts.com/svg/namespace">
    <labelrank>2</labelrank>
    <hasc>ID.JR</hasc>
    <alt-name>Jabar</alt-name>
    <woe-id>2345715</woe-id>
    <subregion>NULL</subregion>
    <fips>ID30</fips>
    <postal-code>JR</postal-code>
    <name>Jawa Barat</name>
    <country>Indonesia</country>
    <type-en>Province</type-en>
    <region>NULL</region>
    <longitude>107.638</longitude>
    <woe-name>Jawa Barat</woe-name>
    <latitude>-6.90763</latitude>
    <woe-label>West Java, ID, Indonesia</woe-label>
    <type>Propinsi</type>
    <hc-middle-x>0.63</hc-middle-x>
    <hc-middle-y>0.52</hc-middle-y>
    <hc-key>id-jr</hc-key>
    <hc-a2>JR</hc-a2>
  </desc>
</path>

<path fill="#CEE3F5" stroke="#6E6E6E" stroke-width="0.4" id="ID.GO" d="M403.4,56.6 L407.2,56.5 L409.8,57.1 L413.2,59.1 L414.9,56.9 L416.9,57.3 L418.5,58.6 L419.3,60.1 L422.2,61.7 L423.3,64.4 L422.7,66.2 L419.5,66.1 L416.8,63.4 L415.4,64.0 L410.6,64.3 L405.7,64.3 L397.9,65.8 L396.2,64.4 L393.8,64.4 L393.5,65.1 L391.0,65.6 L390.9,64.0 L389.7,63.9 L388.2,62.5 L391.3,59.7 L393.2,59.8 L398.1,57.7 L400.4,58.1 Z">
  <desc xmlns="http://www.highcharts.com/svg/namespace">
    <labelrank>7</labelrank>
    <hasc>ID.GO</hasc>
    <alt-name>NULL</alt-name>
    <woe-id>2345732</woe-id>
    <subregion>NULL</subregion>
    <fips>ID34</fips>
    <postal-code>GO</postal-code>
    <name>Gorontalo</name>
    <country>Indonesia</country>
    <type-en>Province</type-en>
    <region>NULL</region>
    <longitude>122.331</longitude>
    <woe-name>Gorontalo</woe-name>
    <latitude>0.760501</latitude>
    <woe-label>Gorontalo, ID, Indonesia</woe-label>
    <type>Propinsi</type>
    <hc-middle-x>0.63</hc-middle-x>
    <hc-middle-y>0.49</hc-middle-y>
    <hc-key>id-go</hc-key>
    <hc-a2>GO</hc-a2>
  </desc>
</path>

<path fill="#CEE3F5" stroke="#6E6E6E" stroke-width="0.4" id="ID.YO" d="M243.3,200.2 L237.9,199.2 L231.4,196.3 L232.6,193.1 L234.4,193.6 L236.9,191.2 L238.1,194.4 L240.8,194.7 L242.2,195.4 L242.6,199.0 Z">
  <desc xmlns="http://www.highcharts.com/svg/namespace">
    <labelrank>7</labelrank>
    <hasc>ID.YO</hasc>
    <alt-name>Jawa|Daerah Istimewa Yogyakarta</alt-name>
    <woe-id>2345719</woe-id>
    <subregion>NULL</subregion>
    <fips>ID10</fips>
    <postal-code>YO</postal-code>
    <name>Yogyakarta</name>
    <country>Indonesia</country>
    <type-en>Special region</type-en>
    <region>NULL</region>
    <longitude>110.443</longitude>
    <woe-name>Yogyakarta</woe-name>
    <latitude>-7.83533</latitude>
    <woe-label>Special Region of Yogyakarta, ID, Indonesia</woe-label>
    <type>Daerah Istimewa</type>
    <hc-middle-x>0.59</hc-middle-x>
    <hc-middle-y>0.50</hc-middle-y>
    <hc-key>id-yo</hc-key>
    <hc-a2>YO</hc-a2>
  </desc>
</path>

<path fill="#CEE3F5" stroke="#6E6E6E" stroke-width="0.4" id="ID.KT" d="M290.3,128.0 L289.6,127.5 L290.9,124.7 L289.3,126.9 L287.5,127.1 L287.4,124.9 L286.3,127.0 L284.1,128.2 L280.4,128.8 L280.0,124.9 L277.7,125.0 L276.1,126.3 L273.5,123.6 L272.3,123.2 L271.2,121.5 L271.0,123.2 L270.1,124.5 L271.2,125.0 L265.5,129.1 L264.1,129.4 L260.8,127.7 L258.1,128.9 L255.2,131.8 L253.9,131.5 L254.1,128.8 L253.5,126.3 L253.7,124.4 L252.1,120.9 L251.7,122.8 L250.0,123.9 L247.9,122.8 L245.7,123.0 L242.4,125.0 L240.1,125.5 L237.9,124.8 L238.5,123.7 L240.7,122.5 L243.2,120.2 L243.0,115.4 L240.9,111.4 L240.6,109.4 L241.0,105.8 L240.6,104.6 L239.2,104.0 L240.5,102.7 L242.3,102.6 L245.0,100.2 L246.2,98.6 L248.5,97.3 L249.5,94.7 L256.1,90.3 L259.9,90.4 L262.8,89.5 L268.9,86.4 L271.2,85.6 L272.7,86.7 L273.2,84.8 L272.4,84.0 L273.5,82.3 L274.9,81.3 L275.5,79.2 L275.1,77.6 L273.1,75.1 L276.1,74.7 L277.4,73.9 L277.7,72.4 L279.4,70.1 L283.2,68.6 L285.4,68.5 L288.2,69.2 L292.4,68.5 L293.4,67.7 L296.9,66.6 L298.2,68.0 L298.6,69.5 L296.9,73.2 L298.1,76.5 L297.4,78.8 L298.0,79.9 L300.6,77.1 L302.9,77.0 L302.1,80.3 L303.1,84.6 L303.9,85.5 L305.3,89.9 L307.8,91.1 L309.6,92.9 L310.5,92.6 L310.6,95.6 L308.9,97.6 L308.9,96.7 L305.2,98.0 L304.1,102.9 L304.5,104.9 L304.2,106.8 L301.4,109.5 L298.1,110.4 L298.3,112.7 L296.7,116.7 L294.5,118.8 L292.7,119.8 Z">
  <desc xmlns="http://www.highcharts.com/svg/namespace">
    <labelrank>2</labelrank>
    <hasc>ID.KT</hasc>
    <alt-name>Kalteng</alt-name>
    <woe-id>2345722</woe-id>
    <subregion>NULL</subregion>
    <fips>ID13</fips>
    <postal-code>KT</postal-code>
    <name>Kalimantan Tengah</name>
    <country>Indonesia</country>
    <type-en>Province</type-en>
    <region>NULL</region>
    <longitude>113.286</longitude>
    <woe-name>Kalimantan Tengah</woe-name>
    <latitude>-1.84217</latitude>
    <woe-label>Central Kalimantan, ID, Indonesia</woe-label>
    <type>Propinsi</type>
    <hc-middle-x>0.55</hc-middle-x>
    <hc-middle-y>0.56</hc-middle-y>
    <hc-key>id-kt</hc-key>
    <hc-a2>KT</hc-a2>
  </desc>
</path>

<path fill="#CEE3F5" stroke="#6E6E6E" stroke-width="0.4" id="ID.SL" d="M145.2,110.9 L144.6,113.2 L145.4,112.7 L146.9,113.6 L147.8,115.4 L149.0,114.6 L150.5,115.8 L150.6,117.0 L148.8,119.7 L148.5,123.2 L149.3,121.0 L150.8,118.8 L151.6,120.0 L152.6,119.3 L154.4,120.0 L155.6,119.4 L161.9,119.8 L161.8,122.1 L162.8,123.6 L164.4,123.9 L164.8,126.5 L166.1,127.7 L168.2,127.8 L168.8,128.9 L169.2,132.0 L167.2,133.7 L165.9,138.3 L168.0,140.6 L166.4,145.4 L164.7,145.4 L163.0,144.0 L161.5,141.5 L158.4,140.0 L157.9,142.0 L155.9,143.1 L155.8,144.7 L153.9,146.6 L149.5,148.5 L147.4,149.0 L144.3,151.0 L144.4,153.7 L143.9,155.0 L145.0,156.5 L144.5,157.7 L141.4,158.7 L138.5,158.7 L136.6,156.9 L134.2,152.6 L134.0,151.3 L127.5,149.1 L126.6,146.3 L124.2,146.3 L121.0,145.4 L118.8,143.3 L119.9,142.9 L122.6,140.4 L122.3,139.5 L124.0,139.6 L124.3,138.1 L123.5,136.8 L122.0,136.6 L120.3,135.3 L118.4,136.8 L115.8,135.2 L116.1,133.7 L115.2,132.8 L112.3,132.5 L112.0,131.0 L109.5,128.6 L112.2,126.3 L115.1,127.4 L117.3,127.0 L120.1,124.8 L121.0,123.1 L120.9,121.5 L124.8,122.0 L126.0,121.3 L125.4,120.3 L126.0,118.7 L129.8,121.7 L129.7,119.3 L131.0,118.6 L130.5,117.5 L130.6,115.2 L135.7,112.4 L139.2,112.7 L142.1,112.2 L143.6,110.4 Z">
  <desc xmlns="http://www.highcharts.com/svg/namespace">
    <labelrank>2</labelrank>
    <hasc>ID.SL</hasc>
    <alt-name>Sumsel</alt-name>
    <woe-id>2345734</woe-id>
    <subregion>NULL</subregion>
    <fips>ID32</fips>
    <postal-code>SL</postal-code>
    <name>Sumatera Selatan</name>
    <country>Indonesia</country>
    <type-en>Province</type-en>
    <region>NULL</region>
    <longitude>104.073</longitude>
    <woe-name>Sumatera Selatan</woe-name>
    <latitude>-3.3824</latitude>
    <woe-label>South Sumatra, ID, Indonesia</woe-label>
    <type>Propinsi</type>
    <hc-middle-x>0.55</hc-middle-x>
    <hc-middle-y>0.49</hc-middle-y>
    <hc-key>id-sl</hc-key>
    <hc-a2>SL</hc-a2>
  </desc>
</path>

<path fill="#CEE3F5" stroke="#6E6E6E" stroke-width="0.4" id="ID.SR" d="M366.5,125.1 L363.6,124.4 L362.3,125.3 L359.7,125.8 L358.2,126.7 L356.8,123.5 L357.0,122.7 L355.5,119.8 L356.8,119.2 L357.1,116.3 L355.5,116.4 L355.2,115.2 L356.1,112.9 L357.4,113.2 L360.6,110.0 L360.4,106.5 L361.4,103.6 L363.2,102.9 L363.5,100.8 L362.6,98.9 L362.9,97.1 L362.2,94.4 L362.5,91.8 L364.3,90.0 L365.2,86.5 L365.8,86.1 L366.0,89.3 L366.5,90.7 L364.9,92.8 L368.1,95.2 L368.7,97.4 L370.6,99.9 L370.3,101.1 L371.1,102.3 L370.5,103.7 L367.9,105.7 L367.7,107.5 L368.9,108.3 L370.3,113.3 L368.5,114.3 L366.4,114.4 L366.9,116.6 L368.5,119.6 L365.3,120.8 Z">
  <desc xmlns="http://www.highcharts.com/svg/namespace">
    <labelrank>2</labelrank>
    <hasc>ID.SR</hasc>
    <alt-name>Sulsel</alt-name>
    <woe-id>28350155</woe-id>
    <subregion>NULL</subregion>
    <fips>ID41</fips>
    <postal-code>SR</postal-code>
    <name>Sulawesi Barat</name>
    <country>Indonesia</country>
    <type-en>Province</type-en>
    <region>NULL</region>
    <longitude>119.316</longitude>
    <woe-name>Sulawesi Barat</woe-name>
    <latitude>-2.69615</latitude>
    <woe-label>West Sulawesi, ID, Indonesia</woe-label>
    <type>Propinsi</type>
    <hc-middle-x>0.16</hc-middle-x>
    <hc-middle-y>0.71</hc-middle-y>
    <hc-key>id-sr</hc-key>
    <hc-a2>SR</hc-a2>
  </desc>
</path>

<path fill="#CEE3F5" stroke="#6E6E6E" stroke-width="0.4" id="ID.JA" d="M128.1,97.3 L131.5,100.0 L134.3,101.2 L136.0,100.3 L139.9,101.5 L142.3,100.7 L143.5,104.7 L143.9,108.0 L145.2,110.9 L143.6,110.4 L142.1,112.2 L139.2,112.7 L135.7,112.4 L130.6,115.2 L130.5,117.5 L131.0,118.6 L129.7,119.3 L129.8,121.7 L126.0,118.7 L125.4,120.3 L126.0,121.3 L124.8,122.0 L120.9,121.5 L121.0,123.1 L120.1,124.8 L117.3,127.0 L115.1,127.4 L112.2,126.3 L109.5,128.6 L107.0,128.1 L104.4,126.7 L101.7,124.1 L100.8,122.0 L99.6,121.1 L98.1,122.0 L96.8,118.9 L94.9,116.6 L94.3,113.4 L96.0,113.7 L99.3,113.3 L102.5,109.9 L102.4,106.8 L104.1,105.9 L104.7,104.8 L103.5,103.0 L105.2,102.3 L107.0,100.4 L109.6,99.9 L110.7,100.2 L112.2,102.1 L115.1,103.0 L117.0,100.2 L118.7,98.5 L120.4,98.0 L123.1,97.9 Z">
  <desc xmlns="http://www.highcharts.com/svg/namespace">
    <labelrank>6</labelrank>
    <hasc>ID.JA</hasc>
    <alt-name>Djambi</alt-name>
    <woe-id>2345714</woe-id>
    <subregion>NULL</subregion>
    <fips>ID05</fips>
    <postal-code>JA</postal-code>
    <name>Jambi</name>
    <country>Indonesia</country>
    <type-en>Province</type-en>
    <region>NULL</region>
    <longitude>102.823</longitude>
    <woe-name>Jambi</woe-name>
    <latitude>-1.65497</latitude>
    <woe-label>Jambi, ID, Indonesia</woe-label>
    <type>Propinsi</type>
    <hc-middle-x>0.50</hc-middle-x>
    <hc-middle-y>0.48</hc-middle-y>
    <hc-key>id-ja</hc-key>
    <hc-a2>JA</hc-a2>
  </desc>
</path>
</g>

<text x="350" y="714" text-anchor="middle" font-family="Verdana" font-size="8" stroke-opacity="0.6">Copyright (c) 2014 Highsoft AS, Based on data from Natural Earth</text>

</svg>